<svg width="35" height="35" viewBox="0 0 35 35" fill="none" xmlns="http://www.w3.org/2000/svg">
<path d="M4.01885 30.0187C3.80353 29.9445 3.61673 29.805 3.4845 29.6196C3.35228 29.4342 3.28122 29.2121 3.28125 28.9844C3.28125 23.9873 4.28477 19.991 6.26514 17.1056C8.65771 13.6193 12.4318 11.7421 17.5 11.509V6.01565C17.5 5.80148 17.5629 5.59203 17.6809 5.41328C17.7989 5.23453 17.9667 5.09435 18.1636 5.01013C18.3605 4.9259 18.5778 4.90134 18.7886 4.93949C18.9993 4.97764 19.1942 5.07682 19.3491 5.22473L31.3804 16.7091C31.4873 16.8112 31.5724 16.934 31.6305 17.0699C31.6887 17.2059 31.7186 17.3522 31.7186 17.5C31.7186 17.6479 31.6887 17.7942 31.6305 17.9301C31.5724 18.0661 31.4873 18.1888 31.3804 18.2909L19.3491 29.7753C19.1942 29.9232 18.9993 30.0224 18.7886 30.0606C18.5778 30.0987 18.3605 30.0741 18.1636 29.9899C17.9667 29.9057 17.7989 29.7655 17.6809 29.5868C17.5629 29.408 17.5 29.1986 17.5 28.9844V23.5314C14.4238 23.6243 12.0996 24.1227 10.2491 25.079C8.24961 26.1126 6.79971 27.6569 5.23701 29.6591C5.09682 29.8386 4.90409 29.9699 4.68571 30.0346C4.46733 30.0993 4.2342 30.0942 4.01885 30.02V30.0187Z" fill="white"/>
</svg>
