<svg width="170" height="34" viewBox="0 0 170 34" fill="none" xmlns="http://www.w3.org/2000/svg">
<path d="M31.6875 3.94141C31.5417 4.03255 31.3867 4.08724 31.2227 4.10547C31.0586 4.1237 30.8854 4.15104 30.7031 4.1875C30.5391 4.20573 30.3841 4.24219 30.2383 4.29688C30.0924 4.35156 29.9831 4.45182 29.9102 4.59766C29.7279 4.41536 29.5273 4.26042 29.3086 4.13281C29.0898 4.00521 28.8711 3.86849 28.6523 3.72266C28.4701 3.77734 28.2878 3.85026 28.1055 3.94141C27.9232 4.03255 27.7409 4.07812 27.5586 4.07812C27.431 4.07812 27.3034 4.03255 27.1758 3.94141C27.0299 4.05078 26.8568 4.14193 26.6562 4.21484C26.474 4.26953 26.2734 4.32422 26.0547 4.37891C25.8542 4.43359 25.6628 4.50651 25.4805 4.59766C25.3164 4.6888 25.1979 4.82552 25.125 5.00781C25.0885 4.91667 24.9974 4.88932 24.8516 4.92578C24.724 4.96224 24.651 4.91667 24.6328 4.78906C24.0495 4.98958 23.457 5.16276 22.8555 5.30859C22.2539 5.45443 21.6523 5.60938 21.0508 5.77344C20.4492 5.9375 19.8568 6.11979 19.2734 6.32031C18.6901 6.52083 18.125 6.76693 17.5781 7.05859C17.5599 7.07682 17.5508 7.10417 17.5508 7.14062C17.5508 7.32292 17.5781 7.49609 17.6328 7.66016C17.6875 7.82422 17.7331 7.97917 17.7695 8.125C17.4414 9.23698 17.2227 10.3672 17.1133 11.5156C17.0039 12.6641 16.8581 13.7943 16.6758 14.9062V15.0156C16.6758 15.1068 16.7122 15.1797 16.7852 15.2344C16.8581 15.2708 16.8945 15.3438 16.8945 15.4531L16.8672 15.5078C16.776 15.5625 16.7122 15.6445 16.6758 15.7539C16.6393 15.8451 16.6211 15.9453 16.6211 16.0547C16.6211 16.1276 16.6393 16.237 16.6758 16.3828C16.3659 17.4219 16.1562 18.4792 16.0469 19.5547C15.9557 20.6302 15.8372 21.7057 15.6914 22.7812L15.4453 24.5859C15.4089 24.6953 15.3724 24.8047 15.3359 24.9141C15.3177 25.0052 15.3086 25.1055 15.3086 25.2148C15.3086 25.7982 15.3451 26.3724 15.418 26.9375C15.5091 27.4844 15.5365 28.0495 15.5 28.6328C15.6641 28.888 15.7461 29.1341 15.7461 29.3711C15.7461 29.4622 15.737 29.5534 15.7188 29.6445C15.7188 29.7357 15.7096 29.8268 15.6914 29.918C15.9284 30.1549 16.2018 30.319 16.5117 30.4102C16.8398 30.5195 17.1315 30.6836 17.3867 30.9023V31.0117C17.3867 31.194 17.3594 31.3672 17.3047 31.5312C17.25 31.7135 17.2044 31.8958 17.168 32.0781C17.1315 32.224 17.0859 32.4336 17.0312 32.707C16.9948 32.9805 16.9401 33.1628 16.8672 33.2539C16.776 33.3815 16.6393 33.4909 16.457 33.582C16.293 33.6914 16.1289 33.7461 15.9648 33.7461C15.9102 33.7461 15.8281 33.7188 15.7188 33.6641C15.6276 33.6094 15.5547 33.5638 15.5 33.5273C15.4089 33.5273 15.2904 33.5729 15.1445 33.6641C14.9987 33.7552 14.8529 33.8008 14.707 33.8008C14.6341 33.8008 14.5703 33.7917 14.5156 33.7734C14.4609 33.7734 14.3971 33.7552 14.3242 33.7188C14.2513 33.5365 14.1419 33.3724 13.9961 33.2266C13.8685 33.099 13.7135 32.9714 13.5312 32.8438C13.5495 32.5885 13.5039 32.3971 13.3945 32.2695C13.2852 32.1419 13.1758 31.9779 13.0664 31.7773C13.0299 31.5221 12.9935 31.2305 12.957 30.9023C12.9388 30.5742 12.8021 30.3372 12.5469 30.1914C12.638 30.0638 12.6836 29.8906 12.6836 29.6719C12.6836 29.5807 12.6654 29.4805 12.6289 29.3711C12.6107 29.2617 12.556 29.1797 12.4648 29.125V29.0703C12.4466 28.9792 12.474 28.9154 12.5469 28.8789C12.638 28.8242 12.6836 28.7513 12.6836 28.6602V28.5508C12.556 27.9674 12.4922 27.3568 12.4922 26.7188C12.4922 26.1172 12.5104 25.5247 12.5469 24.9414C12.5833 24.3398 12.5833 23.7383 12.5469 23.1367C12.6562 23.0456 12.7383 22.8997 12.793 22.6992C12.8659 22.4987 12.9206 22.2799 12.957 22.043C12.9935 21.806 13.0117 21.5781 13.0117 21.3594C13.0299 21.1224 13.0482 20.931 13.0664 20.7852C13.1576 19.7461 13.3034 18.7253 13.5039 17.7227C13.7044 16.7018 13.8229 15.6628 13.8594 14.6055C13.9505 14.4596 14.0052 14.2682 14.0234 14.0312C14.0417 13.7943 14.0508 13.5482 14.0508 13.293C14.0508 13.0195 14.069 12.7552 14.1055 12.5C14.1419 12.2448 14.2148 12.026 14.3242 11.8438C14.3242 11.3333 14.3698 10.8229 14.4609 10.3125C14.5521 9.78385 14.5977 9.25521 14.5977 8.72656C14.5977 8.47135 14.5703 8.20703 14.5156 7.93359C14.3333 7.86068 14.1693 7.82422 14.0234 7.82422C13.8229 7.82422 13.6133 7.86979 13.3945 7.96094C13.194 8.03385 13.0482 8.15234 12.957 8.31641C12.556 8.33464 12.1641 8.39844 11.7812 8.50781C11.3984 8.61719 11.0156 8.67188 10.6328 8.67188H10.3594C10.2865 8.67188 10.2044 8.66276 10.1133 8.64453C9.98568 8.69922 9.84896 8.74479 9.70312 8.78125C9.57552 8.81771 9.52083 8.92708 9.53906 9.10938C8.97396 9.16406 8.41797 9.28255 7.87109 9.46484C7.34245 9.64714 6.8138 9.84766 6.28516 10.0664C5.75651 10.2669 5.22786 10.4583 4.69922 10.6406C4.15234 10.8229 3.59635 10.9414 3.03125 10.9961C2.83073 11.0872 2.70312 11.2786 2.64844 11.5703C2.2474 11.5339 1.91016 11.4336 1.63672 11.2695C1.36328 11.1055 1.04427 10.9505 0.679688 10.8047C0.570312 10.4219 0.515625 10.0573 0.515625 9.71094C0.515625 9.25521 0.606771 8.81771 0.789062 8.39844C0.971354 7.97917 1.26302 7.66927 1.66406 7.46875C1.75521 7.48698 1.83724 7.50521 1.91016 7.52344C1.98307 7.52344 2.0651 7.52344 2.15625 7.52344C2.44792 7.52344 2.73958 7.46875 3.03125 7.35938C3.32292 7.25 3.6237 7.19531 3.93359 7.19531C4.02474 7.19531 4.125 7.22266 4.23438 7.27734C4.36198 7.20443 4.52604 7.14974 4.72656 7.11328C4.90885 7.05859 5.08203 7.01302 5.24609 6.97656C5.42839 6.92188 5.59245 6.84896 5.73828 6.75781C5.88411 6.66667 5.97526 6.53906 6.01172 6.375C6.10286 6.44792 6.20312 6.49349 6.3125 6.51172C6.42188 6.52995 6.53125 6.53906 6.64062 6.53906C6.8776 6.53906 7.1237 6.49349 7.37891 6.40234C7.63411 6.3112 7.83464 6.16536 7.98047 5.96484C8.10807 6.11068 8.29036 6.18359 8.52734 6.18359C8.78255 6.18359 9.02865 6.11979 9.26562 5.99219C9.52083 5.84635 9.76693 5.77344 10.0039 5.77344C10.1862 5.77344 10.3229 5.83724 10.4141 5.96484C10.6146 5.80078 10.8516 5.67318 11.125 5.58203C11.3984 5.49089 11.6719 5.40885 11.9453 5.33594C12.237 5.26302 12.5013 5.18099 12.7383 5.08984C12.9935 4.9987 13.194 4.87109 13.3398 4.70703C13.431 4.72526 13.5768 4.73438 13.7773 4.73438C14.0872 4.73438 14.3789 4.69792 14.6523 4.625C14.944 4.53385 15.2357 4.45182 15.5273 4.37891L16.1016 4.32422C16.2474 4.30599 16.375 4.26042 16.4844 4.1875C16.612 4.11458 16.7396 4.05078 16.8672 3.99609C16.9948 3.94141 17.1224 3.89583 17.25 3.85938C17.3958 3.82292 17.569 3.8138 17.7695 3.83203C18.207 3.59505 18.6719 3.41276 19.1641 3.28516C19.6562 3.15755 20.1576 3.04818 20.668 2.95703C21.1784 2.84766 21.6797 2.72917 22.1719 2.60156C22.6641 2.45573 23.1289 2.24609 23.5664 1.97266H23.6484C24.013 1.97266 24.3685 1.90885 24.7148 1.78125C25.0794 1.65365 25.4167 1.48047 25.7266 1.26172C25.7812 1.27995 25.8359 1.28906 25.8906 1.28906H26.082C26.5924 1.28906 27.0846 1.21615 27.5586 1.07031C28.0508 0.924479 28.5612 0.851562 29.0898 0.851562C29.3997 0.851562 29.6458 0.897135 29.8281 0.988281C30.0104 1.0612 30.1745 1.16146 30.3203 1.28906C30.4661 1.39844 30.6211 1.50781 30.7852 1.61719C30.9492 1.72656 31.1589 1.80859 31.4141 1.86328C31.5781 2.17318 31.6602 2.51042 31.6602 2.875C31.6602 3.22135 31.6693 3.57682 31.6875 3.94141ZM40.4102 17.2305C40.3372 17.4128 40.2643 17.5859 40.1914 17.75C40.1185 17.9141 40.0638 18.0964 40.0273 18.2969C39.8997 18.388 39.7539 18.4609 39.5898 18.5156C39.444 18.5521 39.2891 18.5977 39.125 18.6523C38.9609 18.6888 38.806 18.7435 38.6602 18.8164C38.5326 18.8711 38.4323 18.9622 38.3594 19.0898C38.3047 19.3633 38.2773 19.6185 38.2773 19.8555C38.2773 20.1654 38.332 20.4297 38.4414 20.6484C38.3867 20.8125 38.3503 20.9857 38.332 21.168C38.3138 21.3503 38.3047 21.5234 38.3047 21.6875C38.3047 22.2891 38.3776 22.8906 38.5234 23.4922C38.6693 24.0755 38.7513 24.668 38.7695 25.2695C38.7695 25.3607 38.7604 25.4609 38.7422 25.5703C38.724 25.6797 38.7148 25.7799 38.7148 25.8711C38.7148 26.2539 38.8607 26.5091 39.1523 26.6367C39.0977 26.7279 39.0703 26.8099 39.0703 26.8828C39.0703 27.0286 39.0885 27.1562 39.125 27.2656C39.1615 27.375 39.1706 27.4935 39.1523 27.6211C39.2435 27.8034 39.3346 27.9674 39.4258 28.1133C39.5169 28.2409 39.5807 28.4049 39.6172 28.6055C39.4896 28.8607 39.3346 29.0977 39.1523 29.3164C38.9701 29.5169 38.8424 29.7721 38.7695 30.082C38.6966 30.0638 38.6146 30.0547 38.5234 30.0547C38.3958 30.0547 38.2956 30.082 38.2227 30.1367C38.1497 30.1914 38.0859 30.2552 38.0312 30.3281C37.9948 30.4193 37.9492 30.5013 37.8945 30.5742C37.8398 30.6654 37.7669 30.7292 37.6758 30.7656H37.5938C37.5026 30.7839 37.4206 30.7747 37.3477 30.7383C37.293 30.7201 37.2383 30.7109 37.1836 30.7109C37.1471 30.7109 37.0742 30.7292 36.9648 30.7656C36.819 30.5833 36.7188 30.3646 36.6641 30.1094C36.6094 29.8724 36.582 29.6354 36.582 29.3984C36.582 29.1432 36.6185 28.9154 36.6914 28.7148C36.4909 28.5508 36.3633 28.3047 36.3086 27.9766C36.2721 27.6484 36.2266 27.375 36.1719 27.1562C36.026 26.4818 35.8529 25.8255 35.6523 25.1875C35.4701 24.5495 35.3607 23.8932 35.3242 23.2188C35.306 22.9635 35.2969 22.7174 35.2969 22.4805V21.0586C35.2969 20.8216 35.306 20.5938 35.3242 20.375C35.3242 20.2109 35.3333 20.056 35.3516 19.9102C35.388 19.7461 35.4062 19.582 35.4062 19.418C35.4062 19.1992 35.3333 18.9896 35.1875 18.7891C33.8932 18.8438 32.6628 19.0807 31.4961 19.5C30.3477 19.901 29.1992 20.3841 28.0508 20.9492C27.9779 21.3685 27.9323 21.7786 27.9141 22.1797C27.8958 22.5807 27.8867 22.9909 27.8867 23.4102V24.6133C27.8867 25.069 27.9049 25.4518 27.9414 25.7617C28.0326 26.2904 28.2969 26.7005 28.7344 26.9922C29.1901 27.2656 29.6458 27.4753 30.1016 27.6211C30.0833 27.8945 30.0286 28.1315 29.9375 28.332C29.8464 28.5143 29.7279 28.6875 29.582 28.8516C29.4544 28.9974 29.3086 29.1432 29.1445 29.2891C28.9805 29.4349 28.8164 29.599 28.6523 29.7812C28.5065 29.6901 28.3607 29.6263 28.2148 29.5898C28.069 29.5534 27.9141 29.5352 27.75 29.5352C27.5859 29.5169 27.4219 29.4987 27.2578 29.4805C27.0938 29.4622 26.9297 29.4258 26.7656 29.3711L26.1641 28.5508C25.9635 28.2773 25.7448 28.0039 25.5078 27.7305V27.4844C25.5078 26.9922 25.4167 26.5182 25.2344 26.0625C25.0521 25.6068 24.9154 25.1419 24.8242 24.668C24.8789 24.5039 24.9154 24.3398 24.9336 24.1758C24.9518 24.0117 24.9609 23.8385 24.9609 23.6562C24.9609 23.2917 24.9427 22.9362 24.9062 22.5898C24.888 22.2435 24.8971 21.8971 24.9336 21.5508H24.7969C24.6328 21.5508 24.4596 21.5964 24.2773 21.6875C24.0951 21.7604 23.9128 21.8516 23.7305 21.9609C23.5664 22.0521 23.4023 22.1432 23.2383 22.2344C23.0924 22.3073 22.9648 22.3438 22.8555 22.3438C22.8008 22.3438 22.7461 22.3346 22.6914 22.3164C22.6367 22.2982 22.5729 22.2891 22.5 22.2891C22.4089 22.2891 22.2995 22.3255 22.1719 22.3984C22.0443 22.4714 21.9076 22.5534 21.7617 22.6445C21.5977 22.7174 21.4336 22.7904 21.2695 22.8633C21.1055 22.9362 20.9414 22.9727 20.7773 22.9727C20.5221 22.9727 20.2669 22.8633 20.0117 22.6445C19.9753 22.4987 19.9661 22.362 19.9844 22.2344C19.9844 22.1068 19.9844 21.9701 19.9844 21.8242C19.9844 21.6784 19.957 21.5234 19.9023 21.3594C20.0299 21.1224 20.2031 20.9401 20.4219 20.8125C20.6224 20.6667 20.8411 20.5391 21.0781 20.4297C21.2969 20.3021 21.5247 20.1836 21.7617 20.0742C21.9987 19.9466 22.1992 19.7826 22.3633 19.582H22.5273C22.7826 19.582 23.0104 19.5273 23.2109 19.418C23.4297 19.3086 23.6758 19.263 23.9492 19.2812C24.0404 19.2448 24.1042 19.1081 24.1406 18.8711L24.25 18.8984C24.651 18.8984 25.0065 18.7617 25.3164 18.4883C25.5169 17.3581 25.681 16.2188 25.8086 15.0703C25.9362 13.9219 26 12.7734 26 11.625C26 11.5156 25.9635 11.4062 25.8906 11.2969C25.8542 11.151 25.8359 11.0143 25.8359 10.8867V10.4766C25.8359 10.276 25.8451 10.0664 25.8633 9.84766C25.8815 9.62891 25.9271 9.41016 26 9.19141C26.1823 9.08203 26.3737 9.02734 26.5742 9.02734C26.8112 9.02734 27.0391 9.0638 27.2578 9.13672C27.4948 9.19141 27.7227 9.23698 27.9414 9.27344C28.1055 9.4375 28.224 9.61979 28.2969 9.82031C28.388 10.0208 28.4427 10.2305 28.4609 10.4492C28.4792 10.6497 28.4792 10.8594 28.4609 11.0781C28.4609 11.2786 28.4609 11.4792 28.4609 11.6797C28.4609 12.0807 28.5065 12.4727 28.5977 12.8555C28.6888 13.2383 28.7344 13.612 28.7344 13.9766C28.7344 14.0677 28.6979 14.1406 28.625 14.1953C28.5703 14.2318 28.543 14.3503 28.543 14.5508C28.543 14.7513 28.5612 14.9609 28.5977 15.1797C28.6341 15.3984 28.6523 15.6172 28.6523 15.8359C28.6523 16.0911 28.6159 16.3555 28.543 16.6289C28.4701 16.9023 28.4062 17.1667 28.3516 17.4219C29.4453 17.3307 30.5664 17.194 31.7148 17.0117C32.8633 16.8294 33.957 16.5378 34.9961 16.1367C35.0143 16.1003 35.0234 16.0456 35.0234 15.9727C35.0234 15.8633 35.0143 15.7539 34.9961 15.6445C34.9779 15.5352 34.9688 15.4167 34.9688 15.2891C34.9688 15.0703 35.0417 14.8971 35.1875 14.7695C35.0964 14.2591 35.0326 13.7487 34.9961 13.2383C34.9596 12.7279 34.9414 12.2174 34.9414 11.707V10.1484C34.9414 9.63802 34.9323 9.1276 34.9141 8.61719C35.0599 8.52604 35.2148 8.48047 35.3789 8.48047C35.5794 8.48047 35.7617 8.53516 35.9258 8.64453C36.1081 8.73568 36.3177 8.78125 36.5547 8.78125C36.7188 8.78125 36.8555 8.75391 36.9648 8.69922C37.1654 8.88151 37.3021 9.11849 37.375 9.41016C37.4479 9.70182 37.5117 10.0026 37.5664 10.3125C37.6211 10.6224 37.6758 10.9323 37.7305 11.2422C37.8034 11.5339 37.9401 11.7708 38.1406 11.9531L38.168 12.0352C38.168 12.1081 38.1315 12.1628 38.0586 12.1992C37.9857 12.2357 37.9492 12.3086 37.9492 12.418V12.5273C38.0221 12.819 38.0768 13.1198 38.1133 13.4297C38.1497 13.7396 38.1771 14.0586 38.1953 14.3867C38.2318 14.6966 38.2773 15.0065 38.332 15.3164C38.3867 15.6081 38.487 15.8815 38.6328 16.1367C38.724 16.1185 38.8424 16.1094 38.9883 16.1094C39.3529 16.1094 39.6354 16.237 39.8359 16.4922C40.0547 16.7292 40.2461 16.9753 40.4102 17.2305ZM59.4688 12.6094V12.7188C59.3411 12.7552 59.2773 12.8464 59.2773 12.9922C59.0768 13.0833 58.8672 13.1562 58.6484 13.2109C58.4297 13.2474 58.2201 13.3112 58.0195 13.4023C57.819 13.3841 57.6094 13.375 57.3906 13.375C57.1901 13.3568 56.9896 13.3477 56.7891 13.3477C56.2422 13.3477 55.6953 13.3659 55.1484 13.4023C54.6016 13.4388 54.0547 13.4388 53.5078 13.4023C53.2526 13.5482 52.9701 13.6667 52.6602 13.7578C52.3685 13.8307 52.0859 13.8672 51.8125 13.8672C51.5938 13.8672 51.4023 13.8398 51.2383 13.7852C50.8008 14.0039 50.3177 14.1862 49.7891 14.332C49.2786 14.4779 48.7591 14.6237 48.2305 14.7695C47.7018 14.8971 47.1914 15.0521 46.6992 15.2344C46.2253 15.3984 45.806 15.6354 45.4414 15.9453C45.4049 16.2005 45.3776 16.4557 45.3594 16.7109C45.3411 16.9479 45.332 17.1849 45.332 17.4219C45.332 17.6771 45.3411 17.9141 45.3594 18.1328C45.3958 18.3516 45.4596 18.5703 45.5508 18.7891C45.6419 18.8255 45.7422 18.8529 45.8516 18.8711C45.9792 18.8893 46.0885 18.8984 46.1797 18.8984C46.2708 18.8984 46.362 18.8893 46.4531 18.8711C46.5443 18.8346 46.6081 18.7708 46.6445 18.6797C46.918 18.6432 47.1914 18.6341 47.4648 18.6523C47.7383 18.6523 48.0117 18.6523 48.2852 18.6523C48.5586 18.6523 48.8229 18.6432 49.0781 18.625C49.3516 18.6068 49.6159 18.5612 49.8711 18.4883C50.1628 18.4154 50.4453 18.3698 50.7188 18.3516C51.0104 18.3333 51.293 18.3151 51.5664 18.2969C51.8398 18.2786 52.1224 18.2513 52.4141 18.2148C52.7057 18.1602 53.0065 18.0599 53.3164 17.9141C53.5534 18.0052 53.7904 18.0508 54.0273 18.0508C54.2826 18.0508 54.5286 18.069 54.7656 18.1055C54.8932 18.1966 54.9935 18.2969 55.0664 18.4062C55.1576 18.5156 55.2031 18.6432 55.2031 18.7891C55.2031 19.0443 55.112 19.2995 54.9297 19.5547C54.7474 19.8099 54.6016 20.0469 54.4922 20.2656H54.1914C53.7539 20.2656 53.3255 20.3294 52.9062 20.457C52.5052 20.5664 52.0951 20.7031 51.6758 20.8672C51.2747 21.013 50.8646 21.1497 50.4453 21.2773C50.0443 21.3867 49.625 21.4414 49.1875 21.4414C49.1146 21.4414 49.069 21.487 49.0508 21.5781C49.0508 21.651 49.0326 21.7057 48.9961 21.7422C48.9049 21.724 48.7682 21.7148 48.5859 21.7148C48.1667 21.7148 47.7656 21.7604 47.3828 21.8516C47 21.9427 46.6081 21.9883 46.207 21.9883C46.0977 21.9883 45.9883 21.9883 45.8789 21.9883C45.7695 21.9701 45.6602 21.9518 45.5508 21.9336C45.4596 22.0794 45.3411 22.1797 45.1953 22.2344C45.0495 22.2708 44.9128 22.3438 44.7852 22.4531C44.7305 22.6172 44.694 22.8177 44.6758 23.0547C44.6758 23.2917 44.6667 23.5378 44.6484 23.793C44.6484 24.0299 44.6302 24.2578 44.5938 24.4766C44.5573 24.6953 44.4844 24.8685 44.375 24.9961C44.3932 25.0872 44.4661 25.1237 44.5938 25.1055C44.7214 25.069 44.7852 25.1237 44.7852 25.2695C44.7852 25.4336 44.7669 25.6068 44.7305 25.7891C44.694 25.9714 44.6758 26.1536 44.6758 26.3359C44.6758 26.6823 44.7122 27.0651 44.7852 27.4844C44.8763 27.8854 45.0039 28.2591 45.168 28.6055C45.3503 28.9518 45.5872 29.2435 45.8789 29.4805C46.1706 29.6992 46.5352 29.8086 46.9727 29.8086C47.2643 29.8086 47.5378 29.7539 47.793 29.6445C48.0482 29.5352 48.2578 29.3529 48.4219 29.0977L48.5586 29.0703C48.6315 29.0703 48.6953 29.0794 48.75 29.0977C48.8229 29.1159 48.8958 29.125 48.9688 29.125C49.0781 29.125 49.2148 29.0612 49.3789 28.9336C49.5612 28.7878 49.7526 28.6237 49.9531 28.4414C50.1719 28.2591 50.3906 28.0859 50.6094 27.9219C50.8281 27.7396 51.0378 27.612 51.2383 27.5391C51.3659 27.2839 51.4844 27.0286 51.5938 26.7734C51.7214 26.5182 51.9036 26.3177 52.1406 26.1719V25.3789C52.3229 25.1784 52.5143 24.9961 52.7148 24.832C52.9336 24.668 53.0977 24.4583 53.207 24.2031C53.2982 24.2396 53.3802 24.2669 53.4531 24.2852C53.5443 24.3034 53.6354 24.3125 53.7266 24.3125C53.8177 24.3125 53.9089 24.3034 54 24.2852C54.1094 24.2669 54.2096 24.2396 54.3008 24.2031C54.4466 24.4036 54.556 24.6315 54.6289 24.8867C54.7201 25.1237 54.8294 25.3516 54.957 25.5703C54.793 25.8984 54.6016 26.2904 54.3828 26.7461C54.1641 27.2018 53.9271 27.6576 53.6719 28.1133C53.4167 28.569 53.1432 29.0065 52.8516 29.4258C52.5781 29.8268 52.3047 30.1367 52.0312 30.3555C51.9766 30.4102 51.8581 30.474 51.6758 30.5469C51.4753 30.6927 51.293 30.8294 51.1289 30.957C50.9648 31.1029 50.8099 31.2669 50.6641 31.4492C50.1354 31.6133 49.625 31.832 49.1328 32.1055C48.6589 32.3789 48.1849 32.6432 47.7109 32.8984C47.4922 32.8438 47.2552 32.8164 47 32.8164C46.7812 32.8164 46.5625 32.8255 46.3438 32.8438C46.125 32.8802 45.888 32.8984 45.6328 32.8984C45.5599 32.8073 45.4505 32.7435 45.3047 32.707C45.1771 32.6888 45.1315 32.5977 45.168 32.4336C44.5482 32.3971 44.0469 32.224 43.6641 31.9141C43.2812 31.6224 42.9531 31.2578 42.6797 30.8203C42.4245 30.3828 42.2148 29.9089 42.0508 29.3984C41.8867 28.888 41.7135 28.3958 41.5312 27.9219V27.8398C41.5312 27.7487 41.5677 27.694 41.6406 27.6758C41.7135 27.6576 41.75 27.6029 41.75 27.5117C41.75 27.4753 41.7409 27.4479 41.7227 27.4297C41.668 27.2292 41.6224 27.056 41.5859 26.9102C41.5495 26.7643 41.5312 26.5911 41.5312 26.3906C41.5312 26.099 41.5495 25.8164 41.5859 25.543C41.6224 25.2513 41.6406 24.9596 41.6406 24.668C41.6406 24.3763 41.6042 24.1211 41.5312 23.9023C41.6042 23.8112 41.668 23.6927 41.7227 23.5469C41.7591 23.3828 41.7865 23.2188 41.8047 23.0547C41.8229 22.8906 41.832 22.7266 41.832 22.5625C41.8503 22.3984 41.8776 22.2526 41.9141 22.125C41.8411 21.9245 41.7773 21.7513 41.7227 21.6055C41.668 21.4414 41.6406 21.25 41.6406 21.0312V20.8398C41.8229 20.5299 41.9779 20.2109 42.1055 19.8828C42.2331 19.5547 42.3698 19.2174 42.5156 18.8711V18.7891C42.5156 18.2604 42.4974 17.7318 42.4609 17.2031C42.4245 16.6745 42.4062 16.1458 42.4062 15.6172V15.0977C42.4062 14.9154 42.4154 14.7422 42.4336 14.5781C42.5794 14.5052 42.6888 14.4049 42.7617 14.2773C42.8346 14.1497 42.944 14.0495 43.0898 13.9766H43.9922L44.1562 13.7031C44.2109 13.612 44.2474 13.5117 44.2656 13.4023C44.4661 13.3477 44.6576 13.2747 44.8398 13.1836C45.0404 13.0742 45.2227 12.9648 45.3867 12.8555C45.6419 12.7096 45.8698 12.582 46.0703 12.4727C46.2891 12.3451 46.4987 12.2448 46.6992 12.1719C46.918 12.0807 47.1458 12.0078 47.3828 11.9531C47.6198 11.8984 47.8932 11.8529 48.2031 11.8164C48.349 11.8164 48.4401 11.7891 48.4766 11.7344C48.5312 11.6797 48.6042 11.6159 48.6953 11.543C48.9141 11.5794 49.1328 11.6159 49.3516 11.6523C49.5703 11.6706 49.7891 11.6797 50.0078 11.6797C50.4453 11.6797 50.8555 11.5977 51.2383 11.4336C51.7852 11.4336 52.3229 11.4245 52.8516 11.4062C53.3984 11.388 53.9453 11.3789 54.4922 11.3789C54.9661 11.3789 55.4401 11.3971 55.9141 11.4336C56.388 11.4701 56.8529 11.5339 57.3086 11.625C57.4727 11.5703 57.6549 11.543 57.8555 11.543C58.0742 11.543 58.293 11.5703 58.5117 11.625C58.7487 11.6615 58.9766 11.6615 59.1953 11.625C59.2135 11.8255 59.2591 11.9987 59.332 12.1445C59.4232 12.2721 59.4688 12.4271 59.4688 12.6094ZM90.1484 10.7227C90.1484 10.8867 90.112 11.0417 90.0391 11.1875L89.8477 11.5977C89.793 11.7253 89.7383 11.862 89.6836 12.0078C89.6289 12.1536 89.6107 12.3268 89.6289 12.5273C89.3737 12.819 89.1185 13.1016 88.8633 13.375C88.6081 13.6484 88.3802 13.9583 88.1797 14.3047C87.9792 14.2865 87.8242 14.332 87.7148 14.4414C87.6237 14.5508 87.5508 14.6966 87.4961 14.8789C87.1133 15.0065 86.776 15.207 86.4844 15.4805C86.1927 15.7357 85.9375 16.0182 85.7188 16.3281C84.7526 16.7292 83.8503 17.2214 83.0117 17.8047C82.1732 18.388 81.4076 19.0716 80.7148 19.8555C81.043 19.8555 81.362 19.8919 81.6719 19.9648C82 20.0378 82.319 20.1198 82.6289 20.2109C82.957 20.2839 83.276 20.3568 83.5859 20.4297C83.8958 20.4844 84.2148 20.4935 84.543 20.457C84.7799 20.6758 85.0443 20.8581 85.3359 21.0039C85.6458 21.1497 85.9466 21.2865 86.2383 21.4141C86.5482 21.5417 86.8398 21.6875 87.1133 21.8516C87.4049 22.0156 87.6602 22.2161 87.8789 22.4531C87.8789 22.4896 87.8698 22.526 87.8516 22.5625C87.8516 22.5807 87.8516 22.6081 87.8516 22.6445C87.8516 22.7904 87.888 22.9362 87.9609 23.082C88.0339 23.2096 88.0703 23.3464 88.0703 23.4922C87.9792 23.638 87.8971 23.793 87.8242 23.957C87.7513 24.1211 87.6602 24.2669 87.5508 24.3945C87.4596 24.5221 87.3503 24.6315 87.2227 24.7227C87.0951 24.8138 86.9219 24.8685 86.7031 24.8867C86.612 25.1966 86.4661 25.4427 86.2656 25.625C86.0651 25.7891 85.8372 25.944 85.582 26.0898C85.3451 26.2174 85.1081 26.3542 84.8711 26.5C84.6341 26.6276 84.4336 26.8008 84.2695 27.0195C83.7227 27.1471 83.1849 27.3294 82.6562 27.5664C82.1458 27.7852 81.6901 28.1042 81.2891 28.5234C81.0156 28.5599 80.7331 28.6055 80.4414 28.6602C80.168 28.6966 79.8945 28.7148 79.6211 28.7148C79.2383 28.7148 78.9284 28.6419 78.6914 28.4961C78.4544 28.332 78.3177 28.0404 78.2812 27.6211C78.3359 27.4935 78.418 27.3841 78.5273 27.293L78.8828 27.0195C79.0104 26.9284 79.1198 26.8372 79.2109 26.7461C79.3203 26.6367 79.4023 26.5091 79.457 26.3633C79.4935 26.3633 79.5391 26.3724 79.5938 26.3906C79.6484 26.3906 79.7031 26.3906 79.7578 26.3906C79.9766 26.3906 80.1497 26.3451 80.2773 26.2539C80.4049 26.1628 80.5234 26.0716 80.6328 25.9805C80.7604 25.8893 80.8971 25.8073 81.043 25.7344C81.1888 25.6615 81.3802 25.6341 81.6172 25.6523C81.7448 25.4154 81.9362 25.2422 82.1914 25.1328C82.4466 25.0052 82.7109 24.8958 82.9844 24.8047C83.2578 24.6953 83.513 24.5768 83.75 24.4492C84.0052 24.3034 84.1784 24.0938 84.2695 23.8203C84.1784 23.6745 84.0599 23.5651 83.9141 23.4922C83.7682 23.401 83.6042 23.3281 83.4219 23.2734L82.9023 23.1094C82.7383 23.0547 82.5924 22.9909 82.4648 22.918C82.2643 22.9727 82.0729 23 81.8906 23C81.5078 23 81.1341 22.9635 80.7695 22.8906C80.4049 22.8177 80.0312 22.7812 79.6484 22.7812C79.3021 22.7812 79.0013 22.8268 78.7461 22.918C78.6549 22.8997 78.5547 22.8724 78.4453 22.8359C78.3542 22.7995 78.263 22.763 78.1719 22.7266C77.7526 22.8906 77.3151 22.9727 76.8594 22.9727H75.082C74.9362 22.9727 74.7904 22.9909 74.6445 23.0273C74.444 23.3919 74.3438 23.7839 74.3438 24.2031C74.3438 24.513 74.3893 24.8138 74.4805 25.1055C74.5716 25.3789 74.6628 25.6706 74.7539 25.9805C75.1185 26.3086 75.4557 26.7005 75.7656 27.1562C76.0755 27.5938 76.2305 28.0768 76.2305 28.6055C76.2305 28.7331 76.2214 28.8333 76.2031 28.9062C76.0208 28.7786 75.7839 28.7148 75.4922 28.7148C75.237 28.7148 74.9909 28.7513 74.7539 28.8242C74.5352 28.8971 74.2982 28.9518 74.043 28.9883C73.8424 28.8971 73.6328 28.806 73.4141 28.7148C73.1953 28.6055 72.9857 28.4779 72.7852 28.332C72.6393 28.0221 72.4935 27.7305 72.3477 27.457C72.2018 27.1654 72.0195 26.8919 71.8008 26.6367V26.5273C71.8008 25.8893 71.7461 25.2604 71.6367 24.6406C71.5456 24.0208 71.5 23.3919 71.5 22.7539C71.5 22.4622 71.5091 22.1706 71.5273 21.8789C71.5638 21.569 71.6549 21.2865 71.8008 21.0312C71.7461 20.5938 71.7188 20.138 71.7188 19.6641C71.7188 18.7161 71.7734 17.7682 71.8828 16.8203C71.9922 15.8724 72.0469 14.9062 72.0469 13.9219C72.0469 13.7214 72.0378 13.5208 72.0195 13.3203C72.0195 13.1198 72.0104 12.9193 71.9922 12.7188H71.8828C71.6458 12.7188 71.418 12.7552 71.1992 12.8281C70.9805 12.8828 70.7617 12.9466 70.543 13.0195C70.3242 13.0924 70.0964 13.1654 69.8594 13.2383C69.6224 13.293 69.3854 13.3203 69.1484 13.3203C69.0026 13.3932 68.8841 13.4661 68.793 13.5391C68.7018 13.612 68.6107 13.6758 68.5195 13.7305C68.4284 13.7852 68.3281 13.8307 68.2188 13.8672C68.0911 13.9036 67.9453 13.9128 67.7812 13.8945C67.5807 14.0221 67.4258 14.1224 67.3164 14.1953C67.1888 14.25 67.0156 14.3138 66.7969 14.3867C66.6875 14.4232 66.5964 14.4779 66.5234 14.5508L66.3047 14.7422C66.2318 14.7969 66.1497 14.8516 66.0586 14.9062C65.9674 14.9609 65.849 14.9883 65.7031 14.9883C65.5755 14.9883 65.4844 14.9792 65.4297 14.9609C65.3203 14.8698 65.2292 14.7604 65.1562 14.6328C65.0651 14.5052 64.9831 14.3867 64.9102 14.2773C64.819 14.1497 64.7279 14.0404 64.6367 13.9492C64.5273 13.8398 64.3997 13.7578 64.2539 13.7031C64.3268 13.612 64.3633 13.5391 64.3633 13.4844C64.3451 13.4115 64.3359 13.3294 64.3359 13.2383C64.3359 13.1836 64.3451 13.1471 64.3633 13.1289C64.4544 12.8008 64.6185 12.5456 64.8555 12.3633C65.0924 12.1628 65.3568 12.0078 65.6484 11.8984C65.9401 11.7708 66.2409 11.6615 66.5508 11.5703C66.8424 11.4792 67.1159 11.3698 67.3711 11.2422C68.082 11.2604 68.7292 11.1966 69.3125 11.0508C69.8958 10.8867 70.4974 10.6589 71.1172 10.3672C71.2266 10.4219 71.3359 10.4492 71.4453 10.4492C71.5365 10.4492 71.6276 10.4401 71.7188 10.4219L71.9922 10.3672C72.2109 10.1849 72.4479 10.0664 72.7031 10.0117C72.9583 9.95703 73.2135 9.91146 73.4688 9.875C73.724 9.83854 73.9701 9.80208 74.207 9.76562C74.444 9.71094 74.6536 9.61068 74.8359 9.46484H74.9453C75.3828 9.46484 75.8203 9.39193 76.2578 9.24609C76.7135 9.10026 77.151 9.04557 77.5703 9.08203C77.9349 8.88151 78.2721 8.75391 78.582 8.69922C78.8919 8.64453 79.2474 8.61719 79.6484 8.61719C79.7396 8.61719 79.849 8.58073 79.9766 8.50781C80.1042 8.41667 80.2591 8.37109 80.4414 8.37109C80.4779 8.37109 80.5052 8.38021 80.5234 8.39844C80.5599 8.39844 80.5964 8.39844 80.6328 8.39844C80.7969 8.39844 80.9062 8.34375 80.9609 8.23438C81.0339 8.125 81.207 8.07031 81.4805 8.07031C81.6081 8.07031 81.7266 8.07943 81.8359 8.09766C81.9453 8.09766 82.0547 8.09766 82.1641 8.09766C82.2917 8.09766 82.3737 8.05208 82.4102 7.96094C82.4466 7.85156 82.5286 7.80599 82.6562 7.82422C82.7109 7.89714 82.8021 7.93359 82.9297 7.93359C83.0573 7.91536 83.1576 7.90625 83.2305 7.90625C83.3581 7.90625 83.431 7.94271 83.4492 8.01562C83.7409 7.83333 84.0599 7.71484 84.4062 7.66016C84.7708 7.60547 85.1172 7.57812 85.4453 7.57812C85.5729 7.57812 85.7005 7.58724 85.8281 7.60547C85.9557 7.60547 86.0924 7.61458 86.2383 7.63281C86.4023 7.52344 86.5938 7.46875 86.8125 7.46875C86.9401 7.46875 87.1406 7.52344 87.4141 7.63281C87.7057 7.74219 88.0065 7.86979 88.3164 8.01562C88.6263 8.16146 88.9089 8.31641 89.1641 8.48047C89.4193 8.64453 89.5742 8.78125 89.6289 8.89062C89.6654 8.92708 89.6836 9.00911 89.6836 9.13672C89.7018 9.26432 89.7292 9.3737 89.7656 9.46484C89.8568 9.68359 89.9388 9.89323 90.0117 10.0938C90.1029 10.276 90.1484 10.4857 90.1484 10.7227ZM87.1133 11.0234C87.1133 10.987 87.1042 10.9505 87.0859 10.9141C87.0859 10.8594 87.0859 10.8138 87.0859 10.7773C86.9948 10.668 86.8672 10.5859 86.7031 10.5312C86.5573 10.4766 86.3932 10.431 86.2109 10.3945C86.0469 10.3581 85.8737 10.3307 85.6914 10.3125C85.5273 10.276 85.3815 10.2305 85.2539 10.1758C84.8711 10.3034 84.4518 10.3672 83.9961 10.3672C83.5768 10.3672 83.2031 10.3034 82.875 10.1758C82.7109 10.3398 82.5013 10.4674 82.2461 10.5586C81.9909 10.6497 81.7174 10.7227 81.4258 10.7773C81.1523 10.8138 80.8698 10.8411 80.5781 10.8594C80.3047 10.8594 80.0586 10.8594 79.8398 10.8594C79.7669 10.8594 79.6393 10.9141 79.457 11.0234C79.2747 11.1328 79.1107 11.1875 78.9648 11.1875C78.8555 11.1875 78.7552 11.1419 78.6641 11.0508C78.5 11.1784 78.2721 11.2878 77.9805 11.3789C77.6888 11.4701 77.388 11.5521 77.0781 11.625C76.7682 11.6797 76.4492 11.7435 76.1211 11.8164C75.8112 11.8893 75.5469 11.9622 75.3281 12.0352C75.1094 12.5091 74.9909 13.0286 74.9727 13.5938C74.9544 14.1406 74.9453 14.6784 74.9453 15.207C74.9453 15.5169 74.9271 15.8177 74.8906 16.1094C74.8542 16.401 74.8359 16.7018 74.8359 17.0117C74.8359 17.1576 74.8451 17.3125 74.8633 17.4766C74.8815 17.6224 74.9362 17.7682 75.0273 17.9141C74.8815 18.0234 74.7812 18.1693 74.7266 18.3516C74.6901 18.5156 74.6719 18.6797 74.6719 18.8438C74.6719 19.0443 74.6901 19.2266 74.7266 19.3906C74.763 19.5547 74.7995 19.7096 74.8359 19.8555C75.4193 19.8008 75.9479 19.6914 76.4219 19.5273C76.9141 19.3633 77.3698 19.1628 77.7891 18.9258C78.2266 18.6888 78.6458 18.4154 79.0469 18.1055C79.4479 17.7956 79.8672 17.4674 80.3047 17.1211C80.487 17.0846 80.6328 17.0299 80.7422 16.957C80.8698 16.8841 81.0247 16.8477 81.207 16.8477C81.2799 16.5924 81.4167 16.4193 81.6172 16.3281C81.8177 16.2188 81.9727 16.0638 82.082 15.8633C82.3008 15.8086 82.4831 15.7357 82.6289 15.6445C82.793 15.5352 82.9479 15.4349 83.0938 15.3438C83.2396 15.2344 83.3945 15.1341 83.5586 15.043C83.7409 14.9518 83.9414 14.8971 84.1602 14.8789C84.4701 14.5143 84.7891 14.1497 85.1172 13.7852C85.4635 13.4206 85.8646 13.1289 86.3203 12.9102C86.3932 12.7279 86.4753 12.5729 86.5664 12.4453C86.6576 12.2995 86.7396 12.1628 86.8125 12.0352C86.9036 11.8893 86.9766 11.7435 87.0312 11.5977C87.0859 11.4336 87.1133 11.2422 87.1133 11.0234ZM110.848 28.0039C110.793 28.2591 110.674 28.4688 110.492 28.6328C110.328 28.7786 110.128 28.8971 109.891 28.9883C109.654 29.0794 109.408 29.1432 109.152 29.1797C108.915 29.1979 108.697 29.207 108.496 29.207C108.405 29.207 108.314 29.207 108.223 29.207C108.15 29.1888 108.068 29.1797 107.977 29.1797C107.885 29.1797 107.84 29.2253 107.84 29.3164C107.84 29.4076 107.794 29.4714 107.703 29.5078C107.612 29.4714 107.521 29.444 107.43 29.4258C107.339 29.4076 107.247 29.3984 107.156 29.3984C107.029 29.3984 106.901 29.4076 106.773 29.4258C106.664 29.444 106.555 29.4531 106.445 29.4531C106.299 29.4531 106.19 29.4349 106.117 29.3984C106.062 29.362 106.008 29.3255 105.953 29.2891C105.917 29.2344 105.871 29.1797 105.816 29.125C105.78 29.0703 105.716 29.0247 105.625 28.9883C105.497 28.9336 105.388 28.9245 105.297 28.9609C105.224 28.9974 105.105 28.9427 104.941 28.7969C104.723 28.6146 104.531 28.3958 104.367 28.1406C104.221 27.8672 104.076 27.5846 103.93 27.293C103.784 27.0013 103.629 26.7096 103.465 26.418C103.301 26.1263 103.109 25.8711 102.891 25.6523H102.672C102.344 25.6523 102.116 25.7891 101.988 26.0625C101.897 26.0078 101.806 25.944 101.715 25.8711C101.624 25.7799 101.523 25.707 101.414 25.6523C100.995 25.7799 100.557 25.8893 100.102 25.9805C99.6458 26.0716 99.1901 26.1172 98.7344 26.1172H98.3516C98.2422 26.1172 98.1237 26.099 97.9961 26.0625C97.8138 26.1354 97.6497 26.2266 97.5039 26.3359C97.3581 26.4271 97.194 26.4727 97.0117 26.4727C96.9023 26.4727 96.7747 26.4362 96.6289 26.3633C96.5195 26.3633 96.4648 26.4089 96.4648 26.5C96.4831 26.5911 96.4284 26.6367 96.3008 26.6367H96.0547C95.7995 26.6367 95.5443 26.6458 95.2891 26.6641C95.0521 26.6823 94.806 26.6914 94.5508 26.6914C94.2044 26.6914 93.849 26.6458 93.4844 26.5547C93.3932 26.6094 93.293 26.6367 93.1836 26.6367C93.1107 26.6732 93.056 26.737 93.0195 26.8281C92.9831 26.901 92.9466 26.974 92.9102 27.0469C92.8737 27.1016 92.819 27.1562 92.7461 27.2109C92.6914 27.2474 92.6094 27.2565 92.5 27.2383C92.4635 27.457 92.3724 27.6302 92.2266 27.7578C92.0807 27.8854 92.0078 28.0768 92.0078 28.332C91.8073 28.4414 91.6432 28.5781 91.5156 28.7422C91.388 28.9062 91.2604 29.0794 91.1328 29.2617C91.0052 29.444 90.8685 29.6172 90.7227 29.7812C90.5951 29.9453 90.431 30.0729 90.2305 30.1641C90.1393 30.2734 90.112 30.4466 90.1484 30.6836C89.9479 30.8477 89.7018 30.9935 89.4102 31.1211C89.1185 31.2487 88.8451 31.3125 88.5898 31.3125C88.0612 31.3125 87.6966 31.0299 87.4961 30.4648C87.4961 30.2826 87.5143 30.0911 87.5508 29.8906C87.569 29.6719 87.6055 29.4714 87.6602 29.2891C87.7148 29.0885 87.7969 28.9154 87.9062 28.7695C88.0156 28.6055 88.1706 28.487 88.3711 28.4141C88.3711 28.25 88.3164 28.1406 88.207 28.0859C88.0977 28.013 88.0521 27.8945 88.0703 27.7305C88.5625 27.4935 88.9909 27.1836 89.3555 26.8008C89.7201 26.418 90.0482 26.0169 90.3398 25.5977C90.6497 25.1602 90.9596 24.7227 91.2695 24.2852C91.5794 23.8477 91.9258 23.4557 92.3086 23.1094V22.5352C92.8555 21.9518 93.2109 21.2956 93.375 20.5664C93.5755 20.5299 93.7031 20.4388 93.7578 20.293C93.8307 20.1471 93.8672 19.974 93.8672 19.7734C93.9583 19.7734 94.013 19.737 94.0312 19.6641C94.0677 19.5729 94.1497 19.5456 94.2773 19.582C94.4414 19.1445 94.6237 18.7435 94.8242 18.3789C95.0247 18.0143 95.2253 17.6497 95.4258 17.2852C95.6263 16.9023 95.7995 16.5104 95.9453 16.1094C96.1094 15.7083 96.2279 15.2617 96.3008 14.7695C96.556 14.7513 96.6927 14.6328 96.7109 14.4141C96.7474 14.1771 96.7839 13.9674 96.8203 13.7852C97.0938 13.5299 97.2943 13.2292 97.4219 12.8828C97.5677 12.5365 97.6953 12.181 97.8047 11.8164C97.9141 11.4336 98.0326 11.0599 98.1602 10.6953C98.306 10.3125 98.5065 9.97526 98.7617 9.68359V9.60156C98.7617 9.51042 98.7253 9.45573 98.6523 9.4375C98.5794 9.40104 98.543 9.33724 98.543 9.24609C98.5612 9.22786 98.5703 9.20964 98.5703 9.19141C98.7891 9.10026 98.9531 8.95443 99.0625 8.75391C99.1719 8.53516 99.3359 8.38021 99.5547 8.28906C99.9375 8.59896 100.275 8.79036 100.566 8.86328C100.858 8.91797 101.241 8.96354 101.715 9C101.952 9.25521 102.079 9.5651 102.098 9.92969C102.134 10.276 102.198 10.6224 102.289 10.9688C102.435 11.5521 102.59 12.1263 102.754 12.6914C102.936 13.2383 103.073 13.8034 103.164 14.3867C103.219 14.7331 103.319 15.0612 103.465 15.3711C103.611 15.681 103.711 16 103.766 16.3281C103.802 16.5833 103.802 16.875 103.766 17.2031C103.729 17.513 103.766 17.7865 103.875 18.0234L104.066 18.4609C104.158 18.6615 104.23 18.8711 104.285 19.0898C104.358 19.3086 104.422 19.5273 104.477 19.7461C104.622 20.293 104.75 20.8854 104.859 21.5234C104.987 22.1432 105.178 22.7083 105.434 23.2188C105.525 23.401 105.661 23.5286 105.844 23.6016C106.044 23.6745 106.263 23.7292 106.5 23.7656C106.737 23.7839 106.965 23.793 107.184 23.793C107.421 23.7747 107.621 23.7656 107.785 23.7656H108.059C108.168 23.7656 108.277 23.7839 108.387 23.8203C108.46 23.9661 108.496 24.0938 108.496 24.2031C108.496 24.4219 108.423 24.5951 108.277 24.7227C108.132 24.8503 108.059 24.9961 108.059 25.1602C108.059 25.2513 108.095 25.3516 108.168 25.4609C108.095 25.4427 107.986 25.4336 107.84 25.4336C107.421 25.4336 107.01 25.5065 106.609 25.6523C106.755 25.9622 106.947 26.2266 107.184 26.4453C107.439 26.6458 107.703 26.8372 107.977 27.0195C108.159 26.8737 108.35 26.8008 108.551 26.8008C108.77 26.8008 108.97 26.8555 109.152 26.9648C109.353 27.056 109.562 27.1016 109.781 27.1016C109.945 27.1016 110.064 27.0742 110.137 27.0195C110.283 27.1836 110.401 27.3568 110.492 27.5391C110.583 27.7031 110.702 27.8581 110.848 28.0039ZM102.289 23.6289C102.253 23.319 102.189 23.1003 102.098 22.9727C102.025 22.8268 101.961 22.6536 101.906 22.4531C101.833 22.1979 101.779 21.9245 101.742 21.6328C101.724 21.3411 101.688 21.0586 101.633 20.7852C101.505 20.1654 101.359 19.5456 101.195 18.9258C101.049 18.306 100.858 17.7044 100.621 17.1211C100.694 17.0117 100.73 16.9115 100.73 16.8203V16.7383C100.566 16.556 100.448 16.3372 100.375 16.082C100.302 15.8086 100.229 15.5443 100.156 15.2891C100.102 15.0156 100.02 14.7695 99.9102 14.5508C99.819 14.3138 99.6641 14.1224 99.4453 13.9766C99.3906 14.0859 99.3633 14.2135 99.3633 14.3594C99.3633 14.487 99.3724 14.6055 99.3906 14.7148C99.4271 14.8242 99.4453 14.9427 99.4453 15.0703C99.263 15.1615 99.1263 15.3073 99.0352 15.5078C98.9622 15.6901 98.8346 15.8359 98.6523 15.9453C98.5065 16.5286 98.2969 17.0846 98.0234 17.6133C97.75 18.1237 97.4583 18.6341 97.1484 19.1445C96.8568 19.6549 96.5742 20.1745 96.3008 20.7031C96.0273 21.2135 95.8086 21.7513 95.6445 22.3164C95.4076 22.4805 95.2435 22.6901 95.1523 22.9453C95.0794 23.2005 95.043 23.4557 95.043 23.7109C95.207 23.8021 95.3893 23.8568 95.5898 23.875C95.8086 23.875 96.0182 23.875 96.2188 23.875C96.4193 23.875 96.6107 23.8932 96.793 23.9297C96.9753 23.9661 97.1393 24.0573 97.2852 24.2031C97.5221 24.1302 97.7773 24.0846 98.0508 24.0664C98.3424 24.0299 98.5794 23.9479 98.7617 23.8203C99.1263 23.9479 99.5182 24.0117 99.9375 24.0117C100.156 24.0117 100.366 23.9935 100.566 23.957C100.785 23.9206 100.995 23.875 101.195 23.8203C101.359 23.8568 101.487 23.9206 101.578 24.0117C101.669 24.0846 101.806 24.112 101.988 24.0938C102.079 24.0208 102.134 23.9479 102.152 23.875C102.171 23.7839 102.216 23.7018 102.289 23.6289ZM125.094 26.5547C125.094 26.8646 125.012 27.138 124.848 27.375C124.702 27.5938 124.647 27.8672 124.684 28.1953C124.428 28.3411 124.219 28.5326 124.055 28.7695C123.891 29.0065 123.736 29.2526 123.59 29.5078C122.387 30.2917 121.092 30.9206 119.707 31.3945C118.34 31.8867 116.927 32.1328 115.469 32.1328C115.378 32.1328 115.296 32.0872 115.223 31.9961C115.15 31.9232 115.077 31.8411 115.004 31.75C114.931 31.6589 114.849 31.5677 114.758 31.4766C114.685 31.4036 114.594 31.3672 114.484 31.3672C114.357 31.3672 114.257 31.3945 114.184 31.4492C114.184 31.4128 114.184 31.3763 114.184 31.3398C114.202 31.3216 114.211 31.2943 114.211 31.2578C114.211 31.0391 114.184 30.8112 114.129 30.5742C114.074 30.3555 114.047 30.1367 114.047 29.918C114.047 29.6628 114.092 29.4531 114.184 29.2891H114.512C114.694 29.2891 114.867 29.2799 115.031 29.2617C115.214 29.2253 115.405 29.207 115.605 29.207C115.806 29.207 115.988 29.2617 116.152 29.3711C117.155 29.3346 118.103 29.1523 118.996 28.8242C119.908 28.4779 120.828 28.1406 121.758 27.8125C121.904 27.612 121.986 27.3932 122.004 27.1562C122.04 26.901 122.113 26.6641 122.223 26.4453C121.749 26.0443 121.266 25.7344 120.773 25.5156C120.299 25.2786 119.743 25.1966 119.105 25.2695C118.723 25.0326 118.312 24.8958 117.875 24.8594C117.456 24.8229 117.027 24.7682 116.59 24.6953C116.48 24.6771 116.362 24.6589 116.234 24.6406C116.125 24.6042 116.007 24.5859 115.879 24.5859C115.788 24.5859 115.697 24.6133 115.605 24.668C115.533 24.7044 115.514 24.7682 115.551 24.8594C115.46 24.7135 115.332 24.6315 115.168 24.6133C115.022 24.5768 114.895 24.5039 114.785 24.3945C114.202 24.3581 113.691 24.2578 113.254 24.0938C112.816 23.9115 112.333 23.7109 111.805 23.4922C111.659 23.4375 111.513 23.401 111.367 23.3828C111.24 23.3464 111.112 23.2917 110.984 23.2188C110.656 23.0547 110.392 22.8359 110.191 22.5625C109.991 22.2891 109.836 21.9883 109.727 21.6602C109.599 21.3138 109.508 20.9583 109.453 20.5938C109.398 20.2292 109.344 19.8919 109.289 19.582C109.453 19.2904 109.608 18.9896 109.754 18.6797C109.882 18.3698 109.991 18.0417 110.082 17.6953C110.191 17.6406 110.301 17.5951 110.41 17.5586C110.52 17.5221 110.638 17.4766 110.766 17.4219C110.747 17.3854 110.738 17.3398 110.738 17.2852C110.738 17.194 110.766 17.1029 110.82 17.0117C110.893 16.9206 110.911 16.8294 110.875 16.7383C111.276 16.3737 111.659 16 112.023 15.6172C112.406 15.2161 112.734 14.7786 113.008 14.3047C113.281 14.2135 113.5 14.0768 113.664 13.8945C113.828 13.7122 113.992 13.5299 114.156 13.3477C114.32 13.1471 114.503 12.974 114.703 12.8281C114.904 12.6641 115.159 12.5638 115.469 12.5273C115.542 12.3997 115.642 12.2995 115.77 12.2266C115.897 12.1354 116.025 12.0534 116.152 11.9805C116.28 11.9076 116.398 11.8255 116.508 11.7344C116.617 11.6432 116.699 11.5156 116.754 11.3516C117.046 11.3516 117.31 11.2969 117.547 11.1875C117.802 11.0781 118.048 10.9596 118.285 10.832C118.522 10.7044 118.759 10.5859 118.996 10.4766C119.251 10.3672 119.525 10.3125 119.816 10.3125C119.889 10.3125 119.962 10.3216 120.035 10.3398C120.108 10.3398 120.19 10.349 120.281 10.3672C120.409 10.4948 120.491 10.6497 120.527 10.832C120.582 10.9961 120.618 11.1784 120.637 11.3789C120.655 11.5794 120.664 11.7799 120.664 11.9805C120.682 12.181 120.719 12.3633 120.773 12.5273C120.609 12.8372 120.427 13.1471 120.227 13.457C120.044 13.7669 119.798 14.0039 119.488 14.168H119.434C119.306 14.1862 119.188 14.1589 119.078 14.0859C118.969 14.013 118.841 13.9766 118.695 13.9766C118.604 13.9766 118.531 14.0039 118.477 14.0586L118.34 14.1953C118.303 14.2318 118.249 14.2682 118.176 14.3047C118.121 14.3411 118.039 14.3411 117.93 14.3047C117.674 14.3958 117.574 14.5508 117.629 14.7695C117.283 14.806 116.991 14.9154 116.754 15.0977C116.517 15.2617 116.298 15.4531 116.098 15.6719C115.897 15.8724 115.697 16.0638 115.496 16.2461C115.296 16.4102 115.059 16.5013 114.785 16.5195C114.475 17.0664 114.092 17.5495 113.637 17.9688C113.199 18.388 112.835 18.862 112.543 19.3906C112.598 19.5365 112.634 19.6914 112.652 19.8555C112.671 20.0195 112.698 20.1927 112.734 20.375C112.898 20.5938 113.09 20.7852 113.309 20.9492C113.546 21.1133 113.773 21.2773 113.992 21.4414H114.074C114.439 21.4414 114.776 21.5143 115.086 21.6602C115.396 21.7878 115.724 21.8516 116.07 21.8516C116.253 21.8516 116.408 21.8151 116.535 21.7422C117.009 21.8516 117.474 21.9427 117.93 22.0156C118.404 22.0885 118.878 22.1432 119.352 22.1797C119.589 22.2161 119.826 22.2344 120.062 22.2344C120.318 22.2344 120.555 22.2617 120.773 22.3164C120.974 22.3711 121.174 22.444 121.375 22.5352C121.576 22.6081 121.776 22.6901 121.977 22.7812C122.396 22.9635 122.788 23.1641 123.152 23.3828C123.535 23.6016 123.872 23.8659 124.164 24.1758C124.456 24.4674 124.684 24.8138 124.848 25.2148C125.012 25.5977 125.094 26.0443 125.094 26.5547ZM132.613 26.2539C132.522 26.3997 132.413 26.5365 132.285 26.6641C132.158 26.7734 132.039 26.8919 131.93 27.0195C131.802 27.0742 131.656 27.1016 131.492 27.1016C131.346 27.1016 131.201 27.1016 131.055 27.1016C130.927 27.0833 130.799 27.0833 130.672 27.1016C130.562 27.1016 130.471 27.138 130.398 27.2109C130.253 27.1745 130.143 27.1107 130.07 27.0195C129.997 26.9102 129.87 26.8464 129.688 26.8281C129.615 26.8099 129.542 26.8099 129.469 26.8281C129.195 26.5182 128.94 26.1901 128.703 25.8438C128.484 25.4974 128.275 25.1693 128.074 24.8594C128.056 24.1849 128.001 23.5013 127.91 22.8086C127.892 22.6445 127.865 22.4805 127.828 22.3164C127.792 22.1523 127.764 21.9974 127.746 21.8516C127.746 21.6693 127.755 21.4961 127.773 21.332C127.81 21.1497 127.837 20.9857 127.855 20.8398C127.928 20.3112 128.01 19.7917 128.102 19.2812C128.193 18.7708 128.275 18.2513 128.348 17.7227C128.421 17.2487 128.457 16.7565 128.457 16.2461C128.457 15.7174 128.375 15.2253 128.211 14.7695L128.184 14.6328C128.22 14.487 128.257 14.3685 128.293 14.2773C128.348 14.168 128.384 14.0495 128.402 13.9219C128.439 13.7214 128.393 13.5755 128.266 13.4844C128.32 13.3385 128.411 13.2474 128.539 13.2109C128.667 13.1562 128.74 13.0469 128.758 12.8828C128.776 12.8099 128.776 12.737 128.758 12.6641C128.904 12.6094 129.049 12.5638 129.195 12.5273C129.359 12.4727 129.514 12.4635 129.66 12.5C129.897 12.5365 130.107 12.6185 130.289 12.7461C130.471 12.8555 130.645 12.9831 130.809 13.1289C131.1 14.0039 131.219 14.9336 131.164 15.918C131.109 16.8841 131.018 17.8594 130.891 18.8438C130.763 19.8281 130.681 20.7943 130.645 21.7422C130.608 22.6719 130.754 23.5378 131.082 24.3398L131.137 24.3672C131.228 24.3854 131.301 24.3581 131.355 24.2852C131.41 24.194 131.483 24.1576 131.574 24.1758C131.647 24.2122 131.693 24.2305 131.711 24.2305C131.784 24.5951 131.902 24.9414 132.066 25.2695C132.23 25.5977 132.413 25.9258 132.613 26.2539ZM155.719 25.0781C155.719 25.2604 155.664 25.4154 155.555 25.543C155.464 25.6523 155.345 25.7526 155.199 25.8438C155.072 25.9349 154.935 26.0169 154.789 26.0898C154.661 26.1628 154.543 26.2539 154.434 26.3633C154.361 26.4362 154.306 26.5273 154.27 26.6367C154.251 26.7279 154.206 26.7917 154.133 26.8281C154.023 26.9193 153.905 26.974 153.777 26.9922C153.65 27.0104 153.513 27.0378 153.367 27.0742C153.24 27.0924 153.112 27.1289 152.984 27.1836C152.857 27.2201 152.747 27.3021 152.656 27.4297C151.799 27.5208 150.952 27.6393 150.113 27.7852C149.293 27.931 148.445 28.0039 147.57 28.0039C147.406 28.0039 147.224 28.0221 147.023 28.0586C146.841 28.0768 146.668 28.0951 146.504 28.1133C146.121 28.1497 145.738 28.1771 145.355 28.1953C144.991 28.2135 144.617 28.2227 144.234 28.2227C143.706 28.2227 143.177 28.2044 142.648 28.168C142.12 28.1133 141.6 28.0312 141.09 27.9219C140.962 27.8307 140.816 27.7578 140.652 27.7031C140.488 27.6484 140.315 27.5938 140.133 27.5391C139.969 27.4844 139.814 27.4206 139.668 27.3477C139.522 27.2747 139.413 27.1654 139.34 27.0195C139.066 27.0013 138.82 26.9466 138.602 26.8555C138.401 26.7643 138.21 26.6641 138.027 26.5547C137.863 26.4271 137.69 26.2995 137.508 26.1719C137.326 26.0443 137.116 25.9349 136.879 25.8438C136.697 25.5885 136.505 25.3424 136.305 25.1055C136.122 24.8503 135.895 24.6406 135.621 24.4766C135.566 24.1302 135.475 23.7839 135.348 23.4375C135.238 23.0911 135.12 22.7539 134.992 22.4258C134.883 22.0794 134.792 21.7331 134.719 21.3867C134.628 21.0404 134.582 20.6849 134.582 20.3203C134.582 20.0651 134.618 19.7552 134.691 19.3906C134.764 19.026 134.855 18.6615 134.965 18.2969C135.092 17.9141 135.238 17.5586 135.402 17.2305C135.566 16.9023 135.73 16.638 135.895 16.4375C135.949 16.3828 136.013 16.3372 136.086 16.3008C136.159 16.2643 136.223 16.2096 136.277 16.1367C136.441 15.9544 136.615 15.8086 136.797 15.6992C136.979 15.5716 137.171 15.4258 137.371 15.2617C137.444 15.1888 137.499 15.1068 137.535 15.0156C137.59 14.9245 137.663 14.8424 137.754 14.7695C137.809 14.7331 137.882 14.724 137.973 14.7422C138.082 14.7604 138.173 14.7422 138.246 14.6875C138.319 14.6328 138.355 14.569 138.355 14.4961C138.355 14.4232 138.383 14.3594 138.438 14.3047C138.456 14.2865 138.51 14.2865 138.602 14.3047C138.693 14.3047 138.747 14.3047 138.766 14.3047C138.893 14.3047 139.039 14.2227 139.203 14.0586C139.367 13.8763 139.504 13.7578 139.613 13.7031C139.741 13.6302 139.868 13.5846 139.996 13.5664C140.124 13.5299 140.26 13.4753 140.406 13.4023C140.607 13.293 140.798 13.2109 140.98 13.1563C141.181 13.0833 141.382 13.0013 141.582 12.9102C141.691 12.8737 141.792 12.8099 141.883 12.7188C141.974 12.6276 142.065 12.5638 142.156 12.5273C142.32 12.4727 142.493 12.4362 142.676 12.418C142.876 12.3815 143.059 12.3542 143.223 12.3359C143.405 12.2995 143.578 12.263 143.742 12.2266C143.924 12.1719 144.089 12.0807 144.234 11.9531H144.453C144.781 11.9531 145.1 11.9076 145.41 11.8164C145.72 11.7253 146.039 11.6797 146.367 11.6797C146.458 11.6797 146.595 11.6979 146.777 11.7344C146.923 11.6432 147.087 11.5977 147.27 11.5977C147.579 11.5977 147.889 11.6797 148.199 11.8438C148.509 11.9896 148.828 12.0625 149.156 12.0625H149.32C149.393 12.0625 149.466 12.0534 149.539 12.0352C149.74 12.2357 149.977 12.3451 150.25 12.3633C150.542 12.3815 150.788 12.4635 150.988 12.6094C151.116 12.7188 151.216 12.8464 151.289 12.9922C151.38 13.138 151.453 13.293 151.508 13.457L151.672 13.9492C151.727 14.1133 151.799 14.2591 151.891 14.3867C151.799 15.043 151.526 15.5716 151.07 15.9727C150.633 16.3555 150.077 16.5469 149.402 16.5469C149.147 16.5469 148.928 16.5195 148.746 16.4648C148.582 16.3919 148.427 16.319 148.281 16.2461C148.154 16.1732 148.017 16.1003 147.871 16.0273C147.725 15.9544 147.561 15.8997 147.379 15.8633C147.579 15.4987 147.707 15.1068 147.762 14.6875C147.561 14.5964 147.361 14.5326 147.16 14.4961C146.96 14.4596 146.768 14.3958 146.586 14.3047C146.094 14.4323 145.611 14.5234 145.137 14.5781C144.681 14.6146 144.253 14.806 143.852 15.1523C143.76 15.1341 143.66 15.1159 143.551 15.0977C143.46 15.0794 143.368 15.0703 143.277 15.0703C143.168 15.0703 142.949 15.1523 142.621 15.3164C142.293 15.4622 141.938 15.6354 141.555 15.8359C141.19 16.0365 140.835 16.237 140.488 16.4375C140.16 16.638 139.932 16.7747 139.805 16.8477C139.659 16.9388 139.531 17.0482 139.422 17.1758C139.312 17.3034 139.203 17.4401 139.094 17.5859C138.984 17.7135 138.875 17.8411 138.766 17.9688C138.656 18.0781 138.52 18.1602 138.355 18.2148C138.319 18.4154 138.255 18.5885 138.164 18.7344C138.073 18.8802 137.973 19.0352 137.863 19.1992C137.845 19.5273 137.809 19.8555 137.754 20.1836C137.717 20.5117 137.699 20.8398 137.699 21.168V21.5234C137.699 21.6328 137.717 21.7331 137.754 21.8242C137.936 22.0612 138.082 22.3255 138.191 22.6172C138.319 22.9089 138.529 23.1094 138.82 23.2188C138.839 23.2917 138.829 23.3372 138.793 23.3555C138.775 23.3737 138.757 23.4193 138.738 23.4922C138.848 23.6927 138.984 23.8568 139.148 23.9844C139.331 24.0938 139.513 24.2122 139.695 24.3398C139.878 24.4492 140.051 24.5677 140.215 24.6953C140.379 24.8229 140.507 24.987 140.598 25.1875C140.871 25.1875 141.126 25.2331 141.363 25.3242C141.618 25.4154 141.855 25.5156 142.074 25.625C142.311 25.7344 142.53 25.8346 142.73 25.9258C142.949 26.0169 143.168 26.0625 143.387 26.0625C143.587 26.0625 143.77 26.0352 143.934 25.9805C144.408 26.1263 144.882 26.2357 145.355 26.3086C145.848 26.3633 146.34 26.3906 146.832 26.3906C147.434 26.3906 148.035 26.3542 148.637 26.2812C149.238 26.2083 149.84 26.1445 150.441 26.0898C150.66 26.0534 150.87 26.0352 151.07 26.0352C151.271 26.0352 151.471 26.0169 151.672 25.9805C151.927 25.944 152.164 25.8255 152.383 25.625C152.62 25.4245 152.848 25.2786 153.066 25.1875C153.267 25.3151 153.504 25.3789 153.777 25.3789C154.087 25.3789 154.388 25.3333 154.68 25.2422C154.971 25.1328 155.272 25.0781 155.582 25.0781H155.719ZM169.965 26.5547C169.965 26.8646 169.883 27.138 169.719 27.375C169.573 27.5938 169.518 27.8672 169.555 28.1953C169.299 28.3411 169.09 28.5326 168.926 28.7695C168.762 29.0065 168.607 29.2526 168.461 29.5078C167.258 30.2917 165.964 30.9206 164.578 31.3945C163.211 31.8867 161.798 32.1328 160.34 32.1328C160.249 32.1328 160.167 32.0872 160.094 31.9961C160.021 31.9232 159.948 31.8411 159.875 31.75C159.802 31.6589 159.72 31.5677 159.629 31.4766C159.556 31.4036 159.465 31.3672 159.355 31.3672C159.228 31.3672 159.128 31.3945 159.055 31.4492C159.055 31.4128 159.055 31.3763 159.055 31.3398C159.073 31.3216 159.082 31.2943 159.082 31.2578C159.082 31.0391 159.055 30.8112 159 30.5742C158.945 30.3555 158.918 30.1367 158.918 29.918C158.918 29.6628 158.964 29.4531 159.055 29.2891H159.383C159.565 29.2891 159.738 29.2799 159.902 29.2617C160.085 29.2253 160.276 29.207 160.477 29.207C160.677 29.207 160.859 29.2617 161.023 29.3711C162.026 29.3346 162.974 29.1523 163.867 28.8242C164.779 28.4779 165.699 28.1406 166.629 27.8125C166.775 27.612 166.857 27.3932 166.875 27.1562C166.911 26.901 166.984 26.6641 167.094 26.4453C166.62 26.0443 166.137 25.7344 165.645 25.5156C165.171 25.2786 164.615 25.1966 163.977 25.2695C163.594 25.0326 163.184 24.8958 162.746 24.8594C162.327 24.8229 161.898 24.7682 161.461 24.6953C161.352 24.6771 161.233 24.6589 161.105 24.6406C160.996 24.6042 160.878 24.5859 160.75 24.5859C160.659 24.5859 160.568 24.6133 160.477 24.668C160.404 24.7044 160.385 24.7682 160.422 24.8594C160.331 24.7135 160.203 24.6315 160.039 24.6133C159.893 24.5768 159.766 24.5039 159.656 24.3945C159.073 24.3581 158.562 24.2578 158.125 24.0938C157.688 23.9115 157.204 23.7109 156.676 23.4922C156.53 23.4375 156.384 23.401 156.238 23.3828C156.111 23.3464 155.983 23.2917 155.855 23.2188C155.527 23.0547 155.263 22.8359 155.062 22.5625C154.862 22.2891 154.707 21.9883 154.598 21.6602C154.47 21.3138 154.379 20.9583 154.324 20.5938C154.27 20.2292 154.215 19.8919 154.16 19.582C154.324 19.2904 154.479 18.9896 154.625 18.6797C154.753 18.3698 154.862 18.0417 154.953 17.6953C155.062 17.6406 155.172 17.5951 155.281 17.5586C155.391 17.5221 155.509 17.4766 155.637 17.4219C155.618 17.3854 155.609 17.3398 155.609 17.2852C155.609 17.194 155.637 17.1029 155.691 17.0117C155.764 16.9206 155.783 16.8294 155.746 16.7383C156.147 16.3737 156.53 16 156.895 15.6172C157.277 15.2161 157.605 14.7786 157.879 14.3047C158.152 14.2135 158.371 14.0768 158.535 13.8945C158.699 13.7122 158.863 13.5299 159.027 13.3477C159.191 13.1471 159.374 12.974 159.574 12.8281C159.775 12.6641 160.03 12.5638 160.34 12.5273C160.413 12.3997 160.513 12.2995 160.641 12.2266C160.768 12.1354 160.896 12.0534 161.023 11.9805C161.151 11.9076 161.27 11.8255 161.379 11.7344C161.488 11.6432 161.57 11.5156 161.625 11.3516C161.917 11.3516 162.181 11.2969 162.418 11.1875C162.673 11.0781 162.919 10.9596 163.156 10.832C163.393 10.7044 163.63 10.5859 163.867 10.4766C164.122 10.3672 164.396 10.3125 164.688 10.3125C164.76 10.3125 164.833 10.3216 164.906 10.3398C164.979 10.3398 165.061 10.349 165.152 10.3672C165.28 10.4948 165.362 10.6497 165.398 10.832C165.453 10.9961 165.49 11.1784 165.508 11.3789C165.526 11.5794 165.535 11.7799 165.535 11.9805C165.553 12.181 165.59 12.3633 165.645 12.5273C165.48 12.8372 165.298 13.1471 165.098 13.457C164.915 13.7669 164.669 14.0039 164.359 14.168H164.305C164.177 14.1862 164.059 14.1589 163.949 14.0859C163.84 14.013 163.712 13.9766 163.566 13.9766C163.475 13.9766 163.402 14.0039 163.348 14.0586L163.211 14.1953C163.174 14.2318 163.12 14.2682 163.047 14.3047C162.992 14.3411 162.91 14.3411 162.801 14.3047C162.546 14.3958 162.445 14.5508 162.5 14.7695C162.154 14.806 161.862 14.9154 161.625 15.0977C161.388 15.2617 161.169 15.4531 160.969 15.6719C160.768 15.8724 160.568 16.0638 160.367 16.2461C160.167 16.4102 159.93 16.5013 159.656 16.5195C159.346 17.0664 158.964 17.5495 158.508 17.9688C158.07 18.388 157.706 18.862 157.414 19.3906C157.469 19.5365 157.505 19.6914 157.523 19.8555C157.542 20.0195 157.569 20.1927 157.605 20.375C157.77 20.5938 157.961 20.7852 158.18 20.9492C158.417 21.1133 158.645 21.2773 158.863 21.4414H158.945C159.31 21.4414 159.647 21.5143 159.957 21.6602C160.267 21.7878 160.595 21.8516 160.941 21.8516C161.124 21.8516 161.279 21.8151 161.406 21.7422C161.88 21.8516 162.345 21.9427 162.801 22.0156C163.275 22.0885 163.749 22.1432 164.223 22.1797C164.46 22.2161 164.697 22.2344 164.934 22.2344C165.189 22.2344 165.426 22.2617 165.645 22.3164C165.845 22.3711 166.046 22.444 166.246 22.5352C166.447 22.6081 166.647 22.6901 166.848 22.7812C167.267 22.9635 167.659 23.1641 168.023 23.3828C168.406 23.6016 168.743 23.8659 169.035 24.1758C169.327 24.4674 169.555 24.8138 169.719 25.2148C169.883 25.5977 169.965 26.0443 169.965 26.5547Z" fill="#0B0B0B"/>
</svg>
