<svg width="34" height="30" viewBox="0 0 34 30" fill="none" xmlns="http://www.w3.org/2000/svg">
<g clip-path="url(#clip0_24_6)">
<path d="M11.1458 28.3681C11.817 28.3681 12.3611 27.824 12.3611 27.1528C12.3611 26.4816 11.817 25.9375 11.1458 25.9375C10.4747 25.9375 9.93056 26.4816 9.93056 27.1528C9.93056 27.824 10.4747 28.3681 11.1458 28.3681Z" stroke="#E5E5E5" stroke-width="2" stroke-linecap="round" stroke-linejoin="round"/>
<path d="M28.1597 28.3681C28.8309 28.3681 29.375 27.824 29.375 27.1528C29.375 26.4816 28.8309 25.9375 28.1597 25.9375C27.4885 25.9375 26.9444 26.4816 26.9444 27.1528C26.9444 27.824 27.4885 28.3681 28.1597 28.3681Z" stroke="#E5E5E5" stroke-width="2" stroke-linecap="round" stroke-linejoin="round"/>
<path d="M1.42361 1.63184H6.28473L9.93056 22.2916H29.375" stroke="#E5E5E5" stroke-width="3" stroke-linecap="round" stroke-linejoin="round"/>
<path d="M9.93056 17.4306H28.8767C29.0173 17.4307 29.1535 17.3821 29.2622 17.293C29.3709 17.204 29.4454 17.08 29.473 16.9422L31.6605 6.00472C31.6781 5.91653 31.676 5.82551 31.6542 5.73825C31.6324 5.65098 31.5915 5.56965 31.5345 5.5001C31.4774 5.43056 31.4056 5.37455 31.3243 5.33611C31.243 5.29767 31.1542 5.27777 31.0642 5.27783H7.5" stroke="#E5E5E5" stroke-width="3" stroke-linecap="round" stroke-linejoin="round"/>
</g>
<defs>
<clipPath id="clip0_24_6">
<rect width="33.3333" height="30" fill="white"/>
</clipPath>
</defs>
</svg>
