<svg width="51" height="50" viewBox="0 0 51 50" fill="none" xmlns="http://www.w3.org/2000/svg">
<path d="M17.6875 42.1875C18.5504 42.1875 19.25 41.4879 19.25 40.625C19.25 39.7621 18.5504 39.0625 17.6875 39.0625C16.8246 39.0625 16.125 39.7621 16.125 40.625C16.125 41.4879 16.8246 42.1875 17.6875 42.1875Z" stroke="#0B0B0B" stroke-width="4" stroke-linecap="round" stroke-linejoin="round"/>
<path d="M39.5625 42.1875C40.4254 42.1875 41.125 41.4879 41.125 40.625C41.125 39.7621 40.4254 39.0625 39.5625 39.0625C38.6996 39.0625 38 39.7621 38 40.625C38 41.4879 38.6996 42.1875 39.5625 42.1875Z" stroke="#0B0B0B" stroke-width="4" stroke-linecap="round" stroke-linejoin="round"/>
<path d="M5.1875 7.8125H11.4375L16.125 34.375H41.125" stroke="#0B0B0B" stroke-width="4" stroke-linecap="round" stroke-linejoin="round"/>
<path d="M16.125 28.125H40.4844C40.6651 28.1251 40.8402 28.0626 40.98 27.9481C41.1197 27.8336 41.2155 27.6742 41.251 27.4971L44.0635 13.4346C44.0862 13.3212 44.0834 13.2042 44.0554 13.092C44.0274 12.9798 43.9748 12.8752 43.9015 12.7858C43.8281 12.6964 43.7358 12.6244 43.6313 12.5749C43.5267 12.5255 43.4125 12.4999 43.2969 12.5H13" stroke="#0B0B0B" stroke-width="4" stroke-linecap="round" stroke-linejoin="round"/>
</svg>
