<svg width="274" height="66" viewBox="0 0 274 66" fill="none" xmlns="http://www.w3.org/2000/svg">
<path d="M21.2823 48.9816C21.2905 49.075 21.261 49.1422 21.1941 49.1834C21.1388 49.2235 21.1342 49.3062 21.1805 49.4316C21.0881 49.4514 21.0105 49.5053 20.9476 49.5931C20.8847 49.681 20.8065 49.729 20.7132 49.7372C20.6548 49.7423 20.6055 49.7172 20.5654 49.6619C20.5492 49.7456 20.5076 49.8081 20.4406 49.8492C20.3853 49.8894 20.3237 49.9242 20.2557 49.9536C20.1877 49.9831 20.1202 50.0184 20.0532 50.0596C19.9862 50.1007 19.9441 50.1574 19.9269 50.2294L19.8393 50.2371C19.6993 50.2494 19.5935 50.3174 19.5219 50.4413C19.4621 50.5642 19.3797 50.6302 19.2746 50.6394C19.2396 50.6425 19.2157 50.6387 19.203 50.628C19.1457 50.6448 19.1254 50.6819 19.1422 50.7392C19.16 50.8083 19.1465 50.8565 19.1019 50.8839L19.0143 50.8916C18.7108 50.9181 18.4071 51.0094 18.1031 51.1654C17.7991 51.3214 17.4909 51.4954 17.1783 51.6874C16.8774 51.8785 16.5638 52.0588 16.2375 52.2285C15.9239 52.4089 15.5998 52.5372 15.2654 52.6135C15.2015 52.6897 15.1185 52.7499 15.0165 52.7941C14.9272 52.849 14.8252 52.8932 14.7105 52.9268C14.5958 52.9603 14.4811 52.9939 14.3664 53.0275C14.2644 53.0717 14.1756 53.1324 14.1 53.2096C13.8102 53.2584 13.5229 53.3365 13.2382 53.4438C12.9535 53.551 12.6683 53.6524 12.3826 53.748C12.1096 53.8542 11.8233 53.944 11.5239 54.0172C11.2371 54.1011 10.941 54.1447 10.6354 54.1479C10.5481 54.2261 10.4477 54.2879 10.334 54.3331C10.233 54.389 10.1389 54.456 10.0516 54.5342C9.56685 54.5061 9.08361 54.4954 8.60191 54.5023C8.13188 54.5081 7.6636 54.4667 7.19707 54.3781C7.19401 54.3431 7.18029 54.3208 7.15592 54.3112C7.13155 54.3015 7.10134 54.2924 7.0653 54.2838C7.04195 54.2858 7.01758 54.2762 6.99219 54.2549C6.96782 54.2453 6.96527 54.2161 6.98453 54.1673C6.88253 54.2116 6.79067 54.2372 6.70895 54.2444C6.59221 54.2546 6.47291 54.2356 6.35106 54.1875C6.24089 54.1383 6.11853 54.0843 5.98399 54.0255C5.86112 53.9657 5.73241 53.9063 5.59786 53.8475C5.46434 53.8004 5.3217 53.7835 5.16993 53.7967C5.06837 53.7115 4.97264 53.6258 4.88275 53.5395C4.80454 53.4523 4.74179 53.3401 4.69451 53.2031C4.64679 53.1955 4.59426 53.2001 4.53691 53.2169C4.49124 53.2327 4.45089 53.2421 4.41586 53.2451C4.34582 53.2513 4.30875 53.231 4.30467 53.1843C4.04419 53.0306 3.85274 52.8592 3.73031 52.6699C3.60788 52.4806 3.47122 52.2632 3.32033 52.0176C3.27816 51.9389 3.22534 51.873 3.16186 51.8197C3.11108 51.7771 3.07095 51.7218 3.04147 51.6538C2.98456 51.5411 2.94465 51.4211 2.92174 51.2937C2.89883 51.1663 2.87643 51.0448 2.85455 50.929C2.84331 50.8006 2.81508 50.6796 2.76984 50.5659C2.73526 50.4395 2.67251 50.3274 2.5816 50.2295C2.56613 49.7838 2.57402 49.3361 2.60525 48.8864C2.64816 48.4356 2.70858 47.9833 2.78651 47.5295C2.81584 47.3269 2.85152 47.1297 2.89355 46.9378C2.93558 46.7459 2.97126 46.5487 3.0006 46.3461C3.00614 46.2751 3.01957 46.2268 3.04088 46.2015C3.07283 46.1634 3.09998 46.1375 3.1223 46.1237L3.18775 46.0651C3.20906 46.0397 3.2235 46.0031 3.23109 45.9554L3.31909 45.3478C3.37878 44.9544 3.46868 44.5701 3.58878 44.1949C3.70888 43.8197 3.88407 43.4691 4.11435 43.1431C4.11216 42.8492 4.15237 42.5693 4.23497 42.3032C4.32822 42.0245 4.43416 41.7565 4.5528 41.499C4.67042 41.23 4.78855 40.9667 4.9072 40.7093C5.02584 40.4519 5.11376 40.1795 5.17097 39.8922L5.15039 39.8587C5.14631 39.812 5.16761 39.7866 5.21431 39.7825C5.27166 39.7657 5.31201 39.7563 5.33536 39.7543C5.33069 39.5665 5.35776 39.4053 5.41657 39.2708C5.48603 39.1235 5.55652 38.988 5.62802 38.8641C5.7112 38.7391 5.7822 38.6094 5.84101 38.4749C5.91047 38.3276 5.94287 38.1601 5.9382 37.9723C6.14877 37.8245 6.32177 37.6505 6.45719 37.4505C6.60327 37.2377 6.73767 37.026 6.8604 36.8153C6.99378 36.5919 7.13401 36.3796 7.28111 36.1785C7.42719 35.9658 7.61186 35.7908 7.83513 35.6536C7.88737 35.5785 7.8962 35.4777 7.86162 35.3513C8.20002 35.0512 8.55266 34.7792 8.91952 34.5353C9.28639 34.2915 9.62684 34.0147 9.94087 33.7049L10.5713 33.6497C10.7128 33.5197 10.877 33.4465 11.0638 33.4302C11.2039 33.4179 11.3407 33.4354 11.4742 33.4825C11.6194 33.5286 11.7539 33.5874 11.8778 33.6589C12.0124 33.7177 12.1474 33.7824 12.283 33.8529C12.4175 33.9117 12.5506 33.953 12.682 33.9768C12.8258 34.1406 12.9312 34.3373 12.9983 34.5667C13.0761 34.7834 13.1529 34.9884 13.2286 35.1818C13.1511 35.5062 13.1155 35.8386 13.1218 36.1792C13.127 36.5082 13.1147 36.8386 13.085 37.1706C13.0114 37.2711 12.9506 37.3823 12.9024 37.5042C12.8532 37.6144 12.7987 37.7309 12.7389 37.8537C12.6897 37.9639 12.6347 38.0746 12.5739 38.1858C12.512 38.2853 12.4252 38.3694 12.3136 38.438C12.2498 38.7847 12.1274 39.066 11.9463 39.2818C11.7652 39.4976 11.593 39.7479 11.4297 40.0328C11.2648 40.1648 11.0831 40.2396 10.8847 40.2569C10.7212 40.2712 10.5722 40.249 10.4377 40.1902C10.3021 40.1197 10.1767 40.0307 10.0614 39.9231C9.94511 39.8039 9.84581 39.6773 9.76351 39.5433C9.69186 39.3967 9.63239 39.2548 9.58512 39.1178C9.64539 38.8655 9.75542 38.6441 9.91521 38.4537C10.0867 38.2622 10.2581 38.0708 10.4296 37.8793C10.6011 37.6879 10.7482 37.4868 10.8709 37.2761C10.9936 37.0654 11.0427 36.8199 11.0182 36.5397C11.0162 36.5164 11.0083 36.4935 10.9946 36.4712C10.9925 36.4479 10.9905 36.4245 10.9885 36.4012C10.9844 36.3545 10.9983 36.3121 11.0303 36.274C11.0622 36.2359 11.0947 36.2037 11.1277 36.1772L11.2251 36.0805C11.257 36.0424 11.271 36 11.2669 35.9533C11.2628 35.9066 11.2354 35.862 11.1846 35.8194C10.744 35.8932 10.4121 35.9987 10.1888 36.1359C9.97725 36.272 9.81338 36.4157 9.69722 36.5671C9.58106 36.7184 9.47657 36.8687 9.38376 37.018C9.3016 37.1546 9.16968 37.2602 8.988 37.3349C8.96115 37.4314 8.91577 37.5177 8.85185 37.5939C8.79859 37.6574 8.74 37.7272 8.67608 37.8034C8.61114 37.8679 8.55306 37.9435 8.50184 38.0303C8.46229 38.1161 8.44179 38.2179 8.44033 38.3357L8.12513 38.3633C8.08762 38.4724 8.02677 38.5836 7.94257 38.6969C7.86902 38.7974 7.78963 38.8985 7.70441 39C7.63086 39.1006 7.56417 39.2123 7.50434 39.3351C7.45516 39.4453 7.44787 39.5636 7.48245 39.69C7.35812 39.7479 7.26553 39.8325 7.20468 39.9436C7.1555 40.0538 7.0756 40.149 6.96499 40.2293L6.97418 40.3344C6.98235 40.4278 6.9725 40.5168 6.94463 40.6016C6.91675 40.6864 6.91858 40.7745 6.9501 40.8658C6.82124 41.0065 6.73047 41.1791 6.67779 41.3837C6.63576 41.5756 6.58687 41.7563 6.53113 41.9259C6.37484 42.0219 6.27364 42.1425 6.22752 42.2877C6.18141 42.4329 6.16652 42.5989 6.18286 42.7857C6.02307 42.9761 5.88334 43.1942 5.76368 43.44C5.64402 43.6857 5.53654 43.9363 5.44125 44.1916C5.35763 44.446 5.28036 44.7057 5.20943 44.9707C5.13851 45.2357 5.06022 45.4837 4.97456 45.7147L5.01899 46.2225C4.87189 46.4236 4.77455 46.6556 4.72698 46.9186C4.69006 47.1688 4.61607 47.3988 4.50502 47.6085C4.4929 47.739 4.49246 47.8684 4.5037 47.9968C4.52661 48.1242 4.54368 48.2521 4.55491 48.3805C4.56717 48.5206 4.56826 48.6676 4.55819 48.8214C4.54812 48.9752 4.51952 49.1188 4.47238 49.2524C4.5344 49.4234 4.58781 49.6305 4.6326 49.8736C4.67638 50.105 4.73818 50.3408 4.818 50.5808C4.89679 50.8092 4.99741 51.018 5.11984 51.2073C5.24125 51.3849 5.40425 51.5 5.60884 51.5527C5.678 51.8054 5.80576 51.9884 5.99211 52.1015C6.19115 52.2252 6.41099 52.3177 6.65162 52.379C6.89225 52.4403 7.1377 52.4894 7.38796 52.5263C7.63925 52.5749 7.86288 52.6436 8.05886 52.7323C8.12584 52.6912 8.20603 52.6665 8.29942 52.6583C8.39281 52.6502 8.47556 52.6547 8.54764 52.6719C8.6314 52.6881 8.721 52.7038 8.81644 52.719C8.97783 52.6813 9.17527 52.6523 9.40876 52.6319C9.65391 52.6104 9.89805 52.5773 10.1412 52.5325C10.3853 52.4994 10.6104 52.4503 10.8164 52.3852C11.0225 52.3201 11.1841 52.2177 11.3013 52.0781C11.383 52.0709 11.4376 52.0897 11.465 52.1343C11.5041 52.178 11.5645 52.1962 11.6463 52.1891C11.728 52.1819 11.8485 52.1478 12.0079 52.0869C12.1682 52.0375 12.3334 51.976 12.5034 51.9023C12.6745 51.8403 12.8333 51.7735 12.98 51.7018C13.1383 51.6292 13.2504 51.5664 13.3164 51.5136C13.3524 51.5222 13.388 51.525 13.423 51.5219L13.5456 51.5112C13.709 51.4969 13.8582 51.4544 13.9932 51.3838C14.1282 51.3132 14.2784 51.2824 14.4439 51.2914C14.9574 50.9759 15.4798 50.695 16.0112 50.4485C16.5552 50.2127 17.1066 49.9939 17.6653 49.7921C17.7262 49.6809 17.8013 49.5978 17.8906 49.543C17.9916 49.4871 18.0994 49.4424 18.2141 49.4088C18.3278 49.3636 18.4425 49.33 18.5582 49.3081C18.6729 49.2746 18.7812 49.2357 18.8832 49.1915C18.9502 49.1503 19.005 49.1043 19.0476 49.0536C19.1009 48.9901 19.1669 48.9373 19.2455 48.8951C19.3242 48.8529 19.4097 48.8219 19.502 48.8021C19.6061 48.7812 19.7043 48.7608 19.7967 48.741C19.8997 48.7084 19.9905 48.6711 20.0692 48.6289C20.1595 48.5857 20.2303 48.5207 20.2815 48.4339C20.4511 48.4896 20.6212 48.5512 20.7918 48.6186C20.974 48.685 21.1302 48.789 21.2602 48.9306L21.2823 48.9816ZM28.937 41.0773C28.9005 41.1981 28.8635 41.3131 28.826 41.4223C28.7885 41.5314 28.7637 41.6512 28.7516 41.7817C28.6749 41.8472 28.5856 41.9021 28.4836 41.9463C28.3923 41.9778 28.2956 42.0157 28.1936 42.0599C28.0906 42.0924 27.9944 42.1361 27.9051 42.191C27.8264 42.2332 27.7673 42.2972 27.7278 42.383C27.7081 42.5611 27.7049 42.7261 27.7182 42.8779C27.7355 43.0763 27.7854 43.2426 27.8677 43.3765C27.8418 43.4846 27.8282 43.5976 27.8267 43.7154C27.8253 43.8331 27.8291 43.9445 27.8383 44.0496C27.872 44.4348 27.9524 44.816 28.0795 45.1931C28.2056 45.5585 28.2913 45.9333 28.3367 46.3175C28.3418 46.3759 28.3416 46.4406 28.336 46.5117C28.3305 46.5828 28.3303 46.6475 28.3354 46.7058C28.3568 46.951 28.4645 47.1063 28.6585 47.1716C28.6285 47.2331 28.6156 47.2871 28.6197 47.3338C28.6279 47.4272 28.6467 47.5079 28.6762 47.5759C28.7057 47.6439 28.7181 47.7193 28.7136 47.802C28.7822 47.9137 28.8498 48.0136 28.9163 48.1019C28.9818 48.1785 29.0319 48.28 29.0665 48.4064C28.999 48.577 28.9131 48.7374 28.8086 48.8877C28.7031 49.0264 28.6357 49.197 28.6063 49.3995C28.5586 49.3919 28.5056 49.3907 28.4472 49.3958C28.3655 49.4029 28.3028 49.4261 28.2592 49.4652C28.2155 49.5043 28.1783 49.5487 28.1473 49.5985C28.1291 49.6589 28.1045 49.714 28.0736 49.7637C28.0436 49.8252 28.0005 49.8701 27.9442 49.8986L27.8917 49.9032C27.8343 49.9199 27.7813 49.9187 27.7325 49.8994C27.6965 49.8908 27.6609 49.8881 27.6259 49.8911C27.6026 49.8932 27.5569 49.9089 27.4889 49.9384C27.3853 49.8298 27.3088 49.6954 27.2595 49.535C27.2112 49.3863 27.1804 49.2361 27.1671 49.0843C27.1528 48.9209 27.1634 48.7729 27.1989 48.6404C27.0613 48.5465 26.9658 48.3961 26.9124 48.189C26.8706 47.9809 26.8261 47.8084 26.7788 47.6713C26.6477 47.2476 26.5 46.837 26.3358 46.4396C26.1833 46.0413 26.0765 45.6271 26.0154 45.1972C25.9894 45.0348 25.9698 44.8777 25.9565 44.726L25.8768 43.8154C25.8636 43.6636 25.8566 43.5172 25.8561 43.3761C25.8469 43.271 25.844 43.1712 25.8475 43.0768C25.8617 42.9697 25.8642 42.8636 25.855 42.7586C25.8427 42.6185 25.7843 42.4883 25.6796 42.3681C24.8538 42.4756 24.0791 42.6963 23.3555 43.0302C22.6425 43.3514 21.934 43.7251 21.2302 44.1513C21.207 44.4239 21.2008 44.6891 21.2116 44.947C21.2224 45.2048 21.2396 45.468 21.2631 45.7365L21.3305 46.507C21.356 46.7989 21.3891 47.043 21.4298 47.2394C21.5178 47.5729 21.7101 47.8207 22.0066 47.983C22.3138 48.1326 22.6174 48.2413 22.9174 48.3092C22.921 48.4853 22.8993 48.6401 22.8522 48.7736C22.804 48.8955 22.7378 49.013 22.6536 49.1263C22.5801 49.2268 22.4949 49.3284 22.398 49.431C22.3011 49.5335 22.2052 49.6478 22.1103 49.7737C22.0118 49.7235 21.9149 49.6908 21.8194 49.6757C21.724 49.6605 21.6237 49.6575 21.5187 49.6667C21.4126 49.6642 21.3065 49.6617 21.2004 49.6592C21.0943 49.6568 20.9872 49.6426 20.8791 49.6168L20.4479 49.1251C20.3041 48.9613 20.1487 48.7984 19.9816 48.6366L19.9678 48.479C19.9403 48.1638 19.8553 47.8654 19.7131 47.5837C19.5708 47.3021 19.4572 47.012 19.3723 46.7136C19.3981 46.6055 19.4123 46.4984 19.4147 46.3923C19.4172 46.2862 19.4134 46.1748 19.4031 46.058C19.3827 45.8246 19.3511 45.5979 19.3084 45.3782C19.2773 45.1574 19.2637 44.9351 19.2677 44.7112L19.1801 44.7189C19.075 44.7281 18.9667 44.767 18.8551 44.8355C18.7424 44.8924 18.6308 44.961 18.5201 45.0413C18.4202 45.1089 18.3202 45.1764 18.2203 45.244C18.131 45.2988 18.0513 45.3293 17.9812 45.3355C17.9462 45.3385 17.9107 45.3358 17.8746 45.3272C17.8386 45.3185 17.7972 45.3163 17.7505 45.3204C17.6922 45.3255 17.6242 45.3549 17.5465 45.4088C17.4689 45.4626 17.3859 45.5228 17.2976 45.5894C17.1967 45.6453 17.0957 45.7012 16.9947 45.757C16.8937 45.8129 16.7907 45.8455 16.6856 45.8547C16.5222 45.869 16.3526 45.8132 16.1769 45.6874C16.1454 45.5961 16.1319 45.509 16.1364 45.4263C16.1293 45.3446 16.1216 45.257 16.1134 45.1636C16.1053 45.0702 16.0791 44.9725 16.0349 44.8705C16.1033 44.7116 16.204 44.5852 16.3369 44.4912C16.4572 44.3866 16.5901 44.2926 16.7358 44.2093C16.8687 44.1153 17.008 44.0266 17.1536 43.9433C17.2982 43.8483 17.4175 43.732 17.5113 43.5944L17.6164 43.5852C17.7798 43.5709 17.9227 43.5231 18.045 43.4419C18.1789 43.3596 18.334 43.3166 18.5101 43.3129C18.5664 43.2845 18.5996 43.1933 18.6097 43.0395L18.6813 43.0509C18.9381 43.0285 19.1581 42.921 19.3412 42.7285C19.4063 41.9935 19.4476 41.2546 19.4649 40.512C19.4823 39.7694 19.4588 39.0304 19.3945 38.2949C19.3883 38.2248 19.3589 38.1568 19.306 38.0909C19.2745 37.9995 19.2552 37.913 19.248 37.8313L19.2251 37.5686C19.2138 37.4402 19.2079 37.3054 19.2073 37.1643C19.2068 37.0232 19.2237 36.8806 19.2581 36.7364C19.3687 36.6561 19.4882 36.6104 19.6167 36.5991C19.7684 36.5859 19.9164 36.5964 20.0606 36.6309C20.2154 36.6526 20.3639 36.6691 20.506 36.6801C20.6203 36.776 20.7064 36.8861 20.7643 37.0105C20.8339 37.1338 20.8807 37.2649 20.9046 37.404C20.9275 37.5314 20.9393 37.6657 20.9398 37.8068C20.9511 37.9352 20.9623 38.0636 20.9735 38.192C20.996 38.4489 21.0472 38.6973 21.127 38.9373C21.2068 39.1774 21.2569 39.4142 21.2774 39.6476C21.2825 39.706 21.2632 39.7548 21.2196 39.7939C21.1866 39.8203 21.1757 39.8977 21.1869 40.0261C21.1982 40.1545 21.2216 40.2878 21.2572 40.4258C21.2928 40.5638 21.3167 40.7029 21.329 40.843C21.3433 41.0064 21.3348 41.1778 21.3034 41.357C21.272 41.5362 21.246 41.709 21.2252 41.8755C21.9206 41.7559 22.6309 41.6055 23.3561 41.4244C24.0814 41.2433 24.7655 40.9952 25.4085 40.6802C25.4181 40.6558 25.4209 40.6203 25.4168 40.5736C25.4106 40.5036 25.3987 40.434 25.3809 40.365C25.3631 40.296 25.3506 40.2206 25.3434 40.1389C25.3312 39.9988 25.3682 39.8838 25.4544 39.7939C25.3675 39.4721 25.298 39.1488 25.2461 38.824C25.1941 38.4992 25.1538 38.1733 25.1252 37.8464L25.0379 36.8483C25.0093 36.5214 24.9749 36.1951 24.9346 35.8692C25.0229 35.8027 25.1196 35.7648 25.2246 35.7556C25.3531 35.7444 25.4729 35.7692 25.5841 35.83C25.7059 35.8782 25.8427 35.8956 25.9945 35.8823C26.0995 35.8732 26.1856 35.848 26.2525 35.8068C26.3912 35.9123 26.492 36.0564 26.5551 36.2391C26.6181 36.4218 26.6758 36.6109 26.7282 36.8063C26.7806 37.0017 26.833 37.1971 26.8853 37.3925C26.9484 37.5752 27.0492 37.7193 27.1878 37.8248L27.21 37.8758C27.214 37.9225 27.1938 37.9596 27.1491 37.987C27.1044 38.0144 27.0852 38.0632 27.0913 38.1332L27.0974 38.2033C27.1605 38.386 27.2124 38.5755 27.2531 38.7719C27.2938 38.9684 27.3292 39.1711 27.3592 39.3802C27.3999 39.5766 27.4465 39.7726 27.4989 39.968C27.5502 40.1517 27.6298 40.3212 27.7374 40.4764C27.7948 40.4597 27.8702 40.4472 27.9636 40.439C28.197 40.4186 28.3851 40.4845 28.5279 40.6367C28.6812 40.7762 28.8176 40.9231 28.937 41.0773ZM40.8834 37.0501L40.8895 37.1201C40.8098 37.1506 40.7741 37.2126 40.7822 37.306C40.6589 37.3756 40.5288 37.434 40.3917 37.4813C40.2537 37.5169 40.123 37.5695 39.9997 37.6391C39.8703 37.6387 39.7355 37.6446 39.5954 37.6568C39.466 37.6564 39.3371 37.6618 39.2086 37.673C38.8584 37.7037 38.5092 37.746 38.161 37.8C37.8128 37.854 37.4626 37.8846 37.1104 37.8919C36.9551 37.9996 36.7808 38.0913 36.5874 38.167C36.4047 38.2301 36.2258 38.2692 36.0507 38.2846C35.9106 38.2968 35.7865 38.29 35.6784 38.2642C35.4104 38.4288 35.1113 38.5726 34.7809 38.6956C34.4622 38.8176 34.1377 38.9401 33.8073 39.0631C33.4759 39.1745 33.1577 39.3023 32.8527 39.4466C32.5584 39.5782 32.3031 39.7535 32.087 39.9724C32.078 40.1379 32.0748 40.3028 32.0774 40.4673C32.079 40.6201 32.0864 40.7724 32.0997 40.9241C32.114 41.0876 32.1331 41.2388 32.1571 41.3779C32.1927 41.5159 32.2458 41.6524 32.3164 41.7874C32.3768 41.8057 32.4426 41.8176 32.5136 41.8231C32.5964 41.8276 32.6669 41.8273 32.7253 41.8222C32.7837 41.8171 32.8415 41.8062 32.8989 41.7894C32.9552 41.7609 32.9925 41.7165 33.0107 41.6561C33.1838 41.6174 33.3584 41.5963 33.5345 41.5926C33.7096 41.5773 33.8847 41.562 34.0599 41.5467C34.235 41.5313 34.4037 41.5107 34.5662 41.4847C34.7402 41.4577 34.907 41.4137 35.0663 41.3527C35.249 41.2897 35.4274 41.2447 35.6015 41.2177C35.7873 41.1897 35.9672 41.1622 36.1413 41.1352C36.3154 41.1082 36.4948 41.0748 36.6795 41.0351C36.8633 40.9838 37.0503 40.9027 37.2406 40.792C37.3974 40.8371 37.5518 40.853 37.7035 40.8397C37.867 40.8254 38.0256 40.8233 38.1794 40.8333C38.2662 40.8846 38.336 40.9432 38.3889 41.0091C38.4534 41.0741 38.4897 41.1532 38.4979 41.2466C38.5122 41.4101 38.4681 41.5786 38.3656 41.7522C38.2632 41.9259 38.1831 42.0858 38.1253 42.2321L37.9327 42.2489C37.6525 42.2734 37.3817 42.3383 37.1204 42.4435C36.8697 42.536 36.6147 42.6465 36.3553 42.7751C36.1067 42.891 35.8517 43.0015 35.5903 43.1067C35.3396 43.1992 35.0742 43.2577 34.794 43.2823C34.7473 43.2863 34.7207 43.3181 34.7141 43.3775C34.7182 43.4242 34.7096 43.4602 34.6883 43.4856C34.6289 43.479 34.5408 43.4809 34.4241 43.4911C34.1556 43.5146 33.9013 43.5662 33.6612 43.646C33.4212 43.7259 33.1727 43.777 32.9159 43.7995C32.8459 43.8056 32.7758 43.8117 32.7058 43.8179C32.6347 43.8123 32.5636 43.8068 32.4926 43.8012C32.4424 43.8997 32.3721 43.9706 32.2818 44.0138C32.1904 44.0453 32.107 44.0996 32.0314 44.1768C32.0055 44.285 31.9934 44.4154 31.995 44.5682C32.0083 44.72 32.0163 44.8781 32.0189 45.0425C32.0322 45.1943 32.0333 45.3412 32.0222 45.4834C32.0111 45.6255 31.9741 45.7405 31.9112 45.8283C31.928 45.8857 31.9767 45.905 32.0574 45.8861C32.1371 45.8556 32.181 45.8871 32.1892 45.9805C32.1984 46.0855 32.1964 46.1975 32.1833 46.3163C32.1701 46.435 32.1687 46.5528 32.1789 46.6695C32.1983 46.8914 32.2431 47.1345 32.3133 47.3989C32.3941 47.6506 32.4968 47.8828 32.6212 48.0954C32.7574 48.307 32.9255 48.4805 33.1256 48.6159C33.3246 48.7397 33.5642 48.7893 33.8444 48.7648C34.0312 48.7484 34.2032 48.6981 34.3605 48.6138C34.5178 48.5294 34.6419 48.4009 34.7327 48.2283L34.8187 48.2031C34.8654 48.199 34.9067 48.2013 34.9428 48.2099C34.9905 48.2175 35.0377 48.2192 35.0844 48.2152C35.1545 48.209 35.2384 48.1605 35.3364 48.0696C35.4449 47.966 35.5583 47.8502 35.6765 47.7222C35.8064 47.5932 35.9368 47.4701 36.0677 47.3527C36.1976 47.2238 36.3247 47.1303 36.449 47.0724C36.5164 46.9018 36.578 46.7317 36.6337 46.5621C36.7012 46.3915 36.8067 46.2529 36.9503 46.1462L36.9058 45.6384C37.0113 45.4998 37.1237 45.3723 37.2429 45.256C37.3738 45.1387 37.4671 44.9952 37.5229 44.8257C37.5833 44.8439 37.6374 44.8568 37.6851 44.8644C37.7445 44.871 37.8034 44.8717 37.8617 44.8666C37.9201 44.8615 37.978 44.8506 38.0353 44.8338C38.1043 44.816 38.167 44.7929 38.2233 44.7644C38.328 44.8846 38.4108 45.0244 38.4718 45.1838C38.5434 45.3304 38.6262 45.4702 38.7202 45.6032C38.6335 45.8225 38.5329 46.0842 38.4183 46.3883C38.3038 46.6925 38.1776 46.9976 38.0397 47.3037C37.9018 47.6099 37.7512 47.9054 37.5879 48.1902C37.4352 48.4624 37.2775 48.6762 37.1146 48.8316C37.0827 48.8697 37.0103 48.9172 36.8977 48.9741C36.7774 49.0787 36.6684 49.1765 36.5704 49.2674C36.4735 49.37 36.3835 49.4837 36.3003 49.6086C35.971 49.7433 35.6564 49.912 35.3565 50.1147C35.0683 50.3164 34.7795 50.5122 34.4903 50.7022C34.3472 50.6794 34.1939 50.6752 34.0304 50.6895C33.8903 50.7017 33.7508 50.7198 33.6117 50.7438C33.4736 50.7794 33.3229 50.8043 33.1595 50.8186C33.1077 50.7643 33.034 50.7296 32.9386 50.7144C32.8559 50.7099 32.8216 50.6541 32.8357 50.547C32.4368 50.5584 32.106 50.4755 31.8435 50.2985C31.582 50.1332 31.3514 49.9181 31.1518 49.6532C30.9639 49.3873 30.8031 49.0956 30.6694 48.7779C30.5357 48.4602 30.3972 48.1547 30.2539 47.8614L30.2494 47.8088C30.2442 47.7505 30.2645 47.7134 30.3102 47.6977C30.3559 47.6819 30.3762 47.6448 30.3711 47.5865C30.369 47.5631 30.3616 47.5461 30.3489 47.5355C30.3027 47.4101 30.2638 47.3018 30.2323 47.2104C30.2008 47.1191 30.1794 47.0092 30.1682 46.8808C30.1518 46.694 30.1477 46.512 30.1557 46.3348C30.1627 46.146 30.158 45.9582 30.1417 45.7714C30.1253 45.5846 30.0877 45.4232 30.0287 45.2872C30.0703 45.2248 30.1045 45.1453 30.1314 45.0489C30.1456 44.9418 30.1539 44.8352 30.1564 44.7291C30.1588 44.623 30.1555 44.5174 30.1463 44.4123C30.1488 44.3062 30.1581 44.2113 30.1743 44.1276C30.1164 44.0032 30.0658 43.8959 30.0226 43.8056C29.9784 43.7036 29.9502 43.5825 29.9379 43.4424L29.9272 43.3198C30.0266 43.1112 30.1079 42.8982 30.1713 42.6809C30.2346 42.4636 30.3033 42.24 30.3772 42.01L30.3727 41.9575C30.343 41.6189 30.3017 41.2814 30.2488 40.9449C30.1958 40.6084 30.1545 40.2709 30.1249 39.9323L30.0958 39.5996C30.0856 39.4828 30.0817 39.3714 30.0842 39.2653C30.1735 39.2105 30.2379 39.1401 30.2775 39.0543C30.317 38.9685 30.3814 38.8982 30.4707 38.8433L31.0486 38.7928L31.1384 38.6085C31.1683 38.547 31.186 38.4808 31.1916 38.4097C31.3169 38.3635 31.4354 38.306 31.547 38.2375C31.6693 38.1562 31.7799 38.0759 31.8789 37.9967C32.0341 37.889 32.1729 37.7945 32.2952 37.7132C32.4282 37.6192 32.5568 37.5433 32.6811 37.4854C32.8161 37.4147 32.9579 37.3553 33.1066 37.307C33.2553 37.2587 33.4279 37.2142 33.6243 37.1734C33.7177 37.1653 33.7746 37.1427 33.7948 37.1056C33.8268 37.0675 33.8699 37.0226 33.9242 36.9708C34.0663 36.9819 34.2085 36.9929 34.3506 37.004C34.4917 37.0035 34.6323 36.997 34.7724 36.9848C35.0526 36.9603 35.3107 36.8848 35.5466 36.7582C35.8968 36.7276 36.2407 36.6916 36.5782 36.6503C36.9275 36.608 37.2772 36.5715 37.6274 36.5409C37.9309 36.5143 38.2355 36.4995 38.541 36.4963C38.8466 36.4931 39.1479 36.5079 39.4448 36.5407C39.5468 36.4965 39.662 36.4688 39.7905 36.4575C39.9306 36.4453 40.0722 36.4505 40.2153 36.4733C40.3691 36.4834 40.5151 36.4706 40.6531 36.435C40.676 36.5624 40.7149 36.6707 40.7698 36.76C40.8353 36.8367 40.8732 36.9333 40.8834 37.0501ZM53.8749 43.9597C53.8851 44.0765 53.8587 44.1787 53.7958 44.2666C53.7436 44.3417 53.6733 44.4126 53.5851 44.4791C53.5084 44.5447 53.4255 44.6048 53.3362 44.6597C53.2585 44.7136 53.1878 44.7786 53.1238 44.8547C53.0812 44.9055 53.0513 44.967 53.0341 45.0391C53.0275 45.0984 53.0019 45.1419 52.9573 45.1693C52.8923 45.2338 52.8195 45.2754 52.7388 45.2943C52.6581 45.3131 52.5721 45.3383 52.4807 45.3698C52.4 45.3886 52.3204 45.4191 52.2417 45.4613C52.162 45.4918 52.0966 45.5504 52.0454 45.6373C51.5018 45.7436 50.9656 45.867 50.4367 46.0074C49.9196 46.1467 49.3808 46.2409 48.8205 46.29C48.7154 46.2992 48.5997 46.321 48.4733 46.3556C48.3576 46.3775 48.2477 46.3989 48.1436 46.4198C47.9005 46.4646 47.6569 46.5035 47.4128 46.5366C47.1803 46.5687 46.9415 46.5955 46.6963 46.617C46.3578 46.6466 46.0182 46.6645 45.6776 46.6708C45.336 46.6654 44.9987 46.642 44.6657 46.6005C44.5789 46.5493 44.4814 46.5108 44.3733 46.4849C44.2651 46.4591 44.1512 46.4338 44.0314 46.409C43.9232 46.3832 43.8204 46.351 43.7229 46.3124C43.6255 46.2739 43.5493 46.21 43.4944 46.1207C43.3183 46.1243 43.1576 46.1031 43.0124 46.057C42.8789 46.0099 42.7507 45.9564 42.6278 45.8965C42.5156 45.824 42.3976 45.752 42.2737 45.6805C42.1498 45.609 42.0094 45.5507 41.8525 45.5056C41.7215 45.3524 41.5851 45.2055 41.4434 45.065C41.3124 44.9117 41.1547 44.7903 40.9704 44.7005C40.916 44.4818 40.8382 44.2651 40.7371 44.0504C40.6476 43.8347 40.5529 43.6254 40.4527 43.4224C40.3633 43.2067 40.2855 42.99 40.2194 42.7723C40.1416 42.5556 40.0925 42.3305 40.0721 42.097C40.0578 41.9336 40.0638 41.7331 40.0901 41.4955C40.1163 41.2579 40.1543 41.0194 40.2039 40.7797C40.2642 40.5274 40.3376 40.2916 40.4243 40.0723C40.511 39.853 40.6013 39.6745 40.6951 39.5369C40.7271 39.4988 40.7654 39.466 40.81 39.4386C40.8547 39.4112 40.8925 39.3726 40.9234 39.3228C41.0183 39.1969 41.121 39.0938 41.2316 39.0135C41.3412 38.9216 41.4556 38.8175 41.5748 38.7012C41.6174 38.6504 41.6479 38.5948 41.6661 38.5344C41.696 38.4729 41.7381 38.4163 41.7924 38.3645C41.8254 38.3381 41.8716 38.3282 41.931 38.3348C42.002 38.3403 42.0594 38.3235 42.103 38.2844C42.1467 38.2453 42.1664 38.2024 42.1623 38.1557C42.1583 38.109 42.1722 38.0666 42.2041 38.0285C42.2148 38.0158 42.2498 38.0128 42.3092 38.0193C42.3676 38.0142 42.4026 38.0112 42.4143 38.0101C42.496 38.003 42.5848 37.9423 42.6807 37.828C42.7755 37.7021 42.8564 37.6186 42.9234 37.5774C43.0011 37.5236 43.0802 37.4872 43.1609 37.4684C43.2406 37.4379 43.3251 37.3952 43.4144 37.3404C43.5367 37.2591 43.6547 37.1958 43.7683 37.1506C43.8927 37.0926 44.0165 37.0289 44.1398 36.9593C44.2078 36.9298 44.2684 36.8833 44.3217 36.8198C44.375 36.7564 44.4298 36.7104 44.4861 36.6819C44.5881 36.6377 44.697 36.6047 44.8127 36.5828C44.9391 36.5482 45.0543 36.5205 45.1583 36.4996C45.273 36.4661 45.3819 36.433 45.4849 36.4005C45.5986 36.3552 45.6985 36.2877 45.7848 36.1978L45.9249 36.1855C46.135 36.1671 46.3367 36.1201 46.5301 36.0443C46.7235 35.9686 46.9252 35.9215 47.1353 35.9032C47.1937 35.8981 47.2823 35.9021 47.4011 35.9152C47.4894 35.8487 47.5919 35.8103 47.7086 35.8001C47.9071 35.7827 48.1101 35.8179 48.3178 35.9056C48.5244 35.9816 48.7328 36.0104 48.9429 35.9921L49.048 35.9829C49.0947 35.9788 49.1409 35.9689 49.1866 35.9531C49.3262 36.0703 49.4841 36.127 49.6602 36.1234C49.848 36.1187 50.0102 36.1575 50.1468 36.2396C50.2347 36.3025 50.306 36.3786 50.3609 36.4679C50.4274 36.5562 50.4828 36.6514 50.527 36.7534L50.6597 37.0594C50.7039 37.1614 50.7588 37.2507 50.8243 37.3273C50.8027 37.7527 50.6572 38.1066 50.3878 38.3889C50.1291 38.6586 49.7837 38.8123 49.3518 38.8501C49.1883 38.8644 49.0467 38.8592 48.9269 38.8343C48.8178 38.7968 48.7144 38.7588 48.617 38.7203C48.5312 38.6807 48.4395 38.6417 48.342 38.6032C48.2446 38.5647 48.1364 38.5388 48.0176 38.5257C48.1256 38.281 48.1854 38.0228 48.1969 37.7513C48.0634 37.7041 47.9314 37.6745 47.801 37.6624C47.6705 37.6503 47.5443 37.6201 47.4225 37.572C47.1144 37.6813 46.8102 37.7667 46.5097 37.8283C46.2199 37.8772 45.9563 38.0238 45.7189 38.268C45.6595 38.2615 45.5942 38.2554 45.5232 38.2499C45.4638 38.2433 45.4049 38.2426 45.3465 38.2477C45.2765 38.2538 45.141 38.3186 44.9401 38.442C44.7381 38.5538 44.5201 38.6846 44.2862 38.8345C44.064 38.9834 43.8476 39.1317 43.637 39.2795C43.4381 39.4263 43.2998 39.5266 43.2222 39.5805C43.1339 39.647 43.0583 39.7242 42.9954 39.8121C42.9325 39.8999 42.8701 39.9936 42.8083 40.0931C42.7454 40.181 42.6825 40.2688 42.6196 40.3567C42.5557 40.4328 42.4727 40.493 42.3707 40.5372C42.3586 40.6677 42.3274 40.7822 42.2772 40.8807C42.227 40.9792 42.1715 41.084 42.1106 41.1952C42.1174 41.4064 42.1124 41.6185 42.0958 41.8317C42.0908 42.0439 42.0975 42.2551 42.1159 42.4652L42.1358 42.6929C42.1419 42.7629 42.1592 42.8261 42.1877 42.8824C42.3177 43.024 42.4259 43.1851 42.5123 43.3657C42.6103 43.5454 42.7558 43.662 42.9488 43.7157C42.9645 43.7614 42.9612 43.7911 42.9389 43.8048C42.9282 43.8175 42.9191 43.8477 42.9115 43.8955C42.9928 44.0177 43.0896 44.1151 43.2018 44.1877C43.3247 44.2475 43.448 44.3132 43.5719 44.3847C43.6948 44.4445 43.8123 44.5107 43.9246 44.5832C44.0368 44.6557 44.1277 44.7537 44.1973 44.877C44.3724 44.8617 44.5384 44.8765 44.6953 44.9216C44.8638 44.9657 45.0212 45.0166 45.1674 45.0744C45.3253 45.1312 45.471 45.1831 45.6045 45.2303C45.7497 45.2764 45.8924 45.2933 46.0325 45.2811C46.1609 45.2698 46.2761 45.2421 46.3781 45.1979C46.6898 45.2647 46.9994 45.3082 47.3071 45.3284C47.6253 45.3358 47.9421 45.3257 48.2573 45.2982C48.6425 45.2645 49.0257 45.2074 49.4069 45.127C49.788 45.0466 50.1697 44.972 50.5519 44.9033C50.6899 44.8677 50.8232 44.8443 50.9516 44.8331C51.08 44.8218 51.2074 44.7989 51.3338 44.7643C51.4952 44.7267 51.6403 44.6375 51.7691 44.4968C51.9097 44.3552 52.0474 44.249 52.1824 44.1784C52.318 44.2488 52.4733 44.2764 52.6484 44.2611C52.8469 44.2437 53.037 44.1977 53.2186 44.123C53.3993 44.0366 53.5889 43.9847 53.7873 43.9674L53.8749 43.9597ZM67.7838 45.0191C67.792 45.1125 67.7578 45.1919 67.6811 45.2574C67.6045 45.323 67.5162 45.3895 67.4163 45.4571L67.1149 45.6423C67.0139 45.6981 66.9495 45.7685 66.9216 45.8533C66.7901 45.8295 66.6596 45.8174 66.5302 45.8169C66.4124 45.8155 66.2952 45.8198 66.1785 45.83C66.0267 45.8433 65.8706 45.8746 65.7102 45.9239C65.5488 45.9616 65.4271 46.0487 65.3449 46.1853C65.2845 46.1671 65.2309 46.16 65.1842 46.1641L65.0442 46.1763C64.869 46.1916 64.6891 46.2191 64.5044 46.2588C64.3323 46.3092 64.1587 46.342 63.9836 46.3573C63.8902 46.3655 63.7963 46.3678 63.7019 46.3643C63.6192 46.3598 63.5402 46.3314 63.4651 46.2792C63.3631 46.3234 63.2537 46.3506 63.137 46.3608C62.9852 46.3741 62.8372 46.3635 62.6931 46.3291C62.5489 46.2946 62.4042 46.2544 62.259 46.2082C62.1245 46.1494 61.9846 46.097 61.8394 46.0509C61.6942 46.0047 61.55 45.9703 61.4069 45.9475L61.2628 45.7131C61.073 45.6944 60.8933 45.6572 60.7237 45.6015C60.5648 45.533 60.4054 45.4587 60.2454 45.3786C60.0855 45.2985 59.9261 45.2242 59.7672 45.1558C59.6189 45.0747 59.4674 45.0232 59.3125 45.0015C59.2501 44.9599 59.194 44.9236 59.1442 44.8927C59.0934 44.8501 59.0528 44.7889 59.0223 44.7093C58.8675 44.6875 58.7233 44.6531 58.5898 44.6059L58.2052 44.4455C58.0823 44.3856 57.9429 44.339 57.7871 44.3056C57.6419 44.2595 57.4696 44.2393 57.2701 44.245C57.1908 44.146 57.0829 44.0555 56.9463 43.9733C56.8098 43.8912 56.6773 43.8557 56.5488 43.8669C56.4671 43.8741 56.4044 43.8972 56.3608 43.9363L56.3685 44.0239C56.3807 44.164 56.4338 44.3005 56.5278 44.4334C56.6218 44.5664 56.7355 44.6564 56.8691 44.7035C56.8594 44.7279 56.8567 44.7634 56.8607 44.8101C56.8669 44.8802 56.8847 44.9492 56.9142 45.0172C56.9553 45.0842 57.0178 45.1258 57.1015 45.142C57.0661 45.2745 57.0194 45.4138 56.9616 45.5601C56.9028 45.6946 56.826 45.8248 56.7311 45.9508C56.6363 46.0767 56.5282 46.1861 56.407 46.2791C56.2964 46.3594 56.1652 46.4061 56.0134 46.4194C55.9687 46.4468 55.9368 46.4849 55.9175 46.5337C55.9099 46.5814 55.9029 46.6349 55.8963 46.6943C55.9004 46.741 55.8928 46.7887 55.8735 46.8375C55.8659 46.8852 55.8457 46.9223 55.8127 46.9487C55.767 46.9644 55.7033 46.9759 55.6216 46.983C55.5048 46.9933 55.4041 46.9844 55.3193 46.9566C55.2345 46.9287 55.1429 46.8896 55.0444 46.8394L55.0382 46.7694C55.026 46.6293 54.9871 46.521 54.9216 46.4443C54.8677 46.3667 54.8027 46.2959 54.7265 46.232C54.661 46.1554 54.5955 46.0788 54.53 46.0022C54.4761 45.9246 54.4431 45.8157 54.4308 45.6756C54.3979 45.702 54.3585 45.7231 54.3129 45.7389C54.2789 45.7536 54.2575 45.779 54.2489 45.815C54.2154 45.7003 54.195 45.6021 54.1879 45.5204C54.1674 45.2869 54.1831 45.062 54.2347 44.8458C54.2981 44.6285 54.3195 44.4031 54.2991 44.1696L54.2761 43.907C54.2526 43.6385 54.2238 43.3763 54.1896 43.1205C54.1555 42.8647 54.1272 42.6084 54.1047 42.3515C54.0853 42.1297 54.0723 41.9132 54.0656 41.7021C54.0578 41.4793 54.0618 41.2554 54.0774 41.0305C54.1384 40.2488 54.1766 39.4749 54.1919 38.709C54.2179 37.9303 54.2969 37.1529 54.429 36.3767C54.4122 36.3194 54.3896 36.2625 54.3611 36.2062C54.3443 36.1488 54.3334 36.091 54.3283 36.0326C54.3242 35.9859 54.3275 35.9562 54.3381 35.9435C54.3644 35.706 54.4526 35.5041 54.6028 35.3381C54.7519 35.1603 54.9549 35.0602 55.2117 35.0378L55.2643 35.0332C55.4095 35.0793 55.5222 35.1576 55.6025 35.2683C55.6934 35.3662 55.8195 35.3963 55.9809 35.3587C55.983 35.382 55.9792 35.4059 55.9695 35.4302C55.9716 35.4536 55.9736 35.4769 55.9757 35.5003C55.9869 35.6287 56.0301 35.719 56.1052 35.7713C56.1804 35.8235 56.2677 35.8806 56.3672 35.9424C56.3191 36.0643 56.29 36.2021 56.2799 36.3559C56.2815 36.5087 56.2831 36.6615 56.2847 36.8143C56.2863 36.9671 56.2757 37.115 56.253 37.2582C56.2419 37.4003 56.1996 37.5217 56.126 37.6222C56.1829 37.7349 56.2223 37.8491 56.2442 37.9648C56.2661 38.0805 56.2827 38.2026 56.2939 38.331C56.3051 38.4594 56.311 38.5942 56.3116 38.7353C56.3112 38.8647 56.3171 38.9995 56.3293 39.1396C56.3406 39.268 56.3683 39.3832 56.4125 39.4852C56.6693 39.4627 56.8046 39.3274 56.8181 39.0791C57.1145 38.9709 57.3733 38.8365 57.5945 38.676C57.8264 38.5028 58.0461 38.3247 58.2536 38.1419C58.4611 37.959 58.6623 37.7709 58.8571 37.5774C59.0636 37.3828 59.2955 37.2096 59.5527 37.0577L59.5497 37.0227C59.5446 36.9643 59.559 36.9278 59.593 36.913C59.626 36.8866 59.6272 36.8336 59.5967 36.7539C59.7667 36.6802 59.906 36.5916 60.0146 36.488C60.1338 36.3717 60.2409 36.2505 60.3357 36.1246L60.6363 35.7278C60.7418 35.5891 60.8605 35.467 60.9924 35.3613C61.0684 35.1547 61.1318 34.9374 61.1824 34.7095C61.2447 34.4805 61.3319 34.267 61.444 34.069C61.6658 34.0496 61.9066 34.0462 62.1665 34.0587C62.4381 34.0703 62.6729 34.1321 62.8709 34.2442C62.8558 34.3396 62.9022 34.4002 63.0104 34.4261C62.9248 34.9276 62.771 35.3881 62.5489 35.8075C62.3258 36.2152 62.0217 36.5712 61.6366 36.8754C61.5894 37.0089 61.5233 37.1265 61.438 37.228C61.3528 37.3296 61.2676 37.4312 61.1824 37.5327C61.0961 37.6226 61.0104 37.7184 60.9252 37.8199C60.84 37.9215 60.7738 38.039 60.7266 38.1726C60.5886 38.2082 60.4696 38.2597 60.3696 38.3273C60.2813 38.3938 60.1941 38.4721 60.1078 38.5619C60.0322 38.6391 59.945 38.7174 59.846 38.7966C59.7578 38.8631 59.6568 38.919 59.5431 38.9643C59.4599 39.0892 59.3577 39.1981 59.2364 39.2911C59.1268 39.383 59.0114 39.4754 58.8901 39.5684C58.7795 39.6487 58.6758 39.7401 58.5789 39.8427C58.481 39.9336 58.4148 40.0511 58.3803 40.1953L57.925 40.2351C57.816 40.4682 57.6631 40.6698 57.4662 40.8399C57.28 40.9974 57.0875 41.1495 56.8886 41.2963C56.9359 41.4333 57.0103 41.5444 57.1118 41.6297C57.2124 41.7032 57.3183 41.7704 57.4295 41.8313C57.5523 41.8911 57.6699 41.9573 57.7821 42.0298C57.905 42.0896 58.0118 42.1685 58.1028 42.2664C58.6094 42.4103 59.1011 42.5849 59.5779 42.7902C60.0536 42.9839 60.5105 43.2321 60.9488 43.5349C60.9711 43.5212 60.9998 43.5128 61.0348 43.5098C61.1282 43.5016 61.2066 43.5241 61.2701 43.5774C61.3325 43.619 61.4158 43.6293 61.5198 43.6085C61.5767 43.7211 61.6481 43.7972 61.7339 43.8368C61.8187 43.8647 61.903 43.8867 61.9867 43.9029C62.0822 43.9181 62.1728 43.9454 62.2586 43.985C62.3444 44.0245 62.4099 44.1011 62.4551 44.2148C62.6313 44.2112 62.7919 44.2324 62.9371 44.2785C63.094 44.3236 63.2364 44.4053 63.3644 44.5235L63.5745 44.5051C63.9481 44.4724 64.3131 44.4758 64.6694 44.5152C65.0258 44.5546 65.3849 44.5584 65.7468 44.5268C65.9336 44.5104 66.1135 44.4829 66.2866 44.4443C66.4586 44.3939 66.6228 44.3207 66.7791 44.2247C66.8405 44.2546 66.9078 44.284 66.9809 44.3129C67.054 44.3418 67.1314 44.3527 67.2132 44.3455C67.2715 44.3404 67.3581 44.3211 67.4728 44.2875C67.4957 44.4149 67.5473 44.5339 67.6275 44.6446C67.7195 44.7541 67.7715 44.879 67.7838 45.0191ZM89.2252 41.8198C89.1832 42.0117 89.182 42.2 89.2217 42.3848C89.1908 42.4345 89.1525 42.4673 89.1068 42.483C89.0611 42.4988 89.016 42.5204 88.9713 42.5478C88.9256 42.5636 88.8868 42.5905 88.8549 42.6286C88.8336 42.654 88.8381 42.7065 88.8686 42.7862C88.4854 42.8433 88.1249 42.9571 87.7869 43.1279C87.4489 43.2986 87.1178 43.4805 86.7936 43.6736C86.6133 43.6305 86.4554 43.5737 86.3199 43.5033C86.1843 43.4328 86.0163 43.3945 85.8158 43.3885C85.5826 43.009 85.3595 42.6109 85.1466 42.1943C84.9444 41.765 84.8239 41.3285 84.7851 40.8849C84.7565 40.558 84.7888 40.2552 84.882 39.9765C84.8514 39.6263 84.8504 39.2793 84.8792 38.9357C84.9079 38.592 84.943 38.2537 84.9845 37.9207C85.0366 37.575 85.077 37.2303 85.1058 36.8866C85.1345 36.543 85.1336 36.196 85.1029 35.8458L85.0692 35.4606C85.0459 35.4626 85.0193 35.4943 84.9893 35.5558C84.9584 35.6055 84.9285 35.667 84.8996 35.7401C84.8813 35.8005 84.8631 35.8609 84.8449 35.9213C84.8266 35.9817 84.8122 36.0183 84.8015 36.031C84.6163 36.2001 84.4756 36.4065 84.3793 36.6502C84.2936 36.8812 84.1953 37.1016 84.0842 37.3113C83.9422 37.5707 83.788 37.8254 83.6217 38.0752C83.467 38.324 83.261 38.5243 83.0037 38.6762L83.0068 38.7113C83.0119 38.7696 82.998 38.812 82.965 38.8384C82.932 38.8649 82.9313 38.9237 82.9628 39.0151C82.6791 39.134 82.4165 39.2923 82.175 39.4899C81.9452 39.6864 81.7603 39.9261 81.6203 40.2089C81.392 40.2877 81.1773 40.3888 80.9764 40.5123C80.7861 40.623 80.591 40.746 80.391 40.8811C80.3017 40.936 80.2076 41.003 80.1087 41.0823C80.0097 41.1615 79.9088 41.2174 79.8057 41.2499C79.7154 41.2931 79.589 41.3277 79.4266 41.3537C79.2759 41.3786 79.1135 41.4046 78.9394 41.4316C78.7769 41.4576 78.614 41.4777 78.4506 41.492L78.0653 41.5257C78.007 41.5308 77.9285 41.5083 77.83 41.4581C77.7315 41.4079 77.6208 41.3529 77.498 41.293C77.3868 41.2322 77.2703 41.1777 77.1484 41.1295C77.0255 41.0697 76.9105 41.0327 76.8034 41.0185C76.6835 40.7232 76.5257 40.4664 76.3302 40.2482C76.1453 40.0174 75.9488 39.7875 75.7405 39.5587C75.6576 39.2837 75.5504 38.999 75.4188 38.7046C75.2988 38.4093 75.1076 38.1731 74.8451 37.9961C74.8963 37.9092 74.9173 37.8133 74.9081 37.7082C74.8969 37.5798 74.857 37.4598 74.7884 37.3481C74.7198 37.2365 74.6794 37.1107 74.6671 36.9706C74.6589 36.8772 74.6587 36.8066 74.6662 36.7589C74.5501 36.9102 74.4725 37.0993 74.4336 37.3263C74.4052 37.5405 74.3987 37.7351 74.4141 37.9103C74.4263 38.0503 74.4551 38.1772 74.5003 38.2909C74.3979 38.4646 74.3399 38.6755 74.3263 38.9237C74.3244 39.1709 74.3316 39.3879 74.3479 39.5747C74.3684 39.8082 74.4058 40.0343 74.4602 40.253C74.2898 40.4562 74.2163 40.692 74.2398 40.9605C74.2531 41.1123 74.2998 41.2434 74.3801 41.3541C74.3842 41.4008 74.3756 41.4368 74.3543 41.4622C74.333 41.4876 74.3053 41.5076 74.2713 41.5224C74.249 41.5361 74.2213 41.5562 74.1883 41.5826C74.166 41.5963 74.1569 41.6265 74.161 41.6732C74.1661 41.7316 74.1717 41.7958 74.1778 41.8658C74.1956 41.9348 74.2076 42.0044 74.2137 42.0744C74.228 42.2379 74.237 42.4076 74.2407 42.5838C74.2443 42.7599 74.2533 42.9297 74.2676 43.0931C74.2972 43.4317 74.3478 43.6743 74.4195 43.8209C74.5018 43.9549 74.5927 44.0528 74.6922 44.1147C74.8034 44.1756 74.9204 44.2359 75.0433 44.2957C75.1662 44.3556 75.2947 44.4796 75.4288 44.6678C75.4029 44.776 75.3464 44.8692 75.2591 44.9474C75.1825 45.0129 75.1064 45.0842 75.0308 45.1614C74.9659 45.2259 74.9078 45.3016 74.8566 45.3884C74.8054 45.4753 74.7922 45.594 74.8172 45.7448L74.7296 45.7524C74.5779 45.7657 74.434 45.8018 74.298 45.8608C74.162 45.9197 74.0181 45.9559 73.8663 45.9691C73.8313 45.9722 73.7958 45.9694 73.7597 45.9608C73.7247 45.9639 73.6897 45.9669 73.6546 45.97L73.4703 45.8803C73.4089 45.8503 73.349 45.8379 73.2906 45.843C73.2323 45.8481 73.1574 45.8665 73.0661 45.898C72.8567 45.3869 72.6807 44.8553 72.5383 44.3031C72.4076 43.7499 72.3187 43.2048 72.2717 42.6678C72.2666 42.6094 72.2732 42.55 72.2914 42.4896C72.3203 42.4165 72.365 42.3891 72.4254 42.4073L72.3963 42.0746C72.3646 41.7127 72.3632 41.3599 72.3919 41.0163C72.4313 40.6599 72.4347 40.295 72.402 39.9214C72.3928 39.8163 72.3778 39.7118 72.3569 39.6077C72.3477 39.5027 72.3332 39.4039 72.3134 39.3116C72.3544 39.108 72.3954 38.9044 72.4364 38.7009C72.488 38.4846 72.5042 38.2656 72.4848 38.0438C72.4766 37.9504 72.4494 37.841 72.4031 37.7156C72.4904 37.6374 72.5528 37.5437 72.5903 37.4346C72.6268 37.3138 72.6511 37.1881 72.6632 37.0577C72.6743 36.9155 72.68 36.7797 72.6805 36.6503C72.6809 36.5209 72.6824 36.4031 72.6849 36.297C72.7812 36.0533 72.8234 35.7967 72.8116 35.5272C72.7998 35.2577 72.8362 35.0016 72.9208 34.7589C72.9051 34.7132 72.8921 34.632 72.8819 34.5153C72.8614 34.2818 72.876 34.0452 72.9257 33.8056C72.9859 33.5533 73.1272 33.3527 73.3494 33.2039C73.5667 33.2672 73.8155 33.2866 74.0956 33.2621C74.3641 33.2386 74.6174 33.1753 74.8554 33.0721C74.9275 33.0893 74.9943 33.1129 75.0557 33.1428C75.1161 33.1611 75.177 33.1852 75.2385 33.2151C75.3105 33.2323 75.3826 33.2495 75.4547 33.2667C75.5258 33.2723 75.6075 33.2651 75.6999 33.2453C75.8462 33.5736 75.9756 33.9093 76.088 34.2524C76.212 34.5945 76.3132 34.9444 76.3916 35.3022C76.4282 35.4519 76.4483 35.6148 76.452 35.791C76.4673 35.9661 76.4933 36.1285 76.5299 36.2782C76.5497 36.3706 76.5866 36.4556 76.6404 36.5332C76.6932 36.5992 76.7471 36.6768 76.802 36.7661C76.8568 36.8555 76.901 36.9575 76.9346 37.0722C76.9798 37.1858 77.0043 37.3307 77.0079 37.5069C77.1629 37.7992 77.3285 38.0788 77.5048 38.3457C77.6917 38.5999 77.8903 38.8531 78.1006 39.1052C78.2087 39.131 78.3062 39.1696 78.393 39.2208C78.4788 39.2603 78.5385 39.3375 78.5721 39.4522C78.6772 39.443 78.7721 39.4523 78.8569 39.4802L79.1622 39.5417C79.5936 39.3628 79.9858 39.1403 80.339 38.8741C80.7038 38.6069 81.0892 38.3732 81.4952 38.173C81.9649 37.6261 82.36 37.0327 82.6805 36.393C82.9999 35.7416 83.3199 35.096 83.6403 34.4563L83.6066 34.071C83.6736 34.0299 83.7284 33.9839 83.771 33.9331C83.8243 33.8696 83.8907 33.8227 83.9704 33.7922C83.9698 33.6511 83.9873 33.5142 84.0227 33.3817C84.0689 33.2365 84.116 33.103 84.1641 32.9812C84.223 32.8466 84.2706 32.7189 84.3071 32.5981C84.3426 32.4656 84.3542 32.3293 84.3419 32.1892C84.3347 32.1075 84.3228 32.038 84.306 31.9806C84.4658 31.7902 84.6683 31.6843 84.9134 31.6628C85.1469 31.6424 85.3855 31.6803 85.6292 31.7766C85.8835 31.8603 86.1199 31.9396 86.3382 32.0146C86.4911 32.2835 86.6105 32.573 86.6965 32.8831C86.7931 33.1805 86.8674 33.4917 86.9193 33.8165C86.9713 34.1413 87.0115 34.4672 87.0401 34.7941L87.1489 36.0374C87.1454 36.1318 87.1165 36.2049 87.0622 36.2567C87.0186 36.2958 86.9887 36.3572 86.9725 36.441L86.9878 36.6161C86.9929 36.6745 86.9922 36.7334 86.9856 36.7927C87.0071 37.0379 87.0003 37.2973 86.9655 37.5709C86.9367 37.9146 86.891 38.2656 86.8282 38.624C86.7761 38.9697 86.7654 39.3176 86.796 39.6679C86.8072 39.7963 86.8243 39.9242 86.8472 40.0516C86.8701 40.179 86.9047 40.3053 86.951 40.4307C86.9018 40.5409 86.8844 40.6777 86.8987 40.8411C86.915 41.0279 86.9595 41.2005 87.0322 41.3588C87.1155 41.5044 87.2105 41.649 87.3172 41.7926C87.4806 41.7783 87.6435 41.7582 87.8059 41.7322C87.9684 41.7063 88.1371 41.6856 88.3122 41.6703C88.4757 41.656 88.629 41.6602 88.7721 41.683C88.9143 41.6941 89.0653 41.7397 89.2252 41.8198ZM98.2055 31.1175C98.2147 31.2226 98.1757 31.3142 98.0884 31.3924C98.0128 31.4696 97.9766 31.5257 97.9796 31.5607C97.9858 31.6308 98.002 31.6823 98.0285 31.7153C98.0538 31.7366 98.0681 31.7647 98.0711 31.7998L98.0788 31.8873C97.9723 32.0143 97.8959 32.1503 97.8498 32.2955C97.8027 32.4291 97.7683 32.5732 97.7465 32.7281C97.7237 32.8712 97.7015 33.0202 97.6797 33.175C97.6697 33.3289 97.6474 33.4778 97.613 33.622C97.5669 33.7672 97.5017 33.8964 97.4175 34.0097C97.3323 34.1112 97.2661 34.2288 97.219 34.3623C97.144 34.5806 97.0928 34.8027 97.0655 35.0286C97.0382 35.2545 96.9569 35.4675 96.8214 35.6675L96.8291 35.7551C96.8246 35.8378 96.8541 35.9058 96.9175 35.9591C96.7213 36.2704 96.5768 36.6359 96.4841 37.0557C96.3904 37.4639 96.3221 37.8934 96.2792 38.3441C96.2353 38.7832 96.2036 39.2271 96.184 39.6758C96.1634 40.1129 96.1276 40.5101 96.0765 40.8675C96.1573 41.1192 96.2663 41.3567 96.4035 41.58C96.5513 41.7906 96.6943 42.0133 96.8325 42.2483C97.0711 42.2862 97.3001 42.3485 97.5194 42.4352C97.7504 42.5209 97.9228 42.6763 98.0366 42.9017C98.0337 43.1372 97.9737 43.3248 97.8565 43.4644C97.7393 43.6041 97.5935 43.7521 97.4189 43.9085C97.2864 43.8731 97.1778 43.8414 97.093 43.8135C97.0092 43.7973 96.8867 43.8081 96.7253 43.8457C96.4881 43.69 96.2657 43.5683 96.0581 43.4806C95.8621 43.3919 95.677 43.2257 95.5028 42.9822C95.4764 42.9492 95.4398 42.9348 95.3931 42.9388L95.2355 42.9526C95.1649 42.8176 95.0821 42.6778 94.9871 42.5332C94.8911 42.3769 94.795 42.2207 94.699 42.0644C94.602 41.8964 94.5171 41.7333 94.4445 41.5749C94.3708 41.4049 94.3278 41.2499 94.3155 41.1098C94.2634 40.5144 94.2644 39.9203 94.3184 39.3274C94.383 38.7218 94.3888 38.1154 94.3357 37.5084L94.3204 37.3333C94.092 37.4121 93.8657 37.5142 93.6414 37.6397C93.4288 37.7642 93.2083 37.8658 92.9799 37.9446C92.9002 37.9751 92.8571 38.0201 92.8505 38.0794C92.844 38.1388 92.813 38.1886 92.7577 38.2287C92.642 38.2506 92.5321 38.272 92.4281 38.2929C92.323 38.3021 92.2238 38.3107 92.1304 38.3189C91.9319 38.3363 91.7213 38.3488 91.4984 38.3565C91.2863 38.3516 91.0726 38.3291 90.8573 38.2891C90.6421 38.2491 90.4365 38.1848 90.2405 38.0961C90.0562 38.0063 89.8868 37.8858 89.7324 37.7347C89.7101 37.7484 89.682 37.7626 89.648 37.7773C89.614 37.7921 89.5794 37.801 89.5444 37.804C89.5094 37.8071 89.4739 37.8043 89.4378 37.7957C89.4018 37.7871 89.3716 37.778 89.3472 37.7684C89.2426 37.6481 89.1544 37.5147 89.0828 37.368L88.8678 36.928C88.7962 36.7814 88.7192 36.6411 88.6369 36.5071C88.5546 36.3731 88.45 36.2529 88.323 36.1464C88.2696 35.9393 88.2342 35.7365 88.2169 35.5381C88.1985 35.3279 88.1981 35.1221 88.2158 34.9206C88.2218 34.7201 88.2453 34.518 88.2863 34.3145C88.2273 34.1785 88.1854 34.0351 88.1604 33.8844C88.1238 33.7346 88.0988 33.5839 88.0856 33.4321C88.0702 33.257 88.0719 33.0745 88.0906 32.8847C88.1093 32.6948 88.1528 32.5205 88.2213 32.3615C88.2887 32.191 88.3937 32.0465 88.5363 31.9281C88.6672 31.8108 88.8377 31.743 89.0478 31.7246C89.2813 31.7042 89.5029 31.7495 89.7126 31.8605C89.9213 31.9599 90.1246 32.0656 90.3226 32.1777C90.3582 32.3157 90.388 32.4543 90.4119 32.5934C90.4348 32.7208 90.4529 32.8603 90.4662 33.0121C90.4907 33.2923 90.4982 33.5798 90.4888 33.8748C90.4899 34.157 90.5033 34.444 90.5288 34.7359C90.5554 35.0394 90.6154 35.3224 90.7089 35.5847C90.8131 35.8344 90.9747 36.0673 91.1936 36.2834L91.2636 36.2773C91.356 36.2575 91.4392 36.2678 91.5134 36.3084C91.5875 36.349 91.6712 36.3652 91.7646 36.357C91.8464 36.3498 91.908 36.315 91.9496 36.2526C91.9902 36.1784 92.0455 36.1383 92.1155 36.1322C92.1856 36.1261 92.2391 36.1331 92.2762 36.1534C92.3133 36.1737 92.3435 36.1828 92.3668 36.1808C92.4952 36.1696 92.6371 36.1101 92.7923 36.0024C92.9476 35.8947 93.0435 35.7804 93.08 35.6596C93.1297 35.6906 93.1896 35.703 93.2597 35.6968C93.3531 35.6887 93.4381 35.6518 93.5147 35.5863C93.5913 35.5208 93.6938 35.4824 93.8222 35.4712C93.8923 35.465 93.912 35.4221 93.8815 35.3425C93.8617 35.2501 93.8799 35.1897 93.9363 35.1612C94.0712 35.0906 94.2159 34.9956 94.3701 34.8762C94.535 34.7442 94.669 34.6619 94.772 34.6293C94.8171 34.4724 94.8749 34.3262 94.9454 34.1907C95.0265 34.0424 95.1087 33.9058 95.1918 33.7809C95.2034 33.5093 95.2509 33.2464 95.3346 32.992C95.4182 32.7377 95.5076 32.4828 95.6029 32.2274C95.6982 31.9721 95.7877 31.7172 95.8713 31.4629C95.9549 31.2085 96.0025 30.9456 96.014 30.674C96.1312 30.5343 96.2182 30.3856 96.2749 30.2277C96.3434 30.0688 96.4001 29.9109 96.4452 29.754C96.5589 29.7088 96.7033 29.6785 96.8784 29.6632C97.0525 29.6362 97.2038 29.6171 97.3322 29.6058L97.6299 29.5798C97.671 29.6468 97.7233 29.7069 97.7868 29.7601L97.9773 29.9199C97.8865 30.0926 97.8482 30.2606 97.8625 30.424C97.8738 30.5525 97.9142 30.6783 97.9838 30.8016C98.0524 30.9133 98.1263 31.0185 98.2055 31.1175ZM119.754 31.5614C119.768 31.7249 119.777 31.8888 119.779 32.0533C119.782 32.2177 119.779 32.3827 119.77 32.5482C119.698 32.6721 119.626 32.7843 119.552 32.8848C119.489 32.9727 119.452 33.0818 119.44 33.2123C119.319 33.3169 119.185 33.4581 119.036 33.6358C118.898 33.8125 118.848 33.9816 118.886 34.143L118.641 34.1644C118.519 34.3868 118.371 34.5821 118.198 34.7502C118.024 34.9183 117.839 35.0816 117.641 35.2401L117.063 35.6964C116.876 35.8422 116.702 36.0103 116.543 36.2008C116.45 36.2206 116.376 36.2448 116.32 36.2732C116.263 36.3017 116.188 36.3141 116.093 36.3106C115.752 36.5758 115.39 36.8133 115.009 37.0231C114.639 37.2319 114.263 37.4413 113.882 37.6511C113.511 37.8482 113.141 38.0571 112.772 38.2775C112.403 38.498 112.054 38.7462 111.725 39.022C111.689 39.0134 111.642 39.0116 111.584 39.0167C111.479 39.0259 111.375 39.0526 111.273 39.0968C111.17 39.1294 111.066 39.1502 110.961 39.1594C110.914 39.1635 110.849 39.1633 110.767 39.1588C110.696 39.1532 110.642 39.1403 110.604 39.12C110.543 39.0901 110.486 39.0422 110.433 38.9762C110.38 38.9103 110.339 38.8374 110.308 38.7578C110.277 38.6664 110.251 38.5804 110.233 38.4997C110.214 38.419 110.202 38.3495 110.197 38.2911C110.191 38.221 110.19 38.1447 110.194 38.0619C110.199 37.9792 110.21 37.9018 110.227 37.8297C110.563 37.7767 110.894 37.6595 111.22 37.4781C111.557 37.2957 111.876 37.1207 112.179 36.953C112.258 36.9109 112.319 36.8644 112.361 36.8136C112.415 36.7501 112.469 36.6983 112.524 36.6582C112.578 36.6064 112.639 36.5599 112.706 36.5188C112.773 36.4776 112.859 36.4524 112.964 36.4432L113.017 36.4387C113.723 36.0358 114.408 35.6052 115.074 35.147C115.751 34.6878 116.422 34.2232 117.087 33.7534C117.113 33.6452 117.156 33.5356 117.217 33.4244C117.29 33.3121 117.357 33.2063 117.419 33.1068C117.48 32.9956 117.535 32.8849 117.584 32.7747C117.633 32.6645 117.653 32.5569 117.644 32.4518C117.625 32.2417 117.511 32.0753 117.3 31.9525L117.23 31.9587C117.09 31.9709 116.966 31.9641 116.858 31.9383C116.749 31.9008 116.646 31.8686 116.549 31.8418C116.452 31.8033 116.344 31.7774 116.225 31.7643C116.105 31.7395 115.97 31.7396 115.819 31.7645C115.757 31.7229 115.66 31.6902 115.528 31.6664C115.397 31.6426 115.29 31.6343 115.208 31.6415C114.788 31.6782 114.376 31.7437 113.973 31.8378C113.568 31.9203 113.162 31.9852 112.755 32.0326C112.655 32.1002 112.56 32.1614 112.471 32.2163C112.382 32.2711 112.273 32.3042 112.144 32.3154C112.086 32.3205 112.033 32.3251 111.987 32.3292C111.939 32.3216 111.885 32.3145 111.826 32.308C111.612 32.4208 111.368 32.5244 111.094 32.619C110.819 32.7019 110.546 32.8023 110.274 32.9202C110.012 33.0254 109.771 33.1524 109.548 33.3013C109.326 33.4501 109.161 33.641 109.052 33.8741C109.057 33.9325 109.073 33.984 109.1 34.0286C109.127 34.0616 109.143 34.1073 109.148 34.1657L109.154 34.2357C109.09 34.3119 109.05 34.3977 109.035 34.4931C109.019 34.5769 109.009 34.666 109.006 34.7604C109.001 34.8431 108.991 34.9322 108.976 35.0276C108.971 35.1104 108.938 35.1957 108.875 35.2835C108.937 35.4545 108.977 35.6451 108.995 35.8553C109.016 36.0887 109.019 36.3238 109.004 36.5603C109.001 36.7958 109.01 37.0303 109.03 37.2638C109.05 37.4856 109.091 37.6821 109.153 37.8531C109.089 37.9293 109.069 38.0369 109.093 38.1759C109.117 38.315 109.097 38.4226 109.033 38.4988C109.041 38.5922 109.07 38.6544 109.12 38.6853C109.181 38.7152 109.221 38.7705 109.24 38.8512C109.211 39.0538 109.206 39.2718 109.227 39.5053C109.256 39.8438 109.321 40.1851 109.422 40.5292C109.534 40.8723 109.658 41.2085 109.793 41.5379C109.974 41.4632 110.169 41.3991 110.376 41.3457C110.593 41.2796 110.802 41.2379 111 41.2205C111.035 41.2174 111.071 41.2202 111.107 41.2288C111.142 41.2258 111.177 41.2227 111.212 41.2196C111.246 41.346 111.303 41.4587 111.382 41.5576C111.462 41.6565 111.536 41.7677 111.606 41.891C111.554 41.9778 111.508 42.0466 111.465 42.0974C111.435 42.1588 111.424 42.2362 111.432 42.3296C111.27 42.3556 111.139 42.4082 111.04 42.4874C110.942 42.5784 110.833 42.6761 110.713 42.7808L110.643 42.7869C110.445 42.8042 110.284 42.8536 110.162 42.9348C110.041 43.0278 109.902 43.1281 109.747 43.2358C109.602 43.1897 109.459 43.1728 109.319 43.185C109.167 43.1983 109.018 43.2408 108.871 43.3124C108.678 43.247 108.515 43.1319 108.382 42.967C108.251 42.8138 108.136 42.6357 108.036 42.4327C107.937 42.2414 107.843 42.0437 107.755 41.8397C107.678 41.6347 107.591 41.4482 107.494 41.2802L107.469 41C107.446 40.7315 107.4 40.4767 107.332 40.2357C107.274 39.9819 107.234 39.7208 107.21 39.4523C107.201 39.3472 107.197 39.2358 107.199 39.118C107.212 38.9992 107.237 38.8853 107.275 38.7761C107.242 38.6731 107.222 38.5749 107.214 38.4815L107.185 38.1488C107.154 37.7986 107.135 37.4473 107.128 37.095C107.132 36.7417 107.119 36.39 107.088 36.0398C107.066 35.7829 107.025 35.5218 106.967 35.2564C106.91 35.2848 106.86 35.3128 106.815 35.3402C106.771 35.3676 106.719 35.3839 106.661 35.389C106.602 35.3941 106.544 35.3934 106.484 35.3868C106.436 35.3792 106.389 35.3716 106.341 35.364C106.215 35.2692 106.122 35.1479 106.062 35.0002C106.002 34.8526 105.926 34.7181 105.833 34.5968C105.813 34.375 105.833 34.191 105.89 34.0448C105.935 33.8879 106 33.747 106.083 33.6221C106.165 33.4855 106.248 33.3548 106.331 33.2299C106.426 33.1039 106.5 32.9503 106.555 32.7691L106.625 32.763C106.812 32.7466 106.994 32.6719 107.17 32.5388C107.346 32.3941 107.55 32.3115 107.784 32.2911C107.856 32.1788 107.959 32.0816 108.093 31.9993C108.226 31.9053 108.367 31.8283 108.514 31.7684C108.674 31.7074 108.829 31.6644 108.98 31.6394C109.141 31.6018 109.292 31.5768 109.432 31.5646C109.471 31.4788 109.537 31.4201 109.628 31.3886C109.718 31.3454 109.809 31.308 109.901 31.2765C110.003 31.2323 110.093 31.195 110.173 31.1645C110.263 31.1213 110.334 31.0563 110.385 30.9694C110.481 30.9846 110.569 30.9886 110.651 30.9815C110.803 30.9682 110.947 30.9379 111.084 30.8906C111.22 30.8317 111.356 30.7727 111.492 30.7138C111.627 30.6432 111.763 30.5784 111.899 30.5194C112.047 30.4594 112.202 30.4223 112.366 30.408C112.424 30.4029 112.483 30.4036 112.542 30.4102C112.601 30.4051 112.659 30.4 112.717 30.3949C112.811 30.3867 112.86 30.3471 112.866 30.276C112.883 30.2039 112.919 30.1478 112.975 30.1077C113.011 30.1163 113.075 30.1165 113.169 30.1083C113.402 30.0879 113.628 30.0505 113.847 29.9961C114.065 29.93 114.29 29.8867 114.524 29.8663C114.629 29.8571 114.734 29.8537 114.841 29.8562C114.947 29.8587 115.054 29.8787 115.163 29.9162C115.184 29.8791 115.204 29.8479 115.226 29.8225C115.247 29.7971 115.262 29.7664 115.271 29.7303C115.846 29.7153 116.393 29.7851 116.912 29.9396C117.443 30.0931 117.99 30.2218 118.552 30.3255C118.631 30.4245 118.721 30.5107 118.822 30.5843L119.141 30.8034C119.253 30.8759 119.359 30.949 119.46 31.0225C119.56 31.0961 119.651 31.1881 119.731 31.2987L119.754 31.5614ZM131.381 30.1383C131.32 30.2495 131.29 30.3698 131.289 30.4993C131.289 30.6287 131.293 30.746 131.302 30.851C131.315 30.9911 131.327 31.1312 131.339 31.2713C131.362 31.3987 131.379 31.5266 131.39 31.655L131.413 31.9177C131.397 32.0014 131.369 32.0862 131.33 32.172C131.29 32.2578 131.262 32.3426 131.246 32.4264C131.12 32.8726 131.077 33.3117 131.114 33.7437L131.117 33.7787C131.071 33.9239 131.024 34.0574 130.976 34.1793C130.94 34.3001 130.903 34.4209 130.867 34.5417C130.829 34.6509 130.804 34.7707 130.792 34.9011C130.779 35.0199 130.785 35.1605 130.811 35.323C130.684 35.7458 130.5 36.1383 130.262 36.5004C130.022 36.8507 129.789 37.2123 129.562 37.5849C129.325 37.6998 129.108 37.8423 128.912 38.0124C128.726 38.1816 128.549 38.3677 128.378 38.5708C128.026 38.7192 127.682 38.8846 127.345 39.067C127.008 39.2494 126.711 39.4813 126.453 39.7627C126.233 39.8054 126.015 39.8598 125.797 39.9259C125.579 39.992 125.369 40.081 125.167 40.1928L124.957 40.2111C124.852 40.2203 124.774 40.2036 124.724 40.161C124.579 40.256 124.426 40.3282 124.266 40.3775C124.105 40.4151 123.942 40.4411 123.779 40.4554C123.569 40.4738 123.358 40.4805 123.145 40.4755C122.944 40.4579 122.736 40.4407 122.523 40.4241C122.392 40.2709 122.218 40.1626 122.001 40.0993C121.782 40.0242 121.588 39.953 121.417 39.8856C121.038 39.4483 120.754 39.0203 120.564 38.6016C120.373 38.1713 120.172 37.6889 119.961 37.1545C119.97 36.989 119.997 36.8278 120.042 36.671C120.086 36.5024 120.094 36.3253 120.066 36.1395C120.223 35.5141 120.45 34.9414 120.745 34.4214C121.052 33.8888 121.407 33.3755 121.81 32.8813C121.804 32.8113 121.811 32.7519 121.83 32.7032C121.861 32.6534 121.861 32.5829 121.829 32.4915C121.842 32.5022 121.866 32.506 121.901 32.5029C121.994 32.4947 122.051 32.4663 122.07 32.4175C122.088 32.3571 122.088 32.2924 122.07 32.2234C122.467 31.9181 122.82 31.5755 123.128 31.1957C123.447 30.8148 123.818 30.4882 124.242 30.2159C124.267 30.1078 124.318 30.0152 124.394 29.938C124.469 29.8608 124.526 29.7734 124.565 29.676C124.929 29.5382 125.254 29.351 125.539 29.1143C125.824 28.8776 126.129 28.6627 126.453 28.4697C126.631 28.3483 126.8 28.2629 126.96 28.2136C127.131 28.1516 127.314 28.0885 127.508 28.0245C127.576 27.995 127.639 27.9719 127.696 27.9551C127.754 27.9383 127.817 27.9268 127.888 27.9207C128.098 27.9023 128.306 27.9253 128.511 27.9897C128.716 28.0423 128.923 28.0595 129.133 28.0411C129.192 28.036 129.238 28.0319 129.273 28.0289C129.319 28.0131 129.365 27.9973 129.41 27.9816C129.63 28.2094 129.898 28.3742 130.212 28.4761C130.298 28.645 130.393 28.7897 130.497 28.9099C130.614 29.0291 130.73 29.1483 130.846 29.2676C130.962 29.3751 131.067 29.5012 131.162 29.6458C131.267 29.7777 131.34 29.9419 131.381 30.1383ZM129.71 31.2021C129.705 31.1437 129.694 31.0917 129.678 31.046C129.559 31.0212 129.444 30.9842 129.333 30.9351C129.223 30.8859 129.104 30.8669 128.976 30.8781C128.894 30.8853 128.814 30.91 128.735 30.9521C128.716 30.8714 128.676 30.8161 128.615 30.7862C128.565 30.7553 128.504 30.7312 128.432 30.714C128.37 30.6841 128.304 30.6663 128.233 30.6608C128.173 30.6425 128.117 30.6121 128.066 30.5695C128.023 30.4792 127.974 30.3894 127.919 30.3C127.875 30.198 127.798 30.1283 127.689 30.0908C127.593 30.205 127.478 30.3033 127.344 30.3856C127.209 30.4563 127.069 30.5274 126.922 30.599C126.787 30.6697 126.653 30.752 126.52 30.8459C126.399 30.9389 126.297 31.0478 126.213 31.1727L125.898 31.2003C125.839 31.3349 125.749 31.4428 125.627 31.5241C125.503 31.5937 125.4 31.6909 125.317 31.8158C125.138 31.9256 124.973 32.0576 124.822 32.212C124.682 32.3537 124.542 32.5071 124.404 32.6721C124.264 32.8255 124.125 32.9847 123.987 33.1497C123.86 33.3138 123.72 33.4671 123.568 33.6098C123.445 33.95 123.301 34.2508 123.135 34.5123C122.981 34.7611 122.832 35.0152 122.69 35.2747C122.56 35.5331 122.449 35.8134 122.358 36.1155C122.277 36.4048 122.256 36.7596 122.292 37.1799L122.308 37.355C122.313 37.4134 122.324 37.4713 122.341 37.5286C122.507 37.6788 122.644 37.8432 122.754 38.0218C122.876 38.1994 123.057 38.3188 123.297 38.3801C123.539 38.4531 123.788 38.4725 124.043 38.4383C124.311 38.4032 124.57 38.4099 124.822 38.4585C125.373 38.3044 125.895 38.0881 126.388 37.8097C126.892 37.5186 127.363 37.1833 127.8 36.8039C127.865 36.7394 127.942 36.6739 128.03 36.6074C128.117 36.5292 128.187 36.4525 128.239 36.3773C128.292 36.3138 128.334 36.2455 128.362 36.1724C128.403 36.0983 128.444 36.03 128.486 35.9676C128.566 35.8076 128.658 35.6467 128.761 35.4847C128.864 35.3227 128.975 35.1719 129.092 35.0322C129.128 34.7703 129.182 34.5185 129.255 34.2769C129.327 34.0235 129.4 33.776 129.473 33.5344C129.546 33.2927 129.601 33.0468 129.638 32.7965C129.686 32.5452 129.699 32.2853 129.675 32.0168C129.67 31.9584 129.659 31.8948 129.641 31.8257C129.635 31.7557 129.623 31.692 129.606 31.6346C129.689 31.498 129.723 31.3539 129.71 31.2021ZM155.607 35.1652C155.599 35.3423 155.546 35.4822 155.449 35.5848C155.364 35.6864 155.261 35.7836 155.14 35.8766C155.08 35.87 155.021 35.8693 154.963 35.8744C154.915 35.8668 154.862 35.8656 154.804 35.8707C154.441 35.8907 154.101 35.9675 153.783 36.1011C153.477 36.2338 153.157 36.3383 152.822 36.4146C152.708 36.4481 152.598 36.4695 152.493 36.4787C152.398 36.4752 152.3 36.4897 152.197 36.5223C151.828 36.6133 151.435 36.6947 151.018 36.7665C150.601 36.8383 150.185 36.9218 149.769 37.0169C149.353 37.1004 148.944 37.2009 148.543 37.3183C148.152 37.4231 147.788 37.5609 147.45 37.7316C147.413 37.7113 147.376 37.691 147.339 37.6707C147.301 37.6388 147.258 37.6248 147.211 37.6289C147.095 37.6391 146.985 37.6664 146.883 37.7106C146.781 37.7548 146.677 37.7756 146.571 37.7732C146.461 37.8534 146.337 37.9172 146.2 37.9645C146.073 37.9991 145.941 38.0341 145.803 38.0698C145.676 38.0927 145.549 38.1272 145.424 38.1735C145.299 38.2198 145.182 38.2947 145.073 38.3983C144.976 38.3598 144.857 38.3466 144.717 38.3589C144.587 38.3585 144.496 38.3194 144.442 38.2418C144.185 38.3937 143.906 38.5004 143.605 38.562C143.316 38.6226 143.02 38.6603 142.715 38.6752C142.516 38.6809 142.286 38.6716 142.025 38.6474C141.764 38.6231 141.501 38.5814 141.237 38.5221C140.972 38.4512 140.724 38.3671 140.492 38.2698C140.259 38.1607 140.076 38.0238 139.944 37.8589C139.852 37.7493 139.783 37.626 139.735 37.489C139.688 37.3519 139.597 37.254 139.463 37.1952C139.474 36.9236 139.492 36.6574 139.516 36.3965C139.54 36.1356 139.564 35.8688 139.587 35.5962C139.803 35.3773 140.007 35.1478 140.198 34.9076C140.388 34.6674 140.566 34.4166 140.732 34.1551C140.944 34.0306 141.137 33.8843 141.311 33.7162C141.496 33.5471 141.675 33.3785 141.849 33.2103C142.033 33.0295 142.212 32.8551 142.385 32.687C142.571 32.5179 142.769 32.3652 142.981 32.2291C143.008 32.1443 143.05 32.076 143.104 32.0242C143.169 31.9597 143.234 31.901 143.3 31.8482C143.365 31.7837 143.424 31.7197 143.478 31.6562C143.53 31.5811 143.563 31.4958 143.579 31.4004C143.966 31.1195 144.295 30.7789 144.566 30.3788C144.836 29.9787 144.998 29.5411 145.051 29.0659C144.838 28.9198 144.601 28.8347 144.34 28.8105C144.09 28.7735 143.83 28.7551 143.559 28.7553C143.324 28.764 143.079 28.7855 142.823 28.8196C142.579 28.8528 142.328 28.8689 142.069 28.868C141.819 28.9722 141.555 29.0482 141.277 29.0961C141.011 29.1429 140.744 29.1898 140.478 29.2366C140.21 29.2718 139.945 29.3303 139.682 29.4121C139.429 29.4813 139.186 29.5967 138.953 29.7582C138.906 29.7623 138.859 29.7605 138.811 29.7529C138.775 29.7443 138.734 29.7421 138.687 29.7462C138.313 29.7672 137.969 29.8737 137.657 30.0657C137.343 30.2461 137.035 30.4259 136.733 30.6053C136.714 30.654 136.705 30.6901 136.707 30.7134C136.714 30.7835 136.731 30.8525 136.761 30.9205C136.801 30.9758 136.824 31.0385 136.83 31.1085C136.82 31.1212 136.815 31.1334 136.816 31.1451C136.817 31.1567 136.812 31.1689 136.801 31.1816C136.795 31.241 136.782 31.2951 136.763 31.3438C136.755 31.3915 136.742 31.4456 136.724 31.506C136.628 31.8908 136.59 32.2647 136.61 32.6276C136.625 32.9322 136.651 33.2298 136.688 33.5207C136.726 33.8115 136.752 34.1092 136.767 34.4137C136.776 34.7894 136.748 35.1447 136.683 35.4797C136.766 35.7548 136.845 36.0479 136.919 36.359C136.992 36.6585 137.077 36.9569 137.174 37.2543C137.27 37.5517 137.378 37.8422 137.497 38.1259C137.627 38.3969 137.784 38.6537 137.97 38.8962C137.961 38.9206 137.968 38.9376 137.992 38.9472C138.017 38.9568 138.041 38.9606 138.064 38.9586L138.204 38.9463C138.263 38.9412 138.288 38.9625 138.28 39.0102C138.307 39.0432 138.327 39.0767 138.342 39.1107C138.356 39.133 138.381 39.1543 138.418 39.1746C138.445 39.2076 138.449 39.2543 138.43 39.3147C138.439 39.5492 138.4 39.7703 138.312 39.978C138.224 40.1856 138.179 40.4072 138.176 40.6427C138.039 40.69 137.912 40.7187 137.795 40.729C137.596 40.7346 137.416 40.6916 137.255 40.5998C137.095 40.5197 136.945 40.4152 136.804 40.2864C136.663 40.1575 136.528 40.0281 136.399 39.8983C136.269 39.7567 136.13 39.6395 135.98 39.5467C135.87 39.227 135.757 38.8722 135.64 38.4825C135.536 38.0917 135.383 37.7638 135.184 37.499C135.221 37.3898 135.233 37.2594 135.22 37.1076C135.211 36.8731 135.168 36.6475 135.09 36.4308C135.023 36.2014 134.991 35.9689 134.994 35.7334C134.983 35.605 134.983 35.4756 134.995 35.3451C135.019 35.2136 135.031 35.0832 135.032 34.9537C135.026 34.7542 134.986 34.5637 134.911 34.382C134.848 34.1993 134.814 34.0082 134.808 33.8087C134.811 33.7143 134.821 33.6252 134.837 33.5414C134.864 33.445 134.904 33.3592 134.956 33.284C134.885 33.1491 134.856 33.0163 134.868 32.8859C134.863 32.6864 134.87 32.4976 134.889 32.3194C134.909 32.1412 134.917 31.9641 134.913 31.7879C134.905 31.6945 134.892 31.6075 134.873 31.5268C134.853 31.4344 134.828 31.3484 134.797 31.2687L134.635 31.23C134.565 31.2361 134.497 31.2597 134.43 31.3009C134.374 31.341 134.325 31.3865 134.283 31.4373C134.24 31.488 134.203 31.5325 134.171 31.5706C134.138 31.597 134.104 31.6117 134.069 31.6148C134.046 31.6168 134.016 31.6194 133.981 31.6224C133.957 31.6128 133.933 31.609 133.91 31.611C133.886 31.6131 133.842 31.6405 133.776 31.6933C133.722 31.7451 133.65 31.8043 133.562 31.8709C133.484 31.9247 133.407 31.9844 133.331 32.0499C133.253 32.1038 133.191 32.1386 133.146 32.1543C133.015 32.1422 132.907 32.1105 132.82 32.0593C132.744 31.9954 132.668 31.9373 132.593 31.8851C132.528 31.8201 132.459 31.7674 132.385 31.7268C132.31 31.6746 132.22 31.6589 132.116 31.6798C132.075 31.6128 132.051 31.5384 132.044 31.4567C132.025 31.376 132.018 31.2943 132.022 31.2115L131.998 30.9314C132.066 30.7725 132.166 30.6402 132.298 30.5345C132.417 30.4182 132.55 30.3184 132.695 30.2351L133.132 29.9851C133.278 29.9018 133.41 29.802 133.53 29.6857L133.687 29.6719C133.898 29.6652 134.076 29.6085 134.219 29.5018C134.375 29.3941 134.517 29.2758 134.647 29.1468C134.776 29.0061 134.905 28.8654 135.034 28.7248C135.174 28.5831 135.329 28.4695 135.498 28.3842C135.631 28.4313 135.77 28.4721 135.914 28.5065C136.058 28.5293 136.206 28.5399 136.358 28.5383C136.51 28.525 136.666 28.4879 136.825 28.4269C136.984 28.3659 137.105 28.2671 137.187 28.1305C137.248 28.1487 137.296 28.1622 137.332 28.1708C137.379 28.1667 137.431 28.1621 137.49 28.157C137.666 28.1534 137.839 28.1147 138.009 28.041C138.178 27.9556 138.34 27.8591 138.495 27.7514C138.73 27.7427 138.956 27.7111 139.175 27.6566C139.404 27.5895 139.628 27.5229 139.846 27.4568C140.075 27.3897 140.299 27.3289 140.518 27.2745C140.747 27.2073 140.979 27.1694 141.214 27.1607C141.6 27.1386 141.976 27.0704 142.343 26.956C142.709 26.8416 143.086 26.7792 143.473 26.7689C143.743 26.757 144.008 26.7574 144.268 26.77C144.538 26.7698 144.807 26.7522 145.075 26.717C145.232 26.7738 145.372 26.8262 145.494 26.8744C145.627 26.9099 145.785 26.9077 145.97 26.868C146.371 27.1506 146.742 27.4887 147.082 27.8824L147.108 28.1801C147.12 28.4496 147.096 28.7164 147.037 28.9804C146.978 29.2443 146.901 29.5098 146.807 29.7769C146.723 30.0312 146.628 30.2866 146.521 30.543C146.413 30.7877 146.311 31.0319 146.215 31.2756C145.516 32.0308 144.817 32.7801 144.117 33.5236C143.418 34.2671 142.693 34.9893 141.942 35.6902C141.929 35.8089 141.903 35.9171 141.865 36.0145C141.838 36.111 141.823 36.2123 141.821 36.3184C141.826 36.3767 141.836 36.4229 141.851 36.4569C141.934 36.4731 142.009 36.5137 142.073 36.5786C142.148 36.6309 142.179 36.7106 142.165 36.8177L142.322 36.8039C142.381 36.7988 142.412 36.8196 142.416 36.8663L142.698 36.8593C143.143 36.8438 143.586 36.7933 144.025 36.7078C144.465 36.6223 144.904 36.5309 145.342 36.4338C145.793 36.3356 146.237 36.2437 146.677 36.1582C147.115 36.061 147.556 35.9872 147.999 35.9367C148.101 35.8925 148.209 35.8536 148.324 35.82C148.438 35.7865 148.539 35.7306 148.627 35.6524L148.679 35.6478C148.761 35.6406 148.821 35.6589 148.86 35.7025C148.911 35.7451 148.978 35.7687 149.061 35.7732C149.119 35.7681 149.176 35.7513 149.233 35.7229C149.301 35.6934 149.369 35.6697 149.438 35.6519C149.598 35.5909 149.764 35.5469 149.938 35.5199C150.124 35.4919 150.304 35.4586 150.477 35.4199C151.149 35.3023 151.817 35.2086 152.481 35.1387C153.145 35.0571 153.802 34.9113 154.455 34.7013C154.52 34.778 154.607 34.8292 154.715 34.855C154.822 34.8692 154.936 34.8887 155.055 34.9135C155.174 34.9266 155.282 34.9466 155.378 34.9734C155.486 34.9993 155.563 35.0632 155.607 35.1652ZM164.642 26.0991C164.609 26.2549 164.545 26.4017 164.451 26.5393L164.186 26.933C164.102 27.058 164.032 27.1935 163.974 27.3397C163.927 27.4733 163.923 27.6266 163.962 27.7996C163.938 27.8017 163.909 27.8042 163.874 27.8073C163.838 27.7987 163.808 27.7954 163.785 27.7974C163.598 27.8138 163.456 27.8732 163.359 27.9758C163.273 28.0657 163.151 28.147 162.992 28.2197C162.963 28.1517 162.928 28.09 162.888 28.0347C162.847 27.9677 162.79 27.9256 162.718 27.9084C162.443 27.9913 162.167 28.0625 161.89 28.122C161.612 28.1699 161.335 28.2294 161.059 28.3006C160.932 28.3352 160.807 28.3815 160.683 28.4394C160.557 28.4857 160.426 28.5324 160.289 28.5797C160.221 28.6092 160.146 28.6275 160.064 28.6347C159.982 28.6301 159.9 28.6373 159.819 28.6561C159.54 28.6923 159.239 28.7422 158.915 28.8058C158.59 28.8578 158.306 28.9708 158.062 29.1451C157.943 29.1319 157.819 29.1252 157.69 29.1247C157.56 29.1243 157.431 29.1297 157.303 29.1409C157.023 29.1654 156.716 29.2217 156.383 29.3097C156.06 29.385 155.777 29.5097 155.533 29.684C155.473 29.6657 155.407 29.6538 155.336 29.6483C155.277 29.6417 155.206 29.642 155.124 29.6492C155.101 29.6512 155.084 29.6586 155.073 29.6713C155.062 29.6723 155.044 29.6738 155.021 29.6759C155.018 29.7819 155.039 29.886 155.083 29.988C155.138 30.0773 155.221 30.1465 155.331 30.1957C155.295 30.3282 155.284 30.4704 155.298 30.6221C155.315 30.8206 155.344 31.018 155.385 31.2144C155.437 31.4098 155.472 31.6068 155.489 31.8052C155.509 32.027 155.495 32.2047 155.448 32.3382C155.595 32.6782 155.686 33.0467 155.721 33.4436C155.733 33.5837 155.734 33.7248 155.723 33.867C155.722 33.9964 155.729 34.137 155.742 34.2888C155.753 34.4172 155.809 34.5182 155.91 34.5917C156.009 34.6536 156.064 34.7487 156.076 34.8771C156.08 34.9238 156.072 34.9716 156.053 35.0203C156.213 34.971 156.367 34.9105 156.513 34.8388C156.659 34.7555 156.814 34.7067 156.977 34.6924C157.07 34.6842 157.16 34.6941 157.244 34.722C157.341 34.7488 157.427 34.7884 157.502 34.8406C157.495 34.9 157.489 34.9652 157.484 35.0363C157.49 35.1063 157.496 35.1764 157.502 35.2464C157.513 35.3748 157.524 35.4974 157.534 35.6142C157.555 35.7182 157.577 35.8339 157.6 35.9613C157.521 36.1329 157.423 36.2886 157.305 36.4282C157.2 36.5668 157.132 36.7374 157.103 36.94C156.928 36.9553 156.774 37.0099 156.641 37.1039C156.519 37.1852 156.403 37.2776 156.295 37.3812C156.185 37.4732 156.076 37.5651 155.966 37.657C155.855 37.7373 155.73 37.7836 155.59 37.7958C155.415 37.8111 155.29 37.7985 155.216 37.7579C155.141 37.7057 155.083 37.6519 155.043 37.5966C155.003 37.5413 154.963 37.4918 154.924 37.4482C154.897 37.4036 154.837 37.3911 154.745 37.411C154.708 37.2613 154.649 37.1253 154.568 37.003C154.485 36.869 154.398 36.7414 154.305 36.6201C154.224 36.4979 154.136 36.3761 154.044 36.2548C153.961 36.1208 153.896 35.9854 153.849 35.8483C153.753 35.5509 153.696 35.2383 153.679 34.9104C153.662 34.5825 153.582 34.2719 153.439 33.9786C153.448 33.8131 153.451 33.6481 153.448 33.4837C153.445 33.3075 153.436 33.1377 153.421 32.9743C153.393 32.6474 153.353 32.3274 153.302 32.0142C153.262 31.6884 153.221 31.3567 153.18 31.0192C153.089 30.9212 153.026 30.8091 152.991 30.6827C152.967 30.5437 152.944 30.4104 152.921 30.283C152.883 30.2511 152.839 30.2196 152.789 30.1887C152.751 30.1567 152.724 30.1121 152.707 30.0547C152.612 30.0396 152.541 30.034 152.494 30.0381C152.33 30.0524 152.194 30.1055 152.084 30.1974C151.985 30.2767 151.889 30.3204 151.796 30.3285C151.702 30.3367 151.614 30.3327 151.53 30.3165C151.446 30.3003 151.364 30.2958 151.282 30.3029C151.212 30.3091 151.172 30.3301 151.164 30.3662C151.166 30.3895 151.145 30.4149 151.1 30.4424C151.067 30.4688 150.987 30.4993 150.861 30.5339C150.735 30.5684 150.591 30.6046 150.429 30.6422C150.279 30.6672 150.128 30.6921 149.977 30.7171C149.838 30.741 149.745 30.755 149.698 30.7591C149.512 30.7754 149.368 30.7527 149.269 30.6908C149.157 30.6183 149.026 30.5414 148.878 30.4603C148.895 30.3882 148.903 30.3405 148.901 30.3171C148.891 30.2004 148.848 30.1101 148.771 30.0461C148.694 29.9706 148.653 29.9036 148.648 29.8452C148.637 29.7168 148.681 29.613 148.779 29.5337C148.867 29.4555 148.91 29.34 148.908 29.1872C149.166 29.047 149.433 28.9354 149.708 28.8525C149.983 28.7697 150.265 28.6979 150.554 28.6374C150.843 28.5768 151.125 28.511 151.401 28.4397C151.689 28.3675 151.968 28.2666 152.239 28.137C152.322 28.1416 152.399 28.1466 152.47 28.1521C152.552 28.145 152.633 28.1378 152.715 28.1307C153.065 28.1 153.407 28.0349 153.739 27.9352C154.082 27.8229 154.435 27.7509 154.797 27.7192C154.89 27.711 154.984 27.7087 155.078 27.7122C155.173 27.7157 155.268 27.725 155.363 27.7402C155.824 27.6293 156.278 27.5131 156.727 27.3915C157.186 27.269 157.659 27.157 158.144 27.0558C158.376 27.012 158.602 26.9746 158.822 26.9435C159.054 26.8997 159.285 26.8501 159.515 26.7947C159.596 26.7758 159.653 26.7532 159.686 26.7268C159.729 26.6877 159.747 26.6214 159.739 26.528C159.848 26.5656 159.967 26.5787 160.095 26.5675C160.294 26.5501 160.483 26.4982 160.664 26.4118C160.845 26.3254 161.034 26.2736 161.233 26.2562C161.279 26.2521 161.321 26.2544 161.357 26.263C161.392 26.2599 161.427 26.2569 161.462 26.2538C161.544 26.2466 161.581 26.2081 161.575 26.138C161.58 26.0553 161.633 25.9976 161.737 25.9651C161.816 25.9346 161.931 25.9069 162.082 25.8819C162.233 25.857 162.389 25.8315 162.552 25.8055C162.725 25.7669 162.881 25.7297 163.019 25.6941C163.167 25.6458 163.274 25.5894 163.339 25.5249L163.445 25.3216C163.656 25.3149 163.816 25.395 163.925 25.5619C164.044 25.7162 164.118 25.892 164.147 26.0894C164.198 26.1321 164.264 26.1498 164.346 26.1426C164.438 26.1228 164.519 26.1098 164.59 26.1037L164.642 26.0991ZM176.65 24.9956C176.656 25.0656 176.626 25.127 176.56 25.1799C176.506 25.2317 176.44 25.2845 176.363 25.3383C176.297 25.3912 176.225 25.4503 176.149 25.5159C176.084 25.5804 176.043 25.6545 176.027 25.7383L175.869 25.752C175.799 25.7582 175.766 25.7846 175.77 25.8313L175.718 25.8359C175.613 25.8451 175.54 25.822 175.5 25.7667C175.459 25.6997 175.38 25.6713 175.263 25.6816C174.971 25.7071 174.68 25.7385 174.389 25.7757C174.109 25.8002 173.824 25.831 173.533 25.8682C172.727 25.9387 171.936 26.0374 171.159 26.1642C170.392 26.2783 169.642 26.5086 168.908 26.8552C168.885 26.8689 168.857 26.8773 168.822 26.8803C168.763 26.8855 168.726 26.8652 168.711 26.8195C168.706 26.7728 168.675 26.752 168.617 26.7571C168.453 26.7714 168.303 26.8022 168.166 26.8495C168.029 26.8968 167.879 26.9334 167.717 26.9594C167.545 27.1391 167.34 27.2923 167.104 27.4188C166.88 27.5443 166.644 27.6708 166.396 27.7983C166.159 27.9132 165.929 28.0392 165.706 28.1764C165.482 28.3019 165.29 28.4598 165.13 28.6502C165.166 28.7883 165.195 28.9269 165.219 29.0659C165.254 29.1923 165.277 29.3197 165.288 29.4481C165.332 29.9501 165.329 30.4503 165.278 30.9488C165.227 31.4356 165.222 31.9242 165.265 32.4145L165.288 32.6772C165.295 32.7589 165.309 32.8459 165.329 32.9383C165.357 32.9946 165.402 33.0319 165.462 33.0502C165.533 33.0557 165.593 33.074 165.643 33.1049C165.786 32.9865 165.93 32.8915 166.077 32.8199C166.234 32.7356 166.392 32.657 166.55 32.5844C166.719 32.499 166.877 32.4205 167.024 32.3489C167.181 32.2645 167.332 32.169 167.475 32.0623L167.966 32.0194C168.086 31.9148 168.232 31.8315 168.403 31.7695C168.574 31.7075 168.681 31.5922 168.725 31.4236C168.751 31.4449 168.775 31.4546 168.798 31.4525L168.868 31.4464C169.008 31.4341 169.146 31.3927 169.281 31.3221C169.428 31.2504 169.574 31.1788 169.721 31.1071C169.867 31.0238 170.013 30.9463 170.159 30.8747C170.306 30.803 170.461 30.76 170.625 30.7457C170.66 30.7427 170.689 30.746 170.714 30.7556C170.749 30.7525 170.784 30.7495 170.819 30.7464C170.878 30.6235 170.97 30.5273 171.093 30.4577C171.216 30.3764 171.345 30.3063 171.481 30.2473C171.617 30.1884 171.753 30.1294 171.889 30.0705C172.036 30.0105 172.16 29.9409 172.259 29.8617L172.329 29.8555C172.399 29.8494 172.453 29.8623 172.491 29.8943C172.54 29.9135 172.594 29.9323 172.655 29.9505C172.963 29.7118 173.287 29.5776 173.625 29.548C173.974 29.5057 174.334 29.4507 174.705 29.383C174.799 29.5159 174.879 29.6265 174.946 29.7148C175.023 29.7904 175.069 29.9099 175.083 30.0734C175.09 30.1551 175.089 30.214 175.081 30.25C174.956 30.3079 174.861 30.3575 174.794 30.3986L174.61 30.5206C174.554 30.549 174.486 30.5785 174.406 30.609C174.326 30.6278 174.209 30.6439 174.058 30.6571C173.964 30.6653 173.926 30.6981 173.943 30.7554C173.958 30.8011 173.932 30.8328 173.863 30.8506C173.704 30.9233 173.545 30.9843 173.385 31.0336C173.224 31.0829 173.065 31.1439 172.907 31.2166C172.577 31.3513 172.249 31.4977 171.922 31.6557C171.605 31.801 171.275 31.924 170.93 32.0247C170.659 32.2837 170.361 32.5039 170.035 32.6853C169.709 32.855 169.369 33.0024 169.015 33.1275C168.655 33.4414 168.298 33.7372 167.946 34.0151C167.593 34.2812 167.19 34.5165 166.737 34.7207C166.684 34.7842 166.619 34.8429 166.541 34.8967C166.463 34.9506 166.417 35.0252 166.402 35.1207C166.378 35.1227 166.349 35.1253 166.314 35.1283C166.29 35.1187 166.26 35.1154 166.225 35.1185C166.062 35.1328 165.937 35.1849 165.851 35.2748C165.775 35.3519 165.674 35.4078 165.548 35.4424C165.505 35.6226 165.489 35.777 165.5 35.9054C165.514 36.0688 165.556 36.2122 165.626 36.3355C165.695 36.4588 165.776 36.5752 165.868 36.6848C165.972 36.7934 166.075 36.902 166.179 37.0106C166.293 37.1064 166.391 37.2155 166.472 37.3378C166.461 37.4799 166.424 37.5949 166.361 37.6828C166.311 37.7813 166.248 37.8691 166.173 37.9463C166.098 38.0352 166.023 38.124 165.949 38.2129C165.886 38.3008 165.843 38.4104 165.819 38.5419C165.612 38.5953 165.409 38.6307 165.211 38.6481C165.082 38.6593 164.946 38.6535 164.803 38.6308C164.673 38.6187 164.546 38.5827 164.423 38.5228C164.214 38.2824 164.056 38.0198 163.948 37.7351C163.853 37.4493 163.728 37.1662 163.574 36.8855L163.581 36.7614C163.559 36.5046 163.492 36.2869 163.383 36.1083C163.284 35.9169 163.138 35.7297 162.945 35.5466C162.955 35.5222 162.957 35.4808 162.952 35.4225C162.939 35.2707 162.88 35.1347 162.775 35.0145C162.775 34.7439 162.827 34.5276 162.93 34.3657C163.045 34.2027 163.171 34.0211 163.306 33.8211L163.288 33.6109C163.244 33.1089 163.242 32.6151 163.282 32.1293C163.332 31.6308 163.336 31.1364 163.293 30.6461C163.266 30.3425 163.22 30.0761 163.152 29.8467C163.116 29.8381 163.069 29.8363 163.011 29.8414C162.952 29.8465 162.907 29.8681 162.875 29.9062C162.842 29.9326 162.816 29.9644 162.795 30.0014C162.775 30.0385 162.749 30.0761 162.717 30.1142C162.697 30.1512 162.658 30.1781 162.601 30.1949C162.399 30.1773 162.263 30.0951 162.191 29.9485C162.119 29.8018 162.075 29.6351 162.059 29.4483C162.05 29.3432 162.046 29.2376 162.049 29.1316C162.051 29.0255 162.053 28.9135 162.055 28.7958C162.455 28.2667 162.947 27.7649 163.529 27.2905C164.111 26.8161 164.694 26.4239 165.279 26.114C165.313 26.0992 165.353 26.0898 165.4 26.0857C165.446 26.0816 165.488 26.0897 165.525 26.11C165.561 26.1186 165.603 26.1209 165.649 26.1168C165.684 26.1138 165.713 26.0995 165.734 26.0741C165.851 26.0639 165.929 26.0218 165.97 25.9476C166.01 25.8735 166.069 25.7978 166.144 25.7206C166.231 25.7719 166.304 25.7949 166.362 25.7898C166.479 25.7796 166.591 25.7168 166.698 25.6016C166.806 25.4863 166.929 25.4108 167.067 25.3752C167.596 25.2349 168.114 25.113 168.623 25.0097C169.143 24.9054 169.651 24.7257 170.146 24.4706C170.268 24.5188 170.388 24.5436 170.505 24.545C170.623 24.5465 170.741 24.5421 170.857 24.5319C170.986 24.5207 171.125 24.4967 171.274 24.4601C171.435 24.4108 171.557 24.3295 171.641 24.2163C172.019 24.2303 172.417 24.2131 172.837 24.1646C173.268 24.1152 173.694 24.0837 174.117 24.0703C174.551 24.0558 174.97 24.078 175.375 24.1366C175.78 24.1953 176.145 24.3339 176.47 24.5525C176.501 24.6322 176.537 24.7055 176.578 24.7725C176.619 24.8395 176.643 24.9138 176.65 24.9956ZM186.804 25.2894C186.743 25.4006 186.713 25.5209 186.712 25.6504C186.712 25.7798 186.716 25.8971 186.725 26.0021C186.738 26.1422 186.75 26.2823 186.762 26.4224C186.785 26.5498 186.802 26.6777 186.813 26.8061L186.836 27.0688C186.82 27.1526 186.792 27.2373 186.753 27.3231C186.713 27.4089 186.685 27.4937 186.669 27.5775C186.544 28.0237 186.5 28.4628 186.537 28.8948L186.54 28.9298C186.494 29.075 186.447 29.2085 186.399 29.3304C186.363 29.4512 186.326 29.572 186.29 29.6928C186.252 29.802 186.227 29.9218 186.215 30.0523C186.202 30.171 186.208 30.3116 186.234 30.4741C186.107 30.897 185.923 31.2894 185.685 31.6515C185.445 32.0018 185.212 32.3634 184.985 32.7361C184.748 32.8509 184.532 32.9934 184.335 33.1635C184.149 33.3327 183.972 33.5188 183.801 33.7219C183.45 33.8703 183.105 34.0357 182.768 34.2181C182.431 34.4005 182.134 34.6324 181.876 34.9138C181.657 34.9565 181.438 35.0109 181.22 35.077C181.002 35.1431 180.792 35.2321 180.591 35.3439L180.38 35.3623C180.275 35.3714 180.197 35.3547 180.147 35.3121C180.002 35.4071 179.85 35.4793 179.689 35.5286C179.528 35.5662 179.365 35.5922 179.202 35.6065C178.992 35.6249 178.781 35.6316 178.568 35.6267C178.367 35.609 178.16 35.5918 177.946 35.5752C177.815 35.422 177.641 35.3137 177.424 35.2504C177.206 35.1754 177.011 35.1041 176.84 35.0367C176.461 34.5994 176.177 34.1714 175.987 33.7527C175.796 33.3224 175.595 32.84 175.384 32.3056C175.393 32.1401 175.42 31.979 175.465 31.8221C175.509 31.6535 175.517 31.4764 175.489 31.2906C175.646 30.6652 175.873 30.0925 176.168 29.5726C176.475 29.0399 176.83 28.5266 177.233 28.0325C177.227 27.9624 177.234 27.903 177.253 27.8543C177.284 27.8045 177.284 27.734 177.252 27.6426C177.265 27.6533 177.289 27.6571 177.324 27.654C177.417 27.6458 177.474 27.6174 177.493 27.5686C177.511 27.5082 177.511 27.4435 177.494 27.3745C177.89 27.0692 178.243 26.7266 178.551 26.3468C178.87 25.9659 179.242 25.6394 179.665 25.3671C179.691 25.2589 179.741 25.1663 179.817 25.0891C179.892 25.0119 179.95 24.9245 179.988 24.8271C180.352 24.6893 180.677 24.5021 180.962 24.2654C181.247 24.0287 181.552 23.8138 181.876 23.6208C182.054 23.4994 182.223 23.414 182.383 23.3647C182.554 23.3027 182.737 23.2396 182.931 23.1756C182.999 23.1461 183.062 23.123 183.119 23.1062C183.177 23.0894 183.241 23.0779 183.311 23.0718C183.521 23.0534 183.729 23.0764 183.934 23.1408C184.139 23.1935 184.346 23.2106 184.556 23.1922C184.615 23.1871 184.661 23.183 184.696 23.18C184.742 23.1642 184.788 23.1484 184.833 23.1327C185.053 23.3605 185.321 23.5253 185.635 23.6272C185.721 23.7962 185.816 23.9408 185.92 24.061C186.037 24.1802 186.153 24.2995 186.269 24.4187C186.385 24.5262 186.49 24.6523 186.585 24.7969C186.69 24.9288 186.764 25.093 186.804 25.2894ZM185.133 26.3532C185.128 26.2949 185.117 26.2428 185.102 26.1972C184.982 26.1723 184.867 26.1353 184.757 26.0862C184.646 26.037 184.527 26.018 184.399 26.0293C184.317 26.0364 184.237 26.0611 184.158 26.1032C184.139 26.0225 184.099 25.9672 184.038 25.9373C183.988 25.9064 183.927 25.8823 183.855 25.8651C183.794 25.8352 183.727 25.8174 183.656 25.8119C183.596 25.7936 183.54 25.7632 183.489 25.7206C183.446 25.6303 183.397 25.5405 183.342 25.4512C183.298 25.3492 183.221 25.2794 183.112 25.2419C183.016 25.3562 182.901 25.4544 182.767 25.5367C182.633 25.6074 182.492 25.6785 182.345 25.7501C182.21 25.8208 182.076 25.9031 181.943 25.9971C181.822 26.09 181.72 26.1989 181.636 26.3239L181.321 26.3514C181.262 26.486 181.172 26.5939 181.05 26.6752C180.926 26.7448 180.823 26.842 180.74 26.9669C180.561 27.0767 180.396 27.2087 180.245 27.3631C180.105 27.5048 179.965 27.6582 179.827 27.8232C179.687 27.9766 179.548 28.1358 179.41 28.3008C179.283 28.4649 179.143 28.6182 178.991 28.7609C178.868 29.1011 178.724 29.4019 178.558 29.6634C178.404 29.9122 178.255 30.1664 178.113 30.4258C177.983 30.6842 177.872 30.9645 177.781 31.2666C177.701 31.5559 177.679 31.9108 177.715 32.331L177.731 32.5061C177.736 32.5645 177.747 32.6224 177.764 32.6797C177.93 32.8299 178.068 32.9943 178.177 33.1729C178.299 33.3505 178.48 33.4699 178.72 33.5312C178.962 33.6042 179.211 33.6236 179.467 33.5894C179.734 33.5543 179.993 33.561 180.245 33.6096C180.796 33.4555 181.318 33.2392 181.811 32.9608C182.315 32.6697 182.786 32.3344 183.223 31.955C183.288 31.8905 183.365 31.825 183.453 31.7585C183.54 31.6803 183.61 31.6036 183.662 31.5284C183.716 31.4649 183.757 31.3967 183.785 31.3235C183.826 31.2494 183.867 31.1811 183.909 31.1187C183.989 30.9587 184.081 30.7978 184.184 30.6358C184.288 30.4738 184.398 30.323 184.515 30.1834C184.551 29.9214 184.605 29.6696 184.678 29.428C184.75 29.1746 184.823 28.9271 184.896 28.6855C184.969 28.4438 185.024 28.1979 185.061 27.9476C185.109 27.6963 185.122 27.4364 185.098 27.1679C185.093 27.1096 185.082 27.0459 185.064 26.9768C185.058 26.9068 185.046 26.8431 185.029 26.7857C185.112 26.6492 185.146 26.505 185.133 26.3532ZM198.049 29.9874C198.061 30.1158 198.023 30.2191 197.935 30.2973C197.847 30.3639 197.808 30.4497 197.817 30.5547C197.821 30.6014 197.849 30.6578 197.902 30.7237C197.739 30.738 197.632 30.8003 197.583 30.9104C197.534 31.0206 197.486 31.1425 197.439 31.276L197.211 31.2959C197.153 31.301 197.107 31.3168 197.074 31.3432C197.041 31.3696 197.009 31.4077 196.978 31.4574C196.958 31.4945 196.928 31.5559 196.888 31.6417C196.671 31.7078 196.461 31.8026 196.26 31.9261C196.07 32.0368 195.881 32.1593 195.693 32.2934C195.515 32.4148 195.332 32.5425 195.144 32.6766C194.955 32.7991 194.758 32.9045 194.554 32.9929C194.464 33.1772 194.325 33.3306 194.135 33.453L194.083 33.4576C194.026 33.4744 193.973 33.4732 193.924 33.4539C193.886 33.4219 193.837 33.4085 193.779 33.4136C193.744 33.4167 193.721 33.4246 193.711 33.4373C193.381 33.7014 193 33.8523 192.568 33.8901C192.451 33.9003 192.34 33.9042 192.234 33.9017C192.127 33.8876 192.015 33.8856 191.898 33.8958C191.863 33.8989 191.841 33.9126 191.831 33.937L191.802 34.0101C191.792 34.0344 191.777 34.0593 191.756 34.0847C191.746 34.1091 191.706 34.1243 191.636 34.1305C191.508 34.1417 191.378 34.1354 191.246 34.1116C191.115 34.0878 190.98 34.0938 190.842 34.1294C190.56 34.0011 190.337 33.8735 190.173 33.7467C190.009 33.6199 189.851 33.422 189.698 33.1531C189.628 33.0298 189.536 32.9144 189.421 32.8068C189.317 32.6982 189.236 32.576 189.177 32.4399C189.161 32.3943 189.136 32.3141 189.103 32.1994C189.068 32.073 189.033 31.9408 188.997 31.8028C188.962 31.6647 188.927 31.5325 188.892 31.4061C188.869 31.2787 188.856 31.1917 188.852 31.145C188.839 31.0049 188.834 30.8701 188.834 30.7407C188.845 30.5986 188.856 30.4564 188.867 30.3143C188.898 29.8646 188.906 29.4169 188.891 28.9712C188.886 28.5128 188.947 28.0664 189.074 27.6318C189.039 27.5054 189.017 27.3839 189.007 27.2671L188.973 26.8819C188.953 26.6601 188.908 26.4758 188.836 26.3292C188.916 26.1693 188.948 25.9959 188.932 25.8091C188.913 25.599 188.815 25.484 188.637 25.4643L188.632 25.4118C188.611 25.1667 188.512 24.9812 188.337 24.8554C188.301 24.4468 188.374 24.1346 188.555 23.9188C188.747 23.6902 189.005 23.4853 189.33 23.3039C189.371 23.2298 189.383 23.1699 189.367 23.1242C189.451 23.1404 189.529 23.1571 189.601 23.1743C189.673 23.1915 189.744 23.1971 189.814 23.191C189.931 23.1808 190.035 23.154 190.125 23.1109C190.172 23.2479 190.268 23.3278 190.411 23.3505C190.565 23.3606 190.69 23.3849 190.788 23.4234L190.808 23.6511C190.839 24.013 190.957 24.3497 191.161 24.6613C191.122 24.7587 191.102 24.8605 191.099 24.9666C191.097 25.0727 191.099 25.1724 191.108 25.2658C191.12 25.4059 191.138 25.5455 191.162 25.6846C191.186 25.8236 191.203 25.9574 191.215 26.0858C191.227 26.2259 191.222 26.3675 191.199 26.5107C191.188 26.6528 191.134 26.781 191.038 26.8953C191.04 27.048 191.044 27.2242 191.049 27.4237C191.066 27.6104 191.071 27.8041 191.065 28.0046C191.071 28.2041 191.058 28.3993 191.028 28.5901C190.998 28.781 190.941 28.9389 190.858 29.0638C190.861 29.2399 190.865 29.4219 190.87 29.6097C190.885 29.7848 190.9 29.9541 190.915 30.1175C190.937 30.3744 190.975 30.6769 191.029 31.0251C191.095 31.3722 191.202 31.6569 191.351 31.8792C191.418 31.9675 191.535 32.0278 191.702 32.0602C191.881 32.0916 192.023 32.1027 192.128 32.0935C192.257 32.0822 192.384 32.0535 192.509 32.0072C192.645 31.9483 192.738 31.8637 192.787 31.7535C192.858 31.7591 192.908 31.79 192.936 31.8464C192.965 31.9027 193.01 31.9458 193.071 31.9757C193.712 31.6373 194.354 31.3106 194.997 30.9956C195.64 30.6805 196.267 30.3256 196.88 29.9309C196.977 29.9694 197.079 29.9841 197.184 29.9749C197.301 29.9647 197.416 29.9428 197.531 29.9092C197.646 29.8757 197.761 29.8538 197.878 29.8436L198.001 29.8328C198.03 29.9008 198.046 29.9524 198.049 29.9874ZM201.893 31.7685C201.843 31.867 201.781 31.9607 201.706 32.0496C201.63 32.1268 201.561 32.2093 201.498 32.2972C201.42 32.3393 201.328 32.365 201.223 32.3742C201.129 32.3824 201.036 32.3905 200.943 32.3987C200.86 32.3942 200.778 32.4013 200.697 32.4202C200.627 32.4263 200.571 32.4547 200.528 32.5055C200.433 32.4903 200.359 32.4556 200.308 32.4013C200.255 32.3354 200.169 32.3017 200.052 32.3002C200.004 32.2926 199.957 32.2967 199.912 32.3125C199.719 32.1293 199.537 31.9335 199.366 31.7249C199.207 31.5154 199.054 31.317 198.908 31.1298C198.859 30.6989 198.785 30.2641 198.688 29.8256C198.667 29.7216 198.641 29.618 198.608 29.515C198.576 29.412 198.549 29.3143 198.53 29.2219C198.519 29.1052 198.515 28.9938 198.518 28.8877C198.531 28.7689 198.539 28.6623 198.543 28.5679C198.56 28.2252 198.583 27.8879 198.613 27.556C198.643 27.224 198.666 26.8867 198.683 26.544C198.704 26.2364 198.699 25.9192 198.671 25.5923C198.641 25.2537 198.561 24.9431 198.43 24.6605L198.405 24.5744C198.42 24.479 198.437 24.4011 198.455 24.3407C198.484 24.2676 198.501 24.1896 198.505 24.1069C198.518 23.9764 198.48 23.8856 198.393 23.8344C198.42 23.7379 198.474 23.6744 198.553 23.6439C198.632 23.6018 198.672 23.5276 198.675 23.4216C198.683 23.3738 198.678 23.3271 198.663 23.2815C198.753 23.2383 198.844 23.2009 198.935 23.1694C199.037 23.1252 199.136 23.1107 199.231 23.1258C199.385 23.1359 199.524 23.1767 199.648 23.2482C199.771 23.308 199.889 23.3801 200.002 23.4643C200.238 24.0083 200.366 24.597 200.386 25.2305C200.405 25.8523 200.401 26.482 200.375 27.1195C200.348 27.7571 200.35 28.3804 200.38 28.9895C200.408 29.5869 200.55 30.1333 200.805 30.6285L200.842 30.643C200.901 30.6496 200.946 30.628 200.977 30.5782C201.007 30.5168 201.052 30.4893 201.111 30.4959C201.16 30.5152 201.19 30.5243 201.202 30.5233C201.269 30.7527 201.364 30.9678 201.488 31.1688C201.611 31.3697 201.746 31.5696 201.893 31.7685ZM213.964 22.9132C213.903 23.0244 213.873 23.1448 213.872 23.2742C213.872 23.4036 213.876 23.5209 213.885 23.626C213.898 23.766 213.91 23.9061 213.922 24.0462C213.945 24.1736 213.962 24.3015 213.973 24.4299L213.996 24.6926C213.98 24.7764 213.952 24.8612 213.913 24.947C213.873 25.0328 213.845 25.1175 213.829 25.2013C213.703 25.6475 213.66 26.0866 213.697 26.5186L213.7 26.5536C213.654 26.6988 213.607 26.8323 213.559 26.9542C213.523 27.075 213.486 27.1958 213.45 27.3167C213.412 27.4258 213.387 27.5456 213.375 27.6761C213.362 27.7949 213.368 27.9355 213.394 28.0979C213.267 28.5208 213.083 28.9132 212.845 29.2753C212.605 29.6256 212.372 29.9872 212.145 30.3599C211.908 30.4747 211.691 30.6172 211.495 30.7874C211.309 30.9565 211.132 31.1426 210.961 31.3457C210.609 31.4941 210.265 31.6595 209.928 31.842C209.591 32.0244 209.294 32.2562 209.036 32.5376C208.816 32.5803 208.598 32.6348 208.38 32.7009C208.162 32.767 207.952 32.8559 207.75 32.9677L207.54 32.9861C207.435 32.9953 207.357 32.9785 207.307 32.9359C207.162 33.0309 207.009 33.1031 206.849 33.1524C206.688 33.1901 206.525 33.216 206.362 33.2303C206.152 33.2487 205.941 33.2554 205.728 33.2505C205.527 33.2328 205.319 33.2157 205.106 33.199C204.975 33.0458 204.801 32.9375 204.584 32.8742C204.365 32.7992 204.171 32.728 204 32.6605C203.621 32.2232 203.337 31.7952 203.147 31.3765C202.956 30.9462 202.755 30.4638 202.544 29.9294C202.553 29.7639 202.58 29.6028 202.625 29.4459C202.669 29.2774 202.677 29.1002 202.649 28.9144C202.806 28.289 203.033 27.7163 203.328 27.1964C203.635 26.6637 203.99 26.1504 204.393 25.6563C204.387 25.5862 204.394 25.5268 204.413 25.4781C204.444 25.4283 204.444 25.3578 204.412 25.2664C204.425 25.2771 204.449 25.2809 204.484 25.2778C204.577 25.2696 204.634 25.2412 204.653 25.1924C204.671 25.132 204.671 25.0673 204.653 24.9983C205.05 24.693 205.403 24.3505 205.71 23.9706C206.03 23.5897 206.401 23.2632 206.825 22.9909C206.85 22.8827 206.901 22.7901 206.977 22.7129C207.052 22.6357 207.109 22.5484 207.148 22.4509C207.512 22.3131 207.837 22.1259 208.122 21.8892C208.407 21.6525 208.712 21.4376 209.036 21.2446C209.214 21.1232 209.383 21.0378 209.543 20.9885C209.714 20.9265 209.897 20.8634 210.091 20.7994C210.159 20.7699 210.222 20.7468 210.279 20.73C210.337 20.7132 210.4 20.7018 210.471 20.6956C210.681 20.6772 210.889 20.7002 211.094 20.7646C211.299 20.8173 211.506 20.8344 211.716 20.816C211.775 20.8109 211.821 20.8068 211.856 20.8038C211.902 20.788 211.948 20.7723 211.993 20.7565C212.213 20.9843 212.481 21.1491 212.795 21.251C212.881 21.42 212.976 21.5646 213.08 21.6848C213.197 21.804 213.313 21.9233 213.429 22.0425C213.545 22.15 213.65 22.2761 213.745 22.4207C213.85 22.5527 213.923 22.7168 213.964 22.9132ZM212.293 23.977C212.288 23.9187 212.277 23.8666 212.261 23.821C212.142 23.7962 212.027 23.7592 211.916 23.71C211.806 23.6608 211.687 23.6418 211.559 23.6531C211.477 23.6602 211.397 23.6849 211.318 23.7271C211.299 23.6464 211.259 23.591 211.198 23.5611C211.148 23.5302 211.087 23.5061 211.015 23.4889C210.953 23.459 210.887 23.4412 210.816 23.4357C210.756 23.4175 210.7 23.387 210.649 23.3444C210.606 23.2541 210.557 23.1643 210.502 23.075C210.458 22.973 210.381 22.9032 210.272 22.8657C210.176 22.98 210.061 23.0782 209.927 23.1605C209.792 23.2312 209.652 23.3023 209.505 23.374C209.37 23.4446 209.236 23.5269 209.103 23.6209C208.982 23.7138 208.88 23.8228 208.796 23.9477L208.481 23.9752C208.422 24.1098 208.332 24.2177 208.21 24.299C208.086 24.3686 207.983 24.4658 207.9 24.5908C207.721 24.7005 207.556 24.8326 207.405 24.9869C207.265 25.1286 207.125 25.282 206.987 25.447C206.847 25.6004 206.708 25.7596 206.57 25.9247C206.443 26.0887 206.303 26.242 206.151 26.3848C206.028 26.7249 205.884 27.0257 205.718 27.2872C205.564 27.536 205.415 27.7902 205.273 28.0496C205.143 28.3081 205.032 28.5883 204.941 28.8904C204.86 29.1798 204.839 29.5346 204.875 29.9548L204.891 30.13C204.896 30.1883 204.907 30.2462 204.924 30.3035C205.09 30.4537 205.227 30.6181 205.337 30.7967C205.459 30.9743 205.64 31.0937 205.88 31.155C206.122 31.228 206.371 31.2474 206.626 31.2133C206.894 31.1781 207.153 31.1848 207.405 31.2334C207.956 31.0793 208.478 30.8631 208.971 30.5846C209.475 30.2935 209.946 29.9583 210.383 29.5789C210.448 29.5144 210.525 29.4488 210.613 29.3823C210.7 29.3041 210.77 29.2274 210.822 29.1522C210.875 29.0888 210.917 29.0205 210.945 28.9474C210.986 28.8732 211.027 28.8049 211.069 28.7425C211.149 28.5825 211.241 28.4216 211.344 28.2596C211.447 28.0976 211.558 27.9468 211.675 27.8072C211.711 27.5452 211.765 27.2934 211.838 27.0518C211.91 26.7985 211.983 26.551 212.056 26.3093C212.129 26.0677 212.184 25.8217 212.22 25.5714C212.269 25.3201 212.282 25.0603 212.258 24.7917C212.253 24.7334 212.242 24.6697 212.224 24.6007C212.218 24.5306 212.206 24.4669 212.189 24.4096C212.272 24.273 212.306 24.1288 212.293 23.977Z" fill="#0B0B0B"/>
<path d="M254.979 39.1666L262.609 21.7568L255.562 24.322C251.061 11.9569 241.138 12.279 232.385 15.4648C238.253 17.3704 241.88 19.6244 244.99 28.1697L237.942 30.7349L254.979 39.1666Z" stroke="#0B0B0B" stroke-width="2" stroke-linejoin="round"/>
</svg>
