<svg width="276" height="68" viewBox="0 0 276 68" fill="none" xmlns="http://www.w3.org/2000/svg">
<path d="M21.2823 50.9816C21.2905 51.075 21.261 51.1422 21.1941 51.1834C21.1388 51.2235 21.1342 51.3062 21.1805 51.4316C21.0881 51.4514 21.0105 51.5053 20.9476 51.5931C20.8847 51.681 20.8065 51.729 20.7132 51.7372C20.6548 51.7423 20.6055 51.7172 20.5654 51.6619C20.5492 51.7456 20.5076 51.8081 20.4406 51.8492C20.3853 51.8894 20.3237 51.9242 20.2557 51.9536C20.1877 51.9831 20.1202 52.0184 20.0532 52.0596C19.9862 52.1007 19.9441 52.1574 19.9269 52.2294L19.8393 52.2371C19.6993 52.2494 19.5935 52.3174 19.5219 52.4413C19.4621 52.5642 19.3797 52.6302 19.2746 52.6394C19.2396 52.6425 19.2157 52.6387 19.203 52.628C19.1457 52.6448 19.1254 52.6819 19.1422 52.7392C19.16 52.8083 19.1465 52.8565 19.1019 52.8839L19.0143 52.8916C18.7108 52.9181 18.4071 53.0094 18.1031 53.1654C17.7991 53.3214 17.4909 53.4954 17.1783 53.6874C16.8774 53.8785 16.5638 54.0588 16.2375 54.2285C15.9239 54.4089 15.5998 54.5372 15.2654 54.6135C15.2015 54.6897 15.1185 54.7499 15.0165 54.7941C14.9272 54.849 14.8252 54.8932 14.7105 54.9268C14.5958 54.9603 14.4811 54.9939 14.3664 55.0275C14.2644 55.0717 14.1756 55.1324 14.1 55.2096C13.8102 55.2584 13.5229 55.3365 13.2382 55.4438C12.9535 55.551 12.6683 55.6524 12.3826 55.748C12.1096 55.8542 11.8233 55.944 11.5239 56.0172C11.2371 56.1011 10.941 56.1447 10.6354 56.1479C10.5481 56.2261 10.4477 56.2879 10.334 56.3331C10.233 56.389 10.1389 56.456 10.0516 56.5342C9.56685 56.5061 9.08361 56.4954 8.60191 56.5023C8.13188 56.5081 7.6636 56.4667 7.19707 56.3781C7.19401 56.3431 7.18029 56.3208 7.15592 56.3112C7.13155 56.3015 7.10134 56.2924 7.0653 56.2838C7.04195 56.2858 7.01758 56.2762 6.99219 56.2549C6.96782 56.2453 6.96527 56.2161 6.98453 56.1673C6.88253 56.2116 6.79067 56.2372 6.70895 56.2444C6.59221 56.2546 6.47291 56.2356 6.35106 56.1875C6.24089 56.1383 6.11853 56.0843 5.98399 56.0255C5.86112 55.9657 5.73241 55.9063 5.59786 55.8475C5.46434 55.8004 5.3217 55.7835 5.16993 55.7967C5.06837 55.7115 4.97264 55.6258 4.88275 55.5395C4.80454 55.4523 4.74179 55.3401 4.69451 55.2031C4.64679 55.1955 4.59426 55.2001 4.53691 55.2169C4.49124 55.2327 4.45089 55.2421 4.41586 55.2451C4.34582 55.2513 4.30875 55.231 4.30467 55.1843C4.04419 55.0306 3.85274 54.8592 3.73031 54.6699C3.60788 54.4806 3.47122 54.2632 3.32033 54.0176C3.27816 53.9389 3.22534 53.873 3.16186 53.8197C3.11108 53.7771 3.07095 53.7218 3.04147 53.6538C2.98456 53.5411 2.94465 53.4211 2.92174 53.2937C2.89883 53.1663 2.87643 53.0448 2.85455 52.929C2.84331 52.8006 2.81508 52.6796 2.76984 52.5659C2.73526 52.4395 2.67251 52.3274 2.5816 52.2295C2.56613 51.7838 2.57402 51.3361 2.60525 50.8864C2.64816 50.4356 2.70858 49.9833 2.78651 49.5295C2.81584 49.3269 2.85152 49.1297 2.89355 48.9378C2.93558 48.7459 2.97126 48.5487 3.0006 48.3461C3.00614 48.2751 3.01957 48.2268 3.04088 48.2015C3.07283 48.1634 3.09998 48.1375 3.1223 48.1237L3.18775 48.0651C3.20906 48.0397 3.2235 48.0031 3.23109 47.9554L3.31909 47.3478C3.37878 46.9544 3.46868 46.5701 3.58878 46.1949C3.70888 45.8197 3.88407 45.4691 4.11435 45.1431C4.11216 44.8492 4.15237 44.5693 4.23497 44.3032C4.32822 44.0245 4.43416 43.7565 4.5528 43.499C4.67042 43.23 4.78855 42.9667 4.9072 42.7093C5.02584 42.4519 5.11376 42.1795 5.17097 41.8922L5.15039 41.8587C5.14631 41.812 5.16761 41.7866 5.21431 41.7825C5.27166 41.7657 5.31201 41.7563 5.33536 41.7543C5.33069 41.5665 5.35776 41.4053 5.41657 41.2708C5.48603 41.1235 5.55652 40.988 5.62802 40.8641C5.7112 40.7391 5.7822 40.6094 5.84101 40.4749C5.91047 40.3276 5.94287 40.1601 5.9382 39.9723C6.14877 39.8245 6.32177 39.6505 6.45719 39.4505C6.60327 39.2377 6.73767 39.026 6.8604 38.8153C6.99378 38.5919 7.13401 38.3796 7.28111 38.1785C7.42719 37.9658 7.61186 37.7908 7.83513 37.6536C7.88737 37.5785 7.8962 37.4777 7.86162 37.3513C8.20002 37.0512 8.55266 36.7792 8.91952 36.5353C9.28639 36.2915 9.62684 36.0147 9.94087 35.7049L10.5713 35.6497C10.7128 35.5197 10.877 35.4465 11.0638 35.4302C11.2039 35.4179 11.3407 35.4354 11.4742 35.4825C11.6194 35.5286 11.7539 35.5874 11.8778 35.6589C12.0124 35.7177 12.1474 35.7824 12.283 35.8529C12.4175 35.9117 12.5506 35.953 12.682 35.9768C12.8258 36.1406 12.9312 36.3373 12.9983 36.5667C13.0761 36.7834 13.1529 36.9884 13.2286 37.1818C13.1511 37.5062 13.1155 37.8386 13.1218 38.1792C13.127 38.5082 13.1147 38.8386 13.085 39.1706C13.0114 39.2711 12.9506 39.3823 12.9024 39.5042C12.8532 39.6144 12.7987 39.7309 12.7389 39.8537C12.6897 39.9639 12.6347 40.0746 12.5739 40.1858C12.512 40.2853 12.4252 40.3694 12.3136 40.438C12.2498 40.7847 12.1274 41.066 11.9463 41.2818C11.7652 41.4976 11.593 41.7479 11.4297 42.0328C11.2648 42.1648 11.0831 42.2396 10.8847 42.2569C10.7212 42.2712 10.5722 42.249 10.4377 42.1902C10.3021 42.1197 10.1767 42.0307 10.0614 41.9231C9.94511 41.8039 9.84581 41.6773 9.76351 41.5433C9.69186 41.3967 9.63239 41.2548 9.58512 41.1178C9.64539 40.8655 9.75542 40.6441 9.91521 40.4537C10.0867 40.2622 10.2581 40.0708 10.4296 39.8793C10.6011 39.6879 10.7482 39.4868 10.8709 39.2761C10.9936 39.0654 11.0427 38.8199 11.0182 38.5397C11.0162 38.5164 11.0083 38.4935 10.9946 38.4712C10.9925 38.4479 10.9905 38.4245 10.9885 38.4012C10.9844 38.3545 10.9983 38.3121 11.0303 38.274C11.0622 38.2359 11.0947 38.2037 11.1277 38.1772L11.2251 38.0805C11.257 38.0424 11.271 38 11.2669 37.9533C11.2628 37.9066 11.2354 37.862 11.1846 37.8194C10.744 37.8932 10.4121 37.9987 10.1888 38.1359C9.97725 38.272 9.81338 38.4157 9.69722 38.5671C9.58106 38.7184 9.47657 38.8687 9.38376 39.018C9.3016 39.1546 9.16968 39.2602 8.988 39.3349C8.96115 39.4314 8.91577 39.5177 8.85185 39.5939C8.79859 39.6574 8.74 39.7272 8.67608 39.8034C8.61114 39.8679 8.55306 39.9435 8.50184 40.0303C8.46229 40.1161 8.44179 40.2179 8.44033 40.3357L8.12513 40.3633C8.08762 40.4724 8.02677 40.5836 7.94257 40.6969C7.86902 40.7974 7.78963 40.8985 7.70441 41C7.63086 41.1006 7.56417 41.2123 7.50434 41.3351C7.45516 41.4453 7.44787 41.5636 7.48245 41.69C7.35812 41.7479 7.26553 41.8325 7.20468 41.9436C7.1555 42.0538 7.0756 42.149 6.96499 42.2293L6.97418 42.3344C6.98235 42.4278 6.9725 42.5168 6.94463 42.6016C6.91675 42.6864 6.91858 42.7745 6.9501 42.8658C6.82124 43.0065 6.73047 43.1791 6.67779 43.3837C6.63576 43.5756 6.58687 43.7563 6.53113 43.9259C6.37484 44.0219 6.27364 44.1425 6.22752 44.2877C6.18141 44.4329 6.16652 44.5989 6.18286 44.7857C6.02307 44.9761 5.88334 45.1942 5.76368 45.44C5.64402 45.6857 5.53654 45.9363 5.44125 46.1916C5.35763 46.446 5.28036 46.7057 5.20943 46.9707C5.13851 47.2357 5.06022 47.4837 4.97456 47.7147L5.01899 48.2225C4.87189 48.4236 4.77455 48.6556 4.72698 48.9186C4.69006 49.1688 4.61607 49.3988 4.50502 49.6085C4.4929 49.739 4.49246 49.8684 4.5037 49.9968C4.52661 50.1242 4.54368 50.2521 4.55491 50.3805C4.56717 50.5206 4.56826 50.6676 4.55819 50.8214C4.54812 50.9752 4.51952 51.1188 4.47238 51.2524C4.5344 51.4234 4.58781 51.6305 4.6326 51.8736C4.67638 52.105 4.73818 52.3408 4.818 52.5808C4.89679 52.8092 4.99741 53.018 5.11984 53.2073C5.24125 53.3849 5.40425 53.5 5.60884 53.5527C5.678 53.8054 5.80576 53.9884 5.99211 54.1015C6.19115 54.2252 6.41099 54.3177 6.65162 54.379C6.89225 54.4403 7.1377 54.4894 7.38796 54.5263C7.63925 54.5749 7.86288 54.6436 8.05886 54.7323C8.12584 54.6912 8.20603 54.6665 8.29942 54.6583C8.39281 54.6502 8.47556 54.6547 8.54764 54.6719C8.6314 54.6881 8.721 54.7038 8.81644 54.719C8.97783 54.6813 9.17527 54.6523 9.40876 54.6319C9.65391 54.6104 9.89805 54.5773 10.1412 54.5325C10.3853 54.4994 10.6104 54.4503 10.8164 54.3852C11.0225 54.3201 11.1841 54.2177 11.3013 54.0781C11.383 54.0709 11.4376 54.0897 11.465 54.1343C11.5041 54.178 11.5645 54.1962 11.6463 54.1891C11.728 54.1819 11.8485 54.1478 12.0079 54.0869C12.1682 54.0375 12.3334 53.976 12.5034 53.9023C12.6745 53.8403 12.8333 53.7735 12.98 53.7018C13.1383 53.6292 13.2504 53.5664 13.3164 53.5136C13.3524 53.5222 13.388 53.525 13.423 53.5219L13.5456 53.5112C13.709 53.4969 13.8582 53.4544 13.9932 53.3838C14.1282 53.3132 14.2784 53.2824 14.4439 53.2914C14.9574 52.9759 15.4798 52.695 16.0112 52.4485C16.5552 52.2127 17.1066 51.9939 17.6653 51.7921C17.7262 51.6809 17.8013 51.5978 17.8906 51.543C17.9916 51.4871 18.0994 51.4424 18.2141 51.4088C18.3278 51.3636 18.4425 51.33 18.5582 51.3081C18.6729 51.2746 18.7812 51.2357 18.8832 51.1915C18.9502 51.1503 19.005 51.1043 19.0476 51.0536C19.1009 50.9901 19.1669 50.9373 19.2455 50.8951C19.3242 50.8529 19.4097 50.8219 19.502 50.8021C19.6061 50.7812 19.7043 50.7608 19.7967 50.741C19.8997 50.7084 19.9905 50.6711 20.0692 50.6289C20.1595 50.5857 20.2303 50.5207 20.2815 50.4339C20.4511 50.4896 20.6212 50.5512 20.7918 50.6186C20.974 50.685 21.1302 50.789 21.2602 50.9306L21.2823 50.9816ZM28.937 43.0773C28.9005 43.1981 28.8635 43.3131 28.826 43.4223C28.7885 43.5314 28.7637 43.6512 28.7516 43.7817C28.6749 43.8472 28.5856 43.9021 28.4836 43.9463C28.3923 43.9778 28.2956 44.0157 28.1936 44.0599C28.0906 44.0924 27.9944 44.1361 27.9051 44.191C27.8264 44.2332 27.7673 44.2972 27.7278 44.383C27.7081 44.5611 27.7049 44.7261 27.7182 44.8779C27.7355 45.0763 27.7854 45.2426 27.8677 45.3765C27.8418 45.4846 27.8282 45.5976 27.8267 45.7154C27.8253 45.8331 27.8291 45.9445 27.8383 46.0496C27.872 46.4348 27.9524 46.816 28.0795 47.1931C28.2056 47.5585 28.2913 47.9333 28.3367 48.3175C28.3418 48.3759 28.3416 48.4406 28.336 48.5117C28.3305 48.5828 28.3303 48.6475 28.3354 48.7058C28.3568 48.951 28.4645 49.1063 28.6585 49.1716C28.6285 49.2331 28.6156 49.2871 28.6197 49.3338C28.6279 49.4272 28.6467 49.5079 28.6762 49.5759C28.7057 49.6439 28.7181 49.7193 28.7136 49.802C28.7822 49.9137 28.8498 50.0136 28.9163 50.1019C28.9818 50.1785 29.0319 50.28 29.0665 50.4064C28.999 50.577 28.9131 50.7374 28.8086 50.8877C28.7031 51.0264 28.6357 51.197 28.6063 51.3995C28.5586 51.3919 28.5056 51.3907 28.4472 51.3958C28.3655 51.4029 28.3028 51.4261 28.2592 51.4652C28.2155 51.5043 28.1783 51.5487 28.1473 51.5985C28.1291 51.6589 28.1045 51.714 28.0736 51.7637C28.0436 51.8252 28.0005 51.8701 27.9442 51.8986L27.8917 51.9032C27.8343 51.9199 27.7813 51.9187 27.7325 51.8994C27.6965 51.8908 27.6609 51.8881 27.6259 51.8911C27.6026 51.8932 27.5569 51.9089 27.4889 51.9384C27.3853 51.8298 27.3088 51.6954 27.2595 51.535C27.2112 51.3863 27.1804 51.2361 27.1671 51.0843C27.1528 50.9209 27.1634 50.7729 27.1989 50.6404C27.0613 50.5465 26.9658 50.3961 26.9124 50.189C26.8706 49.9809 26.8261 49.8084 26.7788 49.6713C26.6477 49.2476 26.5 48.837 26.3358 48.4396C26.1833 48.0413 26.0765 47.6271 26.0154 47.1972C25.9894 47.0348 25.9698 46.8777 25.9565 46.726L25.8768 45.8154C25.8636 45.6636 25.8566 45.5172 25.8561 45.3761C25.8469 45.271 25.844 45.1712 25.8475 45.0768C25.8617 44.9697 25.8642 44.8636 25.855 44.7586C25.8427 44.6185 25.7843 44.4883 25.6796 44.3681C24.8538 44.4756 24.0791 44.6963 23.3555 45.0302C22.6425 45.3514 21.934 45.7251 21.2302 46.1513C21.207 46.4239 21.2008 46.6891 21.2116 46.947C21.2224 47.2048 21.2396 47.468 21.2631 47.7365L21.3305 48.507C21.356 48.7989 21.3891 49.043 21.4298 49.2394C21.5178 49.5729 21.7101 49.8207 22.0066 49.983C22.3138 50.1326 22.6174 50.2413 22.9174 50.3092C22.921 50.4853 22.8993 50.6401 22.8522 50.7736C22.804 50.8955 22.7378 51.013 22.6536 51.1263C22.5801 51.2268 22.4949 51.3284 22.398 51.431C22.3011 51.5335 22.2052 51.6478 22.1103 51.7737C22.0118 51.7235 21.9149 51.6908 21.8194 51.6757C21.724 51.6605 21.6237 51.6575 21.5187 51.6667C21.4126 51.6642 21.3065 51.6617 21.2004 51.6592C21.0943 51.6568 20.9872 51.6426 20.8791 51.6168L20.4479 51.1251C20.3041 50.9613 20.1487 50.7984 19.9816 50.6366L19.9678 50.479C19.9403 50.1638 19.8553 49.8654 19.7131 49.5837C19.5708 49.3021 19.4572 49.012 19.3723 48.7136C19.3981 48.6055 19.4123 48.4984 19.4147 48.3923C19.4172 48.2862 19.4134 48.1748 19.4031 48.058C19.3827 47.8246 19.3511 47.5979 19.3084 47.3782C19.2773 47.1574 19.2637 46.9351 19.2677 46.7112L19.1801 46.7189C19.075 46.7281 18.9667 46.767 18.8551 46.8355C18.7424 46.8924 18.6308 46.961 18.5201 47.0413C18.4202 47.1089 18.3202 47.1764 18.2203 47.244C18.131 47.2988 18.0513 47.3293 17.9812 47.3355C17.9462 47.3385 17.9107 47.3358 17.8746 47.3272C17.8386 47.3185 17.7972 47.3163 17.7505 47.3204C17.6922 47.3255 17.6242 47.3549 17.5465 47.4088C17.4689 47.4626 17.3859 47.5228 17.2976 47.5894C17.1967 47.6453 17.0957 47.7012 16.9947 47.757C16.8937 47.8129 16.7907 47.8455 16.6856 47.8547C16.5222 47.869 16.3526 47.8132 16.1769 47.6874C16.1454 47.5961 16.1319 47.509 16.1364 47.4263C16.1293 47.3446 16.1216 47.257 16.1134 47.1636C16.1053 47.0702 16.0791 46.9725 16.0349 46.8705C16.1033 46.7116 16.204 46.5852 16.3369 46.4912C16.4572 46.3866 16.5901 46.2926 16.7358 46.2093C16.8687 46.1153 17.008 46.0266 17.1536 45.9433C17.2982 45.8483 17.4175 45.732 17.5113 45.5944L17.6164 45.5852C17.7798 45.5709 17.9227 45.5231 18.045 45.4419C18.1789 45.3596 18.334 45.3166 18.5101 45.3129C18.5664 45.2845 18.5996 45.1933 18.6097 45.0395L18.6813 45.0509C18.9381 45.0285 19.1581 44.921 19.3412 44.7285C19.4063 43.9935 19.4476 43.2546 19.4649 42.512C19.4823 41.7694 19.4588 41.0304 19.3945 40.2949C19.3883 40.2248 19.3589 40.1568 19.306 40.0909C19.2745 39.9995 19.2552 39.913 19.248 39.8313L19.2251 39.5686C19.2138 39.4402 19.2079 39.3054 19.2073 39.1643C19.2068 39.0232 19.2237 38.8806 19.2581 38.7364C19.3687 38.6561 19.4882 38.6104 19.6167 38.5991C19.7684 38.5859 19.9164 38.5964 20.0606 38.6309C20.2154 38.6526 20.3639 38.6691 20.506 38.6801C20.6203 38.776 20.7064 38.8861 20.7643 39.0105C20.8339 39.1338 20.8807 39.2649 20.9046 39.404C20.9275 39.5314 20.9393 39.6657 20.9398 39.8068C20.9511 39.9352 20.9623 40.0636 20.9735 40.192C20.996 40.4489 21.0472 40.6973 21.127 40.9373C21.2068 41.1774 21.2569 41.4142 21.2774 41.6476C21.2825 41.706 21.2632 41.7548 21.2196 41.7939C21.1866 41.8203 21.1757 41.8977 21.1869 42.0261C21.1982 42.1545 21.2216 42.2878 21.2572 42.4258C21.2928 42.5638 21.3167 42.7029 21.329 42.843C21.3433 43.0064 21.3348 43.1778 21.3034 43.357C21.272 43.5362 21.246 43.709 21.2252 43.8755C21.9206 43.7559 22.6309 43.6055 23.3561 43.4244C24.0814 43.2433 24.7655 42.9952 25.4085 42.6802C25.4181 42.6558 25.4209 42.6203 25.4168 42.5736C25.4106 42.5036 25.3987 42.434 25.3809 42.365C25.3631 42.296 25.3506 42.2206 25.3434 42.1389C25.3312 41.9988 25.3682 41.8838 25.4544 41.7939C25.3675 41.4721 25.298 41.1488 25.2461 40.824C25.1941 40.4992 25.1538 40.1733 25.1252 39.8464L25.0379 38.8483C25.0093 38.5214 24.9749 38.1951 24.9346 37.8692C25.0229 37.8027 25.1196 37.7648 25.2246 37.7556C25.3531 37.7444 25.4729 37.7692 25.5841 37.83C25.7059 37.8782 25.8427 37.8956 25.9945 37.8823C26.0995 37.8732 26.1856 37.848 26.2525 37.8068C26.3912 37.9123 26.492 38.0564 26.5551 38.2391C26.6181 38.4218 26.6758 38.6109 26.7282 38.8063C26.7806 39.0017 26.833 39.1971 26.8853 39.3925C26.9484 39.5752 27.0492 39.7193 27.1878 39.8248L27.21 39.8758C27.214 39.9225 27.1938 39.9596 27.1491 39.987C27.1044 40.0144 27.0852 40.0632 27.0913 40.1332L27.0974 40.2033C27.1605 40.386 27.2124 40.5755 27.2531 40.7719C27.2938 40.9684 27.3292 41.1711 27.3592 41.3802C27.3999 41.5766 27.4465 41.7726 27.4989 41.968C27.5502 42.1517 27.6298 42.3212 27.7374 42.4764C27.7948 42.4597 27.8702 42.4472 27.9636 42.439C28.197 42.4186 28.3851 42.4845 28.5279 42.6367C28.6812 42.7762 28.8176 42.9231 28.937 43.0773ZM40.8834 39.0501L40.8895 39.1201C40.8098 39.1506 40.7741 39.2126 40.7822 39.306C40.6589 39.3756 40.5288 39.434 40.3917 39.4813C40.2537 39.5169 40.123 39.5695 39.9997 39.6391C39.8703 39.6387 39.7355 39.6446 39.5954 39.6568C39.466 39.6564 39.3371 39.6618 39.2086 39.673C38.8584 39.7037 38.5092 39.746 38.161 39.8C37.8128 39.854 37.4626 39.8846 37.1104 39.8919C36.9551 39.9996 36.7808 40.0913 36.5874 40.167C36.4047 40.2301 36.2258 40.2692 36.0507 40.2846C35.9106 40.2968 35.7865 40.29 35.6784 40.2642C35.4104 40.4288 35.1113 40.5726 34.7809 40.6956C34.4622 40.8176 34.1377 40.9401 33.8073 41.0631C33.4759 41.1745 33.1577 41.3023 32.8527 41.4466C32.5584 41.5782 32.3031 41.7535 32.087 41.9724C32.078 42.1379 32.0748 42.3028 32.0774 42.4673C32.079 42.6201 32.0864 42.7724 32.0997 42.9241C32.114 43.0876 32.1331 43.2388 32.1571 43.3779C32.1927 43.5159 32.2458 43.6524 32.3164 43.7874C32.3768 43.8057 32.4426 43.8176 32.5136 43.8231C32.5964 43.8276 32.6669 43.8273 32.7253 43.8222C32.7837 43.8171 32.8415 43.8062 32.8989 43.7894C32.9552 43.7609 32.9925 43.7165 33.0107 43.6561C33.1838 43.6174 33.3584 43.5963 33.5345 43.5926C33.7096 43.5773 33.8847 43.562 34.0599 43.5467C34.235 43.5313 34.4037 43.5107 34.5662 43.4847C34.7402 43.4577 34.907 43.4137 35.0663 43.3527C35.249 43.2897 35.4274 43.2447 35.6015 43.2177C35.7873 43.1897 35.9672 43.1622 36.1413 43.1352C36.3154 43.1082 36.4948 43.0748 36.6795 43.0351C36.8633 42.9838 37.0503 42.9027 37.2406 42.792C37.3974 42.8371 37.5518 42.853 37.7035 42.8397C37.867 42.8254 38.0256 42.8233 38.1794 42.8333C38.2662 42.8846 38.336 42.9432 38.3889 43.0091C38.4534 43.0741 38.4897 43.1532 38.4979 43.2466C38.5122 43.4101 38.4681 43.5786 38.3656 43.7522C38.2632 43.9259 38.1831 44.0858 38.1253 44.2321L37.9327 44.2489C37.6525 44.2734 37.3817 44.3383 37.1204 44.4435C36.8697 44.536 36.6147 44.6465 36.3553 44.7751C36.1067 44.891 35.8517 45.0015 35.5903 45.1067C35.3396 45.1992 35.0742 45.2577 34.794 45.2823C34.7473 45.2863 34.7207 45.3181 34.7141 45.3775C34.7182 45.4242 34.7096 45.4602 34.6883 45.4856C34.6289 45.479 34.5408 45.4809 34.4241 45.4911C34.1556 45.5146 33.9013 45.5662 33.6612 45.646C33.4212 45.7259 33.1727 45.777 32.9159 45.7995C32.8459 45.8056 32.7758 45.8117 32.7058 45.8179C32.6347 45.8123 32.5636 45.8068 32.4926 45.8012C32.4424 45.8997 32.3721 45.9706 32.2818 46.0138C32.1904 46.0453 32.107 46.0996 32.0314 46.1768C32.0055 46.285 31.9934 46.4154 31.995 46.5682C32.0083 46.72 32.0163 46.8781 32.0189 47.0425C32.0322 47.1943 32.0333 47.3412 32.0222 47.4834C32.0111 47.6255 31.9741 47.7405 31.9112 47.8283C31.928 47.8857 31.9767 47.905 32.0574 47.8861C32.1371 47.8556 32.181 47.8871 32.1892 47.9805C32.1984 48.0855 32.1964 48.1975 32.1833 48.3163C32.1701 48.435 32.1687 48.5528 32.1789 48.6695C32.1983 48.8914 32.2431 49.1345 32.3133 49.3989C32.3941 49.6506 32.4968 49.8828 32.6212 50.0954C32.7574 50.307 32.9255 50.4805 33.1256 50.6159C33.3246 50.7397 33.5642 50.7893 33.8444 50.7648C34.0312 50.7484 34.2032 50.6981 34.3605 50.6138C34.5178 50.5294 34.6419 50.4009 34.7327 50.2283L34.8187 50.2031C34.8654 50.199 34.9067 50.2013 34.9428 50.2099C34.9905 50.2175 35.0377 50.2192 35.0844 50.2152C35.1545 50.209 35.2384 50.1605 35.3364 50.0696C35.4449 49.966 35.5583 49.8502 35.6765 49.7222C35.8064 49.5932 35.9368 49.4701 36.0677 49.3527C36.1976 49.2238 36.3247 49.1303 36.449 49.0724C36.5164 48.9018 36.578 48.7317 36.6337 48.5621C36.7012 48.3915 36.8067 48.2529 36.9503 48.1462L36.9058 47.6384C37.0113 47.4998 37.1237 47.3723 37.2429 47.256C37.3738 47.1387 37.4671 46.9952 37.5229 46.8257C37.5833 46.8439 37.6374 46.8568 37.6851 46.8644C37.7445 46.871 37.8034 46.8717 37.8617 46.8666C37.9201 46.8615 37.978 46.8506 38.0353 46.8338C38.1043 46.816 38.167 46.7929 38.2233 46.7644C38.328 46.8846 38.4108 47.0244 38.4718 47.1838C38.5434 47.3304 38.6262 47.4702 38.7202 47.6032C38.6335 47.8225 38.5329 48.0842 38.4183 48.3883C38.3038 48.6925 38.1776 48.9976 38.0397 49.3037C37.9018 49.6099 37.7512 49.9054 37.5879 50.1902C37.4352 50.4624 37.2775 50.6762 37.1146 50.8316C37.0827 50.8697 37.0103 50.9172 36.8977 50.9741C36.7774 51.0787 36.6684 51.1765 36.5704 51.2674C36.4735 51.37 36.3835 51.4837 36.3003 51.6086C35.971 51.7433 35.6564 51.912 35.3565 52.1147C35.0683 52.3164 34.7795 52.5122 34.4903 52.7022C34.3472 52.6794 34.1939 52.6752 34.0304 52.6895C33.8903 52.7017 33.7508 52.7198 33.6117 52.7438C33.4736 52.7794 33.3229 52.8043 33.1595 52.8186C33.1077 52.7643 33.034 52.7296 32.9386 52.7144C32.8559 52.7099 32.8216 52.6541 32.8357 52.547C32.4368 52.5584 32.106 52.4755 31.8435 52.2985C31.582 52.1332 31.3514 51.9181 31.1518 51.6532C30.9639 51.3873 30.8031 51.0956 30.6694 50.7779C30.5357 50.4602 30.3972 50.1547 30.2539 49.8614L30.2494 49.8088C30.2442 49.7505 30.2645 49.7134 30.3102 49.6977C30.3559 49.6819 30.3762 49.6448 30.3711 49.5865C30.369 49.5631 30.3616 49.5461 30.3489 49.5355C30.3027 49.4101 30.2638 49.3018 30.2323 49.2104C30.2008 49.1191 30.1794 49.0092 30.1682 48.8808C30.1518 48.694 30.1477 48.512 30.1557 48.3348C30.1627 48.146 30.158 47.9582 30.1417 47.7714C30.1253 47.5846 30.0877 47.4232 30.0287 47.2872C30.0703 47.2248 30.1045 47.1453 30.1314 47.0489C30.1456 46.9418 30.1539 46.8352 30.1564 46.7291C30.1588 46.623 30.1555 46.5174 30.1463 46.4123C30.1488 46.3062 30.1581 46.2113 30.1743 46.1276C30.1164 46.0032 30.0658 45.8959 30.0226 45.8056C29.9784 45.7036 29.9502 45.5825 29.9379 45.4424L29.9272 45.3198C30.0266 45.1112 30.1079 44.8982 30.1713 44.6809C30.2346 44.4636 30.3033 44.24 30.3772 44.01L30.3727 43.9575C30.343 43.6189 30.3017 43.2814 30.2488 42.9449C30.1958 42.6084 30.1545 42.2709 30.1249 41.9323L30.0958 41.5996C30.0856 41.4828 30.0817 41.3714 30.0842 41.2653C30.1735 41.2105 30.2379 41.1401 30.2775 41.0543C30.317 40.9685 30.3814 40.8982 30.4707 40.8433L31.0486 40.7928L31.1384 40.6085C31.1683 40.547 31.186 40.4808 31.1916 40.4097C31.3169 40.3635 31.4354 40.306 31.547 40.2375C31.6693 40.1562 31.7799 40.0759 31.8789 39.9967C32.0341 39.889 32.1729 39.7945 32.2952 39.7132C32.4282 39.6192 32.5568 39.5433 32.6811 39.4854C32.8161 39.4147 32.9579 39.3553 33.1066 39.307C33.2553 39.2587 33.4279 39.2142 33.6243 39.1734C33.7177 39.1653 33.7746 39.1427 33.7948 39.1056C33.8268 39.0675 33.8699 39.0226 33.9242 38.9708C34.0663 38.9819 34.2085 38.9929 34.3506 39.004C34.4917 39.0035 34.6323 38.997 34.7724 38.9848C35.0526 38.9603 35.3107 38.8848 35.5466 38.7582C35.8968 38.7276 36.2407 38.6916 36.5782 38.6503C36.9275 38.608 37.2772 38.5715 37.6274 38.5409C37.9309 38.5143 38.2355 38.4995 38.541 38.4963C38.8466 38.4931 39.1479 38.5079 39.4448 38.5407C39.5468 38.4965 39.662 38.4688 39.7905 38.4575C39.9306 38.4453 40.0722 38.4505 40.2153 38.4733C40.3691 38.4834 40.5151 38.4706 40.6531 38.435C40.676 38.5624 40.7149 38.6707 40.7698 38.76C40.8353 38.8367 40.8732 38.9333 40.8834 39.0501ZM53.8749 45.9597C53.8851 46.0765 53.8587 46.1787 53.7958 46.2666C53.7436 46.3417 53.6733 46.4126 53.5851 46.4791C53.5084 46.5447 53.4255 46.6048 53.3362 46.6597C53.2585 46.7136 53.1878 46.7786 53.1238 46.8547C53.0812 46.9055 53.0513 46.967 53.0341 47.0391C53.0275 47.0984 53.0019 47.1419 52.9573 47.1693C52.8923 47.2338 52.8195 47.2754 52.7388 47.2943C52.6581 47.3131 52.5721 47.3383 52.4807 47.3698C52.4 47.3886 52.3204 47.4191 52.2417 47.4613C52.162 47.4918 52.0966 47.5504 52.0454 47.6373C51.5018 47.7436 50.9656 47.867 50.4367 48.0074C49.9196 48.1467 49.3808 48.2409 48.8205 48.29C48.7154 48.2992 48.5997 48.321 48.4733 48.3556C48.3576 48.3775 48.2477 48.3989 48.1436 48.4198C47.9005 48.4646 47.6569 48.5035 47.4128 48.5366C47.1803 48.5687 46.9415 48.5955 46.6963 48.617C46.3578 48.6466 46.0182 48.6645 45.6776 48.6708C45.336 48.6654 44.9987 48.642 44.6657 48.6005C44.5789 48.5493 44.4814 48.5108 44.3733 48.4849C44.2651 48.4591 44.1512 48.4338 44.0314 48.409C43.9232 48.3832 43.8204 48.351 43.7229 48.3124C43.6255 48.2739 43.5493 48.21 43.4944 48.1207C43.3183 48.1243 43.1576 48.1031 43.0124 48.057C42.8789 48.0099 42.7507 47.9564 42.6278 47.8965C42.5156 47.824 42.3976 47.752 42.2737 47.6805C42.1498 47.609 42.0094 47.5507 41.8525 47.5056C41.7215 47.3524 41.5851 47.2055 41.4434 47.065C41.3124 46.9117 41.1547 46.7903 40.9704 46.7005C40.916 46.4818 40.8382 46.2651 40.7371 46.0504C40.6476 45.8347 40.5529 45.6254 40.4527 45.4224C40.3633 45.2067 40.2855 44.99 40.2194 44.7723C40.1416 44.5556 40.0925 44.3305 40.0721 44.097C40.0578 43.9336 40.0638 43.7331 40.0901 43.4955C40.1163 43.2579 40.1543 43.0194 40.2039 42.7797C40.2642 42.5274 40.3376 42.2916 40.4243 42.0723C40.511 41.853 40.6013 41.6745 40.6951 41.5369C40.7271 41.4988 40.7654 41.466 40.81 41.4386C40.8547 41.4112 40.8925 41.3726 40.9234 41.3228C41.0183 41.1969 41.121 41.0938 41.2316 41.0135C41.3412 40.9216 41.4556 40.8175 41.5748 40.7012C41.6174 40.6504 41.6479 40.5948 41.6661 40.5344C41.696 40.4729 41.7381 40.4163 41.7924 40.3645C41.8254 40.3381 41.8716 40.3282 41.931 40.3348C42.002 40.3403 42.0594 40.3235 42.103 40.2844C42.1467 40.2453 42.1664 40.2024 42.1623 40.1557C42.1583 40.109 42.1722 40.0666 42.2041 40.0285C42.2148 40.0158 42.2498 40.0128 42.3092 40.0193C42.3676 40.0142 42.4026 40.0112 42.4143 40.0101C42.496 40.003 42.5848 39.9423 42.6807 39.828C42.7755 39.7021 42.8564 39.6186 42.9234 39.5774C43.0011 39.5236 43.0802 39.4872 43.1609 39.4684C43.2406 39.4379 43.3251 39.3952 43.4144 39.3404C43.5367 39.2591 43.6547 39.1958 43.7683 39.1506C43.8927 39.0926 44.0165 39.0289 44.1398 38.9593C44.2078 38.9298 44.2684 38.8833 44.3217 38.8198C44.375 38.7564 44.4298 38.7104 44.4861 38.6819C44.5881 38.6377 44.697 38.6047 44.8127 38.5828C44.9391 38.5482 45.0543 38.5205 45.1583 38.4996C45.273 38.4661 45.3819 38.433 45.4849 38.4005C45.5986 38.3552 45.6985 38.2877 45.7848 38.1978L45.9249 38.1855C46.135 38.1671 46.3367 38.1201 46.5301 38.0443C46.7235 37.9686 46.9252 37.9215 47.1353 37.9032C47.1937 37.8981 47.2823 37.9021 47.4011 37.9152C47.4894 37.8487 47.5919 37.8103 47.7086 37.8001C47.9071 37.7827 48.1101 37.8179 48.3178 37.9056C48.5244 37.9816 48.7328 38.0104 48.9429 37.9921L49.048 37.9829C49.0947 37.9788 49.1409 37.9689 49.1866 37.9531C49.3262 38.0703 49.4841 38.127 49.6602 38.1234C49.848 38.1187 50.0102 38.1575 50.1468 38.2396C50.2347 38.3025 50.306 38.3786 50.3609 38.4679C50.4274 38.5562 50.4828 38.6514 50.527 38.7534L50.6597 39.0594C50.7039 39.1614 50.7588 39.2507 50.8243 39.3273C50.8027 39.7527 50.6572 40.1066 50.3878 40.3889C50.1291 40.6586 49.7837 40.8123 49.3518 40.8501C49.1883 40.8644 49.0467 40.8592 48.9269 40.8343C48.8178 40.7968 48.7144 40.7588 48.617 40.7203C48.5312 40.6807 48.4395 40.6417 48.342 40.6032C48.2446 40.5647 48.1364 40.5388 48.0176 40.5257C48.1256 40.281 48.1854 40.0228 48.1969 39.7513C48.0634 39.7041 47.9314 39.6745 47.801 39.6624C47.6705 39.6503 47.5443 39.6201 47.4225 39.572C47.1144 39.6813 46.8102 39.7667 46.5097 39.8283C46.2199 39.8772 45.9563 40.0238 45.7189 40.268C45.6595 40.2615 45.5942 40.2554 45.5232 40.2499C45.4638 40.2433 45.4049 40.2426 45.3465 40.2477C45.2765 40.2538 45.141 40.3186 44.9401 40.442C44.7381 40.5538 44.5201 40.6846 44.2862 40.8345C44.064 40.9834 43.8476 41.1317 43.637 41.2795C43.4381 41.4263 43.2998 41.5266 43.2222 41.5805C43.1339 41.647 43.0583 41.7242 42.9954 41.8121C42.9325 41.8999 42.8701 41.9936 42.8083 42.0931C42.7454 42.181 42.6825 42.2688 42.6196 42.3567C42.5557 42.4328 42.4727 42.493 42.3707 42.5372C42.3586 42.6677 42.3274 42.7822 42.2772 42.8807C42.227 42.9792 42.1715 43.084 42.1106 43.1952C42.1174 43.4064 42.1124 43.6185 42.0958 43.8317C42.0908 44.0439 42.0975 44.2551 42.1159 44.4652L42.1358 44.6929C42.1419 44.7629 42.1592 44.8261 42.1877 44.8824C42.3177 45.024 42.4259 45.1851 42.5123 45.3657C42.6103 45.5454 42.7558 45.662 42.9488 45.7157C42.9645 45.7614 42.9612 45.7911 42.9389 45.8048C42.9282 45.8175 42.9191 45.8477 42.9115 45.8955C42.9928 46.0177 43.0896 46.1151 43.2018 46.1877C43.3247 46.2475 43.448 46.3132 43.5719 46.3847C43.6948 46.4445 43.8123 46.5107 43.9246 46.5832C44.0368 46.6557 44.1277 46.7537 44.1973 46.877C44.3724 46.8617 44.5384 46.8765 44.6953 46.9216C44.8638 46.9657 45.0212 47.0166 45.1674 47.0744C45.3253 47.1312 45.471 47.1831 45.6045 47.2303C45.7497 47.2764 45.8924 47.2933 46.0325 47.2811C46.1609 47.2698 46.2761 47.2421 46.3781 47.1979C46.6898 47.2647 46.9994 47.3082 47.3071 47.3284C47.6253 47.3358 47.9421 47.3257 48.2573 47.2982C48.6425 47.2645 49.0257 47.2074 49.4069 47.127C49.788 47.0466 50.1697 46.972 50.5519 46.9033C50.6899 46.8677 50.8232 46.8443 50.9516 46.8331C51.08 46.8218 51.2074 46.7989 51.3338 46.7643C51.4952 46.7267 51.6403 46.6375 51.7691 46.4968C51.9097 46.3552 52.0474 46.249 52.1824 46.1784C52.318 46.2488 52.4733 46.2764 52.6484 46.2611C52.8469 46.2437 53.037 46.1977 53.2186 46.123C53.3993 46.0366 53.5889 45.9847 53.7873 45.9674L53.8749 45.9597ZM67.7838 47.0191C67.792 47.1125 67.7578 47.1919 67.6811 47.2574C67.6045 47.323 67.5162 47.3895 67.4163 47.4571L67.1149 47.6423C67.0139 47.6981 66.9495 47.7685 66.9216 47.8533C66.7901 47.8295 66.6596 47.8174 66.5302 47.8169C66.4124 47.8155 66.2952 47.8198 66.1785 47.83C66.0267 47.8433 65.8706 47.8746 65.7102 47.9239C65.5488 47.9616 65.4271 48.0487 65.3449 48.1853C65.2845 48.1671 65.2309 48.16 65.1842 48.1641L65.0442 48.1763C64.869 48.1916 64.6891 48.2191 64.5044 48.2588C64.3323 48.3092 64.1587 48.342 63.9836 48.3573C63.8902 48.3655 63.7963 48.3678 63.7019 48.3643C63.6192 48.3598 63.5402 48.3314 63.4651 48.2792C63.3631 48.3234 63.2537 48.3506 63.137 48.3608C62.9852 48.3741 62.8372 48.3635 62.6931 48.3291C62.5489 48.2946 62.4042 48.2544 62.259 48.2082C62.1245 48.1494 61.9846 48.097 61.8394 48.0509C61.6942 48.0047 61.55 47.9703 61.4069 47.9475L61.2628 47.7131C61.073 47.6944 60.8933 47.6572 60.7237 47.6015C60.5648 47.533 60.4054 47.4587 60.2454 47.3786C60.0855 47.2985 59.9261 47.2242 59.7672 47.1558C59.6189 47.0747 59.4674 47.0232 59.3125 47.0015C59.2501 46.9599 59.194 46.9236 59.1442 46.8927C59.0934 46.8501 59.0528 46.7889 59.0223 46.7093C58.8675 46.6875 58.7233 46.6531 58.5898 46.6059L58.2052 46.4455C58.0823 46.3856 57.9429 46.339 57.7871 46.3056C57.6419 46.2595 57.4696 46.2393 57.2701 46.245C57.1908 46.146 57.0829 46.0555 56.9463 45.9733C56.8098 45.8912 56.6773 45.8557 56.5488 45.8669C56.4671 45.8741 56.4044 45.8972 56.3608 45.9363L56.3685 46.0239C56.3807 46.164 56.4338 46.3005 56.5278 46.4334C56.6218 46.5664 56.7355 46.6564 56.8691 46.7035C56.8594 46.7279 56.8567 46.7634 56.8607 46.8101C56.8669 46.8802 56.8847 46.9492 56.9142 47.0172C56.9553 47.0842 57.0178 47.1258 57.1015 47.142C57.0661 47.2745 57.0194 47.4138 56.9616 47.5601C56.9028 47.6946 56.826 47.8248 56.7311 47.9508C56.6363 48.0767 56.5282 48.1861 56.407 48.2791C56.2964 48.3594 56.1652 48.4061 56.0134 48.4194C55.9687 48.4468 55.9368 48.4849 55.9175 48.5337C55.9099 48.5814 55.9029 48.6349 55.8963 48.6943C55.9004 48.741 55.8928 48.7887 55.8735 48.8375C55.8659 48.8852 55.8457 48.9223 55.8127 48.9487C55.767 48.9644 55.7033 48.9759 55.6216 48.983C55.5048 48.9933 55.4041 48.9844 55.3193 48.9566C55.2345 48.9287 55.1429 48.8896 55.0444 48.8394L55.0382 48.7694C55.026 48.6293 54.9871 48.521 54.9216 48.4443C54.8677 48.3667 54.8027 48.2959 54.7265 48.232C54.661 48.1554 54.5955 48.0788 54.53 48.0022C54.4761 47.9246 54.4431 47.8157 54.4308 47.6756C54.3979 47.702 54.3585 47.7231 54.3129 47.7389C54.2789 47.7536 54.2575 47.779 54.2489 47.815C54.2154 47.7003 54.195 47.6021 54.1879 47.5204C54.1674 47.2869 54.1831 47.062 54.2347 46.8458C54.2981 46.6285 54.3195 46.4031 54.2991 46.1696L54.2761 45.907C54.2526 45.6385 54.2238 45.3763 54.1896 45.1205C54.1555 44.8647 54.1272 44.6084 54.1047 44.3515C54.0853 44.1297 54.0723 43.9132 54.0656 43.7021C54.0578 43.4793 54.0618 43.2554 54.0774 43.0305C54.1384 42.2488 54.1766 41.4749 54.1919 40.709C54.2179 39.9303 54.2969 39.1529 54.429 38.3767C54.4122 38.3194 54.3896 38.2625 54.3611 38.2062C54.3443 38.1488 54.3334 38.091 54.3283 38.0326C54.3242 37.9859 54.3275 37.9562 54.3381 37.9435C54.3644 37.706 54.4526 37.5041 54.6028 37.3381C54.7519 37.1603 54.9549 37.0602 55.2117 37.0378L55.2643 37.0332C55.4095 37.0793 55.5222 37.1576 55.6025 37.2683C55.6934 37.3662 55.8195 37.3963 55.9809 37.3587C55.983 37.382 55.9792 37.4059 55.9695 37.4302C55.9716 37.4536 55.9736 37.4769 55.9757 37.5003C55.9869 37.6287 56.0301 37.719 56.1052 37.7713C56.1804 37.8235 56.2677 37.8806 56.3672 37.9424C56.3191 38.0643 56.29 38.2021 56.2799 38.3559C56.2815 38.5087 56.2831 38.6615 56.2847 38.8143C56.2863 38.9671 56.2757 39.115 56.253 39.2582C56.2419 39.4003 56.1996 39.5217 56.126 39.6222C56.1829 39.7349 56.2223 39.8491 56.2442 39.9648C56.2661 40.0805 56.2827 40.2026 56.2939 40.331C56.3051 40.4594 56.311 40.5942 56.3116 40.7353C56.3112 40.8647 56.3171 40.9995 56.3293 41.1396C56.3406 41.268 56.3683 41.3832 56.4125 41.4852C56.6693 41.4627 56.8046 41.3274 56.8181 41.0791C57.1145 40.9709 57.3733 40.8365 57.5945 40.676C57.8264 40.5028 58.0461 40.3247 58.2536 40.1419C58.4611 39.959 58.6623 39.7709 58.8571 39.5774C59.0636 39.3828 59.2955 39.2096 59.5527 39.0577L59.5497 39.0227C59.5446 38.9643 59.559 38.9278 59.593 38.913C59.626 38.8866 59.6272 38.8336 59.5967 38.7539C59.7667 38.6802 59.906 38.5916 60.0146 38.488C60.1338 38.3717 60.2409 38.2505 60.3357 38.1246L60.6363 37.7278C60.7418 37.5891 60.8605 37.467 60.9924 37.3613C61.0684 37.1547 61.1318 36.9374 61.1824 36.7095C61.2447 36.4805 61.3319 36.267 61.444 36.069C61.6658 36.0496 61.9066 36.0462 62.1665 36.0587C62.4381 36.0703 62.6729 36.1321 62.8709 36.2442C62.8558 36.3396 62.9022 36.4002 63.0104 36.4261C62.9248 36.9276 62.771 37.3881 62.5489 37.8075C62.3258 38.2152 62.0217 38.5712 61.6366 38.8754C61.5894 39.0089 61.5233 39.1265 61.438 39.228C61.3528 39.3296 61.2676 39.4312 61.1824 39.5327C61.0961 39.6226 61.0104 39.7184 60.9252 39.8199C60.84 39.9215 60.7738 40.039 60.7266 40.1726C60.5886 40.2082 60.4696 40.2597 60.3696 40.3273C60.2813 40.3938 60.1941 40.4721 60.1078 40.5619C60.0322 40.6391 59.945 40.7174 59.846 40.7966C59.7578 40.8631 59.6568 40.919 59.5431 40.9643C59.4599 41.0892 59.3577 41.1981 59.2364 41.2911C59.1268 41.383 59.0114 41.4754 58.8901 41.5684C58.7795 41.6487 58.6758 41.7401 58.5789 41.8427C58.481 41.9336 58.4148 42.0511 58.3803 42.1953L57.925 42.2351C57.816 42.4682 57.6631 42.6698 57.4662 42.8399C57.28 42.9974 57.0875 43.1495 56.8886 43.2963C56.9359 43.4333 57.0103 43.5444 57.1118 43.6297C57.2124 43.7032 57.3183 43.7704 57.4295 43.8313C57.5523 43.8911 57.6699 43.9573 57.7821 44.0298C57.905 44.0896 58.0118 44.1685 58.1028 44.2664C58.6094 44.4103 59.1011 44.5849 59.5779 44.7902C60.0536 44.9839 60.5105 45.2321 60.9488 45.5349C60.9711 45.5212 60.9998 45.5128 61.0348 45.5098C61.1282 45.5016 61.2066 45.5241 61.2701 45.5774C61.3325 45.619 61.4158 45.6293 61.5198 45.6085C61.5767 45.7211 61.6481 45.7972 61.7339 45.8368C61.8187 45.8647 61.903 45.8867 61.9867 45.9029C62.0822 45.9181 62.1728 45.9454 62.2586 45.985C62.3444 46.0245 62.4099 46.1011 62.4551 46.2148C62.6313 46.2112 62.7919 46.2324 62.9371 46.2785C63.094 46.3236 63.2364 46.4053 63.3644 46.5235L63.5745 46.5051C63.9481 46.4724 64.3131 46.4758 64.6694 46.5152C65.0258 46.5546 65.3849 46.5584 65.7468 46.5268C65.9336 46.5104 66.1135 46.4829 66.2866 46.4443C66.4586 46.3939 66.6228 46.3207 66.7791 46.2247C66.8405 46.2546 66.9078 46.284 66.9809 46.3129C67.054 46.3418 67.1314 46.3527 67.2132 46.3455C67.2715 46.3404 67.3581 46.3211 67.4728 46.2875C67.4957 46.4149 67.5473 46.5339 67.6275 46.6446C67.7195 46.7541 67.7715 46.879 67.7838 47.0191ZM89.2252 43.8198C89.1832 44.0117 89.182 44.2 89.2217 44.3848C89.1908 44.4345 89.1525 44.4673 89.1068 44.483C89.0611 44.4988 89.016 44.5204 88.9713 44.5478C88.9256 44.5636 88.8868 44.5905 88.8549 44.6286C88.8336 44.654 88.8381 44.7065 88.8686 44.7862C88.4854 44.8433 88.1249 44.9571 87.7869 45.1279C87.4489 45.2986 87.1178 45.4805 86.7936 45.6736C86.6133 45.6305 86.4554 45.5737 86.3199 45.5033C86.1843 45.4328 86.0163 45.3945 85.8158 45.3885C85.5826 45.009 85.3595 44.6109 85.1466 44.1943C84.9444 43.765 84.8239 43.3285 84.7851 42.8849C84.7565 42.558 84.7888 42.2552 84.882 41.9765C84.8514 41.6263 84.8504 41.2793 84.8792 40.9357C84.9079 40.592 84.943 40.2537 84.9845 39.9207C85.0366 39.575 85.077 39.2303 85.1058 38.8866C85.1345 38.543 85.1336 38.196 85.1029 37.8458L85.0692 37.4606C85.0459 37.4626 85.0193 37.4943 84.9893 37.5558C84.9584 37.6055 84.9285 37.667 84.8996 37.7401C84.8813 37.8005 84.8631 37.8609 84.8449 37.9213C84.8266 37.9817 84.8122 38.0183 84.8015 38.031C84.6163 38.2001 84.4756 38.4065 84.3793 38.6502C84.2936 38.8812 84.1953 39.1016 84.0842 39.3113C83.9422 39.5707 83.788 39.8254 83.6217 40.0752C83.467 40.324 83.261 40.5243 83.0037 40.6762L83.0068 40.7113C83.0119 40.7696 82.998 40.812 82.965 40.8384C82.932 40.8649 82.9313 40.9237 82.9628 41.0151C82.6791 41.134 82.4165 41.2923 82.175 41.4899C81.9452 41.6864 81.7603 41.9261 81.6203 42.2089C81.392 42.2877 81.1773 42.3888 80.9764 42.5123C80.7861 42.623 80.591 42.746 80.391 42.8811C80.3017 42.936 80.2076 43.003 80.1087 43.0823C80.0097 43.1615 79.9088 43.2174 79.8057 43.2499C79.7154 43.2931 79.589 43.3277 79.4266 43.3537C79.2759 43.3786 79.1135 43.4046 78.9394 43.4316C78.7769 43.4576 78.614 43.4777 78.4506 43.492L78.0653 43.5257C78.007 43.5308 77.9285 43.5083 77.83 43.4581C77.7315 43.4079 77.6208 43.3529 77.498 43.293C77.3868 43.2322 77.2703 43.1777 77.1484 43.1295C77.0255 43.0697 76.9105 43.0327 76.8034 43.0185C76.6835 42.7232 76.5257 42.4664 76.3302 42.2482C76.1453 42.0174 75.9488 41.7875 75.7405 41.5587C75.6576 41.2837 75.5504 40.999 75.4188 40.7046C75.2988 40.4093 75.1076 40.1731 74.8451 39.9961C74.8963 39.9092 74.9173 39.8133 74.9081 39.7082C74.8969 39.5798 74.857 39.4598 74.7884 39.3481C74.7198 39.2365 74.6794 39.1107 74.6671 38.9706C74.6589 38.8772 74.6587 38.8066 74.6662 38.7589C74.5501 38.9102 74.4725 39.0993 74.4336 39.3263C74.4052 39.5405 74.3987 39.7351 74.4141 39.9103C74.4263 40.0503 74.4551 40.1772 74.5003 40.2909C74.3979 40.4646 74.3399 40.6755 74.3263 40.9237C74.3244 41.1709 74.3316 41.3879 74.3479 41.5747C74.3684 41.8082 74.4058 42.0343 74.4602 42.253C74.2898 42.4562 74.2163 42.692 74.2398 42.9605C74.2531 43.1123 74.2998 43.2434 74.3801 43.3541C74.3842 43.4008 74.3756 43.4368 74.3543 43.4622C74.333 43.4876 74.3053 43.5076 74.2713 43.5224C74.249 43.5361 74.2213 43.5562 74.1883 43.5826C74.166 43.5963 74.1569 43.6265 74.161 43.6732C74.1661 43.7316 74.1717 43.7958 74.1778 43.8658C74.1956 43.9348 74.2076 44.0044 74.2137 44.0744C74.228 44.2379 74.237 44.4076 74.2407 44.5838C74.2443 44.7599 74.2533 44.9297 74.2676 45.0931C74.2972 45.4317 74.3478 45.6743 74.4195 45.8209C74.5018 45.9549 74.5927 46.0528 74.6922 46.1147C74.8034 46.1756 74.9204 46.2359 75.0433 46.2957C75.1662 46.3556 75.2947 46.4796 75.4288 46.6678C75.4029 46.776 75.3464 46.8692 75.2591 46.9474C75.1825 47.0129 75.1064 47.0842 75.0308 47.1614C74.9659 47.2259 74.9078 47.3016 74.8566 47.3884C74.8054 47.4753 74.7922 47.594 74.8172 47.7448L74.7296 47.7524C74.5779 47.7657 74.434 47.8018 74.298 47.8608C74.162 47.9197 74.0181 47.9559 73.8663 47.9691C73.8313 47.9722 73.7958 47.9694 73.7597 47.9608C73.7247 47.9639 73.6897 47.9669 73.6546 47.97L73.4703 47.8803C73.4089 47.8503 73.349 47.8379 73.2906 47.843C73.2323 47.8481 73.1574 47.8665 73.0661 47.898C72.8567 47.3869 72.6807 46.8553 72.5383 46.3031C72.4076 45.7499 72.3187 45.2048 72.2717 44.6678C72.2666 44.6094 72.2732 44.55 72.2914 44.4896C72.3203 44.4165 72.365 44.3891 72.4254 44.4073L72.3963 44.0746C72.3646 43.7127 72.3632 43.3599 72.3919 43.0163C72.4313 42.6599 72.4347 42.295 72.402 41.9214C72.3928 41.8163 72.3778 41.7118 72.3569 41.6077C72.3477 41.5027 72.3332 41.4039 72.3134 41.3116C72.3544 41.108 72.3954 40.9044 72.4364 40.7009C72.488 40.4846 72.5042 40.2656 72.4848 40.0438C72.4766 39.9504 72.4494 39.841 72.4031 39.7156C72.4904 39.6374 72.5528 39.5437 72.5903 39.4346C72.6268 39.3138 72.6511 39.1881 72.6632 39.0577C72.6743 38.9155 72.68 38.7797 72.6805 38.6503C72.6809 38.5209 72.6824 38.4031 72.6849 38.297C72.7812 38.0533 72.8234 37.7967 72.8116 37.5272C72.7998 37.2577 72.8362 37.0016 72.9208 36.7589C72.9051 36.7132 72.8921 36.632 72.8819 36.5153C72.8614 36.2818 72.876 36.0452 72.9257 35.8056C72.9859 35.5533 73.1272 35.3527 73.3494 35.2039C73.5667 35.2672 73.8155 35.2866 74.0956 35.2621C74.3641 35.2386 74.6174 35.1753 74.8554 35.0721C74.9275 35.0893 74.9943 35.1129 75.0557 35.1428C75.1161 35.1611 75.177 35.1852 75.2385 35.2151C75.3105 35.2323 75.3826 35.2495 75.4547 35.2667C75.5258 35.2723 75.6075 35.2651 75.6999 35.2453C75.8462 35.5736 75.9756 35.9093 76.088 36.2524C76.212 36.5945 76.3132 36.9444 76.3916 37.3022C76.4282 37.4519 76.4483 37.6148 76.452 37.791C76.4673 37.9661 76.4933 38.1285 76.5299 38.2782C76.5497 38.3706 76.5866 38.4556 76.6404 38.5332C76.6932 38.5992 76.7471 38.6768 76.802 38.7661C76.8568 38.8555 76.901 38.9575 76.9346 39.0722C76.9798 39.1858 77.0043 39.3307 77.0079 39.5069C77.1629 39.7992 77.3285 40.0788 77.5048 40.3457C77.6917 40.5999 77.8903 40.8531 78.1006 41.1052C78.2087 41.131 78.3062 41.1696 78.393 41.2208C78.4788 41.2603 78.5385 41.3375 78.5721 41.4522C78.6772 41.443 78.7721 41.4523 78.8569 41.4802L79.1622 41.5417C79.5936 41.3628 79.9858 41.1403 80.339 40.8741C80.7038 40.6069 81.0892 40.3732 81.4952 40.173C81.9649 39.6261 82.36 39.0327 82.6805 38.393C82.9999 37.7416 83.3199 37.096 83.6403 36.4563L83.6066 36.071C83.6736 36.0299 83.7284 35.9839 83.771 35.9331C83.8243 35.8696 83.8907 35.8227 83.9704 35.7922C83.9698 35.6511 83.9873 35.5142 84.0227 35.3817C84.0689 35.2365 84.116 35.103 84.1641 34.9812C84.223 34.8466 84.2706 34.7189 84.3071 34.5981C84.3426 34.4656 84.3542 34.3293 84.3419 34.1892C84.3347 34.1075 84.3228 34.038 84.306 33.9806C84.4658 33.7902 84.6683 33.6843 84.9134 33.6628C85.1469 33.6424 85.3855 33.6803 85.6292 33.7766C85.8835 33.8603 86.1199 33.9396 86.3382 34.0146C86.4911 34.2835 86.6105 34.573 86.6965 34.8831C86.7931 35.1805 86.8674 35.4917 86.9193 35.8165C86.9713 36.1413 87.0115 36.4672 87.0401 36.7941L87.1489 38.0374C87.1454 38.1318 87.1165 38.2049 87.0622 38.2567C87.0186 38.2958 86.9887 38.3572 86.9725 38.441L86.9878 38.6161C86.9929 38.6745 86.9922 38.7334 86.9856 38.7927C87.0071 39.0379 87.0003 39.2973 86.9655 39.5709C86.9367 39.9146 86.891 40.2656 86.8282 40.624C86.7761 40.9697 86.7654 41.3176 86.796 41.6679C86.8072 41.7963 86.8243 41.9242 86.8472 42.0516C86.8701 42.179 86.9047 42.3053 86.951 42.4307C86.9018 42.5409 86.8844 42.6777 86.8987 42.8411C86.915 43.0279 86.9595 43.2005 87.0322 43.3588C87.1155 43.5044 87.2105 43.649 87.3172 43.7926C87.4806 43.7783 87.6435 43.7582 87.8059 43.7322C87.9684 43.7063 88.1371 43.6856 88.3122 43.6703C88.4757 43.656 88.629 43.6602 88.7721 43.683C88.9143 43.6941 89.0653 43.7397 89.2252 43.8198ZM98.2055 33.1175C98.2147 33.2226 98.1757 33.3142 98.0884 33.3924C98.0128 33.4696 97.9766 33.5257 97.9796 33.5607C97.9858 33.6308 98.002 33.6823 98.0285 33.7153C98.0538 33.7366 98.0681 33.7647 98.0711 33.7998L98.0788 33.8873C97.9723 34.0143 97.8959 34.1503 97.8498 34.2955C97.8027 34.4291 97.7683 34.5732 97.7465 34.7281C97.7237 34.8712 97.7015 35.0202 97.6797 35.175C97.6697 35.3289 97.6474 35.4778 97.613 35.622C97.5669 35.7672 97.5017 35.8964 97.4175 36.0097C97.3323 36.1112 97.2661 36.2288 97.219 36.3623C97.144 36.5806 97.0928 36.8027 97.0655 37.0286C97.0382 37.2545 96.9569 37.4675 96.8214 37.6675L96.8291 37.7551C96.8246 37.8378 96.8541 37.9058 96.9175 37.9591C96.7213 38.2704 96.5768 38.6359 96.4841 39.0557C96.3904 39.4639 96.3221 39.8934 96.2792 40.3441C96.2353 40.7832 96.2036 41.2271 96.184 41.6758C96.1634 42.1129 96.1276 42.5101 96.0765 42.8675C96.1573 43.1192 96.2663 43.3567 96.4035 43.58C96.5513 43.7906 96.6943 44.0133 96.8325 44.2483C97.0711 44.2862 97.3001 44.3485 97.5194 44.4352C97.7504 44.5209 97.9228 44.6763 98.0366 44.9017C98.0337 45.1372 97.9737 45.3248 97.8565 45.4644C97.7393 45.6041 97.5935 45.7521 97.4189 45.9085C97.2864 45.8731 97.1778 45.8414 97.093 45.8135C97.0092 45.7973 96.8867 45.8081 96.7253 45.8457C96.4881 45.69 96.2657 45.5683 96.0581 45.4806C95.8621 45.3919 95.677 45.2257 95.5028 44.9822C95.4764 44.9492 95.4398 44.9348 95.3931 44.9388L95.2355 44.9526C95.1649 44.8176 95.0821 44.6778 94.9871 44.5332C94.8911 44.3769 94.795 44.2207 94.699 44.0644C94.602 43.8964 94.5171 43.7333 94.4445 43.5749C94.3708 43.4049 94.3278 43.2499 94.3155 43.1098C94.2634 42.5144 94.2644 41.9203 94.3184 41.3274C94.383 40.7218 94.3888 40.1154 94.3357 39.5084L94.3204 39.3333C94.092 39.4121 93.8657 39.5142 93.6414 39.6397C93.4288 39.7642 93.2083 39.8658 92.9799 39.9446C92.9002 39.9751 92.8571 40.0201 92.8505 40.0794C92.844 40.1388 92.813 40.1886 92.7577 40.2287C92.642 40.2506 92.5321 40.272 92.4281 40.2929C92.323 40.3021 92.2238 40.3107 92.1304 40.3189C91.9319 40.3363 91.7213 40.3488 91.4984 40.3565C91.2863 40.3516 91.0726 40.3291 90.8573 40.2891C90.6421 40.2491 90.4365 40.1848 90.2405 40.0961C90.0562 40.0063 89.8868 39.8858 89.7324 39.7347C89.7101 39.7484 89.682 39.7626 89.648 39.7773C89.614 39.7921 89.5794 39.801 89.5444 39.804C89.5094 39.8071 89.4739 39.8043 89.4378 39.7957C89.4018 39.7871 89.3716 39.778 89.3472 39.7684C89.2426 39.6481 89.1544 39.5147 89.0828 39.368L88.8678 38.928C88.7962 38.7814 88.7192 38.6411 88.6369 38.5071C88.5546 38.3731 88.45 38.2529 88.323 38.1464C88.2696 37.9393 88.2342 37.7365 88.2169 37.5381C88.1985 37.3279 88.1981 37.1221 88.2158 36.9206C88.2218 36.7201 88.2453 36.518 88.2863 36.3145C88.2273 36.1785 88.1854 36.0351 88.1604 35.8844C88.1238 35.7346 88.0988 35.5839 88.0856 35.4321C88.0702 35.257 88.0719 35.0745 88.0906 34.8847C88.1093 34.6948 88.1528 34.5205 88.2213 34.3615C88.2887 34.191 88.3937 34.0465 88.5363 33.9281C88.6672 33.8108 88.8377 33.743 89.0478 33.7246C89.2813 33.7042 89.5029 33.7495 89.7126 33.8605C89.9213 33.9599 90.1246 34.0656 90.3226 34.1777C90.3582 34.3157 90.388 34.4543 90.4119 34.5934C90.4348 34.7208 90.4529 34.8603 90.4662 35.0121C90.4907 35.2923 90.4982 35.5798 90.4888 35.8748C90.4899 36.157 90.5033 36.444 90.5288 36.7359C90.5554 37.0394 90.6154 37.3224 90.7089 37.5847C90.8131 37.8344 90.9747 38.0673 91.1936 38.2834L91.2636 38.2773C91.356 38.2575 91.4392 38.2678 91.5134 38.3084C91.5875 38.349 91.6712 38.3652 91.7646 38.357C91.8464 38.3498 91.908 38.315 91.9496 38.2526C91.9902 38.1784 92.0455 38.1383 92.1155 38.1322C92.1856 38.1261 92.2391 38.1331 92.2762 38.1534C92.3133 38.1737 92.3435 38.1828 92.3668 38.1808C92.4952 38.1696 92.6371 38.1101 92.7923 38.0024C92.9476 37.8947 93.0435 37.7804 93.08 37.6596C93.1297 37.6906 93.1896 37.703 93.2597 37.6968C93.3531 37.6887 93.4381 37.6518 93.5147 37.5863C93.5913 37.5208 93.6938 37.4824 93.8222 37.4712C93.8923 37.465 93.912 37.4221 93.8815 37.3425C93.8617 37.2501 93.8799 37.1897 93.9363 37.1612C94.0712 37.0906 94.2159 36.9956 94.3701 36.8762C94.535 36.7442 94.669 36.6619 94.772 36.6293C94.8171 36.4724 94.8749 36.3262 94.9454 36.1907C95.0265 36.0424 95.1087 35.9058 95.1918 35.7809C95.2034 35.5093 95.2509 35.2464 95.3346 34.992C95.4182 34.7377 95.5076 34.4828 95.6029 34.2274C95.6982 33.9721 95.7877 33.7172 95.8713 33.4629C95.9549 33.2085 96.0025 32.9456 96.014 32.674C96.1312 32.5343 96.2182 32.3856 96.2749 32.2277C96.3434 32.0688 96.4001 31.9109 96.4452 31.754C96.5589 31.7088 96.7033 31.6785 96.8784 31.6632C97.0525 31.6362 97.2038 31.6171 97.3322 31.6058L97.6299 31.5798C97.671 31.6468 97.7233 31.7069 97.7868 31.7601L97.9773 31.9199C97.8865 32.0926 97.8482 32.2606 97.8625 32.424C97.8738 32.5525 97.9142 32.6783 97.9838 32.8016C98.0524 32.9133 98.1263 33.0185 98.2055 33.1175ZM119.754 33.5614C119.768 33.7249 119.777 33.8888 119.779 34.0533C119.782 34.2177 119.779 34.3827 119.77 34.5482C119.698 34.6721 119.626 34.7843 119.552 34.8848C119.489 34.9727 119.452 35.0818 119.44 35.2123C119.319 35.3169 119.185 35.4581 119.036 35.6358C118.898 35.8125 118.848 35.9816 118.886 36.143L118.641 36.1644C118.519 36.3868 118.371 36.5821 118.198 36.7502C118.024 36.9183 117.839 37.0816 117.641 37.2401L117.063 37.6964C116.876 37.8422 116.702 38.0103 116.543 38.2008C116.45 38.2206 116.376 38.2448 116.32 38.2732C116.263 38.3017 116.188 38.3141 116.093 38.3106C115.752 38.5758 115.39 38.8133 115.009 39.0231C114.639 39.2319 114.263 39.4413 113.882 39.6511C113.511 39.8482 113.141 40.0571 112.772 40.2775C112.403 40.498 112.054 40.7462 111.725 41.022C111.689 41.0134 111.642 41.0116 111.584 41.0167C111.479 41.0259 111.375 41.0526 111.273 41.0968C111.17 41.1294 111.066 41.1502 110.961 41.1594C110.914 41.1635 110.849 41.1633 110.767 41.1588C110.696 41.1532 110.642 41.1403 110.604 41.12C110.543 41.0901 110.486 41.0422 110.433 40.9762C110.38 40.9103 110.339 40.8374 110.308 40.7578C110.277 40.6664 110.251 40.5804 110.233 40.4997C110.214 40.419 110.202 40.3495 110.197 40.2911C110.191 40.221 110.19 40.1447 110.194 40.0619C110.199 39.9792 110.21 39.9018 110.227 39.8297C110.563 39.7767 110.894 39.6595 111.22 39.4781C111.557 39.2957 111.876 39.1207 112.179 38.953C112.258 38.9109 112.319 38.8644 112.361 38.8136C112.415 38.7501 112.469 38.6983 112.524 38.6582C112.578 38.6064 112.639 38.5599 112.706 38.5188C112.773 38.4776 112.859 38.4524 112.964 38.4432L113.017 38.4387C113.723 38.0358 114.408 37.6052 115.074 37.147C115.751 36.6878 116.422 36.2232 117.087 35.7534C117.113 35.6452 117.156 35.5356 117.217 35.4244C117.29 35.3121 117.357 35.2063 117.419 35.1068C117.48 34.9956 117.535 34.8849 117.584 34.7747C117.633 34.6645 117.653 34.5569 117.644 34.4518C117.625 34.2417 117.511 34.0753 117.3 33.9525L117.23 33.9587C117.09 33.9709 116.966 33.9641 116.858 33.9383C116.749 33.9008 116.646 33.8686 116.549 33.8418C116.452 33.8033 116.344 33.7774 116.225 33.7643C116.105 33.7395 115.97 33.7396 115.819 33.7645C115.757 33.7229 115.66 33.6902 115.528 33.6664C115.397 33.6426 115.29 33.6343 115.208 33.6415C114.788 33.6782 114.376 33.7437 113.973 33.8378C113.568 33.9203 113.162 33.9852 112.755 34.0326C112.655 34.1002 112.56 34.1614 112.471 34.2163C112.382 34.2711 112.273 34.3042 112.144 34.3154C112.086 34.3205 112.033 34.3251 111.987 34.3292C111.939 34.3216 111.885 34.3145 111.826 34.308C111.612 34.4208 111.368 34.5244 111.094 34.619C110.819 34.7019 110.546 34.8023 110.274 34.9202C110.012 35.0254 109.771 35.1524 109.548 35.3013C109.326 35.4501 109.161 35.641 109.052 35.8741C109.057 35.9325 109.073 35.984 109.1 36.0286C109.127 36.0616 109.143 36.1073 109.148 36.1657L109.154 36.2357C109.09 36.3119 109.05 36.3977 109.035 36.4931C109.019 36.5769 109.009 36.666 109.006 36.7604C109.001 36.8431 108.991 36.9322 108.976 37.0276C108.971 37.1104 108.938 37.1957 108.875 37.2835C108.937 37.4545 108.977 37.6451 108.995 37.8553C109.016 38.0887 109.019 38.3238 109.004 38.5603C109.001 38.7958 109.01 39.0303 109.03 39.2638C109.05 39.4856 109.091 39.6821 109.153 39.8531C109.089 39.9293 109.069 40.0369 109.093 40.1759C109.117 40.315 109.097 40.4226 109.033 40.4988C109.041 40.5922 109.07 40.6544 109.12 40.6853C109.181 40.7152 109.221 40.7705 109.24 40.8512C109.211 41.0538 109.206 41.2718 109.227 41.5053C109.256 41.8438 109.321 42.1851 109.422 42.5292C109.534 42.8723 109.658 43.2085 109.793 43.5379C109.974 43.4632 110.169 43.3991 110.376 43.3457C110.593 43.2796 110.802 43.2379 111 43.2205C111.035 43.2174 111.071 43.2202 111.107 43.2288C111.142 43.2258 111.177 43.2227 111.212 43.2196C111.246 43.346 111.303 43.4587 111.382 43.5576C111.462 43.6565 111.536 43.7677 111.606 43.891C111.554 43.9778 111.508 44.0466 111.465 44.0974C111.435 44.1588 111.424 44.2362 111.432 44.3296C111.27 44.3556 111.139 44.4082 111.04 44.4874C110.942 44.5784 110.833 44.6761 110.713 44.7808L110.643 44.7869C110.445 44.8042 110.284 44.8536 110.162 44.9348C110.041 45.0278 109.902 45.1281 109.747 45.2358C109.602 45.1897 109.459 45.1728 109.319 45.185C109.167 45.1983 109.018 45.2408 108.871 45.3124C108.678 45.247 108.515 45.1319 108.382 44.967C108.251 44.8138 108.136 44.6357 108.036 44.4327C107.937 44.2414 107.843 44.0437 107.755 43.8397C107.678 43.6347 107.591 43.4482 107.494 43.2802L107.469 43C107.446 42.7315 107.4 42.4767 107.332 42.2357C107.274 41.9819 107.234 41.7208 107.21 41.4523C107.201 41.3472 107.197 41.2358 107.199 41.118C107.212 40.9992 107.237 40.8853 107.275 40.7761C107.242 40.6731 107.222 40.5749 107.214 40.4815L107.185 40.1488C107.154 39.7986 107.135 39.4473 107.128 39.095C107.132 38.7417 107.119 38.39 107.088 38.0398C107.066 37.7829 107.025 37.5218 106.967 37.2564C106.91 37.2848 106.86 37.3128 106.815 37.3402C106.771 37.3676 106.719 37.3839 106.661 37.389C106.602 37.3941 106.544 37.3934 106.484 37.3868C106.436 37.3792 106.389 37.3716 106.341 37.364C106.215 37.2692 106.122 37.1479 106.062 37.0002C106.002 36.8526 105.926 36.7181 105.833 36.5968C105.813 36.375 105.833 36.191 105.89 36.0448C105.935 35.8879 106 35.747 106.083 35.6221C106.165 35.4855 106.248 35.3548 106.331 35.2299C106.426 35.1039 106.5 34.9503 106.555 34.7691L106.625 34.763C106.812 34.7466 106.994 34.6719 107.17 34.5388C107.346 34.3941 107.55 34.3115 107.784 34.2911C107.856 34.1788 107.959 34.0816 108.093 33.9993C108.226 33.9053 108.367 33.8283 108.514 33.7684C108.674 33.7074 108.829 33.6644 108.98 33.6394C109.141 33.6018 109.292 33.5768 109.432 33.5646C109.471 33.4788 109.537 33.4201 109.628 33.3886C109.718 33.3454 109.809 33.308 109.901 33.2765C110.003 33.2323 110.093 33.195 110.173 33.1645C110.263 33.1213 110.334 33.0563 110.385 32.9694C110.481 32.9846 110.569 32.9886 110.651 32.9815C110.803 32.9682 110.947 32.9379 111.084 32.8906C111.22 32.8317 111.356 32.7727 111.492 32.7138C111.627 32.6432 111.763 32.5784 111.899 32.5194C112.047 32.4594 112.202 32.4223 112.366 32.408C112.424 32.4029 112.483 32.4036 112.542 32.4102C112.601 32.4051 112.659 32.4 112.717 32.3949C112.811 32.3867 112.86 32.3471 112.866 32.276C112.883 32.2039 112.919 32.1478 112.975 32.1077C113.011 32.1163 113.075 32.1165 113.169 32.1083C113.402 32.0879 113.628 32.0505 113.847 31.9961C114.065 31.93 114.29 31.8867 114.524 31.8663C114.629 31.8571 114.734 31.8537 114.841 31.8562C114.947 31.8587 115.054 31.8787 115.163 31.9162C115.184 31.8791 115.204 31.8479 115.226 31.8225C115.247 31.7971 115.262 31.7664 115.271 31.7303C115.846 31.7153 116.393 31.7851 116.912 31.9396C117.443 32.0931 117.99 32.2218 118.552 32.3255C118.631 32.4245 118.721 32.5107 118.822 32.5843L119.141 32.8034C119.253 32.8759 119.359 32.949 119.46 33.0225C119.56 33.0961 119.651 33.1881 119.731 33.2987L119.754 33.5614ZM131.381 32.1383C131.32 32.2495 131.29 32.3698 131.289 32.4993C131.289 32.6287 131.293 32.746 131.302 32.851C131.315 32.9911 131.327 33.1312 131.339 33.2713C131.362 33.3987 131.379 33.5266 131.39 33.655L131.413 33.9177C131.397 34.0014 131.369 34.0862 131.33 34.172C131.29 34.2578 131.262 34.3426 131.246 34.4264C131.12 34.8726 131.077 35.3117 131.114 35.7437L131.117 35.7787C131.071 35.9239 131.024 36.0574 130.976 36.1793C130.94 36.3001 130.903 36.4209 130.867 36.5417C130.829 36.6509 130.804 36.7707 130.792 36.9011C130.779 37.0199 130.785 37.1605 130.811 37.323C130.684 37.7458 130.5 38.1383 130.262 38.5004C130.022 38.8507 129.789 39.2123 129.562 39.5849C129.325 39.6998 129.108 39.8423 128.912 40.0124C128.726 40.1816 128.549 40.3677 128.378 40.5708C128.026 40.7192 127.682 40.8846 127.345 41.067C127.008 41.2494 126.711 41.4813 126.453 41.7627C126.233 41.8054 126.015 41.8598 125.797 41.9259C125.579 41.992 125.369 42.081 125.167 42.1928L124.957 42.2111C124.852 42.2203 124.774 42.2036 124.724 42.161C124.579 42.256 124.426 42.3282 124.266 42.3775C124.105 42.4151 123.942 42.4411 123.779 42.4554C123.569 42.4738 123.358 42.4805 123.145 42.4755C122.944 42.4579 122.736 42.4407 122.523 42.4241C122.392 42.2709 122.218 42.1626 122.001 42.0993C121.782 42.0242 121.588 41.953 121.417 41.8856C121.038 41.4483 120.754 41.0203 120.564 40.6016C120.373 40.1713 120.172 39.6889 119.961 39.1545C119.97 38.989 119.997 38.8278 120.042 38.671C120.086 38.5024 120.094 38.3253 120.066 38.1395C120.223 37.5141 120.45 36.9414 120.745 36.4214C121.052 35.8888 121.407 35.3755 121.81 34.8813C121.804 34.8113 121.811 34.7519 121.83 34.7032C121.861 34.6534 121.861 34.5829 121.829 34.4915C121.842 34.5022 121.866 34.506 121.901 34.5029C121.994 34.4947 122.051 34.4663 122.07 34.4175C122.088 34.3571 122.088 34.2924 122.07 34.2234C122.467 33.9181 122.82 33.5755 123.128 33.1957C123.447 32.8148 123.818 32.4882 124.242 32.2159C124.267 32.1078 124.318 32.0152 124.394 31.938C124.469 31.8608 124.526 31.7734 124.565 31.676C124.929 31.5382 125.254 31.351 125.539 31.1143C125.824 30.8776 126.129 30.6627 126.453 30.4697C126.631 30.3483 126.8 30.2629 126.96 30.2136C127.131 30.1516 127.314 30.0885 127.508 30.0245C127.576 29.995 127.639 29.9719 127.696 29.9551C127.754 29.9383 127.817 29.9268 127.888 29.9207C128.098 29.9023 128.306 29.9253 128.511 29.9897C128.716 30.0423 128.923 30.0595 129.133 30.0411C129.192 30.036 129.238 30.0319 129.273 30.0289C129.319 30.0131 129.365 29.9973 129.41 29.9816C129.63 30.2094 129.898 30.3742 130.212 30.4761C130.298 30.645 130.393 30.7897 130.497 30.9099C130.614 31.0291 130.73 31.1483 130.846 31.2676C130.962 31.3751 131.067 31.5012 131.162 31.6458C131.267 31.7777 131.34 31.9419 131.381 32.1383ZM129.71 33.2021C129.705 33.1437 129.694 33.0917 129.678 33.046C129.559 33.0212 129.444 32.9842 129.333 32.9351C129.223 32.8859 129.104 32.8669 128.976 32.8781C128.894 32.8853 128.814 32.91 128.735 32.9521C128.716 32.8714 128.676 32.8161 128.615 32.7862C128.565 32.7553 128.504 32.7312 128.432 32.714C128.37 32.6841 128.304 32.6663 128.233 32.6608C128.173 32.6425 128.117 32.6121 128.066 32.5695C128.023 32.4792 127.974 32.3894 127.919 32.3C127.875 32.198 127.798 32.1283 127.689 32.0908C127.593 32.205 127.478 32.3033 127.344 32.3856C127.209 32.4563 127.069 32.5274 126.922 32.599C126.787 32.6697 126.653 32.752 126.52 32.8459C126.399 32.9389 126.297 33.0478 126.213 33.1727L125.898 33.2003C125.839 33.3349 125.749 33.4428 125.627 33.5241C125.503 33.5937 125.4 33.6909 125.317 33.8158C125.138 33.9256 124.973 34.0576 124.822 34.212C124.682 34.3537 124.542 34.5071 124.404 34.6721C124.264 34.8255 124.125 34.9847 123.987 35.1497C123.86 35.3138 123.72 35.4671 123.568 35.6098C123.445 35.95 123.301 36.2508 123.135 36.5123C122.981 36.7611 122.832 37.0152 122.69 37.2747C122.56 37.5331 122.449 37.8134 122.358 38.1155C122.277 38.4048 122.256 38.7596 122.292 39.1799L122.308 39.355C122.313 39.4134 122.324 39.4713 122.341 39.5286C122.507 39.6788 122.644 39.8432 122.754 40.0218C122.876 40.1994 123.057 40.3188 123.297 40.3801C123.539 40.4531 123.788 40.4725 124.043 40.4383C124.311 40.4032 124.57 40.4099 124.822 40.4585C125.373 40.3044 125.895 40.0881 126.388 39.8097C126.892 39.5186 127.363 39.1833 127.8 38.8039C127.865 38.7394 127.942 38.6739 128.03 38.6074C128.117 38.5292 128.187 38.4525 128.239 38.3773C128.292 38.3138 128.334 38.2455 128.362 38.1724C128.403 38.0983 128.444 38.03 128.486 37.9676C128.566 37.8076 128.658 37.6467 128.761 37.4847C128.864 37.3227 128.975 37.1719 129.092 37.0322C129.128 36.7703 129.182 36.5185 129.255 36.2769C129.327 36.0235 129.4 35.776 129.473 35.5344C129.546 35.2927 129.601 35.0468 129.638 34.7965C129.686 34.5452 129.699 34.2853 129.675 34.0168C129.67 33.9584 129.659 33.8948 129.641 33.8257C129.635 33.7557 129.623 33.692 129.606 33.6346C129.689 33.498 129.723 33.3539 129.71 33.2021ZM155.607 37.1652C155.599 37.3423 155.546 37.4822 155.449 37.5848C155.364 37.6864 155.261 37.7836 155.14 37.8766C155.08 37.87 155.021 37.8693 154.963 37.8744C154.915 37.8668 154.862 37.8656 154.804 37.8707C154.441 37.8907 154.101 37.9675 153.783 38.1011C153.477 38.2338 153.157 38.3383 152.822 38.4146C152.708 38.4481 152.598 38.4695 152.493 38.4787C152.398 38.4752 152.3 38.4897 152.197 38.5223C151.828 38.6133 151.435 38.6947 151.018 38.7665C150.601 38.8383 150.185 38.9218 149.769 39.0169C149.353 39.1004 148.944 39.2009 148.543 39.3183C148.152 39.4231 147.788 39.5609 147.45 39.7316C147.413 39.7113 147.376 39.691 147.339 39.6707C147.301 39.6388 147.258 39.6248 147.211 39.6289C147.095 39.6391 146.985 39.6664 146.883 39.7106C146.781 39.7548 146.677 39.7756 146.571 39.7732C146.461 39.8534 146.337 39.9172 146.2 39.9645C146.073 39.9991 145.941 40.0341 145.803 40.0698C145.676 40.0927 145.549 40.1272 145.424 40.1735C145.299 40.2198 145.182 40.2947 145.073 40.3983C144.976 40.3598 144.857 40.3466 144.717 40.3589C144.587 40.3585 144.496 40.3194 144.442 40.2418C144.185 40.3937 143.906 40.5004 143.605 40.562C143.316 40.6226 143.02 40.6603 142.715 40.6752C142.516 40.6809 142.286 40.6716 142.025 40.6474C141.764 40.6231 141.501 40.5814 141.237 40.5221C140.972 40.4512 140.724 40.3671 140.492 40.2698C140.259 40.1607 140.076 40.0238 139.944 39.8589C139.852 39.7493 139.783 39.626 139.735 39.489C139.688 39.3519 139.597 39.254 139.463 39.1952C139.474 38.9236 139.492 38.6574 139.516 38.3965C139.54 38.1356 139.564 37.8688 139.587 37.5962C139.803 37.3773 140.007 37.1478 140.198 36.9076C140.388 36.6674 140.566 36.4166 140.732 36.1551C140.944 36.0306 141.137 35.8843 141.311 35.7162C141.496 35.5471 141.675 35.3785 141.849 35.2103C142.033 35.0295 142.212 34.8551 142.385 34.687C142.571 34.5179 142.769 34.3652 142.981 34.2291C143.008 34.1443 143.05 34.076 143.104 34.0242C143.169 33.9597 143.234 33.901 143.3 33.8482C143.365 33.7837 143.424 33.7197 143.478 33.6562C143.53 33.5811 143.563 33.4958 143.579 33.4004C143.966 33.1195 144.295 32.7789 144.566 32.3788C144.836 31.9787 144.998 31.5411 145.051 31.0659C144.838 30.9198 144.601 30.8347 144.34 30.8105C144.09 30.7735 143.83 30.7551 143.559 30.7553C143.324 30.764 143.079 30.7855 142.823 30.8196C142.579 30.8528 142.328 30.8689 142.069 30.868C141.819 30.9722 141.555 31.0482 141.277 31.0961C141.011 31.1429 140.744 31.1898 140.478 31.2366C140.21 31.2718 139.945 31.3303 139.682 31.4121C139.429 31.4813 139.186 31.5967 138.953 31.7582C138.906 31.7623 138.859 31.7605 138.811 31.7529C138.775 31.7443 138.734 31.7421 138.687 31.7462C138.313 31.7672 137.969 31.8737 137.657 32.0657C137.343 32.2461 137.035 32.4259 136.733 32.6053C136.714 32.654 136.705 32.6901 136.707 32.7134C136.714 32.7835 136.731 32.8525 136.761 32.9205C136.801 32.9758 136.824 33.0385 136.83 33.1085C136.82 33.1212 136.815 33.1334 136.816 33.1451C136.817 33.1567 136.812 33.1689 136.801 33.1816C136.795 33.241 136.782 33.2951 136.763 33.3438C136.755 33.3915 136.742 33.4456 136.724 33.506C136.628 33.8908 136.59 34.2647 136.61 34.6276C136.625 34.9322 136.651 35.2298 136.688 35.5207C136.726 35.8115 136.752 36.1092 136.767 36.4137C136.776 36.7894 136.748 37.1447 136.683 37.4797C136.766 37.7548 136.845 38.0479 136.919 38.359C136.992 38.6585 137.077 38.9569 137.174 39.2543C137.27 39.5517 137.378 39.8422 137.497 40.1259C137.627 40.3969 137.784 40.6537 137.97 40.8962C137.961 40.9206 137.968 40.9376 137.992 40.9472C138.017 40.9568 138.041 40.9606 138.064 40.9586L138.204 40.9463C138.263 40.9412 138.288 40.9625 138.28 41.0102C138.307 41.0432 138.327 41.0767 138.342 41.1107C138.356 41.133 138.381 41.1543 138.418 41.1746C138.445 41.2076 138.449 41.2543 138.43 41.3147C138.439 41.5492 138.4 41.7703 138.312 41.978C138.224 42.1856 138.179 42.4072 138.176 42.6427C138.039 42.69 137.912 42.7187 137.795 42.729C137.596 42.7346 137.416 42.6916 137.255 42.5998C137.095 42.5197 136.945 42.4152 136.804 42.2864C136.663 42.1575 136.528 42.0281 136.399 41.8983C136.269 41.7567 136.13 41.6395 135.98 41.5467C135.87 41.227 135.757 40.8722 135.64 40.4825C135.536 40.0917 135.383 39.7638 135.184 39.499C135.221 39.3898 135.233 39.2594 135.22 39.1076C135.211 38.8731 135.168 38.6475 135.09 38.4308C135.023 38.2014 134.991 37.9689 134.994 37.7334C134.983 37.605 134.983 37.4756 134.995 37.3451C135.019 37.2136 135.031 37.0832 135.032 36.9537C135.026 36.7542 134.986 36.5637 134.911 36.382C134.848 36.1993 134.814 36.0082 134.808 35.8087C134.811 35.7143 134.821 35.6252 134.837 35.5414C134.864 35.445 134.904 35.3592 134.956 35.284C134.885 35.1491 134.856 35.0163 134.868 34.8859C134.863 34.6864 134.87 34.4976 134.889 34.3194C134.909 34.1412 134.917 33.9641 134.913 33.7879C134.905 33.6945 134.892 33.6075 134.873 33.5268C134.853 33.4344 134.828 33.3484 134.797 33.2687L134.635 33.23C134.565 33.2361 134.497 33.2597 134.43 33.3009C134.374 33.341 134.325 33.3865 134.283 33.4373C134.24 33.488 134.203 33.5325 134.171 33.5706C134.138 33.597 134.104 33.6117 134.069 33.6148C134.046 33.6168 134.016 33.6194 133.981 33.6224C133.957 33.6128 133.933 33.609 133.91 33.611C133.886 33.6131 133.842 33.6405 133.776 33.6933C133.722 33.7451 133.65 33.8043 133.562 33.8709C133.484 33.9247 133.407 33.9844 133.331 34.0499C133.253 34.1038 133.191 34.1386 133.146 34.1543C133.015 34.1422 132.907 34.1105 132.82 34.0593C132.744 33.9954 132.668 33.9373 132.593 33.8851C132.528 33.8201 132.459 33.7674 132.385 33.7268C132.31 33.6746 132.22 33.6589 132.116 33.6798C132.075 33.6128 132.051 33.5384 132.044 33.4567C132.025 33.376 132.018 33.2943 132.022 33.2115L131.998 32.9314C132.066 32.7725 132.166 32.6402 132.298 32.5345C132.417 32.4182 132.55 32.3184 132.695 32.2351L133.132 31.9851C133.278 31.9018 133.41 31.802 133.53 31.6857L133.687 31.6719C133.898 31.6652 134.076 31.6085 134.219 31.5018C134.375 31.3941 134.517 31.2758 134.647 31.1468C134.776 31.0061 134.905 30.8654 135.034 30.7248C135.174 30.5831 135.329 30.4695 135.498 30.3842C135.631 30.4313 135.77 30.4721 135.914 30.5065C136.058 30.5293 136.206 30.5399 136.358 30.5383C136.51 30.525 136.666 30.4879 136.825 30.4269C136.984 30.3659 137.105 30.2671 137.187 30.1305C137.248 30.1487 137.296 30.1622 137.332 30.1708C137.379 30.1667 137.431 30.1621 137.49 30.157C137.666 30.1534 137.839 30.1147 138.009 30.041C138.178 29.9556 138.34 29.8591 138.495 29.7514C138.73 29.7427 138.956 29.7111 139.175 29.6566C139.404 29.5895 139.628 29.5229 139.846 29.4568C140.075 29.3897 140.299 29.3289 140.518 29.2745C140.747 29.2073 140.979 29.1694 141.214 29.1607C141.6 29.1386 141.976 29.0704 142.343 28.956C142.709 28.8416 143.086 28.7792 143.473 28.7689C143.743 28.757 144.008 28.7574 144.268 28.77C144.538 28.7698 144.807 28.7522 145.075 28.717C145.232 28.7738 145.372 28.8262 145.494 28.8744C145.627 28.9099 145.785 28.9077 145.97 28.868C146.371 29.1506 146.742 29.4887 147.082 29.8824L147.108 30.1801C147.12 30.4496 147.096 30.7164 147.037 30.9804C146.978 31.2443 146.901 31.5098 146.807 31.7769C146.723 32.0312 146.628 32.2866 146.521 32.543C146.413 32.7877 146.311 33.0319 146.215 33.2756C145.516 34.0308 144.817 34.7801 144.117 35.5236C143.418 36.2671 142.693 36.9893 141.942 37.6902C141.929 37.8089 141.903 37.9171 141.865 38.0145C141.838 38.111 141.823 38.2123 141.821 38.3184C141.826 38.3767 141.836 38.4229 141.851 38.4569C141.934 38.4731 142.009 38.5137 142.073 38.5786C142.148 38.6309 142.179 38.7106 142.165 38.8177L142.322 38.8039C142.381 38.7988 142.412 38.8196 142.416 38.8663L142.698 38.8593C143.143 38.8438 143.586 38.7933 144.025 38.7078C144.465 38.6223 144.904 38.5309 145.342 38.4338C145.793 38.3356 146.237 38.2437 146.677 38.1582C147.115 38.061 147.556 37.9872 147.999 37.9367C148.101 37.8925 148.209 37.8536 148.324 37.82C148.438 37.7865 148.539 37.7306 148.627 37.6524L148.679 37.6478C148.761 37.6406 148.821 37.6589 148.86 37.7025C148.911 37.7451 148.978 37.7687 149.061 37.7732C149.119 37.7681 149.176 37.7513 149.233 37.7229C149.301 37.6934 149.369 37.6697 149.438 37.6519C149.598 37.5909 149.764 37.5469 149.938 37.5199C150.124 37.4919 150.304 37.4586 150.477 37.4199C151.149 37.3023 151.817 37.2086 152.481 37.1387C153.145 37.0571 153.802 36.9113 154.455 36.7013C154.52 36.778 154.607 36.8292 154.715 36.855C154.822 36.8692 154.936 36.8887 155.055 36.9135C155.174 36.9266 155.282 36.9466 155.378 36.9734C155.486 36.9993 155.563 37.0632 155.607 37.1652ZM164.642 28.0991C164.609 28.2549 164.545 28.4017 164.451 28.5393L164.186 28.933C164.102 29.058 164.032 29.1935 163.974 29.3397C163.927 29.4733 163.923 29.6266 163.962 29.7996C163.938 29.8017 163.909 29.8042 163.874 29.8073C163.838 29.7987 163.808 29.7954 163.785 29.7974C163.598 29.8138 163.456 29.8732 163.359 29.9758C163.273 30.0657 163.151 30.147 162.992 30.2197C162.963 30.1517 162.928 30.09 162.888 30.0347C162.847 29.9677 162.79 29.9256 162.718 29.9084C162.443 29.9913 162.167 30.0625 161.89 30.122C161.612 30.1699 161.335 30.2294 161.059 30.3006C160.932 30.3352 160.807 30.3815 160.683 30.4394C160.557 30.4857 160.426 30.5324 160.289 30.5797C160.221 30.6092 160.146 30.6275 160.064 30.6347C159.982 30.6301 159.9 30.6373 159.819 30.6561C159.54 30.6923 159.239 30.7422 158.915 30.8058C158.59 30.8578 158.306 30.9708 158.062 31.1451C157.943 31.1319 157.819 31.1252 157.69 31.1247C157.56 31.1243 157.431 31.1297 157.303 31.1409C157.023 31.1654 156.716 31.2217 156.383 31.3097C156.06 31.385 155.777 31.5097 155.533 31.684C155.473 31.6657 155.407 31.6538 155.336 31.6483C155.277 31.6417 155.206 31.642 155.124 31.6492C155.101 31.6512 155.084 31.6586 155.073 31.6713C155.062 31.6723 155.044 31.6738 155.021 31.6759C155.018 31.7819 155.039 31.886 155.083 31.988C155.138 32.0773 155.221 32.1465 155.331 32.1957C155.295 32.3282 155.284 32.4704 155.298 32.6221C155.315 32.8206 155.344 33.018 155.385 33.2144C155.437 33.4098 155.472 33.6068 155.489 33.8052C155.509 34.027 155.495 34.2047 155.448 34.3382C155.595 34.6782 155.686 35.0467 155.721 35.4436C155.733 35.5837 155.734 35.7248 155.723 35.867C155.722 35.9964 155.729 36.137 155.742 36.2888C155.753 36.4172 155.809 36.5182 155.91 36.5917C156.009 36.6536 156.064 36.7487 156.076 36.8771C156.08 36.9238 156.072 36.9716 156.053 37.0203C156.213 36.971 156.367 36.9105 156.513 36.8388C156.659 36.7555 156.814 36.7067 156.977 36.6924C157.07 36.6842 157.16 36.6941 157.244 36.722C157.341 36.7488 157.427 36.7884 157.502 36.8406C157.495 36.9 157.489 36.9652 157.484 37.0363C157.49 37.1063 157.496 37.1764 157.502 37.2464C157.513 37.3748 157.524 37.4974 157.534 37.6142C157.555 37.7182 157.577 37.8339 157.6 37.9613C157.521 38.1329 157.423 38.2886 157.305 38.4282C157.2 38.5668 157.132 38.7374 157.103 38.94C156.928 38.9553 156.774 39.0099 156.641 39.1039C156.519 39.1852 156.403 39.2776 156.295 39.3812C156.185 39.4732 156.076 39.5651 155.966 39.657C155.855 39.7373 155.73 39.7836 155.59 39.7958C155.415 39.8111 155.29 39.7985 155.216 39.7579C155.141 39.7057 155.083 39.6519 155.043 39.5966C155.003 39.5413 154.963 39.4918 154.924 39.4482C154.897 39.4036 154.837 39.3911 154.745 39.411C154.708 39.2613 154.649 39.1253 154.568 39.003C154.485 38.869 154.398 38.7414 154.305 38.6201C154.224 38.4979 154.136 38.3761 154.044 38.2548C153.961 38.1208 153.896 37.9854 153.849 37.8483C153.753 37.5509 153.696 37.2383 153.679 36.9104C153.662 36.5825 153.582 36.2719 153.439 35.9786C153.448 35.8131 153.451 35.6481 153.448 35.4837C153.445 35.3075 153.436 35.1377 153.421 34.9743C153.393 34.6474 153.353 34.3274 153.302 34.0142C153.262 33.6884 153.221 33.3567 153.18 33.0192C153.089 32.9212 153.026 32.8091 152.991 32.6827C152.967 32.5437 152.944 32.4104 152.921 32.283C152.883 32.2511 152.839 32.2196 152.789 32.1887C152.751 32.1567 152.724 32.1121 152.707 32.0547C152.612 32.0396 152.541 32.034 152.494 32.0381C152.33 32.0524 152.194 32.1055 152.084 32.1974C151.985 32.2767 151.889 32.3204 151.796 32.3285C151.702 32.3367 151.614 32.3327 151.53 32.3165C151.446 32.3003 151.364 32.2958 151.282 32.3029C151.212 32.3091 151.172 32.3301 151.164 32.3662C151.166 32.3895 151.145 32.4149 151.1 32.4424C151.067 32.4688 150.987 32.4993 150.861 32.5339C150.735 32.5684 150.591 32.6046 150.429 32.6422C150.279 32.6672 150.128 32.6921 149.977 32.7171C149.838 32.741 149.745 32.755 149.698 32.7591C149.512 32.7754 149.368 32.7527 149.269 32.6908C149.157 32.6183 149.026 32.5414 148.878 32.4603C148.895 32.3882 148.903 32.3405 148.901 32.3171C148.891 32.2004 148.848 32.1101 148.771 32.0461C148.694 31.9706 148.653 31.9036 148.648 31.8452C148.637 31.7168 148.681 31.613 148.779 31.5337C148.867 31.4555 148.91 31.34 148.908 31.1872C149.166 31.047 149.433 30.9354 149.708 30.8525C149.983 30.7697 150.265 30.6979 150.554 30.6374C150.843 30.5768 151.125 30.511 151.401 30.4397C151.689 30.3675 151.968 30.2666 152.239 30.137C152.322 30.1416 152.399 30.1466 152.47 30.1521C152.552 30.145 152.633 30.1378 152.715 30.1307C153.065 30.1 153.407 30.0349 153.739 29.9352C154.082 29.8229 154.435 29.7509 154.797 29.7192C154.89 29.711 154.984 29.7087 155.078 29.7122C155.173 29.7157 155.268 29.725 155.363 29.7402C155.824 29.6293 156.278 29.5131 156.727 29.3915C157.186 29.269 157.659 29.157 158.144 29.0558C158.376 29.012 158.602 28.9746 158.822 28.9435C159.054 28.8997 159.285 28.8501 159.515 28.7947C159.596 28.7758 159.653 28.7532 159.686 28.7268C159.729 28.6877 159.747 28.6214 159.739 28.528C159.848 28.5656 159.967 28.5787 160.095 28.5675C160.294 28.5501 160.483 28.4982 160.664 28.4118C160.845 28.3254 161.034 28.2736 161.233 28.2562C161.279 28.2521 161.321 28.2544 161.357 28.263C161.392 28.2599 161.427 28.2569 161.462 28.2538C161.544 28.2466 161.581 28.2081 161.575 28.138C161.58 28.0553 161.633 27.9976 161.737 27.9651C161.816 27.9346 161.931 27.9069 162.082 27.8819C162.233 27.857 162.389 27.8315 162.552 27.8055C162.725 27.7669 162.881 27.7297 163.019 27.6941C163.167 27.6458 163.274 27.5894 163.339 27.5249L163.445 27.3216C163.656 27.3149 163.816 27.395 163.925 27.5619C164.044 27.7162 164.118 27.892 164.147 28.0894C164.198 28.1321 164.264 28.1498 164.346 28.1426C164.438 28.1228 164.519 28.1098 164.59 28.1037L164.642 28.0991ZM176.65 26.9956C176.656 27.0656 176.626 27.127 176.56 27.1799C176.506 27.2317 176.44 27.2845 176.363 27.3383C176.297 27.3912 176.225 27.4503 176.149 27.5159C176.084 27.5804 176.043 27.6545 176.027 27.7383L175.869 27.752C175.799 27.7582 175.766 27.7846 175.77 27.8313L175.718 27.8359C175.613 27.8451 175.54 27.822 175.5 27.7667C175.459 27.6997 175.38 27.6713 175.263 27.6816C174.971 27.7071 174.68 27.7385 174.389 27.7757C174.109 27.8002 173.824 27.831 173.533 27.8682C172.727 27.9387 171.936 28.0374 171.159 28.1642C170.392 28.2783 169.642 28.5086 168.908 28.8552C168.885 28.8689 168.857 28.8773 168.822 28.8803C168.763 28.8855 168.726 28.8652 168.711 28.8195C168.706 28.7728 168.675 28.752 168.617 28.7571C168.453 28.7714 168.303 28.8022 168.166 28.8495C168.029 28.8968 167.879 28.9334 167.717 28.9594C167.545 29.1391 167.34 29.2923 167.104 29.4188C166.88 29.5443 166.644 29.6708 166.396 29.7983C166.159 29.9132 165.929 30.0392 165.706 30.1764C165.482 30.3019 165.29 30.4598 165.13 30.6502C165.166 30.7883 165.195 30.9269 165.219 31.0659C165.254 31.1923 165.277 31.3197 165.288 31.4481C165.332 31.9501 165.329 32.4503 165.278 32.9488C165.227 33.4356 165.222 33.9242 165.265 34.4145L165.288 34.6772C165.295 34.7589 165.309 34.8459 165.329 34.9383C165.357 34.9946 165.402 35.0319 165.462 35.0502C165.533 35.0557 165.593 35.074 165.643 35.1049C165.786 34.9865 165.93 34.8915 166.077 34.8199C166.234 34.7356 166.392 34.657 166.55 34.5844C166.719 34.499 166.877 34.4205 167.024 34.3489C167.181 34.2645 167.332 34.169 167.475 34.0623L167.966 34.0194C168.086 33.9148 168.232 33.8315 168.403 33.7695C168.574 33.7075 168.681 33.5922 168.725 33.4236C168.751 33.4449 168.775 33.4546 168.798 33.4525L168.868 33.4464C169.008 33.4341 169.146 33.3927 169.281 33.3221C169.428 33.2504 169.574 33.1788 169.721 33.1071C169.867 33.0238 170.013 32.9463 170.159 32.8747C170.306 32.803 170.461 32.76 170.625 32.7457C170.66 32.7427 170.689 32.746 170.714 32.7556C170.749 32.7525 170.784 32.7495 170.819 32.7464C170.878 32.6235 170.97 32.5273 171.093 32.4577C171.216 32.3764 171.345 32.3063 171.481 32.2473C171.617 32.1884 171.753 32.1294 171.889 32.0705C172.036 32.0105 172.16 31.9409 172.259 31.8617L172.329 31.8555C172.399 31.8494 172.453 31.8623 172.491 31.8943C172.54 31.9135 172.594 31.9323 172.655 31.9505C172.963 31.7118 173.287 31.5776 173.625 31.548C173.974 31.5057 174.334 31.4507 174.705 31.383C174.799 31.5159 174.879 31.6265 174.946 31.7148C175.023 31.7904 175.069 31.9099 175.083 32.0734C175.09 32.1551 175.089 32.214 175.081 32.25C174.956 32.3079 174.861 32.3575 174.794 32.3986L174.61 32.5206C174.554 32.549 174.486 32.5785 174.406 32.609C174.326 32.6278 174.209 32.6439 174.058 32.6571C173.964 32.6653 173.926 32.6981 173.943 32.7554C173.958 32.8011 173.932 32.8328 173.863 32.8506C173.704 32.9233 173.545 32.9843 173.385 33.0336C173.224 33.0829 173.065 33.1439 172.907 33.2166C172.577 33.3513 172.249 33.4977 171.922 33.6557C171.605 33.801 171.275 33.924 170.93 34.0247C170.659 34.2837 170.361 34.5039 170.035 34.6853C169.709 34.855 169.369 35.0024 169.015 35.1275C168.655 35.4414 168.298 35.7372 167.946 36.0151C167.593 36.2812 167.19 36.5165 166.737 36.7207C166.684 36.7842 166.619 36.8429 166.541 36.8967C166.463 36.9506 166.417 37.0252 166.402 37.1207C166.378 37.1227 166.349 37.1253 166.314 37.1283C166.29 37.1187 166.26 37.1154 166.225 37.1185C166.062 37.1328 165.937 37.1849 165.851 37.2748C165.775 37.3519 165.674 37.4078 165.548 37.4424C165.505 37.6226 165.489 37.777 165.5 37.9054C165.514 38.0688 165.556 38.2122 165.626 38.3355C165.695 38.4588 165.776 38.5752 165.868 38.6848C165.972 38.7934 166.075 38.902 166.179 39.0106C166.293 39.1064 166.391 39.2155 166.472 39.3378C166.461 39.4799 166.424 39.5949 166.361 39.6828C166.311 39.7813 166.248 39.8691 166.173 39.9463C166.098 40.0352 166.023 40.124 165.949 40.2129C165.886 40.3008 165.843 40.4104 165.819 40.5419C165.612 40.5953 165.409 40.6307 165.211 40.6481C165.082 40.6593 164.946 40.6535 164.803 40.6308C164.673 40.6187 164.546 40.5827 164.423 40.5228C164.214 40.2824 164.056 40.0198 163.948 39.7351C163.853 39.4493 163.728 39.1662 163.574 38.8855L163.581 38.7614C163.559 38.5046 163.492 38.2869 163.383 38.1083C163.284 37.9169 163.138 37.7297 162.945 37.5466C162.955 37.5222 162.957 37.4808 162.952 37.4225C162.939 37.2707 162.88 37.1347 162.775 37.0145C162.775 36.7439 162.827 36.5276 162.93 36.3657C163.045 36.2027 163.171 36.0211 163.306 35.8211L163.288 35.6109C163.244 35.1089 163.242 34.6151 163.282 34.1293C163.332 33.6308 163.336 33.1364 163.293 32.6461C163.266 32.3425 163.22 32.0761 163.152 31.8467C163.116 31.8381 163.069 31.8363 163.011 31.8414C162.952 31.8465 162.907 31.8681 162.875 31.9062C162.842 31.9326 162.816 31.9644 162.795 32.0014C162.775 32.0385 162.749 32.0761 162.717 32.1142C162.697 32.1512 162.658 32.1781 162.601 32.1949C162.399 32.1773 162.263 32.0951 162.191 31.9485C162.119 31.8018 162.075 31.6351 162.059 31.4483C162.05 31.3432 162.046 31.2376 162.049 31.1316C162.051 31.0255 162.053 30.9135 162.055 30.7958C162.455 30.2667 162.947 29.7649 163.529 29.2905C164.111 28.8161 164.694 28.4239 165.279 28.114C165.313 28.0992 165.353 28.0898 165.4 28.0857C165.446 28.0816 165.488 28.0897 165.525 28.11C165.561 28.1186 165.603 28.1209 165.649 28.1168C165.684 28.1138 165.713 28.0995 165.734 28.0741C165.851 28.0639 165.929 28.0218 165.97 27.9476C166.01 27.8735 166.069 27.7978 166.144 27.7206C166.231 27.7719 166.304 27.7949 166.362 27.7898C166.479 27.7796 166.591 27.7168 166.698 27.6016C166.806 27.4863 166.929 27.4108 167.067 27.3752C167.596 27.2349 168.114 27.113 168.623 27.0097C169.143 26.9054 169.651 26.7257 170.146 26.4706C170.268 26.5188 170.388 26.5436 170.505 26.545C170.623 26.5465 170.741 26.5421 170.857 26.5319C170.986 26.5207 171.125 26.4967 171.274 26.4601C171.435 26.4108 171.557 26.3295 171.641 26.2163C172.019 26.2303 172.417 26.2131 172.837 26.1646C173.268 26.1152 173.694 26.0837 174.117 26.0703C174.551 26.0558 174.97 26.078 175.375 26.1366C175.78 26.1953 176.145 26.3339 176.47 26.5525C176.501 26.6322 176.537 26.7055 176.578 26.7725C176.619 26.8395 176.643 26.9138 176.65 26.9956ZM186.804 27.2894C186.743 27.4006 186.713 27.5209 186.712 27.6504C186.712 27.7798 186.716 27.8971 186.725 28.0021C186.738 28.1422 186.75 28.2823 186.762 28.4224C186.785 28.5498 186.802 28.6777 186.813 28.8061L186.836 29.0688C186.82 29.1526 186.792 29.2373 186.753 29.3231C186.713 29.4089 186.685 29.4937 186.669 29.5775C186.544 30.0237 186.5 30.4628 186.537 30.8948L186.54 30.9298C186.494 31.075 186.447 31.2085 186.399 31.3304C186.363 31.4512 186.326 31.572 186.29 31.6928C186.252 31.802 186.227 31.9218 186.215 32.0523C186.202 32.171 186.208 32.3116 186.234 32.4741C186.107 32.897 185.923 33.2894 185.685 33.6515C185.445 34.0018 185.212 34.3634 184.985 34.7361C184.748 34.8509 184.532 34.9934 184.335 35.1635C184.149 35.3327 183.972 35.5188 183.801 35.7219C183.45 35.8703 183.105 36.0357 182.768 36.2181C182.431 36.4005 182.134 36.6324 181.876 36.9138C181.657 36.9565 181.438 37.0109 181.22 37.077C181.002 37.1431 180.792 37.2321 180.591 37.3439L180.38 37.3623C180.275 37.3714 180.197 37.3547 180.147 37.3121C180.002 37.4071 179.85 37.4793 179.689 37.5286C179.528 37.5662 179.365 37.5922 179.202 37.6065C178.992 37.6249 178.781 37.6316 178.568 37.6267C178.367 37.609 178.16 37.5918 177.946 37.5752C177.815 37.422 177.641 37.3137 177.424 37.2504C177.206 37.1754 177.011 37.1041 176.84 37.0367C176.461 36.5994 176.177 36.1714 175.987 35.7527C175.796 35.3224 175.595 34.84 175.384 34.3056C175.393 34.1401 175.42 33.979 175.465 33.8221C175.509 33.6535 175.517 33.4764 175.489 33.2906C175.646 32.6652 175.873 32.0925 176.168 31.5726C176.475 31.0399 176.83 30.5266 177.233 30.0325C177.227 29.9624 177.234 29.903 177.253 29.8543C177.284 29.8045 177.284 29.734 177.252 29.6426C177.265 29.6533 177.289 29.6571 177.324 29.654C177.417 29.6458 177.474 29.6174 177.493 29.5686C177.511 29.5082 177.511 29.4435 177.494 29.3745C177.89 29.0692 178.243 28.7266 178.551 28.3468C178.87 27.9659 179.242 27.6394 179.665 27.3671C179.691 27.2589 179.741 27.1663 179.817 27.0891C179.892 27.0119 179.95 26.9245 179.988 26.8271C180.352 26.6893 180.677 26.5021 180.962 26.2654C181.247 26.0287 181.552 25.8138 181.876 25.6208C182.054 25.4994 182.223 25.414 182.383 25.3647C182.554 25.3027 182.737 25.2396 182.931 25.1756C182.999 25.1461 183.062 25.123 183.119 25.1062C183.177 25.0894 183.241 25.0779 183.311 25.0718C183.521 25.0534 183.729 25.0764 183.934 25.1408C184.139 25.1935 184.346 25.2106 184.556 25.1922C184.615 25.1871 184.661 25.183 184.696 25.18C184.742 25.1642 184.788 25.1484 184.833 25.1327C185.053 25.3605 185.321 25.5253 185.635 25.6272C185.721 25.7962 185.816 25.9408 185.92 26.061C186.037 26.1802 186.153 26.2995 186.269 26.4187C186.385 26.5262 186.49 26.6523 186.585 26.7969C186.69 26.9288 186.764 27.093 186.804 27.2894ZM185.133 28.3532C185.128 28.2949 185.117 28.2428 185.102 28.1972C184.982 28.1723 184.867 28.1353 184.757 28.0862C184.646 28.037 184.527 28.018 184.399 28.0293C184.317 28.0364 184.237 28.0611 184.158 28.1032C184.139 28.0225 184.099 27.9672 184.038 27.9373C183.988 27.9064 183.927 27.8823 183.855 27.8651C183.794 27.8352 183.727 27.8174 183.656 27.8119C183.596 27.7936 183.54 27.7632 183.489 27.7206C183.446 27.6303 183.397 27.5405 183.342 27.4512C183.298 27.3492 183.221 27.2794 183.112 27.2419C183.016 27.3562 182.901 27.4544 182.767 27.5367C182.633 27.6074 182.492 27.6785 182.345 27.7501C182.21 27.8208 182.076 27.9031 181.943 27.9971C181.822 28.09 181.72 28.1989 181.636 28.3239L181.321 28.3514C181.262 28.486 181.172 28.5939 181.05 28.6752C180.926 28.7448 180.823 28.842 180.74 28.9669C180.561 29.0767 180.396 29.2087 180.245 29.3631C180.105 29.5048 179.965 29.6582 179.827 29.8232C179.687 29.9766 179.548 30.1358 179.41 30.3008C179.283 30.4649 179.143 30.6182 178.991 30.7609C178.868 31.1011 178.724 31.4019 178.558 31.6634C178.404 31.9122 178.255 32.1664 178.113 32.4258C177.983 32.6842 177.872 32.9645 177.781 33.2666C177.701 33.5559 177.679 33.9108 177.715 34.331L177.731 34.5061C177.736 34.5645 177.747 34.6224 177.764 34.6797C177.93 34.8299 178.068 34.9943 178.177 35.1729C178.299 35.3505 178.48 35.4699 178.72 35.5312C178.962 35.6042 179.211 35.6236 179.467 35.5894C179.734 35.5543 179.993 35.561 180.245 35.6096C180.796 35.4555 181.318 35.2392 181.811 34.9608C182.315 34.6697 182.786 34.3344 183.223 33.955C183.288 33.8905 183.365 33.825 183.453 33.7585C183.54 33.6803 183.61 33.6036 183.662 33.5284C183.716 33.4649 183.757 33.3967 183.785 33.3235C183.826 33.2494 183.867 33.1811 183.909 33.1187C183.989 32.9587 184.081 32.7978 184.184 32.6358C184.288 32.4738 184.398 32.323 184.515 32.1834C184.551 31.9214 184.605 31.6696 184.678 31.428C184.75 31.1746 184.823 30.9271 184.896 30.6855C184.969 30.4438 185.024 30.1979 185.061 29.9476C185.109 29.6963 185.122 29.4364 185.098 29.1679C185.093 29.1096 185.082 29.0459 185.064 28.9768C185.058 28.9068 185.046 28.8431 185.029 28.7857C185.112 28.6492 185.146 28.505 185.133 28.3532ZM198.049 31.9874C198.061 32.1158 198.023 32.2191 197.935 32.2973C197.847 32.3639 197.808 32.4497 197.817 32.5547C197.821 32.6014 197.849 32.6578 197.902 32.7237C197.739 32.738 197.632 32.8003 197.583 32.9104C197.534 33.0206 197.486 33.1425 197.439 33.276L197.211 33.2959C197.153 33.301 197.107 33.3168 197.074 33.3432C197.041 33.3696 197.009 33.4077 196.978 33.4574C196.958 33.4945 196.928 33.5559 196.888 33.6417C196.671 33.7078 196.461 33.8026 196.26 33.9261C196.07 34.0368 195.881 34.1593 195.693 34.2934C195.515 34.4148 195.332 34.5425 195.144 34.6766C194.955 34.7991 194.758 34.9045 194.554 34.9929C194.464 35.1772 194.325 35.3306 194.135 35.453L194.083 35.4576C194.026 35.4744 193.973 35.4732 193.924 35.4539C193.886 35.4219 193.837 35.4085 193.779 35.4136C193.744 35.4167 193.721 35.4246 193.711 35.4373C193.381 35.7014 193 35.8523 192.568 35.8901C192.451 35.9003 192.34 35.9042 192.234 35.9017C192.127 35.8876 192.015 35.8856 191.898 35.8958C191.863 35.8989 191.841 35.9126 191.831 35.937L191.802 36.0101C191.792 36.0344 191.777 36.0593 191.756 36.0847C191.746 36.1091 191.706 36.1243 191.636 36.1305C191.508 36.1417 191.378 36.1354 191.246 36.1116C191.115 36.0878 190.98 36.0938 190.842 36.1294C190.56 36.0011 190.337 35.8735 190.173 35.7467C190.009 35.6199 189.851 35.422 189.698 35.1531C189.628 35.0298 189.536 34.9144 189.421 34.8068C189.317 34.6982 189.236 34.576 189.177 34.4399C189.161 34.3943 189.136 34.3141 189.103 34.1994C189.068 34.073 189.033 33.9408 188.997 33.8028C188.962 33.6647 188.927 33.5325 188.892 33.4061C188.869 33.2787 188.856 33.1917 188.852 33.145C188.839 33.0049 188.834 32.8701 188.834 32.7407C188.845 32.5986 188.856 32.4564 188.867 32.3143C188.898 31.8646 188.906 31.4169 188.891 30.9712C188.886 30.5128 188.947 30.0664 189.074 29.6318C189.039 29.5054 189.017 29.3839 189.007 29.2671L188.973 28.8819C188.953 28.6601 188.908 28.4758 188.836 28.3292C188.916 28.1693 188.948 27.9959 188.932 27.8091C188.913 27.599 188.815 27.484 188.637 27.4643L188.632 27.4118C188.611 27.1667 188.512 26.9812 188.337 26.8554C188.301 26.4468 188.374 26.1346 188.555 25.9188C188.747 25.6902 189.005 25.4853 189.33 25.3039C189.371 25.2298 189.383 25.1699 189.367 25.1242C189.451 25.1404 189.529 25.1571 189.601 25.1743C189.673 25.1915 189.744 25.1971 189.814 25.191C189.931 25.1808 190.035 25.154 190.125 25.1109C190.172 25.2479 190.268 25.3278 190.411 25.3505C190.565 25.3606 190.69 25.3849 190.788 25.4234L190.808 25.6511C190.839 26.013 190.957 26.3497 191.161 26.6613C191.122 26.7587 191.102 26.8605 191.099 26.9666C191.097 27.0727 191.099 27.1724 191.108 27.2658C191.12 27.4059 191.138 27.5455 191.162 27.6846C191.186 27.8236 191.203 27.9574 191.215 28.0858C191.227 28.2259 191.222 28.3675 191.199 28.5107C191.188 28.6528 191.134 28.781 191.038 28.8953C191.04 29.048 191.044 29.2242 191.049 29.4237C191.066 29.6104 191.071 29.8041 191.065 30.0046C191.071 30.2041 191.058 30.3993 191.028 30.5901C190.998 30.781 190.941 30.9389 190.858 31.0638C190.861 31.2399 190.865 31.4219 190.87 31.6097C190.885 31.7848 190.9 31.9541 190.915 32.1175C190.937 32.3744 190.975 32.6769 191.029 33.0251C191.095 33.3722 191.202 33.6569 191.351 33.8792C191.418 33.9675 191.535 34.0278 191.702 34.0602C191.881 34.0916 192.023 34.1027 192.128 34.0935C192.257 34.0822 192.384 34.0535 192.509 34.0072C192.645 33.9483 192.738 33.8637 192.787 33.7535C192.858 33.7591 192.908 33.79 192.936 33.8464C192.965 33.9027 193.01 33.9458 193.071 33.9757C193.712 33.6373 194.354 33.3106 194.997 32.9956C195.64 32.6805 196.267 32.3256 196.88 31.9309C196.977 31.9694 197.079 31.9841 197.184 31.9749C197.301 31.9647 197.416 31.9428 197.531 31.9092C197.646 31.8757 197.761 31.8538 197.878 31.8436L198.001 31.8328C198.03 31.9008 198.046 31.9524 198.049 31.9874ZM201.893 33.7685C201.843 33.867 201.781 33.9607 201.706 34.0496C201.63 34.1268 201.561 34.2093 201.498 34.2972C201.42 34.3393 201.328 34.365 201.223 34.3742C201.129 34.3824 201.036 34.3905 200.943 34.3987C200.86 34.3942 200.778 34.4013 200.697 34.4202C200.627 34.4263 200.571 34.4547 200.528 34.5055C200.433 34.4903 200.359 34.4556 200.308 34.4013C200.255 34.3354 200.169 34.3017 200.052 34.3002C200.004 34.2926 199.957 34.2967 199.912 34.3125C199.719 34.1293 199.537 33.9335 199.366 33.7249C199.207 33.5154 199.054 33.317 198.908 33.1298C198.859 32.6989 198.785 32.2641 198.688 31.8256C198.667 31.7216 198.641 31.618 198.608 31.515C198.576 31.412 198.549 31.3143 198.53 31.2219C198.519 31.1052 198.515 30.9938 198.518 30.8877C198.531 30.7689 198.539 30.6623 198.543 30.5679C198.56 30.2252 198.583 29.8879 198.613 29.556C198.643 29.224 198.666 28.8867 198.683 28.544C198.704 28.2364 198.699 27.9192 198.671 27.5923C198.641 27.2537 198.561 26.9431 198.43 26.6605L198.405 26.5744C198.42 26.479 198.437 26.4011 198.455 26.3407C198.484 26.2676 198.501 26.1896 198.505 26.1069C198.518 25.9764 198.48 25.8856 198.393 25.8344C198.42 25.7379 198.474 25.6744 198.553 25.6439C198.632 25.6018 198.672 25.5276 198.675 25.4216C198.683 25.3738 198.678 25.3271 198.663 25.2815C198.753 25.2383 198.844 25.2009 198.935 25.1694C199.037 25.1252 199.136 25.1107 199.231 25.1258C199.385 25.1359 199.524 25.1767 199.648 25.2482C199.771 25.308 199.889 25.3801 200.002 25.4643C200.238 26.0083 200.366 26.597 200.386 27.2305C200.405 27.8523 200.401 28.482 200.375 29.1195C200.348 29.7571 200.35 30.3804 200.38 30.9895C200.408 31.5869 200.55 32.1333 200.805 32.6285L200.842 32.643C200.901 32.6496 200.946 32.628 200.977 32.5782C201.007 32.5168 201.052 32.4893 201.111 32.4959C201.16 32.5152 201.19 32.5243 201.202 32.5233C201.269 32.7527 201.364 32.9678 201.488 33.1688C201.611 33.3697 201.746 33.5696 201.893 33.7685ZM213.964 24.9132C213.903 25.0244 213.873 25.1448 213.872 25.2742C213.872 25.4036 213.876 25.5209 213.885 25.626C213.898 25.766 213.91 25.9061 213.922 26.0462C213.945 26.1736 213.962 26.3015 213.973 26.4299L213.996 26.6926C213.98 26.7764 213.952 26.8612 213.913 26.947C213.873 27.0328 213.845 27.1175 213.829 27.2013C213.703 27.6475 213.66 28.0866 213.697 28.5186L213.7 28.5536C213.654 28.6988 213.607 28.8323 213.559 28.9542C213.523 29.075 213.486 29.1958 213.45 29.3167C213.412 29.4258 213.387 29.5456 213.375 29.6761C213.362 29.7949 213.368 29.9355 213.394 30.0979C213.267 30.5208 213.083 30.9132 212.845 31.2753C212.605 31.6256 212.372 31.9872 212.145 32.3599C211.908 32.4747 211.691 32.6172 211.495 32.7874C211.309 32.9565 211.132 33.1426 210.961 33.3457C210.609 33.4941 210.265 33.6595 209.928 33.842C209.591 34.0244 209.294 34.2562 209.036 34.5376C208.816 34.5803 208.598 34.6348 208.38 34.7009C208.162 34.767 207.952 34.8559 207.75 34.9677L207.54 34.9861C207.435 34.9953 207.357 34.9785 207.307 34.9359C207.162 35.0309 207.009 35.1031 206.849 35.1524C206.688 35.1901 206.525 35.216 206.362 35.2303C206.152 35.2487 205.941 35.2554 205.728 35.2505C205.527 35.2328 205.319 35.2157 205.106 35.199C204.975 35.0458 204.801 34.9375 204.584 34.8742C204.365 34.7992 204.171 34.728 204 34.6605C203.621 34.2232 203.337 33.7952 203.147 33.3765C202.956 32.9462 202.755 32.4638 202.544 31.9294C202.553 31.7639 202.58 31.6028 202.625 31.4459C202.669 31.2774 202.677 31.1002 202.649 30.9144C202.806 30.289 203.033 29.7163 203.328 29.1964C203.635 28.6637 203.99 28.1504 204.393 27.6563C204.387 27.5862 204.394 27.5268 204.413 27.4781C204.444 27.4283 204.444 27.3578 204.412 27.2664C204.425 27.2771 204.449 27.2809 204.484 27.2778C204.577 27.2696 204.634 27.2412 204.653 27.1924C204.671 27.132 204.671 27.0673 204.653 26.9983C205.05 26.693 205.403 26.3505 205.71 25.9706C206.03 25.5897 206.401 25.2632 206.825 24.9909C206.85 24.8827 206.901 24.7901 206.977 24.7129C207.052 24.6357 207.109 24.5484 207.148 24.4509C207.512 24.3131 207.837 24.1259 208.122 23.8892C208.407 23.6525 208.712 23.4376 209.036 23.2446C209.214 23.1232 209.383 23.0378 209.543 22.9885C209.714 22.9265 209.897 22.8634 210.091 22.7994C210.159 22.7699 210.222 22.7468 210.279 22.73C210.337 22.7132 210.4 22.7018 210.471 22.6956C210.681 22.6772 210.889 22.7002 211.094 22.7646C211.299 22.8173 211.506 22.8344 211.716 22.816C211.775 22.8109 211.821 22.8068 211.856 22.8038C211.902 22.788 211.948 22.7723 211.993 22.7565C212.213 22.9843 212.481 23.1491 212.795 23.251C212.881 23.42 212.976 23.5646 213.08 23.6848C213.197 23.804 213.313 23.9233 213.429 24.0425C213.545 24.15 213.65 24.2761 213.745 24.4207C213.85 24.5527 213.923 24.7168 213.964 24.9132ZM212.293 25.977C212.288 25.9187 212.277 25.8666 212.261 25.821C212.142 25.7962 212.027 25.7592 211.916 25.71C211.806 25.6608 211.687 25.6418 211.559 25.6531C211.477 25.6602 211.397 25.6849 211.318 25.7271C211.299 25.6464 211.259 25.591 211.198 25.5611C211.148 25.5302 211.087 25.5061 211.015 25.4889C210.953 25.459 210.887 25.4412 210.816 25.4357C210.756 25.4175 210.7 25.387 210.649 25.3444C210.606 25.2541 210.557 25.1643 210.502 25.075C210.458 24.973 210.381 24.9032 210.272 24.8657C210.176 24.98 210.061 25.0782 209.927 25.1605C209.792 25.2312 209.652 25.3023 209.505 25.374C209.37 25.4446 209.236 25.5269 209.103 25.6209C208.982 25.7138 208.88 25.8228 208.796 25.9477L208.481 25.9752C208.422 26.1098 208.332 26.2177 208.21 26.299C208.086 26.3686 207.983 26.4658 207.9 26.5908C207.721 26.7005 207.556 26.8326 207.405 26.9869C207.265 27.1286 207.125 27.282 206.987 27.447C206.847 27.6004 206.708 27.7596 206.57 27.9247C206.443 28.0887 206.303 28.242 206.151 28.3848C206.028 28.7249 205.884 29.0257 205.718 29.2872C205.564 29.536 205.415 29.7902 205.273 30.0496C205.143 30.3081 205.032 30.5883 204.941 30.8904C204.86 31.1798 204.839 31.5346 204.875 31.9548L204.891 32.13C204.896 32.1883 204.907 32.2462 204.924 32.3035C205.09 32.4537 205.227 32.6181 205.337 32.7967C205.459 32.9743 205.64 33.0937 205.88 33.155C206.122 33.228 206.371 33.2474 206.626 33.2133C206.894 33.1781 207.153 33.1848 207.405 33.2334C207.956 33.0793 208.478 32.8631 208.971 32.5846C209.475 32.2935 209.946 31.9583 210.383 31.5789C210.448 31.5144 210.525 31.4488 210.613 31.3823C210.7 31.3041 210.77 31.2274 210.822 31.1522C210.875 31.0888 210.917 31.0205 210.945 30.9474C210.986 30.8732 211.027 30.8049 211.069 30.7425C211.149 30.5825 211.241 30.4216 211.344 30.2596C211.447 30.0976 211.558 29.9468 211.675 29.8072C211.711 29.5452 211.765 29.2934 211.838 29.0518C211.91 28.7985 211.983 28.551 212.056 28.3093C212.129 28.0677 212.184 27.8217 212.22 27.5714C212.269 27.3201 212.282 27.0603 212.258 26.7917C212.253 26.7334 212.242 26.6697 212.224 26.6007C212.218 26.5306 212.206 26.4669 212.189 26.4096C212.272 26.273 212.306 26.1288 212.293 25.977Z" fill="#E5E5E5"/>
<g clip-path="url(#clip0_90_408)">
<path d="M261.521 37.8411L261.079 18.8377L255.776 24.141C246.471 14.8364 237.614 19.3221 231.027 25.9087C237.151 25.1558 241.391 25.6657 247.821 32.0959L242.518 37.3992L261.521 37.8411Z" stroke="#E5E5E5" stroke-width="2" stroke-linejoin="round"/>
</g>
<defs>
<clipPath id="clip0_90_408">
<rect width="35" height="35" fill="white" transform="translate(250.749) rotate(45)"/>
</clipPath>
</defs>
</svg>
