<svg width="1136" height="180" viewBox="0 0 1136 180" fill="none" xmlns="http://www.w3.org/2000/svg">
<path d="M275.68 129.08C282.208 129.08 288.448 127.976 294.4 125.768C300.448 123.464 306.208 119.768 311.68 114.68L318.88 123.32C313.408 128.408 306.784 132.44 299.008 135.416C291.232 138.392 282.976 139.88 274.24 139.88C265.216 139.88 257.056 138.728 249.76 136.424C242.56 134.12 236.368 130.712 231.184 126.2C226.096 121.688 222.16 116.12 219.376 109.496C216.592 102.872 215.2 95.24 215.2 86.6C215.2 77.96 216.544 70.328 219.232 63.704C222.016 57.08 225.904 51.512 230.896 47C235.984 42.488 242.08 39.08 249.184 36.776C256.288 34.472 264.16 33.32 272.8 33.32C281.536 33.32 289.792 34.808 297.568 37.784C305.344 40.76 311.968 44.792 317.44 49.88L310.24 58.52C304.768 53.432 299.008 49.784 292.96 47.576C287.008 45.272 280.768 44.12 274.24 44.12C269.056 44.12 264.208 44.984 259.696 46.712C255.184 48.344 251.296 50.888 248.032 54.344C244.768 57.8 242.176 62.216 240.256 67.592C238.432 72.872 237.52 79.208 237.52 86.6C237.52 93.992 238.432 100.376 240.256 105.752C242.176 111.032 244.816 115.4 248.176 118.856C251.632 122.312 255.664 124.904 260.272 126.632C264.976 128.264 270.112 129.08 275.68 129.08ZM369.353 130.52C372.425 130.52 375.305 129.944 377.993 128.792C380.681 127.64 383.033 125.864 385.049 123.464C387.065 120.968 388.649 117.752 389.801 113.816C391.049 109.88 391.673 105.128 391.673 99.56C391.673 93.992 391.049 89.24 389.801 85.304C388.649 81.368 387.065 78.2 385.049 75.8C383.033 73.304 380.681 71.48 377.993 70.328C375.305 69.176 372.425 68.6 369.353 68.6C366.281 68.6 363.401 69.176 360.713 70.328C358.025 71.48 355.673 73.304 353.657 75.8C351.641 78.2 350.009 81.368 348.761 85.304C347.609 89.24 347.033 93.992 347.033 99.56C347.033 105.128 347.609 109.88 348.761 113.816C350.009 117.752 351.641 120.968 353.657 123.464C355.673 125.864 358.025 127.64 360.713 128.792C363.401 129.944 366.281 130.52 369.353 130.52ZM369.353 59.24C375.785 59.24 381.689 60.152 387.065 61.976C392.537 63.704 397.193 66.296 401.033 69.752C404.873 73.112 407.849 77.336 409.961 82.424C412.169 87.416 413.273 93.128 413.273 99.56C413.273 106.088 412.169 111.848 409.961 116.84C407.849 121.832 404.873 126.056 401.033 129.512C397.193 132.872 392.537 135.416 387.065 137.144C381.689 138.968 375.785 139.88 369.353 139.88C362.825 139.88 356.873 138.968 351.497 137.144C346.121 135.416 341.513 132.872 337.673 129.512C333.833 126.056 330.809 121.832 328.601 116.84C326.489 111.848 325.433 106.088 325.433 99.56C325.433 93.128 326.489 87.416 328.601 82.424C330.809 77.336 333.833 73.112 337.673 69.752C341.513 66.296 346.121 63.704 351.497 61.976C356.873 60.152 362.825 59.24 369.353 59.24ZM450.741 137H430.581V63.56H450.741V137ZM451.461 44.12C451.461 47 450.453 49.544 448.437 51.752C446.517 53.864 443.925 54.92 440.661 54.92C437.397 54.92 434.757 53.864 432.741 51.752C430.821 49.544 429.861 47 429.861 44.12C429.861 41.24 430.821 38.744 432.741 36.632C434.757 34.424 437.397 33.32 440.661 33.32C443.829 33.32 446.421 34.424 448.437 36.632C450.453 38.744 451.461 41.24 451.461 44.12ZM550.827 137H530.667V91.64C530.667 84.728 528.939 79.784 525.483 76.808C522.027 73.736 517.035 72.2 510.507 72.2H491.787V137H471.627V62.12H510.507C524.235 62.12 534.363 64.616 540.891 69.608C547.515 74.504 550.827 81.848 550.827 91.64V137ZM638.605 122.6H640.045L677.485 36.2H708.445V137H687.565V56.36H686.125L651.565 137H627.085L592.525 56.36H591.085V137H570.205V36.2H601.165L638.605 122.6ZM745.109 113.24C745.109 122.36 750.629 126.92 761.669 126.92H781.829V99.56H761.669C750.629 99.56 745.109 104.12 745.109 113.24ZM781.829 89.48C781.829 82.568 780.005 77.48 776.357 74.216C772.805 70.952 768.149 69.32 762.389 69.32C758.069 69.32 753.845 69.992 749.717 71.336C745.589 72.584 741.893 74.312 738.629 76.52L733.589 67.88C735.701 66.44 738.005 65.192 740.501 64.136C743.093 63.08 745.733 62.216 748.421 61.544C751.109 60.776 753.749 60.2 756.341 59.816C759.029 59.432 761.525 59.24 763.829 59.24C769.973 59.24 775.397 59.96 780.101 61.4C784.805 62.84 788.789 64.904 792.053 67.592C795.317 70.28 797.765 73.496 799.397 77.24C801.125 80.888 801.989 84.968 801.989 89.48V137H761.669C748.613 137 738.965 135.032 732.725 131.096C726.581 127.16 723.509 121.208 723.509 113.24C723.509 105.272 726.581 99.32 732.725 95.384C738.965 91.448 748.613 89.48 761.669 89.48H781.829ZM878.241 72.2H860.961C854.433 72.2 849.441 73.976 845.985 77.528C842.529 80.984 840.801 86.168 840.801 93.08V137H820.641V93.08C820.641 83.288 823.713 75.704 829.857 70.328C836.097 64.856 845.025 62.12 856.641 62.12H878.241V72.2ZM924.985 103.88H909.865V137H889.705V36.2H909.865V93.8H924.985L947.305 62.12H968.905L943.705 98.12L970.345 137H947.305L924.985 103.88ZM1022.2 129.8C1026.91 129.8 1031.27 128.984 1035.31 127.352C1039.43 125.72 1043.47 123.416 1047.4 120.44L1053.16 129.08C1051.34 130.712 1049.18 132.2 1046.68 133.544C1044.28 134.888 1041.64 136.04 1038.76 137C1035.98 137.864 1033.05 138.536 1029.98 139.016C1026.91 139.592 1023.83 139.88 1020.76 139.88C1013.95 139.88 1007.71 138.968 1002.04 137.144C996.474 135.416 991.722 132.872 987.786 129.512C983.85 126.056 980.778 121.832 978.57 116.84C976.458 111.848 975.402 106.088 975.402 99.56C975.402 93.128 976.41 87.416 978.426 82.424C980.538 77.336 983.418 73.112 987.066 69.752C990.81 66.296 995.226 63.704 1000.31 61.976C1005.4 60.152 1011.02 59.24 1017.16 59.24C1022.92 59.24 1028.35 60.104 1033.43 61.832C1038.52 63.56 1042.94 66.104 1046.68 69.464C1050.43 72.728 1053.4 76.712 1055.61 81.416C1057.82 86.12 1058.92 91.448 1058.92 97.4V107.48H997.434C998.586 115.448 1001.32 121.16 1005.64 124.616C1010.06 128.072 1015.58 129.8 1022.2 129.8ZM1017.16 68.6C1014.38 68.6 1011.79 69.128 1009.39 70.184C1006.99 71.24 1004.87 72.92 1003.05 75.224C1001.32 77.528 999.882 80.504 998.73 84.152C997.674 87.8 997.098 92.216 997.002 97.4H1037.32C1037.32 92.408 1036.75 88.088 1035.59 84.44C1034.44 80.792 1032.91 77.816 1030.99 75.512C1029.16 73.112 1027 71.384 1024.51 70.328C1022.11 69.176 1019.66 68.6 1017.16 68.6ZM1079.14 72.2H1065.46V62.12H1079.14V39.08H1099.3V62.12H1121.62V72.2H1099.3V109.64C1099.3 113.288 1099.68 116.408 1100.45 119C1101.31 121.496 1102.42 123.56 1103.76 125.192C1105.2 126.728 1106.83 127.88 1108.66 128.648C1110.48 129.416 1112.4 129.8 1114.42 129.8C1117.3 129.8 1120.08 129.368 1122.77 128.504C1125.46 127.544 1127.71 126.536 1129.54 125.48L1133.86 134.84C1130.98 136.28 1127.67 137.48 1123.92 138.44C1120.27 139.4 1116.63 139.88 1112.98 139.88C1102.13 139.88 1093.78 137.192 1087.92 131.816C1082.07 126.44 1079.14 119.048 1079.14 109.64V72.2Z" fill="black"/>
<g clip-path="url(#clip0_154_126)">
<path fill-rule="evenodd" clip-rule="evenodd" d="M55.8786 70.1074L85.6923 55.0781V26.8213C82.228 26.2652 79.091 24.6265 76.831 22.1924L29.0673 47.1387C29.6353 48.5742 29.9437 50.1123 29.9437 51.7236C29.9437 53.0713 29.7327 54.3604 29.3269 55.5908L55.8786 70.1074ZM74.2992 18.2812C73.6654 16.7592 73.3411 15.1465 73.3416 13.5205C73.3416 9.78516 75.0133 6.40137 77.7236 3.95508C80.434 1.50879 84.183 0 88.3215 0C92.4601 0 96.2091 1.50879 98.9195 3.95508C100.312 5.21037 101.416 6.70163 102.168 8.34317C102.92 9.98471 103.305 11.7442 103.301 13.5205C103.301 15.1611 102.977 16.7285 102.393 18.1787L150.384 43.2275C150.724 42.8613 151.065 42.4951 151.438 42.1582C152.829 40.9014 154.481 39.905 156.3 39.2263C158.119 38.5475 160.068 38.1998 162.036 38.2031C166.175 38.2031 169.924 39.7119 172.634 42.1582C174.027 43.4135 175.131 44.9048 175.883 46.5463C176.635 48.1878 177.02 49.9473 177.016 51.7236C177.016 55.459 175.345 58.8281 172.634 61.2744C170.305 63.3793 167.269 64.7289 164 65.1123V114.785C167.36 115.181 170.362 116.572 172.634 118.623C175.345 121.069 177.016 124.453 177.016 128.174C177.018 129.95 176.632 131.709 175.88 133.35C175.127 134.991 174.024 136.482 172.633 137.738C171.241 138.994 169.589 139.989 167.771 140.668C165.953 141.347 164.004 141.696 162.036 141.694C159.815 141.697 157.62 141.253 155.613 140.394C153.606 139.535 151.836 138.283 150.432 136.729L102.376 161.807C102.961 163.257 103.285 164.824 103.285 166.465C103.285 170.2 101.614 173.584 98.9032 176.03C97.5124 177.287 95.8602 178.283 94.0415 178.962C92.2228 179.641 90.2734 179.989 88.3053 179.985C84.1668 179.985 80.4177 178.477 77.7074 176.03C74.997 173.584 73.3254 170.2 73.3254 166.465C73.3254 164.795 73.6662 163.184 74.2829 161.704L26.5355 136.787C25.1307 138.33 23.364 139.571 21.3628 140.422C19.3616 141.274 17.176 141.713 14.9637 141.709C10.8252 141.709 7.07616 140.2 4.36581 137.754C1.6717 135.308 5.1668e-05 131.924 5.1668e-05 128.188C5.1668e-05 124.453 1.6717 121.084 4.38204 118.638C6.68496 116.557 9.67593 115.21 12.9026 114.8V65.0977C9.67372 64.6941 6.68059 63.3459 4.38204 61.2598C2.98854 60.0082 1.88377 58.5197 1.13162 56.8803C0.379475 55.241 -0.00512996 53.4833 5.1668e-05 51.709C5.1668e-05 47.9736 1.6717 44.5898 4.38204 42.1436C5.77284 40.8867 7.42506 39.8903 9.24379 39.2116C11.0625 38.5329 13.0119 38.1852 14.98 38.1885C17.2056 38.1849 19.404 38.6303 21.4145 39.492C23.425 40.3537 25.1968 41.6099 26.6004 43.1689L74.2992 18.2812ZM99.877 22.1045C97.6024 24.6077 94.4046 26.2874 90.8696 26.8359V55.0781L120.618 70.6348L147.965 56.3672C147.365 54.917 147.056 53.335 147.056 51.709C147.056 50.127 147.365 48.5889 147.917 47.1826L99.877 22.1045V22.1045ZM159.423 65.0244C156.396 64.5493 153.607 63.2392 151.438 61.2744C151.13 60.9961 150.838 60.7178 150.562 60.4102L123.264 74.6484V105.088L150.676 119.37C150.919 119.121 151.163 118.872 151.422 118.638C153.593 116.676 156.381 115.366 159.407 114.888V65.0244H159.423ZM147.949 132.803C147.365 131.367 147.056 129.814 147.056 128.203C147.056 126.504 147.397 124.878 148.046 123.369L121.527 109.556L90.8696 125.64V153.164C94.4046 153.713 97.6024 155.392 99.877 157.896L147.949 132.803V132.803ZM76.831 157.793C79.091 155.359 82.228 153.72 85.6923 153.164V125.508L54.921 109.395L28.8076 123.003C29.5379 124.6 29.9599 126.357 29.9599 128.203C29.9599 129.844 29.6353 131.411 29.051 132.861L76.831 157.793V157.793ZM17.4631 114.858C20.5954 115.327 23.4031 116.689 25.5617 118.638C25.724 118.784 25.87 118.931 26.0161 119.077L52.6164 105.22V73.7695L27.0061 59.7656C26.5679 60.3076 26.081 60.8057 25.5617 61.2744C23.3612 63.2611 20.5312 64.5817 17.4631 65.0537V114.858ZM14.9962 60.5566C15.0611 60.5566 15.126 60.542 15.191 60.542H15.3208C17.8009 60.4717 20.1578 59.5496 21.91 57.9639C22.8216 57.1434 23.5446 56.1684 24.0376 55.095C24.5306 54.0217 24.7838 52.8709 24.7827 51.709C24.7827 49.2627 23.679 47.0508 21.91 45.4541C20.141 43.8574 17.6903 42.8613 14.98 42.8613C12.2696 42.8613 9.81896 43.8574 8.04993 45.4541C7.13836 46.2746 6.41532 47.2495 5.92235 48.3229C5.42938 49.3963 5.17618 50.547 5.17729 51.709C5.17729 54.1553 6.28091 56.3672 8.04993 57.9639C8.96129 58.7879 10.0442 59.4412 11.2363 59.8862C12.4284 60.3312 13.7062 60.559 14.9962 60.5566V60.5566ZM95.2353 160.239C94.3263 159.416 93.2461 158.764 92.0569 158.319C90.8676 157.874 89.5927 157.645 88.3053 157.646C85.595 157.646 83.1443 158.643 81.3753 160.239C79.6062 161.836 78.5026 164.048 78.5026 166.494C78.5026 168.94 79.6062 171.152 81.3753 172.749C83.1443 174.346 85.595 175.342 88.3053 175.342C91.0157 175.342 93.4663 174.346 95.2353 172.749C97.0044 171.152 98.108 168.94 98.108 166.494C98.108 164.048 97.0206 161.836 95.2353 160.239V160.239ZM95.2353 7.26563C94.3263 6.44286 93.2461 5.79027 92.0569 5.34532C90.8676 4.90038 89.5927 4.67185 88.3053 4.67285C85.595 4.67285 83.1443 5.66895 81.3753 7.26563C79.6062 8.8623 78.5026 11.0742 78.5026 13.5205C78.5026 15.9668 79.6062 18.1787 81.3753 19.7754C82.2843 20.5982 83.3645 21.2507 84.5537 21.6957C85.743 22.1406 87.0179 22.3692 88.3053 22.3682C91.0157 22.3682 93.4663 21.3721 95.2353 19.7754C96.1469 18.9549 96.87 17.98 97.3629 16.9066C97.8559 15.8332 98.1091 14.6825 98.108 13.5205C98.108 11.0742 97.0206 8.8623 95.2353 7.26563V7.26563ZM168.95 121.948C168.041 121.125 166.961 120.473 165.772 120.028C164.582 119.583 163.308 119.354 162.02 119.355C159.31 119.355 156.859 120.352 155.09 121.948C154.179 122.769 153.456 123.744 152.963 124.817C152.47 125.89 152.216 127.041 152.217 128.203C152.217 130.649 153.321 132.861 155.09 134.458C155.999 135.281 157.079 135.933 158.269 136.378C159.458 136.823 160.733 137.052 162.02 137.051C164.731 137.051 167.181 136.055 168.95 134.458C169.862 133.638 170.585 132.663 171.078 131.589C171.571 130.516 171.824 129.365 171.823 128.203C171.823 125.757 170.735 123.545 168.95 121.948ZM21.91 121.948C20.141 120.352 17.6903 119.355 14.98 119.355C12.2696 119.355 9.81896 120.352 8.04993 121.948C7.13836 122.769 6.41532 123.744 5.92235 124.817C5.42938 125.89 5.17618 127.041 5.17729 128.203C5.17729 130.649 6.28091 132.861 8.04993 134.458C9.81896 136.055 12.2696 137.051 14.98 137.051C17.6903 137.051 20.141 136.055 21.91 134.458C22.8216 133.638 23.5446 132.663 24.0376 131.589C24.5306 130.516 24.7838 129.365 24.7827 128.203C24.7774 125.858 23.7448 123.609 21.91 121.948V121.948ZM153.289 55.708C153.418 55.8252 153.516 55.9717 153.613 56.1182C153.711 56.2647 153.776 56.4111 153.84 56.5723C154.214 57.0703 154.636 57.5391 155.09 57.9639C155.999 58.7866 157.079 59.4392 158.269 59.8842C159.458 60.3291 160.733 60.5576 162.02 60.5566C164.731 60.5566 167.181 59.5605 168.95 57.9639C169.862 57.1434 170.585 56.1684 171.078 55.095C171.571 54.0217 171.824 52.8709 171.823 51.709C171.823 49.2627 170.719 47.0508 168.95 45.4541C168.041 44.6313 166.961 43.9787 165.772 43.5338C164.582 43.0889 163.308 42.8603 162.02 42.8613C159.31 42.8613 156.859 43.8574 155.09 45.4541C154.179 46.2746 153.456 47.2495 152.963 48.3229C152.47 49.3963 152.216 50.547 152.217 51.709C152.234 53.1592 152.623 54.5068 153.289 55.708V55.708ZM57.4691 104.722C57.8378 105.08 58.0807 105.528 58.1669 106.011L85.9682 120.762V91.6406L57.4691 76.333V104.722ZM118.427 76.7285L90.8209 91.6553V120.791L118.427 106.069V76.7285V76.7285ZM88.2728 58.5791L61.3317 73.125L88.4189 87.8467L114.727 73.4326L88.2728 58.5791V58.5791Z" fill="black"/>
</g>
<defs>
<clipPath id="clip0_154_126">
<rect width="177" height="180" fill="white"/>
</clipPath>
</defs>
</svg>
