<svg width="397" height="80" viewBox="0 0 397 80" fill="none" xmlns="http://www.w3.org/2000/svg">
<g clip-path="url(#clip0_154_126)">
<path fill-rule="evenodd" clip-rule="evenodd" d="M24.8349 31.1589L38.0855 24.4792V11.9206C36.5458 11.6734 35.1516 10.9451 34.1471 9.86328L12.9188 20.9505C13.1712 21.5885 13.3083 22.2721 13.3083 22.9883C13.3083 23.5872 13.2145 24.1602 13.0342 24.707L24.8349 31.1589ZM33.0219 8.125C32.7402 7.44854 32.596 6.73177 32.5963 6.00911C32.5963 4.34896 33.3392 2.84505 34.5438 1.75781C35.7484 0.670573 37.4147 0 39.254 0C41.0934 0 42.7596 0.670573 43.9642 1.75781C44.5831 2.31572 45.0737 2.9785 45.408 3.70807C45.7422 4.43765 45.9134 5.21964 45.9118 6.00911C45.9118 6.73828 45.7675 7.4349 45.5078 8.07943L66.8371 19.2122C66.9886 19.0495 67.1401 18.8867 67.306 18.737C67.9241 18.1784 68.6584 17.7356 69.4668 17.4339C70.2751 17.1322 71.1415 16.9777 72.0162 16.9792C73.8555 16.9792 75.5218 17.6497 76.7264 18.737C77.3452 19.2949 77.8359 19.9577 78.1701 20.6872C78.5043 21.4168 78.6755 22.1988 78.6739 22.9883C78.6739 24.6484 77.931 26.1458 76.7264 27.2331C75.6911 28.1686 74.3417 28.7684 72.889 28.9388V51.0156C74.3821 51.1914 75.7165 51.8099 76.7264 52.7214C77.931 53.8086 78.6739 55.3125 78.6739 56.9661C78.6747 57.7555 78.503 58.5372 78.1687 59.2665C77.8344 59.9959 77.344 60.6586 76.7256 61.2168C76.1072 61.7749 75.373 62.2175 74.5649 62.5192C73.7568 62.821 72.8907 62.9759 72.0162 62.9753C71.0288 62.9767 70.0535 62.7793 69.1613 62.3975C68.2691 62.0157 67.4825 61.4591 66.8588 60.7682L45.5006 71.9141C45.7603 72.5586 45.9045 73.2552 45.9045 73.9844C45.9045 75.6445 45.1616 77.1484 43.957 78.2357C43.3389 78.7943 42.6045 79.2371 41.7962 79.5388C40.9879 79.8404 40.1215 79.995 39.2468 79.9935C37.4075 79.9935 35.7412 79.3229 34.5366 78.2357C33.332 77.1484 32.5891 75.6445 32.5891 73.9844C32.5891 73.2422 32.7405 72.526 33.0146 71.8685L11.7935 60.7943C11.1692 61.4798 10.384 62.0317 9.49458 62.41C8.60517 62.7883 7.63377 62.9836 6.65055 62.9818C4.8112 62.9818 3.14496 62.3112 1.94036 61.224C0.742978 60.1367 2.29635e-05 58.6328 2.29635e-05 56.9727C2.29635e-05 55.3125 0.742978 53.8151 1.94758 52.7279C2.97109 51.8031 4.30041 51.2044 5.73448 51.0221V28.9323C4.29943 28.7529 2.96915 28.1537 1.94758 27.2266C1.32824 26.6703 0.837233 26.0088 0.502944 25.2802C0.168655 24.5516 -0.00227998 23.7704 2.29635e-05 22.9818C2.29635e-05 21.3216 0.742978 19.8177 1.94758 18.7305C2.56571 18.1719 3.30003 17.729 4.10835 17.4274C4.91667 17.1257 5.78307 16.9712 6.65777 16.9727C7.64694 16.9711 8.62401 17.169 9.51757 17.552C10.4111 17.935 11.1986 18.4933 11.8224 19.1862L33.0219 8.125ZM44.3898 9.82422C43.3788 10.9368 41.9576 11.6833 40.3865 11.9271V24.4792L53.6082 31.3932L65.7624 25.0521C65.4955 24.4076 65.3584 23.7044 65.3584 22.9818C65.3584 22.2786 65.4955 21.5951 65.7407 20.9701L44.3898 9.82422V9.82422ZM70.8549 28.8997C69.5095 28.6886 68.2697 28.1063 67.306 27.2331C67.1689 27.1094 67.0391 26.9857 66.9165 26.849L54.7839 33.1771V46.7057L66.967 53.0534C67.0752 52.9427 67.1834 52.832 67.2988 52.7279C68.2634 51.8558 69.5028 51.2738 70.8476 51.0612V28.8997H70.8549ZM65.7552 59.0234C65.4955 58.3854 65.3584 57.6953 65.3584 56.9792C65.3584 56.224 65.5099 55.5013 65.7984 54.8307L54.0121 48.6914L40.3865 55.8398V68.0729C41.9576 68.3167 43.3788 69.0632 44.3898 70.1758L65.7552 59.0234V59.0234ZM34.1471 70.1302C35.1516 69.0484 36.5458 68.3201 38.0855 68.0729V55.7813L24.4093 48.6198L12.8034 54.668C13.128 55.3776 13.3155 56.1589 13.3155 56.9792C13.3155 57.7083 13.1712 58.4049 12.9116 59.0495L34.1471 70.1302V70.1302ZM7.76138 51.0482C9.15352 51.2565 10.4014 51.862 11.3607 52.7279C11.4329 52.793 11.4978 52.8581 11.5627 52.9232L23.3851 46.7643V32.7865L12.0027 26.5625C11.808 26.8034 11.5916 27.0247 11.3607 27.2331C10.3827 28.116 9.125 28.703 7.76138 28.9128V51.0482ZM6.66498 26.9141C6.69383 26.9141 6.72268 26.9076 6.75154 26.9076H6.80924C7.91151 26.8763 8.959 26.4665 9.73778 25.7617C10.1429 25.3971 10.4643 24.9638 10.6834 24.4867C10.9025 24.0096 11.015 23.4982 11.0145 22.9818C11.0145 21.8945 10.524 20.9115 9.73778 20.2018C8.95155 19.4922 7.86236 19.0495 6.65777 19.0495C5.45317 19.0495 4.36398 19.4922 3.57775 20.2018C3.1726 20.5665 2.85126 20.9998 2.63216 21.4769C2.41306 21.9539 2.30053 22.4653 2.30102 22.9818C2.30102 24.069 2.79151 25.0521 3.57775 25.7617C3.9828 26.128 4.46407 26.4183 4.9939 26.6161C5.52372 26.8139 6.09164 26.9151 6.66498 26.9141V26.9141ZM42.3268 71.2174C41.9228 70.8518 41.4427 70.5617 40.9142 70.364C40.3856 70.1662 39.819 70.0647 39.2468 70.0651C38.0422 70.0651 36.953 70.5078 36.1668 71.2174C35.3806 71.9271 34.8901 72.9102 34.8901 73.9974C34.8901 75.0846 35.3806 76.0677 36.1668 76.7773C36.953 77.487 38.0422 77.9297 39.2468 77.9297C40.4514 77.9297 41.5406 77.487 42.3268 76.7773C43.1131 76.0677 43.6036 75.0846 43.6036 73.9974C43.6036 72.9102 43.1203 71.9271 42.3268 71.2174V71.2174ZM42.3268 3.22917C41.9228 2.86349 41.4427 2.57345 40.9142 2.3757C40.3856 2.17795 39.819 2.07638 39.2468 2.07682C38.0422 2.07682 36.953 2.51953 36.1668 3.22917C35.3806 3.9388 34.8901 4.92187 34.8901 6.00911C34.8901 7.09635 35.3806 8.07943 36.1668 8.78906C36.5708 9.15474 37.0509 9.44478 37.5794 9.64253C38.108 9.84028 38.6746 9.94185 39.2468 9.94141C40.4514 9.94141 41.5406 9.4987 42.3268 8.78906C42.732 8.4244 43.0533 7.9911 43.2724 7.51403C43.4915 7.03697 43.604 6.52554 43.6036 6.00911C43.6036 4.92187 43.1203 3.9388 42.3268 3.22917V3.22917ZM75.089 54.1992C74.685 53.8335 74.2049 53.5435 73.6763 53.3458C73.1478 53.148 72.5811 53.0464 72.009 53.0469C70.8044 53.0469 69.7152 53.4896 68.9289 54.1992C68.5238 54.5639 68.2025 54.9972 67.9834 55.4742C67.7643 55.9513 67.6517 56.4627 67.6522 56.9792C67.6522 58.0664 68.1427 59.0495 68.9289 59.7591C69.333 60.1248 69.813 60.4148 70.3416 60.6126C70.8702 60.8103 71.4368 60.9119 72.009 60.9115C73.2136 60.9115 74.3027 60.4688 75.089 59.7591C75.4941 59.3945 75.8155 58.9612 76.0346 58.4841C76.2537 58.007 76.3662 57.4956 76.3657 56.9792C76.3657 55.8919 75.8824 54.9089 75.089 54.1992ZM9.73778 54.1992C8.95155 53.4896 7.86236 53.0469 6.65777 53.0469C5.45317 53.0469 4.36398 53.4896 3.57775 54.1992C3.1726 54.5639 2.85126 54.9972 2.63216 55.4742C2.41306 55.9513 2.30053 56.4627 2.30102 56.9792C2.30102 58.0664 2.79151 59.0495 3.57775 59.7591C4.36398 60.4688 5.45317 60.9115 6.65777 60.9115C7.86236 60.9115 8.95155 60.4688 9.73778 59.7591C10.1429 59.3945 10.4643 58.9612 10.6834 58.4841C10.9025 58.007 11.015 57.4956 11.0145 56.9792C11.0122 55.9367 10.5532 54.9374 9.73778 54.1992V54.1992ZM68.1283 24.7591C68.186 24.8112 68.2293 24.8763 68.2725 24.9414C68.3158 25.0065 68.3447 25.0716 68.3735 25.1432C68.5394 25.3646 68.727 25.5729 68.9289 25.7617C69.333 26.1274 69.813 26.4174 70.3416 26.6152C70.8702 26.8129 71.4368 26.9145 72.009 26.9141C73.2136 26.9141 74.3027 26.4714 75.089 25.7617C75.4941 25.3971 75.8155 24.9638 76.0346 24.4867C76.2537 24.0096 76.3662 23.4982 76.3657 22.9818C76.3657 21.8945 75.8752 20.9115 75.089 20.2018C74.685 19.8361 74.2049 19.5461 73.6763 19.3484C73.1478 19.1506 72.5811 19.049 72.009 19.0495C70.8044 19.0495 69.7152 19.4922 68.9289 20.2018C68.5238 20.5665 68.2025 20.9998 67.9834 21.4769C67.7643 21.9539 67.6517 22.4653 67.6522 22.9818C67.6594 23.6263 67.8325 24.2253 68.1283 24.7591V24.7591ZM25.5418 46.543C25.7057 46.7021 25.8136 46.9014 25.852 47.1159L38.2081 53.6719V40.7292L25.5418 33.9258V46.543ZM52.6344 34.1016L40.3648 40.7357V53.6849L52.6344 47.1419V34.1016V34.1016ZM39.2324 26.0352L27.2585 32.5L39.2973 39.043L50.9898 32.6367L39.2324 26.0352V26.0352Z" fill="black"/>
</g>
<path d="M109.227 52.86C111.403 52.86 113.483 52.492 115.467 51.756C117.483 50.988 119.403 49.756 121.227 48.06L123.627 50.94C121.803 52.636 119.595 53.98 117.003 54.972C114.411 55.964 111.659 56.46 108.747 56.46C105.739 56.46 103.019 56.076 100.587 55.308C98.1867 54.54 96.1227 53.404 94.3947 51.9C92.6987 50.396 91.3867 48.54 90.4587 46.332C89.5307 44.124 89.0667 41.58 89.0667 38.7C89.0667 35.82 89.5147 33.276 90.4107 31.068C91.3387 28.86 92.6347 27.004 94.2987 25.5C95.9947 23.996 98.0267 22.86 100.395 22.092C102.763 21.324 105.387 20.94 108.267 20.94C111.179 20.94 113.931 21.436 116.523 22.428C119.115 23.42 121.323 24.764 123.147 26.46L120.747 29.34C118.923 27.644 117.003 26.428 114.987 25.692C113.003 24.924 110.923 24.54 108.747 24.54C107.019 24.54 105.403 24.828 103.899 25.404C102.395 25.948 101.099 26.796 100.011 27.948C98.9227 29.1 98.0587 30.572 97.4187 32.364C96.8107 34.124 96.5067 36.236 96.5067 38.7C96.5067 41.164 96.8107 43.292 97.4187 45.084C98.0587 46.844 98.9387 48.3 100.059 49.452C101.211 50.604 102.555 51.468 104.091 52.044C105.659 52.588 107.371 52.86 109.227 52.86ZM140.451 53.34C141.475 53.34 142.435 53.148 143.331 52.764C144.227 52.38 145.011 51.788 145.683 50.988C146.355 50.156 146.883 49.084 147.267 47.772C147.683 46.46 147.891 44.876 147.891 43.02C147.891 41.164 147.683 39.58 147.267 38.268C146.883 36.956 146.355 35.9 145.683 35.1C145.011 34.268 144.227 33.66 143.331 33.276C142.435 32.892 141.475 32.7 140.451 32.7C139.427 32.7 138.467 32.892 137.571 33.276C136.675 33.66 135.891 34.268 135.219 35.1C134.547 35.9 134.003 36.956 133.587 38.268C133.203 39.58 133.011 41.164 133.011 43.02C133.011 44.876 133.203 46.46 133.587 47.772C134.003 49.084 134.547 50.156 135.219 50.988C135.891 51.788 136.675 52.38 137.571 52.764C138.467 53.148 139.427 53.34 140.451 53.34ZM140.451 29.58C142.595 29.58 144.563 29.884 146.355 30.492C148.179 31.068 149.731 31.932 151.011 33.084C152.291 34.204 153.283 35.612 153.987 37.308C154.723 38.972 155.091 40.876 155.091 43.02C155.091 45.196 154.723 47.116 153.987 48.78C153.283 50.444 152.291 51.852 151.011 53.004C149.731 54.124 148.179 54.972 146.355 55.548C144.563 56.156 142.595 56.46 140.451 56.46C138.275 56.46 136.291 56.156 134.499 55.548C132.707 54.972 131.171 54.124 129.891 53.004C128.611 51.852 127.603 50.444 126.867 48.78C126.163 47.116 125.811 45.196 125.811 43.02C125.811 40.876 126.163 38.972 126.867 37.308C127.603 35.612 128.611 34.204 129.891 33.084C131.171 31.932 132.707 31.068 134.499 30.492C136.291 29.884 138.275 29.58 140.451 29.58ZM167.58 55.5H160.86V31.02H167.58V55.5ZM167.82 24.54C167.82 25.5 167.484 26.348 166.812 27.084C166.172 27.788 165.308 28.14 164.22 28.14C163.132 28.14 162.252 27.788 161.58 27.084C160.94 26.348 160.62 25.5 160.62 24.54C160.62 23.58 160.94 22.748 161.58 22.044C162.252 21.308 163.132 20.94 164.22 20.94C165.276 20.94 166.14 21.308 166.812 22.044C167.484 22.748 167.82 23.58 167.82 24.54ZM200.942 55.5H194.222V40.38C194.222 38.076 193.646 36.428 192.494 35.436C191.342 34.412 189.678 33.9 187.502 33.9H181.262V55.5H174.542V30.54H187.502C192.078 30.54 195.454 31.372 197.63 33.036C199.838 34.668 200.942 37.116 200.942 40.38V55.5ZM230.202 50.7H230.682L243.162 21.9H253.482V55.5H246.522V28.62H246.042L234.522 55.5H226.362L214.842 28.62H214.362V55.5H207.402V21.9H217.722L230.202 50.7ZM265.703 47.58C265.703 50.62 267.543 52.14 271.223 52.14H277.943V43.02H271.223C267.543 43.02 265.703 44.54 265.703 47.58ZM277.943 39.66C277.943 37.356 277.335 35.66 276.119 34.572C274.935 33.484 273.383 32.94 271.463 32.94C270.023 32.94 268.615 33.164 267.239 33.612C265.863 34.028 264.631 34.604 263.543 35.34L261.863 32.46C262.567 31.98 263.335 31.564 264.167 31.212C265.031 30.86 265.911 30.572 266.807 30.348C267.703 30.092 268.583 29.9 269.447 29.772C270.343 29.644 271.175 29.58 271.943 29.58C273.991 29.58 275.799 29.82 277.367 30.3C278.935 30.78 280.263 31.468 281.351 32.364C282.439 33.26 283.255 34.332 283.799 35.58C284.375 36.796 284.663 38.156 284.663 39.66V55.5H271.223C266.871 55.5 263.655 54.844 261.575 53.532C259.527 52.22 258.503 50.236 258.503 47.58C258.503 44.924 259.527 42.94 261.575 41.628C263.655 40.316 266.871 39.66 271.223 39.66H277.943ZM310.08 33.9H304.32C302.144 33.9 300.48 34.492 299.328 35.676C298.176 36.828 297.6 38.556 297.6 40.86V55.5H290.88V40.86C290.88 37.596 291.904 35.068 293.952 33.276C296.032 31.452 299.008 30.54 302.88 30.54H310.08V33.9ZM325.662 44.46H320.622V55.5H313.902V21.9H320.622V41.1H325.662L333.102 30.54H340.302L331.902 42.54L340.782 55.5H333.102L325.662 44.46ZM358.067 53.1C359.635 53.1 361.091 52.828 362.435 52.284C363.811 51.74 365.155 50.972 366.467 49.98L368.387 52.86C367.779 53.404 367.059 53.9 366.227 54.348C365.427 54.796 364.547 55.18 363.587 55.5C362.659 55.788 361.683 56.012 360.659 56.172C359.635 56.364 358.611 56.46 357.587 56.46C355.315 56.46 353.235 56.156 351.347 55.548C349.491 54.972 347.907 54.124 346.595 53.004C345.283 51.852 344.259 50.444 343.523 48.78C342.819 47.116 342.467 45.196 342.467 43.02C342.467 40.876 342.803 38.972 343.475 37.308C344.179 35.612 345.139 34.204 346.355 33.084C347.603 31.932 349.075 31.068 350.771 30.492C352.467 29.884 354.339 29.58 356.387 29.58C358.307 29.58 360.115 29.868 361.811 30.444C363.507 31.02 364.979 31.868 366.227 32.988C367.475 34.076 368.467 35.404 369.203 36.972C369.939 38.54 370.307 40.316 370.307 42.3V45.66H349.811C350.195 48.316 351.107 50.22 352.547 51.372C354.019 52.524 355.859 53.1 358.067 53.1ZM356.387 32.7C355.459 32.7 354.595 32.876 353.795 33.228C352.995 33.58 352.291 34.14 351.683 34.908C351.107 35.676 350.627 36.668 350.243 37.884C349.891 39.1 349.699 40.572 349.667 42.3H363.107C363.107 40.636 362.915 39.196 362.531 37.98C362.147 36.764 361.635 35.772 360.995 35.004C360.387 34.204 359.667 33.628 358.835 33.276C358.035 32.892 357.219 32.7 356.387 32.7ZM377.046 33.9H372.486V30.54H377.046V22.86H383.766V30.54H391.206V33.9H383.766V46.38C383.766 47.596 383.894 48.636 384.15 49.5C384.438 50.332 384.806 51.02 385.254 51.564C385.734 52.076 386.278 52.46 386.886 52.716C387.494 52.972 388.134 53.1 388.806 53.1C389.766 53.1 390.694 52.956 391.59 52.668C392.486 52.348 393.238 52.012 393.846 51.66L395.286 54.78C394.326 55.26 393.222 55.66 391.974 55.98C390.758 56.3 389.542 56.46 388.326 56.46C384.71 56.46 381.926 55.564 379.974 53.772C378.022 51.98 377.046 49.516 377.046 46.38V33.9Z" fill="black"/>
<defs>
<clipPath id="clip0_154_126">
<rect width="78.6667" height="80" fill="white"/>
</clipPath>
</defs>
</svg>
