<svg width="35" height="30" viewBox="0 0 35 30" fill="none" xmlns="http://www.w3.org/2000/svg">
<path d="M31.4669 1.18652H3.52512C2.23914 1.18652 1.19664 2.21723 1.19664 3.48868V21.9059C1.19664 23.1774 2.23914 24.2081 3.52512 24.2081H31.4669C32.7529 24.2081 33.7954 23.1774 33.7954 21.9059V3.48868C33.7954 2.21723 32.7529 1.18652 31.4669 1.18652Z" stroke="#0B0B0B" stroke-width="2" stroke-linejoin="round"/>
<path d="M20.9887 28.8123L20.4066 24.208H14.5854L14.0033 28.8123H20.9887Z" fill="#0B0B0B" stroke="#0B0B0B" stroke-width="2" stroke-linecap="round" stroke-linejoin="round"/>
<path d="M25.6457 28.812H9.34633" stroke="#0B0B0B" stroke-width="2" stroke-linecap="round" stroke-linejoin="round"/>
<path d="M1.19664 18.4526V21.9059C1.19837 22.5159 1.44424 23.1005 1.88055 23.5319C2.31685 23.9632 2.9081 24.2063 3.52512 24.208H31.4669C32.0839 24.2063 32.6752 23.9632 33.1115 23.5319C33.5478 23.1005 33.7937 22.5159 33.7954 21.9059V18.4526H1.19664ZM17.496 23.057C17.2658 23.057 17.0407 22.9894 16.8492 22.863C16.6577 22.7365 16.5085 22.5567 16.4204 22.3464C16.3323 22.136 16.3092 21.9046 16.3541 21.6813C16.3991 21.458 16.51 21.2529 16.6728 21.0919C16.8356 20.931 17.043 20.8213 17.2689 20.7769C17.4947 20.7325 17.7288 20.7553 17.9416 20.8424C18.1543 20.9295 18.3361 21.0771 18.464 21.2664C18.592 21.4557 18.6603 21.6782 18.6603 21.9059C18.6603 22.2112 18.5376 22.5039 18.3193 22.7198C18.1009 22.9357 17.8048 23.057 17.496 23.057Z" fill="#0B0B0B"/>
</svg>
