<svg width="50" height="50" viewBox="0 0 50 50" fill="none" xmlns="http://www.w3.org/2000/svg">
<path d="M36.7188 15.625H26.5625V30.6025L31.708 25.458C32.0034 25.1774 32.3968 25.0232 32.8042 25.0284C33.2117 25.0336 33.6009 25.1978 33.8891 25.4859C34.1772 25.7741 34.3414 26.1633 34.3466 26.5708C34.3518 26.9782 34.1976 27.3716 33.917 27.667L26.1045 35.4795C25.8115 35.7723 25.4142 35.9368 25 35.9368C24.5858 35.9368 24.1885 35.7723 23.8955 35.4795L16.083 27.667C15.8024 27.3716 15.6482 26.9782 15.6534 26.5708C15.6586 26.1633 15.8228 25.7741 16.1109 25.4859C16.3991 25.1978 16.7883 25.0336 17.1958 25.0284C17.6032 25.0232 17.9966 25.1774 18.292 25.458L23.4375 30.6025V15.625H13.2812C11.8313 15.6266 10.4412 16.2032 9.41597 17.2285C8.39072 18.2537 7.81405 19.6438 7.8125 21.0938V41.4062C7.81405 42.8562 8.39072 44.2463 9.41597 45.2715C10.4412 46.2968 11.8313 46.8734 13.2812 46.875H36.7188C38.1687 46.8734 39.5588 46.2968 40.584 45.2715C41.6093 44.2463 42.1859 42.8562 42.1875 41.4062V21.0938C42.1859 19.6438 41.6093 18.2537 40.584 17.2285C39.5588 16.2032 38.1687 15.6266 36.7188 15.625ZM26.5625 4.6875C26.5625 4.2731 26.3979 3.87567 26.1049 3.58265C25.8118 3.28962 25.4144 3.125 25 3.125C24.5856 3.125 24.1882 3.28962 23.8951 3.58265C23.6021 3.87567 23.4375 4.2731 23.4375 4.6875V15.625H26.5625V4.6875Z" fill="#0B0B0B"/>
</svg>
