<svg width="51" height="50" viewBox="0 0 51 50" fill="none" xmlns="http://www.w3.org/2000/svg">
<path d="M25.5 4.6875C14.2822 4.6875 5.1875 13.7822 5.1875 25C5.1875 36.2178 14.2822 45.3125 25.5 45.3125C36.7178 45.3125 45.8125 36.2178 45.8125 25C45.8125 13.7822 36.7178 4.6875 25.5 4.6875Z" stroke="#E5E5E5" stroke-width="3" stroke-miterlimit="10"/>
<path d="M25.5 4.6875C19.8291 4.6875 14.4971 13.7822 14.4971 25C14.4971 36.2178 19.8291 45.3125 25.5 45.3125C31.1709 45.3125 36.5029 36.2178 36.5029 25C36.5029 13.7822 31.1709 4.6875 25.5 4.6875Z" stroke="#E5E5E5" stroke-width="3" stroke-miterlimit="10"/>
<path d="M39.042 38.542C35.3076 35.8906 30.6064 34.3096 25.5 34.3096C20.3935 34.3096 15.6924 35.8906 11.958 38.542M11.958 11.458C15.6924 14.1094 20.3935 15.6904 25.5 15.6904C30.6064 15.6904 35.3076 14.1094 39.042 11.458H11.958Z" stroke="#E5E5E5" stroke-width="3" stroke-linecap="round" stroke-linejoin="round"/>
<path d="M45.8125 25H5.1875M25.5 4.6875V45.3125V4.6875Z" stroke="#E5E5E5" stroke-width="3" stroke-miterlimit="10"/>
</svg>
