<svg width="33" height="30" viewBox="0 0 33 30" fill="none" xmlns="http://www.w3.org/2000/svg">
<path d="M5.02232 12.2378V27.0536C5.02232 27.32 5.12815 27.5755 5.31652 27.7639C5.5049 27.9523 5.76039 28.0581 6.02679 28.0581H12.0536V19.5202C12.0536 19.1206 12.2123 18.7373 12.4949 18.4548C12.7774 18.1722 13.1607 18.0135 13.5603 18.0135H18.5826C18.9822 18.0135 19.3654 18.1722 19.648 18.4548C19.9305 18.7373 20.0893 19.1206 20.0893 19.5202V28.0581H26.1161C26.3825 28.0581 26.638 27.9523 26.8263 27.7639C27.0147 27.5755 27.1205 27.32 27.1205 27.0536V12.2378" stroke="#E5E5E5" stroke-width="3" stroke-linecap="round" stroke-linejoin="round"/>
<path d="M25.1116 10.1661V2.94648H22.0982V7.27823M30.1339 15.0001L16.7551 2.19313C16.4412 1.86166 15.7073 1.85789 15.3878 2.19313L2.00893 15.0001H30.1339Z" stroke="#E5E5E5" stroke-width="3" stroke-linecap="round" stroke-linejoin="round"/>
</svg>
