<svg width="232" height="34" viewBox="0 0 232 34" fill="none" xmlns="http://www.w3.org/2000/svg">
<path d="M31.6875 3.94141C31.5417 4.03255 31.3867 4.08724 31.2227 4.10547C31.0586 4.1237 30.8854 4.15104 30.7031 4.1875C30.5391 4.20573 30.3841 4.24219 30.2383 4.29688C30.0924 4.35156 29.9831 4.45182 29.9102 4.59766C29.7279 4.41536 29.5273 4.26042 29.3086 4.13281C29.0898 4.00521 28.8711 3.86849 28.6523 3.72266C28.4701 3.77734 28.2878 3.85026 28.1055 3.94141C27.9232 4.03255 27.7409 4.07812 27.5586 4.07812C27.431 4.07812 27.3034 4.03255 27.1758 3.94141C27.0299 4.05078 26.8568 4.14193 26.6562 4.21484C26.474 4.26953 26.2734 4.32422 26.0547 4.37891C25.8542 4.43359 25.6628 4.50651 25.4805 4.59766C25.3164 4.6888 25.1979 4.82552 25.125 5.00781C25.0885 4.91667 24.9974 4.88932 24.8516 4.92578C24.724 4.96224 24.651 4.91667 24.6328 4.78906C24.0495 4.98958 23.457 5.16276 22.8555 5.30859C22.2539 5.45443 21.6523 5.60938 21.0508 5.77344C20.4492 5.9375 19.8568 6.11979 19.2734 6.32031C18.6901 6.52083 18.125 6.76693 17.5781 7.05859C17.5599 7.07682 17.5508 7.10417 17.5508 7.14062C17.5508 7.32292 17.5781 7.49609 17.6328 7.66016C17.6875 7.82422 17.7331 7.97917 17.7695 8.125C17.4414 9.23698 17.2227 10.3672 17.1133 11.5156C17.0039 12.6641 16.8581 13.7943 16.6758 14.9062V15.0156C16.6758 15.1068 16.7122 15.1797 16.7852 15.2344C16.8581 15.2708 16.8945 15.3438 16.8945 15.4531L16.8672 15.5078C16.776 15.5625 16.7122 15.6445 16.6758 15.7539C16.6393 15.8451 16.6211 15.9453 16.6211 16.0547C16.6211 16.1276 16.6393 16.237 16.6758 16.3828C16.3659 17.4219 16.1562 18.4792 16.0469 19.5547C15.9557 20.6302 15.8372 21.7057 15.6914 22.7812L15.4453 24.5859C15.4089 24.6953 15.3724 24.8047 15.3359 24.9141C15.3177 25.0052 15.3086 25.1055 15.3086 25.2148C15.3086 25.7982 15.3451 26.3724 15.418 26.9375C15.5091 27.4844 15.5365 28.0495 15.5 28.6328C15.6641 28.888 15.7461 29.1341 15.7461 29.3711C15.7461 29.4622 15.737 29.5534 15.7188 29.6445C15.7188 29.7357 15.7096 29.8268 15.6914 29.918C15.9284 30.1549 16.2018 30.319 16.5117 30.4102C16.8398 30.5195 17.1315 30.6836 17.3867 30.9023V31.0117C17.3867 31.194 17.3594 31.3672 17.3047 31.5312C17.25 31.7135 17.2044 31.8958 17.168 32.0781C17.1315 32.224 17.0859 32.4336 17.0312 32.707C16.9948 32.9805 16.9401 33.1628 16.8672 33.2539C16.776 33.3815 16.6393 33.4909 16.457 33.582C16.293 33.6914 16.1289 33.7461 15.9648 33.7461C15.9102 33.7461 15.8281 33.7188 15.7188 33.6641C15.6276 33.6094 15.5547 33.5638 15.5 33.5273C15.4089 33.5273 15.2904 33.5729 15.1445 33.6641C14.9987 33.7552 14.8529 33.8008 14.707 33.8008C14.6341 33.8008 14.5703 33.7917 14.5156 33.7734C14.4609 33.7734 14.3971 33.7552 14.3242 33.7188C14.2513 33.5365 14.1419 33.3724 13.9961 33.2266C13.8685 33.099 13.7135 32.9714 13.5312 32.8438C13.5495 32.5885 13.5039 32.3971 13.3945 32.2695C13.2852 32.1419 13.1758 31.9779 13.0664 31.7773C13.0299 31.5221 12.9935 31.2305 12.957 30.9023C12.9388 30.5742 12.8021 30.3372 12.5469 30.1914C12.638 30.0638 12.6836 29.8906 12.6836 29.6719C12.6836 29.5807 12.6654 29.4805 12.6289 29.3711C12.6107 29.2617 12.556 29.1797 12.4648 29.125V29.0703C12.4466 28.9792 12.474 28.9154 12.5469 28.8789C12.638 28.8242 12.6836 28.7513 12.6836 28.6602V28.5508C12.556 27.9674 12.4922 27.3568 12.4922 26.7188C12.4922 26.1172 12.5104 25.5247 12.5469 24.9414C12.5833 24.3398 12.5833 23.7383 12.5469 23.1367C12.6562 23.0456 12.7383 22.8997 12.793 22.6992C12.8659 22.4987 12.9206 22.2799 12.957 22.043C12.9935 21.806 13.0117 21.5781 13.0117 21.3594C13.0299 21.1224 13.0482 20.931 13.0664 20.7852C13.1576 19.7461 13.3034 18.7253 13.5039 17.7227C13.7044 16.7018 13.8229 15.6628 13.8594 14.6055C13.9505 14.4596 14.0052 14.2682 14.0234 14.0312C14.0417 13.7943 14.0508 13.5482 14.0508 13.293C14.0508 13.0195 14.069 12.7552 14.1055 12.5C14.1419 12.2448 14.2148 12.026 14.3242 11.8438C14.3242 11.3333 14.3698 10.8229 14.4609 10.3125C14.5521 9.78385 14.5977 9.25521 14.5977 8.72656C14.5977 8.47135 14.5703 8.20703 14.5156 7.93359C14.3333 7.86068 14.1693 7.82422 14.0234 7.82422C13.8229 7.82422 13.6133 7.86979 13.3945 7.96094C13.194 8.03385 13.0482 8.15234 12.957 8.31641C12.556 8.33464 12.1641 8.39844 11.7812 8.50781C11.3984 8.61719 11.0156 8.67188 10.6328 8.67188H10.3594C10.2865 8.67188 10.2044 8.66276 10.1133 8.64453C9.98568 8.69922 9.84896 8.74479 9.70312 8.78125C9.57552 8.81771 9.52083 8.92708 9.53906 9.10938C8.97396 9.16406 8.41797 9.28255 7.87109 9.46484C7.34245 9.64714 6.8138 9.84766 6.28516 10.0664C5.75651 10.2669 5.22786 10.4583 4.69922 10.6406C4.15234 10.8229 3.59635 10.9414 3.03125 10.9961C2.83073 11.0872 2.70312 11.2786 2.64844 11.5703C2.2474 11.5339 1.91016 11.4336 1.63672 11.2695C1.36328 11.1055 1.04427 10.9505 0.679688 10.8047C0.570312 10.4219 0.515625 10.0573 0.515625 9.71094C0.515625 9.25521 0.606771 8.81771 0.789062 8.39844C0.971354 7.97917 1.26302 7.66927 1.66406 7.46875C1.75521 7.48698 1.83724 7.50521 1.91016 7.52344C1.98307 7.52344 2.0651 7.52344 2.15625 7.52344C2.44792 7.52344 2.73958 7.46875 3.03125 7.35938C3.32292 7.25 3.6237 7.19531 3.93359 7.19531C4.02474 7.19531 4.125 7.22266 4.23438 7.27734C4.36198 7.20443 4.52604 7.14974 4.72656 7.11328C4.90885 7.05859 5.08203 7.01302 5.24609 6.97656C5.42839 6.92188 5.59245 6.84896 5.73828 6.75781C5.88411 6.66667 5.97526 6.53906 6.01172 6.375C6.10286 6.44792 6.20312 6.49349 6.3125 6.51172C6.42188 6.52995 6.53125 6.53906 6.64062 6.53906C6.8776 6.53906 7.1237 6.49349 7.37891 6.40234C7.63411 6.3112 7.83464 6.16536 7.98047 5.96484C8.10807 6.11068 8.29036 6.18359 8.52734 6.18359C8.78255 6.18359 9.02865 6.11979 9.26562 5.99219C9.52083 5.84635 9.76693 5.77344 10.0039 5.77344C10.1862 5.77344 10.3229 5.83724 10.4141 5.96484C10.6146 5.80078 10.8516 5.67318 11.125 5.58203C11.3984 5.49089 11.6719 5.40885 11.9453 5.33594C12.237 5.26302 12.5013 5.18099 12.7383 5.08984C12.9935 4.9987 13.194 4.87109 13.3398 4.70703C13.431 4.72526 13.5768 4.73438 13.7773 4.73438C14.0872 4.73438 14.3789 4.69792 14.6523 4.625C14.944 4.53385 15.2357 4.45182 15.5273 4.37891L16.1016 4.32422C16.2474 4.30599 16.375 4.26042 16.4844 4.1875C16.612 4.11458 16.7396 4.05078 16.8672 3.99609C16.9948 3.94141 17.1224 3.89583 17.25 3.85938C17.3958 3.82292 17.569 3.8138 17.7695 3.83203C18.207 3.59505 18.6719 3.41276 19.1641 3.28516C19.6562 3.15755 20.1576 3.04818 20.668 2.95703C21.1784 2.84766 21.6797 2.72917 22.1719 2.60156C22.6641 2.45573 23.1289 2.24609 23.5664 1.97266H23.6484C24.013 1.97266 24.3685 1.90885 24.7148 1.78125C25.0794 1.65365 25.4167 1.48047 25.7266 1.26172C25.7812 1.27995 25.8359 1.28906 25.8906 1.28906H26.082C26.5924 1.28906 27.0846 1.21615 27.5586 1.07031C28.0508 0.924479 28.5612 0.851562 29.0898 0.851562C29.3997 0.851562 29.6458 0.897135 29.8281 0.988281C30.0104 1.0612 30.1745 1.16146 30.3203 1.28906C30.4661 1.39844 30.6211 1.50781 30.7852 1.61719C30.9492 1.72656 31.1589 1.80859 31.4141 1.86328C31.5781 2.17318 31.6602 2.51042 31.6602 2.875C31.6602 3.22135 31.6693 3.57682 31.6875 3.94141ZM40.4102 17.2305C40.3372 17.4128 40.2643 17.5859 40.1914 17.75C40.1185 17.9141 40.0638 18.0964 40.0273 18.2969C39.8997 18.388 39.7539 18.4609 39.5898 18.5156C39.444 18.5521 39.2891 18.5977 39.125 18.6523C38.9609 18.6888 38.806 18.7435 38.6602 18.8164C38.5326 18.8711 38.4323 18.9622 38.3594 19.0898C38.3047 19.3633 38.2773 19.6185 38.2773 19.8555C38.2773 20.1654 38.332 20.4297 38.4414 20.6484C38.3867 20.8125 38.3503 20.9857 38.332 21.168C38.3138 21.3503 38.3047 21.5234 38.3047 21.6875C38.3047 22.2891 38.3776 22.8906 38.5234 23.4922C38.6693 24.0755 38.7513 24.668 38.7695 25.2695C38.7695 25.3607 38.7604 25.4609 38.7422 25.5703C38.724 25.6797 38.7148 25.7799 38.7148 25.8711C38.7148 26.2539 38.8607 26.5091 39.1523 26.6367C39.0977 26.7279 39.0703 26.8099 39.0703 26.8828C39.0703 27.0286 39.0885 27.1562 39.125 27.2656C39.1615 27.375 39.1706 27.4935 39.1523 27.6211C39.2435 27.8034 39.3346 27.9674 39.4258 28.1133C39.5169 28.2409 39.5807 28.4049 39.6172 28.6055C39.4896 28.8607 39.3346 29.0977 39.1523 29.3164C38.9701 29.5169 38.8424 29.7721 38.7695 30.082C38.6966 30.0638 38.6146 30.0547 38.5234 30.0547C38.3958 30.0547 38.2956 30.082 38.2227 30.1367C38.1497 30.1914 38.0859 30.2552 38.0312 30.3281C37.9948 30.4193 37.9492 30.5013 37.8945 30.5742C37.8398 30.6654 37.7669 30.7292 37.6758 30.7656H37.5938C37.5026 30.7839 37.4206 30.7747 37.3477 30.7383C37.293 30.7201 37.2383 30.7109 37.1836 30.7109C37.1471 30.7109 37.0742 30.7292 36.9648 30.7656C36.819 30.5833 36.7188 30.3646 36.6641 30.1094C36.6094 29.8724 36.582 29.6354 36.582 29.3984C36.582 29.1432 36.6185 28.9154 36.6914 28.7148C36.4909 28.5508 36.3633 28.3047 36.3086 27.9766C36.2721 27.6484 36.2266 27.375 36.1719 27.1562C36.026 26.4818 35.8529 25.8255 35.6523 25.1875C35.4701 24.5495 35.3607 23.8932 35.3242 23.2188C35.306 22.9635 35.2969 22.7174 35.2969 22.4805V21.0586C35.2969 20.8216 35.306 20.5938 35.3242 20.375C35.3242 20.2109 35.3333 20.056 35.3516 19.9102C35.388 19.7461 35.4062 19.582 35.4062 19.418C35.4062 19.1992 35.3333 18.9896 35.1875 18.7891C33.8932 18.8438 32.6628 19.0807 31.4961 19.5C30.3477 19.901 29.1992 20.3841 28.0508 20.9492C27.9779 21.3685 27.9323 21.7786 27.9141 22.1797C27.8958 22.5807 27.8867 22.9909 27.8867 23.4102V24.6133C27.8867 25.069 27.9049 25.4518 27.9414 25.7617C28.0326 26.2904 28.2969 26.7005 28.7344 26.9922C29.1901 27.2656 29.6458 27.4753 30.1016 27.6211C30.0833 27.8945 30.0286 28.1315 29.9375 28.332C29.8464 28.5143 29.7279 28.6875 29.582 28.8516C29.4544 28.9974 29.3086 29.1432 29.1445 29.2891C28.9805 29.4349 28.8164 29.599 28.6523 29.7812C28.5065 29.6901 28.3607 29.6263 28.2148 29.5898C28.069 29.5534 27.9141 29.5352 27.75 29.5352C27.5859 29.5169 27.4219 29.4987 27.2578 29.4805C27.0938 29.4622 26.9297 29.4258 26.7656 29.3711L26.1641 28.5508C25.9635 28.2773 25.7448 28.0039 25.5078 27.7305V27.4844C25.5078 26.9922 25.4167 26.5182 25.2344 26.0625C25.0521 25.6068 24.9154 25.1419 24.8242 24.668C24.8789 24.5039 24.9154 24.3398 24.9336 24.1758C24.9518 24.0117 24.9609 23.8385 24.9609 23.6562C24.9609 23.2917 24.9427 22.9362 24.9062 22.5898C24.888 22.2435 24.8971 21.8971 24.9336 21.5508H24.7969C24.6328 21.5508 24.4596 21.5964 24.2773 21.6875C24.0951 21.7604 23.9128 21.8516 23.7305 21.9609C23.5664 22.0521 23.4023 22.1432 23.2383 22.2344C23.0924 22.3073 22.9648 22.3438 22.8555 22.3438C22.8008 22.3438 22.7461 22.3346 22.6914 22.3164C22.6367 22.2982 22.5729 22.2891 22.5 22.2891C22.4089 22.2891 22.2995 22.3255 22.1719 22.3984C22.0443 22.4714 21.9076 22.5534 21.7617 22.6445C21.5977 22.7174 21.4336 22.7904 21.2695 22.8633C21.1055 22.9362 20.9414 22.9727 20.7773 22.9727C20.5221 22.9727 20.2669 22.8633 20.0117 22.6445C19.9753 22.4987 19.9661 22.362 19.9844 22.2344C19.9844 22.1068 19.9844 21.9701 19.9844 21.8242C19.9844 21.6784 19.957 21.5234 19.9023 21.3594C20.0299 21.1224 20.2031 20.9401 20.4219 20.8125C20.6224 20.6667 20.8411 20.5391 21.0781 20.4297C21.2969 20.3021 21.5247 20.1836 21.7617 20.0742C21.9987 19.9466 22.1992 19.7826 22.3633 19.582H22.5273C22.7826 19.582 23.0104 19.5273 23.2109 19.418C23.4297 19.3086 23.6758 19.263 23.9492 19.2812C24.0404 19.2448 24.1042 19.1081 24.1406 18.8711L24.25 18.8984C24.651 18.8984 25.0065 18.7617 25.3164 18.4883C25.5169 17.3581 25.681 16.2188 25.8086 15.0703C25.9362 13.9219 26 12.7734 26 11.625C26 11.5156 25.9635 11.4062 25.8906 11.2969C25.8542 11.151 25.8359 11.0143 25.8359 10.8867V10.4766C25.8359 10.276 25.8451 10.0664 25.8633 9.84766C25.8815 9.62891 25.9271 9.41016 26 9.19141C26.1823 9.08203 26.3737 9.02734 26.5742 9.02734C26.8112 9.02734 27.0391 9.0638 27.2578 9.13672C27.4948 9.19141 27.7227 9.23698 27.9414 9.27344C28.1055 9.4375 28.224 9.61979 28.2969 9.82031C28.388 10.0208 28.4427 10.2305 28.4609 10.4492C28.4792 10.6497 28.4792 10.8594 28.4609 11.0781C28.4609 11.2786 28.4609 11.4792 28.4609 11.6797C28.4609 12.0807 28.5065 12.4727 28.5977 12.8555C28.6888 13.2383 28.7344 13.612 28.7344 13.9766C28.7344 14.0677 28.6979 14.1406 28.625 14.1953C28.5703 14.2318 28.543 14.3503 28.543 14.5508C28.543 14.7513 28.5612 14.9609 28.5977 15.1797C28.6341 15.3984 28.6523 15.6172 28.6523 15.8359C28.6523 16.0911 28.6159 16.3555 28.543 16.6289C28.4701 16.9023 28.4062 17.1667 28.3516 17.4219C29.4453 17.3307 30.5664 17.194 31.7148 17.0117C32.8633 16.8294 33.957 16.5378 34.9961 16.1367C35.0143 16.1003 35.0234 16.0456 35.0234 15.9727C35.0234 15.8633 35.0143 15.7539 34.9961 15.6445C34.9779 15.5352 34.9688 15.4167 34.9688 15.2891C34.9688 15.0703 35.0417 14.8971 35.1875 14.7695C35.0964 14.2591 35.0326 13.7487 34.9961 13.2383C34.9596 12.7279 34.9414 12.2174 34.9414 11.707V10.1484C34.9414 9.63802 34.9323 9.1276 34.9141 8.61719C35.0599 8.52604 35.2148 8.48047 35.3789 8.48047C35.5794 8.48047 35.7617 8.53516 35.9258 8.64453C36.1081 8.73568 36.3177 8.78125 36.5547 8.78125C36.7188 8.78125 36.8555 8.75391 36.9648 8.69922C37.1654 8.88151 37.3021 9.11849 37.375 9.41016C37.4479 9.70182 37.5117 10.0026 37.5664 10.3125C37.6211 10.6224 37.6758 10.9323 37.7305 11.2422C37.8034 11.5339 37.9401 11.7708 38.1406 11.9531L38.168 12.0352C38.168 12.1081 38.1315 12.1628 38.0586 12.1992C37.9857 12.2357 37.9492 12.3086 37.9492 12.418V12.5273C38.0221 12.819 38.0768 13.1198 38.1133 13.4297C38.1497 13.7396 38.1771 14.0586 38.1953 14.3867C38.2318 14.6966 38.2773 15.0065 38.332 15.3164C38.3867 15.6081 38.487 15.8815 38.6328 16.1367C38.724 16.1185 38.8424 16.1094 38.9883 16.1094C39.3529 16.1094 39.6354 16.237 39.8359 16.4922C40.0547 16.7292 40.2461 16.9753 40.4102 17.2305ZM59.4688 12.6094V12.7188C59.3411 12.7552 59.2773 12.8464 59.2773 12.9922C59.0768 13.0833 58.8672 13.1562 58.6484 13.2109C58.4297 13.2474 58.2201 13.3112 58.0195 13.4023C57.819 13.3841 57.6094 13.375 57.3906 13.375C57.1901 13.3568 56.9896 13.3477 56.7891 13.3477C56.2422 13.3477 55.6953 13.3659 55.1484 13.4023C54.6016 13.4388 54.0547 13.4388 53.5078 13.4023C53.2526 13.5482 52.9701 13.6667 52.6602 13.7578C52.3685 13.8307 52.0859 13.8672 51.8125 13.8672C51.5938 13.8672 51.4023 13.8398 51.2383 13.7852C50.8008 14.0039 50.3177 14.1862 49.7891 14.332C49.2786 14.4779 48.7591 14.6237 48.2305 14.7695C47.7018 14.8971 47.1914 15.0521 46.6992 15.2344C46.2253 15.3984 45.806 15.6354 45.4414 15.9453C45.4049 16.2005 45.3776 16.4557 45.3594 16.7109C45.3411 16.9479 45.332 17.1849 45.332 17.4219C45.332 17.6771 45.3411 17.9141 45.3594 18.1328C45.3958 18.3516 45.4596 18.5703 45.5508 18.7891C45.6419 18.8255 45.7422 18.8529 45.8516 18.8711C45.9792 18.8893 46.0885 18.8984 46.1797 18.8984C46.2708 18.8984 46.362 18.8893 46.4531 18.8711C46.5443 18.8346 46.6081 18.7708 46.6445 18.6797C46.918 18.6432 47.1914 18.6341 47.4648 18.6523C47.7383 18.6523 48.0117 18.6523 48.2852 18.6523C48.5586 18.6523 48.8229 18.6432 49.0781 18.625C49.3516 18.6068 49.6159 18.5612 49.8711 18.4883C50.1628 18.4154 50.4453 18.3698 50.7188 18.3516C51.0104 18.3333 51.293 18.3151 51.5664 18.2969C51.8398 18.2786 52.1224 18.2513 52.4141 18.2148C52.7057 18.1602 53.0065 18.0599 53.3164 17.9141C53.5534 18.0052 53.7904 18.0508 54.0273 18.0508C54.2826 18.0508 54.5286 18.069 54.7656 18.1055C54.8932 18.1966 54.9935 18.2969 55.0664 18.4062C55.1576 18.5156 55.2031 18.6432 55.2031 18.7891C55.2031 19.0443 55.112 19.2995 54.9297 19.5547C54.7474 19.8099 54.6016 20.0469 54.4922 20.2656H54.1914C53.7539 20.2656 53.3255 20.3294 52.9062 20.457C52.5052 20.5664 52.0951 20.7031 51.6758 20.8672C51.2747 21.013 50.8646 21.1497 50.4453 21.2773C50.0443 21.3867 49.625 21.4414 49.1875 21.4414C49.1146 21.4414 49.069 21.487 49.0508 21.5781C49.0508 21.651 49.0326 21.7057 48.9961 21.7422C48.9049 21.724 48.7682 21.7148 48.5859 21.7148C48.1667 21.7148 47.7656 21.7604 47.3828 21.8516C47 21.9427 46.6081 21.9883 46.207 21.9883C46.0977 21.9883 45.9883 21.9883 45.8789 21.9883C45.7695 21.9701 45.6602 21.9518 45.5508 21.9336C45.4596 22.0794 45.3411 22.1797 45.1953 22.2344C45.0495 22.2708 44.9128 22.3438 44.7852 22.4531C44.7305 22.6172 44.694 22.8177 44.6758 23.0547C44.6758 23.2917 44.6667 23.5378 44.6484 23.793C44.6484 24.0299 44.6302 24.2578 44.5938 24.4766C44.5573 24.6953 44.4844 24.8685 44.375 24.9961C44.3932 25.0872 44.4661 25.1237 44.5938 25.1055C44.7214 25.069 44.7852 25.1237 44.7852 25.2695C44.7852 25.4336 44.7669 25.6068 44.7305 25.7891C44.694 25.9714 44.6758 26.1536 44.6758 26.3359C44.6758 26.6823 44.7122 27.0651 44.7852 27.4844C44.8763 27.8854 45.0039 28.2591 45.168 28.6055C45.3503 28.9518 45.5872 29.2435 45.8789 29.4805C46.1706 29.6992 46.5352 29.8086 46.9727 29.8086C47.2643 29.8086 47.5378 29.7539 47.793 29.6445C48.0482 29.5352 48.2578 29.3529 48.4219 29.0977L48.5586 29.0703C48.6315 29.0703 48.6953 29.0794 48.75 29.0977C48.8229 29.1159 48.8958 29.125 48.9688 29.125C49.0781 29.125 49.2148 29.0612 49.3789 28.9336C49.5612 28.7878 49.7526 28.6237 49.9531 28.4414C50.1719 28.2591 50.3906 28.0859 50.6094 27.9219C50.8281 27.7396 51.0378 27.612 51.2383 27.5391C51.3659 27.2839 51.4844 27.0286 51.5938 26.7734C51.7214 26.5182 51.9036 26.3177 52.1406 26.1719V25.3789C52.3229 25.1784 52.5143 24.9961 52.7148 24.832C52.9336 24.668 53.0977 24.4583 53.207 24.2031C53.2982 24.2396 53.3802 24.2669 53.4531 24.2852C53.5443 24.3034 53.6354 24.3125 53.7266 24.3125C53.8177 24.3125 53.9089 24.3034 54 24.2852C54.1094 24.2669 54.2096 24.2396 54.3008 24.2031C54.4466 24.4036 54.556 24.6315 54.6289 24.8867C54.7201 25.1237 54.8294 25.3516 54.957 25.5703C54.793 25.8984 54.6016 26.2904 54.3828 26.7461C54.1641 27.2018 53.9271 27.6576 53.6719 28.1133C53.4167 28.569 53.1432 29.0065 52.8516 29.4258C52.5781 29.8268 52.3047 30.1367 52.0312 30.3555C51.9766 30.4102 51.8581 30.474 51.6758 30.5469C51.4753 30.6927 51.293 30.8294 51.1289 30.957C50.9648 31.1029 50.8099 31.2669 50.6641 31.4492C50.1354 31.6133 49.625 31.832 49.1328 32.1055C48.6589 32.3789 48.1849 32.6432 47.7109 32.8984C47.4922 32.8438 47.2552 32.8164 47 32.8164C46.7812 32.8164 46.5625 32.8255 46.3438 32.8438C46.125 32.8802 45.888 32.8984 45.6328 32.8984C45.5599 32.8073 45.4505 32.7435 45.3047 32.707C45.1771 32.6888 45.1315 32.5977 45.168 32.4336C44.5482 32.3971 44.0469 32.224 43.6641 31.9141C43.2812 31.6224 42.9531 31.2578 42.6797 30.8203C42.4245 30.3828 42.2148 29.9089 42.0508 29.3984C41.8867 28.888 41.7135 28.3958 41.5312 27.9219V27.8398C41.5312 27.7487 41.5677 27.694 41.6406 27.6758C41.7135 27.6576 41.75 27.6029 41.75 27.5117C41.75 27.4753 41.7409 27.4479 41.7227 27.4297C41.668 27.2292 41.6224 27.056 41.5859 26.9102C41.5495 26.7643 41.5312 26.5911 41.5312 26.3906C41.5312 26.099 41.5495 25.8164 41.5859 25.543C41.6224 25.2513 41.6406 24.9596 41.6406 24.668C41.6406 24.3763 41.6042 24.1211 41.5312 23.9023C41.6042 23.8112 41.668 23.6927 41.7227 23.5469C41.7591 23.3828 41.7865 23.2188 41.8047 23.0547C41.8229 22.8906 41.832 22.7266 41.832 22.5625C41.8503 22.3984 41.8776 22.2526 41.9141 22.125C41.8411 21.9245 41.7773 21.7513 41.7227 21.6055C41.668 21.4414 41.6406 21.25 41.6406 21.0312V20.8398C41.8229 20.5299 41.9779 20.2109 42.1055 19.8828C42.2331 19.5547 42.3698 19.2174 42.5156 18.8711V18.7891C42.5156 18.2604 42.4974 17.7318 42.4609 17.2031C42.4245 16.6745 42.4062 16.1458 42.4062 15.6172V15.0977C42.4062 14.9154 42.4154 14.7422 42.4336 14.5781C42.5794 14.5052 42.6888 14.4049 42.7617 14.2773C42.8346 14.1497 42.944 14.0495 43.0898 13.9766H43.9922L44.1562 13.7031C44.2109 13.612 44.2474 13.5117 44.2656 13.4023C44.4661 13.3477 44.6576 13.2747 44.8398 13.1836C45.0404 13.0742 45.2227 12.9648 45.3867 12.8555C45.6419 12.7096 45.8698 12.582 46.0703 12.4727C46.2891 12.3451 46.4987 12.2448 46.6992 12.1719C46.918 12.0807 47.1458 12.0078 47.3828 11.9531C47.6198 11.8984 47.8932 11.8529 48.2031 11.8164C48.349 11.8164 48.4401 11.7891 48.4766 11.7344C48.5312 11.6797 48.6042 11.6159 48.6953 11.543C48.9141 11.5794 49.1328 11.6159 49.3516 11.6523C49.5703 11.6706 49.7891 11.6797 50.0078 11.6797C50.4453 11.6797 50.8555 11.5977 51.2383 11.4336C51.7852 11.4336 52.3229 11.4245 52.8516 11.4062C53.3984 11.388 53.9453 11.3789 54.4922 11.3789C54.9661 11.3789 55.4401 11.3971 55.9141 11.4336C56.388 11.4701 56.8529 11.5339 57.3086 11.625C57.4727 11.5703 57.6549 11.543 57.8555 11.543C58.0742 11.543 58.293 11.5703 58.5117 11.625C58.7487 11.6615 58.9766 11.6615 59.1953 11.625C59.2135 11.8255 59.2591 11.9987 59.332 12.1445C59.4232 12.2721 59.4688 12.4271 59.4688 12.6094ZM84.543 22.9727C84.543 23.1732 84.4701 23.3281 84.3242 23.4375C84.1784 23.5286 84.1055 23.6562 84.1055 23.8203C84.1055 23.8932 84.1419 23.9844 84.2148 24.0938C83.9596 24.0938 83.7865 24.1758 83.6953 24.3398C83.6042 24.5039 83.513 24.6862 83.4219 24.8867H83.0664C82.9753 24.8867 82.9023 24.9049 82.8477 24.9414C82.793 24.9779 82.7383 25.0326 82.6836 25.1055C82.6471 25.1602 82.5924 25.2513 82.5195 25.3789C82.1732 25.4518 81.8359 25.5703 81.5078 25.7344C81.1979 25.8802 80.888 26.0443 80.5781 26.2266C80.2865 26.3906 79.9857 26.5638 79.6758 26.7461C79.3659 26.9102 79.0469 27.0469 78.7188 27.1562C78.5547 27.4297 78.3177 27.6484 78.0078 27.8125H77.9258C77.8346 27.8307 77.7526 27.8216 77.6797 27.7852C77.625 27.7305 77.5521 27.7031 77.4609 27.7031C77.4062 27.7031 77.3698 27.7122 77.3516 27.7305C76.8047 28.0951 76.194 28.2773 75.5195 28.2773C75.3372 28.2773 75.1641 28.2682 75 28.25C74.8359 28.2135 74.6628 28.1953 74.4805 28.1953C74.4258 28.1953 74.3893 28.2135 74.3711 28.25L74.3164 28.3594C74.2982 28.3958 74.2708 28.4323 74.2344 28.4688C74.2161 28.5052 74.1523 28.5234 74.043 28.5234C73.8424 28.5234 73.6419 28.4961 73.4414 28.4414C73.2409 28.3867 73.0312 28.3776 72.8125 28.4141C72.3932 28.1771 72.0651 27.9492 71.8281 27.7305C71.5911 27.5117 71.3724 27.1836 71.1719 26.7461C71.0807 26.5456 70.9531 26.3542 70.7891 26.1719C70.6432 25.9896 70.5339 25.7891 70.4609 25.5703C70.4427 25.4974 70.4154 25.3698 70.3789 25.1875C70.3424 24.987 70.306 24.7773 70.2695 24.5586C70.2331 24.3398 70.1966 24.1302 70.1602 23.9297C70.1419 23.7292 70.1328 23.5924 70.1328 23.5195C70.1328 23.3008 70.1419 23.0911 70.1602 22.8906C70.1966 22.6719 70.2331 22.4531 70.2695 22.2344C70.3789 21.5417 70.4518 20.849 70.4883 20.1562C70.543 19.4453 70.6979 18.7617 70.9531 18.1055C70.9167 17.9049 70.8984 17.7135 70.8984 17.5312V16.9297C70.8984 16.5833 70.8529 16.2917 70.7617 16.0547C70.9076 15.8177 70.9805 15.5534 70.9805 15.2617C70.9805 14.9336 70.8438 14.7422 70.5703 14.6875V14.6055C70.5703 14.2227 70.4427 13.9219 70.1875 13.7031C70.1875 13.0651 70.3424 12.5911 70.6523 12.2812C70.9805 11.9531 71.4089 11.6706 71.9375 11.4336C72.0104 11.3242 72.0378 11.2331 72.0195 11.1602C72.1471 11.1966 72.2656 11.2331 72.375 11.2695C72.4844 11.306 72.5938 11.3242 72.7031 11.3242C72.8854 11.3242 73.0495 11.2969 73.1953 11.2422C73.25 11.4609 73.3867 11.5977 73.6055 11.6523C73.8424 11.6888 74.0339 11.7435 74.1797 11.8164V12.1719C74.1797 12.737 74.3164 13.2747 74.5898 13.7852C74.5169 13.931 74.4714 14.0859 74.4531 14.25C74.4349 14.4141 74.4258 14.569 74.4258 14.7148C74.4258 14.9336 74.4349 15.1523 74.4531 15.3711C74.4714 15.5898 74.4805 15.7995 74.4805 16C74.4805 16.2188 74.4531 16.4375 74.3984 16.6562C74.362 16.875 74.2617 17.0664 74.0977 17.2305C74.0794 17.4674 74.0612 17.7409 74.043 18.0508C74.043 18.3424 74.0247 18.6432 73.9883 18.9531C73.9701 19.263 73.9245 19.5638 73.8516 19.8555C73.7786 20.1471 73.6693 20.3841 73.5234 20.5664C73.5052 20.8398 73.487 21.1224 73.4688 21.4141C73.4688 21.6875 73.4688 21.9518 73.4688 22.207C73.4688 22.6081 73.487 23.082 73.5234 23.6289C73.5781 24.1758 73.7057 24.6315 73.9062 24.9961C73.9974 25.1419 74.1706 25.2513 74.4258 25.3242C74.6992 25.3971 74.918 25.4336 75.082 25.4336C75.2826 25.4336 75.4831 25.4062 75.6836 25.3516C75.9023 25.2786 76.0573 25.1602 76.1484 24.9961C76.2578 25.0143 76.3307 25.069 76.3672 25.1602C76.4036 25.2513 76.4674 25.3242 76.5586 25.3789C77.5977 24.9414 78.6367 24.5221 79.6758 24.1211C80.7148 23.7201 81.7357 23.2552 82.7383 22.7266C82.8841 22.7995 83.0391 22.8359 83.2031 22.8359C83.3854 22.8359 83.5677 22.8177 83.75 22.7812C83.9323 22.7448 84.1146 22.7266 84.2969 22.7266H84.4883C84.5247 22.8359 84.543 22.918 84.543 22.9727ZM90.2578 26.2539C90.1667 26.3997 90.0573 26.5365 89.9297 26.6641C89.8021 26.7734 89.6836 26.8919 89.5742 27.0195C89.4466 27.0742 89.3008 27.1016 89.1367 27.1016C88.9909 27.1016 88.8451 27.1016 88.6992 27.1016C88.5716 27.0833 88.444 27.0833 88.3164 27.1016C88.207 27.1016 88.1159 27.138 88.043 27.2109C87.8971 27.1745 87.7878 27.1107 87.7148 27.0195C87.6419 26.9102 87.5143 26.8464 87.332 26.8281C87.2591 26.8099 87.1862 26.8099 87.1133 26.8281C86.8398 26.5182 86.5846 26.1901 86.3477 25.8438C86.1289 25.4974 85.9193 25.1693 85.7188 24.8594C85.7005 24.1849 85.6458 23.5013 85.5547 22.8086C85.5365 22.6445 85.5091 22.4805 85.4727 22.3164C85.4362 22.1523 85.4089 21.9974 85.3906 21.8516C85.3906 21.6693 85.3997 21.4961 85.418 21.332C85.4544 21.1497 85.4818 20.9857 85.5 20.8398C85.5729 20.3112 85.6549 19.7917 85.7461 19.2812C85.8372 18.7708 85.9193 18.2513 85.9922 17.7227C86.0651 17.2487 86.1016 16.7565 86.1016 16.2461C86.1016 15.7174 86.0195 15.2253 85.8555 14.7695L85.8281 14.6328C85.8646 14.487 85.901 14.3685 85.9375 14.2773C85.9922 14.168 86.0286 14.0495 86.0469 13.9219C86.0833 13.7214 86.0378 13.5755 85.9102 13.4844C85.9648 13.3385 86.056 13.2474 86.1836 13.2109C86.3112 13.1562 86.3841 13.0469 86.4023 12.8828C86.4206 12.8099 86.4206 12.737 86.4023 12.6641C86.5482 12.6094 86.694 12.5638 86.8398 12.5273C87.0039 12.4727 87.1589 12.4635 87.3047 12.5C87.5417 12.5365 87.7513 12.6185 87.9336 12.7461C88.1159 12.8555 88.2891 12.9831 88.4531 13.1289C88.7448 14.0039 88.8633 14.9336 88.8086 15.918C88.7539 16.8841 88.6628 17.8594 88.5352 18.8438C88.4076 19.8281 88.3255 20.7943 88.2891 21.7422C88.2526 22.6719 88.3984 23.5378 88.7266 24.3398L88.7812 24.3672C88.8724 24.3854 88.9453 24.3581 89 24.2852C89.0547 24.194 89.1276 24.1576 89.2188 24.1758C89.2917 24.2122 89.3372 24.2305 89.3555 24.2305C89.4284 24.5951 89.5469 24.9414 89.7109 25.2695C89.875 25.5977 90.0573 25.9258 90.2578 26.2539ZM115.441 12.3359C115.441 12.4453 115.387 12.5365 115.277 12.6094C115.186 12.6823 115.077 12.7552 114.949 12.8281C114.84 12.901 114.721 12.9831 114.594 13.0742C114.484 13.1654 114.411 13.2747 114.375 13.4023H114.129C114.02 13.4023 113.965 13.4388 113.965 13.5117H113.883C113.719 13.5117 113.609 13.4661 113.555 13.375C113.5 13.2656 113.382 13.2109 113.199 13.2109C112.743 13.2109 112.288 13.2201 111.832 13.2383C111.395 13.2383 110.948 13.2474 110.492 13.2656C109.234 13.2656 107.995 13.3112 106.773 13.4023C105.57 13.4753 104.376 13.7305 103.191 14.168C103.155 14.1862 103.109 14.1953 103.055 14.1953C102.964 14.1953 102.909 14.1589 102.891 14.0859C102.891 14.013 102.845 13.9766 102.754 13.9766C102.499 13.9766 102.262 14.0039 102.043 14.0586C101.824 14.1133 101.587 14.1497 101.332 14.168C101.04 14.4232 100.703 14.6328 100.32 14.7969C99.9557 14.9609 99.5729 15.125 99.1719 15.2891C98.7891 15.4349 98.4154 15.599 98.0508 15.7812C97.6862 15.9453 97.3672 16.1641 97.0938 16.4375C97.1302 16.6562 97.1576 16.875 97.1758 17.0938C97.2122 17.2943 97.2305 17.4948 97.2305 17.6953C97.2305 18.4792 97.1576 19.2539 97.0117 20.0195C96.8659 20.7669 96.793 21.5234 96.793 22.2891V22.6992C96.793 22.8268 96.8021 22.9635 96.8203 23.1094C96.8568 23.2005 96.9206 23.2643 97.0117 23.3008C97.1211 23.319 97.2122 23.3555 97.2852 23.4102C97.5221 23.2461 97.7591 23.1185 97.9961 23.0273C98.2513 22.918 98.5065 22.8177 98.7617 22.7266C99.0352 22.6172 99.2904 22.5169 99.5273 22.4258C99.7826 22.3164 100.029 22.1888 100.266 22.043H101.031C101.232 21.8971 101.469 21.7878 101.742 21.7148C102.016 21.6419 102.198 21.4779 102.289 21.2227C102.326 21.2591 102.362 21.2773 102.398 21.2773H102.508C102.727 21.2773 102.945 21.2318 103.164 21.1406C103.401 21.0495 103.638 20.9583 103.875 20.8672C104.112 20.7578 104.349 20.6576 104.586 20.5664C104.823 20.4753 105.069 20.4297 105.324 20.4297C105.379 20.4297 105.424 20.4388 105.461 20.457C105.516 20.457 105.57 20.457 105.625 20.457C105.734 20.2747 105.889 20.138 106.09 20.0469C106.29 19.9375 106.5 19.8464 106.719 19.7734C106.938 19.7005 107.156 19.6276 107.375 19.5547C107.612 19.4818 107.812 19.3906 107.977 19.2812H108.086C108.195 19.2812 108.277 19.3086 108.332 19.3633C108.405 19.3997 108.487 19.4362 108.578 19.4727C109.089 19.1445 109.608 18.9805 110.137 18.9805C110.684 18.9622 111.249 18.9258 111.832 18.8711C111.96 19.0898 112.069 19.2721 112.16 19.418C112.27 19.5456 112.324 19.737 112.324 19.9922C112.324 20.1198 112.315 20.2109 112.297 20.2656C112.096 20.3385 111.941 20.4023 111.832 20.457L111.531 20.6211C111.44 20.6576 111.331 20.694 111.203 20.7305C111.076 20.7487 110.893 20.7578 110.656 20.7578C110.51 20.7578 110.447 20.8034 110.465 20.8945C110.483 20.9674 110.438 21.013 110.328 21.0312C110.073 21.1224 109.818 21.1953 109.562 21.25C109.307 21.3047 109.052 21.3776 108.797 21.4688C108.268 21.6328 107.74 21.8151 107.211 22.0156C106.701 22.1979 106.172 22.3438 105.625 22.4531C105.169 22.8177 104.677 23.1185 104.148 23.3555C103.62 23.5742 103.073 23.7565 102.508 23.9023C101.906 24.3398 101.314 24.75 100.73 25.1328C100.147 25.4974 99.4909 25.8073 98.7617 26.0625C98.6706 26.1536 98.5612 26.2357 98.4336 26.3086C98.306 26.3815 98.224 26.4909 98.1875 26.6367C98.151 26.6367 98.1055 26.6367 98.0508 26.6367C98.0143 26.6185 97.9688 26.6094 97.9141 26.6094C97.6589 26.6094 97.4583 26.6732 97.3125 26.8008C97.1849 26.9102 97.0208 26.9831 96.8203 27.0195C96.7292 27.293 96.6836 27.5299 96.6836 27.7305C96.6836 27.9857 96.7292 28.2135 96.8203 28.4141C96.9115 28.6146 97.0208 28.806 97.1484 28.9883C97.2943 29.1706 97.4401 29.3529 97.5859 29.5352C97.75 29.6992 97.8867 29.8815 97.9961 30.082C97.9596 30.3008 97.8867 30.474 97.7773 30.6016C97.6862 30.7474 97.5768 30.875 97.4492 30.9844C97.3216 31.112 97.194 31.2396 97.0664 31.3672C96.957 31.4948 96.875 31.6589 96.8203 31.8594C96.4922 31.9141 96.1732 31.9414 95.8633 31.9414C95.6628 31.9414 95.4531 31.9141 95.2344 31.8594C95.0339 31.8229 94.8424 31.75 94.6602 31.6406C94.3685 31.2396 94.1589 30.8112 94.0312 30.3555C93.9219 29.8997 93.7669 29.444 93.5664 28.9883L93.5938 28.7969C93.5938 28.3958 93.5208 28.0495 93.375 27.7578C93.2474 27.4479 93.0469 27.138 92.7734 26.8281C92.7917 26.7917 92.8008 26.7279 92.8008 26.6367C92.8008 26.3997 92.7279 26.181 92.582 25.9805C92.6185 25.5612 92.7279 25.2331 92.9102 24.9961C93.1107 24.7591 93.3294 24.4948 93.5664 24.2031V23.875C93.5664 23.0911 93.6302 22.3255 93.7578 21.5781C93.9036 20.8125 93.9766 20.0469 93.9766 19.2812C93.9766 18.8073 93.9401 18.388 93.8672 18.0234C93.8125 18.0052 93.7396 17.9961 93.6484 17.9961C93.5573 17.9961 93.4844 18.0234 93.4297 18.0781C93.375 18.1146 93.3294 18.1602 93.293 18.2148C93.2565 18.2695 93.2109 18.3242 93.1562 18.3789C93.1198 18.4336 93.056 18.4701 92.9648 18.4883C92.6549 18.4336 92.4544 18.2878 92.3633 18.0508C92.2721 17.8138 92.2266 17.5495 92.2266 17.2578C92.2266 17.0938 92.2357 16.9297 92.2539 16.7656C92.2721 16.6016 92.2904 16.4284 92.3086 16.2461C93.0013 15.4805 93.8307 14.7695 94.7969 14.1133C95.763 13.457 96.7201 12.9284 97.668 12.5273C97.7227 12.5091 97.7865 12.5 97.8594 12.5C97.9323 12.5 97.9961 12.5182 98.0508 12.5547C98.1055 12.5729 98.1693 12.582 98.2422 12.582C98.2969 12.582 98.3424 12.5638 98.3789 12.5273C98.5612 12.5273 98.6888 12.4727 98.7617 12.3633C98.8346 12.2539 98.9349 12.1445 99.0625 12.0352C99.1901 12.1263 99.2995 12.1719 99.3906 12.1719C99.5729 12.1719 99.7552 12.0898 99.9375 11.9258C100.12 11.7617 100.32 11.6615 100.539 11.625C101.378 11.4792 102.198 11.3607 103 11.2695C103.82 11.1784 104.632 10.9688 105.434 10.6406C105.616 10.7318 105.798 10.7865 105.98 10.8047C106.163 10.8229 106.345 10.832 106.527 10.832C106.728 10.832 106.947 10.8138 107.184 10.7773C107.439 10.7227 107.639 10.6133 107.785 10.4492C108.368 10.5221 108.988 10.5495 109.645 10.5312C110.319 10.513 110.984 10.5221 111.641 10.5586C112.315 10.5951 112.962 10.6862 113.582 10.832C114.202 10.9779 114.749 11.2422 115.223 11.625C115.259 11.7526 115.305 11.8711 115.359 11.9805C115.414 12.0898 115.441 12.2083 115.441 12.3359ZM131.137 12.6094V12.7188C131.009 12.7552 130.945 12.8464 130.945 12.9922C130.745 13.0833 130.535 13.1562 130.316 13.2109C130.098 13.2474 129.888 13.3112 129.688 13.4023C129.487 13.3841 129.277 13.375 129.059 13.375C128.858 13.3568 128.658 13.3477 128.457 13.3477C127.91 13.3477 127.363 13.3659 126.816 13.4023C126.27 13.4388 125.723 13.4388 125.176 13.4023C124.921 13.5482 124.638 13.6667 124.328 13.7578C124.036 13.8307 123.754 13.8672 123.48 13.8672C123.262 13.8672 123.07 13.8398 122.906 13.7852C122.469 14.0039 121.986 14.1862 121.457 14.332C120.947 14.4779 120.427 14.6237 119.898 14.7695C119.37 14.8971 118.859 15.0521 118.367 15.2344C117.893 15.3984 117.474 15.6354 117.109 15.9453C117.073 16.2005 117.046 16.4557 117.027 16.7109C117.009 16.9479 117 17.1849 117 17.4219C117 17.6771 117.009 17.9141 117.027 18.1328C117.064 18.3516 117.128 18.5703 117.219 18.7891C117.31 18.8255 117.41 18.8529 117.52 18.8711C117.647 18.8893 117.757 18.8984 117.848 18.8984C117.939 18.8984 118.03 18.8893 118.121 18.8711C118.212 18.8346 118.276 18.7708 118.312 18.6797C118.586 18.6432 118.859 18.6341 119.133 18.6523C119.406 18.6523 119.68 18.6523 119.953 18.6523C120.227 18.6523 120.491 18.6432 120.746 18.625C121.02 18.6068 121.284 18.5612 121.539 18.4883C121.831 18.4154 122.113 18.3698 122.387 18.3516C122.678 18.3333 122.961 18.3151 123.234 18.2969C123.508 18.2786 123.79 18.2513 124.082 18.2148C124.374 18.1602 124.674 18.0599 124.984 17.9141C125.221 18.0052 125.458 18.0508 125.695 18.0508C125.951 18.0508 126.197 18.069 126.434 18.1055C126.561 18.1966 126.661 18.2969 126.734 18.4062C126.826 18.5156 126.871 18.6432 126.871 18.7891C126.871 19.0443 126.78 19.2995 126.598 19.5547C126.415 19.8099 126.27 20.0469 126.16 20.2656H125.859C125.422 20.2656 124.993 20.3294 124.574 20.457C124.173 20.5664 123.763 20.7031 123.344 20.8672C122.943 21.013 122.533 21.1497 122.113 21.2773C121.712 21.3867 121.293 21.4414 120.855 21.4414C120.783 21.4414 120.737 21.487 120.719 21.5781C120.719 21.651 120.701 21.7057 120.664 21.7422C120.573 21.724 120.436 21.7148 120.254 21.7148C119.835 21.7148 119.434 21.7604 119.051 21.8516C118.668 21.9427 118.276 21.9883 117.875 21.9883C117.766 21.9883 117.656 21.9883 117.547 21.9883C117.438 21.9701 117.328 21.9518 117.219 21.9336C117.128 22.0794 117.009 22.1797 116.863 22.2344C116.717 22.2708 116.581 22.3438 116.453 22.4531C116.398 22.6172 116.362 22.8177 116.344 23.0547C116.344 23.2917 116.335 23.5378 116.316 23.793C116.316 24.0299 116.298 24.2578 116.262 24.4766C116.225 24.6953 116.152 24.8685 116.043 24.9961C116.061 25.0872 116.134 25.1237 116.262 25.1055C116.389 25.069 116.453 25.1237 116.453 25.2695C116.453 25.4336 116.435 25.6068 116.398 25.7891C116.362 25.9714 116.344 26.1536 116.344 26.3359C116.344 26.6823 116.38 27.0651 116.453 27.4844C116.544 27.8854 116.672 28.2591 116.836 28.6055C117.018 28.9518 117.255 29.2435 117.547 29.4805C117.839 29.6992 118.203 29.8086 118.641 29.8086C118.932 29.8086 119.206 29.7539 119.461 29.6445C119.716 29.5352 119.926 29.3529 120.09 29.0977L120.227 29.0703C120.299 29.0703 120.363 29.0794 120.418 29.0977C120.491 29.1159 120.564 29.125 120.637 29.125C120.746 29.125 120.883 29.0612 121.047 28.9336C121.229 28.7878 121.421 28.6237 121.621 28.4414C121.84 28.2591 122.059 28.0859 122.277 27.9219C122.496 27.7396 122.706 27.612 122.906 27.5391C123.034 27.2839 123.152 27.0286 123.262 26.7734C123.389 26.5182 123.572 26.3177 123.809 26.1719V25.3789C123.991 25.1784 124.182 24.9961 124.383 24.832C124.602 24.668 124.766 24.4583 124.875 24.2031C124.966 24.2396 125.048 24.2669 125.121 24.2852C125.212 24.3034 125.303 24.3125 125.395 24.3125C125.486 24.3125 125.577 24.3034 125.668 24.2852C125.777 24.2669 125.878 24.2396 125.969 24.2031C126.115 24.4036 126.224 24.6315 126.297 24.8867C126.388 25.1237 126.497 25.3516 126.625 25.5703C126.461 25.8984 126.27 26.2904 126.051 26.7461C125.832 27.2018 125.595 27.6576 125.34 28.1133C125.085 28.569 124.811 29.0065 124.52 29.4258C124.246 29.8268 123.973 30.1367 123.699 30.3555C123.645 30.4102 123.526 30.474 123.344 30.5469C123.143 30.6927 122.961 30.8294 122.797 30.957C122.633 31.1029 122.478 31.2669 122.332 31.4492C121.803 31.6133 121.293 31.832 120.801 32.1055C120.327 32.3789 119.853 32.6432 119.379 32.8984C119.16 32.8438 118.923 32.8164 118.668 32.8164C118.449 32.8164 118.23 32.8255 118.012 32.8438C117.793 32.8802 117.556 32.8984 117.301 32.8984C117.228 32.8073 117.118 32.7435 116.973 32.707C116.845 32.6888 116.799 32.5977 116.836 32.4336C116.216 32.3971 115.715 32.224 115.332 31.9141C114.949 31.6224 114.621 31.2578 114.348 30.8203C114.092 30.3828 113.883 29.9089 113.719 29.3984C113.555 28.888 113.382 28.3958 113.199 27.9219V27.8398C113.199 27.7487 113.236 27.694 113.309 27.6758C113.382 27.6576 113.418 27.6029 113.418 27.5117C113.418 27.4753 113.409 27.4479 113.391 27.4297C113.336 27.2292 113.29 27.056 113.254 26.9102C113.217 26.7643 113.199 26.5911 113.199 26.3906C113.199 26.099 113.217 25.8164 113.254 25.543C113.29 25.2513 113.309 24.9596 113.309 24.668C113.309 24.3763 113.272 24.1211 113.199 23.9023C113.272 23.8112 113.336 23.6927 113.391 23.5469C113.427 23.3828 113.454 23.2188 113.473 23.0547C113.491 22.8906 113.5 22.7266 113.5 22.5625C113.518 22.3984 113.546 22.2526 113.582 22.125C113.509 21.9245 113.445 21.7513 113.391 21.6055C113.336 21.4414 113.309 21.25 113.309 21.0312V20.8398C113.491 20.5299 113.646 20.2109 113.773 19.8828C113.901 19.5547 114.038 19.2174 114.184 18.8711V18.7891C114.184 18.2604 114.165 17.7318 114.129 17.2031C114.092 16.6745 114.074 16.1458 114.074 15.6172V15.0977C114.074 14.9154 114.083 14.7422 114.102 14.5781C114.247 14.5052 114.357 14.4049 114.43 14.2773C114.503 14.1497 114.612 14.0495 114.758 13.9766H115.66L115.824 13.7031C115.879 13.612 115.915 13.5117 115.934 13.4023C116.134 13.3477 116.326 13.2747 116.508 13.1836C116.708 13.0742 116.891 12.9648 117.055 12.8555C117.31 12.7096 117.538 12.582 117.738 12.4727C117.957 12.3451 118.167 12.2448 118.367 12.1719C118.586 12.0807 118.814 12.0078 119.051 11.9531C119.288 11.8984 119.561 11.8529 119.871 11.8164C120.017 11.8164 120.108 11.7891 120.145 11.7344C120.199 11.6797 120.272 11.6159 120.363 11.543C120.582 11.5794 120.801 11.6159 121.02 11.6523C121.238 11.6706 121.457 11.6797 121.676 11.6797C122.113 11.6797 122.523 11.5977 122.906 11.4336C123.453 11.4336 123.991 11.4245 124.52 11.4062C125.066 11.388 125.613 11.3789 126.16 11.3789C126.634 11.3789 127.108 11.3971 127.582 11.4336C128.056 11.4701 128.521 11.5339 128.977 11.625C129.141 11.5703 129.323 11.543 129.523 11.543C129.742 11.543 129.961 11.5703 130.18 11.625C130.417 11.6615 130.645 11.6615 130.863 11.625C130.882 11.8255 130.927 11.9987 131 12.1445C131.091 12.2721 131.137 12.4271 131.137 12.6094ZM144.289 26.5547C144.289 26.8646 144.207 27.138 144.043 27.375C143.897 27.5938 143.842 27.8672 143.879 28.1953C143.624 28.3411 143.414 28.5326 143.25 28.7695C143.086 29.0065 142.931 29.2526 142.785 29.5078C141.582 30.2917 140.288 30.9206 138.902 31.3945C137.535 31.8867 136.122 32.1328 134.664 32.1328C134.573 32.1328 134.491 32.0872 134.418 31.9961C134.345 31.9232 134.272 31.8411 134.199 31.75C134.126 31.6589 134.044 31.5677 133.953 31.4766C133.88 31.4036 133.789 31.3672 133.68 31.3672C133.552 31.3672 133.452 31.3945 133.379 31.4492C133.379 31.4128 133.379 31.3763 133.379 31.3398C133.397 31.3216 133.406 31.2943 133.406 31.2578C133.406 31.0391 133.379 30.8112 133.324 30.5742C133.27 30.3555 133.242 30.1367 133.242 29.918C133.242 29.6628 133.288 29.4531 133.379 29.2891H133.707C133.889 29.2891 134.062 29.2799 134.227 29.2617C134.409 29.2253 134.6 29.207 134.801 29.207C135.001 29.207 135.184 29.2617 135.348 29.3711C136.35 29.3346 137.298 29.1523 138.191 28.8242C139.103 28.4779 140.023 28.1406 140.953 27.8125C141.099 27.612 141.181 27.3932 141.199 27.1562C141.236 26.901 141.309 26.6641 141.418 26.4453C140.944 26.0443 140.461 25.7344 139.969 25.5156C139.495 25.2786 138.939 25.1966 138.301 25.2695C137.918 25.0326 137.508 24.8958 137.07 24.8594C136.651 24.8229 136.223 24.7682 135.785 24.6953C135.676 24.6771 135.557 24.6589 135.43 24.6406C135.32 24.6042 135.202 24.5859 135.074 24.5859C134.983 24.5859 134.892 24.6133 134.801 24.668C134.728 24.7044 134.71 24.7682 134.746 24.8594C134.655 24.7135 134.527 24.6315 134.363 24.6133C134.217 24.5768 134.09 24.5039 133.98 24.3945C133.397 24.3581 132.887 24.2578 132.449 24.0938C132.012 23.9115 131.529 23.7109 131 23.4922C130.854 23.4375 130.708 23.401 130.562 23.3828C130.435 23.3464 130.307 23.2917 130.18 23.2188C129.852 23.0547 129.587 22.8359 129.387 22.5625C129.186 22.2891 129.031 21.9883 128.922 21.6602C128.794 21.3138 128.703 20.9583 128.648 20.5938C128.594 20.2292 128.539 19.8919 128.484 19.582C128.648 19.2904 128.803 18.9896 128.949 18.6797C129.077 18.3698 129.186 18.0417 129.277 17.6953C129.387 17.6406 129.496 17.5951 129.605 17.5586C129.715 17.5221 129.833 17.4766 129.961 17.4219C129.943 17.3854 129.934 17.3398 129.934 17.2852C129.934 17.194 129.961 17.1029 130.016 17.0117C130.089 16.9206 130.107 16.8294 130.07 16.7383C130.471 16.3737 130.854 16 131.219 15.6172C131.602 15.2161 131.93 14.7786 132.203 14.3047C132.477 14.2135 132.695 14.0768 132.859 13.8945C133.023 13.7122 133.188 13.5299 133.352 13.3477C133.516 13.1471 133.698 12.974 133.898 12.8281C134.099 12.6641 134.354 12.5638 134.664 12.5273C134.737 12.3997 134.837 12.2995 134.965 12.2266C135.092 12.1354 135.22 12.0534 135.348 11.9805C135.475 11.9076 135.594 11.8255 135.703 11.7344C135.812 11.6432 135.895 11.5156 135.949 11.3516C136.241 11.3516 136.505 11.2969 136.742 11.1875C136.997 11.0781 137.243 10.9596 137.48 10.832C137.717 10.7044 137.954 10.5859 138.191 10.4766C138.447 10.3672 138.72 10.3125 139.012 10.3125C139.085 10.3125 139.158 10.3216 139.23 10.3398C139.303 10.3398 139.385 10.349 139.477 10.3672C139.604 10.4948 139.686 10.6497 139.723 10.832C139.777 10.9961 139.814 11.1784 139.832 11.3789C139.85 11.5794 139.859 11.7799 139.859 11.9805C139.878 12.181 139.914 12.3633 139.969 12.5273C139.805 12.8372 139.622 13.1471 139.422 13.457C139.24 13.7669 138.993 14.0039 138.684 14.168H138.629C138.501 14.1862 138.383 14.1589 138.273 14.0859C138.164 14.013 138.036 13.9766 137.891 13.9766C137.799 13.9766 137.727 14.0039 137.672 14.0586L137.535 14.1953C137.499 14.2318 137.444 14.2682 137.371 14.3047C137.316 14.3411 137.234 14.3411 137.125 14.3047C136.87 14.3958 136.77 14.5508 136.824 14.7695C136.478 14.806 136.186 14.9154 135.949 15.0977C135.712 15.2617 135.493 15.4531 135.293 15.6719C135.092 15.8724 134.892 16.0638 134.691 16.2461C134.491 16.4102 134.254 16.5013 133.98 16.5195C133.671 17.0664 133.288 17.5495 132.832 17.9688C132.395 18.388 132.03 18.862 131.738 19.3906C131.793 19.5365 131.829 19.6914 131.848 19.8555C131.866 20.0195 131.893 20.1927 131.93 20.375C132.094 20.5938 132.285 20.7852 132.504 20.9492C132.741 21.1133 132.969 21.2773 133.188 21.4414H133.27C133.634 21.4414 133.971 21.5143 134.281 21.6602C134.591 21.7878 134.919 21.8516 135.266 21.8516C135.448 21.8516 135.603 21.8151 135.73 21.7422C136.204 21.8516 136.669 21.9427 137.125 22.0156C137.599 22.0885 138.073 22.1432 138.547 22.1797C138.784 22.2161 139.021 22.2344 139.258 22.2344C139.513 22.2344 139.75 22.2617 139.969 22.3164C140.169 22.3711 140.37 22.444 140.57 22.5352C140.771 22.6081 140.971 22.6901 141.172 22.7812C141.591 22.9635 141.983 23.1641 142.348 23.3828C142.73 23.6016 143.068 23.8659 143.359 24.1758C143.651 24.4674 143.879 24.8138 144.043 25.2148C144.207 25.5977 144.289 26.0443 144.289 26.5547ZM166.246 28.0039C166.191 28.2591 166.073 28.4688 165.891 28.6328C165.727 28.7786 165.526 28.8971 165.289 28.9883C165.052 29.0794 164.806 29.1432 164.551 29.1797C164.314 29.1979 164.095 29.207 163.895 29.207C163.803 29.207 163.712 29.207 163.621 29.207C163.548 29.1888 163.466 29.1797 163.375 29.1797C163.284 29.1797 163.238 29.2253 163.238 29.3164C163.238 29.4076 163.193 29.4714 163.102 29.5078C163.01 29.4714 162.919 29.444 162.828 29.4258C162.737 29.4076 162.646 29.3984 162.555 29.3984C162.427 29.3984 162.299 29.4076 162.172 29.4258C162.062 29.444 161.953 29.4531 161.844 29.4531C161.698 29.4531 161.589 29.4349 161.516 29.3984C161.461 29.362 161.406 29.3255 161.352 29.2891C161.315 29.2344 161.27 29.1797 161.215 29.125C161.178 29.0703 161.115 29.0247 161.023 28.9883C160.896 28.9336 160.786 28.9245 160.695 28.9609C160.622 28.9974 160.504 28.9427 160.34 28.7969C160.121 28.6146 159.93 28.3958 159.766 28.1406C159.62 27.8672 159.474 27.5846 159.328 27.293C159.182 27.0013 159.027 26.7096 158.863 26.418C158.699 26.1263 158.508 25.8711 158.289 25.6523H158.07C157.742 25.6523 157.514 25.7891 157.387 26.0625C157.296 26.0078 157.204 25.944 157.113 25.8711C157.022 25.7799 156.922 25.707 156.812 25.6523C156.393 25.7799 155.956 25.8893 155.5 25.9805C155.044 26.0716 154.589 26.1172 154.133 26.1172H153.75C153.641 26.1172 153.522 26.099 153.395 26.0625C153.212 26.1354 153.048 26.2266 152.902 26.3359C152.757 26.4271 152.592 26.4727 152.41 26.4727C152.301 26.4727 152.173 26.4362 152.027 26.3633C151.918 26.3633 151.863 26.4089 151.863 26.5C151.882 26.5911 151.827 26.6367 151.699 26.6367H151.453C151.198 26.6367 150.943 26.6458 150.688 26.6641C150.451 26.6823 150.204 26.6914 149.949 26.6914C149.603 26.6914 149.247 26.6458 148.883 26.5547C148.792 26.6094 148.691 26.6367 148.582 26.6367C148.509 26.6732 148.454 26.737 148.418 26.8281C148.382 26.901 148.345 26.974 148.309 27.0469C148.272 27.1016 148.217 27.1562 148.145 27.2109C148.09 27.2474 148.008 27.2565 147.898 27.2383C147.862 27.457 147.771 27.6302 147.625 27.7578C147.479 27.8854 147.406 28.0768 147.406 28.332C147.206 28.4414 147.042 28.5781 146.914 28.7422C146.786 28.9062 146.659 29.0794 146.531 29.2617C146.404 29.444 146.267 29.6172 146.121 29.7812C145.993 29.9453 145.829 30.0729 145.629 30.1641C145.538 30.2734 145.51 30.4466 145.547 30.6836C145.346 30.8477 145.1 30.9935 144.809 31.1211C144.517 31.2487 144.243 31.3125 143.988 31.3125C143.46 31.3125 143.095 31.0299 142.895 30.4648C142.895 30.2826 142.913 30.0911 142.949 29.8906C142.967 29.6719 143.004 29.4714 143.059 29.2891C143.113 29.0885 143.195 28.9154 143.305 28.7695C143.414 28.6055 143.569 28.487 143.77 28.4141C143.77 28.25 143.715 28.1406 143.605 28.0859C143.496 28.013 143.451 27.8945 143.469 27.7305C143.961 27.4935 144.389 27.1836 144.754 26.8008C145.118 26.418 145.447 26.0169 145.738 25.5977C146.048 25.1602 146.358 24.7227 146.668 24.2852C146.978 23.8477 147.324 23.4557 147.707 23.1094V22.5352C148.254 21.9518 148.609 21.2956 148.773 20.5664C148.974 20.5299 149.102 20.4388 149.156 20.293C149.229 20.1471 149.266 19.974 149.266 19.7734C149.357 19.7734 149.411 19.737 149.43 19.6641C149.466 19.5729 149.548 19.5456 149.676 19.582C149.84 19.1445 150.022 18.7435 150.223 18.3789C150.423 18.0143 150.624 17.6497 150.824 17.2852C151.025 16.9023 151.198 16.5104 151.344 16.1094C151.508 15.7083 151.626 15.2617 151.699 14.7695C151.954 14.7513 152.091 14.6328 152.109 14.4141C152.146 14.1771 152.182 13.9674 152.219 13.7852C152.492 13.5299 152.693 13.2292 152.82 12.8828C152.966 12.5365 153.094 12.181 153.203 11.8164C153.312 11.4336 153.431 11.0599 153.559 10.6953C153.704 10.3125 153.905 9.97526 154.16 9.68359V9.60156C154.16 9.51042 154.124 9.45573 154.051 9.4375C153.978 9.40104 153.941 9.33724 153.941 9.24609C153.96 9.22786 153.969 9.20964 153.969 9.19141C154.188 9.10026 154.352 8.95443 154.461 8.75391C154.57 8.53516 154.734 8.38021 154.953 8.28906C155.336 8.59896 155.673 8.79036 155.965 8.86328C156.257 8.91797 156.639 8.96354 157.113 9C157.35 9.25521 157.478 9.5651 157.496 9.92969C157.533 10.276 157.596 10.6224 157.688 10.9688C157.833 11.5521 157.988 12.1263 158.152 12.6914C158.335 13.2383 158.471 13.8034 158.562 14.3867C158.617 14.7331 158.717 15.0612 158.863 15.3711C159.009 15.681 159.109 16 159.164 16.3281C159.201 16.5833 159.201 16.875 159.164 17.2031C159.128 17.513 159.164 17.7865 159.273 18.0234L159.465 18.4609C159.556 18.6615 159.629 18.8711 159.684 19.0898C159.757 19.3086 159.82 19.5273 159.875 19.7461C160.021 20.293 160.148 20.8854 160.258 21.5234C160.385 22.1432 160.577 22.7083 160.832 23.2188C160.923 23.401 161.06 23.5286 161.242 23.6016C161.443 23.6745 161.661 23.7292 161.898 23.7656C162.135 23.7839 162.363 23.793 162.582 23.793C162.819 23.7747 163.02 23.7656 163.184 23.7656H163.457C163.566 23.7656 163.676 23.7839 163.785 23.8203C163.858 23.9661 163.895 24.0938 163.895 24.2031C163.895 24.4219 163.822 24.5951 163.676 24.7227C163.53 24.8503 163.457 24.9961 163.457 25.1602C163.457 25.2513 163.493 25.3516 163.566 25.4609C163.493 25.4427 163.384 25.4336 163.238 25.4336C162.819 25.4336 162.409 25.5065 162.008 25.6523C162.154 25.9622 162.345 26.2266 162.582 26.4453C162.837 26.6458 163.102 26.8372 163.375 27.0195C163.557 26.8737 163.749 26.8008 163.949 26.8008C164.168 26.8008 164.368 26.8555 164.551 26.9648C164.751 27.056 164.961 27.1016 165.18 27.1016C165.344 27.1016 165.462 27.0742 165.535 27.0195C165.681 27.1836 165.799 27.3568 165.891 27.5391C165.982 27.7031 166.1 27.8581 166.246 28.0039ZM157.688 23.6289C157.651 23.319 157.587 23.1003 157.496 22.9727C157.423 22.8268 157.359 22.6536 157.305 22.4531C157.232 22.1979 157.177 21.9245 157.141 21.6328C157.122 21.3411 157.086 21.0586 157.031 20.7852C156.904 20.1654 156.758 19.5456 156.594 18.9258C156.448 18.306 156.257 17.7044 156.02 17.1211C156.092 17.0117 156.129 16.9115 156.129 16.8203V16.7383C155.965 16.556 155.846 16.3372 155.773 16.082C155.701 15.8086 155.628 15.5443 155.555 15.2891C155.5 15.0156 155.418 14.7695 155.309 14.5508C155.217 14.3138 155.062 14.1224 154.844 13.9766C154.789 14.0859 154.762 14.2135 154.762 14.3594C154.762 14.487 154.771 14.6055 154.789 14.7148C154.826 14.8242 154.844 14.9427 154.844 15.0703C154.661 15.1615 154.525 15.3073 154.434 15.5078C154.361 15.6901 154.233 15.8359 154.051 15.9453C153.905 16.5286 153.695 17.0846 153.422 17.6133C153.148 18.1237 152.857 18.6341 152.547 19.1445C152.255 19.6549 151.973 20.1745 151.699 20.7031C151.426 21.2135 151.207 21.7513 151.043 22.3164C150.806 22.4805 150.642 22.6901 150.551 22.9453C150.478 23.2005 150.441 23.4557 150.441 23.7109C150.605 23.8021 150.788 23.8568 150.988 23.875C151.207 23.875 151.417 23.875 151.617 23.875C151.818 23.875 152.009 23.8932 152.191 23.9297C152.374 23.9661 152.538 24.0573 152.684 24.2031C152.921 24.1302 153.176 24.0846 153.449 24.0664C153.741 24.0299 153.978 23.9479 154.16 23.8203C154.525 23.9479 154.917 24.0117 155.336 24.0117C155.555 24.0117 155.764 23.9935 155.965 23.957C156.184 23.9206 156.393 23.875 156.594 23.8203C156.758 23.8568 156.885 23.9206 156.977 24.0117C157.068 24.0846 157.204 24.112 157.387 24.0938C157.478 24.0208 157.533 23.9479 157.551 23.875C157.569 23.7839 157.615 23.7018 157.688 23.6289ZM180.191 10.5313C180.191 10.8411 180.173 11.1419 180.137 11.4336C180.118 11.707 180.064 11.9987 179.973 12.3086C179.809 12.4362 179.663 12.5911 179.535 12.7734L179.152 13.293C179.025 13.457 178.888 13.6211 178.742 13.7852C178.596 13.931 178.414 14.0495 178.195 14.1406C178.013 14.9427 177.785 15.7174 177.512 16.4648C177.257 17.194 177.065 17.9596 176.938 18.7617C176.719 19.1628 176.546 19.6003 176.418 20.0742C176.29 20.5482 176.154 21.0312 176.008 21.5234C175.88 21.9974 175.734 22.4531 175.57 22.8906C175.406 23.3281 175.178 23.7201 174.887 24.0664C174.741 24.5039 174.595 24.9779 174.449 25.4883C174.303 25.9805 174.057 26.3906 173.711 26.7188C173.729 26.7552 173.738 26.8099 173.738 26.8828C173.738 27.1016 173.684 27.3112 173.574 27.5117C173.465 27.694 173.41 27.8854 173.41 28.0859C173.118 28.3047 172.836 28.5599 172.562 28.8516C172.307 29.1432 172.043 29.4349 171.77 29.7266C171.496 30.0182 171.204 30.2734 170.895 30.4922C170.585 30.7109 170.247 30.8568 169.883 30.9297C169.628 30.7474 169.391 30.5378 169.172 30.3008C168.953 30.082 168.698 29.8997 168.406 29.7539C168.26 28.9336 168.169 28.1315 168.133 27.3477C168.115 26.5456 168.051 25.7526 167.941 24.9688C167.868 24.513 167.75 24.0755 167.586 23.6562C167.44 23.237 167.367 22.8086 167.367 22.3711C167.367 22.2799 167.367 22.1888 167.367 22.0977C167.385 21.9883 167.404 21.888 167.422 21.7969C167.24 21.5964 167.121 21.3503 167.066 21.0586C167.012 20.7487 166.966 20.4388 166.93 20.1289C166.893 19.8008 166.839 19.4818 166.766 19.1719C166.711 18.862 166.602 18.5977 166.438 18.3789C166.51 18.306 166.547 18.2057 166.547 18.0781C166.547 17.987 166.529 17.8958 166.492 17.8047C166.474 17.7135 166.465 17.6224 166.465 17.5312C166.465 17.4583 166.492 17.3763 166.547 17.2852C166.401 17.1029 166.301 16.9388 166.246 16.793C166.21 16.6289 166.182 16.474 166.164 16.3281C166.146 16.1641 166.128 16 166.109 15.8359C166.109 15.6719 166.091 15.4987 166.055 15.3164C166.018 15.1888 165.954 15.0977 165.863 15.043C165.79 14.9701 165.754 14.9154 165.754 14.8789C165.754 14.7878 165.79 14.7148 165.863 14.6602C165.608 14.2956 165.398 13.9128 165.234 13.5117C165.07 13.1107 164.888 12.7096 164.688 12.3086C164.706 12.1081 164.779 11.9531 164.906 11.8438C165.034 11.7344 165.125 11.5885 165.18 11.4063H166.055C166.857 12.974 167.467 14.6055 167.887 16.3008C168.324 17.9779 168.707 19.6732 169.035 21.3867C169.126 21.8789 169.208 22.3711 169.281 22.8633C169.372 23.3555 169.473 23.8568 169.582 24.3672C169.618 24.4766 169.673 24.5951 169.746 24.7227C169.819 24.8503 169.855 24.9779 169.855 25.1055C169.855 25.2148 169.828 25.3242 169.773 25.4336C169.883 25.5065 169.965 25.6068 170.02 25.7344C170.092 25.862 170.147 25.9987 170.184 26.1445C170.238 26.2721 170.284 26.4089 170.32 26.5547C170.357 26.6823 170.411 26.8008 170.484 26.9102C170.703 26.8919 170.895 26.7917 171.059 26.6094C171.223 26.4271 171.368 26.2174 171.496 25.9805C171.642 25.7253 171.77 25.4792 171.879 25.2422C172.007 24.987 172.152 24.7865 172.316 24.6406C172.335 24.4401 172.371 24.2487 172.426 24.0664C172.499 23.8659 172.535 23.6654 172.535 23.4648C172.717 23.1549 172.882 22.8633 173.027 22.5898C173.173 22.3164 173.264 21.9883 173.301 21.6055C173.392 21.5326 173.447 21.4779 173.465 21.4414C173.483 21.3867 173.565 21.3776 173.711 21.4141C173.711 20.9219 173.784 20.4479 173.93 19.9922C174.094 19.5182 174.312 19.0716 174.586 18.6523C174.622 18.2331 174.704 17.8138 174.832 17.3945C174.978 16.957 175.142 16.5286 175.324 16.1094C175.379 15.9818 175.452 15.8359 175.543 15.6719C175.634 15.4896 175.68 15.3255 175.68 15.1797C175.68 15.1068 175.661 15.043 175.625 14.9883C175.607 14.9154 175.598 14.8424 175.598 14.7695C175.598 14.6237 175.652 14.4961 175.762 14.3867C175.871 14.2773 175.971 14.168 176.062 14.0586C176.062 13.6393 176.108 13.2201 176.199 12.8008C176.29 12.3815 176.473 12.0169 176.746 11.707C176.837 11.0872 176.956 10.4857 177.102 9.90234C177.247 9.30078 177.457 8.72656 177.73 8.17969H178.715C178.715 7.83333 178.87 7.66016 179.18 7.66016C179.362 7.66016 179.562 7.70573 179.781 7.79688C179.927 8.19792 180.027 8.65365 180.082 9.16406C180.155 9.65625 180.191 10.112 180.191 10.5313ZM197.445 12.6094V12.7188C197.318 12.7552 197.254 12.8464 197.254 12.9922C197.053 13.0833 196.844 13.1563 196.625 13.2109C196.406 13.2474 196.197 13.3112 195.996 13.4023C195.796 13.3841 195.586 13.375 195.367 13.375C195.167 13.3568 194.966 13.3477 194.766 13.3477C194.219 13.3477 193.672 13.3659 193.125 13.4023C192.578 13.4388 192.031 13.4388 191.484 13.4023C191.229 13.5482 190.947 13.6667 190.637 13.7578C190.345 13.8307 190.062 13.8672 189.789 13.8672C189.57 13.8672 189.379 13.8398 189.215 13.7852C188.777 14.0039 188.294 14.1862 187.766 14.332C187.255 14.4779 186.736 14.6237 186.207 14.7695C185.678 14.8971 185.168 15.0521 184.676 15.2344C184.202 15.3984 183.783 15.6354 183.418 15.9453C183.382 16.2005 183.354 16.4557 183.336 16.7109C183.318 16.9479 183.309 17.1849 183.309 17.4219C183.309 17.6771 183.318 17.9141 183.336 18.1328C183.372 18.3516 183.436 18.5703 183.527 18.7891C183.618 18.8255 183.719 18.8529 183.828 18.8711C183.956 18.8893 184.065 18.8984 184.156 18.8984C184.247 18.8984 184.339 18.8893 184.43 18.8711C184.521 18.8346 184.585 18.7708 184.621 18.6797C184.895 18.6432 185.168 18.6341 185.441 18.6523C185.715 18.6523 185.988 18.6523 186.262 18.6523C186.535 18.6523 186.799 18.6432 187.055 18.625C187.328 18.6068 187.592 18.5612 187.848 18.4883C188.139 18.4154 188.422 18.3698 188.695 18.3516C188.987 18.3333 189.27 18.3151 189.543 18.2969C189.816 18.2786 190.099 18.2513 190.391 18.2148C190.682 18.1602 190.983 18.0599 191.293 17.9141C191.53 18.0052 191.767 18.0508 192.004 18.0508C192.259 18.0508 192.505 18.069 192.742 18.1055C192.87 18.1966 192.97 18.2969 193.043 18.4062C193.134 18.5156 193.18 18.6432 193.18 18.7891C193.18 19.0443 193.089 19.2995 192.906 19.5547C192.724 19.8099 192.578 20.0469 192.469 20.2656H192.168C191.73 20.2656 191.302 20.3294 190.883 20.457C190.482 20.5664 190.072 20.7031 189.652 20.8672C189.251 21.013 188.841 21.1497 188.422 21.2773C188.021 21.3867 187.602 21.4414 187.164 21.4414C187.091 21.4414 187.046 21.487 187.027 21.5781C187.027 21.651 187.009 21.7057 186.973 21.7422C186.882 21.724 186.745 21.7148 186.562 21.7148C186.143 21.7148 185.742 21.7604 185.359 21.8516C184.977 21.9427 184.585 21.9883 184.184 21.9883C184.074 21.9883 183.965 21.9883 183.855 21.9883C183.746 21.9701 183.637 21.9518 183.527 21.9336C183.436 22.0794 183.318 22.1797 183.172 22.2344C183.026 22.2708 182.889 22.3438 182.762 22.4531C182.707 22.6172 182.671 22.8177 182.652 23.0547C182.652 23.2917 182.643 23.5378 182.625 23.793C182.625 24.0299 182.607 24.2578 182.57 24.4766C182.534 24.6953 182.461 24.8685 182.352 24.9961C182.37 25.0872 182.443 25.1237 182.57 25.1055C182.698 25.069 182.762 25.1237 182.762 25.2695C182.762 25.4336 182.743 25.6068 182.707 25.7891C182.671 25.9714 182.652 26.1536 182.652 26.3359C182.652 26.6823 182.689 27.0651 182.762 27.4844C182.853 27.8854 182.98 28.2591 183.145 28.6055C183.327 28.9518 183.564 29.2435 183.855 29.4805C184.147 29.6992 184.512 29.8086 184.949 29.8086C185.241 29.8086 185.514 29.7539 185.77 29.6445C186.025 29.5352 186.234 29.3529 186.398 29.0977L186.535 29.0703C186.608 29.0703 186.672 29.0794 186.727 29.0977C186.799 29.1159 186.872 29.125 186.945 29.125C187.055 29.125 187.191 29.0612 187.355 28.9336C187.538 28.7878 187.729 28.6237 187.93 28.4414C188.148 28.2591 188.367 28.0859 188.586 27.9219C188.805 27.7396 189.014 27.612 189.215 27.5391C189.342 27.2839 189.461 27.0286 189.57 26.7734C189.698 26.5182 189.88 26.3177 190.117 26.1719V25.3789C190.299 25.1784 190.491 24.9961 190.691 24.832C190.91 24.668 191.074 24.4583 191.184 24.2031C191.275 24.2396 191.357 24.2669 191.43 24.2852C191.521 24.3034 191.612 24.3125 191.703 24.3125C191.794 24.3125 191.885 24.3034 191.977 24.2852C192.086 24.2669 192.186 24.2396 192.277 24.2031C192.423 24.4036 192.533 24.6315 192.605 24.8867C192.697 25.1237 192.806 25.3516 192.934 25.5703C192.77 25.8984 192.578 26.2904 192.359 26.7461C192.141 27.2018 191.904 27.6576 191.648 28.1133C191.393 28.569 191.12 29.0065 190.828 29.4258C190.555 29.8268 190.281 30.1367 190.008 30.3555C189.953 30.4102 189.835 30.474 189.652 30.5469C189.452 30.6927 189.27 30.8294 189.105 30.957C188.941 31.1029 188.786 31.2669 188.641 31.4492C188.112 31.6133 187.602 31.832 187.109 32.1055C186.635 32.3789 186.161 32.6432 185.688 32.8984C185.469 32.8438 185.232 32.8164 184.977 32.8164C184.758 32.8164 184.539 32.8255 184.32 32.8438C184.102 32.8802 183.865 32.8984 183.609 32.8984C183.536 32.8073 183.427 32.7435 183.281 32.707C183.154 32.6888 183.108 32.5977 183.145 32.4336C182.525 32.3971 182.023 32.224 181.641 31.9141C181.258 31.6224 180.93 31.2578 180.656 30.8203C180.401 30.3828 180.191 29.9089 180.027 29.3984C179.863 28.888 179.69 28.3958 179.508 27.9219V27.8398C179.508 27.7487 179.544 27.694 179.617 27.6758C179.69 27.6576 179.727 27.6029 179.727 27.5117C179.727 27.4753 179.717 27.4479 179.699 27.4297C179.645 27.2292 179.599 27.056 179.562 26.9102C179.526 26.7643 179.508 26.5911 179.508 26.3906C179.508 26.099 179.526 25.8164 179.562 25.543C179.599 25.2513 179.617 24.9596 179.617 24.668C179.617 24.3763 179.581 24.1211 179.508 23.9023C179.581 23.8112 179.645 23.6927 179.699 23.5469C179.736 23.3828 179.763 23.2188 179.781 23.0547C179.799 22.8906 179.809 22.7266 179.809 22.5625C179.827 22.3984 179.854 22.2526 179.891 22.125C179.818 21.9245 179.754 21.7513 179.699 21.6055C179.645 21.4414 179.617 21.25 179.617 21.0312V20.8398C179.799 20.5299 179.954 20.2109 180.082 19.8828C180.21 19.5547 180.346 19.2174 180.492 18.8711V18.7891C180.492 18.2604 180.474 17.7318 180.438 17.2031C180.401 16.6745 180.383 16.1458 180.383 15.6172V15.0977C180.383 14.9154 180.392 14.7422 180.41 14.5781C180.556 14.5052 180.665 14.4049 180.738 14.2773C180.811 14.1497 180.921 14.0495 181.066 13.9766H181.969L182.133 13.7031C182.188 13.612 182.224 13.5117 182.242 13.4023C182.443 13.3477 182.634 13.2747 182.816 13.1836C183.017 13.0742 183.199 12.9648 183.363 12.8555C183.618 12.7096 183.846 12.582 184.047 12.4727C184.266 12.3451 184.475 12.2448 184.676 12.1719C184.895 12.0807 185.122 12.0078 185.359 11.9531C185.596 11.8984 185.87 11.8529 186.18 11.8164C186.326 11.8164 186.417 11.7891 186.453 11.7344C186.508 11.6797 186.581 11.6159 186.672 11.543C186.891 11.5794 187.109 11.6159 187.328 11.6523C187.547 11.6706 187.766 11.6797 187.984 11.6797C188.422 11.6797 188.832 11.5977 189.215 11.4336C189.762 11.4336 190.299 11.4245 190.828 11.4063C191.375 11.388 191.922 11.3789 192.469 11.3789C192.943 11.3789 193.417 11.3971 193.891 11.4336C194.365 11.4701 194.829 11.5339 195.285 11.625C195.449 11.5703 195.632 11.543 195.832 11.543C196.051 11.543 196.27 11.5703 196.488 11.625C196.725 11.6615 196.953 11.6615 197.172 11.625C197.19 11.8255 197.236 11.9987 197.309 12.1445C197.4 12.2721 197.445 12.4271 197.445 12.6094ZM231.105 25.2422C231.069 25.5156 230.969 25.7253 230.805 25.8711C230.659 26.0169 230.486 26.1536 230.285 26.2812C230.194 26.263 230.103 26.2539 230.012 26.2539C229.939 26.2357 229.857 26.2266 229.766 26.2266C229.201 26.2083 228.663 26.2812 228.152 26.4453C227.66 26.6094 227.15 26.7279 226.621 26.8008C226.439 26.8372 226.266 26.8555 226.102 26.8555C225.956 26.8372 225.801 26.8464 225.637 26.8828C225.053 26.974 224.434 27.0469 223.777 27.1016C223.121 27.1562 222.465 27.2292 221.809 27.3203C221.152 27.3932 220.505 27.4935 219.867 27.6211C219.247 27.7305 218.664 27.8945 218.117 28.1133C218.062 28.0768 218.008 28.0404 217.953 28.0039C217.898 27.9492 217.835 27.9219 217.762 27.9219C217.579 27.9219 217.406 27.9492 217.242 28.0039C217.078 28.0586 216.914 28.0768 216.75 28.0586C216.568 28.168 216.367 28.25 216.148 28.3047C215.948 28.3411 215.738 28.3776 215.52 28.4141C215.319 28.4323 215.118 28.4688 214.918 28.5234C214.717 28.5781 214.526 28.6784 214.344 28.8242C214.198 28.7513 214.016 28.7148 213.797 28.7148C213.596 28.6966 213.46 28.6237 213.387 28.4961C212.967 28.6966 212.521 28.8242 212.047 28.8789C211.591 28.9336 211.126 28.9518 210.652 28.9336C210.342 28.9154 209.987 28.8698 209.586 28.7969C209.185 28.724 208.784 28.6237 208.383 28.4961C207.982 28.3503 207.608 28.1862 207.262 28.0039C206.915 27.8034 206.651 27.5664 206.469 27.293C206.341 27.1107 206.25 26.9102 206.195 26.6914C206.141 26.4727 206.013 26.3086 205.812 26.1992C205.867 25.7799 205.931 25.3698 206.004 24.9688C206.077 24.5677 206.15 24.1576 206.223 23.7383C206.587 23.4284 206.934 23.1003 207.262 22.7539C207.59 22.4076 207.9 22.043 208.191 21.6602C208.538 21.4961 208.857 21.2956 209.148 21.0586C209.458 20.8216 209.759 20.5846 210.051 20.3477C210.361 20.0924 210.661 19.8464 210.953 19.6094C211.263 19.3724 211.591 19.1628 211.938 18.9805C211.992 18.8529 212.065 18.7526 212.156 18.6797C212.266 18.5885 212.375 18.5065 212.484 18.4336C212.594 18.3424 212.694 18.2513 212.785 18.1602C212.876 18.0508 212.94 17.9232 212.977 17.7773C213.615 17.3945 214.171 16.9115 214.645 16.3281C215.118 15.7448 215.428 15.0885 215.574 14.3594C215.264 14.1042 214.909 13.9401 214.508 13.8672C214.125 13.776 213.724 13.7122 213.305 13.6758C212.94 13.6576 212.557 13.6576 212.156 13.6758C211.773 13.694 211.382 13.6849 210.98 13.6484C210.579 13.776 210.16 13.8581 209.723 13.8945C209.303 13.931 208.884 13.9674 208.465 14.0039C208.046 14.0221 207.626 14.0768 207.207 14.168C206.806 14.2409 206.414 14.3867 206.031 14.6055C205.958 14.6055 205.885 14.5964 205.812 14.5781C205.758 14.5599 205.694 14.5508 205.621 14.5508C205.038 14.5326 204.491 14.651 203.98 14.9063C203.47 15.1432 202.969 15.3802 202.477 15.6172C202.44 15.6901 202.422 15.7448 202.422 15.7813C202.422 15.8906 202.44 16 202.477 16.1094C202.531 16.2005 202.559 16.3008 202.559 16.4102C202.54 16.4284 202.531 16.4466 202.531 16.4648C202.531 16.4831 202.522 16.5013 202.504 16.5195C202.486 16.6107 202.458 16.6927 202.422 16.7656C202.404 16.8385 202.376 16.9206 202.34 17.0117C202.139 17.5951 202.03 18.1693 202.012 18.7344C201.993 19.2083 201.993 19.6732 202.012 20.1289C202.03 20.5846 202.03 21.0495 202.012 21.5234C201.975 22.1068 201.884 22.6536 201.738 23.1641C201.829 23.6016 201.911 24.0664 201.984 24.5586C202.057 25.0326 202.148 25.5065 202.258 25.9805C202.367 26.4544 202.495 26.9193 202.641 27.375C202.805 27.8125 203.014 28.2318 203.27 28.6328C203.251 28.6693 203.26 28.6966 203.297 28.7148C203.333 28.7331 203.37 28.7422 203.406 28.7422H203.625C203.716 28.7422 203.753 28.7786 203.734 28.8516C203.771 28.9062 203.798 28.9609 203.816 29.0156C203.835 29.0521 203.871 29.0885 203.926 29.125C203.962 29.1797 203.962 29.2526 203.926 29.3438C203.908 29.7083 203.816 30.0456 203.652 30.3555C203.488 30.6654 203.388 31.0026 203.352 31.3672C203.133 31.4219 202.932 31.4492 202.75 31.4492C202.44 31.431 202.167 31.3398 201.93 31.1758C201.693 31.0299 201.474 30.8477 201.273 30.6289C201.073 30.4102 200.882 30.1914 200.699 29.9727C200.517 29.7357 200.316 29.5352 200.098 29.3711C199.97 28.8607 199.842 28.2956 199.715 27.6758C199.605 27.056 199.414 26.5273 199.141 26.0898C199.214 25.9258 199.25 25.7253 199.25 25.4883C199.268 25.1237 199.232 24.7682 199.141 24.4219C199.068 24.0573 199.049 23.6927 199.086 23.3281C199.086 23.1276 199.104 22.9271 199.141 22.7266C199.195 22.526 199.232 22.3255 199.25 22.125C199.268 21.8151 199.232 21.5143 199.141 21.2227C199.068 20.931 199.04 20.6302 199.059 20.3203C199.077 20.1745 199.104 20.0378 199.141 19.9102C199.195 19.7643 199.268 19.6367 199.359 19.5273C199.268 19.3086 199.241 19.099 199.277 18.8984C199.296 18.5885 199.332 18.2969 199.387 18.0234C199.441 17.75 199.478 17.4766 199.496 17.2031C199.496 17.0573 199.487 16.9206 199.469 16.793C199.451 16.6471 199.423 16.5104 199.387 16.3828L199.141 16.3008C199.031 16.3008 198.922 16.3281 198.812 16.3828C198.721 16.4375 198.639 16.5013 198.566 16.5742C198.493 16.6471 198.43 16.7109 198.375 16.7656C198.32 16.8021 198.266 16.8203 198.211 16.8203C198.174 16.8203 198.129 16.8203 198.074 16.8203C198.038 16.8021 198.001 16.793 197.965 16.793C197.928 16.793 197.855 16.8294 197.746 16.9023C197.655 16.9753 197.536 17.0573 197.391 17.1484C197.263 17.2214 197.135 17.3034 197.008 17.3945C196.88 17.4674 196.78 17.513 196.707 17.5312C196.507 17.4948 196.342 17.431 196.215 17.3398C196.105 17.2305 195.996 17.1302 195.887 17.0391C195.796 16.9297 195.695 16.8385 195.586 16.7656C195.477 16.6745 195.34 16.638 195.176 16.6563C195.121 16.5469 195.094 16.4284 195.094 16.3008C195.076 16.1732 195.076 16.0456 195.094 15.918V15.4805C195.221 15.2435 195.395 15.0521 195.613 14.9063C195.814 14.7422 196.033 14.6055 196.27 14.4961L196.98 14.168C197.217 14.0586 197.436 13.9219 197.637 13.7578H197.883C198.211 13.776 198.493 13.7122 198.73 13.5664C198.986 13.4206 199.223 13.2565 199.441 13.0742C199.66 12.8737 199.879 12.6732 200.098 12.4727C200.335 12.2721 200.59 12.1172 200.863 12.0078C201.064 12.099 201.273 12.181 201.492 12.2539C201.711 12.3086 201.939 12.3451 202.176 12.3633C202.413 12.3633 202.659 12.3268 202.914 12.2539C203.169 12.181 203.37 12.0443 203.516 11.8438C203.607 11.8802 203.68 11.9076 203.734 11.9258C203.807 11.9258 203.889 11.9258 203.98 11.9258C204.254 11.944 204.527 11.9076 204.801 11.8164C205.074 11.707 205.339 11.5794 205.594 11.4336C205.958 11.4518 206.314 11.4336 206.66 11.3789C207.025 11.306 207.38 11.2331 207.727 11.1602C208.091 11.0872 208.447 11.0234 208.793 10.9688C209.158 10.8958 209.522 10.8685 209.887 10.8867C210.488 10.9049 211.081 10.8503 211.664 10.7227C212.247 10.5951 212.84 10.5495 213.441 10.5859C213.861 10.6042 214.271 10.6406 214.672 10.6953C215.091 10.7318 215.51 10.7409 215.93 10.7227C216.167 10.832 216.376 10.9323 216.559 11.0234C216.759 11.0964 217.005 11.1146 217.297 11.0781C217.88 11.5703 218.409 12.1445 218.883 12.8008V13.2656C218.865 13.6849 218.792 14.0951 218.664 14.4961C218.536 14.8971 218.382 15.2982 218.199 15.6992C218.035 16.082 217.853 16.4648 217.652 16.8477C217.452 17.2122 217.26 17.5768 217.078 17.9414C215.893 19.0169 214.708 20.0833 213.523 21.1406C212.339 22.1979 211.117 23.2188 209.859 24.2031C209.823 24.3854 209.768 24.5495 209.695 24.6953C209.641 24.8411 209.604 24.9961 209.586 25.1602C209.586 25.2513 209.595 25.3242 209.613 25.3789C209.741 25.4154 209.85 25.4883 209.941 25.5977C210.051 25.6888 210.087 25.8164 210.051 25.9805H210.297C210.388 25.9805 210.434 26.0169 210.434 26.0898L210.871 26.1172C211.564 26.1536 212.257 26.1354 212.949 26.0625C213.642 25.9896 214.335 25.9076 215.027 25.8164C215.738 25.7253 216.44 25.6432 217.133 25.5703C217.826 25.4792 218.518 25.4245 219.211 25.4062C219.375 25.3516 219.548 25.306 219.73 25.2695C219.913 25.2331 220.077 25.1602 220.223 25.0508H220.305C220.432 25.0508 220.523 25.0872 220.578 25.1602C220.651 25.2331 220.751 25.2786 220.879 25.2969C220.97 25.2969 221.061 25.2786 221.152 25.2422C221.262 25.2057 221.371 25.1784 221.48 25.1602C221.736 25.0872 222 25.0417 222.273 25.0234C222.565 25.0052 222.848 24.9779 223.121 24.9414C224.178 24.8503 225.227 24.7956 226.266 24.7773C227.305 24.7409 228.344 24.6042 229.383 24.3672C229.474 24.4948 229.602 24.5859 229.766 24.6406C229.93 24.6771 230.103 24.7227 230.285 24.7773C230.467 24.8138 230.632 24.8594 230.777 24.9141C230.941 24.9688 231.051 25.0781 231.105 25.2422Z" fill="#0B0B0B"/>
</svg>
