<svg width="234" height="34" viewBox="0 0 234 34" fill="none" xmlns="http://www.w3.org/2000/svg">
<path d="M31.6875 3.94141C31.5417 4.03255 31.3867 4.08724 31.2227 4.10547C31.0586 4.1237 30.8854 4.15104 30.7031 4.1875C30.5391 4.20573 30.3841 4.24219 30.2383 4.29688C30.0924 4.35156 29.9831 4.45182 29.9102 4.59766C29.7279 4.41536 29.5273 4.26042 29.3086 4.13281C29.0898 4.00521 28.8711 3.86849 28.6523 3.72266C28.4701 3.77734 28.2878 3.85026 28.1055 3.94141C27.9232 4.03255 27.7409 4.07812 27.5586 4.07812C27.431 4.07812 27.3034 4.03255 27.1758 3.94141C27.0299 4.05078 26.8568 4.14193 26.6562 4.21484C26.474 4.26953 26.2734 4.32422 26.0547 4.37891C25.8542 4.43359 25.6628 4.50651 25.4805 4.59766C25.3164 4.6888 25.1979 4.82552 25.125 5.00781C25.0885 4.91667 24.9974 4.88932 24.8516 4.92578C24.724 4.96224 24.651 4.91667 24.6328 4.78906C24.0495 4.98958 23.457 5.16276 22.8555 5.30859C22.2539 5.45443 21.6523 5.60938 21.0508 5.77344C20.4492 5.9375 19.8568 6.11979 19.2734 6.32031C18.6901 6.52083 18.125 6.76693 17.5781 7.05859C17.5599 7.07682 17.5508 7.10417 17.5508 7.14062C17.5508 7.32292 17.5781 7.49609 17.6328 7.66016C17.6875 7.82422 17.7331 7.97917 17.7695 8.125C17.4414 9.23698 17.2227 10.3672 17.1133 11.5156C17.0039 12.6641 16.8581 13.7943 16.6758 14.9062V15.0156C16.6758 15.1068 16.7122 15.1797 16.7852 15.2344C16.8581 15.2708 16.8945 15.3438 16.8945 15.4531L16.8672 15.5078C16.776 15.5625 16.7122 15.6445 16.6758 15.7539C16.6393 15.8451 16.6211 15.9453 16.6211 16.0547C16.6211 16.1276 16.6393 16.237 16.6758 16.3828C16.3659 17.4219 16.1562 18.4792 16.0469 19.5547C15.9557 20.6302 15.8372 21.7057 15.6914 22.7812L15.4453 24.5859C15.4089 24.6953 15.3724 24.8047 15.3359 24.9141C15.3177 25.0052 15.3086 25.1055 15.3086 25.2148C15.3086 25.7982 15.3451 26.3724 15.418 26.9375C15.5091 27.4844 15.5365 28.0495 15.5 28.6328C15.6641 28.888 15.7461 29.1341 15.7461 29.3711C15.7461 29.4622 15.737 29.5534 15.7188 29.6445C15.7188 29.7357 15.7096 29.8268 15.6914 29.918C15.9284 30.1549 16.2018 30.319 16.5117 30.4102C16.8398 30.5195 17.1315 30.6836 17.3867 30.9023V31.0117C17.3867 31.194 17.3594 31.3672 17.3047 31.5312C17.25 31.7135 17.2044 31.8958 17.168 32.0781C17.1315 32.224 17.0859 32.4336 17.0312 32.707C16.9948 32.9805 16.9401 33.1628 16.8672 33.2539C16.776 33.3815 16.6393 33.4909 16.457 33.582C16.293 33.6914 16.1289 33.7461 15.9648 33.7461C15.9102 33.7461 15.8281 33.7188 15.7188 33.6641C15.6276 33.6094 15.5547 33.5638 15.5 33.5273C15.4089 33.5273 15.2904 33.5729 15.1445 33.6641C14.9987 33.7552 14.8529 33.8008 14.707 33.8008C14.6341 33.8008 14.5703 33.7917 14.5156 33.7734C14.4609 33.7734 14.3971 33.7552 14.3242 33.7188C14.2513 33.5365 14.1419 33.3724 13.9961 33.2266C13.8685 33.099 13.7135 32.9714 13.5312 32.8438C13.5495 32.5885 13.5039 32.3971 13.3945 32.2695C13.2852 32.1419 13.1758 31.9779 13.0664 31.7773C13.0299 31.5221 12.9935 31.2305 12.957 30.9023C12.9388 30.5742 12.8021 30.3372 12.5469 30.1914C12.638 30.0638 12.6836 29.8906 12.6836 29.6719C12.6836 29.5807 12.6654 29.4805 12.6289 29.3711C12.6107 29.2617 12.556 29.1797 12.4648 29.125V29.0703C12.4466 28.9792 12.474 28.9154 12.5469 28.8789C12.638 28.8242 12.6836 28.7513 12.6836 28.6602V28.5508C12.556 27.9674 12.4922 27.3568 12.4922 26.7188C12.4922 26.1172 12.5104 25.5247 12.5469 24.9414C12.5833 24.3398 12.5833 23.7383 12.5469 23.1367C12.6562 23.0456 12.7383 22.8997 12.793 22.6992C12.8659 22.4987 12.9206 22.2799 12.957 22.043C12.9935 21.806 13.0117 21.5781 13.0117 21.3594C13.0299 21.1224 13.0482 20.931 13.0664 20.7852C13.1576 19.7461 13.3034 18.7253 13.5039 17.7227C13.7044 16.7018 13.8229 15.6628 13.8594 14.6055C13.9505 14.4596 14.0052 14.2682 14.0234 14.0312C14.0417 13.7943 14.0508 13.5482 14.0508 13.293C14.0508 13.0195 14.069 12.7552 14.1055 12.5C14.1419 12.2448 14.2148 12.026 14.3242 11.8438C14.3242 11.3333 14.3698 10.8229 14.4609 10.3125C14.5521 9.78385 14.5977 9.25521 14.5977 8.72656C14.5977 8.47135 14.5703 8.20703 14.5156 7.93359C14.3333 7.86068 14.1693 7.82422 14.0234 7.82422C13.8229 7.82422 13.6133 7.86979 13.3945 7.96094C13.194 8.03385 13.0482 8.15234 12.957 8.31641C12.556 8.33464 12.1641 8.39844 11.7812 8.50781C11.3984 8.61719 11.0156 8.67188 10.6328 8.67188H10.3594C10.2865 8.67188 10.2044 8.66276 10.1133 8.64453C9.98568 8.69922 9.84896 8.74479 9.70312 8.78125C9.57552 8.81771 9.52083 8.92708 9.53906 9.10938C8.97396 9.16406 8.41797 9.28255 7.87109 9.46484C7.34245 9.64714 6.8138 9.84766 6.28516 10.0664C5.75651 10.2669 5.22786 10.4583 4.69922 10.6406C4.15234 10.8229 3.59635 10.9414 3.03125 10.9961C2.83073 11.0872 2.70312 11.2786 2.64844 11.5703C2.2474 11.5339 1.91016 11.4336 1.63672 11.2695C1.36328 11.1055 1.04427 10.9505 0.679688 10.8047C0.570312 10.4219 0.515625 10.0573 0.515625 9.71094C0.515625 9.25521 0.606771 8.81771 0.789062 8.39844C0.971354 7.97917 1.26302 7.66927 1.66406 7.46875C1.75521 7.48698 1.83724 7.50521 1.91016 7.52344C1.98307 7.52344 2.0651 7.52344 2.15625 7.52344C2.44792 7.52344 2.73958 7.46875 3.03125 7.35938C3.32292 7.25 3.6237 7.19531 3.93359 7.19531C4.02474 7.19531 4.125 7.22266 4.23438 7.27734C4.36198 7.20443 4.52604 7.14974 4.72656 7.11328C4.90885 7.05859 5.08203 7.01302 5.24609 6.97656C5.42839 6.92188 5.59245 6.84896 5.73828 6.75781C5.88411 6.66667 5.97526 6.53906 6.01172 6.375C6.10286 6.44792 6.20312 6.49349 6.3125 6.51172C6.42188 6.52995 6.53125 6.53906 6.64062 6.53906C6.8776 6.53906 7.1237 6.49349 7.37891 6.40234C7.63411 6.3112 7.83464 6.16536 7.98047 5.96484C8.10807 6.11068 8.29036 6.18359 8.52734 6.18359C8.78255 6.18359 9.02865 6.11979 9.26562 5.99219C9.52083 5.84635 9.76693 5.77344 10.0039 5.77344C10.1862 5.77344 10.3229 5.83724 10.4141 5.96484C10.6146 5.80078 10.8516 5.67318 11.125 5.58203C11.3984 5.49089 11.6719 5.40885 11.9453 5.33594C12.237 5.26302 12.5013 5.18099 12.7383 5.08984C12.9935 4.9987 13.194 4.87109 13.3398 4.70703C13.431 4.72526 13.5768 4.73438 13.7773 4.73438C14.0872 4.73438 14.3789 4.69792 14.6523 4.625C14.944 4.53385 15.2357 4.45182 15.5273 4.37891L16.1016 4.32422C16.2474 4.30599 16.375 4.26042 16.4844 4.1875C16.612 4.11458 16.7396 4.05078 16.8672 3.99609C16.9948 3.94141 17.1224 3.89583 17.25 3.85938C17.3958 3.82292 17.569 3.8138 17.7695 3.83203C18.207 3.59505 18.6719 3.41276 19.1641 3.28516C19.6562 3.15755 20.1576 3.04818 20.668 2.95703C21.1784 2.84766 21.6797 2.72917 22.1719 2.60156C22.6641 2.45573 23.1289 2.24609 23.5664 1.97266H23.6484C24.013 1.97266 24.3685 1.90885 24.7148 1.78125C25.0794 1.65365 25.4167 1.48047 25.7266 1.26172C25.7812 1.27995 25.8359 1.28906 25.8906 1.28906H26.082C26.5924 1.28906 27.0846 1.21615 27.5586 1.07031C28.0508 0.924479 28.5612 0.851562 29.0898 0.851562C29.3997 0.851562 29.6458 0.897135 29.8281 0.988281C30.0104 1.0612 30.1745 1.16146 30.3203 1.28906C30.4661 1.39844 30.6211 1.50781 30.7852 1.61719C30.9492 1.72656 31.1589 1.80859 31.4141 1.86328C31.5781 2.17318 31.6602 2.51042 31.6602 2.875C31.6602 3.22135 31.6693 3.57682 31.6875 3.94141ZM40.4102 17.2305C40.3372 17.4128 40.2643 17.5859 40.1914 17.75C40.1185 17.9141 40.0638 18.0964 40.0273 18.2969C39.8997 18.388 39.7539 18.4609 39.5898 18.5156C39.444 18.5521 39.2891 18.5977 39.125 18.6523C38.9609 18.6888 38.806 18.7435 38.6602 18.8164C38.5326 18.8711 38.4323 18.9622 38.3594 19.0898C38.3047 19.3633 38.2773 19.6185 38.2773 19.8555C38.2773 20.1654 38.332 20.4297 38.4414 20.6484C38.3867 20.8125 38.3503 20.9857 38.332 21.168C38.3138 21.3503 38.3047 21.5234 38.3047 21.6875C38.3047 22.2891 38.3776 22.8906 38.5234 23.4922C38.6693 24.0755 38.7513 24.668 38.7695 25.2695C38.7695 25.3607 38.7604 25.4609 38.7422 25.5703C38.724 25.6797 38.7148 25.7799 38.7148 25.8711C38.7148 26.2539 38.8607 26.5091 39.1523 26.6367C39.0977 26.7279 39.0703 26.8099 39.0703 26.8828C39.0703 27.0286 39.0885 27.1562 39.125 27.2656C39.1615 27.375 39.1706 27.4935 39.1523 27.6211C39.2435 27.8034 39.3346 27.9674 39.4258 28.1133C39.5169 28.2409 39.5807 28.4049 39.6172 28.6055C39.4896 28.8607 39.3346 29.0977 39.1523 29.3164C38.9701 29.5169 38.8424 29.7721 38.7695 30.082C38.6966 30.0638 38.6146 30.0547 38.5234 30.0547C38.3958 30.0547 38.2956 30.082 38.2227 30.1367C38.1497 30.1914 38.0859 30.2552 38.0312 30.3281C37.9948 30.4193 37.9492 30.5013 37.8945 30.5742C37.8398 30.6654 37.7669 30.7292 37.6758 30.7656H37.5938C37.5026 30.7839 37.4206 30.7747 37.3477 30.7383C37.293 30.7201 37.2383 30.7109 37.1836 30.7109C37.1471 30.7109 37.0742 30.7292 36.9648 30.7656C36.819 30.5833 36.7188 30.3646 36.6641 30.1094C36.6094 29.8724 36.582 29.6354 36.582 29.3984C36.582 29.1432 36.6185 28.9154 36.6914 28.7148C36.4909 28.5508 36.3633 28.3047 36.3086 27.9766C36.2721 27.6484 36.2266 27.375 36.1719 27.1562C36.026 26.4818 35.8529 25.8255 35.6523 25.1875C35.4701 24.5495 35.3607 23.8932 35.3242 23.2188C35.306 22.9635 35.2969 22.7174 35.2969 22.4805V21.0586C35.2969 20.8216 35.306 20.5938 35.3242 20.375C35.3242 20.2109 35.3333 20.056 35.3516 19.9102C35.388 19.7461 35.4062 19.582 35.4062 19.418C35.4062 19.1992 35.3333 18.9896 35.1875 18.7891C33.8932 18.8438 32.6628 19.0807 31.4961 19.5C30.3477 19.901 29.1992 20.3841 28.0508 20.9492C27.9779 21.3685 27.9323 21.7786 27.9141 22.1797C27.8958 22.5807 27.8867 22.9909 27.8867 23.4102V24.6133C27.8867 25.069 27.9049 25.4518 27.9414 25.7617C28.0326 26.2904 28.2969 26.7005 28.7344 26.9922C29.1901 27.2656 29.6458 27.4753 30.1016 27.6211C30.0833 27.8945 30.0286 28.1315 29.9375 28.332C29.8464 28.5143 29.7279 28.6875 29.582 28.8516C29.4544 28.9974 29.3086 29.1432 29.1445 29.2891C28.9805 29.4349 28.8164 29.599 28.6523 29.7812C28.5065 29.6901 28.3607 29.6263 28.2148 29.5898C28.069 29.5534 27.9141 29.5352 27.75 29.5352C27.5859 29.5169 27.4219 29.4987 27.2578 29.4805C27.0938 29.4622 26.9297 29.4258 26.7656 29.3711L26.1641 28.5508C25.9635 28.2773 25.7448 28.0039 25.5078 27.7305V27.4844C25.5078 26.9922 25.4167 26.5182 25.2344 26.0625C25.0521 25.6068 24.9154 25.1419 24.8242 24.668C24.8789 24.5039 24.9154 24.3398 24.9336 24.1758C24.9518 24.0117 24.9609 23.8385 24.9609 23.6562C24.9609 23.2917 24.9427 22.9362 24.9062 22.5898C24.888 22.2435 24.8971 21.8971 24.9336 21.5508H24.7969C24.6328 21.5508 24.4596 21.5964 24.2773 21.6875C24.0951 21.7604 23.9128 21.8516 23.7305 21.9609C23.5664 22.0521 23.4023 22.1432 23.2383 22.2344C23.0924 22.3073 22.9648 22.3438 22.8555 22.3438C22.8008 22.3438 22.7461 22.3346 22.6914 22.3164C22.6367 22.2982 22.5729 22.2891 22.5 22.2891C22.4089 22.2891 22.2995 22.3255 22.1719 22.3984C22.0443 22.4714 21.9076 22.5534 21.7617 22.6445C21.5977 22.7174 21.4336 22.7904 21.2695 22.8633C21.1055 22.9362 20.9414 22.9727 20.7773 22.9727C20.5221 22.9727 20.2669 22.8633 20.0117 22.6445C19.9753 22.4987 19.9661 22.362 19.9844 22.2344C19.9844 22.1068 19.9844 21.9701 19.9844 21.8242C19.9844 21.6784 19.957 21.5234 19.9023 21.3594C20.0299 21.1224 20.2031 20.9401 20.4219 20.8125C20.6224 20.6667 20.8411 20.5391 21.0781 20.4297C21.2969 20.3021 21.5247 20.1836 21.7617 20.0742C21.9987 19.9466 22.1992 19.7826 22.3633 19.582H22.5273C22.7826 19.582 23.0104 19.5273 23.2109 19.418C23.4297 19.3086 23.6758 19.263 23.9492 19.2812C24.0404 19.2448 24.1042 19.1081 24.1406 18.8711L24.25 18.8984C24.651 18.8984 25.0065 18.7617 25.3164 18.4883C25.5169 17.3581 25.681 16.2188 25.8086 15.0703C25.9362 13.9219 26 12.7734 26 11.625C26 11.5156 25.9635 11.4062 25.8906 11.2969C25.8542 11.151 25.8359 11.0143 25.8359 10.8867V10.4766C25.8359 10.276 25.8451 10.0664 25.8633 9.84766C25.8815 9.62891 25.9271 9.41016 26 9.19141C26.1823 9.08203 26.3737 9.02734 26.5742 9.02734C26.8112 9.02734 27.0391 9.0638 27.2578 9.13672C27.4948 9.19141 27.7227 9.23698 27.9414 9.27344C28.1055 9.4375 28.224 9.61979 28.2969 9.82031C28.388 10.0208 28.4427 10.2305 28.4609 10.4492C28.4792 10.6497 28.4792 10.8594 28.4609 11.0781C28.4609 11.2786 28.4609 11.4792 28.4609 11.6797C28.4609 12.0807 28.5065 12.4727 28.5977 12.8555C28.6888 13.2383 28.7344 13.612 28.7344 13.9766C28.7344 14.0677 28.6979 14.1406 28.625 14.1953C28.5703 14.2318 28.543 14.3503 28.543 14.5508C28.543 14.7513 28.5612 14.9609 28.5977 15.1797C28.6341 15.3984 28.6523 15.6172 28.6523 15.8359C28.6523 16.0911 28.6159 16.3555 28.543 16.6289C28.4701 16.9023 28.4062 17.1667 28.3516 17.4219C29.4453 17.3307 30.5664 17.194 31.7148 17.0117C32.8633 16.8294 33.957 16.5378 34.9961 16.1367C35.0143 16.1003 35.0234 16.0456 35.0234 15.9727C35.0234 15.8633 35.0143 15.7539 34.9961 15.6445C34.9779 15.5352 34.9688 15.4167 34.9688 15.2891C34.9688 15.0703 35.0417 14.8971 35.1875 14.7695C35.0964 14.2591 35.0326 13.7487 34.9961 13.2383C34.9596 12.7279 34.9414 12.2174 34.9414 11.707V10.1484C34.9414 9.63802 34.9323 9.1276 34.9141 8.61719C35.0599 8.52604 35.2148 8.48047 35.3789 8.48047C35.5794 8.48047 35.7617 8.53516 35.9258 8.64453C36.1081 8.73568 36.3177 8.78125 36.5547 8.78125C36.7188 8.78125 36.8555 8.75391 36.9648 8.69922C37.1654 8.88151 37.3021 9.11849 37.375 9.41016C37.4479 9.70182 37.5117 10.0026 37.5664 10.3125C37.6211 10.6224 37.6758 10.9323 37.7305 11.2422C37.8034 11.5339 37.9401 11.7708 38.1406 11.9531L38.168 12.0352C38.168 12.1081 38.1315 12.1628 38.0586 12.1992C37.9857 12.2357 37.9492 12.3086 37.9492 12.418V12.5273C38.0221 12.819 38.0768 13.1198 38.1133 13.4297C38.1497 13.7396 38.1771 14.0586 38.1953 14.3867C38.2318 14.6966 38.2773 15.0065 38.332 15.3164C38.3867 15.6081 38.487 15.8815 38.6328 16.1367C38.724 16.1185 38.8424 16.1094 38.9883 16.1094C39.3529 16.1094 39.6354 16.237 39.8359 16.4922C40.0547 16.7292 40.2461 16.9753 40.4102 17.2305ZM59.4688 12.6094V12.7188C59.3411 12.7552 59.2773 12.8464 59.2773 12.9922C59.0768 13.0833 58.8672 13.1562 58.6484 13.2109C58.4297 13.2474 58.2201 13.3112 58.0195 13.4023C57.819 13.3841 57.6094 13.375 57.3906 13.375C57.1901 13.3568 56.9896 13.3477 56.7891 13.3477C56.2422 13.3477 55.6953 13.3659 55.1484 13.4023C54.6016 13.4388 54.0547 13.4388 53.5078 13.4023C53.2526 13.5482 52.9701 13.6667 52.6602 13.7578C52.3685 13.8307 52.0859 13.8672 51.8125 13.8672C51.5938 13.8672 51.4023 13.8398 51.2383 13.7852C50.8008 14.0039 50.3177 14.1862 49.7891 14.332C49.2786 14.4779 48.7591 14.6237 48.2305 14.7695C47.7018 14.8971 47.1914 15.0521 46.6992 15.2344C46.2253 15.3984 45.806 15.6354 45.4414 15.9453C45.4049 16.2005 45.3776 16.4557 45.3594 16.7109C45.3411 16.9479 45.332 17.1849 45.332 17.4219C45.332 17.6771 45.3411 17.9141 45.3594 18.1328C45.3958 18.3516 45.4596 18.5703 45.5508 18.7891C45.6419 18.8255 45.7422 18.8529 45.8516 18.8711C45.9792 18.8893 46.0885 18.8984 46.1797 18.8984C46.2708 18.8984 46.362 18.8893 46.4531 18.8711C46.5443 18.8346 46.6081 18.7708 46.6445 18.6797C46.918 18.6432 47.1914 18.6341 47.4648 18.6523C47.7383 18.6523 48.0117 18.6523 48.2852 18.6523C48.5586 18.6523 48.8229 18.6432 49.0781 18.625C49.3516 18.6068 49.6159 18.5612 49.8711 18.4883C50.1628 18.4154 50.4453 18.3698 50.7188 18.3516C51.0104 18.3333 51.293 18.3151 51.5664 18.2969C51.8398 18.2786 52.1224 18.2513 52.4141 18.2148C52.7057 18.1602 53.0065 18.0599 53.3164 17.9141C53.5534 18.0052 53.7904 18.0508 54.0273 18.0508C54.2826 18.0508 54.5286 18.069 54.7656 18.1055C54.8932 18.1966 54.9935 18.2969 55.0664 18.4062C55.1576 18.5156 55.2031 18.6432 55.2031 18.7891C55.2031 19.0443 55.112 19.2995 54.9297 19.5547C54.7474 19.8099 54.6016 20.0469 54.4922 20.2656H54.1914C53.7539 20.2656 53.3255 20.3294 52.9062 20.457C52.5052 20.5664 52.0951 20.7031 51.6758 20.8672C51.2747 21.013 50.8646 21.1497 50.4453 21.2773C50.0443 21.3867 49.625 21.4414 49.1875 21.4414C49.1146 21.4414 49.069 21.487 49.0508 21.5781C49.0508 21.651 49.0326 21.7057 48.9961 21.7422C48.9049 21.724 48.7682 21.7148 48.5859 21.7148C48.1667 21.7148 47.7656 21.7604 47.3828 21.8516C47 21.9427 46.6081 21.9883 46.207 21.9883C46.0977 21.9883 45.9883 21.9883 45.8789 21.9883C45.7695 21.9701 45.6602 21.9518 45.5508 21.9336C45.4596 22.0794 45.3411 22.1797 45.1953 22.2344C45.0495 22.2708 44.9128 22.3438 44.7852 22.4531C44.7305 22.6172 44.694 22.8177 44.6758 23.0547C44.6758 23.2917 44.6667 23.5378 44.6484 23.793C44.6484 24.0299 44.6302 24.2578 44.5938 24.4766C44.5573 24.6953 44.4844 24.8685 44.375 24.9961C44.3932 25.0872 44.4661 25.1237 44.5938 25.1055C44.7214 25.069 44.7852 25.1237 44.7852 25.2695C44.7852 25.4336 44.7669 25.6068 44.7305 25.7891C44.694 25.9714 44.6758 26.1536 44.6758 26.3359C44.6758 26.6823 44.7122 27.0651 44.7852 27.4844C44.8763 27.8854 45.0039 28.2591 45.168 28.6055C45.3503 28.9518 45.5872 29.2435 45.8789 29.4805C46.1706 29.6992 46.5352 29.8086 46.9727 29.8086C47.2643 29.8086 47.5378 29.7539 47.793 29.6445C48.0482 29.5352 48.2578 29.3529 48.4219 29.0977L48.5586 29.0703C48.6315 29.0703 48.6953 29.0794 48.75 29.0977C48.8229 29.1159 48.8958 29.125 48.9688 29.125C49.0781 29.125 49.2148 29.0612 49.3789 28.9336C49.5612 28.7878 49.7526 28.6237 49.9531 28.4414C50.1719 28.2591 50.3906 28.0859 50.6094 27.9219C50.8281 27.7396 51.0378 27.612 51.2383 27.5391C51.3659 27.2839 51.4844 27.0286 51.5938 26.7734C51.7214 26.5182 51.9036 26.3177 52.1406 26.1719V25.3789C52.3229 25.1784 52.5143 24.9961 52.7148 24.832C52.9336 24.668 53.0977 24.4583 53.207 24.2031C53.2982 24.2396 53.3802 24.2669 53.4531 24.2852C53.5443 24.3034 53.6354 24.3125 53.7266 24.3125C53.8177 24.3125 53.9089 24.3034 54 24.2852C54.1094 24.2669 54.2096 24.2396 54.3008 24.2031C54.4466 24.4036 54.556 24.6315 54.6289 24.8867C54.7201 25.1237 54.8294 25.3516 54.957 25.5703C54.793 25.8984 54.6016 26.2904 54.3828 26.7461C54.1641 27.2018 53.9271 27.6576 53.6719 28.1133C53.4167 28.569 53.1432 29.0065 52.8516 29.4258C52.5781 29.8268 52.3047 30.1367 52.0312 30.3555C51.9766 30.4102 51.8581 30.474 51.6758 30.5469C51.4753 30.6927 51.293 30.8294 51.1289 30.957C50.9648 31.1029 50.8099 31.2669 50.6641 31.4492C50.1354 31.6133 49.625 31.832 49.1328 32.1055C48.6589 32.3789 48.1849 32.6432 47.7109 32.8984C47.4922 32.8438 47.2552 32.8164 47 32.8164C46.7812 32.8164 46.5625 32.8255 46.3438 32.8438C46.125 32.8802 45.888 32.8984 45.6328 32.8984C45.5599 32.8073 45.4505 32.7435 45.3047 32.707C45.1771 32.6888 45.1315 32.5977 45.168 32.4336C44.5482 32.3971 44.0469 32.224 43.6641 31.9141C43.2812 31.6224 42.9531 31.2578 42.6797 30.8203C42.4245 30.3828 42.2148 29.9089 42.0508 29.3984C41.8867 28.888 41.7135 28.3958 41.5312 27.9219V27.8398C41.5312 27.7487 41.5677 27.694 41.6406 27.6758C41.7135 27.6576 41.75 27.6029 41.75 27.5117C41.75 27.4753 41.7409 27.4479 41.7227 27.4297C41.668 27.2292 41.6224 27.056 41.5859 26.9102C41.5495 26.7643 41.5312 26.5911 41.5312 26.3906C41.5312 26.099 41.5495 25.8164 41.5859 25.543C41.6224 25.2513 41.6406 24.9596 41.6406 24.668C41.6406 24.3763 41.6042 24.1211 41.5312 23.9023C41.6042 23.8112 41.668 23.6927 41.7227 23.5469C41.7591 23.3828 41.7865 23.2188 41.8047 23.0547C41.8229 22.8906 41.832 22.7266 41.832 22.5625C41.8503 22.3984 41.8776 22.2526 41.9141 22.125C41.8411 21.9245 41.7773 21.7513 41.7227 21.6055C41.668 21.4414 41.6406 21.25 41.6406 21.0312V20.8398C41.8229 20.5299 41.9779 20.2109 42.1055 19.8828C42.2331 19.5547 42.3698 19.2174 42.5156 18.8711V18.7891C42.5156 18.2604 42.4974 17.7318 42.4609 17.2031C42.4245 16.6745 42.4062 16.1458 42.4062 15.6172V15.0977C42.4062 14.9154 42.4154 14.7422 42.4336 14.5781C42.5794 14.5052 42.6888 14.4049 42.7617 14.2773C42.8346 14.1497 42.944 14.0495 43.0898 13.9766H43.9922L44.1562 13.7031C44.2109 13.612 44.2474 13.5117 44.2656 13.4023C44.4661 13.3477 44.6576 13.2747 44.8398 13.1836C45.0404 13.0742 45.2227 12.9648 45.3867 12.8555C45.6419 12.7096 45.8698 12.582 46.0703 12.4727C46.2891 12.3451 46.4987 12.2448 46.6992 12.1719C46.918 12.0807 47.1458 12.0078 47.3828 11.9531C47.6198 11.8984 47.8932 11.8529 48.2031 11.8164C48.349 11.8164 48.4401 11.7891 48.4766 11.7344C48.5312 11.6797 48.6042 11.6159 48.6953 11.543C48.9141 11.5794 49.1328 11.6159 49.3516 11.6523C49.5703 11.6706 49.7891 11.6797 50.0078 11.6797C50.4453 11.6797 50.8555 11.5977 51.2383 11.4336C51.7852 11.4336 52.3229 11.4245 52.8516 11.4062C53.3984 11.388 53.9453 11.3789 54.4922 11.3789C54.9661 11.3789 55.4401 11.3971 55.9141 11.4336C56.388 11.4701 56.8529 11.5339 57.3086 11.625C57.4727 11.5703 57.6549 11.543 57.8555 11.543C58.0742 11.543 58.293 11.5703 58.5117 11.625C58.7487 11.6615 58.9766 11.6615 59.1953 11.625C59.2135 11.8255 59.2591 11.9987 59.332 12.1445C59.4232 12.2721 59.4688 12.4271 59.4688 12.6094ZM84.543 22.9727C84.543 23.1732 84.4701 23.3281 84.3242 23.4375C84.1784 23.5286 84.1055 23.6562 84.1055 23.8203C84.1055 23.8932 84.1419 23.9844 84.2148 24.0938C83.9596 24.0938 83.7865 24.1758 83.6953 24.3398C83.6042 24.5039 83.513 24.6862 83.4219 24.8867H83.0664C82.9753 24.8867 82.9023 24.9049 82.8477 24.9414C82.793 24.9779 82.7383 25.0326 82.6836 25.1055C82.6471 25.1602 82.5924 25.2513 82.5195 25.3789C82.1732 25.4518 81.8359 25.5703 81.5078 25.7344C81.1979 25.8802 80.888 26.0443 80.5781 26.2266C80.2865 26.3906 79.9857 26.5638 79.6758 26.7461C79.3659 26.9102 79.0469 27.0469 78.7188 27.1562C78.5547 27.4297 78.3177 27.6484 78.0078 27.8125H77.9258C77.8346 27.8307 77.7526 27.8216 77.6797 27.7852C77.625 27.7305 77.5521 27.7031 77.4609 27.7031C77.4062 27.7031 77.3698 27.7122 77.3516 27.7305C76.8047 28.0951 76.194 28.2773 75.5195 28.2773C75.3372 28.2773 75.1641 28.2682 75 28.25C74.8359 28.2135 74.6628 28.1953 74.4805 28.1953C74.4258 28.1953 74.3893 28.2135 74.3711 28.25L74.3164 28.3594C74.2982 28.3958 74.2708 28.4323 74.2344 28.4688C74.2161 28.5052 74.1523 28.5234 74.043 28.5234C73.8424 28.5234 73.6419 28.4961 73.4414 28.4414C73.2409 28.3867 73.0312 28.3776 72.8125 28.4141C72.3932 28.1771 72.0651 27.9492 71.8281 27.7305C71.5911 27.5117 71.3724 27.1836 71.1719 26.7461C71.0807 26.5456 70.9531 26.3542 70.7891 26.1719C70.6432 25.9896 70.5339 25.7891 70.4609 25.5703C70.4427 25.4974 70.4154 25.3698 70.3789 25.1875C70.3424 24.987 70.306 24.7773 70.2695 24.5586C70.2331 24.3398 70.1966 24.1302 70.1602 23.9297C70.1419 23.7292 70.1328 23.5924 70.1328 23.5195C70.1328 23.3008 70.1419 23.0911 70.1602 22.8906C70.1966 22.6719 70.2331 22.4531 70.2695 22.2344C70.3789 21.5417 70.4518 20.849 70.4883 20.1562C70.543 19.4453 70.6979 18.7617 70.9531 18.1055C70.9167 17.9049 70.8984 17.7135 70.8984 17.5312V16.9297C70.8984 16.5833 70.8529 16.2917 70.7617 16.0547C70.9076 15.8177 70.9805 15.5534 70.9805 15.2617C70.9805 14.9336 70.8438 14.7422 70.5703 14.6875V14.6055C70.5703 14.2227 70.4427 13.9219 70.1875 13.7031C70.1875 13.0651 70.3424 12.5911 70.6523 12.2812C70.9805 11.9531 71.4089 11.6706 71.9375 11.4336C72.0104 11.3242 72.0378 11.2331 72.0195 11.1602C72.1471 11.1966 72.2656 11.2331 72.375 11.2695C72.4844 11.306 72.5938 11.3242 72.7031 11.3242C72.8854 11.3242 73.0495 11.2969 73.1953 11.2422C73.25 11.4609 73.3867 11.5977 73.6055 11.6523C73.8424 11.6888 74.0339 11.7435 74.1797 11.8164V12.1719C74.1797 12.737 74.3164 13.2747 74.5898 13.7852C74.5169 13.931 74.4714 14.0859 74.4531 14.25C74.4349 14.4141 74.4258 14.569 74.4258 14.7148C74.4258 14.9336 74.4349 15.1523 74.4531 15.3711C74.4714 15.5898 74.4805 15.7995 74.4805 16C74.4805 16.2188 74.4531 16.4375 74.3984 16.6562C74.362 16.875 74.2617 17.0664 74.0977 17.2305C74.0794 17.4674 74.0612 17.7409 74.043 18.0508C74.043 18.3424 74.0247 18.6432 73.9883 18.9531C73.9701 19.263 73.9245 19.5638 73.8516 19.8555C73.7786 20.1471 73.6693 20.3841 73.5234 20.5664C73.5052 20.8398 73.487 21.1224 73.4688 21.4141C73.4688 21.6875 73.4688 21.9518 73.4688 22.207C73.4688 22.6081 73.487 23.082 73.5234 23.6289C73.5781 24.1758 73.7057 24.6315 73.9062 24.9961C73.9974 25.1419 74.1706 25.2513 74.4258 25.3242C74.6992 25.3971 74.918 25.4336 75.082 25.4336C75.2826 25.4336 75.4831 25.4062 75.6836 25.3516C75.9023 25.2786 76.0573 25.1602 76.1484 24.9961C76.2578 25.0143 76.3307 25.069 76.3672 25.1602C76.4036 25.2513 76.4674 25.3242 76.5586 25.3789C77.5977 24.9414 78.6367 24.5221 79.6758 24.1211C80.7148 23.7201 81.7357 23.2552 82.7383 22.7266C82.8841 22.7995 83.0391 22.8359 83.2031 22.8359C83.3854 22.8359 83.5677 22.8177 83.75 22.7812C83.9323 22.7448 84.1146 22.7266 84.2969 22.7266H84.4883C84.5247 22.8359 84.543 22.918 84.543 22.9727ZM90.2578 26.2539C90.1667 26.3997 90.0573 26.5365 89.9297 26.6641C89.8021 26.7734 89.6836 26.8919 89.5742 27.0195C89.4466 27.0742 89.3008 27.1016 89.1367 27.1016C88.9909 27.1016 88.8451 27.1016 88.6992 27.1016C88.5716 27.0833 88.444 27.0833 88.3164 27.1016C88.207 27.1016 88.1159 27.138 88.043 27.2109C87.8971 27.1745 87.7878 27.1107 87.7148 27.0195C87.6419 26.9102 87.5143 26.8464 87.332 26.8281C87.2591 26.8099 87.1862 26.8099 87.1133 26.8281C86.8398 26.5182 86.5846 26.1901 86.3477 25.8438C86.1289 25.4974 85.9193 25.1693 85.7188 24.8594C85.7005 24.1849 85.6458 23.5013 85.5547 22.8086C85.5365 22.6445 85.5091 22.4805 85.4727 22.3164C85.4362 22.1523 85.4089 21.9974 85.3906 21.8516C85.3906 21.6693 85.3997 21.4961 85.418 21.332C85.4544 21.1497 85.4818 20.9857 85.5 20.8398C85.5729 20.3112 85.6549 19.7917 85.7461 19.2812C85.8372 18.7708 85.9193 18.2513 85.9922 17.7227C86.0651 17.2487 86.1016 16.7565 86.1016 16.2461C86.1016 15.7174 86.0195 15.2253 85.8555 14.7695L85.8281 14.6328C85.8646 14.487 85.901 14.3685 85.9375 14.2773C85.9922 14.168 86.0286 14.0495 86.0469 13.9219C86.0833 13.7214 86.0378 13.5755 85.9102 13.4844C85.9648 13.3385 86.056 13.2474 86.1836 13.2109C86.3112 13.1562 86.3841 13.0469 86.4023 12.8828C86.4206 12.8099 86.4206 12.737 86.4023 12.6641C86.5482 12.6094 86.694 12.5638 86.8398 12.5273C87.0039 12.4727 87.1589 12.4635 87.3047 12.5C87.5417 12.5365 87.7513 12.6185 87.9336 12.7461C88.1159 12.8555 88.2891 12.9831 88.4531 13.1289C88.7448 14.0039 88.8633 14.9336 88.8086 15.918C88.7539 16.8841 88.6628 17.8594 88.5352 18.8438C88.4076 19.8281 88.3255 20.7943 88.2891 21.7422C88.2526 22.6719 88.3984 23.5378 88.7266 24.3398L88.7812 24.3672C88.8724 24.3854 88.9453 24.3581 89 24.2852C89.0547 24.194 89.1276 24.1576 89.2188 24.1758C89.2917 24.2122 89.3372 24.2305 89.3555 24.2305C89.4284 24.5951 89.5469 24.9414 89.7109 25.2695C89.875 25.5977 90.0573 25.9258 90.2578 26.2539ZM115.441 12.3359C115.441 12.4453 115.387 12.5365 115.277 12.6094C115.186 12.6823 115.077 12.7552 114.949 12.8281C114.84 12.901 114.721 12.9831 114.594 13.0742C114.484 13.1654 114.411 13.2747 114.375 13.4023H114.129C114.02 13.4023 113.965 13.4388 113.965 13.5117H113.883C113.719 13.5117 113.609 13.4661 113.555 13.375C113.5 13.2656 113.382 13.2109 113.199 13.2109C112.743 13.2109 112.288 13.2201 111.832 13.2383C111.395 13.2383 110.948 13.2474 110.492 13.2656C109.234 13.2656 107.995 13.3112 106.773 13.4023C105.57 13.4753 104.376 13.7305 103.191 14.168C103.155 14.1862 103.109 14.1953 103.055 14.1953C102.964 14.1953 102.909 14.1589 102.891 14.0859C102.891 14.013 102.845 13.9766 102.754 13.9766C102.499 13.9766 102.262 14.0039 102.043 14.0586C101.824 14.1133 101.587 14.1497 101.332 14.168C101.04 14.4232 100.703 14.6328 100.32 14.7969C99.9557 14.9609 99.5729 15.125 99.1719 15.2891C98.7891 15.4349 98.4154 15.599 98.0508 15.7812C97.6862 15.9453 97.3672 16.1641 97.0938 16.4375C97.1302 16.6562 97.1576 16.875 97.1758 17.0938C97.2122 17.2943 97.2305 17.4948 97.2305 17.6953C97.2305 18.4792 97.1576 19.2539 97.0117 20.0195C96.8659 20.7669 96.793 21.5234 96.793 22.2891V22.6992C96.793 22.8268 96.8021 22.9635 96.8203 23.1094C96.8568 23.2005 96.9206 23.2643 97.0117 23.3008C97.1211 23.319 97.2122 23.3555 97.2852 23.4102C97.5221 23.2461 97.7591 23.1185 97.9961 23.0273C98.2513 22.918 98.5065 22.8177 98.7617 22.7266C99.0352 22.6172 99.2904 22.5169 99.5273 22.4258C99.7826 22.3164 100.029 22.1888 100.266 22.043H101.031C101.232 21.8971 101.469 21.7878 101.742 21.7148C102.016 21.6419 102.198 21.4779 102.289 21.2227C102.326 21.2591 102.362 21.2773 102.398 21.2773H102.508C102.727 21.2773 102.945 21.2318 103.164 21.1406C103.401 21.0495 103.638 20.9583 103.875 20.8672C104.112 20.7578 104.349 20.6576 104.586 20.5664C104.823 20.4753 105.069 20.4297 105.324 20.4297C105.379 20.4297 105.424 20.4388 105.461 20.457C105.516 20.457 105.57 20.457 105.625 20.457C105.734 20.2747 105.889 20.138 106.09 20.0469C106.29 19.9375 106.5 19.8464 106.719 19.7734C106.938 19.7005 107.156 19.6276 107.375 19.5547C107.612 19.4818 107.812 19.3906 107.977 19.2812H108.086C108.195 19.2812 108.277 19.3086 108.332 19.3633C108.405 19.3997 108.487 19.4362 108.578 19.4727C109.089 19.1445 109.608 18.9805 110.137 18.9805C110.684 18.9622 111.249 18.9258 111.832 18.8711C111.96 19.0898 112.069 19.2721 112.16 19.418C112.27 19.5456 112.324 19.737 112.324 19.9922C112.324 20.1198 112.315 20.2109 112.297 20.2656C112.096 20.3385 111.941 20.4023 111.832 20.457L111.531 20.6211C111.44 20.6576 111.331 20.694 111.203 20.7305C111.076 20.7487 110.893 20.7578 110.656 20.7578C110.51 20.7578 110.447 20.8034 110.465 20.8945C110.483 20.9674 110.438 21.013 110.328 21.0312C110.073 21.1224 109.818 21.1953 109.562 21.25C109.307 21.3047 109.052 21.3776 108.797 21.4688C108.268 21.6328 107.74 21.8151 107.211 22.0156C106.701 22.1979 106.172 22.3438 105.625 22.4531C105.169 22.8177 104.677 23.1185 104.148 23.3555C103.62 23.5742 103.073 23.7565 102.508 23.9023C101.906 24.3398 101.314 24.75 100.73 25.1328C100.147 25.4974 99.4909 25.8073 98.7617 26.0625C98.6706 26.1536 98.5612 26.2357 98.4336 26.3086C98.306 26.3815 98.224 26.4909 98.1875 26.6367C98.151 26.6367 98.1055 26.6367 98.0508 26.6367C98.0143 26.6185 97.9688 26.6094 97.9141 26.6094C97.6589 26.6094 97.4583 26.6732 97.3125 26.8008C97.1849 26.9102 97.0208 26.9831 96.8203 27.0195C96.7292 27.293 96.6836 27.5299 96.6836 27.7305C96.6836 27.9857 96.7292 28.2135 96.8203 28.4141C96.9115 28.6146 97.0208 28.806 97.1484 28.9883C97.2943 29.1706 97.4401 29.3529 97.5859 29.5352C97.75 29.6992 97.8867 29.8815 97.9961 30.082C97.9596 30.3008 97.8867 30.474 97.7773 30.6016C97.6862 30.7474 97.5768 30.875 97.4492 30.9844C97.3216 31.112 97.194 31.2396 97.0664 31.3672C96.957 31.4948 96.875 31.6589 96.8203 31.8594C96.4922 31.9141 96.1732 31.9414 95.8633 31.9414C95.6628 31.9414 95.4531 31.9141 95.2344 31.8594C95.0339 31.8229 94.8424 31.75 94.6602 31.6406C94.3685 31.2396 94.1589 30.8112 94.0312 30.3555C93.9219 29.8997 93.7669 29.444 93.5664 28.9883L93.5938 28.7969C93.5938 28.3958 93.5208 28.0495 93.375 27.7578C93.2474 27.4479 93.0469 27.138 92.7734 26.8281C92.7917 26.7917 92.8008 26.7279 92.8008 26.6367C92.8008 26.3997 92.7279 26.181 92.582 25.9805C92.6185 25.5612 92.7279 25.2331 92.9102 24.9961C93.1107 24.7591 93.3294 24.4948 93.5664 24.2031V23.875C93.5664 23.0911 93.6302 22.3255 93.7578 21.5781C93.9036 20.8125 93.9766 20.0469 93.9766 19.2812C93.9766 18.8073 93.9401 18.388 93.8672 18.0234C93.8125 18.0052 93.7396 17.9961 93.6484 17.9961C93.5573 17.9961 93.4844 18.0234 93.4297 18.0781C93.375 18.1146 93.3294 18.1602 93.293 18.2148C93.2565 18.2695 93.2109 18.3242 93.1562 18.3789C93.1198 18.4336 93.056 18.4701 92.9648 18.4883C92.6549 18.4336 92.4544 18.2878 92.3633 18.0508C92.2721 17.8138 92.2266 17.5495 92.2266 17.2578C92.2266 17.0938 92.2357 16.9297 92.2539 16.7656C92.2721 16.6016 92.2904 16.4284 92.3086 16.2461C93.0013 15.4805 93.8307 14.7695 94.7969 14.1133C95.763 13.457 96.7201 12.9284 97.668 12.5273C97.7227 12.5091 97.7865 12.5 97.8594 12.5C97.9323 12.5 97.9961 12.5182 98.0508 12.5547C98.1055 12.5729 98.1693 12.582 98.2422 12.582C98.2969 12.582 98.3424 12.5638 98.3789 12.5273C98.5612 12.5273 98.6888 12.4727 98.7617 12.3633C98.8346 12.2539 98.9349 12.1445 99.0625 12.0352C99.1901 12.1263 99.2995 12.1719 99.3906 12.1719C99.5729 12.1719 99.7552 12.0898 99.9375 11.9258C100.12 11.7617 100.32 11.6615 100.539 11.625C101.378 11.4792 102.198 11.3607 103 11.2695C103.82 11.1784 104.632 10.9688 105.434 10.6406C105.616 10.7318 105.798 10.7865 105.98 10.8047C106.163 10.8229 106.345 10.832 106.527 10.832C106.728 10.832 106.947 10.8138 107.184 10.7773C107.439 10.7227 107.639 10.6133 107.785 10.4492C108.368 10.5221 108.988 10.5495 109.645 10.5312C110.319 10.513 110.984 10.5221 111.641 10.5586C112.315 10.5951 112.962 10.6862 113.582 10.832C114.202 10.9779 114.749 11.2422 115.223 11.625C115.259 11.7526 115.305 11.8711 115.359 11.9805C115.414 12.0898 115.441 12.2083 115.441 12.3359ZM131.137 12.6094V12.7188C131.009 12.7552 130.945 12.8464 130.945 12.9922C130.745 13.0833 130.535 13.1562 130.316 13.2109C130.098 13.2474 129.888 13.3112 129.688 13.4023C129.487 13.3841 129.277 13.375 129.059 13.375C128.858 13.3568 128.658 13.3477 128.457 13.3477C127.91 13.3477 127.363 13.3659 126.816 13.4023C126.27 13.4388 125.723 13.4388 125.176 13.4023C124.921 13.5482 124.638 13.6667 124.328 13.7578C124.036 13.8307 123.754 13.8672 123.48 13.8672C123.262 13.8672 123.07 13.8398 122.906 13.7852C122.469 14.0039 121.986 14.1862 121.457 14.332C120.947 14.4779 120.427 14.6237 119.898 14.7695C119.37 14.8971 118.859 15.0521 118.367 15.2344C117.893 15.3984 117.474 15.6354 117.109 15.9453C117.073 16.2005 117.046 16.4557 117.027 16.7109C117.009 16.9479 117 17.1849 117 17.4219C117 17.6771 117.009 17.9141 117.027 18.1328C117.064 18.3516 117.128 18.5703 117.219 18.7891C117.31 18.8255 117.41 18.8529 117.52 18.8711C117.647 18.8893 117.757 18.8984 117.848 18.8984C117.939 18.8984 118.03 18.8893 118.121 18.8711C118.212 18.8346 118.276 18.7708 118.312 18.6797C118.586 18.6432 118.859 18.6341 119.133 18.6523C119.406 18.6523 119.68 18.6523 119.953 18.6523C120.227 18.6523 120.491 18.6432 120.746 18.625C121.02 18.6068 121.284 18.5612 121.539 18.4883C121.831 18.4154 122.113 18.3698 122.387 18.3516C122.678 18.3333 122.961 18.3151 123.234 18.2969C123.508 18.2786 123.79 18.2513 124.082 18.2148C124.374 18.1602 124.674 18.0599 124.984 17.9141C125.221 18.0052 125.458 18.0508 125.695 18.0508C125.951 18.0508 126.197 18.069 126.434 18.1055C126.561 18.1966 126.661 18.2969 126.734 18.4062C126.826 18.5156 126.871 18.6432 126.871 18.7891C126.871 19.0443 126.78 19.2995 126.598 19.5547C126.415 19.8099 126.27 20.0469 126.16 20.2656H125.859C125.422 20.2656 124.993 20.3294 124.574 20.457C124.173 20.5664 123.763 20.7031 123.344 20.8672C122.943 21.013 122.533 21.1497 122.113 21.2773C121.712 21.3867 121.293 21.4414 120.855 21.4414C120.783 21.4414 120.737 21.487 120.719 21.5781C120.719 21.651 120.701 21.7057 120.664 21.7422C120.573 21.724 120.436 21.7148 120.254 21.7148C119.835 21.7148 119.434 21.7604 119.051 21.8516C118.668 21.9427 118.276 21.9883 117.875 21.9883C117.766 21.9883 117.656 21.9883 117.547 21.9883C117.438 21.9701 117.328 21.9518 117.219 21.9336C117.128 22.0794 117.009 22.1797 116.863 22.2344C116.717 22.2708 116.581 22.3438 116.453 22.4531C116.398 22.6172 116.362 22.8177 116.344 23.0547C116.344 23.2917 116.335 23.5378 116.316 23.793C116.316 24.0299 116.298 24.2578 116.262 24.4766C116.225 24.6953 116.152 24.8685 116.043 24.9961C116.061 25.0872 116.134 25.1237 116.262 25.1055C116.389 25.069 116.453 25.1237 116.453 25.2695C116.453 25.4336 116.435 25.6068 116.398 25.7891C116.362 25.9714 116.344 26.1536 116.344 26.3359C116.344 26.6823 116.38 27.0651 116.453 27.4844C116.544 27.8854 116.672 28.2591 116.836 28.6055C117.018 28.9518 117.255 29.2435 117.547 29.4805C117.839 29.6992 118.203 29.8086 118.641 29.8086C118.932 29.8086 119.206 29.7539 119.461 29.6445C119.716 29.5352 119.926 29.3529 120.09 29.0977L120.227 29.0703C120.299 29.0703 120.363 29.0794 120.418 29.0977C120.491 29.1159 120.564 29.125 120.637 29.125C120.746 29.125 120.883 29.0612 121.047 28.9336C121.229 28.7878 121.421 28.6237 121.621 28.4414C121.84 28.2591 122.059 28.0859 122.277 27.9219C122.496 27.7396 122.706 27.612 122.906 27.5391C123.034 27.2839 123.152 27.0286 123.262 26.7734C123.389 26.5182 123.572 26.3177 123.809 26.1719V25.3789C123.991 25.1784 124.182 24.9961 124.383 24.832C124.602 24.668 124.766 24.4583 124.875 24.2031C124.966 24.2396 125.048 24.2669 125.121 24.2852C125.212 24.3034 125.303 24.3125 125.395 24.3125C125.486 24.3125 125.577 24.3034 125.668 24.2852C125.777 24.2669 125.878 24.2396 125.969 24.2031C126.115 24.4036 126.224 24.6315 126.297 24.8867C126.388 25.1237 126.497 25.3516 126.625 25.5703C126.461 25.8984 126.27 26.2904 126.051 26.7461C125.832 27.2018 125.595 27.6576 125.34 28.1133C125.085 28.569 124.811 29.0065 124.52 29.4258C124.246 29.8268 123.973 30.1367 123.699 30.3555C123.645 30.4102 123.526 30.474 123.344 30.5469C123.143 30.6927 122.961 30.8294 122.797 30.957C122.633 31.1029 122.478 31.2669 122.332 31.4492C121.803 31.6133 121.293 31.832 120.801 32.1055C120.327 32.3789 119.853 32.6432 119.379 32.8984C119.16 32.8438 118.923 32.8164 118.668 32.8164C118.449 32.8164 118.23 32.8255 118.012 32.8438C117.793 32.8802 117.556 32.8984 117.301 32.8984C117.228 32.8073 117.118 32.7435 116.973 32.707C116.845 32.6888 116.799 32.5977 116.836 32.4336C116.216 32.3971 115.715 32.224 115.332 31.9141C114.949 31.6224 114.621 31.2578 114.348 30.8203C114.092 30.3828 113.883 29.9089 113.719 29.3984C113.555 28.888 113.382 28.3958 113.199 27.9219V27.8398C113.199 27.7487 113.236 27.694 113.309 27.6758C113.382 27.6576 113.418 27.6029 113.418 27.5117C113.418 27.4753 113.409 27.4479 113.391 27.4297C113.336 27.2292 113.29 27.056 113.254 26.9102C113.217 26.7643 113.199 26.5911 113.199 26.3906C113.199 26.099 113.217 25.8164 113.254 25.543C113.29 25.2513 113.309 24.9596 113.309 24.668C113.309 24.3763 113.272 24.1211 113.199 23.9023C113.272 23.8112 113.336 23.6927 113.391 23.5469C113.427 23.3828 113.454 23.2188 113.473 23.0547C113.491 22.8906 113.5 22.7266 113.5 22.5625C113.518 22.3984 113.546 22.2526 113.582 22.125C113.509 21.9245 113.445 21.7513 113.391 21.6055C113.336 21.4414 113.309 21.25 113.309 21.0312V20.8398C113.491 20.5299 113.646 20.2109 113.773 19.8828C113.901 19.5547 114.038 19.2174 114.184 18.8711V18.7891C114.184 18.2604 114.165 17.7318 114.129 17.2031C114.092 16.6745 114.074 16.1458 114.074 15.6172V15.0977C114.074 14.9154 114.083 14.7422 114.102 14.5781C114.247 14.5052 114.357 14.4049 114.43 14.2773C114.503 14.1497 114.612 14.0495 114.758 13.9766H115.66L115.824 13.7031C115.879 13.612 115.915 13.5117 115.934 13.4023C116.134 13.3477 116.326 13.2747 116.508 13.1836C116.708 13.0742 116.891 12.9648 117.055 12.8555C117.31 12.7096 117.538 12.582 117.738 12.4727C117.957 12.3451 118.167 12.2448 118.367 12.1719C118.586 12.0807 118.814 12.0078 119.051 11.9531C119.288 11.8984 119.561 11.8529 119.871 11.8164C120.017 11.8164 120.108 11.7891 120.145 11.7344C120.199 11.6797 120.272 11.6159 120.363 11.543C120.582 11.5794 120.801 11.6159 121.02 11.6523C121.238 11.6706 121.457 11.6797 121.676 11.6797C122.113 11.6797 122.523 11.5977 122.906 11.4336C123.453 11.4336 123.991 11.4245 124.52 11.4062C125.066 11.388 125.613 11.3789 126.16 11.3789C126.634 11.3789 127.108 11.3971 127.582 11.4336C128.056 11.4701 128.521 11.5339 128.977 11.625C129.141 11.5703 129.323 11.543 129.523 11.543C129.742 11.543 129.961 11.5703 130.18 11.625C130.417 11.6615 130.645 11.6615 130.863 11.625C130.882 11.8255 130.927 11.9987 131 12.1445C131.091 12.2721 131.137 12.4271 131.137 12.6094ZM158.316 14.8789C158.262 15.043 158.152 15.1615 157.988 15.2344C157.842 15.2891 157.688 15.3346 157.523 15.3711C157.359 15.4076 157.204 15.4714 157.059 15.5625C156.931 15.6354 156.849 15.763 156.812 15.9453L156.758 15.9727C156.685 15.9727 156.63 15.9544 156.594 15.918C156.576 15.8633 156.557 15.8177 156.539 15.7813C156.521 15.7266 156.493 15.681 156.457 15.6445C156.439 15.5898 156.402 15.5625 156.348 15.5625C156.147 15.5625 155.947 15.5807 155.746 15.6172C155.564 15.6536 155.382 15.6719 155.199 15.6719C154.926 15.6719 154.68 15.6354 154.461 15.5625C154.333 15.599 154.26 15.681 154.242 15.8086C154.242 15.9362 154.188 16.0182 154.078 16.0547C153.987 16.0911 153.878 16.1094 153.75 16.1094C153.622 16.0911 153.495 16.1003 153.367 16.1367L152.492 16.3555C152.201 16.4284 151.909 16.4648 151.617 16.4648C151.453 16.4648 151.335 16.4557 151.262 16.4375C150.988 16.6563 150.678 16.8203 150.332 16.9297C149.986 17.0208 149.621 17.112 149.238 17.2031C148.874 17.276 148.509 17.3763 148.145 17.5039C147.798 17.6315 147.488 17.832 147.215 18.1055C147.069 18.069 146.941 18.0508 146.832 18.0508C146.595 18.0508 146.385 18.1055 146.203 18.2148C146.021 18.306 145.829 18.3971 145.629 18.4883C145.538 18.5247 145.447 18.543 145.355 18.543C145.264 18.543 145.164 18.5612 145.055 18.5977C144.945 18.6341 144.872 18.6979 144.836 18.7891C144.818 18.862 144.763 18.9349 144.672 19.0078C144.672 19.6641 144.736 20.3203 144.863 20.9766C144.991 21.6146 145.055 22.2617 145.055 22.918V23.0273C145.091 23.3372 145.191 23.6289 145.355 23.9023C145.52 24.1576 145.602 24.4219 145.602 24.6953C145.602 24.7865 145.583 24.8867 145.547 24.9961C146.021 25.1055 146.331 25.3516 146.477 25.7344C146.641 26.099 146.768 26.5 146.859 26.9375C146.969 27.3568 147.105 27.7487 147.27 28.1133C147.452 28.4779 147.798 28.7057 148.309 28.7969C148.345 28.9792 148.372 29.1706 148.391 29.3711C148.409 29.5534 148.418 29.7357 148.418 29.918C148.418 30.1732 148.391 30.4193 148.336 30.6562C148.281 30.9115 148.172 31.1393 148.008 31.3398C147.734 31.3581 147.534 31.3672 147.406 31.3672C147.279 31.3672 147.087 31.4219 146.832 31.5312C146.467 31.3125 146.139 31.0573 145.848 30.7656C145.574 30.4922 145.31 30.2005 145.055 29.8906C144.818 29.5625 144.581 29.2344 144.344 28.9062C144.107 28.5599 143.852 28.2318 143.578 27.9219C142.63 28.1589 141.655 28.3229 140.652 28.4141C139.668 28.487 138.684 28.5234 137.699 28.5234C137.663 28.5599 137.608 28.5781 137.535 28.5781C137.462 28.5781 137.389 28.5872 137.316 28.6055C137.262 28.6055 137.207 28.6237 137.152 28.6602C137.116 28.6784 137.107 28.724 137.125 28.7969C136.997 28.724 136.852 28.6784 136.688 28.6602C136.542 28.6237 136.405 28.6055 136.277 28.6055C136.186 28.6055 136.095 28.6146 136.004 28.6328C135.913 28.6328 135.822 28.6602 135.73 28.7148C135.038 28.5872 134.363 28.4141 133.707 28.1953C133.069 27.9583 132.413 27.7669 131.738 27.6211C131.738 27.4753 131.702 27.375 131.629 27.3203C131.556 27.2474 131.492 27.1471 131.438 27.0195C130.672 26.5456 130.025 25.9714 129.496 25.2969C128.986 24.6224 128.776 23.8021 128.867 22.8359L128.676 22.4531C128.676 22.1615 128.74 21.9518 128.867 21.8242C128.794 21.6966 128.667 21.569 128.484 21.4414C128.648 21.1862 128.794 20.9219 128.922 20.6484C129.049 20.375 129.141 20.0833 129.195 19.7734C129.214 19.6823 129.223 19.6003 129.223 19.5273C129.223 19.4544 129.241 19.3724 129.277 19.2812C129.314 19.1719 129.368 19.0534 129.441 18.9258C129.496 18.7799 129.551 18.6523 129.605 18.543C129.897 17.9232 130.216 17.3307 130.562 16.7656C130.927 16.1823 131.383 15.681 131.93 15.2617C131.966 14.9518 132.057 14.6966 132.203 14.4961C132.349 14.2773 132.504 14.0859 132.668 13.9219C132.85 13.7396 133.023 13.5573 133.188 13.375C133.37 13.1927 133.507 12.974 133.598 12.7188C133.962 12.4089 134.327 12.1081 134.691 11.8164C135.074 11.5247 135.393 11.1784 135.648 10.7773C135.977 10.668 136.286 10.5313 136.578 10.3672C136.87 10.1849 137.116 9.95703 137.316 9.68359C137.754 9.64714 138.182 9.5651 138.602 9.4375C139.039 9.3099 139.495 9.24609 139.969 9.24609C140.169 9.24609 140.406 9.29167 140.68 9.38281C140.971 9.45573 141.19 9.59245 141.336 9.79297C141.354 9.82943 141.363 9.875 141.363 9.92969L141.391 10.0664C141.409 10.1029 141.427 10.1393 141.445 10.1758C141.482 10.194 141.536 10.194 141.609 10.1758C141.609 10.5768 141.564 10.987 141.473 11.4063C141.382 11.8073 141.145 12.1172 140.762 12.3359C140.525 12.263 140.27 12.2266 139.996 12.2266C139.632 12.2266 139.294 12.2995 138.984 12.4453C138.693 12.5729 138.401 12.7279 138.109 12.9102C137.836 13.0742 137.553 13.2474 137.262 13.4297C136.97 13.5938 136.66 13.7122 136.332 13.7852C136.296 13.931 136.259 14.0677 136.223 14.1953C136.204 14.3047 136.214 14.4323 136.25 14.5781C136.159 14.5781 136.086 14.569 136.031 14.5508C135.995 14.5143 135.931 14.4961 135.84 14.4961C135.712 14.4961 135.621 14.569 135.566 14.7148C135.53 14.8607 135.493 14.9792 135.457 15.0703C135.111 15.2161 134.819 15.4258 134.582 15.6992C134.363 15.9544 134.154 16.237 133.953 16.5469C133.771 16.8385 133.57 17.1211 133.352 17.3945C133.133 17.668 132.859 17.8776 132.531 18.0234C132.385 18.6068 132.24 19.181 132.094 19.7461C131.966 20.3112 131.811 20.8763 131.629 21.4414C131.684 21.6602 131.711 21.888 131.711 22.125C131.711 22.4167 131.684 22.681 131.629 22.918C131.72 23.0638 131.811 23.237 131.902 23.4375L132.23 24.0664C132.34 24.2852 132.449 24.4857 132.559 24.668C132.686 24.8503 132.805 24.987 132.914 25.0781C133.115 25.224 133.424 25.3607 133.844 25.4883C134.263 25.5977 134.637 25.7891 134.965 26.0625C135.001 26.0625 135.047 26.0625 135.102 26.0625C135.156 26.0443 135.202 26.0352 135.238 26.0352C135.457 26.0352 135.694 26.0898 135.949 26.1992C136.204 26.3086 136.368 26.3633 136.441 26.3633C137.462 26.3633 138.574 26.2995 139.777 26.1719C140.98 26.026 142.092 25.8529 143.113 25.6523C143.15 25.4701 143.168 25.3151 143.168 25.1875C143.168 24.9505 143.132 24.7227 143.059 24.5039C142.986 24.2669 142.867 24.0664 142.703 23.9023C142.703 23.6289 142.703 23.3555 142.703 23.082C142.721 22.8086 142.73 22.5352 142.73 22.2617C142.73 21.806 142.712 21.3229 142.676 20.8125C142.639 20.3021 142.548 19.8281 142.402 19.3906H142.348C142.111 19.3906 141.892 19.4544 141.691 19.582C141.509 19.6914 141.318 19.7461 141.117 19.7461C141.008 19.7461 140.917 19.7188 140.844 19.6641C140.625 19.9193 140.361 20.1107 140.051 20.2383C139.741 20.3659 139.413 20.4844 139.066 20.5938C138.72 20.6849 138.374 20.7852 138.027 20.8945C137.699 21.0039 137.398 21.1589 137.125 21.3594C136.979 21.3047 136.842 21.2773 136.715 21.2773C136.587 21.2773 136.46 21.2865 136.332 21.3047C136.223 21.3229 136.095 21.3411 135.949 21.3594C135.566 21.0312 135.375 20.6211 135.375 20.1289C135.375 19.8737 135.411 19.6276 135.484 19.3906C135.576 19.1354 135.694 18.8984 135.84 18.6797C135.931 18.625 136.04 18.5977 136.168 18.5977C136.296 18.5794 136.423 18.5612 136.551 18.543C136.678 18.5065 136.779 18.4609 136.852 18.4062C136.943 18.3516 136.997 18.2513 137.016 18.1055C137.07 18.1602 137.116 18.1875 137.152 18.1875C137.189 18.1875 137.225 18.1784 137.262 18.1602C137.298 18.1419 137.335 18.1328 137.371 18.1328C137.408 18.1328 137.435 18.151 137.453 18.1875C137.49 18.224 137.508 18.2604 137.508 18.2969C138.292 17.8776 139.094 17.5221 139.914 17.2305C140.734 16.9388 141.564 16.6745 142.402 16.4375C143.259 16.2005 144.116 15.9818 144.973 15.7813C145.829 15.5625 146.677 15.3255 147.516 15.0703C147.643 14.9609 147.78 14.8789 147.926 14.8242C148.072 14.7695 148.199 14.6875 148.309 14.5781C148.436 14.651 148.591 14.6875 148.773 14.6875C149.029 14.6875 149.302 14.6419 149.594 14.5508C149.904 14.4414 150.159 14.3138 150.359 14.168C150.432 14.1862 150.496 14.1953 150.551 14.1953H150.742C151.107 14.1953 151.444 14.1406 151.754 14.0313C152.082 13.9219 152.401 13.776 152.711 13.5938H152.848C153.413 13.5938 153.969 13.5299 154.516 13.4023C155.081 13.2747 155.655 13.2109 156.238 13.2109C156.986 13.2109 157.642 13.4023 158.207 13.7852V14.1133C158.207 14.2591 158.207 14.3958 158.207 14.5234C158.225 14.6328 158.262 14.7513 158.316 14.8789ZM167.449 25.5703C167.376 25.8438 167.258 26.0716 167.094 26.2539C166.93 26.4362 166.738 26.6003 166.52 26.7461C166.319 26.8919 166.1 27.0286 165.863 27.1562C165.626 27.2656 165.398 27.3932 165.18 27.5391H164.824C164.059 27.5391 163.466 27.3568 163.047 26.9922C162.646 26.6094 162.336 26.1445 162.117 25.5977C161.898 25.0326 161.734 24.431 161.625 23.793C161.534 23.1549 161.415 22.5716 161.27 22.043C161.051 22.2253 160.868 22.444 160.723 22.6992C160.577 22.9362 160.422 23.1732 160.258 23.4102C160.112 23.6471 159.939 23.8659 159.738 24.0664C159.556 24.2669 159.31 24.4036 159 24.4766C158.945 24.6042 158.882 24.7318 158.809 24.8594C158.754 24.987 158.717 25.1237 158.699 25.2695C158.298 25.4883 157.934 25.7435 157.605 26.0352C157.277 26.3268 156.949 26.6276 156.621 26.9375C156.293 27.2474 155.956 27.5482 155.609 27.8398C155.281 28.1133 154.908 28.3411 154.488 28.5234C154.47 28.5052 154.434 28.4961 154.379 28.4961C154.16 28.4961 153.96 28.5508 153.777 28.6602C153.595 28.7513 153.395 28.7969 153.176 28.7969C153.03 28.7969 152.893 28.7695 152.766 28.7148C152.656 28.6602 152.538 28.5964 152.41 28.5234C152.301 28.4505 152.182 28.3958 152.055 28.3594C151.927 28.3229 151.79 28.3138 151.645 28.332C151.462 28.0039 151.216 27.7031 150.906 27.4297C150.615 27.138 150.432 26.8099 150.359 26.4453C150.323 26.2812 150.296 26.1172 150.277 25.9531C150.277 25.7708 150.259 25.5885 150.223 25.4062C150.168 25.1328 150.095 24.8594 150.004 24.5859C149.913 24.2943 149.84 24.0026 149.785 23.7109C149.876 23.2188 149.967 22.681 150.059 22.0977C150.132 21.4961 150.223 20.9036 150.332 20.3203C150.46 19.7188 150.624 19.1536 150.824 18.625C151.043 18.0781 151.316 17.6133 151.645 17.2305L151.617 17.0391C151.617 16.7474 151.672 16.474 151.781 16.2188C151.891 15.9635 152.009 15.7174 152.137 15.4805C152.264 15.2435 152.374 15.0065 152.465 14.7695C152.556 14.5326 152.574 14.2682 152.52 13.9766C152.738 13.8672 152.966 13.776 153.203 13.7031C153.44 13.6302 153.686 13.5938 153.941 13.5938C154.178 13.5938 154.397 13.6302 154.598 13.7031C154.561 13.849 154.625 13.9401 154.789 13.9766V14.0586C154.789 14.4414 154.743 14.8151 154.652 15.1797C154.561 15.5443 154.452 15.9089 154.324 16.2734C154.197 16.6198 154.069 16.9753 153.941 17.3398C153.832 17.6862 153.75 18.0417 153.695 18.4062C153.622 18.4245 153.568 18.4609 153.531 18.5156C153.513 18.5703 153.495 18.625 153.477 18.6797C153.458 18.7344 153.431 18.7799 153.395 18.8164C153.358 18.8529 153.303 18.8711 153.23 18.8711C153.121 19.5091 153.003 20.1471 152.875 20.7852C152.766 21.4049 152.711 22.0339 152.711 22.6719C152.711 23.0547 152.747 23.4466 152.82 23.8477C152.893 24.2487 153.03 24.6315 153.23 24.9961L153.34 24.9688C153.54 24.9688 153.695 25.0143 153.805 25.1055C153.932 25.1966 154.096 25.2878 154.297 25.3789C154.443 25.3424 154.579 25.2969 154.707 25.2422C154.835 25.1693 154.889 25.0508 154.871 24.8867C155.108 24.8685 155.309 24.8138 155.473 24.7227C155.637 24.6133 155.783 24.4948 155.91 24.3672L156.32 23.9844C156.466 23.8568 156.639 23.7656 156.84 23.7109C156.84 23.6016 156.867 23.5195 156.922 23.4648L157.086 23.3008C157.141 23.2461 157.177 23.1914 157.195 23.1367C157.232 23.0638 157.241 22.9635 157.223 22.8359C157.441 22.8177 157.605 22.763 157.715 22.6719C157.842 22.5807 157.952 22.4805 158.043 22.3711C158.152 22.2435 158.253 22.1159 158.344 21.9883C158.435 21.8607 158.553 21.7513 158.699 21.6602C158.827 21.3867 159 21.0221 159.219 20.5664C159.456 20.1107 159.684 19.6367 159.902 19.1445C160.139 18.6523 160.34 18.1875 160.504 17.75C160.686 17.2943 160.777 16.9479 160.777 16.7109C160.777 16.6198 160.75 16.5378 160.695 16.4648C160.659 16.3919 160.65 16.3099 160.668 16.2188V16.1367C160.814 15.9544 160.941 15.7539 161.051 15.5352C161.178 15.3164 161.306 15.1068 161.434 14.9063C161.579 14.7057 161.734 14.5234 161.898 14.3594C162.062 14.1953 162.272 14.0677 162.527 13.9766C162.819 14.0677 163.111 14.1315 163.402 14.168C163.712 14.2044 164.004 14.2773 164.277 14.3867C164.296 14.8424 164.341 15.3711 164.414 15.9727C164.487 16.5742 164.615 17.0846 164.797 17.5039C164.797 17.7409 164.788 17.9688 164.77 18.1875C164.77 18.4062 164.77 18.625 164.77 18.8438C164.77 19.2083 164.779 19.582 164.797 19.9648C164.833 20.3477 164.897 20.7031 164.988 21.0312C164.861 21.3047 164.797 21.5964 164.797 21.9062C164.797 22.3255 164.861 22.7266 164.988 23.1094C165.116 23.474 165.207 23.8659 165.262 24.2852C165.499 24.6133 165.809 24.7773 166.191 24.7773C166.283 24.7773 166.355 24.7682 166.41 24.75C166.483 24.7318 166.556 24.7044 166.629 24.668C166.775 24.832 166.902 24.9961 167.012 25.1602C167.139 25.306 167.285 25.4427 167.449 25.5703ZM188.695 28.0039C188.641 28.2591 188.522 28.4688 188.34 28.6328C188.176 28.7786 187.975 28.8971 187.738 28.9883C187.501 29.0794 187.255 29.1432 187 29.1797C186.763 29.1979 186.544 29.207 186.344 29.207C186.253 29.207 186.161 29.207 186.07 29.207C185.997 29.1888 185.915 29.1797 185.824 29.1797C185.733 29.1797 185.688 29.2253 185.688 29.3164C185.688 29.4076 185.642 29.4714 185.551 29.5078C185.46 29.4714 185.368 29.444 185.277 29.4258C185.186 29.4076 185.095 29.3984 185.004 29.3984C184.876 29.3984 184.749 29.4076 184.621 29.4258C184.512 29.444 184.402 29.4531 184.293 29.4531C184.147 29.4531 184.038 29.4349 183.965 29.3984C183.91 29.362 183.855 29.3255 183.801 29.2891C183.764 29.2344 183.719 29.1797 183.664 29.125C183.628 29.0703 183.564 29.0247 183.473 28.9883C183.345 28.9336 183.236 28.9245 183.145 28.9609C183.072 28.9974 182.953 28.9427 182.789 28.7969C182.57 28.6146 182.379 28.3958 182.215 28.1406C182.069 27.8672 181.923 27.5846 181.777 27.293C181.632 27.0013 181.477 26.7096 181.312 26.418C181.148 26.1263 180.957 25.8711 180.738 25.6523H180.52C180.191 25.6523 179.964 25.7891 179.836 26.0625C179.745 26.0078 179.654 25.944 179.562 25.8711C179.471 25.7799 179.371 25.707 179.262 25.6523C178.842 25.7799 178.405 25.8893 177.949 25.9805C177.493 26.0716 177.038 26.1172 176.582 26.1172H176.199C176.09 26.1172 175.971 26.099 175.844 26.0625C175.661 26.1354 175.497 26.2266 175.352 26.3359C175.206 26.4271 175.042 26.4727 174.859 26.4727C174.75 26.4727 174.622 26.4362 174.477 26.3633C174.367 26.3633 174.312 26.4089 174.312 26.5C174.331 26.5911 174.276 26.6367 174.148 26.6367H173.902C173.647 26.6367 173.392 26.6458 173.137 26.6641C172.9 26.6823 172.654 26.6914 172.398 26.6914C172.052 26.6914 171.697 26.6458 171.332 26.5547C171.241 26.6094 171.141 26.6367 171.031 26.6367C170.958 26.6732 170.904 26.737 170.867 26.8281C170.831 26.901 170.794 26.974 170.758 27.0469C170.721 27.1016 170.667 27.1562 170.594 27.2109C170.539 27.2474 170.457 27.2565 170.348 27.2383C170.311 27.457 170.22 27.6302 170.074 27.7578C169.928 27.8854 169.855 28.0768 169.855 28.332C169.655 28.4414 169.491 28.5781 169.363 28.7422C169.236 28.9062 169.108 29.0794 168.98 29.2617C168.853 29.444 168.716 29.6172 168.57 29.7812C168.443 29.9453 168.279 30.0729 168.078 30.1641C167.987 30.2734 167.96 30.4466 167.996 30.6836C167.796 30.8477 167.549 30.9935 167.258 31.1211C166.966 31.2487 166.693 31.3125 166.438 31.3125C165.909 31.3125 165.544 31.0299 165.344 30.4648C165.344 30.2826 165.362 30.0911 165.398 29.8906C165.417 29.6719 165.453 29.4714 165.508 29.2891C165.562 29.0885 165.645 28.9154 165.754 28.7695C165.863 28.6055 166.018 28.487 166.219 28.4141C166.219 28.25 166.164 28.1406 166.055 28.0859C165.945 28.013 165.9 27.8945 165.918 27.7305C166.41 27.4935 166.839 27.1836 167.203 26.8008C167.568 26.418 167.896 26.0169 168.188 25.5977C168.497 25.1602 168.807 24.7227 169.117 24.2852C169.427 23.8477 169.773 23.4557 170.156 23.1094V22.5352C170.703 21.9518 171.059 21.2956 171.223 20.5664C171.423 20.5299 171.551 20.4388 171.605 20.293C171.678 20.1471 171.715 19.974 171.715 19.7734C171.806 19.7734 171.861 19.737 171.879 19.6641C171.915 19.5729 171.997 19.5456 172.125 19.582C172.289 19.1445 172.471 18.7435 172.672 18.3789C172.872 18.0143 173.073 17.6497 173.273 17.2852C173.474 16.9023 173.647 16.5104 173.793 16.1094C173.957 15.7083 174.076 15.2617 174.148 14.7695C174.404 14.7513 174.54 14.6328 174.559 14.4141C174.595 14.1771 174.632 13.9674 174.668 13.7852C174.941 13.5299 175.142 13.2292 175.27 12.8828C175.415 12.5365 175.543 12.181 175.652 11.8164C175.762 11.4336 175.88 11.0599 176.008 10.6953C176.154 10.3125 176.354 9.97526 176.609 9.68359V9.60156C176.609 9.51042 176.573 9.45573 176.5 9.4375C176.427 9.40104 176.391 9.33724 176.391 9.24609C176.409 9.22786 176.418 9.20964 176.418 9.19141C176.637 9.10026 176.801 8.95443 176.91 8.75391C177.02 8.53516 177.184 8.38021 177.402 8.28906C177.785 8.59896 178.122 8.79036 178.414 8.86328C178.706 8.91797 179.089 8.96354 179.562 9C179.799 9.25521 179.927 9.5651 179.945 9.92969C179.982 10.276 180.046 10.6224 180.137 10.9688C180.283 11.5521 180.438 12.1263 180.602 12.6914C180.784 13.2383 180.921 13.8034 181.012 14.3867C181.066 14.7331 181.167 15.0612 181.312 15.3711C181.458 15.681 181.559 16 181.613 16.3281C181.65 16.5833 181.65 16.875 181.613 17.2031C181.577 17.513 181.613 17.7865 181.723 18.0234L181.914 18.4609C182.005 18.6615 182.078 18.8711 182.133 19.0898C182.206 19.3086 182.27 19.5273 182.324 19.7461C182.47 20.293 182.598 20.8854 182.707 21.5234C182.835 22.1432 183.026 22.7083 183.281 23.2188C183.372 23.401 183.509 23.5286 183.691 23.6016C183.892 23.6745 184.111 23.7292 184.348 23.7656C184.585 23.7839 184.812 23.793 185.031 23.793C185.268 23.7747 185.469 23.7656 185.633 23.7656H185.906C186.016 23.7656 186.125 23.7839 186.234 23.8203C186.307 23.9661 186.344 24.0938 186.344 24.2031C186.344 24.4219 186.271 24.5951 186.125 24.7227C185.979 24.8503 185.906 24.9961 185.906 25.1602C185.906 25.2513 185.943 25.3516 186.016 25.4609C185.943 25.4427 185.833 25.4336 185.688 25.4336C185.268 25.4336 184.858 25.5065 184.457 25.6523C184.603 25.9622 184.794 26.2266 185.031 26.4453C185.286 26.6458 185.551 26.8372 185.824 27.0195C186.007 26.8737 186.198 26.8008 186.398 26.8008C186.617 26.8008 186.818 26.8555 187 26.9648C187.201 27.056 187.41 27.1016 187.629 27.1016C187.793 27.1016 187.911 27.0742 187.984 27.0195C188.13 27.1836 188.249 27.3568 188.34 27.5391C188.431 27.7031 188.549 27.8581 188.695 28.0039ZM180.137 23.6289C180.1 23.319 180.036 23.1003 179.945 22.9727C179.872 22.8268 179.809 22.6536 179.754 22.4531C179.681 22.1979 179.626 21.9245 179.59 21.6328C179.572 21.3411 179.535 21.0586 179.48 20.7852C179.353 20.1654 179.207 19.5456 179.043 18.9258C178.897 18.306 178.706 17.7044 178.469 17.1211C178.542 17.0117 178.578 16.9115 178.578 16.8203V16.7383C178.414 16.556 178.296 16.3372 178.223 16.082C178.15 15.8086 178.077 15.5443 178.004 15.2891C177.949 15.0156 177.867 14.7695 177.758 14.5508C177.667 14.3138 177.512 14.1224 177.293 13.9766C177.238 14.0859 177.211 14.2135 177.211 14.3594C177.211 14.487 177.22 14.6055 177.238 14.7148C177.275 14.8242 177.293 14.9427 177.293 15.0703C177.111 15.1615 176.974 15.3073 176.883 15.5078C176.81 15.6901 176.682 15.8359 176.5 15.9453C176.354 16.5286 176.145 17.0846 175.871 17.6133C175.598 18.1237 175.306 18.6341 174.996 19.1445C174.704 19.6549 174.422 20.1745 174.148 20.7031C173.875 21.2135 173.656 21.7513 173.492 22.3164C173.255 22.4805 173.091 22.6901 173 22.9453C172.927 23.2005 172.891 23.4557 172.891 23.7109C173.055 23.8021 173.237 23.8568 173.438 23.875C173.656 23.875 173.866 23.875 174.066 23.875C174.267 23.875 174.458 23.8932 174.641 23.9297C174.823 23.9661 174.987 24.0573 175.133 24.2031C175.37 24.1302 175.625 24.0846 175.898 24.0664C176.19 24.0299 176.427 23.9479 176.609 23.8203C176.974 23.9479 177.366 24.0117 177.785 24.0117C178.004 24.0117 178.214 23.9935 178.414 23.957C178.633 23.9206 178.842 23.875 179.043 23.8203C179.207 23.8568 179.335 23.9206 179.426 24.0117C179.517 24.0846 179.654 24.112 179.836 24.0938C179.927 24.0208 179.982 23.9479 180 23.875C180.018 23.7839 180.064 23.7018 180.137 23.6289ZM222.902 25.2422C222.866 25.5156 222.766 25.7253 222.602 25.8711C222.456 26.0169 222.283 26.1536 222.082 26.2812C221.991 26.263 221.9 26.2539 221.809 26.2539C221.736 26.2357 221.654 26.2266 221.562 26.2266C220.997 26.2083 220.46 26.2812 219.949 26.4453C219.457 26.6094 218.947 26.7279 218.418 26.8008C218.236 26.8372 218.062 26.8555 217.898 26.8555C217.753 26.8372 217.598 26.8464 217.434 26.8828C216.85 26.974 216.23 27.0469 215.574 27.1016C214.918 27.1562 214.262 27.2292 213.605 27.3203C212.949 27.3932 212.302 27.4935 211.664 27.6211C211.044 27.7305 210.461 27.8945 209.914 28.1133C209.859 28.0768 209.805 28.0404 209.75 28.0039C209.695 27.9492 209.632 27.9219 209.559 27.9219C209.376 27.9219 209.203 27.9492 209.039 28.0039C208.875 28.0586 208.711 28.0768 208.547 28.0586C208.365 28.168 208.164 28.25 207.945 28.3047C207.745 28.3411 207.535 28.3776 207.316 28.4141C207.116 28.4323 206.915 28.4688 206.715 28.5234C206.514 28.5781 206.323 28.6784 206.141 28.8242C205.995 28.7513 205.812 28.7148 205.594 28.7148C205.393 28.6966 205.257 28.6237 205.184 28.4961C204.764 28.6966 204.318 28.8242 203.844 28.8789C203.388 28.9336 202.923 28.9518 202.449 28.9336C202.139 28.9154 201.784 28.8698 201.383 28.7969C200.982 28.724 200.581 28.6237 200.18 28.4961C199.779 28.3503 199.405 28.1862 199.059 28.0039C198.712 27.8034 198.448 27.5664 198.266 27.293C198.138 27.1107 198.047 26.9102 197.992 26.6914C197.938 26.4727 197.81 26.3086 197.609 26.1992C197.664 25.7799 197.728 25.3698 197.801 24.9688C197.874 24.5677 197.947 24.1576 198.02 23.7383C198.384 23.4284 198.73 23.1003 199.059 22.7539C199.387 22.4076 199.697 22.043 199.988 21.6602C200.335 21.4961 200.654 21.2956 200.945 21.0586C201.255 20.8216 201.556 20.5846 201.848 20.3477C202.158 20.0924 202.458 19.8464 202.75 19.6094C203.06 19.3724 203.388 19.1628 203.734 18.9805C203.789 18.8529 203.862 18.7526 203.953 18.6797C204.062 18.5885 204.172 18.5065 204.281 18.4336C204.391 18.3424 204.491 18.2513 204.582 18.1602C204.673 18.0508 204.737 17.9232 204.773 17.7773C205.411 17.3945 205.967 16.9115 206.441 16.3281C206.915 15.7448 207.225 15.0885 207.371 14.3594C207.061 14.1042 206.706 13.9401 206.305 13.8672C205.922 13.776 205.521 13.7122 205.102 13.6758C204.737 13.6576 204.354 13.6576 203.953 13.6758C203.57 13.694 203.178 13.6849 202.777 13.6484C202.376 13.776 201.957 13.8581 201.52 13.8945C201.1 13.931 200.681 13.9674 200.262 14.0039C199.842 14.0221 199.423 14.0768 199.004 14.168C198.603 14.2409 198.211 14.3867 197.828 14.6055C197.755 14.6055 197.682 14.5964 197.609 14.5781C197.555 14.5599 197.491 14.5508 197.418 14.5508C196.835 14.5326 196.288 14.651 195.777 14.9063C195.267 15.1432 194.766 15.3802 194.273 15.6172C194.237 15.6901 194.219 15.7448 194.219 15.7813C194.219 15.8906 194.237 16 194.273 16.1094C194.328 16.2005 194.355 16.3008 194.355 16.4102C194.337 16.4284 194.328 16.4466 194.328 16.4648C194.328 16.4831 194.319 16.5013 194.301 16.5195C194.283 16.6107 194.255 16.6927 194.219 16.7656C194.201 16.8385 194.173 16.9206 194.137 17.0117C193.936 17.5951 193.827 18.1693 193.809 18.7344C193.79 19.2083 193.79 19.6732 193.809 20.1289C193.827 20.5846 193.827 21.0495 193.809 21.5234C193.772 22.1068 193.681 22.6536 193.535 23.1641C193.626 23.6016 193.708 24.0664 193.781 24.5586C193.854 25.0326 193.945 25.5065 194.055 25.9805C194.164 26.4544 194.292 26.9193 194.438 27.375C194.602 27.8125 194.811 28.2318 195.066 28.6328C195.048 28.6693 195.057 28.6966 195.094 28.7148C195.13 28.7331 195.167 28.7422 195.203 28.7422H195.422C195.513 28.7422 195.549 28.7786 195.531 28.8516C195.568 28.9062 195.595 28.9609 195.613 29.0156C195.632 29.0521 195.668 29.0885 195.723 29.125C195.759 29.1797 195.759 29.2526 195.723 29.3438C195.704 29.7083 195.613 30.0456 195.449 30.3555C195.285 30.6654 195.185 31.0026 195.148 31.3672C194.93 31.4219 194.729 31.4492 194.547 31.4492C194.237 31.431 193.964 31.3398 193.727 31.1758C193.49 31.0299 193.271 30.8477 193.07 30.6289C192.87 30.4102 192.678 30.1914 192.496 29.9727C192.314 29.7357 192.113 29.5352 191.895 29.3711C191.767 28.8607 191.639 28.2956 191.512 27.6758C191.402 27.056 191.211 26.5273 190.938 26.0898C191.01 25.9258 191.047 25.7253 191.047 25.4883C191.065 25.1237 191.029 24.7682 190.938 24.4219C190.865 24.0573 190.846 23.6927 190.883 23.3281C190.883 23.1276 190.901 22.9271 190.938 22.7266C190.992 22.526 191.029 22.3255 191.047 22.125C191.065 21.8151 191.029 21.5143 190.938 21.2227C190.865 20.931 190.837 20.6302 190.855 20.3203C190.874 20.1745 190.901 20.0378 190.938 19.9102C190.992 19.7643 191.065 19.6367 191.156 19.5273C191.065 19.3086 191.038 19.099 191.074 18.8984C191.092 18.5885 191.129 18.2969 191.184 18.0234C191.238 17.75 191.275 17.4766 191.293 17.2031C191.293 17.0573 191.284 16.9206 191.266 16.793C191.247 16.6471 191.22 16.5104 191.184 16.3828L190.938 16.3008C190.828 16.3008 190.719 16.3281 190.609 16.3828C190.518 16.4375 190.436 16.5013 190.363 16.5742C190.29 16.6471 190.227 16.7109 190.172 16.7656C190.117 16.8021 190.062 16.8203 190.008 16.8203C189.971 16.8203 189.926 16.8203 189.871 16.8203C189.835 16.8021 189.798 16.793 189.762 16.793C189.725 16.793 189.652 16.8294 189.543 16.9023C189.452 16.9753 189.333 17.0573 189.188 17.1484C189.06 17.2214 188.932 17.3034 188.805 17.3945C188.677 17.4674 188.577 17.513 188.504 17.5312C188.303 17.4948 188.139 17.431 188.012 17.3398C187.902 17.2305 187.793 17.1302 187.684 17.0391C187.592 16.9297 187.492 16.8385 187.383 16.7656C187.273 16.6745 187.137 16.638 186.973 16.6563C186.918 16.5469 186.891 16.4284 186.891 16.3008C186.872 16.1732 186.872 16.0456 186.891 15.918V15.4805C187.018 15.2435 187.191 15.0521 187.41 14.9063C187.611 14.7422 187.829 14.6055 188.066 14.4961L188.777 14.168C189.014 14.0586 189.233 13.9219 189.434 13.7578H189.68C190.008 13.776 190.29 13.7122 190.527 13.5664C190.783 13.4206 191.02 13.2565 191.238 13.0742C191.457 12.8737 191.676 12.6732 191.895 12.4727C192.132 12.2721 192.387 12.1172 192.66 12.0078C192.861 12.099 193.07 12.181 193.289 12.2539C193.508 12.3086 193.736 12.3451 193.973 12.3633C194.21 12.3633 194.456 12.3268 194.711 12.2539C194.966 12.181 195.167 12.0443 195.312 11.8438C195.404 11.8802 195.477 11.9076 195.531 11.9258C195.604 11.9258 195.686 11.9258 195.777 11.9258C196.051 11.944 196.324 11.9076 196.598 11.8164C196.871 11.707 197.135 11.5794 197.391 11.4336C197.755 11.4518 198.111 11.4336 198.457 11.3789C198.822 11.306 199.177 11.2331 199.523 11.1602C199.888 11.0872 200.243 11.0234 200.59 10.9688C200.954 10.8958 201.319 10.8685 201.684 10.8867C202.285 10.9049 202.878 10.8503 203.461 10.7227C204.044 10.5951 204.637 10.5495 205.238 10.5859C205.658 10.6042 206.068 10.6406 206.469 10.6953C206.888 10.7318 207.307 10.7409 207.727 10.7227C207.964 10.832 208.173 10.9323 208.355 11.0234C208.556 11.0964 208.802 11.1146 209.094 11.0781C209.677 11.5703 210.206 12.1445 210.68 12.8008V13.2656C210.661 13.6849 210.589 14.0951 210.461 14.4961C210.333 14.8971 210.178 15.2982 209.996 15.6992C209.832 16.082 209.65 16.4648 209.449 16.8477C209.249 17.2122 209.057 17.5768 208.875 17.9414C207.69 19.0169 206.505 20.0833 205.32 21.1406C204.135 22.1979 202.914 23.2188 201.656 24.2031C201.62 24.3854 201.565 24.5495 201.492 24.6953C201.438 24.8411 201.401 24.9961 201.383 25.1602C201.383 25.2513 201.392 25.3242 201.41 25.3789C201.538 25.4154 201.647 25.4883 201.738 25.5977C201.848 25.6888 201.884 25.8164 201.848 25.9805H202.094C202.185 25.9805 202.23 26.0169 202.23 26.0898L202.668 26.1172C203.361 26.1536 204.053 26.1354 204.746 26.0625C205.439 25.9896 206.132 25.9076 206.824 25.8164C207.535 25.7253 208.237 25.6432 208.93 25.5703C209.622 25.4792 210.315 25.4245 211.008 25.4062C211.172 25.3516 211.345 25.306 211.527 25.2695C211.71 25.2331 211.874 25.1602 212.02 25.0508H212.102C212.229 25.0508 212.32 25.0872 212.375 25.1602C212.448 25.2331 212.548 25.2786 212.676 25.2969C212.767 25.2969 212.858 25.2786 212.949 25.2422C213.059 25.2057 213.168 25.1784 213.277 25.1602C213.533 25.0872 213.797 25.0417 214.07 25.0234C214.362 25.0052 214.645 24.9779 214.918 24.9414C215.975 24.8503 217.023 24.7956 218.062 24.7773C219.102 24.7409 220.141 24.6042 221.18 24.3672C221.271 24.4948 221.398 24.5859 221.562 24.6406C221.727 24.6771 221.9 24.7227 222.082 24.7773C222.264 24.8138 222.428 24.8594 222.574 24.9141C222.738 24.9688 222.848 25.0781 222.902 25.2422ZM233.512 16.5195C233.512 16.7018 233.448 16.8203 233.32 16.875C233.193 16.9297 233.129 17.0391 233.129 17.2031C233.129 17.2578 233.147 17.3034 233.184 17.3398C233.22 17.3763 233.238 17.431 233.238 17.5039V17.6133C233.02 18.6706 232.701 19.5911 232.281 20.375C231.88 21.1589 231.406 21.8789 230.859 22.5352C230.312 23.1914 229.693 23.8112 229 24.3945C228.326 24.9779 227.596 25.5885 226.812 26.2266C226.594 26.4089 226.366 26.5911 226.129 26.7734C225.91 26.9557 225.701 27.1471 225.5 27.3477L224.898 27.9219C224.88 27.9401 224.78 27.9857 224.598 28.0586C224.415 28.1133 224.306 28.1497 224.27 28.168C224.014 28.2773 223.741 28.4049 223.449 28.5508C223.176 28.6966 222.939 28.8789 222.738 29.0977C222.374 29.0977 222.064 29.1523 221.809 29.2617C221.553 29.3711 221.271 29.5169 220.961 29.6992C220.87 29.6992 220.788 29.681 220.715 29.6445C220.66 29.6081 220.596 29.5716 220.523 29.5352C220.451 29.4987 220.368 29.4805 220.277 29.4805C220.204 29.4622 220.104 29.4714 219.977 29.5078C219.758 29.1432 219.521 28.8333 219.266 28.5781C219.01 28.3229 218.664 28.168 218.227 28.1133C218.172 27.8034 218.044 27.5664 217.844 27.4023C217.643 27.2201 217.443 27.0286 217.242 26.8281C217.206 26.7188 217.178 26.5911 217.16 26.4453C217.142 26.2995 217.105 26.1628 217.051 26.0352C216.996 25.9076 216.923 25.7982 216.832 25.707C216.741 25.6159 216.613 25.5703 216.449 25.5703C216.431 25.4609 216.477 25.4062 216.586 25.4062C216.695 25.4062 216.75 25.3607 216.75 25.2695C216.75 25.1602 216.732 25.0508 216.695 24.9414C216.659 24.832 216.641 24.7135 216.641 24.5859C216.641 24.4948 216.65 24.4128 216.668 24.3398C216.686 24.2669 216.714 24.1849 216.75 24.0938C216.695 23.6016 216.668 23.1003 216.668 22.5898C216.668 21.6055 216.732 20.6393 216.859 19.6914C217.005 18.7253 217.078 17.75 217.078 16.7656C217.078 16.3281 217.051 15.8906 216.996 15.4531C216.96 15.0156 216.878 14.5872 216.75 14.168C216.331 14.2591 215.911 14.3685 215.492 14.4961C215.073 14.6055 214.681 14.7604 214.316 14.9609C214.116 14.8333 213.906 14.7604 213.688 14.7422C213.451 14.7057 213.223 14.651 213.004 14.5781C212.876 14.3229 212.812 14.0586 212.812 13.7852C212.812 13.5299 212.858 13.2839 212.949 13.0469L213.223 12.3359C213.66 12.2448 214.098 12.1081 214.535 11.9258C214.954 11.7435 215.383 11.5794 215.82 11.4336C215.966 11.3971 216.148 11.3516 216.367 11.2969C216.604 11.2422 216.768 11.1966 216.859 11.1602C216.987 11.1055 217.069 11.0052 217.105 10.8594C217.16 10.6953 217.233 10.5586 217.324 10.4492H217.789C217.898 10.4492 218.017 10.4583 218.145 10.4766C218.272 10.4766 218.391 10.5039 218.5 10.5586C219.156 10.3945 219.812 10.2943 220.469 10.2578C221.125 10.2031 221.799 10.1302 222.492 10.0391C222.565 10.0391 222.674 10.0299 222.82 10.0117L223.285 9.92969C223.449 9.89323 223.595 9.86589 223.723 9.84766C223.868 9.8112 223.969 9.79297 224.023 9.79297C224.078 9.79297 224.105 9.82031 224.105 9.875H224.57C225.354 9.875 226.12 9.97526 226.867 10.1758L229.109 10.7773C229.419 11.0326 229.729 11.2786 230.039 11.5156C230.349 11.7526 230.695 11.9622 231.078 12.1445C231.169 12.4362 231.306 12.6732 231.488 12.8555C231.689 13.0195 231.908 13.2018 232.145 13.4023C232.236 13.6393 232.354 13.8945 232.5 14.168C232.664 14.4232 232.819 14.6875 232.965 14.9609C233.111 15.2344 233.238 15.5078 233.348 15.7813C233.457 16.0365 233.512 16.2826 233.512 16.5195ZM230.969 16.9297C230.768 16.5104 230.577 16.0729 230.395 15.6172C230.212 15.1615 229.984 14.7513 229.711 14.3867C229.383 14.2956 229.046 14.1862 228.699 14.0586C228.371 13.9128 228.143 13.6667 228.016 13.3203C227.979 13.3385 227.915 13.3477 227.824 13.3477C227.66 13.3477 227.514 13.2839 227.387 13.1563C227.259 13.0286 227.113 12.9466 226.949 12.9102C226.803 12.8919 226.603 12.8646 226.348 12.8281C226.111 12.7917 225.855 12.7643 225.582 12.7461C225.309 12.7279 225.035 12.7096 224.762 12.6914C224.507 12.6732 224.306 12.6641 224.16 12.6641C224.014 12.6641 223.859 12.6732 223.695 12.6914C223.549 12.6914 223.395 12.7005 223.23 12.7188C223.085 12.7188 222.993 12.7461 222.957 12.8008C222.921 12.8372 222.848 12.8737 222.738 12.9102C222.647 12.8737 222.547 12.8555 222.438 12.8555H222.109C221.727 12.8555 221.344 12.9193 220.961 13.0469C220.596 13.1563 220.232 13.3112 219.867 13.5117V13.6211C219.867 13.7669 219.931 13.849 220.059 13.8672C220.186 13.8854 220.259 13.9583 220.277 14.0859C220.186 14.0859 220.113 14.0951 220.059 14.1133C220.004 14.1133 219.977 14.1771 219.977 14.3047C219.977 14.487 219.995 14.6875 220.031 14.9063C220.086 15.125 220.113 15.3438 220.113 15.5625C220.113 15.7266 220.095 15.918 220.059 16.1367C220.022 16.3555 219.931 16.5286 219.785 16.6563C219.967 16.8203 220.059 17.0391 220.059 17.3125C220.059 17.4948 220.022 17.6862 219.949 17.8867C219.876 18.0872 219.785 18.2604 219.676 18.4062C219.639 19.1719 219.566 19.9466 219.457 20.7305C219.348 21.5143 219.293 22.2891 219.293 23.0547C219.293 23.4375 219.311 23.8112 219.348 24.1758C219.402 24.5404 219.484 24.9049 219.594 25.2695C219.794 25.4701 220.004 25.625 220.223 25.7344C220.46 25.8438 220.706 25.9531 220.961 26.0625V26.1445C220.961 26.1992 220.924 26.2539 220.852 26.3086C220.779 26.3633 220.742 26.4362 220.742 26.5273C220.742 26.6003 220.779 26.6367 220.852 26.6367C221.617 26.418 222.337 26.1536 223.012 25.8438C223.686 25.5339 224.315 25.1146 224.898 24.5859C224.953 24.5312 225.008 24.5039 225.062 24.5039C225.099 24.5039 225.145 24.513 225.199 24.5312C225.272 24.5495 225.336 24.5677 225.391 24.5859L225.363 24.4766C225.363 24.3672 225.391 24.2669 225.445 24.1758C225.518 24.0846 225.6 24.0026 225.691 23.9297L225.965 23.6836C226.056 23.5924 226.129 23.5013 226.184 23.4102C226.329 23.3737 226.43 23.3008 226.484 23.1914C226.557 23.082 226.676 23.0273 226.84 23.0273C226.876 22.8268 226.977 22.681 227.141 22.5898C227.305 22.4805 227.405 22.3255 227.441 22.125C227.806 21.9245 228.125 21.6784 228.398 21.3867C228.69 21.0951 228.954 20.7852 229.191 20.457C229.447 20.1289 229.684 19.7917 229.902 19.4453C230.121 19.0807 230.349 18.7344 230.586 18.4062V18.2969C230.586 18.0052 230.632 17.7682 230.723 17.5859C230.832 17.4036 230.914 17.1849 230.969 16.9297Z" fill="#0B0B0B"/>
</svg>
