<svg width="40" height="35" viewBox="0 0 40 35" fill="none" xmlns="http://www.w3.org/2000/svg">
<g clip-path="url(#clip0_27_228)">
<path d="M32.5773 11.3342C32.1601 11.1917 31.7399 11.059 31.3168 10.936C31.3869 10.6505 31.4517 10.3633 31.511 10.0745C32.4655 5.43231 31.8414 1.69245 29.7112 0.461334C27.6716 -0.720018 24.3266 0.511101 20.9522 3.45469C20.6204 3.74513 20.2955 4.04428 19.9773 4.35213C19.7652 4.14762 19.5476 3.94746 19.3246 3.75166C15.7879 0.604108 12.243 -0.72165 10.1153 0.513549C8.07564 1.69735 7.46947 5.21285 8.32856 9.61273C8.41449 10.0479 8.51103 10.4811 8.61818 10.9124C8.13061 11.0506 7.64715 11.203 7.16842 11.3693C3.02716 12.8174 0.378906 15.0879 0.378906 17.4425C0.378906 19.8753 3.22133 22.3147 7.53963 23.7939C7.8899 23.913 8.24343 24.0237 8.60023 24.1259C8.48438 24.5877 8.38186 25.0546 8.29266 25.5267C7.47681 29.8507 8.11317 33.283 10.1487 34.4595C12.2512 35.6743 15.7781 34.426 19.2161 31.4155C19.488 31.1773 19.76 30.9257 20.0319 30.6609C20.3757 30.9932 20.7292 31.3157 21.0925 31.6285C24.4212 34.4986 27.7083 35.658 29.7406 34.4782C31.8414 33.2594 32.5242 29.5717 31.6374 25.0853C31.5694 24.7427 31.4911 24.393 31.4024 24.0362C31.6505 23.9627 31.8933 23.8869 32.131 23.8085C36.6182 22.318 39.5414 19.908 39.5414 17.4449C39.5397 15.0789 36.8066 12.7937 32.5773 11.3342ZM22.0528 4.71926C24.9434 2.19746 27.6455 1.20213 28.8774 1.91355C30.1885 2.67147 30.6984 5.72765 29.8744 9.73593C29.82 9.997 29.7612 10.2573 29.6981 10.5167C27.9731 10.1243 26.2239 9.84741 24.462 9.68779C23.4532 8.23466 22.3474 6.85136 21.1521 5.54735C21.4447 5.26343 21.7444 4.9874 22.0512 4.71926H22.0528ZM11.942 19.4543C12.296 20.1397 12.6662 20.8165 13.0523 21.485C13.4456 22.167 13.8554 22.839 14.2818 23.501C13.0695 23.3692 11.8648 23.175 10.6725 22.9193C11.0184 21.7999 11.4443 20.6373 11.942 19.4543ZM11.942 15.5113C11.4524 14.3536 11.038 13.2147 10.6978 12.1149C11.8155 11.8645 13.0066 11.6597 14.2484 11.5047C13.8323 12.1541 13.432 12.813 13.0474 13.4815C12.6629 14.15 12.2936 14.8266 11.9395 15.5113H11.942ZM12.8312 17.4832C13.3469 16.408 13.9022 15.3533 14.4972 14.3194C15.0917 13.286 15.7245 12.2762 16.3957 11.2901C17.5607 11.202 18.7551 11.1555 19.9618 11.1555C21.1684 11.1555 22.3702 11.202 23.5344 11.2909C24.1985 12.2749 24.8275 13.2811 25.4214 14.3096C26.0154 15.3381 26.5781 16.3878 27.1094 17.4588C26.5851 18.5379 26.0238 19.5968 25.4255 20.6357C24.8321 21.6691 24.2066 22.6818 23.5491 23.6739C22.3865 23.7555 21.1831 23.8004 19.9593 23.8004C18.7355 23.8004 17.555 23.762 16.4136 23.6878C15.7376 22.6984 15.0996 21.6843 14.4997 20.6455C13.8997 19.6066 13.3428 18.5526 12.8288 17.4832H12.8312ZM26.8737 21.4736C27.268 20.7893 27.6465 20.0961 28.0093 19.394C28.5066 20.5215 28.9456 21.674 29.3245 22.8466C28.1181 23.1183 26.8984 23.3266 25.6703 23.4708C26.0847 22.8132 26.4859 22.1475 26.8737 21.4736ZM27.993 15.5121C27.6319 14.8241 27.2563 14.1442 26.8663 13.4725C26.4856 12.8101 26.0888 12.1557 25.676 11.5096C26.9251 11.6679 28.1235 11.8784 29.247 12.1353C28.8858 13.2812 28.4673 14.4082 27.993 15.5121ZM19.9781 6.74583C20.7928 7.63601 21.562 8.56672 22.2829 9.53441C20.7409 9.46099 19.1979 9.46099 17.6537 9.53441C18.4149 8.52765 19.1941 7.5935 19.9781 6.74583ZM10.9572 1.96332C12.2675 1.20294 15.1646 2.28966 18.2183 5.00399C18.4133 5.17777 18.6099 5.3597 18.8057 5.54816C17.6043 6.85199 16.4906 8.23409 15.4721 9.68534C13.7142 9.84374 11.9684 10.1163 10.2458 10.5012C10.1463 10.1009 10.0565 9.69785 9.97657 9.2921C9.23823 5.52043 9.72692 2.67719 10.9572 1.96332ZM9.04732 22.5105C8.72098 22.4175 8.39872 22.3166 8.08054 22.2078C6.17145 21.5552 4.59441 20.7034 3.51177 19.7758C2.54254 18.9444 2.0514 18.1147 2.0514 17.4425C2.0514 16.0139 4.17751 14.1913 7.72319 12.9553C8.16865 12.8003 8.61791 12.6586 9.07098 12.5302C9.59757 14.2225 10.2353 15.8782 10.9801 17.4865C10.2264 19.117 9.5808 20.7953 9.04732 22.5105ZM18.1139 30.1526C16.5939 31.4841 15.0716 32.428 13.7295 32.9036C12.5237 33.3303 11.5634 33.3426 10.9833 33.0073C9.74814 32.2934 9.23415 29.5366 9.93497 25.8392C10.0182 25.4041 10.1134 24.969 10.2205 24.5338C11.9603 24.9086 13.7237 25.1646 15.4983 25.2999C16.5267 26.7587 17.6495 28.1487 18.8596 29.4608C18.6164 29.6998 18.3676 29.9299 18.1139 30.1526ZM20.0246 28.2582C19.2316 27.4007 18.4402 26.4519 17.6684 25.4321C18.4185 25.4615 19.1821 25.4761 19.9593 25.4761C20.7572 25.4761 21.547 25.459 22.3253 25.4239C21.607 26.4071 20.8391 27.3531 20.0246 28.2582ZM30.1836 30.5907C29.9502 31.8504 29.4811 32.6907 28.901 33.0268C27.6667 33.7432 25.0274 32.8123 22.1817 30.3574C21.8554 30.0767 21.529 29.7757 21.197 29.4599C22.3835 28.1427 23.48 26.7472 24.4791 25.2828C26.2635 25.1316 28.0354 24.8576 29.7822 24.4629C29.8621 24.7859 29.9328 25.1025 29.9943 25.4125C30.3867 27.395 30.443 29.1883 30.1836 30.5907ZM31.6031 22.2168C31.3894 22.2878 31.1691 22.3563 30.9456 22.4232C30.3979 20.7229 29.7352 19.0618 28.9622 17.4514C29.7062 15.8625 30.3429 14.2255 30.8681 12.5514C31.2686 12.6681 31.6578 12.7905 32.0323 12.9202C35.6563 14.1701 37.8672 16.0204 37.8672 17.4425C37.8672 18.9599 35.4793 20.9294 31.6031 22.2168Z" fill="#0B0B0B"/>
<path d="M19.9593 20.9475C20.6536 20.9497 21.333 20.7459 21.9114 20.3618C22.4899 19.9777 22.9413 19.4306 23.2086 18.7897C23.4758 18.1489 23.5469 17.4432 23.4129 16.7619C23.2788 16.0806 22.9456 15.4545 22.4554 14.9627C21.9652 14.471 21.3402 14.1357 20.6593 13.9994C19.9785 13.8631 19.2726 13.9319 18.6309 14.1971C17.9892 14.4623 17.4406 14.9119 17.0546 15.4891C16.6686 16.0662 16.4626 16.745 16.4626 17.4393C16.4616 17.8993 16.5513 18.355 16.7265 18.7803C16.9018 19.2056 17.1591 19.5922 17.4839 19.9181C17.8086 20.2439 18.1944 20.5025 18.6192 20.6791C19.0439 20.8557 19.4993 20.9469 19.9593 20.9475Z" fill="#0B0B0B"/>
</g>
<defs>
<clipPath id="clip0_27_228">
<rect width="39.2424" height="35" fill="white" transform="translate(0.378784)"/>
</clipPath>
</defs>
</svg>
