<svg width="24" height="35" viewBox="0 0 24 35" fill="none" xmlns="http://www.w3.org/2000/svg">
<g clip-path="url(#clip0_27_210)">
<path d="M17.4637 11.6575C19.0076 11.6575 20.4882 11.0442 21.5799 9.95256C22.6716 8.86087 23.2849 7.38022 23.2849 5.83634C23.2849 4.29246 22.6716 2.81182 21.5799 1.72013C20.4882 0.628441 19.0076 0.0151367 17.4637 0.0151367H5.8213C4.27742 0.0151367 2.79678 0.628441 1.70509 1.72013C0.613398 2.81182 9.41442e-05 4.29246 9.41442e-05 5.83634C9.41442e-05 7.38022 0.613398 8.86087 1.70509 9.95256C2.79678 11.0442 4.27742 11.6575 5.8213 11.6575C4.27742 11.6575 2.79678 12.2709 1.70509 13.3625C0.613398 14.4542 9.41442e-05 15.9349 9.41442e-05 17.4788C9.41442e-05 19.0226 0.613398 20.5033 1.70509 21.595C2.79678 22.6867 4.27742 23.3 5.8213 23.3C4.66998 23.3 3.54451 23.6414 2.58721 24.281C1.62992 24.9207 0.883801 25.8298 0.443207 26.8935C0.00261379 27.9572 -0.112666 29.1276 0.111947 30.2568C0.33656 31.386 0.890976 32.4233 1.70509 33.2374C2.5192 34.0515 3.55644 34.6059 4.68564 34.8305C5.81485 35.0551 6.9853 34.9399 8.04898 34.4993C9.11267 34.0587 10.0218 33.3125 10.6615 32.3553C11.3011 31.398 11.6425 30.2725 11.6425 29.1212V11.6575H17.4637Z" fill="#0B0B0B"/>
<path d="M17.4637 23.2996C20.6787 23.2996 23.2849 20.6934 23.2849 17.4784C23.2849 14.2635 20.6787 11.6572 17.4637 11.6572C14.2488 11.6572 11.6425 14.2635 11.6425 17.4784C11.6425 20.6934 14.2488 23.2996 17.4637 23.2996Z" fill="#0B0B0B"/>
</g>
<defs>
<clipPath id="clip0_27_210">
<rect width="23.3576" height="35" fill="white"/>
</clipPath>
</defs>
</svg>
