<svg width="36" height="35" viewBox="0 0 36 35" fill="none" xmlns="http://www.w3.org/2000/svg">
<path d="M29.6306 8.89147L19.0055 2.51901C18.6239 2.30143 18.1922 2.18701 17.7528 2.18701C17.3135 2.18701 16.8818 2.30143 16.5002 2.51901L5.87438 8.89079C5.49146 9.12544 5.17553 9.45489 4.95711 9.8473C4.73869 10.2397 4.62517 10.6818 4.62751 11.1309V23.8574C4.62521 24.3068 4.73873 24.7491 4.95713 25.1419C5.17553 25.5346 5.49143 25.8644 5.87438 26.0996L8.66071 27.7634L8.67643 27.7723C10.0833 28.4922 10.6219 28.4922 11.2461 28.4922C13.4431 28.4922 14.8083 27.0703 14.8083 24.7809V12.4414C14.8095 12.2873 14.7497 12.139 14.6418 12.0291C14.5338 11.9191 14.3867 11.8565 14.2327 11.8548H12.7028C12.5488 11.8565 12.4016 11.9191 12.2937 12.0291C12.1858 12.139 12.1259 12.2873 12.1272 12.4414V24.7809C12.1328 24.9576 12.0926 25.1327 12.0105 25.2892C11.9285 25.4458 11.8074 25.5784 11.659 25.6744C11.2556 25.9205 10.6698 25.8685 10.0088 25.5274L7.33864 23.9203C7.32842 23.9133 7.32008 23.9039 7.31435 23.8929C7.30863 23.882 7.3057 23.8698 7.30583 23.8574V11.3107C7.30627 11.2963 7.31016 11.2822 7.31718 11.2696C7.32419 11.257 7.33413 11.2462 7.34616 11.2382L17.7258 4.88083C17.7336 4.87697 17.7421 4.87497 17.7508 4.87497C17.7595 4.87497 17.768 4.87697 17.7757 4.88083L28.1616 11.2382C28.1734 11.2469 28.183 11.2582 28.1895 11.2713C28.1961 11.2844 28.1994 11.2988 28.1992 11.3134V23.8574C28.1994 23.8703 28.1968 23.8832 28.1915 23.895C28.1862 23.9068 28.1783 23.9173 28.1684 23.9257L17.7737 30.1225C17.756 30.1287 17.7367 30.1287 17.719 30.1225L15.0646 28.5462C14.9858 28.4946 14.8948 28.4649 14.8008 28.46C14.7068 28.4551 14.6131 28.4751 14.5294 28.5181L14.5061 28.5318C13.7733 28.9659 13.5764 29.0787 12.8969 29.3261C12.7862 29.3665 12.5258 29.4629 12.5032 29.7206C12.4806 29.9783 12.7281 30.1615 12.9482 30.2893L16.4961 32.4679C16.8741 32.6944 17.3064 32.8141 17.747 32.8145H17.7867C18.2163 32.8078 18.6366 32.6883 19.0055 32.4679L29.6306 26.1016C30.0134 25.8658 30.3291 25.5355 30.5474 25.1425C30.7658 24.7495 30.8794 24.307 30.8775 23.8574V11.1309C30.8797 10.682 30.7661 10.24 30.5477 9.84774C30.3292 9.45547 30.0134 9.12612 29.6306 8.89147V8.89147Z" fill="#0B0B0B"/>
<path d="M21.299 21.7418C18.7499 21.7418 18.2064 21.0295 18.0451 19.8797C18.0269 19.7428 17.9602 19.617 17.8571 19.5251C17.7539 19.4333 17.6212 19.3815 17.4832 19.3793H16.1296C15.9771 19.3825 15.832 19.4461 15.7262 19.556C15.6204 19.6659 15.5624 19.8133 15.565 19.9658C15.565 20.9625 15.915 24.2157 21.3017 24.2157C22.9683 24.2157 24.3546 23.8261 25.3096 23.0885C26.2646 22.3509 26.7759 21.2776 26.7759 19.9986C26.7759 17.4317 25.1011 16.729 21.8028 16.2696C18.4498 15.8034 18.4498 15.5662 18.4498 15.0467C18.4498 14.6728 18.4498 13.7971 20.8738 13.7971C22.5985 13.7971 23.522 14.0151 23.8173 15.1643C23.8435 15.2917 23.9124 15.4063 24.0126 15.4892C24.1128 15.5721 24.2383 15.6184 24.3683 15.6202H25.7266C25.8067 15.6194 25.8856 15.6016 25.9582 15.5679C26.0309 15.5342 26.0954 15.4853 26.1477 15.4247C26.2521 15.3028 26.3042 15.1446 26.2926 14.9845C26.1169 12.5543 24.3403 11.3218 20.8758 11.3218C17.7272 11.3218 15.848 12.7402 15.848 15.1157C15.848 17.7202 17.7956 18.4564 20.7213 18.7613C24.1393 19.1147 24.1393 19.6302 24.1393 20.0855C24.1414 20.795 23.8467 21.7418 21.299 21.7418Z" fill="#0B0B0B"/>
</svg>
