<svg width="35" height="35" viewBox="0 0 35 35" fill="none" xmlns="http://www.w3.org/2000/svg">
<path d="M9.15527e-05 0.0161133V34.9382H34.9221V0.0161133H9.15527e-05ZM18.7083 27.1431C18.7083 30.5425 16.7003 32.1997 13.7935 32.1997C11.1681 32.1997 9.64419 30.8403 8.87091 29.1994L11.5431 27.5819C12.0583 28.4963 12.4496 29.2696 13.5745 29.2696C14.5099 29.2696 15.2785 28.8479 15.2785 27.207V16.2299H18.7083V27.1431ZM26.4528 32.1218C23.4057 32.1218 21.4366 30.7467 20.4755 28.8479L23.1515 27.299C23.8531 28.448 24.769 29.2134 26.3865 29.2134C27.746 29.2134 28.5356 28.6117 28.5356 27.6739C28.5356 26.5491 27.7226 26.1507 26.222 25.4913L25.402 25.1389C23.0338 24.1318 21.4639 22.8659 21.4639 20.193C21.4639 17.732 23.3386 15.9345 26.2688 15.9345C28.3555 15.9345 29.8545 16.583 30.9342 18.4819L28.3743 20.1275C27.8114 19.1196 27.205 18.7244 26.2649 18.7244C25.3038 18.7244 24.6942 19.3339 24.6942 20.1275C24.6942 21.112 25.3038 21.5103 26.71 22.1199L27.53 22.4715C30.3199 23.6672 31.8906 24.8879 31.8906 27.6287C31.8914 30.583 29.5708 32.1218 26.4528 32.1218Z" fill="#0B0B0B"/>
</svg>
