<svg width="35" height="35" viewBox="0 0 35 35" fill="none" xmlns="http://www.w3.org/2000/svg">
<path fill-rule="evenodd" clip-rule="evenodd" d="M24.7436 15.6631C24.6425 14.3534 24.3346 13.0904 23.9064 11.8531C23.0193 9.09025 21.5958 6.64518 19.5907 4.54135C19.0838 4.00924 18.5199 3.5217 18.1664 2.85943C17.9427 2.44053 17.7297 2.01588 17.5118 1.59369L17.3737 1.24561C17.3504 1.32545 17.3357 1.35389 17.3348 1.3826C17.3171 2.07084 16.9271 2.5376 16.4415 2.97318C15.8955 3.46346 15.3871 3.99557 14.8624 4.50936L13.2489 6.63205C12.8136 7.43186 12.3788 8.23166 11.944 9.03146L11.0718 11.3877L11.0455 11.4243C10.5654 13.0015 10.3286 14.623 10.2121 16.2609C10.1683 16.8764 10.2181 17.5009 10.2528 18.1197C10.3023 19.0043 10.456 19.8738 10.6865 20.7297C11.5237 23.8392 13.2229 26.4185 15.5457 28.6099C15.9775 29.017 16.4205 29.3872 16.8711 29.7747C16.9482 29.5108 17.0097 29.247 17.0797 28.9831C17.1497 28.7203 17.2205 28.4589 17.2679 28.1953C17.2203 28.4589 17.167 28.7203 17.1142 28.9831L16.8883 29.7747L17.0901 30.4586L17.2771 31.5206L17.3663 32.6288C17.3655 32.8539 17.3564 33.0795 17.3701 33.3042C17.3734 33.3617 17.4489 33.4147 17.491 33.4699L17.8672 33.602L18.2593 33.7546L18.1921 32.7694L18.1891 31.7992L18.3244 30.3213L18.4226 29.9995L18.7034 29.5018C19.0501 29.2229 19.4223 28.9697 19.7381 28.6594C20.3096 28.0977 20.8797 27.529 21.391 26.914C22.0566 26.1169 22.6248 25.2434 23.0839 24.312C23.3907 23.6874 23.6794 23.0503 23.9184 22.3976C24.1289 21.8223 24.2594 21.2178 24.4254 20.626C24.4401 20.5834 24.4598 20.5415 24.4691 20.4981C24.812 18.9009 24.8697 17.2876 24.7436 15.6631ZM18.2908 29.1641L18.0707 28.6821L18.2908 29.1641L18.6143 29.4403L18.2908 29.1641Z" fill="#0B0B0B"/>
</svg>
