<svg width="35" height="35" viewBox="0 0 35 35" fill="none" xmlns="http://www.w3.org/2000/svg">
<path d="M33.9062 8.75339C33.9075 7.91052 33.6652 7.08525 33.2085 6.3768C32.7519 5.66835 32.1003 5.10689 31.3322 4.75993C30.564 4.41297 29.712 4.29529 28.8786 4.42103C28.0451 4.54677 27.2658 4.91058 26.6342 5.46872C26.2922 5.77035 25.9991 6.12317 25.7653 6.51462V6.51872C25.7284 6.58025 25.6935 6.64314 25.6594 6.70603L25.643 6.73952C25.6143 6.79353 25.5876 6.84821 25.5616 6.90359C25.5534 6.92068 25.5459 6.93776 25.5384 6.95485C25.5158 7.00476 25.4939 7.05534 25.4734 7.10661C25.4645 7.1278 25.4563 7.149 25.4481 7.17019C25.4297 7.21804 25.4119 7.26589 25.3948 7.31443L25.3702 7.38689C25.3552 7.43337 25.3408 7.48054 25.3271 7.52771C25.3189 7.55437 25.3114 7.58034 25.3046 7.607C25.2916 7.6528 25.2807 7.69929 25.2697 7.74372C25.2629 7.77175 25.256 7.79978 25.2499 7.8278C25.2403 7.87429 25.2314 7.92146 25.2232 7.96452C25.2178 7.99323 25.2123 8.02194 25.2075 8.05066C25.2 8.09851 25.1938 8.14704 25.1877 8.19558C25.1843 8.2236 25.1802 8.25163 25.1768 8.28034C25.1713 8.33298 25.1679 8.38562 25.1638 8.43894C25.1638 8.46355 25.1597 8.48816 25.1583 8.51276C25.1542 8.59069 25.1515 8.66862 25.1515 8.74792C25.1515 8.81628 25.1515 8.88464 25.1569 8.9489V8.99265C25.1606 9.05691 25.1654 9.12116 25.1713 9.18542L25.1754 9.21823C25.1815 9.27634 25.1884 9.33376 25.1973 9.3905C25.1973 9.40212 25.1973 9.41442 25.202 9.42605C25.2116 9.48825 25.2232 9.54978 25.2355 9.6113C25.2355 9.62634 25.2417 9.64069 25.2444 9.65573C25.2567 9.71452 25.2704 9.77331 25.2854 9.83142V9.8444C25.3012 9.90524 25.3183 9.96472 25.3367 10.0242L25.3511 10.0707C25.3695 10.1288 25.3887 10.1855 25.4092 10.2423C25.4133 10.2546 25.4181 10.2669 25.4228 10.2792C25.4413 10.3277 25.4604 10.3762 25.4803 10.4241C25.4857 10.4384 25.4912 10.4521 25.4974 10.4658C25.5206 10.5198 25.5445 10.5738 25.5698 10.6271L25.5924 10.6729C25.6163 10.7208 25.6402 10.7686 25.6655 10.8158C26.0224 11.479 26.5435 12.0394 27.179 12.4434C27.3458 12.55 27.5199 12.6448 27.6999 12.7271L27.7266 12.7394C27.8478 12.7941 27.9715 12.8433 28.0977 12.8871L28.1627 12.909L28.2652 12.9411C28.296 12.9507 28.3268 12.9589 28.3582 12.9677L28.4894 13.0019L28.6077 13.0293L28.6863 13.045L28.8114 13.0675L28.8757 13.0778C28.9372 13.0867 28.9994 13.0949 29.0616 13.1017L29.1143 13.1065C29.1642 13.1106 29.2147 13.1147 29.2653 13.1175L29.3241 13.1209C29.3925 13.1209 29.4567 13.1263 29.5237 13.1263C29.603 13.1263 29.681 13.1263 29.7589 13.1195L29.8327 13.114C29.886 13.1099 29.9387 13.1065 29.9913 13.101L30.0768 13.0901C30.1246 13.084 30.1731 13.0778 30.221 13.0703L30.3071 13.0546C30.3536 13.0464 30.4008 13.0375 30.4438 13.0279L30.5279 13.0081C30.5744 12.9971 30.6209 12.9862 30.6646 12.9732C30.6913 12.9664 30.7173 12.9589 30.7439 12.9507C30.7911 12.937 30.8383 12.9226 30.8848 12.9076L30.9572 12.883C31.0058 12.8659 31.0536 12.8481 31.1015 12.8297L31.165 12.8044C31.2163 12.7839 31.2669 12.762 31.3168 12.7394L31.3681 12.7162C31.4234 12.6902 31.4781 12.6635 31.5321 12.6348L31.5656 12.6184C31.6285 12.5842 31.6914 12.5501 31.7529 12.5125H31.757C32.1516 12.2805 32.5077 11.9885 32.8125 11.647C33.5183 10.8485 33.9074 9.81917 33.9062 8.75339Z" fill="white"/>
<path d="M25.3873 13.8448L18.1713 19.4571C17.9793 19.6064 17.7431 19.6874 17.5 19.6874C17.2569 19.6874 17.0207 19.6064 16.8287 19.4571L6.98496 11.8009C6.86931 11.7135 6.77216 11.6041 6.69917 11.4789C6.62619 11.3537 6.57881 11.2152 6.5598 11.0715C6.54079 10.9279 6.55052 10.7818 6.58843 10.6419C6.62634 10.5021 6.69168 10.3711 6.78063 10.2567C6.86959 10.1423 6.9804 10.0467 7.10663 9.97547C7.23285 9.90425 7.37197 9.85883 7.5159 9.84184C7.65983 9.82485 7.8057 9.83664 7.94503 9.87652C8.08437 9.91639 8.21439 9.98356 8.32754 10.0741L17.5 17.2081L23.9408 12.1987C23.3176 11.1905 22.9795 10.0322 22.9625 8.84706C22.9456 7.66193 23.2504 6.49438 23.8444 5.46875H6.01562C5.00068 5.46984 4.02761 5.8735 3.30993 6.59118C2.59225 7.30886 2.18859 8.28193 2.1875 9.29688V25.7031C2.18859 26.7181 2.59225 27.6911 3.30993 28.4088C4.02761 29.1265 5.00068 29.5302 6.01562 29.5312H28.9844C29.9993 29.5302 30.9724 29.1265 31.6901 28.4088C32.4077 27.6911 32.8114 26.7181 32.8125 25.7031V14.4368C31.6611 15.1037 30.334 15.4043 29.0076 15.2986C27.6812 15.1928 26.4185 14.6858 25.3873 13.8448Z" fill="white"/>
</svg>
