<svg width="50" height="50" viewBox="0 0 50 50" fill="none" xmlns="http://www.w3.org/2000/svg">
<path d="M48.4375 12.5051C48.4392 11.301 48.0931 10.1221 47.4408 9.10999C46.7884 8.09792 45.8576 7.29583 44.7603 6.80018C43.6629 6.30453 42.4457 6.13641 41.2551 6.31604C40.0645 6.49567 38.9511 7.0154 38.0488 7.81274C37.5603 8.24363 37.1416 8.74767 36.8076 9.30688V9.31274C36.7549 9.40063 36.7051 9.49047 36.6562 9.58032L36.6328 9.62817C36.5918 9.70532 36.5537 9.78344 36.5166 9.86254C36.5049 9.88696 36.4941 9.91137 36.4834 9.93579C36.4512 10.0071 36.4199 10.0793 36.3906 10.1526C36.3779 10.1829 36.3662 10.2131 36.3545 10.2434C36.3281 10.3118 36.3027 10.3801 36.2783 10.4495L36.2432 10.553C36.2217 10.6194 36.2012 10.6868 36.1816 10.7541C36.1699 10.7922 36.1592 10.8293 36.1494 10.8674C36.1309 10.9329 36.1152 10.9993 36.0996 11.0627C36.0898 11.1028 36.0801 11.1428 36.0713 11.1829C36.0576 11.2493 36.0449 11.3166 36.0332 11.3782C36.0254 11.4192 36.0176 11.4602 36.0107 11.5012C36 11.5696 35.9912 11.6389 35.9824 11.7082C35.9775 11.7483 35.9717 11.7883 35.9668 11.8293C35.959 11.9045 35.9541 11.9797 35.9482 12.0559C35.9482 12.0911 35.9424 12.1262 35.9404 12.1614C35.9346 12.2727 35.9307 12.384 35.9307 12.4973C35.9307 12.595 35.9307 12.6926 35.9385 12.7844V12.8469C35.9437 12.9387 35.9505 13.0305 35.959 13.1223L35.9648 13.1692C35.9736 13.2522 35.9834 13.3342 35.9961 13.4153C35.9961 13.4319 35.9961 13.4495 36.0029 13.4661C36.0166 13.5549 36.0332 13.6428 36.0508 13.7307C36.0508 13.7522 36.0596 13.7727 36.0635 13.7942C36.0811 13.8782 36.1006 13.9622 36.1221 14.0452V14.0637C36.1445 14.1506 36.1689 14.2356 36.1953 14.3205L36.2158 14.387C36.2422 14.47 36.2695 14.551 36.2988 14.6321C36.3047 14.6497 36.3115 14.6672 36.3184 14.6848C36.3447 14.7541 36.3721 14.8235 36.4004 14.8918C36.4082 14.9123 36.416 14.9319 36.4248 14.9514C36.458 15.0286 36.4922 15.1057 36.5283 15.1819L36.5605 15.2473C36.5947 15.3157 36.6289 15.384 36.665 15.4514C37.1748 16.3988 37.9193 17.1994 38.8271 17.7766C39.0655 17.9288 39.3141 18.0643 39.5713 18.1819L39.6094 18.1995C39.7826 18.2776 39.9593 18.3479 40.1396 18.4104L40.2324 18.4416L40.3789 18.4875C40.4229 18.5012 40.4668 18.5129 40.5117 18.5256L40.6992 18.5745L40.8682 18.6135L40.9805 18.636L41.1592 18.6682L41.251 18.6829C41.3389 18.6955 41.4277 18.7073 41.5166 18.717L41.5918 18.7239C41.6631 18.7297 41.7354 18.7356 41.8076 18.7395L41.8916 18.7444C41.9893 18.7444 42.0811 18.7522 42.1768 18.7522C42.29 18.7522 42.4014 18.7522 42.5127 18.7424L42.6182 18.7346C42.6943 18.7288 42.7695 18.7239 42.8447 18.7161L42.9668 18.7004C43.0352 18.6916 43.1045 18.6829 43.1729 18.6721L43.2959 18.6497C43.3623 18.6379 43.4297 18.6252 43.4912 18.6116L43.6113 18.5832C43.6777 18.5676 43.7441 18.552 43.8066 18.5334C43.8447 18.5237 43.8818 18.5129 43.9199 18.5012C43.9873 18.4817 44.0547 18.4612 44.1211 18.4397L44.2246 18.4045C44.2939 18.3801 44.3623 18.3547 44.4307 18.3284L44.5215 18.2922C44.5947 18.2629 44.667 18.2317 44.7383 18.1995L44.8115 18.1663C44.8906 18.1291 44.9688 18.0911 45.0459 18.05L45.0938 18.0266C45.1836 17.9778 45.2734 17.9289 45.3613 17.8752H45.3672C45.9309 17.5439 46.4396 17.1268 46.875 16.6389C47.8834 15.4981 48.4392 14.0277 48.4375 12.5051Z" fill="#E5E5E5"/>
<path d="M36.2676 19.7783L25.959 27.7959C25.6848 28.0091 25.3473 28.1248 25 28.1248C24.6527 28.1248 24.3152 28.0091 24.041 27.7959L9.97852 16.8584C9.81329 16.7336 9.67452 16.5773 9.57025 16.3984C9.46598 16.2195 9.3983 16.0217 9.37114 15.8165C9.34398 15.6112 9.35789 15.4026 9.41205 15.2028C9.4662 15.0029 9.55954 14.8159 9.68662 14.6524C9.8137 14.489 9.972 14.3524 10.1523 14.2507C10.3326 14.1489 10.5314 14.084 10.737 14.0598C10.9426 14.0355 11.151 14.0523 11.35 14.1093C11.5491 14.1663 11.7348 14.2622 11.8965 14.3916L25 24.583L34.2012 17.4268C33.3109 15.9865 32.8279 14.3317 32.8036 12.6387C32.7794 10.9456 33.2148 9.27768 34.0635 7.8125H8.59375C7.14382 7.81405 5.75373 8.39072 4.72847 9.41597C3.70322 10.4412 3.12655 11.8313 3.125 13.2812V36.7188C3.12655 38.1687 3.70322 39.5588 4.72847 40.584C5.75373 41.6093 7.14382 42.1859 8.59375 42.1875H41.4062C42.8562 42.1859 44.2463 41.6093 45.2715 40.584C46.2968 39.5588 46.8734 38.1687 46.875 36.7188V20.624C45.2302 21.5768 43.3343 22.0062 41.4394 21.8551C39.5446 21.704 37.7407 20.9797 36.2676 19.7783Z" fill="#E5E5E5"/>
</svg>
