<svg width="396" height="169" viewBox="0 0 396 169" fill="none" xmlns="http://www.w3.org/2000/svg">
<circle cx="277.5" cy="64.5" r="3.5" fill="black"/>
<circle cx="110.5" cy="64.5" r="3.5" fill="black"/>
<path d="M26.2031 143.266L38.4375 124.516C39.7656 124.594 41.0234 124.695 42.2109 124.82C43.3984 124.93 44.4375 125.047 45.3281 125.172C46.375 125.312 47.3438 125.453 48.2344 125.594V130.984L43.875 130V154.188L48.2344 153.203V159.016C46.5781 159.344 44.9453 159.586 43.3359 159.742C41.7266 159.898 40.0938 160.016 38.4375 160.094V134.359L26.2031 153.344L13.7812 134.312V160.094C12.4531 160.016 11.1953 159.922 10.0078 159.812C8.82031 159.703 7.78125 159.586 6.89062 159.461C5.84375 159.32 4.875 159.172 3.98438 159.016V153.203L8.34375 154.188V129.953L3.98438 130.938V125.547C4.875 125.406 5.84375 125.266 6.89062 125.125C7.78125 125 8.82031 124.883 10.0078 124.773C11.1953 124.648 12.4531 124.547 13.7812 124.469L26.2031 143.266ZM82.6406 150.438C82.25 150.094 81.7656 149.758 81.1875 149.43C80.6094 149.102 79.8984 148.812 79.0547 148.562C78.2109 148.297 77.2031 148.086 76.0312 147.93C74.875 147.758 73.5156 147.672 71.9531 147.672C70.5625 147.672 69.2422 147.703 67.9922 147.766C66.7578 147.812 65.6719 147.969 64.7344 148.234C63.7969 148.484 63.0547 148.891 62.5078 149.453C61.9609 150.016 61.6875 150.797 61.6875 151.797V154.797C63.0625 155.016 64.5781 155.195 66.2344 155.336C67.8906 155.477 69.7344 155.547 71.7656 155.547C73.3906 155.547 75.1172 155.492 76.9453 155.383C78.7891 155.258 80.6875 155.016 82.6406 154.656V150.438ZM72.0938 133.281C72.875 133.281 73.8203 133.32 74.9297 133.398C76.0391 133.477 77.1953 133.617 78.3984 133.82C79.6016 134.008 80.7891 134.273 81.9609 134.617C83.1484 134.945 84.2109 135.383 85.1484 135.93C86.1016 136.461 86.8672 137.102 87.4453 137.852C88.0234 138.602 88.3125 139.484 88.3125 140.5V158.641C87 158.906 85.5156 159.133 83.8594 159.32C82.4375 159.492 80.7422 159.648 78.7734 159.789C76.8047 159.93 74.6094 160 72.1875 160C69.7812 160 67.2188 159.898 64.5 159.695C61.7969 159.492 58.9688 159.141 56.0156 158.641V150.203C56.0156 149.297 56.2266 148.508 56.6484 147.836C57.0859 147.148 57.6797 146.562 58.4297 146.078C59.1797 145.594 60.0625 145.195 61.0781 144.883C62.0938 144.57 63.1875 144.32 64.3594 144.133C65.5312 143.945 66.75 143.82 68.0156 143.758C69.2812 143.68 70.5469 143.641 71.8125 143.641C73.7344 143.641 75.3672 143.766 76.7109 144.016C78.0703 144.25 79.1953 144.508 80.0859 144.789C81.1172 145.133 81.9688 145.516 82.6406 145.938V142.141C82.6406 141.5 82.4844 140.953 82.1719 140.5C81.8594 140.031 81.4375 139.641 80.9062 139.328C80.375 139 79.7656 138.742 79.0781 138.555C78.3906 138.352 77.6719 138.195 76.9219 138.086C76.1719 137.977 75.4062 137.906 74.625 137.875C73.8594 137.844 73.1406 137.828 72.4688 137.828C71.7656 137.828 71.0156 137.852 70.2188 137.898C69.4219 137.93 68.625 138 67.8281 138.109C67.0469 138.219 66.2891 138.375 65.5547 138.578C64.8359 138.766 64.1953 139.023 63.6328 139.352C63.0703 139.68 62.6172 140.078 62.2734 140.547C61.9453 141 61.7812 141.547 61.7812 142.188L55.9688 140.688C55.9688 139.641 56.2266 138.734 56.7422 137.969C57.2578 137.188 57.9375 136.523 58.7812 135.977C59.6406 135.43 60.625 134.984 61.7344 134.641C62.8438 134.281 63.9922 134.008 65.1797 133.82C66.3828 133.617 67.5781 133.477 68.7656 133.398C69.9531 133.32 71.0625 133.281 72.0938 133.281ZM101.109 149.125C101.109 150 101.227 150.758 101.461 151.398C101.695 152.023 102.016 152.562 102.422 153.016C102.828 153.453 103.289 153.812 103.805 154.094C104.336 154.375 104.891 154.594 105.469 154.75C106.047 154.891 106.633 154.992 107.227 155.055C107.82 155.102 108.391 155.125 108.938 155.125C110.922 155.125 112.727 154.867 114.352 154.352C115.977 153.836 117.422 153.203 118.688 152.453V133.281L124.734 133.75V161.172C124.734 162.281 124.5 163.312 124.031 164.266C123.562 165.219 122.883 166.039 121.992 166.727C121.102 167.43 120.008 167.977 118.711 168.367C117.414 168.758 115.938 168.953 114.281 168.953V164.875C114.906 164.875 115.484 164.812 116.016 164.688C116.547 164.562 117.008 164.367 117.398 164.102C117.805 163.852 118.117 163.531 118.336 163.141C118.57 162.766 118.688 162.328 118.688 161.828V156.906C117.953 157.359 117.203 157.773 116.438 158.148C115.688 158.523 114.898 158.852 114.07 159.133C113.242 159.398 112.375 159.609 111.469 159.766C110.562 159.922 109.609 160 108.609 160C106.188 160 104.117 159.805 102.398 159.414C100.68 159.008 99.2656 158.414 98.1562 157.633C97.0625 156.836 96.2578 155.852 95.7422 154.68C95.2266 153.508 94.9688 152.141 94.9688 150.578V133.75L101.109 133.281V149.125ZM159 150.438C158.609 150.094 158.125 149.758 157.547 149.43C156.969 149.102 156.258 148.812 155.414 148.562C154.57 148.297 153.562 148.086 152.391 147.93C151.234 147.758 149.875 147.672 148.312 147.672C146.922 147.672 145.602 147.703 144.352 147.766C143.117 147.812 142.031 147.969 141.094 148.234C140.156 148.484 139.414 148.891 138.867 149.453C138.32 150.016 138.047 150.797 138.047 151.797V154.797C139.422 155.016 140.938 155.195 142.594 155.336C144.25 155.477 146.094 155.547 148.125 155.547C149.75 155.547 151.477 155.492 153.305 155.383C155.148 155.258 157.047 155.016 159 154.656V150.438ZM148.453 133.281C149.234 133.281 150.18 133.32 151.289 133.398C152.398 133.477 153.555 133.617 154.758 133.82C155.961 134.008 157.148 134.273 158.32 134.617C159.508 134.945 160.57 135.383 161.508 135.93C162.461 136.461 163.227 137.102 163.805 137.852C164.383 138.602 164.672 139.484 164.672 140.5V158.641C163.359 158.906 161.875 159.133 160.219 159.32C158.797 159.492 157.102 159.648 155.133 159.789C153.164 159.93 150.969 160 148.547 160C146.141 160 143.578 159.898 140.859 159.695C138.156 159.492 135.328 159.141 132.375 158.641V150.203C132.375 149.297 132.586 148.508 133.008 147.836C133.445 147.148 134.039 146.562 134.789 146.078C135.539 145.594 136.422 145.195 137.438 144.883C138.453 144.57 139.547 144.32 140.719 144.133C141.891 143.945 143.109 143.82 144.375 143.758C145.641 143.68 146.906 143.641 148.172 143.641C150.094 143.641 151.727 143.766 153.07 144.016C154.43 144.25 155.555 144.508 156.445 144.789C157.477 145.133 158.328 145.516 159 145.938V142.141C159 141.5 158.844 140.953 158.531 140.5C158.219 140.031 157.797 139.641 157.266 139.328C156.734 139 156.125 138.742 155.438 138.555C154.75 138.352 154.031 138.195 153.281 138.086C152.531 137.977 151.766 137.906 150.984 137.875C150.219 137.844 149.5 137.828 148.828 137.828C148.125 137.828 147.375 137.852 146.578 137.898C145.781 137.93 144.984 138 144.188 138.109C143.406 138.219 142.648 138.375 141.914 138.578C141.195 138.766 140.555 139.023 139.992 139.352C139.43 139.68 138.977 140.078 138.633 140.547C138.305 141 138.141 141.547 138.141 142.188L132.328 140.688C132.328 139.641 132.586 138.734 133.102 137.969C133.617 137.188 134.297 136.523 135.141 135.977C136 135.43 136.984 134.984 138.094 134.641C139.203 134.281 140.352 134.008 141.539 133.82C142.742 133.617 143.938 133.477 145.125 133.398C146.312 133.32 147.422 133.281 148.453 133.281ZM172.828 140.641C172.766 140.141 172.617 139.719 172.383 139.375C172.164 139.031 171.922 138.75 171.656 138.531C171.359 138.266 171.031 138.047 170.672 137.875L173.297 133.281C173.875 133.484 174.453 133.758 175.031 134.102C175.516 134.398 176.023 134.781 176.555 135.25C177.102 135.703 177.578 136.266 177.984 136.938C178.766 136.438 179.562 135.969 180.375 135.531C181.203 135.078 182.062 134.688 182.953 134.359C183.859 134.031 184.805 133.773 185.789 133.586C186.789 133.383 187.859 133.281 189 133.281C191.406 133.281 193.469 133.484 195.188 133.891C196.922 134.281 198.336 134.875 199.43 135.672C200.539 136.453 201.352 137.43 201.867 138.602C202.383 139.773 202.641 141.141 202.641 142.703V160H196.5V144.156C196.5 143.281 196.383 142.531 196.148 141.906C195.914 141.266 195.594 140.727 195.188 140.289C194.797 139.836 194.336 139.469 193.805 139.188C193.273 138.906 192.719 138.695 192.141 138.555C191.578 138.398 191 138.297 190.406 138.25C189.812 138.188 189.25 138.156 188.719 138.156C187.719 138.156 186.766 138.227 185.859 138.367C184.953 138.508 184.094 138.703 183.281 138.953C182.469 139.188 181.703 139.469 180.984 139.797C180.266 140.125 179.594 140.469 178.969 140.828V160H172.828V140.641ZM243.375 124.188C244.938 124.188 246.531 124.266 248.156 124.422C249.797 124.562 251.391 124.82 252.938 125.195C254.484 125.555 255.938 126.062 257.297 126.719C258.656 127.359 259.844 128.18 260.859 129.18C261.891 130.164 262.703 131.352 263.297 132.742C263.891 134.117 264.188 135.734 264.188 137.594C264.188 139.484 263.93 141.148 263.414 142.586C262.914 144.023 262.203 145.273 261.281 146.336C260.375 147.398 259.289 148.289 258.023 149.008C256.773 149.711 255.398 150.281 253.898 150.719C252.398 151.141 250.805 151.445 249.117 151.633C247.43 151.805 245.703 151.891 243.938 151.891C242.828 151.891 241.727 151.859 240.633 151.797C239.539 151.734 238.438 151.656 237.328 151.562V159.953H231.516V125.547C231.859 125.438 232.406 125.305 233.156 125.148C233.922 124.992 234.82 124.844 235.852 124.703C236.898 124.562 238.062 124.445 239.344 124.352C240.625 124.242 241.969 124.188 243.375 124.188ZM245.062 129.344C244.031 129.344 243.047 129.391 242.109 129.484C241.172 129.562 240.352 129.656 239.648 129.766C238.805 129.891 238.031 130.031 237.328 130.188V146.219C237.828 146.328 238.383 146.422 238.992 146.5C239.508 146.578 240.109 146.648 240.797 146.711C241.484 146.758 242.219 146.781 243 146.781C244.016 146.781 245.086 146.758 246.211 146.711C247.352 146.648 248.477 146.516 249.586 146.312C250.711 146.109 251.773 145.812 252.773 145.422C253.789 145.016 254.68 144.484 255.445 143.828C256.227 143.156 256.844 142.328 257.297 141.344C257.766 140.359 258 139.172 258 137.781C258 136.625 257.812 135.609 257.438 134.734C257.062 133.859 256.555 133.109 255.914 132.484C255.273 131.859 254.523 131.344 253.664 130.938C252.82 130.531 251.914 130.211 250.945 129.977C249.992 129.742 249.008 129.578 247.992 129.484C246.992 129.391 246.016 129.344 245.062 129.344ZM274.359 160H269.016V124.797H274.359V160ZM309.375 150.438C308.984 150.094 308.5 149.758 307.922 149.43C307.344 149.102 306.633 148.812 305.789 148.562C304.945 148.297 303.938 148.086 302.766 147.93C301.609 147.758 300.25 147.672 298.688 147.672C297.297 147.672 295.977 147.703 294.727 147.766C293.492 147.812 292.406 147.969 291.469 148.234C290.531 148.484 289.789 148.891 289.242 149.453C288.695 150.016 288.422 150.797 288.422 151.797V154.797C289.797 155.016 291.312 155.195 292.969 155.336C294.625 155.477 296.469 155.547 298.5 155.547C300.125 155.547 301.852 155.492 303.68 155.383C305.523 155.258 307.422 155.016 309.375 154.656V150.438ZM298.828 133.281C299.609 133.281 300.555 133.32 301.664 133.398C302.773 133.477 303.93 133.617 305.133 133.82C306.336 134.008 307.523 134.273 308.695 134.617C309.883 134.945 310.945 135.383 311.883 135.93C312.836 136.461 313.602 137.102 314.18 137.852C314.758 138.602 315.047 139.484 315.047 140.5V158.641C313.734 158.906 312.25 159.133 310.594 159.32C309.172 159.492 307.477 159.648 305.508 159.789C303.539 159.93 301.344 160 298.922 160C296.516 160 293.953 159.898 291.234 159.695C288.531 159.492 285.703 159.141 282.75 158.641V150.203C282.75 149.297 282.961 148.508 283.383 147.836C283.82 147.148 284.414 146.562 285.164 146.078C285.914 145.594 286.797 145.195 287.812 144.883C288.828 144.57 289.922 144.32 291.094 144.133C292.266 143.945 293.484 143.82 294.75 143.758C296.016 143.68 297.281 143.641 298.547 143.641C300.469 143.641 302.102 143.766 303.445 144.016C304.805 144.25 305.93 144.508 306.82 144.789C307.852 145.133 308.703 145.516 309.375 145.938V142.141C309.375 141.5 309.219 140.953 308.906 140.5C308.594 140.031 308.172 139.641 307.641 139.328C307.109 139 306.5 138.742 305.812 138.555C305.125 138.352 304.406 138.195 303.656 138.086C302.906 137.977 302.141 137.906 301.359 137.875C300.594 137.844 299.875 137.828 299.203 137.828C298.5 137.828 297.75 137.852 296.953 137.898C296.156 137.93 295.359 138 294.562 138.109C293.781 138.219 293.023 138.375 292.289 138.578C291.57 138.766 290.93 139.023 290.367 139.352C289.805 139.68 289.352 140.078 289.008 140.547C288.68 141 288.516 141.547 288.516 142.188L282.703 140.688C282.703 139.641 282.961 138.734 283.477 137.969C283.992 137.188 284.672 136.523 285.516 135.977C286.375 135.43 287.359 134.984 288.469 134.641C289.578 134.281 290.727 134.008 291.914 133.82C293.117 133.617 294.312 133.477 295.5 133.398C296.688 133.32 297.797 133.281 298.828 133.281ZM337.828 132.859C339.125 132.859 340.43 132.922 341.742 133.047C343.055 133.172 344.312 133.375 345.516 133.656C346.719 133.938 347.844 134.289 348.891 134.711C349.938 135.133 350.844 135.641 351.609 136.234C352.391 136.828 353 137.516 353.438 138.297C353.875 139.062 354.094 139.922 354.094 140.875L348.094 141.766C348.094 141.094 347.805 140.492 347.227 139.961C346.648 139.414 345.883 138.961 344.93 138.602C343.977 138.227 342.883 137.945 341.648 137.758C340.414 137.555 339.141 137.453 337.828 137.453C336.578 137.453 335.344 137.547 334.125 137.734C332.906 137.906 331.812 138.172 330.844 138.531C329.891 138.891 329.109 139.344 328.5 139.891C327.906 140.422 327.609 141.047 327.609 141.766V151.516C327.609 152.234 327.906 152.859 328.5 153.391C329.109 153.906 329.891 154.344 330.844 154.703C331.812 155.047 332.906 155.305 334.125 155.477C335.344 155.648 336.578 155.734 337.828 155.734C339.141 155.734 340.414 155.641 341.648 155.453C342.883 155.266 343.977 155 344.93 154.656C345.883 154.297 346.648 153.859 347.227 153.344C347.805 152.812 348.094 152.203 348.094 151.516L354.094 153.016C354.094 153.859 353.875 154.633 353.438 155.336C353 156.039 352.391 156.672 351.609 157.234C350.844 157.781 349.938 158.258 348.891 158.664C347.844 159.07 346.719 159.406 345.516 159.672C344.312 159.938 343.055 160.133 341.742 160.258C340.43 160.398 339.125 160.469 337.828 160.469C336.531 160.469 335.227 160.398 333.914 160.258C332.617 160.133 331.367 159.938 330.164 159.672C328.961 159.406 327.836 159.07 326.789 158.664C325.758 158.258 324.852 157.781 324.07 157.234C323.305 156.672 322.703 156.047 322.266 155.359C321.828 154.656 321.609 153.875 321.609 153.016V140.875C321.609 139.922 321.828 139.062 322.266 138.297C322.703 137.516 323.305 136.828 324.07 136.234C324.852 135.641 325.758 135.133 326.789 134.711C327.836 134.289 328.961 133.938 330.164 133.656C331.367 133.375 332.617 133.172 333.914 133.047C335.227 132.922 336.531 132.859 337.828 132.859ZM375.844 133.281C376.641 133.281 377.602 133.32 378.727 133.398C379.852 133.477 381.016 133.617 382.219 133.82C383.438 134.008 384.641 134.281 385.828 134.641C387.016 134.984 388.078 135.43 389.016 135.977C389.969 136.523 390.734 137.188 391.312 137.969C391.906 138.734 392.203 139.641 392.203 140.688V148.609H365.344V154.609C367.234 154.875 369.055 155.062 370.805 155.172C372.555 155.266 374.234 155.312 375.844 155.312C378.297 155.312 380.516 155.219 382.5 155.031C384.5 154.844 386.227 154.633 387.68 154.398C389.352 154.133 390.859 153.828 392.203 153.484V158.688C389.234 159.156 386.367 159.492 383.602 159.695C380.852 159.898 378.266 160 375.844 160C373.406 160 371.195 159.938 369.211 159.812C367.227 159.672 365.523 159.516 364.102 159.344C362.445 159.156 360.953 158.938 359.625 158.688V140.688C359.625 139.641 359.883 138.734 360.398 137.969C360.914 137.188 361.602 136.523 362.461 135.977C363.32 135.43 364.305 134.984 365.414 134.641C366.539 134.281 367.703 134.008 368.906 133.82C370.109 133.617 371.305 133.477 372.492 133.398C373.695 133.32 374.812 133.281 375.844 133.281ZM365.344 144.859H386.391V142.141C386.391 141.5 386.234 140.953 385.922 140.5C385.609 140.031 385.188 139.641 384.656 139.328C384.141 139.016 383.531 138.766 382.828 138.578C382.141 138.375 381.422 138.227 380.672 138.133C379.922 138.023 379.164 137.953 378.398 137.922C377.648 137.891 376.938 137.875 376.266 137.875C375.562 137.875 374.805 137.891 373.992 137.922C373.195 137.953 372.391 138.023 371.578 138.133C370.766 138.242 369.984 138.398 369.234 138.602C368.484 138.789 367.82 139.047 367.242 139.375C366.664 139.688 366.203 140.078 365.859 140.547C365.516 141 365.344 141.547 365.344 142.188V144.859Z" fill="black"/>
<mask id="path-4-inside-1_160_141" fill="white">
<path d="M198.014 80.8751C198.532 78.4632 198.266 76.194 197.563 74.3656H189.193C188.981 75.6104 188.689 78.126 189.153 80.8751C189.272 81.5878 189.445 82.3143 189.683 83.0406C190.32 85.0115 191.434 86.9565 193.331 88.5126C195.295 86.762 196.568 84.8948 197.337 83.0406C197.643 82.3141 197.868 81.5882 198.014 80.8751H198.014ZM168.26 64.8997C168.26 73.2894 172.611 80.7065 179.231 85.0894C182.6 87.3326 186.566 88.7719 190.824 89.1739C188.994 87.3197 187.919 85.1671 187.322 83.0535H183.038C181.552 83.0535 180.226 82.4054 179.297 81.4067C178.488 80.5383 177.997 79.3968 177.997 78.126V77.1274C177.997 75.7788 178.554 74.5599 179.456 73.6652C180.371 72.7577 181.632 72.1999 183.038 72.1999H187.402H199.009H204.05C204.952 72.1999 205.774 72.4467 206.517 72.8618C208.043 73.7047 209.091 75.2996 209.091 77.1279V78.1265C209.091 79.89 208.136 81.4201 206.703 82.302C205.934 82.769 205.032 83.0538 204.05 83.0538H199.712C198.996 85.1155 197.749 87.1903 195.812 89.1613C199.818 88.7589 203.546 87.3977 206.769 85.349C213.614 80.9921 218.164 73.4583 218.164 64.9C218.164 55.9917 213.243 48.2116 205.934 43.9583C202.206 41.7799 197.868 40.5092 193.212 40.5092C188.384 40.5092 183.887 41.8837 180.053 44.2177C172.983 48.5098 168.26 56.1603 168.26 64.9V64.8997ZM199.142 56.147C200.19 54.0982 202.657 52.8274 205.589 52.8274C205.774 52.8274 205.934 52.8804 206.119 52.8804C208.68 53.0233 211.054 54.1252 212.513 55.9665L213.031 56.6284L212.527 57.2902C210.948 59.339 208.653 60.6227 206.279 60.8302C206.053 60.8514 205.841 60.8725 205.615 60.8725C202.989 60.8725 200.654 59.537 199.195 57.2029L198.877 56.684L199.142 56.1524L199.142 56.147ZM190.32 64.5367L190.612 65.3796C190.957 66.3782 192.058 68.4398 193.199 68.4398C194.34 68.4398 195.441 66.3132 195.772 65.3408L196.038 64.5497L196.887 64.6026C199.129 64.7191 199.805 64.2786 199.964 64.1356C200.057 64.0615 200.11 63.9546 200.11 63.747C200.11 63.1508 200.614 62.6577 201.225 62.6577C201.835 62.6577 202.339 63.1502 202.339 63.747C202.339 64.5253 202.047 65.1993 201.503 65.718C200.721 66.4444 199.474 66.7813 197.59 66.8071C197.006 68.1298 195.587 70.6324 193.212 70.6324C190.878 70.6324 189.458 68.2205 188.848 66.898C187.508 66.9721 185.744 66.845 184.616 65.8739C183.98 65.3296 183.648 64.6032 183.648 63.7474C183.648 63.1512 184.152 62.6582 184.762 62.6582C185.373 62.6582 185.877 63.1506 185.877 63.7474C185.877 63.9677 185.943 64.1107 186.089 64.2398C186.606 64.6804 187.946 64.8488 189.432 64.655L190.32 64.5385V64.5367ZM187.893 55.9785L188.41 56.6266L187.906 57.2885C186.182 59.5318 183.608 60.8673 180.995 60.8673C180.557 60.8673 180.133 60.8144 179.721 60.7509C177.626 60.3876 175.795 59.1429 174.575 57.1979L174.256 56.679L174.535 56.1347C175.45 54.3453 177.453 53.1523 179.894 52.88C180.252 52.8376 180.623 52.8164 180.995 52.8164C183.754 52.827 186.341 54.0094 187.893 55.9804L187.893 55.9785ZM204.05 80.8751C205.217 80.8751 206.212 80.1878 206.637 79.2023C206.783 78.8656 206.862 78.5024 206.862 78.1131V77.1145C206.862 76.6867 206.743 76.298 206.57 75.9346C206.119 75.0143 205.164 74.3526 204.05 74.3526H199.898C200.495 76.2587 200.707 78.5019 200.283 80.862H204.05L204.05 80.8751ZM183.038 74.3527C181.486 74.3527 180.212 75.5845 180.212 77.1146V78.1132C180.212 79.6304 181.472 80.8752 183.038 80.8752H186.858C186.473 78.2039 186.686 75.7921 186.924 74.3657H183.038L183.038 74.3527ZM187.482 33.1955C187.057 33.2696 186.633 33.3385 186.208 33.4285C184.139 33.869 182.136 34.4918 180.239 35.2957C179.297 35.6843 178.382 36.1259 177.493 36.5924C167.226 42.0515 160.248 52.6974 160.248 64.8993C160.248 77.4254 167.61 88.2659 178.302 93.5952C182.786 95.8255 187.84 97.1093 193.199 97.1093C198.426 97.1093 203.347 95.8904 207.738 93.7638C218.629 88.4992 226.15 77.5551 226.15 64.8993C226.15 52.451 218.867 41.6495 208.268 36.2812C207.446 35.8661 206.597 35.4648 205.735 35.1142C203.904 34.375 202.007 33.7915 200.031 33.3895C199.606 33.2942 199.182 33.2466 198.757 33.182C198.333 33.1184 197.921 33.0528 197.497 32.9871C196.091 32.805 194.658 32.6758 193.199 32.6758C191.673 32.6758 190.201 32.8187 188.729 33.0125C188.331 33.0655 187.906 33.129 187.482 33.1947V33.1955ZM193.212 38.3305C195.64 38.3305 197.974 38.6672 200.216 39.2507C202.206 39.7696 204.103 40.4826 205.894 41.4033C214.503 45.8639 220.393 54.7074 220.393 64.8865C220.393 74.6894 214.928 83.2347 206.822 87.838C202.816 90.1331 198.173 91.4558 193.212 91.4558C188.079 91.4558 183.277 90.0295 179.178 87.5916C171.311 82.9365 166.032 74.5079 166.032 64.8865C166.032 54.8889 171.722 46.1622 180.106 41.6367C183.568 39.7694 187.482 38.6413 191.647 38.4079C192.178 38.3867 192.682 38.3337 193.212 38.3337V38.3305ZM249.258 49.2356C244.602 49.0927 240.729 52.1143 236.298 54.215C230.461 56.9769 232.226 52.5033 232.226 52.5033L245.332 28.1773C238.049 20.9158 215.631 12.6688 215.631 12.6688L206.584 32.1841L193.212 0L179.403 32.1451L170.369 12.6688C170.369 12.6688 147.951 20.9287 140.668 28.1773L153.774 52.5163C153.774 52.5163 155.526 56.9899 149.702 54.2279C145.271 52.1272 141.411 49.106 136.742 49.2487C132.072 49.3783 128 56.3545 128 63.1881C128 70.0217 129.751 78.8392 137.166 78.8392C144.595 78.8392 148.23 75.001 150.856 73.5747C153.483 72.1482 155.512 73.8595 154.133 76.4274C152.753 78.9819 139.501 99.4827 139.501 99.4827C139.501 99.4827 152.753 108.585 169.786 114.706L177.506 95.6185C165.992 89.9649 158.046 78.3336 158.046 64.8997C158.046 50.9603 166.589 38.9658 178.793 33.5716C179.138 33.4159 179.496 33.2475 179.854 33.1045C182.162 32.1705 184.616 31.4966 187.137 31.0558L193.119 15.6509L199.142 31.0298C201.596 31.4449 203.97 32.0931 206.226 32.9619C206.504 33.0678 206.783 33.1568 207.048 33.2732C219.584 38.5379 228.392 50.7138 228.392 64.8868C228.392 78.4632 220.287 90.1853 208.573 95.7741L216.214 114.706C233.247 108.585 246.499 99.4827 246.499 99.4827C246.499 99.4827 233.247 78.9949 231.867 76.4274C230.488 73.86 232.517 72.1613 235.144 73.5747C237.77 75.001 241.405 78.8392 248.834 78.8392C256.262 78.8392 258 70.0217 258 63.1881C258 56.3545 253.914 49.3783 249.258 49.2356ZM196.608 30.6799L193.106 21.7586L189.644 30.6929C190.811 30.5764 192.005 30.5118 193.212 30.5118C194.353 30.5118 195.494 30.5753 196.608 30.6801V30.6799Z"/>
</mask>
<path d="M198.014 80.8751C198.532 78.4632 198.266 76.194 197.563 74.3656H189.193C188.981 75.6104 188.689 78.126 189.153 80.8751C189.272 81.5878 189.445 82.3143 189.683 83.0406C190.32 85.0115 191.434 86.9565 193.331 88.5126C195.295 86.762 196.568 84.8948 197.337 83.0406C197.643 82.3141 197.868 81.5882 198.014 80.8751H198.014ZM168.26 64.8997C168.26 73.2894 172.611 80.7065 179.231 85.0894C182.6 87.3326 186.566 88.7719 190.824 89.1739C188.994 87.3197 187.919 85.1671 187.322 83.0535H183.038C181.552 83.0535 180.226 82.4054 179.297 81.4067C178.488 80.5383 177.997 79.3968 177.997 78.126V77.1274C177.997 75.7788 178.554 74.5599 179.456 73.6652C180.371 72.7577 181.632 72.1999 183.038 72.1999H187.402H199.009H204.05C204.952 72.1999 205.774 72.4467 206.517 72.8618C208.043 73.7047 209.091 75.2996 209.091 77.1279V78.1265C209.091 79.89 208.136 81.4201 206.703 82.302C205.934 82.769 205.032 83.0538 204.05 83.0538H199.712C198.996 85.1155 197.749 87.1903 195.812 89.1613C199.818 88.7589 203.546 87.3977 206.769 85.349C213.614 80.9921 218.164 73.4583 218.164 64.9C218.164 55.9917 213.243 48.2116 205.934 43.9583C202.206 41.7799 197.868 40.5092 193.212 40.5092C188.384 40.5092 183.887 41.8837 180.053 44.2177C172.983 48.5098 168.26 56.1603 168.26 64.9V64.8997ZM199.142 56.147C200.19 54.0982 202.657 52.8274 205.589 52.8274C205.774 52.8274 205.934 52.8804 206.119 52.8804C208.68 53.0233 211.054 54.1252 212.513 55.9665L213.031 56.6284L212.527 57.2902C210.948 59.339 208.653 60.6227 206.279 60.8302C206.053 60.8514 205.841 60.8725 205.615 60.8725C202.989 60.8725 200.654 59.537 199.195 57.2029L198.877 56.684L199.142 56.1524L199.142 56.147ZM190.32 64.5367L190.612 65.3796C190.957 66.3782 192.058 68.4398 193.199 68.4398C194.34 68.4398 195.441 66.3132 195.772 65.3408L196.038 64.5497L196.887 64.6026C199.129 64.7191 199.805 64.2786 199.964 64.1356C200.057 64.0615 200.11 63.9546 200.11 63.747C200.11 63.1508 200.614 62.6577 201.225 62.6577C201.835 62.6577 202.339 63.1502 202.339 63.747C202.339 64.5253 202.047 65.1993 201.503 65.718C200.721 66.4444 199.474 66.7813 197.59 66.8071C197.006 68.1298 195.587 70.6324 193.212 70.6324C190.878 70.6324 189.458 68.2205 188.848 66.898C187.508 66.9721 185.744 66.845 184.616 65.8739C183.98 65.3296 183.648 64.6032 183.648 63.7474C183.648 63.1512 184.152 62.6582 184.762 62.6582C185.373 62.6582 185.877 63.1506 185.877 63.7474C185.877 63.9677 185.943 64.1107 186.089 64.2398C186.606 64.6804 187.946 64.8488 189.432 64.655L190.32 64.5385V64.5367ZM187.893 55.9785L188.41 56.6266L187.906 57.2885C186.182 59.5318 183.608 60.8673 180.995 60.8673C180.557 60.8673 180.133 60.8144 179.721 60.7509C177.626 60.3876 175.795 59.1429 174.575 57.1979L174.256 56.679L174.535 56.1347C175.45 54.3453 177.453 53.1523 179.894 52.88C180.252 52.8376 180.623 52.8164 180.995 52.8164C183.754 52.827 186.341 54.0094 187.893 55.9804L187.893 55.9785ZM204.05 80.8751C205.217 80.8751 206.212 80.1878 206.637 79.2023C206.783 78.8656 206.862 78.5024 206.862 78.1131V77.1145C206.862 76.6867 206.743 76.298 206.57 75.9346C206.119 75.0143 205.164 74.3526 204.05 74.3526H199.898C200.495 76.2587 200.707 78.5019 200.283 80.862H204.05L204.05 80.8751ZM183.038 74.3527C181.486 74.3527 180.212 75.5845 180.212 77.1146V78.1132C180.212 79.6304 181.472 80.8752 183.038 80.8752H186.858C186.473 78.2039 186.686 75.7921 186.924 74.3657H183.038L183.038 74.3527ZM187.482 33.1955C187.057 33.2696 186.633 33.3385 186.208 33.4285C184.139 33.869 182.136 34.4918 180.239 35.2957C179.297 35.6843 178.382 36.1259 177.493 36.5924C167.226 42.0515 160.248 52.6974 160.248 64.8993C160.248 77.4254 167.61 88.2659 178.302 93.5952C182.786 95.8255 187.84 97.1093 193.199 97.1093C198.426 97.1093 203.347 95.8904 207.738 93.7638C218.629 88.4992 226.15 77.5551 226.15 64.8993C226.15 52.451 218.867 41.6495 208.268 36.2812C207.446 35.8661 206.597 35.4648 205.735 35.1142C203.904 34.375 202.007 33.7915 200.031 33.3895C199.606 33.2942 199.182 33.2466 198.757 33.182C198.333 33.1184 197.921 33.0528 197.497 32.9871C196.091 32.805 194.658 32.6758 193.199 32.6758C191.673 32.6758 190.201 32.8187 188.729 33.0125C188.331 33.0655 187.906 33.129 187.482 33.1947V33.1955ZM193.212 38.3305C195.64 38.3305 197.974 38.6672 200.216 39.2507C202.206 39.7696 204.103 40.4826 205.894 41.4033C214.503 45.8639 220.393 54.7074 220.393 64.8865C220.393 74.6894 214.928 83.2347 206.822 87.838C202.816 90.1331 198.173 91.4558 193.212 91.4558C188.079 91.4558 183.277 90.0295 179.178 87.5916C171.311 82.9365 166.032 74.5079 166.032 64.8865C166.032 54.8889 171.722 46.1622 180.106 41.6367C183.568 39.7694 187.482 38.6413 191.647 38.4079C192.178 38.3867 192.682 38.3337 193.212 38.3337V38.3305ZM249.258 49.2356C244.602 49.0927 240.729 52.1143 236.298 54.215C230.461 56.9769 232.226 52.5033 232.226 52.5033L245.332 28.1773C238.049 20.9158 215.631 12.6688 215.631 12.6688L206.584 32.1841L193.212 0L179.403 32.1451L170.369 12.6688C170.369 12.6688 147.951 20.9287 140.668 28.1773L153.774 52.5163C153.774 52.5163 155.526 56.9899 149.702 54.2279C145.271 52.1272 141.411 49.106 136.742 49.2487C132.072 49.3783 128 56.3545 128 63.1881C128 70.0217 129.751 78.8392 137.166 78.8392C144.595 78.8392 148.23 75.001 150.856 73.5747C153.483 72.1482 155.512 73.8595 154.133 76.4274C152.753 78.9819 139.501 99.4827 139.501 99.4827C139.501 99.4827 152.753 108.585 169.786 114.706L177.506 95.6185C165.992 89.9649 158.046 78.3336 158.046 64.8997C158.046 50.9603 166.589 38.9658 178.793 33.5716C179.138 33.4159 179.496 33.2475 179.854 33.1045C182.162 32.1705 184.616 31.4966 187.137 31.0558L193.119 15.6509L199.142 31.0298C201.596 31.4449 203.97 32.0931 206.226 32.9619C206.504 33.0678 206.783 33.1568 207.048 33.2732C219.584 38.5379 228.392 50.7138 228.392 64.8868C228.392 78.4632 220.287 90.1853 208.573 95.7741L216.214 114.706C233.247 108.585 246.499 99.4827 246.499 99.4827C246.499 99.4827 233.247 78.9949 231.867 76.4274C230.488 73.86 232.517 72.1613 235.144 73.5747C237.77 75.001 241.405 78.8392 248.834 78.8392C256.262 78.8392 258 70.0217 258 63.1881C258 56.3545 253.914 49.3783 249.258 49.2356ZM196.608 30.6799L193.106 21.7586L189.644 30.6929C190.811 30.5764 192.005 30.5118 193.212 30.5118C194.353 30.5118 195.494 30.5753 196.608 30.6801V30.6799Z" stroke="black" stroke-width="4" mask="url(#path-4-inside-1_160_141)"/>
</svg>
