<svg width="271" height="42" viewBox="0 0 271 42" fill="none" xmlns="http://www.w3.org/2000/svg">
<path d="M31.6875 6.94141C31.5417 7.03255 31.3867 7.08724 31.2227 7.10547C31.0586 7.1237 30.8854 7.15104 30.7031 7.1875C30.5391 7.20573 30.3841 7.24219 30.2383 7.29688C30.0924 7.35156 29.9831 7.45182 29.9102 7.59766C29.7279 7.41536 29.5273 7.26042 29.3086 7.13281C29.0898 7.00521 28.8711 6.86849 28.6523 6.72266C28.4701 6.77734 28.2878 6.85026 28.1055 6.94141C27.9232 7.03255 27.7409 7.07812 27.5586 7.07812C27.431 7.07812 27.3034 7.03255 27.1758 6.94141C27.0299 7.05078 26.8568 7.14193 26.6562 7.21484C26.474 7.26953 26.2734 7.32422 26.0547 7.37891C25.8542 7.43359 25.6628 7.50651 25.4805 7.59766C25.3164 7.6888 25.1979 7.82552 25.125 8.00781C25.0885 7.91667 24.9974 7.88932 24.8516 7.92578C24.724 7.96224 24.651 7.91667 24.6328 7.78906C24.0495 7.98958 23.457 8.16276 22.8555 8.30859C22.2539 8.45443 21.6523 8.60938 21.0508 8.77344C20.4492 8.9375 19.8568 9.11979 19.2734 9.32031C18.6901 9.52083 18.125 9.76693 17.5781 10.0586C17.5599 10.0768 17.5508 10.1042 17.5508 10.1406C17.5508 10.3229 17.5781 10.4961 17.6328 10.6602C17.6875 10.8242 17.7331 10.9792 17.7695 11.125C17.4414 12.237 17.2227 13.3672 17.1133 14.5156C17.0039 15.6641 16.8581 16.7943 16.6758 17.9062V18.0156C16.6758 18.1068 16.7122 18.1797 16.7852 18.2344C16.8581 18.2708 16.8945 18.3438 16.8945 18.4531L16.8672 18.5078C16.776 18.5625 16.7122 18.6445 16.6758 18.7539C16.6393 18.8451 16.6211 18.9453 16.6211 19.0547C16.6211 19.1276 16.6393 19.237 16.6758 19.3828C16.3659 20.4219 16.1562 21.4792 16.0469 22.5547C15.9557 23.6302 15.8372 24.7057 15.6914 25.7812L15.4453 27.5859C15.4089 27.6953 15.3724 27.8047 15.3359 27.9141C15.3177 28.0052 15.3086 28.1055 15.3086 28.2148C15.3086 28.7982 15.3451 29.3724 15.418 29.9375C15.5091 30.4844 15.5365 31.0495 15.5 31.6328C15.6641 31.888 15.7461 32.1341 15.7461 32.3711C15.7461 32.4622 15.737 32.5534 15.7188 32.6445C15.7188 32.7357 15.7096 32.8268 15.6914 32.918C15.9284 33.1549 16.2018 33.319 16.5117 33.4102C16.8398 33.5195 17.1315 33.6836 17.3867 33.9023V34.0117C17.3867 34.194 17.3594 34.3672 17.3047 34.5312C17.25 34.7135 17.2044 34.8958 17.168 35.0781C17.1315 35.224 17.0859 35.4336 17.0312 35.707C16.9948 35.9805 16.9401 36.1628 16.8672 36.2539C16.776 36.3815 16.6393 36.4909 16.457 36.582C16.293 36.6914 16.1289 36.7461 15.9648 36.7461C15.9102 36.7461 15.8281 36.7188 15.7188 36.6641C15.6276 36.6094 15.5547 36.5638 15.5 36.5273C15.4089 36.5273 15.2904 36.5729 15.1445 36.6641C14.9987 36.7552 14.8529 36.8008 14.707 36.8008C14.6341 36.8008 14.5703 36.7917 14.5156 36.7734C14.4609 36.7734 14.3971 36.7552 14.3242 36.7188C14.2513 36.5365 14.1419 36.3724 13.9961 36.2266C13.8685 36.099 13.7135 35.9714 13.5312 35.8438C13.5495 35.5885 13.5039 35.3971 13.3945 35.2695C13.2852 35.1419 13.1758 34.9779 13.0664 34.7773C13.0299 34.5221 12.9935 34.2305 12.957 33.9023C12.9388 33.5742 12.8021 33.3372 12.5469 33.1914C12.638 33.0638 12.6836 32.8906 12.6836 32.6719C12.6836 32.5807 12.6654 32.4805 12.6289 32.3711C12.6107 32.2617 12.556 32.1797 12.4648 32.125V32.0703C12.4466 31.9792 12.474 31.9154 12.5469 31.8789C12.638 31.8242 12.6836 31.7513 12.6836 31.6602V31.5508C12.556 30.9674 12.4922 30.3568 12.4922 29.7188C12.4922 29.1172 12.5104 28.5247 12.5469 27.9414C12.5833 27.3398 12.5833 26.7383 12.5469 26.1367C12.6562 26.0456 12.7383 25.8997 12.793 25.6992C12.8659 25.4987 12.9206 25.2799 12.957 25.043C12.9935 24.806 13.0117 24.5781 13.0117 24.3594C13.0299 24.1224 13.0482 23.931 13.0664 23.7852C13.1576 22.7461 13.3034 21.7253 13.5039 20.7227C13.7044 19.7018 13.8229 18.6628 13.8594 17.6055C13.9505 17.4596 14.0052 17.2682 14.0234 17.0312C14.0417 16.7943 14.0508 16.5482 14.0508 16.293C14.0508 16.0195 14.069 15.7552 14.1055 15.5C14.1419 15.2448 14.2148 15.026 14.3242 14.8438C14.3242 14.3333 14.3698 13.8229 14.4609 13.3125C14.5521 12.7839 14.5977 12.2552 14.5977 11.7266C14.5977 11.4714 14.5703 11.207 14.5156 10.9336C14.3333 10.8607 14.1693 10.8242 14.0234 10.8242C13.8229 10.8242 13.6133 10.8698 13.3945 10.9609C13.194 11.0339 13.0482 11.1523 12.957 11.3164C12.556 11.3346 12.1641 11.3984 11.7812 11.5078C11.3984 11.6172 11.0156 11.6719 10.6328 11.6719H10.3594C10.2865 11.6719 10.2044 11.6628 10.1133 11.6445C9.98568 11.6992 9.84896 11.7448 9.70312 11.7812C9.57552 11.8177 9.52083 11.9271 9.53906 12.1094C8.97396 12.1641 8.41797 12.2826 7.87109 12.4648C7.34245 12.6471 6.8138 12.8477 6.28516 13.0664C5.75651 13.2669 5.22786 13.4583 4.69922 13.6406C4.15234 13.8229 3.59635 13.9414 3.03125 13.9961C2.83073 14.0872 2.70312 14.2786 2.64844 14.5703C2.2474 14.5339 1.91016 14.4336 1.63672 14.2695C1.36328 14.1055 1.04427 13.9505 0.679688 13.8047C0.570312 13.4219 0.515625 13.0573 0.515625 12.7109C0.515625 12.2552 0.606771 11.8177 0.789062 11.3984C0.971354 10.9792 1.26302 10.6693 1.66406 10.4688C1.75521 10.487 1.83724 10.5052 1.91016 10.5234C1.98307 10.5234 2.0651 10.5234 2.15625 10.5234C2.44792 10.5234 2.73958 10.4688 3.03125 10.3594C3.32292 10.25 3.6237 10.1953 3.93359 10.1953C4.02474 10.1953 4.125 10.2227 4.23438 10.2773C4.36198 10.2044 4.52604 10.1497 4.72656 10.1133C4.90885 10.0586 5.08203 10.013 5.24609 9.97656C5.42839 9.92188 5.59245 9.84896 5.73828 9.75781C5.88411 9.66667 5.97526 9.53906 6.01172 9.375C6.10286 9.44792 6.20312 9.49349 6.3125 9.51172C6.42188 9.52995 6.53125 9.53906 6.64062 9.53906C6.8776 9.53906 7.1237 9.49349 7.37891 9.40234C7.63411 9.3112 7.83464 9.16536 7.98047 8.96484C8.10807 9.11068 8.29036 9.18359 8.52734 9.18359C8.78255 9.18359 9.02865 9.11979 9.26562 8.99219C9.52083 8.84635 9.76693 8.77344 10.0039 8.77344C10.1862 8.77344 10.3229 8.83724 10.4141 8.96484C10.6146 8.80078 10.8516 8.67318 11.125 8.58203C11.3984 8.49089 11.6719 8.40885 11.9453 8.33594C12.237 8.26302 12.5013 8.18099 12.7383 8.08984C12.9935 7.9987 13.194 7.87109 13.3398 7.70703C13.431 7.72526 13.5768 7.73438 13.7773 7.73438C14.0872 7.73438 14.3789 7.69792 14.6523 7.625C14.944 7.53385 15.2357 7.45182 15.5273 7.37891L16.1016 7.32422C16.2474 7.30599 16.375 7.26042 16.4844 7.1875C16.612 7.11458 16.7396 7.05078 16.8672 6.99609C16.9948 6.94141 17.1224 6.89583 17.25 6.85938C17.3958 6.82292 17.569 6.8138 17.7695 6.83203C18.207 6.59505 18.6719 6.41276 19.1641 6.28516C19.6562 6.15755 20.1576 6.04818 20.668 5.95703C21.1784 5.84766 21.6797 5.72917 22.1719 5.60156C22.6641 5.45573 23.1289 5.24609 23.5664 4.97266H23.6484C24.013 4.97266 24.3685 4.90885 24.7148 4.78125C25.0794 4.65365 25.4167 4.48047 25.7266 4.26172C25.7812 4.27995 25.8359 4.28906 25.8906 4.28906H26.082C26.5924 4.28906 27.0846 4.21615 27.5586 4.07031C28.0508 3.92448 28.5612 3.85156 29.0898 3.85156C29.3997 3.85156 29.6458 3.89714 29.8281 3.98828C30.0104 4.0612 30.1745 4.16146 30.3203 4.28906C30.4661 4.39844 30.6211 4.50781 30.7852 4.61719C30.9492 4.72656 31.1589 4.80859 31.4141 4.86328C31.5781 5.17318 31.6602 5.51042 31.6602 5.875C31.6602 6.22135 31.6693 6.57682 31.6875 6.94141ZM40.4102 20.2305C40.3372 20.4128 40.2643 20.5859 40.1914 20.75C40.1185 20.9141 40.0638 21.0964 40.0273 21.2969C39.8997 21.388 39.7539 21.4609 39.5898 21.5156C39.444 21.5521 39.2891 21.5977 39.125 21.6523C38.9609 21.6888 38.806 21.7435 38.6602 21.8164C38.5326 21.8711 38.4323 21.9622 38.3594 22.0898C38.3047 22.3633 38.2773 22.6185 38.2773 22.8555C38.2773 23.1654 38.332 23.4297 38.4414 23.6484C38.3867 23.8125 38.3503 23.9857 38.332 24.168C38.3138 24.3503 38.3047 24.5234 38.3047 24.6875C38.3047 25.2891 38.3776 25.8906 38.5234 26.4922C38.6693 27.0755 38.7513 27.668 38.7695 28.2695C38.7695 28.3607 38.7604 28.4609 38.7422 28.5703C38.724 28.6797 38.7148 28.7799 38.7148 28.8711C38.7148 29.2539 38.8607 29.5091 39.1523 29.6367C39.0977 29.7279 39.0703 29.8099 39.0703 29.8828C39.0703 30.0286 39.0885 30.1562 39.125 30.2656C39.1615 30.375 39.1706 30.4935 39.1523 30.6211C39.2435 30.8034 39.3346 30.9674 39.4258 31.1133C39.5169 31.2409 39.5807 31.4049 39.6172 31.6055C39.4896 31.8607 39.3346 32.0977 39.1523 32.3164C38.9701 32.5169 38.8424 32.7721 38.7695 33.082C38.6966 33.0638 38.6146 33.0547 38.5234 33.0547C38.3958 33.0547 38.2956 33.082 38.2227 33.1367C38.1497 33.1914 38.0859 33.2552 38.0312 33.3281C37.9948 33.4193 37.9492 33.5013 37.8945 33.5742C37.8398 33.6654 37.7669 33.7292 37.6758 33.7656H37.5938C37.5026 33.7839 37.4206 33.7747 37.3477 33.7383C37.293 33.7201 37.2383 33.7109 37.1836 33.7109C37.1471 33.7109 37.0742 33.7292 36.9648 33.7656C36.819 33.5833 36.7188 33.3646 36.6641 33.1094C36.6094 32.8724 36.582 32.6354 36.582 32.3984C36.582 32.1432 36.6185 31.9154 36.6914 31.7148C36.4909 31.5508 36.3633 31.3047 36.3086 30.9766C36.2721 30.6484 36.2266 30.375 36.1719 30.1562C36.026 29.4818 35.8529 28.8255 35.6523 28.1875C35.4701 27.5495 35.3607 26.8932 35.3242 26.2188C35.306 25.9635 35.2969 25.7174 35.2969 25.4805V24.0586C35.2969 23.8216 35.306 23.5938 35.3242 23.375C35.3242 23.2109 35.3333 23.056 35.3516 22.9102C35.388 22.7461 35.4062 22.582 35.4062 22.418C35.4062 22.1992 35.3333 21.9896 35.1875 21.7891C33.8932 21.8438 32.6628 22.0807 31.4961 22.5C30.3477 22.901 29.1992 23.3841 28.0508 23.9492C27.9779 24.3685 27.9323 24.7786 27.9141 25.1797C27.8958 25.5807 27.8867 25.9909 27.8867 26.4102V27.6133C27.8867 28.069 27.9049 28.4518 27.9414 28.7617C28.0326 29.2904 28.2969 29.7005 28.7344 29.9922C29.1901 30.2656 29.6458 30.4753 30.1016 30.6211C30.0833 30.8945 30.0286 31.1315 29.9375 31.332C29.8464 31.5143 29.7279 31.6875 29.582 31.8516C29.4544 31.9974 29.3086 32.1432 29.1445 32.2891C28.9805 32.4349 28.8164 32.599 28.6523 32.7812C28.5065 32.6901 28.3607 32.6263 28.2148 32.5898C28.069 32.5534 27.9141 32.5352 27.75 32.5352C27.5859 32.5169 27.4219 32.4987 27.2578 32.4805C27.0938 32.4622 26.9297 32.4258 26.7656 32.3711L26.1641 31.5508C25.9635 31.2773 25.7448 31.0039 25.5078 30.7305V30.4844C25.5078 29.9922 25.4167 29.5182 25.2344 29.0625C25.0521 28.6068 24.9154 28.1419 24.8242 27.668C24.8789 27.5039 24.9154 27.3398 24.9336 27.1758C24.9518 27.0117 24.9609 26.8385 24.9609 26.6562C24.9609 26.2917 24.9427 25.9362 24.9062 25.5898C24.888 25.2435 24.8971 24.8971 24.9336 24.5508H24.7969C24.6328 24.5508 24.4596 24.5964 24.2773 24.6875C24.0951 24.7604 23.9128 24.8516 23.7305 24.9609C23.5664 25.0521 23.4023 25.1432 23.2383 25.2344C23.0924 25.3073 22.9648 25.3438 22.8555 25.3438C22.8008 25.3438 22.7461 25.3346 22.6914 25.3164C22.6367 25.2982 22.5729 25.2891 22.5 25.2891C22.4089 25.2891 22.2995 25.3255 22.1719 25.3984C22.0443 25.4714 21.9076 25.5534 21.7617 25.6445C21.5977 25.7174 21.4336 25.7904 21.2695 25.8633C21.1055 25.9362 20.9414 25.9727 20.7773 25.9727C20.5221 25.9727 20.2669 25.8633 20.0117 25.6445C19.9753 25.4987 19.9661 25.362 19.9844 25.2344C19.9844 25.1068 19.9844 24.9701 19.9844 24.8242C19.9844 24.6784 19.957 24.5234 19.9023 24.3594C20.0299 24.1224 20.2031 23.9401 20.4219 23.8125C20.6224 23.6667 20.8411 23.5391 21.0781 23.4297C21.2969 23.3021 21.5247 23.1836 21.7617 23.0742C21.9987 22.9466 22.1992 22.7826 22.3633 22.582H22.5273C22.7826 22.582 23.0104 22.5273 23.2109 22.418C23.4297 22.3086 23.6758 22.263 23.9492 22.2812C24.0404 22.2448 24.1042 22.1081 24.1406 21.8711L24.25 21.8984C24.651 21.8984 25.0065 21.7617 25.3164 21.4883C25.5169 20.3581 25.681 19.2188 25.8086 18.0703C25.9362 16.9219 26 15.7734 26 14.625C26 14.5156 25.9635 14.4062 25.8906 14.2969C25.8542 14.151 25.8359 14.0143 25.8359 13.8867V13.4766C25.8359 13.276 25.8451 13.0664 25.8633 12.8477C25.8815 12.6289 25.9271 12.4102 26 12.1914C26.1823 12.082 26.3737 12.0273 26.5742 12.0273C26.8112 12.0273 27.0391 12.0638 27.2578 12.1367C27.4948 12.1914 27.7227 12.237 27.9414 12.2734C28.1055 12.4375 28.224 12.6198 28.2969 12.8203C28.388 13.0208 28.4427 13.2305 28.4609 13.4492C28.4792 13.6497 28.4792 13.8594 28.4609 14.0781C28.4609 14.2786 28.4609 14.4792 28.4609 14.6797C28.4609 15.0807 28.5065 15.4727 28.5977 15.8555C28.6888 16.2383 28.7344 16.612 28.7344 16.9766C28.7344 17.0677 28.6979 17.1406 28.625 17.1953C28.5703 17.2318 28.543 17.3503 28.543 17.5508C28.543 17.7513 28.5612 17.9609 28.5977 18.1797C28.6341 18.3984 28.6523 18.6172 28.6523 18.8359C28.6523 19.0911 28.6159 19.3555 28.543 19.6289C28.4701 19.9023 28.4062 20.1667 28.3516 20.4219C29.4453 20.3307 30.5664 20.194 31.7148 20.0117C32.8633 19.8294 33.957 19.5378 34.9961 19.1367C35.0143 19.1003 35.0234 19.0456 35.0234 18.9727C35.0234 18.8633 35.0143 18.7539 34.9961 18.6445C34.9779 18.5352 34.9688 18.4167 34.9688 18.2891C34.9688 18.0703 35.0417 17.8971 35.1875 17.7695C35.0964 17.2591 35.0326 16.7487 34.9961 16.2383C34.9596 15.7279 34.9414 15.2174 34.9414 14.707V13.1484C34.9414 12.638 34.9323 12.1276 34.9141 11.6172C35.0599 11.526 35.2148 11.4805 35.3789 11.4805C35.5794 11.4805 35.7617 11.5352 35.9258 11.6445C36.1081 11.7357 36.3177 11.7812 36.5547 11.7812C36.7188 11.7812 36.8555 11.7539 36.9648 11.6992C37.1654 11.8815 37.3021 12.1185 37.375 12.4102C37.4479 12.7018 37.5117 13.0026 37.5664 13.3125C37.6211 13.6224 37.6758 13.9323 37.7305 14.2422C37.8034 14.5339 37.9401 14.7708 38.1406 14.9531L38.168 15.0352C38.168 15.1081 38.1315 15.1628 38.0586 15.1992C37.9857 15.2357 37.9492 15.3086 37.9492 15.418V15.5273C38.0221 15.819 38.0768 16.1198 38.1133 16.4297C38.1497 16.7396 38.1771 17.0586 38.1953 17.3867C38.2318 17.6966 38.2773 18.0065 38.332 18.3164C38.3867 18.6081 38.487 18.8815 38.6328 19.1367C38.724 19.1185 38.8424 19.1094 38.9883 19.1094C39.3529 19.1094 39.6354 19.237 39.8359 19.4922C40.0547 19.7292 40.2461 19.9753 40.4102 20.2305ZM59.4688 15.6094V15.7188C59.3411 15.7552 59.2773 15.8464 59.2773 15.9922C59.0768 16.0833 58.8672 16.1562 58.6484 16.2109C58.4297 16.2474 58.2201 16.3112 58.0195 16.4023C57.819 16.3841 57.6094 16.375 57.3906 16.375C57.1901 16.3568 56.9896 16.3477 56.7891 16.3477C56.2422 16.3477 55.6953 16.3659 55.1484 16.4023C54.6016 16.4388 54.0547 16.4388 53.5078 16.4023C53.2526 16.5482 52.9701 16.6667 52.6602 16.7578C52.3685 16.8307 52.0859 16.8672 51.8125 16.8672C51.5938 16.8672 51.4023 16.8398 51.2383 16.7852C50.8008 17.0039 50.3177 17.1862 49.7891 17.332C49.2786 17.4779 48.7591 17.6237 48.2305 17.7695C47.7018 17.8971 47.1914 18.0521 46.6992 18.2344C46.2253 18.3984 45.806 18.6354 45.4414 18.9453C45.4049 19.2005 45.3776 19.4557 45.3594 19.7109C45.3411 19.9479 45.332 20.1849 45.332 20.4219C45.332 20.6771 45.3411 20.9141 45.3594 21.1328C45.3958 21.3516 45.4596 21.5703 45.5508 21.7891C45.6419 21.8255 45.7422 21.8529 45.8516 21.8711C45.9792 21.8893 46.0885 21.8984 46.1797 21.8984C46.2708 21.8984 46.362 21.8893 46.4531 21.8711C46.5443 21.8346 46.6081 21.7708 46.6445 21.6797C46.918 21.6432 47.1914 21.6341 47.4648 21.6523C47.7383 21.6523 48.0117 21.6523 48.2852 21.6523C48.5586 21.6523 48.8229 21.6432 49.0781 21.625C49.3516 21.6068 49.6159 21.5612 49.8711 21.4883C50.1628 21.4154 50.4453 21.3698 50.7188 21.3516C51.0104 21.3333 51.293 21.3151 51.5664 21.2969C51.8398 21.2786 52.1224 21.2513 52.4141 21.2148C52.7057 21.1602 53.0065 21.0599 53.3164 20.9141C53.5534 21.0052 53.7904 21.0508 54.0273 21.0508C54.2826 21.0508 54.5286 21.069 54.7656 21.1055C54.8932 21.1966 54.9935 21.2969 55.0664 21.4062C55.1576 21.5156 55.2031 21.6432 55.2031 21.7891C55.2031 22.0443 55.112 22.2995 54.9297 22.5547C54.7474 22.8099 54.6016 23.0469 54.4922 23.2656H54.1914C53.7539 23.2656 53.3255 23.3294 52.9062 23.457C52.5052 23.5664 52.0951 23.7031 51.6758 23.8672C51.2747 24.013 50.8646 24.1497 50.4453 24.2773C50.0443 24.3867 49.625 24.4414 49.1875 24.4414C49.1146 24.4414 49.069 24.487 49.0508 24.5781C49.0508 24.651 49.0326 24.7057 48.9961 24.7422C48.9049 24.724 48.7682 24.7148 48.5859 24.7148C48.1667 24.7148 47.7656 24.7604 47.3828 24.8516C47 24.9427 46.6081 24.9883 46.207 24.9883C46.0977 24.9883 45.9883 24.9883 45.8789 24.9883C45.7695 24.9701 45.6602 24.9518 45.5508 24.9336C45.4596 25.0794 45.3411 25.1797 45.1953 25.2344C45.0495 25.2708 44.9128 25.3438 44.7852 25.4531C44.7305 25.6172 44.694 25.8177 44.6758 26.0547C44.6758 26.2917 44.6667 26.5378 44.6484 26.793C44.6484 27.0299 44.6302 27.2578 44.5938 27.4766C44.5573 27.6953 44.4844 27.8685 44.375 27.9961C44.3932 28.0872 44.4661 28.1237 44.5938 28.1055C44.7214 28.069 44.7852 28.1237 44.7852 28.2695C44.7852 28.4336 44.7669 28.6068 44.7305 28.7891C44.694 28.9714 44.6758 29.1536 44.6758 29.3359C44.6758 29.6823 44.7122 30.0651 44.7852 30.4844C44.8763 30.8854 45.0039 31.2591 45.168 31.6055C45.3503 31.9518 45.5872 32.2435 45.8789 32.4805C46.1706 32.6992 46.5352 32.8086 46.9727 32.8086C47.2643 32.8086 47.5378 32.7539 47.793 32.6445C48.0482 32.5352 48.2578 32.3529 48.4219 32.0977L48.5586 32.0703C48.6315 32.0703 48.6953 32.0794 48.75 32.0977C48.8229 32.1159 48.8958 32.125 48.9688 32.125C49.0781 32.125 49.2148 32.0612 49.3789 31.9336C49.5612 31.7878 49.7526 31.6237 49.9531 31.4414C50.1719 31.2591 50.3906 31.0859 50.6094 30.9219C50.8281 30.7396 51.0378 30.612 51.2383 30.5391C51.3659 30.2839 51.4844 30.0286 51.5938 29.7734C51.7214 29.5182 51.9036 29.3177 52.1406 29.1719V28.3789C52.3229 28.1784 52.5143 27.9961 52.7148 27.832C52.9336 27.668 53.0977 27.4583 53.207 27.2031C53.2982 27.2396 53.3802 27.2669 53.4531 27.2852C53.5443 27.3034 53.6354 27.3125 53.7266 27.3125C53.8177 27.3125 53.9089 27.3034 54 27.2852C54.1094 27.2669 54.2096 27.2396 54.3008 27.2031C54.4466 27.4036 54.556 27.6315 54.6289 27.8867C54.7201 28.1237 54.8294 28.3516 54.957 28.5703C54.793 28.8984 54.6016 29.2904 54.3828 29.7461C54.1641 30.2018 53.9271 30.6576 53.6719 31.1133C53.4167 31.569 53.1432 32.0065 52.8516 32.4258C52.5781 32.8268 52.3047 33.1367 52.0312 33.3555C51.9766 33.4102 51.8581 33.474 51.6758 33.5469C51.4753 33.6927 51.293 33.8294 51.1289 33.957C50.9648 34.1029 50.8099 34.2669 50.6641 34.4492C50.1354 34.6133 49.625 34.832 49.1328 35.1055C48.6589 35.3789 48.1849 35.6432 47.7109 35.8984C47.4922 35.8438 47.2552 35.8164 47 35.8164C46.7812 35.8164 46.5625 35.8255 46.3438 35.8438C46.125 35.8802 45.888 35.8984 45.6328 35.8984C45.5599 35.8073 45.4505 35.7435 45.3047 35.707C45.1771 35.6888 45.1315 35.5977 45.168 35.4336C44.5482 35.3971 44.0469 35.224 43.6641 34.9141C43.2812 34.6224 42.9531 34.2578 42.6797 33.8203C42.4245 33.3828 42.2148 32.9089 42.0508 32.3984C41.8867 31.888 41.7135 31.3958 41.5312 30.9219V30.8398C41.5312 30.7487 41.5677 30.694 41.6406 30.6758C41.7135 30.6576 41.75 30.6029 41.75 30.5117C41.75 30.4753 41.7409 30.4479 41.7227 30.4297C41.668 30.2292 41.6224 30.056 41.5859 29.9102C41.5495 29.7643 41.5312 29.5911 41.5312 29.3906C41.5312 29.099 41.5495 28.8164 41.5859 28.543C41.6224 28.2513 41.6406 27.9596 41.6406 27.668C41.6406 27.3763 41.6042 27.1211 41.5312 26.9023C41.6042 26.8112 41.668 26.6927 41.7227 26.5469C41.7591 26.3828 41.7865 26.2188 41.8047 26.0547C41.8229 25.8906 41.832 25.7266 41.832 25.5625C41.8503 25.3984 41.8776 25.2526 41.9141 25.125C41.8411 24.9245 41.7773 24.7513 41.7227 24.6055C41.668 24.4414 41.6406 24.25 41.6406 24.0312V23.8398C41.8229 23.5299 41.9779 23.2109 42.1055 22.8828C42.2331 22.5547 42.3698 22.2174 42.5156 21.8711V21.7891C42.5156 21.2604 42.4974 20.7318 42.4609 20.2031C42.4245 19.6745 42.4062 19.1458 42.4062 18.6172V18.0977C42.4062 17.9154 42.4154 17.7422 42.4336 17.5781C42.5794 17.5052 42.6888 17.4049 42.7617 17.2773C42.8346 17.1497 42.944 17.0495 43.0898 16.9766H43.9922L44.1562 16.7031C44.2109 16.612 44.2474 16.5117 44.2656 16.4023C44.4661 16.3477 44.6576 16.2747 44.8398 16.1836C45.0404 16.0742 45.2227 15.9648 45.3867 15.8555C45.6419 15.7096 45.8698 15.582 46.0703 15.4727C46.2891 15.3451 46.4987 15.2448 46.6992 15.1719C46.918 15.0807 47.1458 15.0078 47.3828 14.9531C47.6198 14.8984 47.8932 14.8529 48.2031 14.8164C48.349 14.8164 48.4401 14.7891 48.4766 14.7344C48.5312 14.6797 48.6042 14.6159 48.6953 14.543C48.9141 14.5794 49.1328 14.6159 49.3516 14.6523C49.5703 14.6706 49.7891 14.6797 50.0078 14.6797C50.4453 14.6797 50.8555 14.5977 51.2383 14.4336C51.7852 14.4336 52.3229 14.4245 52.8516 14.4062C53.3984 14.388 53.9453 14.3789 54.4922 14.3789C54.9661 14.3789 55.4401 14.3971 55.9141 14.4336C56.388 14.4701 56.8529 14.5339 57.3086 14.625C57.4727 14.5703 57.6549 14.543 57.8555 14.543C58.0742 14.543 58.293 14.5703 58.5117 14.625C58.7487 14.6615 58.9766 14.6615 59.1953 14.625C59.2135 14.8255 59.2591 14.9987 59.332 15.1445C59.4232 15.2721 59.4688 15.4271 59.4688 15.6094ZM98.4883 40.082C98.4883 40.2461 98.4245 40.3919 98.2969 40.5195C98.1875 40.6471 98.0508 40.7474 97.8867 40.8203C97.7227 40.9115 97.5495 40.9935 97.3672 41.0664C97.2031 41.1393 97.0573 41.2031 96.9297 41.2578C96.7292 41.1484 96.5195 41.0755 96.3008 41.0391C96.1003 41.0026 95.918 40.9115 95.7539 40.7656H95.5625C95.2708 40.7656 95.043 40.8021 94.8789 40.875C94.6237 40.7839 94.4141 40.6471 94.25 40.4648C94.0859 40.3008 93.931 40.1185 93.7852 39.918C93.6393 39.7357 93.4935 39.5534 93.3477 39.3711C93.2018 39.1888 93.0195 39.0339 92.8008 38.9062C92.4727 37.9948 92.181 37.0742 91.9258 36.1445C91.6706 35.2148 91.4792 34.2669 91.3516 33.3008C91.388 33.2096 91.4154 33.1094 91.4336 33C91.4518 32.8906 91.4609 32.7904 91.4609 32.6992C91.4609 32.6263 91.4427 32.5534 91.4062 32.4805C91.388 32.3893 91.3333 32.3346 91.2422 32.3164C91.3333 32.1706 91.388 32.0065 91.4062 31.8242C91.4427 31.6237 91.4609 31.4414 91.4609 31.2773C91.4609 30.9128 91.4245 30.612 91.3516 30.375C91.4609 30.2839 91.5065 30.138 91.4883 29.9375C91.4701 29.7188 91.5156 29.5638 91.625 29.4727C91.5339 29.1628 91.4883 28.862 91.4883 28.5703C91.4883 28.1693 91.5339 27.7773 91.625 27.3945C91.7344 27.0117 91.7891 26.6198 91.7891 26.2188C91.7891 26.1276 91.7799 26.0365 91.7617 25.9453C91.7617 25.8542 91.7526 25.763 91.7344 25.6719C91.8255 25.3802 91.9076 25.0885 91.9805 24.7969C92.0716 24.487 92.1172 24.1771 92.1172 23.8672C92.1172 23.6484 92.0807 23.4661 92.0078 23.3203C92.2448 22.4818 92.4089 21.6523 92.5 20.832C92.6094 19.9935 92.7096 19.1458 92.8008 18.2891C92.7826 18.2526 92.7643 18.2253 92.7461 18.207C92.7279 18.1888 92.7188 18.1615 92.7188 18.125C92.7188 18.0339 92.7643 17.9609 92.8555 17.9062C92.9648 17.8516 93.0104 17.7513 92.9922 17.6055C92.7734 17.8242 92.5911 18.0794 92.4453 18.3711C92.3177 18.6628 92.1901 18.9544 92.0625 19.2461C91.9531 19.5378 91.8255 19.8294 91.6797 20.1211C91.5521 20.3945 91.3789 20.6406 91.1602 20.8594C91.1419 21.0599 91.0781 21.2513 90.9688 21.4336C90.8776 21.6159 90.832 21.8164 90.832 22.0352C90.8138 22.0352 90.7956 22.0352 90.7773 22.0352C90.7591 22.0169 90.7318 22.0078 90.6953 22.0078C90.6224 22.0078 90.5677 22.0534 90.5312 22.1445C90.513 22.2357 90.4583 22.263 90.3672 22.2266C89.9479 23.0469 89.4831 23.849 88.9727 24.6328C88.4805 25.4167 87.8333 26.0456 87.0312 26.5195C86.8854 26.4648 86.7487 26.4375 86.6211 26.4375C86.3841 26.4375 86.1471 26.5104 85.9102 26.6562C85.6914 26.7839 85.5456 26.8477 85.4727 26.8477C85.2904 26.8477 85.0625 26.7565 84.7891 26.5742C84.5339 26.3737 84.2695 26.2643 83.9961 26.2461C83.7044 26.0456 83.4583 25.8451 83.2578 25.6445C83.0755 25.4258 82.793 25.2982 82.4102 25.2617C82.1549 24.8789 81.8997 24.5143 81.6445 24.168C81.4076 23.8216 81.1706 23.4844 80.9336 23.1562C80.7148 22.8099 80.5143 22.4453 80.332 22.0625C80.168 21.6797 80.0404 21.2513 79.9492 20.7773C79.9674 20.7409 79.9766 20.7044 79.9766 20.668C79.9766 20.5586 79.9219 20.513 79.8125 20.5312C79.7214 20.5495 79.6758 20.4948 79.6758 20.3672V20.1758C79.6758 20.0299 79.6484 19.9023 79.5938 19.793C79.5573 19.6654 79.5482 19.5286 79.5664 19.3828C79.4388 19.1823 79.3385 18.9727 79.2656 18.7539C79.1927 18.5352 79.0651 18.3438 78.8828 18.1797V17.9336C78.8828 17.8242 78.8737 17.724 78.8555 17.6328C78.8555 17.5234 78.8281 17.4323 78.7734 17.3594C78.737 17.2682 78.6732 17.2135 78.582 17.1953C78.5638 16.5391 78.4271 15.8737 78.1719 15.1992C77.9349 14.5065 77.7161 13.8411 77.5156 13.2031C77.3698 13.6771 77.2604 14.1602 77.1875 14.6523C77.1146 15.1263 77.0781 15.6094 77.0781 16.1016V16.5664C77.0781 16.7122 77.0964 16.8581 77.1328 17.0039C77.0781 17.0951 76.9961 17.1589 76.8867 17.1953C76.7956 17.2318 76.7409 17.3047 76.7227 17.4141C76.7044 17.5052 76.6953 17.5964 76.6953 17.6875C76.7135 17.7786 76.7135 17.8698 76.6953 17.9609C76.6589 18.3984 76.6042 18.8177 76.5312 19.2188C76.4219 19.8203 76.2943 20.431 76.1484 21.0508C76.0026 21.6523 75.9297 22.2721 75.9297 22.9102C75.9297 22.9466 75.9297 23.0013 75.9297 23.0742C75.9479 23.1289 75.957 23.1745 75.957 23.2109C75.6654 23.4661 75.5104 23.7852 75.4922 24.168C75.474 24.5508 75.4284 24.9154 75.3555 25.2617C75.2643 25.7721 75.1549 26.2826 75.0273 26.793C74.8997 27.2852 74.7904 27.7956 74.6992 28.3242C74.6445 28.6159 74.599 28.9076 74.5625 29.1992C74.526 29.4727 74.4896 29.7552 74.4531 30.0469C74.4349 30.2109 74.3711 30.3477 74.2617 30.457C74.1706 30.5664 74.1068 30.694 74.0703 30.8398C74.0521 30.9674 74.043 31.1133 74.043 31.2773C74.0612 31.4232 74.0703 31.5599 74.0703 31.6875C74.0703 31.9062 74.0521 32.1159 74.0156 32.3164C73.9792 32.4987 73.8698 32.6628 73.6875 32.8086C73.724 33.2826 73.806 33.6836 73.9336 34.0117C74.0612 34.3581 74.207 34.7409 74.3711 35.1602H75.0547V35.2695C75.0547 35.4518 75.082 35.6159 75.1367 35.7617C75.2096 35.9076 75.3464 35.9714 75.5469 35.9531C75.5286 36.026 75.5195 36.1172 75.5195 36.2266C75.5195 36.3906 75.5469 36.5365 75.6016 36.6641C75.6745 36.8099 75.7292 36.9648 75.7656 37.1289C75.401 37.7305 75.0091 38.1771 74.5898 38.4688C74.1706 38.7604 73.5964 38.9062 72.8672 38.9062H72.4297C72.3385 38.6146 72.2292 38.332 72.1016 38.0586C71.974 37.7852 71.8464 37.5117 71.7188 37.2383C71.6094 36.9648 71.5091 36.6823 71.418 36.3906C71.3451 36.1172 71.3086 35.8255 71.3086 35.5156C71.3086 35.4427 71.3177 35.3698 71.3359 35.2969C71.3542 35.2422 71.3633 35.1784 71.3633 35.1055C71.3633 35.0143 71.3268 34.9596 71.2539 34.9414C71.181 34.9232 71.1445 34.832 71.1445 34.668C71.1445 34.5404 71.1354 34.4219 71.1172 34.3125C71.1172 34.2031 71.1172 34.0846 71.1172 33.957C71.1172 33.3555 71.1628 32.763 71.2539 32.1797C71.3451 31.5781 71.4089 30.9766 71.4453 30.375C71.5365 30.2839 71.582 30.1654 71.582 30.0195C71.582 29.8737 71.6276 29.7552 71.7188 29.6641V29.4727C71.7188 29.1445 71.7552 28.8164 71.8281 28.4883C71.901 28.1602 71.9831 27.8411 72.0742 27.5312C72.1654 27.2214 72.2474 26.9023 72.3203 26.5742C72.3932 26.2461 72.4297 25.918 72.4297 25.5898V25.1523C72.4297 25.0247 72.4844 24.9701 72.5938 24.9883C72.7214 24.9883 72.7943 24.9154 72.8125 24.7695C72.849 24.5143 72.8672 24.2682 72.8672 24.0312C72.8854 23.776 72.9128 23.5208 72.9492 23.2656C73.0404 22.7734 73.1406 22.2812 73.25 21.7891C73.3594 21.2786 73.4141 20.7682 73.4141 20.2578V20.1758C73.4141 20.1211 73.4596 20.0117 73.5508 19.8477C73.6419 19.6654 73.6875 19.4922 73.6875 19.3281C73.6875 19.2005 73.6602 19.082 73.6055 18.9727C73.6237 18.9909 73.6602 19 73.7148 19C73.7878 19 73.8333 18.9818 73.8516 18.9453C73.888 18.8906 73.9336 18.8451 73.9883 18.8086C73.9336 18.7357 73.9062 18.6628 73.9062 18.5898C73.9062 18.4987 73.9154 18.4167 73.9336 18.3438C73.9701 18.2526 73.9883 18.1615 73.9883 18.0703C73.9883 17.9427 73.9245 17.8516 73.7969 17.7969C74.0156 17.3958 74.1706 16.9674 74.2617 16.5117C74.3711 16.056 74.444 15.5911 74.4805 15.1172C74.5352 14.6432 74.5807 14.1693 74.6172 13.6953C74.6536 13.2031 74.7357 12.7383 74.8633 12.3008C74.8268 12.1914 74.7995 12.0729 74.7812 11.9453C74.7812 11.8177 74.7812 11.6992 74.7812 11.5898C74.7812 11.5169 74.7721 11.444 74.7539 11.3711C74.7357 11.2799 74.7448 11.1979 74.7812 11.125C74.7812 11.0885 74.7904 11.043 74.8086 10.9883L74.8633 10.8242C74.8997 10.6966 74.918 10.569 74.918 10.4414C74.9362 10.2956 74.9544 10.1497 74.9727 10.0039C75.0091 9.58464 75.0182 9.15625 75 8.71875C75 8.28125 75.0182 7.84375 75.0547 7.40625C75 7.33333 74.9453 7.27865 74.8906 7.24219C74.8359 7.1875 74.7995 7.11458 74.7812 7.02344C74.9271 6.76823 75.082 6.53125 75.2461 6.3125C75.4284 6.07552 75.6654 5.89323 75.957 5.76562C76.0117 5.96615 76.1576 6.06641 76.3945 6.06641C76.5039 6.06641 76.6406 6.03906 76.8047 5.98438C76.9688 5.92969 77.0781 5.85677 77.1328 5.76562C77.4427 5.875 77.7526 5.92969 78.0625 5.92969C78.3906 5.91146 78.6914 5.98438 78.9648 6.14844C79.0195 6.42188 79.0924 6.70443 79.1836 6.99609C79.2747 7.28776 79.4023 7.55208 79.5664 7.78906C79.6029 8.02604 79.6393 8.31771 79.6758 8.66406C79.7122 8.99219 79.7487 9.33854 79.7852 9.70312C79.8216 10.0495 79.8763 10.3867 79.9492 10.7148C80.0221 11.0247 80.1224 11.2708 80.25 11.4531C80.2682 11.7812 80.3229 12.1094 80.4141 12.4375C80.5052 12.7656 80.6055 13.0846 80.7148 13.3945C80.8242 13.6862 80.9154 13.9596 80.9883 14.2148C81.0794 14.4701 81.125 14.6797 81.125 14.8438C81.125 14.9896 81.0977 15.0898 81.043 15.1445C81.0065 15.181 80.9701 15.2539 80.9336 15.3633C81.0065 15.5638 81.1068 15.737 81.2344 15.8828C81.362 16.0104 81.4987 16.1654 81.6445 16.3477C81.918 17.3867 82.2734 18.3984 82.7109 19.3828C83.1484 20.3672 83.6771 21.3151 84.2969 22.2266C84.4609 22.2448 84.5885 22.2904 84.6797 22.3633C84.7891 22.4362 84.9531 22.4544 85.1719 22.418V22.6094C85.1719 22.7917 85.2083 22.9193 85.2812 22.9922C85.4453 23.1016 85.6367 23.1562 85.8555 23.1562C86.0924 23.1562 86.2747 23.0924 86.4023 22.9648C86.5482 22.819 86.6849 22.6549 86.8125 22.4727C86.9401 22.2904 87.0677 22.1172 87.1953 21.9531C87.3229 21.7891 87.4961 21.6797 87.7148 21.625V21.5703C87.7148 21.4245 87.7422 21.306 87.7969 21.2148C87.8698 21.1055 87.9062 20.987 87.9062 20.8594C88.1068 20.7135 88.2617 20.5312 88.3711 20.3125C88.4805 20.0938 88.5807 19.875 88.6719 19.6562C88.763 19.4193 88.8633 19.2005 88.9727 19C89.1003 18.7995 89.2643 18.6354 89.4648 18.5078C89.7201 17.724 90.0299 16.9948 90.3945 16.3203C90.7591 15.6458 91.1419 14.9622 91.543 14.2695C91.543 14.2148 91.5339 14.1602 91.5156 14.1055C91.4974 14.0326 91.4883 13.9688 91.4883 13.9141C91.4883 13.8958 91.5065 13.8138 91.543 13.668C91.6341 13.4857 91.7161 13.3125 91.7891 13.1484C91.862 12.9844 91.9258 12.8021 91.9805 12.6016C92.1628 12.0365 92.3268 11.4805 92.4727 10.9336C92.6367 10.3867 92.8737 9.86719 93.1836 9.375V8.69141C93.5117 8.03516 93.7396 7.34245 93.8672 6.61328C94.013 5.88411 94.1862 5.17318 94.3867 4.48047C94.4232 4.27995 94.487 4.07943 94.5781 3.87891C94.6875 3.66016 94.8151 3.50521 94.9609 3.41406C94.9062 3.30469 94.8789 3.19531 94.8789 3.08594C94.8789 2.9401 94.8971 2.8125 94.9336 2.70313C94.9883 2.57552 95.0339 2.44792 95.0703 2.32031C95.0156 2.19271 94.9883 2.02865 94.9883 1.82813C94.9883 1.57292 95.0612 1.33594 95.207 1.11719C95.3529 0.880208 95.5716 0.72526 95.8633 0.652344C96.0456 0.707031 96.2005 0.798177 96.3281 0.925781C96.4557 1.05339 96.5742 1.1901 96.6836 1.33594C96.8112 1.46354 96.9388 1.57292 97.0664 1.66406C97.2122 1.73698 97.3945 1.75521 97.6133 1.71875C97.7591 1.99219 97.8594 2.28385 97.9141 2.59375C97.9688 2.88542 97.9961 3.1862 97.9961 3.49609C97.9961 3.91536 97.9596 4.35286 97.8867 4.80859C97.8138 5.24609 97.7865 5.69271 97.8047 6.14844C97.6589 6.4401 97.5495 6.75911 97.4766 7.10547C97.4219 7.43359 97.3672 7.77083 97.3125 8.11719C97.2578 8.46354 97.194 8.80078 97.1211 9.12891C97.0482 9.45703 96.9206 9.76693 96.7383 10.0586C96.6836 10.8789 96.6198 11.681 96.5469 12.4648C96.4922 13.2487 96.401 14.0326 96.2734 14.8164L96.0273 16.375C95.9909 16.5026 95.9544 16.6484 95.918 16.8125C95.8815 16.9583 95.8633 17.0859 95.8633 17.1953C95.8633 17.3047 95.8724 17.4232 95.8906 17.5508C95.9089 17.6602 95.9635 17.7422 96.0547 17.7969C95.9271 17.9792 95.8359 18.1979 95.7812 18.4531C95.7266 18.7083 95.6719 18.9818 95.6172 19.2734L95.4805 20.1211C95.444 20.3945 95.3711 20.6406 95.2617 20.8594V21.1602C95.2617 21.8893 95.1341 22.6367 94.8789 23.4023V23.5391C94.8789 23.6302 94.8698 23.7122 94.8516 23.7852C94.8516 23.8398 94.8516 23.9128 94.8516 24.0039C94.8516 24.1315 94.888 24.2318 94.9609 24.3047C94.8151 24.7786 94.6784 25.2708 94.5508 25.7812C94.4232 26.2734 94.332 26.7839 94.2773 27.3125C94.2227 28.0234 94.2135 28.7526 94.25 29.5C94.2865 30.2292 94.1953 30.9401 93.9766 31.6328C94.0859 31.9609 94.1589 32.3164 94.1953 32.6992L94.3047 33.8477C94.3411 34.2305 94.3958 34.5951 94.4688 34.9414C94.5599 35.306 94.724 35.6068 94.9609 35.8438C94.9792 35.8802 94.9883 35.9349 94.9883 36.0078C94.9883 36.1536 94.9518 36.263 94.8789 36.3359C94.9154 36.5182 94.9792 36.6732 95.0703 36.8008C95.1615 36.9284 95.2526 37.0469 95.3438 37.1562C95.4349 37.2839 95.5078 37.4206 95.5625 37.5664C95.6354 37.7122 95.6719 37.8945 95.6719 38.1133C95.8177 38.3138 96.0456 38.4688 96.3555 38.5781C96.6654 38.6875 96.9753 38.7969 97.2852 38.9062C97.6133 39.0156 97.8958 39.1523 98.1328 39.3164C98.3698 39.4987 98.4883 39.7539 98.4883 40.082ZM117.273 15.6094V15.7188C117.146 15.7552 117.082 15.8464 117.082 15.9922C116.882 16.0833 116.672 16.1562 116.453 16.2109C116.234 16.2474 116.025 16.3112 115.824 16.4023C115.624 16.3841 115.414 16.375 115.195 16.375C114.995 16.3568 114.794 16.3477 114.594 16.3477C114.047 16.3477 113.5 16.3659 112.953 16.4023C112.406 16.4388 111.859 16.4388 111.312 16.4023C111.057 16.5482 110.775 16.6667 110.465 16.7578C110.173 16.8307 109.891 16.8672 109.617 16.8672C109.398 16.8672 109.207 16.8398 109.043 16.7852C108.605 17.0039 108.122 17.1862 107.594 17.332C107.083 17.4779 106.564 17.6237 106.035 17.7695C105.507 17.8971 104.996 18.0521 104.504 18.2344C104.03 18.3984 103.611 18.6354 103.246 18.9453C103.21 19.2005 103.182 19.4557 103.164 19.7109C103.146 19.9479 103.137 20.1849 103.137 20.4219C103.137 20.6771 103.146 20.9141 103.164 21.1328C103.201 21.3516 103.264 21.5703 103.355 21.7891C103.447 21.8255 103.547 21.8529 103.656 21.8711C103.784 21.8893 103.893 21.8984 103.984 21.8984C104.076 21.8984 104.167 21.8893 104.258 21.8711C104.349 21.8346 104.413 21.7708 104.449 21.6797C104.723 21.6432 104.996 21.6341 105.27 21.6523C105.543 21.6523 105.816 21.6523 106.09 21.6523C106.363 21.6523 106.628 21.6432 106.883 21.625C107.156 21.6068 107.421 21.5612 107.676 21.4883C107.967 21.4154 108.25 21.3698 108.523 21.3516C108.815 21.3333 109.098 21.3151 109.371 21.2969C109.645 21.2786 109.927 21.2513 110.219 21.2148C110.51 21.1602 110.811 21.0599 111.121 20.9141C111.358 21.0052 111.595 21.0508 111.832 21.0508C112.087 21.0508 112.333 21.069 112.57 21.1055C112.698 21.1966 112.798 21.2969 112.871 21.4062C112.962 21.5156 113.008 21.6432 113.008 21.7891C113.008 22.0443 112.917 22.2995 112.734 22.5547C112.552 22.8099 112.406 23.0469 112.297 23.2656H111.996C111.559 23.2656 111.13 23.3294 110.711 23.457C110.31 23.5664 109.9 23.7031 109.48 23.8672C109.079 24.013 108.669 24.1497 108.25 24.2773C107.849 24.3867 107.43 24.4414 106.992 24.4414C106.919 24.4414 106.874 24.487 106.855 24.5781C106.855 24.651 106.837 24.7057 106.801 24.7422C106.71 24.724 106.573 24.7148 106.391 24.7148C105.971 24.7148 105.57 24.7604 105.188 24.8516C104.805 24.9427 104.413 24.9883 104.012 24.9883C103.902 24.9883 103.793 24.9883 103.684 24.9883C103.574 24.9701 103.465 24.9518 103.355 24.9336C103.264 25.0794 103.146 25.1797 103 25.2344C102.854 25.2708 102.717 25.3438 102.59 25.4531C102.535 25.6172 102.499 25.8177 102.48 26.0547C102.48 26.2917 102.471 26.5378 102.453 26.793C102.453 27.0299 102.435 27.2578 102.398 27.4766C102.362 27.6953 102.289 27.8685 102.18 27.9961C102.198 28.0872 102.271 28.1237 102.398 28.1055C102.526 28.069 102.59 28.1237 102.59 28.2695C102.59 28.4336 102.572 28.6068 102.535 28.7891C102.499 28.9714 102.48 29.1536 102.48 29.3359C102.48 29.6823 102.517 30.0651 102.59 30.4844C102.681 30.8854 102.809 31.2591 102.973 31.6055C103.155 31.9518 103.392 32.2435 103.684 32.4805C103.975 32.6992 104.34 32.8086 104.777 32.8086C105.069 32.8086 105.342 32.7539 105.598 32.6445C105.853 32.5352 106.062 32.3529 106.227 32.0977L106.363 32.0703C106.436 32.0703 106.5 32.0794 106.555 32.0977C106.628 32.1159 106.701 32.125 106.773 32.125C106.883 32.125 107.02 32.0612 107.184 31.9336C107.366 31.7878 107.557 31.6237 107.758 31.4414C107.977 31.2591 108.195 31.0859 108.414 30.9219C108.633 30.7396 108.842 30.612 109.043 30.5391C109.171 30.2839 109.289 30.0286 109.398 29.7734C109.526 29.5182 109.708 29.3177 109.945 29.1719V28.3789C110.128 28.1784 110.319 27.9961 110.52 27.832C110.738 27.668 110.902 27.4583 111.012 27.2031C111.103 27.2396 111.185 27.2669 111.258 27.2852C111.349 27.3034 111.44 27.3125 111.531 27.3125C111.622 27.3125 111.714 27.3034 111.805 27.2852C111.914 27.2669 112.014 27.2396 112.105 27.2031C112.251 27.4036 112.361 27.6315 112.434 27.8867C112.525 28.1237 112.634 28.3516 112.762 28.5703C112.598 28.8984 112.406 29.2904 112.188 29.7461C111.969 30.2018 111.732 30.6576 111.477 31.1133C111.221 31.569 110.948 32.0065 110.656 32.4258C110.383 32.8268 110.109 33.1367 109.836 33.3555C109.781 33.4102 109.663 33.474 109.48 33.5469C109.28 33.6927 109.098 33.8294 108.934 33.957C108.77 34.1029 108.615 34.2669 108.469 34.4492C107.94 34.6133 107.43 34.832 106.938 35.1055C106.464 35.3789 105.99 35.6432 105.516 35.8984C105.297 35.8438 105.06 35.8164 104.805 35.8164C104.586 35.8164 104.367 35.8255 104.148 35.8438C103.93 35.8802 103.693 35.8984 103.438 35.8984C103.365 35.8073 103.255 35.7435 103.109 35.707C102.982 35.6888 102.936 35.5977 102.973 35.4336C102.353 35.3971 101.852 35.224 101.469 34.9141C101.086 34.6224 100.758 34.2578 100.484 33.8203C100.229 33.3828 100.02 32.9089 99.8555 32.3984C99.6914 31.888 99.5182 31.3958 99.3359 30.9219V30.8398C99.3359 30.7487 99.3724 30.694 99.4453 30.6758C99.5182 30.6576 99.5547 30.6029 99.5547 30.5117C99.5547 30.4753 99.5456 30.4479 99.5273 30.4297C99.4727 30.2292 99.4271 30.056 99.3906 29.9102C99.3542 29.7643 99.3359 29.5911 99.3359 29.3906C99.3359 29.099 99.3542 28.8164 99.3906 28.543C99.4271 28.2513 99.4453 27.9596 99.4453 27.668C99.4453 27.3763 99.4089 27.1211 99.3359 26.9023C99.4089 26.8112 99.4727 26.6927 99.5273 26.5469C99.5638 26.3828 99.5911 26.2188 99.6094 26.0547C99.6276 25.8906 99.6367 25.7266 99.6367 25.5625C99.6549 25.3984 99.6823 25.2526 99.7188 25.125C99.6458 24.9245 99.582 24.7513 99.5273 24.6055C99.4727 24.4414 99.4453 24.25 99.4453 24.0312V23.8398C99.6276 23.5299 99.7826 23.2109 99.9102 22.8828C100.038 22.5547 100.174 22.2174 100.32 21.8711V21.7891C100.32 21.2604 100.302 20.7318 100.266 20.2031C100.229 19.6745 100.211 19.1458 100.211 18.6172V18.0977C100.211 17.9154 100.22 17.7422 100.238 17.5781C100.384 17.5052 100.493 17.4049 100.566 17.2773C100.639 17.1497 100.749 17.0495 100.895 16.9766H101.797L101.961 16.7031C102.016 16.612 102.052 16.5117 102.07 16.4023C102.271 16.3477 102.462 16.2747 102.645 16.1836C102.845 16.0742 103.027 15.9648 103.191 15.8555C103.447 15.7096 103.674 15.582 103.875 15.4727C104.094 15.3451 104.303 15.2448 104.504 15.1719C104.723 15.0807 104.951 15.0078 105.188 14.9531C105.424 14.8984 105.698 14.8529 106.008 14.8164C106.154 14.8164 106.245 14.7891 106.281 14.7344C106.336 14.6797 106.409 14.6159 106.5 14.543C106.719 14.5794 106.938 14.6159 107.156 14.6523C107.375 14.6706 107.594 14.6797 107.812 14.6797C108.25 14.6797 108.66 14.5977 109.043 14.4336C109.59 14.4336 110.128 14.4245 110.656 14.4062C111.203 14.388 111.75 14.3789 112.297 14.3789C112.771 14.3789 113.245 14.3971 113.719 14.4336C114.193 14.4701 114.658 14.5339 115.113 14.625C115.277 14.5703 115.46 14.543 115.66 14.543C115.879 14.543 116.098 14.5703 116.316 14.625C116.553 14.6615 116.781 14.6615 117 14.625C117.018 14.8255 117.064 14.9987 117.137 15.1445C117.228 15.2721 117.273 15.4271 117.273 15.6094ZM150.934 28.2422C150.897 28.5156 150.797 28.7253 150.633 28.8711C150.487 29.0169 150.314 29.1536 150.113 29.2812C150.022 29.263 149.931 29.2539 149.84 29.2539C149.767 29.2357 149.685 29.2266 149.594 29.2266C149.029 29.2083 148.491 29.2812 147.98 29.4453C147.488 29.6094 146.978 29.7279 146.449 29.8008C146.267 29.8372 146.094 29.8555 145.93 29.8555C145.784 29.8372 145.629 29.8464 145.465 29.8828C144.882 29.974 144.262 30.0469 143.605 30.1016C142.949 30.1562 142.293 30.2292 141.637 30.3203C140.98 30.3932 140.333 30.4935 139.695 30.6211C139.076 30.7305 138.492 30.8945 137.945 31.1133C137.891 31.0768 137.836 31.0404 137.781 31.0039C137.727 30.9492 137.663 30.9219 137.59 30.9219C137.408 30.9219 137.234 30.9492 137.07 31.0039C136.906 31.0586 136.742 31.0768 136.578 31.0586C136.396 31.168 136.195 31.25 135.977 31.3047C135.776 31.3411 135.566 31.3776 135.348 31.4141C135.147 31.4323 134.947 31.4688 134.746 31.5234C134.546 31.5781 134.354 31.6784 134.172 31.8242C134.026 31.7513 133.844 31.7148 133.625 31.7148C133.424 31.6966 133.288 31.6237 133.215 31.4961C132.796 31.6966 132.349 31.8242 131.875 31.8789C131.419 31.9336 130.954 31.9518 130.48 31.9336C130.171 31.9154 129.815 31.8698 129.414 31.7969C129.013 31.724 128.612 31.6237 128.211 31.4961C127.81 31.3503 127.436 31.1862 127.09 31.0039C126.743 30.8034 126.479 30.5664 126.297 30.293C126.169 30.1107 126.078 29.9102 126.023 29.6914C125.969 29.4727 125.841 29.3086 125.641 29.1992C125.695 28.7799 125.759 28.3698 125.832 27.9688C125.905 27.5677 125.978 27.1576 126.051 26.7383C126.415 26.4284 126.762 26.1003 127.09 25.7539C127.418 25.4076 127.728 25.043 128.02 24.6602C128.366 24.4961 128.685 24.2956 128.977 24.0586C129.286 23.8216 129.587 23.5846 129.879 23.3477C130.189 23.0924 130.49 22.8464 130.781 22.6094C131.091 22.3724 131.419 22.1628 131.766 21.9805C131.82 21.8529 131.893 21.7526 131.984 21.6797C132.094 21.5885 132.203 21.5065 132.312 21.4336C132.422 21.3424 132.522 21.2513 132.613 21.1602C132.704 21.0508 132.768 20.9232 132.805 20.7773C133.443 20.3945 133.999 19.9115 134.473 19.3281C134.947 18.7448 135.257 18.0885 135.402 17.3594C135.092 17.1042 134.737 16.9401 134.336 16.8672C133.953 16.776 133.552 16.7122 133.133 16.6758C132.768 16.6576 132.385 16.6576 131.984 16.6758C131.602 16.694 131.21 16.6849 130.809 16.6484C130.408 16.776 129.988 16.8581 129.551 16.8945C129.132 16.931 128.712 16.9674 128.293 17.0039C127.874 17.0221 127.454 17.0768 127.035 17.168C126.634 17.2409 126.242 17.3867 125.859 17.6055C125.786 17.6055 125.714 17.5964 125.641 17.5781C125.586 17.5599 125.522 17.5508 125.449 17.5508C124.866 17.5326 124.319 17.651 123.809 17.9062C123.298 18.1432 122.797 18.3802 122.305 18.6172C122.268 18.6901 122.25 18.7448 122.25 18.7812C122.25 18.8906 122.268 19 122.305 19.1094C122.359 19.2005 122.387 19.3008 122.387 19.4102C122.368 19.4284 122.359 19.4466 122.359 19.4648C122.359 19.4831 122.35 19.5013 122.332 19.5195C122.314 19.6107 122.286 19.6927 122.25 19.7656C122.232 19.8385 122.204 19.9206 122.168 20.0117C121.967 20.5951 121.858 21.1693 121.84 21.7344C121.822 22.2083 121.822 22.6732 121.84 23.1289C121.858 23.5846 121.858 24.0495 121.84 24.5234C121.803 25.1068 121.712 25.6536 121.566 26.1641C121.658 26.6016 121.74 27.0664 121.812 27.5586C121.885 28.0326 121.977 28.5065 122.086 28.9805C122.195 29.4544 122.323 29.9193 122.469 30.375C122.633 30.8125 122.842 31.2318 123.098 31.6328C123.079 31.6693 123.089 31.6966 123.125 31.7148C123.161 31.7331 123.198 31.7422 123.234 31.7422H123.453C123.544 31.7422 123.581 31.7786 123.562 31.8516C123.599 31.9062 123.626 31.9609 123.645 32.0156C123.663 32.0521 123.699 32.0885 123.754 32.125C123.79 32.1797 123.79 32.2526 123.754 32.3438C123.736 32.7083 123.645 33.0456 123.48 33.3555C123.316 33.6654 123.216 34.0026 123.18 34.3672C122.961 34.4219 122.76 34.4492 122.578 34.4492C122.268 34.431 121.995 34.3398 121.758 34.1758C121.521 34.0299 121.302 33.8477 121.102 33.6289C120.901 33.4102 120.71 33.1914 120.527 32.9727C120.345 32.7357 120.145 32.5352 119.926 32.3711C119.798 31.8607 119.671 31.2956 119.543 30.6758C119.434 30.056 119.242 29.5273 118.969 29.0898C119.042 28.9258 119.078 28.7253 119.078 28.4883C119.096 28.1237 119.06 27.7682 118.969 27.4219C118.896 27.0573 118.878 26.6927 118.914 26.3281C118.914 26.1276 118.932 25.9271 118.969 25.7266C119.023 25.526 119.06 25.3255 119.078 25.125C119.096 24.8151 119.06 24.5143 118.969 24.2227C118.896 23.931 118.868 23.6302 118.887 23.3203C118.905 23.1745 118.932 23.0378 118.969 22.9102C119.023 22.7643 119.096 22.6367 119.188 22.5273C119.096 22.3086 119.069 22.099 119.105 21.8984C119.124 21.5885 119.16 21.2969 119.215 21.0234C119.27 20.75 119.306 20.4766 119.324 20.2031C119.324 20.0573 119.315 19.9206 119.297 19.793C119.279 19.6471 119.251 19.5104 119.215 19.3828L118.969 19.3008C118.859 19.3008 118.75 19.3281 118.641 19.3828C118.549 19.4375 118.467 19.5013 118.395 19.5742C118.322 19.6471 118.258 19.7109 118.203 19.7656C118.148 19.8021 118.094 19.8203 118.039 19.8203C118.003 19.8203 117.957 19.8203 117.902 19.8203C117.866 19.8021 117.829 19.793 117.793 19.793C117.757 19.793 117.684 19.8294 117.574 19.9023C117.483 19.9753 117.365 20.0573 117.219 20.1484C117.091 20.2214 116.964 20.3034 116.836 20.3945C116.708 20.4674 116.608 20.513 116.535 20.5312C116.335 20.4948 116.171 20.431 116.043 20.3398C115.934 20.2305 115.824 20.1302 115.715 20.0391C115.624 19.9297 115.523 19.8385 115.414 19.7656C115.305 19.6745 115.168 19.638 115.004 19.6562C114.949 19.5469 114.922 19.4284 114.922 19.3008C114.904 19.1732 114.904 19.0456 114.922 18.918V18.4805C115.049 18.2435 115.223 18.0521 115.441 17.9062C115.642 17.7422 115.861 17.6055 116.098 17.4961L116.809 17.168C117.046 17.0586 117.264 16.9219 117.465 16.7578H117.711C118.039 16.776 118.322 16.7122 118.559 16.5664C118.814 16.4206 119.051 16.2565 119.27 16.0742C119.488 15.8737 119.707 15.6732 119.926 15.4727C120.163 15.2721 120.418 15.1172 120.691 15.0078C120.892 15.099 121.102 15.181 121.32 15.2539C121.539 15.3086 121.767 15.3451 122.004 15.3633C122.241 15.3633 122.487 15.3268 122.742 15.2539C122.997 15.181 123.198 15.0443 123.344 14.8438C123.435 14.8802 123.508 14.9076 123.562 14.9258C123.635 14.9258 123.717 14.9258 123.809 14.9258C124.082 14.944 124.355 14.9076 124.629 14.8164C124.902 14.707 125.167 14.5794 125.422 14.4336C125.786 14.4518 126.142 14.4336 126.488 14.3789C126.853 14.306 127.208 14.2331 127.555 14.1602C127.919 14.0872 128.275 14.0234 128.621 13.9688C128.986 13.8958 129.35 13.8685 129.715 13.8867C130.316 13.9049 130.909 13.8503 131.492 13.7227C132.076 13.5951 132.668 13.5495 133.27 13.5859C133.689 13.6042 134.099 13.6406 134.5 13.6953C134.919 13.7318 135.339 13.7409 135.758 13.7227C135.995 13.832 136.204 13.9323 136.387 14.0234C136.587 14.0964 136.833 14.1146 137.125 14.0781C137.708 14.5703 138.237 15.1445 138.711 15.8008V16.2656C138.693 16.6849 138.62 17.0951 138.492 17.4961C138.365 17.8971 138.21 18.2982 138.027 18.6992C137.863 19.082 137.681 19.4648 137.48 19.8477C137.28 20.2122 137.089 20.5768 136.906 20.9414C135.721 22.0169 134.536 23.0833 133.352 24.1406C132.167 25.1979 130.945 26.2188 129.688 27.2031C129.651 27.3854 129.596 27.5495 129.523 27.6953C129.469 27.8411 129.432 27.9961 129.414 28.1602C129.414 28.2513 129.423 28.3242 129.441 28.3789C129.569 28.4154 129.678 28.4883 129.77 28.5977C129.879 28.6888 129.915 28.8164 129.879 28.9805H130.125C130.216 28.9805 130.262 29.0169 130.262 29.0898L130.699 29.1172C131.392 29.1536 132.085 29.1354 132.777 29.0625C133.47 28.9896 134.163 28.9076 134.855 28.8164C135.566 28.7253 136.268 28.6432 136.961 28.5703C137.654 28.4792 138.346 28.4245 139.039 28.4062C139.203 28.3516 139.376 28.306 139.559 28.2695C139.741 28.2331 139.905 28.1602 140.051 28.0508H140.133C140.26 28.0508 140.352 28.0872 140.406 28.1602C140.479 28.2331 140.579 28.2786 140.707 28.2969C140.798 28.2969 140.889 28.2786 140.98 28.2422C141.09 28.2057 141.199 28.1784 141.309 28.1602C141.564 28.0872 141.828 28.0417 142.102 28.0234C142.393 28.0052 142.676 27.9779 142.949 27.9414C144.007 27.8503 145.055 27.7956 146.094 27.7773C147.133 27.7409 148.172 27.6042 149.211 27.3672C149.302 27.4948 149.43 27.5859 149.594 27.6406C149.758 27.6771 149.931 27.7227 150.113 27.7773C150.296 27.8138 150.46 27.8594 150.605 27.9141C150.77 27.9688 150.879 28.0781 150.934 28.2422ZM161.16 15.0352C161.124 15.2539 161.069 15.4453 160.996 15.6094C160.941 15.7552 160.932 15.9557 160.969 16.2109C160.786 16.2292 160.641 16.293 160.531 16.4023C160.44 16.4935 160.358 16.6029 160.285 16.7305C160.23 16.8581 160.167 16.9948 160.094 17.1406C160.039 17.2682 159.966 17.3867 159.875 17.4961C160.021 18.1523 160.103 18.8177 160.121 19.4922C160.139 20.1667 160.185 20.832 160.258 21.4883C160.349 22.3268 160.486 23.1562 160.668 23.9766C160.868 24.7786 160.969 25.599 160.969 26.4375C160.969 26.6927 160.96 26.9297 160.941 27.1484C160.941 27.3672 160.941 27.5951 160.941 27.832C160.941 27.9779 160.941 28.1328 160.941 28.2969C160.96 28.4427 160.969 28.5885 160.969 28.7344C160.969 29.263 160.896 29.7917 160.75 30.3203C160.622 30.849 160.522 31.3776 160.449 31.9062C160.23 32.1068 160.039 32.3255 159.875 32.5625C159.729 32.7995 159.574 33.0182 159.41 33.2188C159.246 33.4193 159.055 33.5924 158.836 33.7383C158.617 33.9023 158.344 34.0117 158.016 34.0664C157.961 34.2487 157.852 34.3854 157.688 34.4766C157.542 34.5677 157.414 34.6953 157.305 34.8594H157.25C156.794 34.8594 156.402 34.7956 156.074 34.668C155.746 34.5404 155.436 34.3945 155.145 34.2305C154.871 34.0664 154.589 33.8932 154.297 33.7109C154.005 33.5286 153.668 33.3828 153.285 33.2734C152.775 32.8542 152.31 32.3984 151.891 31.9062C151.471 31.3958 150.997 30.9401 150.469 30.5391C150.341 30.1745 150.168 29.8737 149.949 29.6367C149.749 29.3997 149.548 29.1263 149.348 28.8164C149.257 28.6888 149.184 28.5703 149.129 28.4609C149.092 28.3516 149.038 28.224 148.965 28.0781C148.91 27.9323 148.819 27.832 148.691 27.7773C148.582 27.7227 148.482 27.6589 148.391 27.5859C148.245 27.0208 148.035 26.5013 147.762 26.0273C147.488 25.5534 147.169 25.0977 146.805 24.6602C146.695 24.8607 146.604 25.0794 146.531 25.3164C146.477 25.5352 146.422 25.763 146.367 26C146.312 26.2188 146.24 26.4466 146.148 26.6836C146.076 26.9023 145.975 27.1029 145.848 27.2852V27.3672C145.848 27.4583 145.884 27.513 145.957 27.5312C146.03 27.5495 146.066 27.6042 146.066 27.6953C146.066 27.7135 146.057 27.7318 146.039 27.75C146.039 27.7682 146.039 27.7865 146.039 27.8047C145.948 27.8776 145.875 27.9688 145.82 28.0781C145.784 28.1875 145.693 28.2513 145.547 28.2695C145.565 28.3607 145.574 28.4518 145.574 28.543V28.7891C145.574 29.3177 145.51 29.8464 145.383 30.375C145.273 30.9036 145.219 31.4414 145.219 31.9883V32.3438C145.219 32.4714 145.228 32.5898 145.246 32.6992C145.283 32.8086 145.337 32.918 145.41 33.0273C145.483 33.1367 145.52 33.237 145.52 33.3281C145.52 33.4557 145.465 33.5742 145.355 33.6836C145.483 33.7747 145.629 33.875 145.793 33.9844C145.957 34.0938 146.103 34.2122 146.23 34.3398C146.376 34.4857 146.495 34.6315 146.586 34.7773C146.677 34.9414 146.723 35.1146 146.723 35.2969C146.723 35.6068 146.622 35.8255 146.422 35.9531C146.221 36.0807 145.975 36.181 145.684 36.2539C145.41 36.3268 145.118 36.3906 144.809 36.4453C144.517 36.5182 144.271 36.6367 144.07 36.8008H143.988C143.77 36.8008 143.605 36.737 143.496 36.6094C143.387 36.4818 143.223 36.418 143.004 36.418C142.658 35.8529 142.421 35.2148 142.293 34.5039C142.165 33.8112 142.102 33.1458 142.102 32.5078C142.102 31.724 142.174 30.9401 142.32 30.1562C142.448 29.3724 142.612 28.5977 142.812 27.832C142.995 27.0664 143.195 26.3099 143.414 25.5625C143.651 24.7969 143.87 24.0312 144.07 23.2656L144.098 23.1836C144.098 23.0924 144.07 23.0286 144.016 22.9922C143.979 22.9557 143.961 22.901 143.961 22.8281C143.961 22.7917 143.97 22.7734 143.988 22.7734C144.043 22.5911 144.098 22.418 144.152 22.2539C144.225 22.0898 144.28 21.9076 144.316 21.707C144.426 21.1966 144.499 20.6771 144.535 20.1484C144.59 19.6016 144.617 19.0638 144.617 18.5352C144.635 18.0065 144.654 17.4779 144.672 16.9492C144.708 16.4023 144.772 15.8646 144.863 15.3359C145.009 15.1901 145.146 15.0352 145.273 14.8711C145.401 14.707 145.565 14.5612 145.766 14.4336C146.13 14.4518 146.495 14.5065 146.859 14.5977C147.224 14.6888 147.57 14.8346 147.898 15.0352C148.117 15.819 148.263 16.6029 148.336 17.3867C148.427 18.1706 148.573 18.9544 148.773 19.7383V19.8203C148.773 19.9115 148.819 19.957 148.91 19.957C149.02 19.9388 149.102 19.9661 149.156 20.0391C149.12 20.0938 149.092 20.1576 149.074 20.2305C149.074 20.3034 149.074 20.3763 149.074 20.4492V20.9141C149.111 21.0599 149.156 21.2148 149.211 21.3789C149.266 21.543 149.384 21.6432 149.566 21.6797C149.658 22.263 149.794 22.8008 149.977 23.293C150.159 23.7852 150.368 24.2591 150.605 24.7148C150.842 25.1706 151.098 25.6263 151.371 26.082C151.645 26.5195 151.927 26.9844 152.219 27.4766C152.674 27.8229 153.066 28.224 153.395 28.6797C153.723 29.1172 154.051 29.5456 154.379 29.9648C154.725 30.3659 155.108 30.7214 155.527 31.0312C155.965 31.3411 156.53 31.5326 157.223 31.6055C157.314 31.5326 157.378 31.4323 157.414 31.3047L157.551 30.9219C157.605 30.7943 157.66 30.6849 157.715 30.5938C157.788 30.4844 157.888 30.4023 158.016 30.3477C158.052 29.8372 158.089 29.3177 158.125 28.7891C158.18 28.2604 158.298 27.7591 158.48 27.2852C158.389 27.1211 158.344 26.9206 158.344 26.6836C158.344 26.5013 158.353 26.3281 158.371 26.1641C158.408 26 158.426 25.8359 158.426 25.6719C158.426 25.3255 158.353 25.043 158.207 24.8242C158.207 24.6966 158.216 24.569 158.234 24.4414C158.253 24.2956 158.307 24.1589 158.398 24.0312C158.253 23.6667 158.134 23.2839 158.043 22.8828C157.97 22.4818 157.934 22.0716 157.934 21.6523C157.934 21.4154 157.961 21.1693 158.016 20.9141C157.906 20.6406 157.833 20.3216 157.797 19.957L157.688 18.8359C157.651 18.4531 157.596 18.0977 157.523 17.7695C157.451 17.4414 157.314 17.1771 157.113 16.9766C157.223 16.8125 157.277 16.6211 157.277 16.4023C157.277 16.0378 157.223 15.6914 157.113 15.3633C157.004 15.0352 156.949 14.6888 156.949 14.3242C156.949 14.069 157.004 13.8138 157.113 13.5586C157.514 13.5768 157.906 13.6224 158.289 13.6953C158.69 13.75 159.082 13.7773 159.465 13.7773C159.574 13.9232 159.702 14.0417 159.848 14.1328C159.993 14.224 160.148 14.3151 160.312 14.4063C160.477 14.4792 160.632 14.5612 160.777 14.6523C160.941 14.7435 161.069 14.8711 161.16 15.0352ZM189.844 29.5547C189.844 29.8646 189.762 30.138 189.598 30.375C189.452 30.5938 189.397 30.8672 189.434 31.1953C189.178 31.3411 188.969 31.5326 188.805 31.7695C188.641 32.0065 188.486 32.2526 188.34 32.5078C187.137 33.2917 185.842 33.9206 184.457 34.3945C183.09 34.8867 181.677 35.1328 180.219 35.1328C180.128 35.1328 180.046 35.0872 179.973 34.9961C179.9 34.9232 179.827 34.8411 179.754 34.75C179.681 34.6589 179.599 34.5677 179.508 34.4766C179.435 34.4036 179.344 34.3672 179.234 34.3672C179.107 34.3672 179.007 34.3945 178.934 34.4492C178.934 34.4128 178.934 34.3763 178.934 34.3398C178.952 34.3216 178.961 34.2943 178.961 34.2578C178.961 34.0391 178.934 33.8112 178.879 33.5742C178.824 33.3555 178.797 33.1367 178.797 32.918C178.797 32.6628 178.842 32.4531 178.934 32.2891H179.262C179.444 32.2891 179.617 32.2799 179.781 32.2617C179.964 32.2253 180.155 32.207 180.355 32.207C180.556 32.207 180.738 32.2617 180.902 32.3711C181.905 32.3346 182.853 32.1523 183.746 31.8242C184.658 31.4779 185.578 31.1406 186.508 30.8125C186.654 30.612 186.736 30.3932 186.754 30.1562C186.79 29.901 186.863 29.6641 186.973 29.4453C186.499 29.0443 186.016 28.7344 185.523 28.5156C185.049 28.2786 184.493 28.1966 183.855 28.2695C183.473 28.0326 183.062 27.8958 182.625 27.8594C182.206 27.8229 181.777 27.7682 181.34 27.6953C181.23 27.6771 181.112 27.6589 180.984 27.6406C180.875 27.6042 180.757 27.5859 180.629 27.5859C180.538 27.5859 180.447 27.6133 180.355 27.668C180.283 27.7044 180.264 27.7682 180.301 27.8594C180.21 27.7135 180.082 27.6315 179.918 27.6133C179.772 27.5768 179.645 27.5039 179.535 27.3945C178.952 27.3581 178.441 27.2578 178.004 27.0938C177.566 26.9115 177.083 26.7109 176.555 26.4922C176.409 26.4375 176.263 26.401 176.117 26.3828C175.99 26.3464 175.862 26.2917 175.734 26.2188C175.406 26.0547 175.142 25.8359 174.941 25.5625C174.741 25.2891 174.586 24.9883 174.477 24.6602C174.349 24.3138 174.258 23.9583 174.203 23.5938C174.148 23.2292 174.094 22.8919 174.039 22.582C174.203 22.2904 174.358 21.9896 174.504 21.6797C174.632 21.3698 174.741 21.0417 174.832 20.6953C174.941 20.6406 175.051 20.5951 175.16 20.5586C175.27 20.5221 175.388 20.4766 175.516 20.4219C175.497 20.3854 175.488 20.3398 175.488 20.2852C175.488 20.194 175.516 20.1029 175.57 20.0117C175.643 19.9206 175.661 19.8294 175.625 19.7383C176.026 19.3737 176.409 19 176.773 18.6172C177.156 18.2161 177.484 17.7786 177.758 17.3047C178.031 17.2135 178.25 17.0768 178.414 16.8945C178.578 16.7122 178.742 16.5299 178.906 16.3477C179.07 16.1471 179.253 15.974 179.453 15.8281C179.654 15.6641 179.909 15.5638 180.219 15.5273C180.292 15.3997 180.392 15.2995 180.52 15.2266C180.647 15.1354 180.775 15.0534 180.902 14.9805C181.03 14.9076 181.148 14.8255 181.258 14.7344C181.367 14.6432 181.449 14.5156 181.504 14.3516C181.796 14.3516 182.06 14.2969 182.297 14.1875C182.552 14.0781 182.798 13.9596 183.035 13.832C183.272 13.7044 183.509 13.5859 183.746 13.4766C184.001 13.3672 184.275 13.3125 184.566 13.3125C184.639 13.3125 184.712 13.3216 184.785 13.3398C184.858 13.3398 184.94 13.349 185.031 13.3672C185.159 13.4948 185.241 13.6497 185.277 13.832C185.332 13.9961 185.368 14.1784 185.387 14.3789C185.405 14.5794 185.414 14.7799 185.414 14.9805C185.432 15.181 185.469 15.3633 185.523 15.5273C185.359 15.8372 185.177 16.1471 184.977 16.457C184.794 16.7669 184.548 17.0039 184.238 17.168H184.184C184.056 17.1862 183.938 17.1589 183.828 17.0859C183.719 17.013 183.591 16.9766 183.445 16.9766C183.354 16.9766 183.281 17.0039 183.227 17.0586L183.09 17.1953C183.053 17.2318 182.999 17.2682 182.926 17.3047C182.871 17.3411 182.789 17.3411 182.68 17.3047C182.424 17.3958 182.324 17.5508 182.379 17.7695C182.033 17.806 181.741 17.9154 181.504 18.0977C181.267 18.2617 181.048 18.4531 180.848 18.6719C180.647 18.8724 180.447 19.0638 180.246 19.2461C180.046 19.4102 179.809 19.5013 179.535 19.5195C179.225 20.0664 178.842 20.5495 178.387 20.9688C177.949 21.388 177.585 21.862 177.293 22.3906C177.348 22.5365 177.384 22.6914 177.402 22.8555C177.421 23.0195 177.448 23.1927 177.484 23.375C177.648 23.5938 177.84 23.7852 178.059 23.9492C178.296 24.1133 178.523 24.2773 178.742 24.4414H178.824C179.189 24.4414 179.526 24.5143 179.836 24.6602C180.146 24.7878 180.474 24.8516 180.82 24.8516C181.003 24.8516 181.158 24.8151 181.285 24.7422C181.759 24.8516 182.224 24.9427 182.68 25.0156C183.154 25.0885 183.628 25.1432 184.102 25.1797C184.339 25.2161 184.576 25.2344 184.812 25.2344C185.068 25.2344 185.305 25.2617 185.523 25.3164C185.724 25.3711 185.924 25.444 186.125 25.5352C186.326 25.6081 186.526 25.6901 186.727 25.7812C187.146 25.9635 187.538 26.1641 187.902 26.3828C188.285 26.6016 188.622 26.8659 188.914 27.1758C189.206 27.4674 189.434 27.8138 189.598 28.2148C189.762 28.5977 189.844 29.0443 189.844 29.5547ZM213.605 15.418C213.533 15.6549 213.414 15.8737 213.25 16.0742L212.785 16.6484C212.639 16.8307 212.512 17.0313 212.402 17.25C212.311 17.4505 212.284 17.6875 212.32 17.9609C212.284 17.9609 212.238 17.9609 212.184 17.9609C212.129 17.9427 212.083 17.9336 212.047 17.9336C211.755 17.9336 211.527 18.0065 211.363 18.1523C211.217 18.2799 211.017 18.3893 210.762 18.4805C210.725 18.3711 210.68 18.2708 210.625 18.1797C210.57 18.0703 210.488 17.9974 210.379 17.9609C209.941 18.0521 209.504 18.125 209.066 18.1797C208.629 18.2161 208.191 18.2708 207.754 18.3438C207.553 18.3802 207.353 18.4349 207.152 18.5078C206.952 18.5625 206.742 18.6172 206.523 18.6719C206.414 18.7083 206.296 18.7266 206.168 18.7266C206.04 18.7083 205.913 18.7083 205.785 18.7266C205.348 18.7448 204.874 18.7813 204.363 18.8359C203.853 18.8724 203.397 19.0091 202.996 19.2461C202.814 19.2096 202.622 19.1823 202.422 19.1641C202.221 19.1458 202.021 19.1367 201.82 19.1367C201.383 19.1367 200.9 19.1823 200.371 19.2734C199.861 19.3464 199.405 19.5013 199.004 19.7383C198.913 19.7018 198.812 19.6745 198.703 19.6563C198.612 19.638 198.503 19.6289 198.375 19.6289C198.339 19.6289 198.311 19.638 198.293 19.6563C198.275 19.6563 198.247 19.6563 198.211 19.6563C198.193 19.8203 198.211 19.9844 198.266 20.1484C198.339 20.2943 198.457 20.4128 198.621 20.5039C198.548 20.7044 198.512 20.9232 198.512 21.1602C198.512 21.4701 198.53 21.7799 198.566 22.0898C198.621 22.3997 198.648 22.7096 198.648 23.0195C198.648 23.3659 198.603 23.6393 198.512 23.8398C198.694 24.3867 198.785 24.9701 198.785 25.5898C198.785 25.8086 198.767 26.0273 198.73 26.2461C198.712 26.4466 198.703 26.6654 198.703 26.9023C198.703 27.1029 198.776 27.2669 198.922 27.3945C199.068 27.5039 199.141 27.6589 199.141 27.8594C199.141 27.9323 199.122 28.0052 199.086 28.0781C199.341 28.0234 199.587 27.9505 199.824 27.8594C200.061 27.75 200.307 27.6953 200.562 27.6953C200.708 27.6953 200.845 27.7227 200.973 27.7773C201.118 27.832 201.246 27.9049 201.355 27.9961C201.337 28.0872 201.319 28.1875 201.301 28.2969C201.301 28.4062 201.301 28.5156 201.301 28.625C201.301 28.8255 201.301 29.0169 201.301 29.1992C201.319 29.3633 201.337 29.5456 201.355 29.7461C201.21 30.0013 201.036 30.2292 200.836 30.4297C200.654 30.6302 200.526 30.8854 200.453 31.1953C200.18 31.1953 199.934 31.2591 199.715 31.3867C199.514 31.4961 199.323 31.6237 199.141 31.7695C198.958 31.8971 198.776 32.0247 198.594 32.1523C198.411 32.2617 198.211 32.3164 197.992 32.3164C197.719 32.3164 197.527 32.2799 197.418 32.207C197.309 32.1159 197.227 32.0247 197.172 31.9336C197.117 31.8424 197.062 31.7604 197.008 31.6875C196.971 31.6146 196.88 31.5872 196.734 31.6055C196.698 31.3685 196.625 31.1497 196.516 30.9492C196.406 30.7305 196.288 30.5208 196.16 30.3203C196.051 30.1198 195.932 29.9193 195.805 29.7188C195.695 29.5 195.613 29.2812 195.559 29.0625C195.449 28.5885 195.404 28.0964 195.422 27.5859C195.44 27.0755 195.358 26.5833 195.176 26.1094C195.212 25.8542 195.24 25.599 195.258 25.3438C195.276 25.0703 195.285 24.806 195.285 24.5508C195.285 24.0404 195.267 23.5391 195.23 23.0469C195.212 22.5365 195.194 22.0169 195.176 21.4883C195.048 21.3242 194.966 21.1419 194.93 20.9414C194.911 20.7227 194.893 20.513 194.875 20.3125C194.82 20.2578 194.757 20.2031 194.684 20.1484C194.629 20.0938 194.592 20.0208 194.574 19.9297C194.428 19.8932 194.319 19.875 194.246 19.875C193.991 19.875 193.772 19.9388 193.59 20.0664C193.426 20.1758 193.271 20.2305 193.125 20.2305C192.979 20.2305 192.842 20.2122 192.715 20.1758C192.587 20.1393 192.46 20.1211 192.332 20.1211C192.223 20.1211 192.159 20.1484 192.141 20.2031C192.141 20.2396 192.104 20.276 192.031 20.3125C191.977 20.349 191.849 20.3854 191.648 20.4219C191.448 20.4583 191.22 20.4948 190.965 20.5312C190.728 20.5495 190.491 20.5677 190.254 20.5859C190.035 20.6042 189.889 20.6133 189.816 20.6133C189.525 20.6133 189.306 20.5586 189.16 20.4492C188.996 20.3216 188.805 20.1849 188.586 20.0391C188.622 19.9297 188.641 19.8568 188.641 19.8203C188.641 19.638 188.586 19.4922 188.477 19.3828C188.367 19.2552 188.312 19.1458 188.312 19.0547C188.312 18.8542 188.395 18.6992 188.559 18.5898C188.704 18.4805 188.786 18.3073 188.805 18.0703C189.224 17.888 189.652 17.7513 190.09 17.6602C190.527 17.569 190.974 17.4961 191.43 17.4414C191.885 17.3867 192.332 17.3229 192.77 17.25C193.225 17.1771 193.672 17.0586 194.109 16.8945C194.237 16.9128 194.355 16.931 194.465 16.9492C194.592 16.9492 194.72 16.9492 194.848 16.9492C195.395 16.9492 195.932 16.8945 196.461 16.7852C197.008 16.6576 197.564 16.5938 198.129 16.5938C198.275 16.5938 198.421 16.6029 198.566 16.6211C198.712 16.6393 198.858 16.6667 199.004 16.7031C199.733 16.5938 200.453 16.4753 201.164 16.3477C201.893 16.2201 202.641 16.1107 203.406 16.0195C203.771 15.9831 204.126 15.9557 204.473 15.9375C204.837 15.901 205.202 15.8555 205.566 15.8008C205.694 15.7826 205.785 15.7552 205.84 15.7188C205.913 15.6641 205.949 15.5638 205.949 15.418C206.113 15.4909 206.296 15.5273 206.496 15.5273C206.806 15.5273 207.107 15.4727 207.398 15.3633C207.69 15.2539 207.991 15.1992 208.301 15.1992C208.374 15.1992 208.438 15.2083 208.492 15.2266C208.547 15.2266 208.602 15.2266 208.656 15.2266C208.784 15.2266 208.848 15.1719 208.848 15.0625C208.866 14.9349 208.957 14.8529 209.121 14.8164C209.249 14.7799 209.431 14.7526 209.668 14.7344C209.905 14.7161 210.151 14.6979 210.406 14.6797C210.68 14.6432 210.926 14.6068 211.145 14.5703C211.382 14.5156 211.555 14.4427 211.664 14.3516L211.855 14.0508C212.184 14.069 212.421 14.2148 212.566 14.4883C212.73 14.7435 212.822 15.026 212.84 15.3359C212.913 15.4089 213.013 15.4453 213.141 15.4453C213.286 15.4271 213.414 15.418 213.523 15.418H213.605ZM229.273 31.0039C229.219 31.2591 229.1 31.4688 228.918 31.6328C228.754 31.7786 228.553 31.8971 228.316 31.9883C228.079 32.0794 227.833 32.1432 227.578 32.1797C227.341 32.1979 227.122 32.207 226.922 32.207C226.831 32.207 226.74 32.207 226.648 32.207C226.576 32.1888 226.493 32.1797 226.402 32.1797C226.311 32.1797 226.266 32.2253 226.266 32.3164C226.266 32.4076 226.22 32.4714 226.129 32.5078C226.038 32.4714 225.947 32.444 225.855 32.4258C225.764 32.4076 225.673 32.3984 225.582 32.3984C225.454 32.3984 225.327 32.4076 225.199 32.4258C225.09 32.444 224.98 32.4531 224.871 32.4531C224.725 32.4531 224.616 32.4349 224.543 32.3984C224.488 32.362 224.434 32.3255 224.379 32.2891C224.342 32.2344 224.297 32.1797 224.242 32.125C224.206 32.0703 224.142 32.0247 224.051 31.9883C223.923 31.9336 223.814 31.9245 223.723 31.9609C223.65 31.9974 223.531 31.9427 223.367 31.7969C223.148 31.6146 222.957 31.3958 222.793 31.1406C222.647 30.8672 222.501 30.5846 222.355 30.293C222.21 30.0013 222.055 29.7096 221.891 29.418C221.727 29.1263 221.535 28.8711 221.316 28.6523H221.098C220.77 28.6523 220.542 28.7891 220.414 29.0625C220.323 29.0078 220.232 28.944 220.141 28.8711C220.049 28.7799 219.949 28.707 219.84 28.6523C219.421 28.7799 218.983 28.8893 218.527 28.9805C218.072 29.0716 217.616 29.1172 217.16 29.1172H216.777C216.668 29.1172 216.549 29.099 216.422 29.0625C216.24 29.1354 216.076 29.2266 215.93 29.3359C215.784 29.4271 215.62 29.4727 215.438 29.4727C215.328 29.4727 215.201 29.4362 215.055 29.3633C214.945 29.3633 214.891 29.4089 214.891 29.5C214.909 29.5911 214.854 29.6367 214.727 29.6367H214.48C214.225 29.6367 213.97 29.6458 213.715 29.6641C213.478 29.6823 213.232 29.6914 212.977 29.6914C212.63 29.6914 212.275 29.6458 211.91 29.5547C211.819 29.6094 211.719 29.6367 211.609 29.6367C211.536 29.6732 211.482 29.737 211.445 29.8281C211.409 29.901 211.372 29.974 211.336 30.0469C211.299 30.1016 211.245 30.1562 211.172 30.2109C211.117 30.2474 211.035 30.2565 210.926 30.2383C210.889 30.457 210.798 30.6302 210.652 30.7578C210.507 30.8854 210.434 31.0768 210.434 31.332C210.233 31.4414 210.069 31.5781 209.941 31.7422C209.814 31.9062 209.686 32.0794 209.559 32.2617C209.431 32.444 209.294 32.6172 209.148 32.7812C209.021 32.9453 208.857 33.0729 208.656 33.1641C208.565 33.2734 208.538 33.4466 208.574 33.6836C208.374 33.8477 208.128 33.9935 207.836 34.1211C207.544 34.2487 207.271 34.3125 207.016 34.3125C206.487 34.3125 206.122 34.0299 205.922 33.4648C205.922 33.2826 205.94 33.0911 205.977 32.8906C205.995 32.6719 206.031 32.4714 206.086 32.2891C206.141 32.0885 206.223 31.9154 206.332 31.7695C206.441 31.6055 206.596 31.487 206.797 31.4141C206.797 31.25 206.742 31.1406 206.633 31.0859C206.523 31.013 206.478 30.8945 206.496 30.7305C206.988 30.4935 207.417 30.1836 207.781 29.8008C208.146 29.418 208.474 29.0169 208.766 28.5977C209.076 28.1602 209.385 27.7227 209.695 27.2852C210.005 26.8477 210.352 26.4557 210.734 26.1094V25.5352C211.281 24.9518 211.637 24.2956 211.801 23.5664C212.001 23.5299 212.129 23.4388 212.184 23.293C212.257 23.1471 212.293 22.974 212.293 22.7734C212.384 22.7734 212.439 22.737 212.457 22.6641C212.493 22.5729 212.576 22.5456 212.703 22.582C212.867 22.1445 213.049 21.7435 213.25 21.3789C213.451 21.0143 213.651 20.6497 213.852 20.2852C214.052 19.9023 214.225 19.5104 214.371 19.1094C214.535 18.7083 214.654 18.2617 214.727 17.7695C214.982 17.7513 215.118 17.6328 215.137 17.4141C215.173 17.1771 215.21 16.9674 215.246 16.7852C215.52 16.5299 215.72 16.2292 215.848 15.8828C215.993 15.5365 216.121 15.181 216.23 14.8164C216.34 14.4336 216.458 14.0599 216.586 13.6953C216.732 13.3125 216.932 12.9753 217.188 12.6836V12.6016C217.188 12.5104 217.151 12.4557 217.078 12.4375C217.005 12.401 216.969 12.3372 216.969 12.2461C216.987 12.2279 216.996 12.2096 216.996 12.1914C217.215 12.1003 217.379 11.9544 217.488 11.7539C217.598 11.5352 217.762 11.3802 217.98 11.2891C218.363 11.599 218.701 11.7904 218.992 11.8633C219.284 11.918 219.667 11.9635 220.141 12C220.378 12.2552 220.505 12.5651 220.523 12.9297C220.56 13.276 220.624 13.6224 220.715 13.9688C220.861 14.5521 221.016 15.1263 221.18 15.6914C221.362 16.2383 221.499 16.8034 221.59 17.3867C221.645 17.7331 221.745 18.0612 221.891 18.3711C222.036 18.681 222.137 19 222.191 19.3281C222.228 19.5833 222.228 19.875 222.191 20.2031C222.155 20.513 222.191 20.7865 222.301 21.0234L222.492 21.4609C222.583 21.6615 222.656 21.8711 222.711 22.0898C222.784 22.3086 222.848 22.5273 222.902 22.7461C223.048 23.293 223.176 23.8854 223.285 24.5234C223.413 25.1432 223.604 25.7083 223.859 26.2188C223.951 26.401 224.087 26.5286 224.27 26.6016C224.47 26.6745 224.689 26.7292 224.926 26.7656C225.163 26.7839 225.391 26.793 225.609 26.793C225.846 26.7747 226.047 26.7656 226.211 26.7656H226.484C226.594 26.7656 226.703 26.7839 226.812 26.8203C226.885 26.9661 226.922 27.0938 226.922 27.2031C226.922 27.4219 226.849 27.5951 226.703 27.7227C226.557 27.8503 226.484 27.9961 226.484 28.1602C226.484 28.2513 226.521 28.3516 226.594 28.4609C226.521 28.4427 226.411 28.4336 226.266 28.4336C225.846 28.4336 225.436 28.5065 225.035 28.6523C225.181 28.9622 225.372 29.2266 225.609 29.4453C225.865 29.6458 226.129 29.8372 226.402 30.0195C226.585 29.8737 226.776 29.8008 226.977 29.8008C227.195 29.8008 227.396 29.8555 227.578 29.9648C227.779 30.056 227.988 30.1016 228.207 30.1016C228.371 30.1016 228.49 30.0742 228.562 30.0195C228.708 30.1836 228.827 30.3568 228.918 30.5391C229.009 30.7031 229.128 30.8581 229.273 31.0039ZM220.715 26.6289C220.678 26.319 220.615 26.1003 220.523 25.9727C220.451 25.8268 220.387 25.6536 220.332 25.4531C220.259 25.1979 220.204 24.9245 220.168 24.6328C220.15 24.3411 220.113 24.0586 220.059 23.7852C219.931 23.1654 219.785 22.5456 219.621 21.9258C219.475 21.306 219.284 20.7044 219.047 20.1211C219.12 20.0117 219.156 19.9115 219.156 19.8203V19.7383C218.992 19.556 218.874 19.3372 218.801 19.082C218.728 18.8086 218.655 18.5443 218.582 18.2891C218.527 18.0156 218.445 17.7695 218.336 17.5508C218.245 17.3138 218.09 17.1224 217.871 16.9766C217.816 17.0859 217.789 17.2135 217.789 17.3594C217.789 17.487 217.798 17.6055 217.816 17.7148C217.853 17.8242 217.871 17.9427 217.871 18.0703C217.689 18.1615 217.552 18.3073 217.461 18.5078C217.388 18.6901 217.26 18.8359 217.078 18.9453C216.932 19.5286 216.723 20.0846 216.449 20.6133C216.176 21.1237 215.884 21.6341 215.574 22.1445C215.283 22.6549 215 23.1745 214.727 23.7031C214.453 24.2135 214.234 24.7513 214.07 25.3164C213.833 25.4805 213.669 25.6901 213.578 25.9453C213.505 26.2005 213.469 26.4557 213.469 26.7109C213.633 26.8021 213.815 26.8568 214.016 26.875C214.234 26.875 214.444 26.875 214.645 26.875C214.845 26.875 215.036 26.8932 215.219 26.9297C215.401 26.9661 215.565 27.0573 215.711 27.2031C215.948 27.1302 216.203 27.0846 216.477 27.0664C216.768 27.0299 217.005 26.9479 217.188 26.8203C217.552 26.9479 217.944 27.0117 218.363 27.0117C218.582 27.0117 218.792 26.9935 218.992 26.957C219.211 26.9206 219.421 26.875 219.621 26.8203C219.785 26.8568 219.913 26.9206 220.004 27.0117C220.095 27.0846 220.232 27.112 220.414 27.0938C220.505 27.0208 220.56 26.9479 220.578 26.875C220.596 26.7839 220.642 26.7018 220.715 26.6289ZM249.562 28.0781C249.562 28.2604 249.508 28.4154 249.398 28.543C249.307 28.6523 249.189 28.7526 249.043 28.8438C248.915 28.9349 248.779 29.0169 248.633 29.0898C248.505 29.1628 248.387 29.2539 248.277 29.3633C248.204 29.4362 248.15 29.5273 248.113 29.6367C248.095 29.7279 248.049 29.7917 247.977 29.8281C247.867 29.9193 247.749 29.974 247.621 29.9922C247.493 30.0104 247.357 30.0378 247.211 30.0742C247.083 30.0924 246.956 30.1289 246.828 30.1836C246.701 30.2201 246.591 30.3021 246.5 30.4297C245.643 30.5208 244.796 30.6393 243.957 30.7852C243.137 30.931 242.289 31.0039 241.414 31.0039C241.25 31.0039 241.068 31.0221 240.867 31.0586C240.685 31.0768 240.512 31.0951 240.348 31.1133C239.965 31.1497 239.582 31.1771 239.199 31.1953C238.835 31.2135 238.461 31.2227 238.078 31.2227C237.549 31.2227 237.021 31.2044 236.492 31.168C235.964 31.1133 235.444 31.0312 234.934 30.9219C234.806 30.8307 234.66 30.7578 234.496 30.7031C234.332 30.6484 234.159 30.5938 233.977 30.5391C233.812 30.4844 233.658 30.4206 233.512 30.3477C233.366 30.2747 233.257 30.1654 233.184 30.0195C232.91 30.0013 232.664 29.9466 232.445 29.8555C232.245 29.7643 232.053 29.6641 231.871 29.5547C231.707 29.4271 231.534 29.2995 231.352 29.1719C231.169 29.0443 230.96 28.9349 230.723 28.8438C230.54 28.5885 230.349 28.3424 230.148 28.1055C229.966 27.8503 229.738 27.6406 229.465 27.4766C229.41 27.1302 229.319 26.7839 229.191 26.4375C229.082 26.0911 228.964 25.7539 228.836 25.4258C228.727 25.0794 228.635 24.7331 228.562 24.3867C228.471 24.0404 228.426 23.6849 228.426 23.3203C228.426 23.0651 228.462 22.7552 228.535 22.3906C228.608 22.026 228.699 21.6615 228.809 21.2969C228.936 20.9141 229.082 20.5586 229.246 20.2305C229.41 19.9023 229.574 19.638 229.738 19.4375C229.793 19.3828 229.857 19.3372 229.93 19.3008C230.003 19.2643 230.066 19.2096 230.121 19.1367C230.285 18.9544 230.458 18.8086 230.641 18.6992C230.823 18.5716 231.014 18.4258 231.215 18.2617C231.288 18.1888 231.342 18.1068 231.379 18.0156C231.434 17.9245 231.507 17.8424 231.598 17.7695C231.652 17.7331 231.725 17.724 231.816 17.7422C231.926 17.7604 232.017 17.7422 232.09 17.6875C232.163 17.6328 232.199 17.569 232.199 17.4961C232.199 17.4232 232.227 17.3594 232.281 17.3047C232.299 17.2865 232.354 17.2865 232.445 17.3047C232.536 17.3047 232.591 17.3047 232.609 17.3047C232.737 17.3047 232.883 17.2227 233.047 17.0586C233.211 16.8763 233.348 16.7578 233.457 16.7031C233.585 16.6302 233.712 16.5846 233.84 16.5664C233.967 16.5299 234.104 16.4753 234.25 16.4023C234.451 16.293 234.642 16.2109 234.824 16.1563C235.025 16.0833 235.225 16.0013 235.426 15.9102C235.535 15.8737 235.635 15.8099 235.727 15.7188C235.818 15.6276 235.909 15.5638 236 15.5273C236.164 15.4727 236.337 15.4362 236.52 15.418C236.72 15.3815 236.902 15.3542 237.066 15.3359C237.249 15.2995 237.422 15.263 237.586 15.2266C237.768 15.1719 237.932 15.0807 238.078 14.9531H238.297C238.625 14.9531 238.944 14.9076 239.254 14.8164C239.564 14.7253 239.883 14.6797 240.211 14.6797C240.302 14.6797 240.439 14.6979 240.621 14.7344C240.767 14.6432 240.931 14.5977 241.113 14.5977C241.423 14.5977 241.733 14.6797 242.043 14.8438C242.353 14.9896 242.672 15.0625 243 15.0625H243.164C243.237 15.0625 243.31 15.0534 243.383 15.0352C243.583 15.2357 243.82 15.3451 244.094 15.3633C244.385 15.3815 244.632 15.4635 244.832 15.6094C244.96 15.7188 245.06 15.8464 245.133 15.9922C245.224 16.138 245.297 16.293 245.352 16.457L245.516 16.9492C245.57 17.1133 245.643 17.2591 245.734 17.3867C245.643 18.043 245.37 18.5716 244.914 18.9727C244.477 19.3555 243.921 19.5469 243.246 19.5469C242.991 19.5469 242.772 19.5195 242.59 19.4648C242.426 19.3919 242.271 19.319 242.125 19.2461C241.997 19.1732 241.861 19.1003 241.715 19.0273C241.569 18.9544 241.405 18.8997 241.223 18.8633C241.423 18.4987 241.551 18.1068 241.605 17.6875C241.405 17.5964 241.204 17.5326 241.004 17.4961C240.803 17.4596 240.612 17.3958 240.43 17.3047C239.938 17.4323 239.454 17.5234 238.98 17.5781C238.525 17.6146 238.096 17.806 237.695 18.1523C237.604 18.1341 237.504 18.1159 237.395 18.0977C237.303 18.0794 237.212 18.0703 237.121 18.0703C237.012 18.0703 236.793 18.1523 236.465 18.3164C236.137 18.4622 235.781 18.6354 235.398 18.8359C235.034 19.0365 234.678 19.237 234.332 19.4375C234.004 19.638 233.776 19.7747 233.648 19.8477C233.503 19.9388 233.375 20.0482 233.266 20.1758C233.156 20.3034 233.047 20.4401 232.938 20.5859C232.828 20.7135 232.719 20.8411 232.609 20.9688C232.5 21.0781 232.363 21.1602 232.199 21.2148C232.163 21.4154 232.099 21.5885 232.008 21.7344C231.917 21.8802 231.816 22.0352 231.707 22.1992C231.689 22.5273 231.652 22.8555 231.598 23.1836C231.561 23.5117 231.543 23.8398 231.543 24.168V24.5234C231.543 24.6328 231.561 24.7331 231.598 24.8242C231.78 25.0612 231.926 25.3255 232.035 25.6172C232.163 25.9089 232.372 26.1094 232.664 26.2188C232.682 26.2917 232.673 26.3372 232.637 26.3555C232.618 26.3737 232.6 26.4193 232.582 26.4922C232.691 26.6927 232.828 26.8568 232.992 26.9844C233.174 27.0938 233.357 27.2122 233.539 27.3398C233.721 27.4492 233.895 27.5677 234.059 27.6953C234.223 27.8229 234.35 27.987 234.441 28.1875C234.715 28.1875 234.97 28.2331 235.207 28.3242C235.462 28.4154 235.699 28.5156 235.918 28.625C236.155 28.7344 236.374 28.8346 236.574 28.9258C236.793 29.0169 237.012 29.0625 237.23 29.0625C237.431 29.0625 237.613 29.0352 237.777 28.9805C238.251 29.1263 238.725 29.2357 239.199 29.3086C239.691 29.3633 240.184 29.3906 240.676 29.3906C241.277 29.3906 241.879 29.3542 242.48 29.2812C243.082 29.2083 243.684 29.1445 244.285 29.0898C244.504 29.0534 244.714 29.0352 244.914 29.0352C245.115 29.0352 245.315 29.0169 245.516 28.9805C245.771 28.944 246.008 28.8255 246.227 28.625C246.464 28.4245 246.691 28.2786 246.91 28.1875C247.111 28.3151 247.348 28.3789 247.621 28.3789C247.931 28.3789 248.232 28.3333 248.523 28.2422C248.815 28.1328 249.116 28.0781 249.426 28.0781H249.562ZM270.973 31.6055C270.973 31.7513 270.909 31.8698 270.781 31.9609C270.654 32.0521 270.508 32.1432 270.344 32.2344L269.852 32.4805C269.688 32.5534 269.578 32.6536 269.523 32.7813C269.323 32.7266 269.122 32.6901 268.922 32.6719C268.74 32.6536 268.557 32.6445 268.375 32.6445C268.138 32.6445 267.892 32.6719 267.637 32.7266C267.382 32.763 267.181 32.8815 267.035 33.082C266.944 33.0456 266.862 33.0273 266.789 33.0273H266.57C266.297 33.0273 266.014 33.0456 265.723 33.082C265.449 33.1367 265.176 33.1641 264.902 33.1641C264.757 33.1641 264.611 33.1549 264.465 33.1367C264.337 33.1185 264.219 33.0638 264.109 32.9727C263.945 33.0273 263.772 33.0547 263.59 33.0547C263.353 33.0547 263.125 33.0182 262.906 32.9453C262.688 32.8724 262.469 32.7904 262.25 32.6992C262.049 32.5898 261.84 32.4896 261.621 32.3984C261.402 32.3073 261.184 32.2344 260.965 32.1797L260.773 31.7969C260.482 31.7422 260.208 31.6602 259.953 31.5508C259.716 31.4232 259.479 31.2865 259.242 31.1406C259.005 30.9948 258.768 30.8581 258.531 30.7305C258.312 30.5846 258.085 30.4844 257.848 30.4297C257.757 30.3568 257.674 30.293 257.602 30.2383C257.529 30.1654 257.474 30.0651 257.438 29.9375C257.201 29.8828 256.982 29.8099 256.781 29.7188L256.207 29.418C256.025 29.3086 255.815 29.2174 255.578 29.1445C255.359 29.0534 255.095 28.9987 254.785 28.9805C254.676 28.8164 254.521 28.6615 254.32 28.5156C254.12 28.3698 253.919 28.2969 253.719 28.2969C253.591 28.2969 253.491 28.3242 253.418 28.3789V28.5156C253.418 28.7344 253.482 28.9531 253.609 29.1719C253.737 29.3906 253.901 29.5456 254.102 29.6367C254.083 29.6732 254.074 29.7279 254.074 29.8008C254.074 29.9102 254.092 30.0195 254.129 30.1289C254.184 30.2383 254.275 30.3112 254.402 30.3477C254.329 30.5482 254.238 30.7578 254.129 30.9766C254.02 31.1771 253.883 31.3685 253.719 31.5508C253.555 31.7331 253.372 31.888 253.172 32.0156C252.99 32.125 252.78 32.1797 252.543 32.1797C252.47 32.2161 252.415 32.2708 252.379 32.3438C252.361 32.4167 252.342 32.4987 252.324 32.5898C252.324 32.6628 252.306 32.7357 252.27 32.8086C252.251 32.8815 252.215 32.9362 252.16 32.9727C252.087 32.9909 251.987 33 251.859 33C251.677 33 251.522 32.9727 251.395 32.918C251.267 32.8633 251.13 32.7904 250.984 32.6992V32.5898C250.984 32.3711 250.939 32.1979 250.848 32.0703C250.775 31.9427 250.684 31.8242 250.574 31.7148C250.483 31.5872 250.392 31.4596 250.301 31.332C250.228 31.2044 250.191 31.0312 250.191 30.8125C250.137 30.849 250.073 30.8763 250 30.8945C249.945 30.9128 249.909 30.9492 249.891 31.0039C249.854 30.8216 249.836 30.6667 249.836 30.5391C249.836 30.1745 249.891 29.8281 250 29.5C250.128 29.1719 250.191 28.8255 250.191 28.4609V28.0508C250.191 27.6315 250.182 27.2214 250.164 26.8203C250.146 26.4193 250.137 26.0182 250.137 25.6172C250.137 25.2708 250.146 24.9336 250.164 24.6055C250.182 24.2591 250.219 23.9128 250.273 23.5664C250.474 22.3633 250.638 21.1693 250.766 19.9844C250.911 18.7813 251.139 17.5872 251.449 16.4023C251.431 16.3112 251.404 16.2201 251.367 16.1289C251.349 16.0378 251.34 15.9466 251.34 15.8555C251.34 15.7826 251.349 15.737 251.367 15.7188C251.44 15.3542 251.604 15.0534 251.859 14.8164C252.115 14.5612 252.443 14.4336 252.844 14.4336H252.926C253.145 14.5247 253.309 14.6615 253.418 14.8438C253.546 15.0078 253.737 15.0716 253.992 15.0352C253.992 15.0716 253.983 15.1081 253.965 15.1445C253.965 15.181 253.965 15.2174 253.965 15.2539C253.965 15.4544 254.02 15.6003 254.129 15.6914C254.238 15.7826 254.366 15.8828 254.512 15.9922C254.421 16.1745 254.357 16.3841 254.32 16.6211C254.302 16.8581 254.284 17.0951 254.266 17.332C254.247 17.569 254.211 17.7969 254.156 18.0156C254.12 18.2344 254.038 18.4167 253.91 18.5625C253.983 18.7448 254.029 18.9271 254.047 19.1094C254.065 19.2917 254.074 19.4831 254.074 19.6836C254.074 19.8841 254.065 20.0938 254.047 20.3125C254.029 20.513 254.02 20.7227 254.02 20.9414C254.02 21.1419 254.047 21.3242 254.102 21.4883C254.503 21.4883 254.73 21.2969 254.785 20.9141C255.259 20.7865 255.678 20.6133 256.043 20.3945C256.426 20.1576 256.79 19.9115 257.137 19.6563C257.483 19.401 257.82 19.1367 258.148 18.8633C258.495 18.5898 258.878 18.3529 259.297 18.1523V18.0977C259.297 18.0065 259.324 17.9518 259.379 17.9336C259.434 17.8971 259.443 17.8151 259.406 17.6875C259.68 17.5964 259.908 17.4779 260.09 17.332C260.29 17.168 260.473 16.9948 260.637 16.8125L261.156 16.2383C261.339 16.0378 261.539 15.8646 261.758 15.7188C261.904 15.4089 262.031 15.0807 262.141 14.7344C262.268 14.388 262.432 14.069 262.633 13.7773C262.979 13.7773 263.353 13.8047 263.754 13.8594C264.173 13.9141 264.529 14.0417 264.82 14.2422C264.784 14.388 264.848 14.4883 265.012 14.543C264.811 15.3086 264.51 16.0013 264.109 16.6211C263.708 17.2227 263.189 17.7331 262.551 18.1523C262.46 18.3529 262.341 18.526 262.195 18.6719C262.049 18.8177 261.904 18.9635 261.758 19.1094C261.612 19.237 261.466 19.3737 261.32 19.5195C261.174 19.6654 261.056 19.8385 260.965 20.0391C260.746 20.0755 260.555 20.1393 260.391 20.2305C260.245 20.3216 260.099 20.431 259.953 20.5586C259.826 20.668 259.68 20.7773 259.516 20.8867C259.37 20.9779 259.206 21.0508 259.023 21.1055C258.878 21.2878 258.704 21.4427 258.504 21.5703C258.322 21.6979 258.13 21.8255 257.93 21.9531C257.747 22.0625 257.574 22.1901 257.41 22.3359C257.246 22.4635 257.128 22.6367 257.055 22.8555H256.344C256.143 23.2018 255.879 23.4935 255.551 23.7305C255.241 23.9492 254.922 24.1589 254.594 24.3594C254.648 24.5781 254.749 24.7604 254.895 24.9062C255.04 25.0339 255.195 25.1523 255.359 25.2617C255.542 25.3711 255.715 25.4896 255.879 25.6172C256.061 25.7266 256.216 25.8633 256.344 26.0273C257.109 26.319 257.848 26.6562 258.559 27.0391C259.27 27.4036 259.944 27.8503 260.582 28.3789C260.618 28.3607 260.664 28.3516 260.719 28.3516C260.865 28.3516 260.983 28.3971 261.074 28.4883C261.165 28.5612 261.293 28.5885 261.457 28.5703C261.53 28.7526 261.63 28.8802 261.758 28.9531C261.885 29.0078 262.013 29.0534 262.141 29.0898C262.286 29.1263 262.423 29.181 262.551 29.2539C262.678 29.3268 262.77 29.4544 262.824 29.6367C263.098 29.6549 263.344 29.7096 263.562 29.8008C263.799 29.8919 264.009 30.0378 264.191 30.2383H264.52C265.103 30.2383 265.668 30.293 266.215 30.4023C266.762 30.5117 267.318 30.5664 267.883 30.5664C268.174 30.5664 268.457 30.5482 268.73 30.5117C269.004 30.457 269.268 30.3659 269.523 30.2383C269.615 30.293 269.715 30.3477 269.824 30.4023C269.934 30.457 270.052 30.4844 270.18 30.4844C270.271 30.4844 270.408 30.4661 270.59 30.4297C270.608 30.6302 270.672 30.8216 270.781 31.0039C270.909 31.1862 270.973 31.3867 270.973 31.6055Z" fill="#0B0B0B"/>
</svg>
