<svg width="175" height="94" viewBox="0 0 175 94" fill="none" xmlns="http://www.w3.org/2000/svg">
<g clip-path="url(#clip0_215_131)">
<path d="M169.997 39.8489C169.637 38.6012 168.672 37.925 167.74 37.2713C166.929 36.7021 166.164 36.1643 165.695 35.2494C164.402 32.7156 163.7 31.191 161.357 31.0598C159.015 30.9285 158.144 32.3655 156.573 34.7379C156.004 35.5965 155.179 36.0462 154.309 36.5222C153.31 37.0682 152.278 37.631 151.779 38.8281C151.587 39.2591 151.476 39.722 151.453 40.1934C151.342 42.1795 152.833 43.8843 154.586 43.9825C156.338 44.0807 158.697 43.3261 160.669 43.4366C162.641 43.5471 164.868 44.5586 166.642 44.658C168.417 44.7574 170.062 43.2284 170.173 41.2423C170.201 40.7709 170.142 40.2985 169.997 39.8489V39.8489Z" fill="black"/>
<path d="M152.122 35.2372C153.63 35.3217 154.94 33.8186 155.049 31.88C155.157 29.9414 154.023 28.3014 152.515 28.2169C151.007 28.1325 149.697 29.6355 149.588 31.5741C149.48 33.5127 150.614 35.1527 152.122 35.2372Z" fill="black"/>
<path d="M157.844 30.8631C159.352 30.9476 160.662 29.4446 160.771 27.506C160.88 25.5674 159.745 23.9274 158.238 23.8429C156.73 23.7584 155.42 25.2615 155.311 27.2001C155.202 29.1386 156.337 30.7787 157.844 30.8631Z" fill="black"/>
<path d="M164.865 31.2562C166.372 31.3407 167.683 29.8376 167.791 27.8991C167.9 25.9605 166.766 24.3205 165.258 24.236C163.75 24.1515 162.44 25.6545 162.331 27.5931C162.223 29.5317 163.357 31.1717 164.865 31.2562Z" fill="black"/>
<path d="M170.063 36.2425C171.57 36.327 172.881 34.824 172.989 32.8854C173.098 30.9468 171.964 29.3068 170.456 29.2223C168.948 29.1378 167.638 30.6409 167.529 32.5795C167.421 34.518 168.555 36.1581 170.063 36.2425Z" fill="black"/>
</g>
<path d="M17.627 27.957C17.8743 27.4128 18.2207 26.9798 18.666 26.6582C19.1113 26.3118 19.6185 26.1387 20.1875 26.1387C20.3854 26.1387 20.6452 26.2005 20.9668 26.3242C21.2884 26.4479 21.4492 26.6458 21.4492 26.918C21.4492 27.1159 21.4245 27.3014 21.375 27.4746C21.3503 27.623 21.3132 27.8333 21.2637 28.1055C20.8184 30.2083 20.4225 32.3483 20.0762 34.5254C19.7546 36.7025 19.4701 38.8424 19.2227 40.9453C18.9753 43.0482 18.765 45.0768 18.5918 47.0312C18.4434 48.9609 18.3197 50.7546 18.2207 52.4121C18.1465 54.0697 18.0846 55.5417 18.0352 56.8281C18.0104 58.0898 17.998 59.1042 17.998 59.8711C17.998 61.1081 17.9857 62.3698 17.9609 63.6562C17.9609 64.9427 17.9609 66.1549 17.9609 67.293C17.9609 68.4062 17.9486 69.3958 17.9238 70.2617C17.9238 71.1276 17.9238 71.7461 17.9238 72.1172C17.9238 72.2161 17.9238 72.3522 17.9238 72.5254C17.9238 72.6986 17.8991 72.8594 17.8496 73.0078C17.8001 73.181 17.7135 73.3294 17.5898 73.4531C17.4909 73.5768 17.3424 73.6387 17.1445 73.6387C16.8229 73.6387 16.526 73.5768 16.2539 73.4531C15.9818 73.3294 15.722 73.181 15.4746 73.0078C15.2272 72.8594 14.9798 72.7233 14.7324 72.5996C14.5098 72.4759 14.2871 72.4141 14.0645 72.4141C13.7923 72.4141 13.5697 72.5007 13.3965 72.6738C13.2233 72.847 13.013 72.9336 12.7656 72.9336C12.4688 72.9336 12.2337 72.8594 12.0605 72.7109C11.8874 72.5625 11.7637 72.377 11.6895 72.1543C11.6152 71.9316 11.5658 71.6966 11.541 71.4492C11.541 71.2018 11.541 70.9792 11.541 70.7812C11.541 70.3112 11.541 69.569 11.541 68.5547C11.5658 67.5404 11.5905 66.4023 11.6152 65.1406C11.6647 63.8542 11.7142 62.5182 11.7637 61.1328C11.8132 59.7227 11.8626 58.3991 11.9121 57.1621C11.9863 55.7272 12.0729 54.1934 12.1719 52.5605C12.2956 50.903 12.4316 49.2578 12.5801 47.625C12.7285 45.9922 12.877 44.4089 13.0254 42.875C13.1986 41.3164 13.347 39.9062 13.4707 38.6445C13.6191 37.3581 13.7428 36.2695 13.8418 35.3789C13.9655 34.4883 14.0521 33.8698 14.1016 33.5234C14.2747 32.4349 14.4479 31.5072 14.6211 30.7402C14.819 29.9733 15.0293 29.4538 15.252 29.1816C15.4251 28.959 15.6354 28.7611 15.8828 28.5879C16.0807 28.4395 16.3281 28.3034 16.625 28.1797C16.9219 28.0312 17.2559 27.957 17.627 27.957ZM22.748 22.0566C20.9173 22.0566 19.0495 22.2546 17.1445 22.6504C15.2396 23.0215 13.5078 23.64 11.9492 24.5059C10.3906 25.3717 9.10417 26.5221 8.08984 27.957C7.10026 29.3672 6.60547 31.1237 6.60547 33.2266C6.60547 34.3151 6.74154 35.3542 7.01367 36.3438C7.28581 37.3333 7.60742 38.2363 7.97852 39.0527C8.34961 39.8691 8.7207 40.5742 9.0918 41.168C9.46289 41.737 9.75977 42.1576 9.98242 42.4297C10.1061 42.5781 10.2174 42.7513 10.3164 42.9492C10.4154 43.1471 10.4648 43.3203 10.4648 43.4688C10.4648 43.6667 10.3783 43.8398 10.2051 43.9883C10.0566 44.1367 9.77214 44.2109 9.35156 44.2109C8.75781 44.2109 7.96615 44.013 6.97656 43.6172C6.01172 43.1966 5.05924 42.5658 4.11914 41.7246C3.20378 40.8835 2.41211 39.8073 1.74414 38.4961C1.07617 37.1849 0.742188 35.6387 0.742188 33.8574C0.742188 32.5957 0.989583 31.2845 1.48438 29.9238C1.97917 28.5632 2.69661 27.2272 3.63672 25.916C4.60156 24.5801 5.77669 23.3184 7.16211 22.1309C8.57227 20.9434 10.168 19.9043 11.9492 19.0137C13.7552 18.123 15.7344 17.418 17.8867 16.8984C20.0638 16.3542 22.4141 16.082 24.9375 16.082C28.3021 16.082 31.2461 16.6263 33.7695 17.7148C36.293 18.7786 38.3958 20.2012 40.0781 21.9824C41.7604 23.7637 43.0221 25.8171 43.8633 28.1426C44.7292 30.4681 45.1621 32.8926 45.1621 35.416C45.1621 38.5085 44.6302 41.304 43.5664 43.8027C42.5273 46.3014 41.0182 48.429 39.0391 50.1855C37.0599 51.9421 34.6478 53.3027 31.8027 54.2676C28.9577 55.2077 25.7415 55.6777 22.1543 55.6777C21.8822 55.6777 21.5853 55.6901 21.2637 55.7148C20.9668 55.7148 20.6823 55.6901 20.4102 55.6406C20.1628 55.5664 19.9525 55.4674 19.7793 55.3438C19.6309 55.1953 19.5566 54.9727 19.5566 54.6758C19.5566 54.4036 19.6309 54.1439 19.7793 53.8965C19.9277 53.6491 20.138 53.513 20.4102 53.4883C23.6016 53.2409 26.2858 52.6595 28.4629 51.7441C30.64 50.8288 32.3841 49.666 33.6953 48.2559C35.0312 46.821 35.9837 45.1758 36.5527 43.3203C37.1465 41.4401 37.4434 39.4238 37.4434 37.2715C37.4434 34.5501 37.0599 32.2246 36.293 30.2949C35.526 28.3652 34.4746 26.7943 33.1387 25.582C31.8027 24.3451 30.2441 23.4544 28.4629 22.9102C26.6816 22.3411 24.7767 22.0566 22.748 22.0566ZM61.9355 54.9355C62.084 54.9355 62.2077 54.985 62.3066 55.084C62.4303 55.1829 62.4922 55.3314 62.4922 55.5293C62.4922 55.7272 62.4551 55.9128 62.3809 56.0859C62.0098 57.125 61.6016 58.1022 61.1562 59.0176C60.7357 59.9329 60.3398 60.7493 59.9688 61.4668C59.5234 62.2832 59.0905 63.0501 58.6699 63.7676C58.1504 64.584 57.569 65.3633 56.9258 66.1055C56.3073 66.8229 55.627 67.4661 54.8848 68.0352C54.1426 68.5794 53.3385 69.0124 52.4727 69.334C51.6068 69.6556 50.6914 69.8164 49.7266 69.8164C49.0091 69.8164 48.2174 69.6927 47.3516 69.4453C46.5104 69.1979 45.7188 68.7402 44.9766 68.0723C44.2591 67.4043 43.6654 66.4889 43.1953 65.3262C42.7005 64.1634 42.4531 62.6667 42.4531 60.8359C42.4531 59.9948 42.5397 59.1413 42.7129 58.2754C42.8613 57.4095 43.084 56.5807 43.3809 55.7891C43.653 54.9974 43.9622 54.2552 44.3086 53.5625C44.6797 52.8698 45.0508 52.2637 45.4219 51.7441C46.0651 50.8535 46.7454 50.0247 47.4629 49.2578C48.1803 48.4661 48.8978 47.7858 49.6152 47.2168C50.3574 46.623 51.0749 46.1654 51.7676 45.8438C52.4603 45.5221 53.1035 45.3613 53.6973 45.3613C54.6374 45.3613 55.4538 45.7201 56.1465 46.4375C56.8639 47.1549 57.2227 48.1816 57.2227 49.5176C57.2227 50.6803 56.9258 51.8926 56.332 53.1543C55.7383 54.3913 54.9961 55.6035 54.1055 56.791C53.2148 57.9785 52.2624 59.0794 51.248 60.0938C50.2337 61.1081 49.306 61.9492 48.4648 62.6172C48.9102 63.7305 49.4792 64.5469 50.1719 65.0664C50.8646 65.5859 51.5697 65.8457 52.2871 65.8457C53.4004 65.8457 54.39 65.487 55.2559 64.7695C56.1465 64.0521 56.9382 63.1738 57.6309 62.1348C58.3483 61.0957 58.9668 60.0072 59.4863 58.8691C60.0306 57.7311 60.513 56.7292 60.9336 55.8633C61.082 55.5664 61.2305 55.3438 61.3789 55.1953C61.5273 55.0221 61.7129 54.9355 61.9355 54.9355ZM47.5 56.7168C47.5 58.1764 47.6113 59.4629 47.834 60.5762C48.3288 60.0814 48.8236 59.5247 49.3184 58.9062C49.8379 58.263 50.2956 57.6074 50.6914 56.9395C51.112 56.2715 51.446 55.5911 51.6934 54.8984C51.9655 54.2057 52.1016 53.5378 52.1016 52.8945C52.1016 51.9049 51.8913 51.138 51.4707 50.5938C51.0501 50.0495 50.6296 49.7773 50.209 49.7773C49.9616 49.7773 49.6771 49.9382 49.3555 50.2598C49.0586 50.5566 48.7617 51.002 48.4648 51.5957C48.1927 52.1895 47.9577 52.9193 47.7598 53.7852C47.5866 54.6263 47.5 55.6035 47.5 56.7168ZM76.0371 56.0859C75.2454 58.362 74.528 60.3411 73.8848 62.0234C73.2663 63.7057 72.6354 65.1159 71.9922 66.2539C71.349 67.3672 70.6562 68.2083 69.9141 68.7773C69.1719 69.3216 68.2812 69.5938 67.2422 69.5938C66.6484 69.5938 66.0176 69.4206 65.3496 69.0742C64.6816 68.7526 64.0632 68.1217 63.4941 67.1816C62.9251 66.2415 62.4551 64.9303 62.084 63.248C61.7129 61.541 61.5273 59.3268 61.5273 56.6055C61.5273 55.888 61.5521 54.9479 61.6016 53.7852C61.6758 52.5977 61.75 51.2865 61.8242 49.8516C61.9232 48.3919 62.0345 46.8581 62.1582 45.25C62.2819 43.6172 62.418 41.9844 62.5664 40.3516C62.4427 40.3763 62.3314 40.401 62.2324 40.4258C62.1335 40.4258 62.0221 40.4258 61.8984 40.4258C60.5625 40.5742 59.5853 40.7103 58.9668 40.834C58.3483 40.9329 57.9772 41.0443 57.8535 41.168C57.7298 41.2669 57.668 41.3906 57.668 41.5391C57.668 41.6628 57.668 41.7865 57.668 41.9102C57.6432 42.0091 57.6061 42.1081 57.5566 42.207C57.4824 42.2812 57.3464 42.3184 57.1484 42.3184C57.0247 42.3184 56.8763 42.2936 56.7031 42.2441C56.5052 42.1699 56.3197 42.071 56.1465 41.9473C55.9486 41.7988 55.7878 41.6257 55.6641 41.4277C55.5404 41.2051 55.4785 40.9453 55.4785 40.6484C55.4785 40.3763 55.5404 40.0918 55.6641 39.7949C55.763 39.498 55.8991 39.2135 56.0723 38.9414C56.2454 38.6445 56.5052 38.2858 56.8516 37.8652C57.1732 37.4447 57.6185 37.0241 58.1875 36.6035C58.7318 36.1582 59.4121 35.75 60.2285 35.3789C61.0449 35.0078 62.0098 34.7109 63.123 34.4883C63.2467 33.4492 63.3704 32.5339 63.4941 31.7422C63.6426 30.9258 63.791 30.2083 63.9395 29.5898C64.0879 28.9466 64.224 28.3776 64.3477 27.8828C64.4961 27.3633 64.6445 26.8932 64.793 26.4727C65.0898 25.5078 65.4609 24.778 65.9062 24.2832C66.3516 23.7637 66.8587 23.2194 67.4277 22.6504C68.0462 22.0319 68.5658 21.6237 68.9863 21.4258C69.4316 21.2031 69.7656 21.0794 69.9883 21.0547C70.2109 21.0547 70.4089 21.1289 70.582 21.2773C70.7799 21.401 70.8789 21.6361 70.8789 21.9824C70.8789 22.1803 70.8665 22.3535 70.8418 22.502C70.8171 22.6257 70.7923 22.737 70.7676 22.8359C70.6934 23.1081 70.5697 23.5905 70.3965 24.2832C70.248 24.9759 70.0625 25.8294 69.8398 26.8438C69.6419 27.8333 69.4316 28.959 69.209 30.2207C68.9863 31.4577 68.7884 32.7812 68.6152 34.1914C69.9512 34.2904 71.0645 34.4635 71.9551 34.7109C72.8704 34.9336 73.4271 35.0697 73.625 35.1191C74.0456 35.2676 74.3301 35.4036 74.4785 35.5273C74.627 35.651 74.763 35.8613 74.8867 36.1582C74.9857 36.3561 75.097 36.5169 75.2207 36.6406C75.3691 36.7643 75.5052 36.8757 75.6289 36.9746C75.7773 37.0736 75.901 37.1849 76 37.3086C76.099 37.4323 76.1484 37.6055 76.1484 37.8281C76.1484 38.026 76.099 38.224 76 38.4219C75.901 38.5951 75.7897 38.7064 75.666 38.7559C75.4928 38.8548 75.1712 38.9538 74.7012 39.0527C74.2311 39.127 73.6621 39.2135 72.9941 39.3125C72.3262 39.3867 71.5592 39.4733 70.6934 39.5723C69.8522 39.6465 68.974 39.7331 68.0586 39.832C67.7617 42.8997 67.4648 45.8561 67.168 48.7012C66.8958 51.5462 66.7598 54.082 66.7598 56.3086C66.7598 57.4466 66.8216 58.4857 66.9453 59.4258C67.0938 60.3659 67.304 61.1823 67.5762 61.875C67.8483 62.543 68.1699 63.0625 68.541 63.4336C68.9368 63.8047 69.3822 63.9902 69.877 63.9902C70.3223 63.9902 70.7305 63.7923 71.1016 63.3965C71.4727 62.9759 71.8438 62.4069 72.2148 61.6895C72.5859 60.972 72.957 60.1185 73.3281 59.1289C73.724 58.1393 74.1445 57.0508 74.5898 55.8633C74.8125 55.2448 75.1341 54.9355 75.5547 54.9355C75.9505 54.9355 76.1484 55.1582 76.1484 55.6035C76.1484 55.6777 76.1361 55.7643 76.1113 55.8633C76.0866 55.9622 76.0618 56.0365 76.0371 56.0859ZM114.557 28.5508C114.557 29.8867 114.383 31.2103 114.037 32.5215C113.715 33.8327 113.196 35.1191 112.479 36.3809C111.811 37.5684 111.007 38.5951 110.066 39.4609C109.151 40.3268 108.199 41.0566 107.209 41.6504C106.219 42.2194 105.242 42.6523 104.277 42.9492C103.337 43.2214 102.508 43.3574 101.791 43.3574C101.123 43.3574 100.604 43.2585 100.232 43.0605C99.8861 42.8626 99.7129 42.6152 99.7129 42.3184C99.7129 41.972 100.022 41.6751 100.641 41.4277C101.036 41.2546 101.618 40.9082 102.385 40.3887C103.176 39.8691 103.956 39.1393 104.723 38.1992C105.514 37.2344 106.207 36.0469 106.801 34.6367C107.395 33.2018 107.691 31.5072 107.691 29.5527C107.691 27.821 107.432 26.349 106.912 25.1367C106.393 23.9245 105.712 22.9473 104.871 22.2051C104.03 21.4382 103.077 20.8815 102.014 20.5352C100.975 20.1888 99.9232 20.0156 98.8594 20.0156C96.5833 20.0156 94.5423 20.696 92.7363 22.0566C90.9303 23.4173 89.3965 25.2852 88.1348 27.6602C86.873 30.0104 85.9082 32.7812 85.2402 35.9727C84.5723 39.1393 84.2383 42.5534 84.2383 46.2148C84.2383 48.9115 84.4362 51.3483 84.832 53.5254C85.2526 55.6777 85.8092 57.5827 86.502 59.2402C87.1947 60.873 88.0111 62.2832 88.9512 63.4707C89.8913 64.6335 90.8809 65.5859 91.9199 66.3281C92.959 67.0703 94.0228 67.6146 95.1113 67.9609C96.2246 68.3073 97.3008 68.4805 98.3398 68.4805C100.22 68.4805 101.902 68.1465 103.387 67.4785C104.896 66.7858 106.232 65.8704 107.395 64.7324C108.582 63.5697 109.621 62.2337 110.512 60.7246C111.402 59.1908 112.182 57.5703 112.85 55.8633C112.973 55.5417 113.134 55.3066 113.332 55.1582C113.555 55.0098 113.765 54.9355 113.963 54.9355C114.309 54.9355 114.482 55.1335 114.482 55.5293C114.482 55.7025 114.371 56.1107 114.148 56.7539C113.951 57.3971 113.654 58.1641 113.258 59.0547C112.887 59.9453 112.441 60.9102 111.922 61.9492C111.402 62.9635 110.833 63.9408 110.215 64.8809C108.359 67.7259 106.219 69.8659 103.795 71.3008C101.395 72.7604 98.5625 73.4902 95.2969 73.4902C92.3529 73.4902 89.7552 72.847 87.5039 71.5605C85.2773 70.2741 83.3971 68.5299 81.8633 66.3281C80.3542 64.1263 79.2161 61.5658 78.4492 58.6465C77.6823 55.7272 77.2988 52.6471 77.2988 49.4062C77.2988 45.5221 77.6947 41.9967 78.4863 38.8301C79.278 35.6634 80.2676 32.8678 81.4551 30.4434C82.6673 28.0189 83.9661 25.9655 85.3516 24.2832C86.7617 22.5762 88.0853 21.2402 89.3223 20.2754C89.9655 19.7559 90.7324 19.224 91.623 18.6797C92.5137 18.1354 93.4909 17.653 94.5547 17.2324C95.6185 16.7871 96.7441 16.4284 97.9316 16.1562C99.1439 15.8594 100.381 15.7109 101.643 15.7109C103.622 15.7109 105.403 16.0573 106.986 16.75C108.594 17.418 109.955 18.3333 111.068 19.4961C112.182 20.6589 113.035 22.0195 113.629 23.5781C114.247 25.1367 114.557 26.7943 114.557 28.5508ZM133.779 56.0859C133.037 58.3125 132.344 60.2669 131.701 61.9492C131.058 63.6068 130.415 65.0046 129.771 66.1426C129.128 67.2559 128.436 68.097 127.693 68.666C126.976 69.235 126.172 69.5195 125.281 69.5195C124.663 69.5195 124.143 69.3216 123.723 68.9258C123.327 68.5299 122.993 68.0846 122.721 67.5898C122.449 67.0951 122.238 66.625 122.09 66.1797C121.966 65.7096 121.88 65.4004 121.83 65.252C121.805 65.2025 121.781 65.1283 121.756 65.0293C121.731 64.9303 121.694 64.8809 121.645 64.8809C121.595 64.8809 121.546 64.918 121.496 64.9922C121.471 65.0664 121.434 65.1406 121.385 65.2148C121.311 65.388 121.113 65.7096 120.791 66.1797C120.469 66.6497 120.061 67.1322 119.566 67.627C119.096 68.1217 118.552 68.5671 117.934 68.9629C117.315 69.334 116.647 69.5195 115.93 69.5195C115.361 69.5195 114.804 69.334 114.26 68.9629C113.74 68.5918 113.283 68.097 112.887 67.4785C112.491 66.8353 112.182 66.0807 111.959 65.2148C111.712 64.349 111.588 63.4212 111.588 62.4316C111.588 60.2793 111.934 58.263 112.627 56.3828C113.295 54.4779 114.396 52.5729 115.93 50.668C116.672 49.7526 117.451 48.9362 118.268 48.2188C119.109 47.5013 119.925 46.9076 120.717 46.4375C121.508 45.9427 122.263 45.5716 122.98 45.3242C123.723 45.0768 124.354 44.9531 124.873 44.9531C125.219 44.9531 125.566 45.015 125.912 45.1387C126.258 45.2624 126.568 45.4727 126.84 45.7695C127.112 46.0664 127.322 46.4622 127.471 46.957C127.644 47.4271 127.73 48.0085 127.73 48.7012C127.73 49.4434 127.607 50.2474 127.359 51.1133C127.137 51.9792 126.79 52.7956 126.32 53.5625C125.875 54.3047 125.318 54.9232 124.65 55.418C123.982 55.9128 123.228 56.1602 122.387 56.1602C121.867 56.1602 121.607 55.9622 121.607 55.5664C121.607 55.2943 121.669 54.849 121.793 54.2305C121.941 53.612 122.016 53.0182 122.016 52.4492C122.016 52.2266 122.003 51.9668 121.979 51.6699C121.954 51.3483 121.892 51.0391 121.793 50.7422C121.694 50.4453 121.558 50.1979 121.385 50C121.212 49.8021 120.977 49.7031 120.68 49.7031C120.012 49.7031 119.43 50.0124 118.936 50.6309C118.441 51.2493 118.02 52.0039 117.674 52.8945C117.352 53.7852 117.105 54.7129 116.932 55.6777C116.758 56.6426 116.672 57.4714 116.672 58.1641C116.672 59.1042 116.746 59.8958 116.895 60.5391C117.043 61.1576 117.241 61.6647 117.488 62.0605C117.736 62.4316 118.02 62.7038 118.342 62.877C118.663 63.0254 118.997 63.0996 119.344 63.0996C120.16 63.0996 120.89 62.8275 121.533 62.2832C122.176 61.7142 122.733 61.0957 123.203 60.4277C123.673 59.735 124.057 59.1165 124.354 58.5723C124.675 58.0033 124.935 57.7188 125.133 57.7188C125.355 57.7188 125.504 57.9785 125.578 58.498C125.727 59.6113 125.887 60.5267 126.061 61.2441C126.234 61.9616 126.407 62.5306 126.58 62.9512C126.753 63.347 126.926 63.6315 127.1 63.8047C127.298 63.9531 127.495 64.0273 127.693 64.0273C128.064 64.0273 128.436 63.8171 128.807 63.3965C129.178 62.9512 129.549 62.3574 129.92 61.6152C130.291 60.873 130.674 60.0072 131.07 59.0176C131.466 58.028 131.887 56.9766 132.332 55.8633C132.604 55.2448 132.926 54.9355 133.297 54.9355C133.668 54.9355 133.854 55.1582 133.854 55.6035C133.854 55.7767 133.829 55.9375 133.779 56.0859ZM150.479 56.0859C149.91 58.0156 149.328 59.7969 148.734 61.4297C148.141 63.0625 147.51 64.4727 146.842 65.6602C146.174 66.8477 145.432 67.7754 144.615 68.4434C143.824 69.1113 142.921 69.4453 141.906 69.4453C140.669 69.4453 139.667 68.8268 138.9 67.5898C138.158 66.3281 137.787 64.6706 137.787 62.6172C137.787 61.7266 137.824 60.8854 137.898 60.0938C137.997 59.3021 138.096 58.5352 138.195 57.793C138.319 57.0508 138.418 56.3333 138.492 55.6406C138.591 54.9479 138.641 54.2676 138.641 53.5996C138.641 52.8822 138.554 52.4121 138.381 52.1895C138.208 51.9668 137.985 51.8555 137.713 51.8555C137.663 51.8555 137.614 51.8678 137.564 51.8926C137.515 51.8926 137.416 51.9049 137.268 51.9297C137.144 51.9297 136.946 51.9544 136.674 52.0039C136.426 52.0286 136.08 52.0658 135.635 52.1152C135.363 52.709 135.14 53.2161 134.967 53.6367C134.794 54.0326 134.645 54.3789 134.521 54.6758C134.398 54.9727 134.286 55.2324 134.188 55.4551C134.113 55.653 134.039 55.8633 133.965 56.0859C133.767 56.556 133.594 56.8529 133.445 56.9766C133.297 57.0755 133.124 57.125 132.926 57.125C132.777 57.125 132.654 57.0632 132.555 56.9395C132.431 56.8158 132.369 56.6426 132.369 56.4199C132.369 56.2715 132.406 56.0983 132.48 55.9004C132.555 55.6777 132.641 55.4056 132.74 55.084C132.864 54.7376 132.988 54.3047 133.111 53.7852C133.26 53.2656 133.408 52.6224 133.557 51.8555C133.062 51.6328 132.641 51.1133 132.295 50.2969C131.924 49.4557 131.738 48.4785 131.738 47.3652C131.738 46.4499 131.899 45.5221 132.221 44.582C132.518 43.6419 132.889 42.7884 133.334 42.0215C133.804 41.2298 134.299 40.5866 134.818 40.0918C135.363 39.597 135.845 39.3496 136.266 39.3496C136.81 39.3496 137.268 39.6836 137.639 40.3516C138.035 40.9948 138.232 41.737 138.232 42.5781C138.232 43.0234 138.183 43.4811 138.084 43.9512C137.985 44.3965 137.874 44.8171 137.75 45.2129C137.651 45.584 137.552 45.9303 137.453 46.252C137.354 46.5488 137.305 46.7839 137.305 46.957C137.305 47.1797 137.391 47.291 137.564 47.291C137.688 47.291 137.911 47.2292 138.232 47.1055L140.051 46.2891C140.719 46.0169 141.288 45.8809 141.758 45.8809C142.549 45.8809 143.069 46.1283 143.316 46.623C143.589 47.1178 143.725 47.8477 143.725 48.8125C143.725 49.2331 143.675 49.9753 143.576 51.0391C143.477 52.0781 143.366 53.2409 143.242 54.5273C143.143 55.7891 143.044 57.0508 142.945 58.3125C142.871 59.5742 142.834 60.6009 142.834 61.3926C142.834 62.2585 142.921 62.9017 143.094 63.3223C143.292 63.7181 143.7 63.916 144.318 63.916C144.764 63.916 145.197 63.6562 145.617 63.1367C146.062 62.6172 146.483 61.9616 146.879 61.1699C147.275 60.3783 147.646 59.5124 147.992 58.5723C148.363 57.6322 148.697 56.7292 148.994 55.8633C149.217 55.2448 149.538 54.9355 149.959 54.9355C150.355 54.9355 150.553 55.1582 150.553 55.6035C150.553 55.6777 150.54 55.752 150.516 55.8262C150.516 55.9004 150.503 55.987 150.479 56.0859ZM167.475 54.9355C167.623 54.9355 167.747 54.985 167.846 55.084C167.969 55.1829 168.031 55.3314 168.031 55.5293C168.031 55.7272 167.994 55.9128 167.92 56.0859C167.549 57.125 167.141 58.1022 166.695 59.0176C166.275 59.9329 165.879 60.7493 165.508 61.4668C165.062 62.2832 164.63 63.0501 164.209 63.7676C163.689 64.584 163.108 65.3633 162.465 66.1055C161.846 66.8229 161.166 67.4661 160.424 68.0352C159.682 68.5794 158.878 69.0124 158.012 69.334C157.146 69.6556 156.23 69.8164 155.266 69.8164C154.548 69.8164 153.757 69.6927 152.891 69.4453C152.049 69.1979 151.258 68.7402 150.516 68.0723C149.798 67.4043 149.204 66.4889 148.734 65.3262C148.24 64.1634 147.992 62.6667 147.992 60.8359C147.992 59.9948 148.079 59.1413 148.252 58.2754C148.4 57.4095 148.623 56.5807 148.92 55.7891C149.192 54.9974 149.501 54.2552 149.848 53.5625C150.219 52.8698 150.59 52.2637 150.961 51.7441C151.604 50.8535 152.285 50.0247 153.002 49.2578C153.719 48.4661 154.437 47.7858 155.154 47.2168C155.896 46.623 156.614 46.1654 157.307 45.8438C157.999 45.5221 158.643 45.3613 159.236 45.3613C160.176 45.3613 160.993 45.7201 161.686 46.4375C162.403 47.1549 162.762 48.1816 162.762 49.5176C162.762 50.6803 162.465 51.8926 161.871 53.1543C161.277 54.3913 160.535 55.6035 159.645 56.791C158.754 57.9785 157.801 59.0794 156.787 60.0938C155.773 61.1081 154.845 61.9492 154.004 62.6172C154.449 63.7305 155.018 64.5469 155.711 65.0664C156.404 65.5859 157.109 65.8457 157.826 65.8457C158.939 65.8457 159.929 65.487 160.795 64.7695C161.686 64.0521 162.477 63.1738 163.17 62.1348C163.887 61.0957 164.506 60.0072 165.025 58.8691C165.57 57.7311 166.052 56.7292 166.473 55.8633C166.621 55.5664 166.77 55.3438 166.918 55.1953C167.066 55.0221 167.252 54.9355 167.475 54.9355ZM153.039 56.7168C153.039 58.1764 153.15 59.4629 153.373 60.5762C153.868 60.0814 154.363 59.5247 154.857 58.9062C155.377 58.263 155.835 57.6074 156.23 56.9395C156.651 56.2715 156.985 55.5911 157.232 54.8984C157.505 54.2057 157.641 53.5378 157.641 52.8945C157.641 51.9049 157.43 51.138 157.01 50.5938C156.589 50.0495 156.169 49.7773 155.748 49.7773C155.501 49.7773 155.216 49.9382 154.895 50.2598C154.598 50.5566 154.301 51.002 154.004 51.5957C153.732 52.1895 153.497 52.9193 153.299 53.7852C153.126 54.6263 153.039 55.6035 153.039 56.7168Z" fill="black"/>
<defs>
<clipPath id="clip0_215_131">
<rect width="25" height="25" fill="white" transform="translate(149.398 21) rotate(3.20693)"/>
</clipPath>
</defs>
</svg>
