<svg width="328" height="140" viewBox="0 0 328 140" fill="none" xmlns="http://www.w3.org/2000/svg">
<path d="M33.3984 23.3876C33.8672 22.3563 34.5234 21.536 35.3672 20.9266C36.2109 20.2704 37.1719 19.9423 38.25 19.9423C38.625 19.9423 39.1172 20.0594 39.7266 20.2938C40.3359 20.5282 40.6406 20.9032 40.6406 21.4188C40.6406 21.7938 40.5938 22.1454 40.5 22.4735C40.4531 22.7548 40.3828 23.1532 40.2891 23.6688C39.4453 27.6532 38.6953 31.7079 38.0391 35.8329C37.4297 39.9579 36.8906 44.0126 36.4219 47.9969C35.9531 51.9813 35.5547 55.8251 35.2266 59.5282C34.9453 63.1844 34.7109 66.5829 34.5234 69.7235C34.3828 72.8641 34.2656 75.6532 34.1719 78.0907C34.125 80.4813 34.1016 82.4032 34.1016 83.8563C34.1016 86.2001 34.0781 88.5907 34.0312 91.0282C34.0312 93.4657 34.0312 95.7626 34.0312 97.9188C34.0312 100.028 34.0078 101.903 33.9609 103.544C33.9609 105.184 33.9609 106.356 33.9609 107.059C33.9609 107.247 33.9609 107.505 33.9609 107.833C33.9609 108.161 33.9141 108.466 33.8203 108.747C33.7266 109.075 33.5625 109.356 33.3281 109.591C33.1406 109.825 32.8594 109.942 32.4844 109.942C31.875 109.942 31.3125 109.825 30.7969 109.591C30.2812 109.356 29.7891 109.075 29.3203 108.747C28.8516 108.466 28.3828 108.208 27.9141 107.974C27.4922 107.739 27.0703 107.622 26.6484 107.622C26.1328 107.622 25.7109 107.786 25.3828 108.114C25.0547 108.442 24.6562 108.606 24.1875 108.606C23.625 108.606 23.1797 108.466 22.8516 108.184C22.5234 107.903 22.2891 107.552 22.1484 107.13C22.0078 106.708 21.9141 106.263 21.8672 105.794C21.8672 105.325 21.8672 104.903 21.8672 104.528C21.8672 103.638 21.8672 102.231 21.8672 100.309C21.9141 98.3876 21.9609 96.2313 22.0078 93.8407C22.1016 91.4032 22.1953 88.8719 22.2891 86.2469C22.3828 83.5751 22.4766 81.0673 22.5703 78.7235C22.7109 76.0048 22.875 73.0985 23.0625 70.0048C23.2969 66.8641 23.5547 63.7469 23.8359 60.6532C24.1172 57.5594 24.3984 54.5594 24.6797 51.6532C25.0078 48.7001 25.2891 46.0282 25.5234 43.6376C25.8047 41.2001 26.0391 39.1376 26.2266 37.4501C26.4609 35.7626 26.625 34.5907 26.7188 33.9344C27.0469 31.8719 27.375 30.1141 27.7031 28.661C28.0781 27.2079 28.4766 26.2235 28.8984 25.7079C29.2266 25.286 29.625 24.911 30.0938 24.5829C30.4688 24.3016 30.9375 24.0438 31.5 23.8094C32.0625 23.5282 32.6953 23.3876 33.3984 23.3876ZM43.1016 12.2079C39.6328 12.2079 36.0938 12.5829 32.4844 13.3329C28.875 14.036 25.5938 15.2079 22.6406 16.8485C19.6875 18.4891 17.25 20.6688 15.3281 23.3876C13.4531 26.0594 12.5156 29.3876 12.5156 33.3719C12.5156 35.4344 12.7734 37.4032 13.2891 39.2782C13.8047 41.1532 14.4141 42.8641 15.1172 44.411C15.8203 45.9579 16.5234 47.2938 17.2266 48.4188C17.9297 49.4969 18.4922 50.2938 18.9141 50.8094C19.1484 51.0907 19.3594 51.4188 19.5469 51.7938C19.7344 52.1688 19.8281 52.4969 19.8281 52.7782C19.8281 53.1532 19.6641 53.4813 19.3359 53.7626C19.0547 54.0438 18.5156 54.1844 17.7188 54.1844C16.5938 54.1844 15.0938 53.8094 13.2188 53.0594C11.3906 52.2626 9.58594 51.0673 7.80469 49.4735C6.07031 47.8798 4.57031 45.8407 3.30469 43.3563C2.03906 40.8719 1.40625 37.9423 1.40625 34.5673C1.40625 32.1766 1.875 29.6923 2.8125 27.1141C3.75 24.536 5.10938 22.0048 6.89062 19.5204C8.71875 16.9891 10.9453 14.5985 13.5703 12.3485C16.2422 10.0985 19.2656 8.12976 22.6406 6.44226C26.0625 4.75476 29.8125 3.41882 33.8906 2.43445C38.0156 1.4032 42.4688 0.887573 47.25 0.887573C53.625 0.887573 59.2031 1.91882 63.9844 3.98132C68.7656 5.99695 72.75 8.69226 75.9375 12.0673C79.125 15.4423 81.5156 19.3329 83.1094 23.7391C84.75 28.1454 85.5703 32.7391 85.5703 37.5204C85.5703 43.3798 84.5625 48.6766 82.5469 53.411C80.5781 58.1454 77.7188 62.1766 73.9688 65.5048C70.2188 68.8329 65.6484 71.411 60.2578 73.2391C54.8672 75.0204 48.7734 75.911 41.9766 75.911C41.4609 75.911 40.8984 75.9344 40.2891 75.9813C39.7266 75.9813 39.1875 75.9344 38.6719 75.8407C38.2031 75.7001 37.8047 75.5126 37.4766 75.2782C37.1953 74.9969 37.0547 74.5751 37.0547 74.0126C37.0547 73.4969 37.1953 73.0048 37.4766 72.536C37.7578 72.0673 38.1562 71.8094 38.6719 71.7626C44.7188 71.2938 49.8047 70.1923 53.9297 68.4579C58.0547 66.7235 61.3594 64.5204 63.8438 61.8485C66.375 59.1298 68.1797 56.0126 69.2578 52.4969C70.3828 48.9344 70.9453 45.1141 70.9453 41.036C70.9453 35.8798 70.2188 31.4735 68.7656 27.8173C67.3125 24.161 65.3203 21.1844 62.7891 18.8876C60.2578 16.5438 57.3047 14.8563 53.9297 13.8251C50.5547 12.7469 46.9453 12.2079 43.1016 12.2079ZM117.352 74.5048C117.633 74.5048 117.867 74.5985 118.055 74.786C118.289 74.9735 118.406 75.2548 118.406 75.6298C118.406 76.0048 118.336 76.3563 118.195 76.6844C117.492 78.6532 116.719 80.5048 115.875 82.2391C115.078 83.9735 114.328 85.5204 113.625 86.8798C112.781 88.4266 111.961 89.8798 111.164 91.2391C110.18 92.786 109.078 94.2626 107.859 95.6688C106.688 97.0282 105.398 98.2469 103.992 99.3251C102.586 100.356 101.062 101.177 99.4219 101.786C97.7812 102.395 96.0469 102.7 94.2188 102.7C92.8594 102.7 91.3594 102.466 89.7188 101.997C88.125 101.528 86.625 100.661 85.2188 99.3954C83.8594 98.1298 82.7344 96.3954 81.8438 94.1923C80.9062 91.9891 80.4375 89.1532 80.4375 85.6844C80.4375 84.0907 80.6016 82.4735 80.9297 80.8329C81.2109 79.1923 81.6328 77.6219 82.1953 76.1219C82.7109 74.6219 83.2969 73.2157 83.9531 71.9032C84.6562 70.5907 85.3594 69.4423 86.0625 68.4579C87.2812 66.7704 88.5703 65.2001 89.9297 63.7469C91.2891 62.2469 92.6484 60.9579 94.0078 59.8798C95.4141 58.7548 96.7734 57.8876 98.0859 57.2782C99.3984 56.6688 100.617 56.3641 101.742 56.3641C103.523 56.3641 105.07 57.0438 106.383 58.4032C107.742 59.7626 108.422 61.7079 108.422 64.2391C108.422 66.4423 107.859 68.7391 106.734 71.1298C105.609 73.4735 104.203 75.7704 102.516 78.0204C100.828 80.2704 99.0234 82.3563 97.1016 84.2782C95.1797 86.2001 93.4219 87.7938 91.8281 89.0594C92.6719 91.1688 93.75 92.7157 95.0625 93.7001C96.375 94.6844 97.7109 95.1766 99.0703 95.1766C101.18 95.1766 103.055 94.4969 104.695 93.1376C106.383 91.7782 107.883 90.1141 109.195 88.1454C110.555 86.1766 111.727 84.1141 112.711 81.9579C113.742 79.8016 114.656 77.9032 115.453 76.2626C115.734 75.7001 116.016 75.2782 116.297 74.9969C116.578 74.6688 116.93 74.5048 117.352 74.5048ZM90 77.8798C90 80.6454 90.2109 83.0829 90.6328 85.1923C91.5703 84.2548 92.5078 83.2001 93.4453 82.0282C94.4297 80.8094 95.2969 79.5673 96.0469 78.3016C96.8438 77.036 97.4766 75.7469 97.9453 74.4344C98.4609 73.1219 98.7188 71.8563 98.7188 70.6376C98.7188 68.7626 98.3203 67.3094 97.5234 66.2782C96.7266 65.2469 95.9297 64.7313 95.1328 64.7313C94.6641 64.7313 94.125 65.036 93.5156 65.6454C92.9531 66.2079 92.3906 67.0516 91.8281 68.1766C91.3125 69.3016 90.8672 70.6844 90.4922 72.3251C90.1641 73.9188 90 75.7704 90 77.8798ZM144.07 76.6844C142.57 80.9969 141.211 84.7469 139.992 87.9344C138.82 91.1219 137.625 93.7938 136.406 95.9501C135.188 98.0594 133.875 99.6532 132.469 100.731C131.062 101.763 129.375 102.278 127.406 102.278C126.281 102.278 125.086 101.95 123.82 101.294C122.555 100.684 121.383 99.4891 120.305 97.7079C119.227 95.9266 118.336 93.4423 117.633 90.2548C116.93 87.0204 116.578 82.8251 116.578 77.6688C116.578 76.3094 116.625 74.5282 116.719 72.3251C116.859 70.0751 117 67.5907 117.141 64.8719C117.328 62.1063 117.539 59.2001 117.773 56.1532C118.008 53.0594 118.266 49.9657 118.547 46.8719C118.312 46.9188 118.102 46.9657 117.914 47.0126C117.727 47.0126 117.516 47.0126 117.281 47.0126C114.75 47.2938 112.898 47.5516 111.727 47.786C110.555 47.9735 109.852 48.1844 109.617 48.4188C109.383 48.6063 109.266 48.8407 109.266 49.1219C109.266 49.3563 109.266 49.5907 109.266 49.8251C109.219 50.0126 109.148 50.2001 109.055 50.3876C108.914 50.5282 108.656 50.5985 108.281 50.5985C108.047 50.5985 107.766 50.5516 107.438 50.4579C107.062 50.3173 106.711 50.1298 106.383 49.8954C106.008 49.6141 105.703 49.286 105.469 48.911C105.234 48.4891 105.117 47.9969 105.117 47.4344C105.117 46.9188 105.234 46.3798 105.469 45.8173C105.656 45.2548 105.914 44.7157 106.242 44.2001C106.57 43.6376 107.062 42.9579 107.719 42.161C108.328 41.3641 109.172 40.5673 110.25 39.7704C111.281 38.9266 112.57 38.1532 114.117 37.4501C115.664 36.7469 117.492 36.1844 119.602 35.7626C119.836 33.7938 120.07 32.0594 120.305 30.5594C120.586 29.0126 120.867 27.6532 121.148 26.4813C121.43 25.2626 121.688 24.1844 121.922 23.2469C122.203 22.2626 122.484 21.3719 122.766 20.5751C123.328 18.7469 124.031 17.3641 124.875 16.4266C125.719 15.4423 126.68 14.411 127.758 13.3329C128.93 12.161 129.914 11.3876 130.711 11.0126C131.555 10.5907 132.188 10.3563 132.609 10.3094C133.031 10.3094 133.406 10.4501 133.734 10.7313C134.109 10.9657 134.297 11.411 134.297 12.0673C134.297 12.4423 134.273 12.7704 134.227 13.0516C134.18 13.286 134.133 13.4969 134.086 13.6844C133.945 14.2001 133.711 15.1141 133.383 16.4266C133.102 17.7391 132.75 19.3563 132.328 21.2782C131.953 23.1532 131.555 25.286 131.133 27.6766C130.711 30.0204 130.336 32.5282 130.008 35.2001C132.539 35.3876 134.648 35.7157 136.336 36.1844C138.07 36.6063 139.125 36.8641 139.5 36.9579C140.297 37.2391 140.836 37.4969 141.117 37.7313C141.398 37.9657 141.656 38.3641 141.891 38.9266C142.078 39.3016 142.289 39.6063 142.523 39.8407C142.805 40.0751 143.062 40.286 143.297 40.4735C143.578 40.661 143.812 40.8719 144 41.1063C144.188 41.3407 144.281 41.6688 144.281 42.0907C144.281 42.4657 144.188 42.8407 144 43.2157C143.812 43.5438 143.602 43.7548 143.367 43.8485C143.039 44.036 142.43 44.2235 141.539 44.411C140.648 44.5516 139.57 44.7157 138.305 44.9032C137.039 45.0438 135.586 45.2079 133.945 45.3954C132.352 45.536 130.688 45.7001 128.953 45.8876C128.391 51.7001 127.828 57.3016 127.266 62.6923C126.75 68.0829 126.492 72.8876 126.492 77.1063C126.492 79.2626 126.609 81.2313 126.844 83.0126C127.125 84.7938 127.523 86.3407 128.039 87.6532C128.555 88.9188 129.164 89.9032 129.867 90.6063C130.617 91.3094 131.461 91.661 132.398 91.661C133.242 91.661 134.016 91.286 134.719 90.536C135.422 89.7391 136.125 88.661 136.828 87.3016C137.531 85.9423 138.234 84.3251 138.938 82.4501C139.688 80.5751 140.484 78.5126 141.328 76.2626C141.75 75.0907 142.359 74.5048 143.156 74.5048C143.906 74.5048 144.281 74.9266 144.281 75.7704C144.281 75.911 144.258 76.0751 144.211 76.2626C144.164 76.4501 144.117 76.5907 144.07 76.6844ZM217.055 24.5126C217.055 27.0438 216.727 29.5516 216.07 32.036C215.461 34.5204 214.477 36.9579 213.117 39.3485C211.852 41.5985 210.328 43.5438 208.547 45.1844C206.812 46.8251 205.008 48.2079 203.133 49.3329C201.258 50.411 199.406 51.2313 197.578 51.7938C195.797 52.3094 194.227 52.5673 192.867 52.5673C191.602 52.5673 190.617 52.3798 189.914 52.0048C189.258 51.6298 188.93 51.161 188.93 50.5985C188.93 49.9423 189.516 49.3798 190.688 48.911C191.438 48.5829 192.539 47.9266 193.992 46.9423C195.492 45.9579 196.969 44.5751 198.422 42.7938C199.922 40.9657 201.234 38.7157 202.359 36.0438C203.484 33.3251 204.047 30.1141 204.047 26.411C204.047 23.1298 203.555 20.3407 202.57 18.0438C201.586 15.7469 200.297 13.8954 198.703 12.4891C197.109 11.036 195.305 9.98132 193.289 9.32507C191.32 8.66882 189.328 8.3407 187.312 8.3407C183 8.3407 179.133 9.62976 175.711 12.2079C172.289 14.786 169.383 18.3251 166.992 22.8251C164.602 27.2782 162.773 32.5282 161.508 38.5751C160.242 44.5751 159.609 51.0438 159.609 57.9813C159.609 63.0907 159.984 67.7079 160.734 71.8329C161.531 75.911 162.586 79.5204 163.898 82.661C165.211 85.7548 166.758 88.4266 168.539 90.6766C170.32 92.8798 172.195 94.6844 174.164 96.0907C176.133 97.4969 178.148 98.5282 180.211 99.1844C182.32 99.8407 184.359 100.169 186.328 100.169C189.891 100.169 193.078 99.536 195.891 98.2704C198.75 96.9579 201.281 95.2235 203.484 93.0673C205.734 90.8641 207.703 88.3329 209.391 85.4735C211.078 82.5673 212.555 79.4969 213.82 76.2626C214.055 75.6532 214.359 75.2079 214.734 74.9266C215.156 74.6454 215.555 74.5048 215.93 74.5048C216.586 74.5048 216.914 74.8798 216.914 75.6298C216.914 75.9579 216.703 76.7313 216.281 77.9501C215.906 79.1688 215.344 80.6219 214.594 82.3094C213.891 83.9969 213.047 85.8251 212.062 87.7938C211.078 89.7157 210 91.5673 208.828 93.3485C205.312 98.7391 201.258 102.794 196.664 105.513C192.117 108.278 186.75 109.661 180.562 109.661C174.984 109.661 170.062 108.442 165.797 106.005C161.578 103.567 158.016 100.263 155.109 96.0907C152.25 91.9188 150.094 87.0673 148.641 81.536C147.188 76.0048 146.461 70.1688 146.461 64.0282C146.461 56.6688 147.211 49.9891 148.711 43.9891C150.211 37.9891 152.086 32.6923 154.336 28.0985C156.633 23.5048 159.094 19.6141 161.719 16.4266C164.391 13.1923 166.898 10.661 169.242 8.83289C170.461 7.84851 171.914 6.8407 173.602 5.80945C175.289 4.7782 177.141 3.86414 179.156 3.06726C181.172 2.22351 183.305 1.54382 185.555 1.0282C187.852 0.465698 190.195 0.184448 192.586 0.184448C196.336 0.184448 199.711 0.840698 202.711 2.1532C205.758 3.41882 208.336 5.1532 210.445 7.35632C212.555 9.55945 214.172 12.1376 215.297 15.0907C216.469 18.0438 217.055 21.1844 217.055 24.5126ZM253.477 76.6844C252.07 80.9032 250.758 84.6063 249.539 87.7938C248.32 90.9344 247.102 93.5829 245.883 95.7391C244.664 97.8485 243.352 99.4423 241.945 100.52C240.586 101.599 239.062 102.138 237.375 102.138C236.203 102.138 235.219 101.763 234.422 101.013C233.672 100.263 233.039 99.4188 232.523 98.4813C232.008 97.5438 231.609 96.6532 231.328 95.8094C231.094 94.9188 230.93 94.3329 230.836 94.0516C230.789 93.9579 230.742 93.8173 230.695 93.6298C230.648 93.4423 230.578 93.3485 230.484 93.3485C230.391 93.3485 230.297 93.4188 230.203 93.5594C230.156 93.7001 230.086 93.8407 229.992 93.9813C229.852 94.3094 229.477 94.9188 228.867 95.8094C228.258 96.7001 227.484 97.6141 226.547 98.5516C225.656 99.4891 224.625 100.333 223.453 101.083C222.281 101.786 221.016 102.138 219.656 102.138C218.578 102.138 217.523 101.786 216.492 101.083C215.508 100.38 214.641 99.4423 213.891 98.2704C213.141 97.0516 212.555 95.6219 212.133 93.9813C211.664 92.3407 211.43 90.5829 211.43 88.7079C211.43 84.6298 212.086 80.8094 213.398 77.2469C214.664 73.6376 216.75 70.0282 219.656 66.4188C221.062 64.6844 222.539 63.1376 224.086 61.7782C225.68 60.4188 227.227 59.2938 228.727 58.4032C230.227 57.4657 231.656 56.7626 233.016 56.2938C234.422 55.8251 235.617 55.5907 236.602 55.5907C237.258 55.5907 237.914 55.7079 238.57 55.9423C239.227 56.1766 239.812 56.5751 240.328 57.1376C240.844 57.7001 241.242 58.4501 241.523 59.3876C241.852 60.2782 242.016 61.3798 242.016 62.6923C242.016 64.0985 241.781 65.6219 241.312 67.2626C240.891 68.9032 240.234 70.4501 239.344 71.9032C238.5 73.3094 237.445 74.4813 236.18 75.4188C234.914 76.3563 233.484 76.8251 231.891 76.8251C230.906 76.8251 230.414 76.4501 230.414 75.7001C230.414 75.1844 230.531 74.3407 230.766 73.1688C231.047 71.9969 231.188 70.8719 231.188 69.7938C231.188 69.3719 231.164 68.8798 231.117 68.3173C231.07 67.7079 230.953 67.1219 230.766 66.5594C230.578 65.9969 230.32 65.5282 229.992 65.1532C229.664 64.7782 229.219 64.5907 228.656 64.5907C227.391 64.5907 226.289 65.1766 225.352 66.3485C224.414 67.5204 223.617 68.9501 222.961 70.6376C222.352 72.3251 221.883 74.0829 221.555 75.911C221.227 77.7391 221.062 79.3094 221.062 80.6219C221.062 82.4032 221.203 83.9032 221.484 85.1219C221.766 86.2938 222.141 87.2548 222.609 88.0048C223.078 88.7079 223.617 89.2235 224.227 89.5516C224.836 89.8329 225.469 89.9735 226.125 89.9735C227.672 89.9735 229.055 89.4579 230.273 88.4266C231.492 87.3485 232.547 86.1766 233.438 84.911C234.328 83.5985 235.055 82.4266 235.617 81.3954C236.227 80.3173 236.719 79.7782 237.094 79.7782C237.516 79.7782 237.797 80.2704 237.938 81.2548C238.219 83.3641 238.523 85.0985 238.852 86.4579C239.18 87.8173 239.508 88.8954 239.836 89.6923C240.164 90.4423 240.492 90.9813 240.82 91.3094C241.195 91.5907 241.57 91.7313 241.945 91.7313C242.648 91.7313 243.352 91.3329 244.055 90.536C244.758 89.6923 245.461 88.5673 246.164 87.161C246.867 85.7548 247.594 84.1141 248.344 82.2391C249.094 80.3641 249.891 78.3719 250.734 76.2626C251.25 75.0907 251.859 74.5048 252.562 74.5048C253.266 74.5048 253.617 74.9266 253.617 75.7704C253.617 76.0985 253.57 76.4032 253.477 76.6844ZM285.117 76.6844C284.039 80.3407 282.938 83.7157 281.812 86.8094C280.688 89.9032 279.492 92.5751 278.227 94.8251C276.961 97.0751 275.555 98.8329 274.008 100.099C272.508 101.364 270.797 101.997 268.875 101.997C266.531 101.997 264.633 100.825 263.18 98.4813C261.773 96.0907 261.07 92.9501 261.07 89.0594C261.07 87.3719 261.141 85.7782 261.281 84.2782C261.469 82.7782 261.656 81.3251 261.844 79.9188C262.078 78.5126 262.266 77.1532 262.406 75.8407C262.594 74.5282 262.688 73.2391 262.688 71.9735C262.688 70.6141 262.523 69.7235 262.195 69.3016C261.867 68.8798 261.445 68.6688 260.93 68.6688C260.836 68.6688 260.742 68.6923 260.648 68.7391C260.555 68.7391 260.367 68.7626 260.086 68.8094C259.852 68.8094 259.477 68.8563 258.961 68.9501C258.492 68.9969 257.836 69.0673 256.992 69.161C256.477 70.286 256.055 71.2469 255.727 72.0438C255.398 72.7938 255.117 73.4501 254.883 74.0126C254.648 74.5751 254.438 75.0673 254.25 75.4891C254.109 75.8641 253.969 76.2626 253.828 76.6844C253.453 77.5751 253.125 78.1376 252.844 78.3719C252.562 78.5594 252.234 78.6532 251.859 78.6532C251.578 78.6532 251.344 78.536 251.156 78.3016C250.922 78.0673 250.805 77.7391 250.805 77.3173C250.805 77.036 250.875 76.7079 251.016 76.3329C251.156 75.911 251.32 75.3954 251.508 74.786C251.742 74.1298 251.977 73.3094 252.211 72.3251C252.492 71.3407 252.773 70.1219 253.055 68.6688C252.117 68.2469 251.32 67.2626 250.664 65.7157C249.961 64.1219 249.609 62.2704 249.609 60.161C249.609 58.4266 249.914 56.6688 250.523 54.8876C251.086 53.1063 251.789 51.4891 252.633 50.036C253.523 48.536 254.461 47.3173 255.445 46.3798C256.477 45.4423 257.391 44.9735 258.188 44.9735C259.219 44.9735 260.086 45.6063 260.789 46.8719C261.539 48.0907 261.914 49.4969 261.914 51.0907C261.914 51.9344 261.82 52.8016 261.633 53.6923C261.445 54.536 261.234 55.3329 261 56.0829C260.812 56.786 260.625 57.4423 260.438 58.0516C260.25 58.6141 260.156 59.0594 260.156 59.3876C260.156 59.8094 260.32 60.0204 260.648 60.0204C260.883 60.0204 261.305 59.9032 261.914 59.6688L265.359 58.1219C266.625 57.6063 267.703 57.3485 268.594 57.3485C270.094 57.3485 271.078 57.8173 271.547 58.7548C272.062 59.6923 272.32 61.0751 272.32 62.9032C272.32 63.7001 272.227 65.1063 272.039 67.1219C271.852 69.0907 271.641 71.2938 271.406 73.7313C271.219 76.1219 271.031 78.5126 270.844 80.9032C270.703 83.2938 270.633 85.2391 270.633 86.7391C270.633 88.3798 270.797 89.5985 271.125 90.3954C271.5 91.1454 272.273 91.5204 273.445 91.5204C274.289 91.5204 275.109 91.0282 275.906 90.0438C276.75 89.0594 277.547 87.8173 278.297 86.3173C279.047 84.8173 279.75 83.1766 280.406 81.3954C281.109 79.6141 281.742 77.9032 282.305 76.2626C282.727 75.0907 283.336 74.5048 284.133 74.5048C284.883 74.5048 285.258 74.9266 285.258 75.7704C285.258 75.911 285.234 76.0516 285.188 76.1923C285.188 76.3329 285.164 76.4969 285.117 76.6844ZM317.32 74.5048C317.602 74.5048 317.836 74.5985 318.023 74.786C318.258 74.9735 318.375 75.2548 318.375 75.6298C318.375 76.0048 318.305 76.3563 318.164 76.6844C317.461 78.6532 316.688 80.5048 315.844 82.2391C315.047 83.9735 314.297 85.5204 313.594 86.8798C312.75 88.4266 311.93 89.8798 311.133 91.2391C310.148 92.786 309.047 94.2626 307.828 95.6688C306.656 97.0282 305.367 98.2469 303.961 99.3251C302.555 100.356 301.031 101.177 299.391 101.786C297.75 102.395 296.016 102.7 294.188 102.7C292.828 102.7 291.328 102.466 289.688 101.997C288.094 101.528 286.594 100.661 285.188 99.3954C283.828 98.1298 282.703 96.3954 281.812 94.1923C280.875 91.9891 280.406 89.1532 280.406 85.6844C280.406 84.0907 280.57 82.4735 280.898 80.8329C281.18 79.1923 281.602 77.6219 282.164 76.1219C282.68 74.6219 283.266 73.2157 283.922 71.9032C284.625 70.5907 285.328 69.4423 286.031 68.4579C287.25 66.7704 288.539 65.2001 289.898 63.7469C291.258 62.2469 292.617 60.9579 293.977 59.8798C295.383 58.7548 296.742 57.8876 298.055 57.2782C299.367 56.6688 300.586 56.3641 301.711 56.3641C303.492 56.3641 305.039 57.0438 306.352 58.4032C307.711 59.7626 308.391 61.7079 308.391 64.2391C308.391 66.4423 307.828 68.7391 306.703 71.1298C305.578 73.4735 304.172 75.7704 302.484 78.0204C300.797 80.2704 298.992 82.3563 297.07 84.2782C295.148 86.2001 293.391 87.7938 291.797 89.0594C292.641 91.1688 293.719 92.7157 295.031 93.7001C296.344 94.6844 297.68 95.1766 299.039 95.1766C301.148 95.1766 303.023 94.4969 304.664 93.1376C306.352 91.7782 307.852 90.1141 309.164 88.1454C310.523 86.1766 311.695 84.1141 312.68 81.9579C313.711 79.8016 314.625 77.9032 315.422 76.2626C315.703 75.7001 315.984 75.2782 316.266 74.9969C316.547 74.6688 316.898 74.5048 317.32 74.5048ZM289.969 77.8798C289.969 80.6454 290.18 83.0829 290.602 85.1923C291.539 84.2548 292.477 83.2001 293.414 82.0282C294.398 80.8094 295.266 79.5673 296.016 78.3016C296.812 77.036 297.445 75.7469 297.914 74.4344C298.43 73.1219 298.688 71.8563 298.688 70.6376C298.688 68.7626 298.289 67.3094 297.492 66.2782C296.695 65.2469 295.898 64.7313 295.102 64.7313C294.633 64.7313 294.094 65.036 293.484 65.6454C292.922 66.2079 292.359 67.0516 291.797 68.1766C291.281 69.3016 290.836 70.6844 290.461 72.3251C290.133 73.9188 289.969 75.7704 289.969 77.8798Z" fill="black"/>
<path d="M320.043 46.1582C319.466 44.1619 317.922 43.08 316.431 42.0341C315.134 41.1233 313.909 40.2629 313.158 38.799C311.091 34.745 309.967 32.3056 306.219 32.0956C302.471 31.8856 301.077 34.1847 298.564 37.9805C297.654 39.3544 296.334 40.0739 294.942 40.8355C293.343 41.7092 291.691 42.6096 290.893 44.5249C290.586 45.2145 290.409 45.9552 290.372 46.7093C290.194 49.8872 292.58 52.6148 295.384 52.7719C298.188 52.929 301.962 51.7218 305.117 51.8986C308.272 52.0754 311.836 53.6937 314.675 53.8528C317.514 54.0118 320.147 51.5654 320.325 48.3876C320.369 47.6334 320.274 46.8775 320.043 46.1582V46.1582Z" fill="black"/>
<path d="M291.442 38.7795C293.854 38.9147 295.951 36.5098 296.125 33.4081C296.299 30.3063 294.484 27.6823 292.071 27.5471C289.659 27.4119 287.562 29.8168 287.388 32.9186C287.215 36.0203 289.029 38.6443 291.442 38.7795Z" fill="black"/>
<path d="M300.598 31.7807C303.01 31.9159 305.107 29.511 305.281 26.4093C305.455 23.3075 303.64 20.6835 301.227 20.5483C298.815 20.4132 296.718 22.818 296.544 25.9198C296.371 29.0215 298.185 31.6455 300.598 31.7807Z" fill="black"/>
<path d="M311.83 32.41C314.243 32.5452 316.339 30.1403 316.513 27.0385C316.687 23.9368 314.872 21.3128 312.459 21.1776C310.047 21.0424 307.95 23.4473 307.777 26.5491C307.603 29.6508 309.418 32.2748 311.83 32.41Z" fill="black"/>
<path d="M320.147 40.3878C322.559 40.5229 324.656 38.1181 324.83 35.0163C325.004 31.9146 323.189 29.2906 320.776 29.1554C318.364 29.0202 316.267 31.4251 316.094 34.5268C315.92 37.6286 317.735 40.2526 320.147 40.3878Z" fill="black"/>
<path d="M61.5574 122.001L57.3494 133.153H55.6694L51.4614 122.001H53.0134L56.5174 131.617L60.0214 122.001H61.5574ZM71.1539 128.433C71.1539 128.711 71.1379 129.004 71.1059 129.313H64.0979C64.1512 130.177 64.4445 130.855 64.9779 131.345C65.5219 131.825 66.1779 132.065 66.9459 132.065C67.5752 132.065 68.0979 131.921 68.5139 131.633C68.9405 131.335 69.2392 130.94 69.4099 130.449H70.9779C70.7432 131.292 70.2739 131.98 69.5699 132.513C68.8659 133.036 67.9912 133.297 66.9459 133.297C66.1139 133.297 65.3672 133.111 64.7059 132.737C64.0552 132.364 63.5432 131.836 63.1699 131.153C62.7965 130.46 62.6099 129.66 62.6099 128.753C62.6099 127.847 62.7912 127.052 63.1539 126.369C63.5165 125.687 64.0232 125.164 64.6739 124.801C65.3352 124.428 66.0925 124.241 66.9459 124.241C67.7779 124.241 68.5139 124.423 69.1539 124.785C69.7939 125.148 70.2845 125.649 70.6259 126.289C70.9779 126.919 71.1539 127.633 71.1539 128.433ZM69.6499 128.129C69.6499 127.575 69.5272 127.1 69.2819 126.705C69.0365 126.3 68.7005 125.996 68.2739 125.793C67.8579 125.58 67.3939 125.473 66.8819 125.473C66.1459 125.473 65.5165 125.708 64.9939 126.177C64.4819 126.647 64.1885 127.297 64.1139 128.129H69.6499ZM74.8518 125.585V130.753C74.8518 131.18 74.9424 131.484 75.1238 131.665C75.3051 131.836 75.6198 131.921 76.0677 131.921H77.1398V133.153H75.8278C75.0171 133.153 74.4091 132.967 74.0038 132.593C73.5984 132.22 73.3958 131.607 73.3958 130.753V125.585H72.2598V124.385H73.3958V122.177H74.8518V124.385H77.1398V125.585H74.8518ZM86.9039 128.433C86.9039 128.711 86.8879 129.004 86.8559 129.313H79.8479C79.9012 130.177 80.1945 130.855 80.7279 131.345C81.2719 131.825 81.9279 132.065 82.6959 132.065C83.3252 132.065 83.8479 131.921 84.2639 131.633C84.6905 131.335 84.9892 130.94 85.1599 130.449H86.7279C86.4932 131.292 86.0239 131.98 85.3199 132.513C84.6159 133.036 83.7412 133.297 82.6959 133.297C81.8639 133.297 81.1172 133.111 80.4559 132.737C79.8052 132.364 79.2932 131.836 78.9199 131.153C78.5465 130.46 78.3599 129.66 78.3599 128.753C78.3599 127.847 78.5412 127.052 78.9039 126.369C79.2665 125.687 79.7732 125.164 80.4239 124.801C81.0852 124.428 81.8425 124.241 82.6959 124.241C83.5279 124.241 84.2639 124.423 84.9039 124.785C85.5439 125.148 86.0345 125.649 86.3759 126.289C86.7279 126.919 86.9039 127.633 86.9039 128.433ZM85.3999 128.129C85.3999 127.575 85.2772 127.1 85.0319 126.705C84.7865 126.3 84.4505 125.996 84.0239 125.793C83.6079 125.58 83.1439 125.473 82.6319 125.473C81.8959 125.473 81.2665 125.708 80.7439 126.177C80.2319 126.647 79.9385 127.297 79.8639 128.129H85.3999ZM90.2818 125.809C90.5378 125.308 90.9004 124.919 91.3698 124.641C91.8498 124.364 92.4311 124.225 93.1138 124.225V125.729H92.7298C91.0978 125.729 90.2818 126.615 90.2818 128.385V133.153H88.8258V124.385H90.2818V125.809ZM95.5465 122.961C95.2692 122.961 95.0345 122.865 94.8425 122.673C94.6505 122.481 94.5545 122.247 94.5545 121.969C94.5545 121.692 94.6505 121.457 94.8425 121.265C95.0345 121.073 95.2692 120.977 95.5465 120.977C95.8132 120.977 96.0372 121.073 96.2185 121.265C96.4105 121.457 96.5065 121.692 96.5065 121.969C96.5065 122.247 96.4105 122.481 96.2185 122.673C96.0372 122.865 95.8132 122.961 95.5465 122.961ZM96.2505 124.385V133.153H94.7945V124.385H96.2505ZM103.004 124.225C104.071 124.225 104.935 124.551 105.596 125.201C106.257 125.841 106.588 126.769 106.588 127.985V133.153H105.148V128.193C105.148 127.319 104.929 126.652 104.492 126.193C104.055 125.724 103.457 125.489 102.7 125.489C101.932 125.489 101.319 125.729 100.86 126.209C100.412 126.689 100.188 127.388 100.188 128.305V133.153H98.732V124.385H100.188V125.633C100.476 125.185 100.865 124.839 101.356 124.593C101.857 124.348 102.407 124.225 103.004 124.225ZM108.422 128.737C108.422 127.841 108.604 127.057 108.966 126.385C109.329 125.703 109.825 125.175 110.454 124.801C111.094 124.428 111.804 124.241 112.582 124.241C113.35 124.241 114.017 124.407 114.582 124.737C115.148 125.068 115.569 125.484 115.846 125.985V124.385H117.318V133.153H115.846V131.521C115.558 132.033 115.126 132.46 114.55 132.801C113.985 133.132 113.324 133.297 112.566 133.297C111.788 133.297 111.084 133.105 110.454 132.721C109.825 132.337 109.329 131.799 108.966 131.105C108.604 130.412 108.422 129.623 108.422 128.737ZM115.846 128.753C115.846 128.092 115.713 127.516 115.446 127.025C115.18 126.535 114.817 126.161 114.358 125.905C113.91 125.639 113.414 125.505 112.87 125.505C112.326 125.505 111.83 125.633 111.382 125.889C110.934 126.145 110.577 126.519 110.31 127.009C110.044 127.5 109.91 128.076 109.91 128.737C109.91 129.409 110.044 129.996 110.31 130.497C110.577 130.988 110.934 131.367 111.382 131.633C111.83 131.889 112.326 132.017 112.87 132.017C113.414 132.017 113.91 131.889 114.358 131.633C114.817 131.367 115.18 130.988 115.446 130.497C115.713 129.996 115.846 129.415 115.846 128.753ZM121.235 125.809C121.491 125.308 121.854 124.919 122.323 124.641C122.803 124.364 123.384 124.225 124.067 124.225V125.729H123.683C122.051 125.729 121.235 126.615 121.235 128.385V133.153H119.779V124.385H121.235V125.809ZM126.5 122.961C126.222 122.961 125.988 122.865 125.796 122.673C125.604 122.481 125.508 122.247 125.508 121.969C125.508 121.692 125.604 121.457 125.796 121.265C125.988 121.073 126.222 120.977 126.5 120.977C126.766 120.977 126.99 121.073 127.172 121.265C127.364 121.457 127.46 121.692 127.46 121.969C127.46 122.247 127.364 122.481 127.172 122.673C126.99 122.865 126.766 122.961 126.5 122.961ZM127.204 124.385V133.153H125.748V124.385H127.204ZM129.141 128.737C129.141 127.841 129.322 127.057 129.685 126.385C130.048 125.703 130.544 125.175 131.173 124.801C131.813 124.428 132.522 124.241 133.301 124.241C134.069 124.241 134.736 124.407 135.301 124.737C135.866 125.068 136.288 125.484 136.565 125.985V124.385H138.037V133.153H136.565V131.521C136.277 132.033 135.845 132.46 135.269 132.801C134.704 133.132 134.042 133.297 133.285 133.297C132.506 133.297 131.802 133.105 131.173 132.721C130.544 132.337 130.048 131.799 129.685 131.105C129.322 130.412 129.141 129.623 129.141 128.737ZM136.565 128.753C136.565 128.092 136.432 127.516 136.165 127.025C135.898 126.535 135.536 126.161 135.077 125.905C134.629 125.639 134.133 125.505 133.589 125.505C133.045 125.505 132.549 125.633 132.101 125.889C131.653 126.145 131.296 126.519 131.029 127.009C130.762 127.5 130.629 128.076 130.629 128.737C130.629 129.409 130.762 129.996 131.029 130.497C131.296 130.988 131.653 131.367 132.101 131.633C132.549 131.889 133.045 132.017 133.589 132.017C134.133 132.017 134.629 131.889 135.077 131.633C135.536 131.367 135.898 130.988 136.165 130.497C136.432 129.996 136.565 129.415 136.565 128.753ZM153.323 133.153L151.867 131.681C151.323 132.247 150.742 132.668 150.123 132.945C149.505 133.212 148.806 133.345 148.027 133.345C147.259 133.345 146.577 133.207 145.979 132.929C145.393 132.652 144.934 132.257 144.603 131.745C144.283 131.233 144.123 130.636 144.123 129.953C144.123 129.175 144.342 128.492 144.779 127.905C145.227 127.308 145.883 126.839 146.747 126.497C146.406 126.092 146.161 125.719 146.011 125.377C145.862 125.036 145.787 124.663 145.787 124.257C145.787 123.788 145.905 123.367 146.139 122.993C146.385 122.609 146.731 122.311 147.179 122.097C147.627 121.884 148.145 121.777 148.731 121.777C149.307 121.777 149.809 121.889 150.235 122.113C150.662 122.337 150.982 122.652 151.195 123.057C151.409 123.452 151.505 123.895 151.483 124.385H150.027C150.038 123.948 149.915 123.607 149.659 123.361C149.403 123.105 149.073 122.977 148.667 122.977C148.241 122.977 147.894 123.1 147.627 123.345C147.371 123.58 147.243 123.884 147.243 124.257C147.243 124.577 147.329 124.887 147.499 125.185C147.681 125.484 147.979 125.852 148.395 126.289L151.723 129.633L152.011 129.185L153.099 127.361H154.667L153.355 129.633C153.174 129.953 152.961 130.289 152.715 130.641L155.227 133.153H153.323ZM148.027 132.097C148.603 132.097 149.121 131.985 149.579 131.761C150.049 131.537 150.491 131.191 150.907 130.721L147.627 127.425C146.262 127.948 145.579 128.775 145.579 129.905C145.579 130.535 145.803 131.057 146.251 131.473C146.71 131.889 147.302 132.097 148.027 132.097ZM162.313 123.185V126.913H166.377V128.113H162.313V131.953H166.857V133.153H160.857V121.985H166.857V123.185H162.313ZM172.164 133.297C171.492 133.297 170.889 133.185 170.356 132.961C169.823 132.727 169.401 132.407 169.092 132.001C168.783 131.585 168.612 131.111 168.58 130.577H170.084C170.127 131.015 170.329 131.372 170.692 131.649C171.065 131.927 171.551 132.065 172.148 132.065C172.703 132.065 173.14 131.943 173.46 131.697C173.78 131.452 173.94 131.143 173.94 130.769C173.94 130.385 173.769 130.103 173.428 129.921C173.087 129.729 172.559 129.543 171.844 129.361C171.193 129.191 170.66 129.02 170.244 128.849C169.839 128.668 169.487 128.407 169.188 128.065C168.9 127.713 168.756 127.255 168.756 126.689C168.756 126.241 168.889 125.831 169.156 125.457C169.423 125.084 169.801 124.791 170.292 124.577C170.783 124.353 171.343 124.241 171.972 124.241C172.943 124.241 173.727 124.487 174.324 124.977C174.921 125.468 175.241 126.14 175.284 126.993H173.828C173.796 126.535 173.609 126.167 173.268 125.889C172.937 125.612 172.489 125.473 171.924 125.473C171.401 125.473 170.985 125.585 170.676 125.809C170.367 126.033 170.212 126.327 170.212 126.689C170.212 126.977 170.303 127.217 170.484 127.409C170.676 127.591 170.911 127.74 171.188 127.857C171.476 127.964 171.871 128.087 172.372 128.225C173.001 128.396 173.513 128.567 173.908 128.737C174.303 128.897 174.639 129.143 174.916 129.473C175.204 129.804 175.353 130.236 175.364 130.769C175.364 131.249 175.231 131.681 174.964 132.065C174.697 132.449 174.319 132.753 173.828 132.977C173.348 133.191 172.793 133.297 172.164 133.297ZM179.196 125.585V130.753C179.196 131.18 179.286 131.484 179.468 131.665C179.649 131.836 179.964 131.921 180.411 131.921H181.484V133.153H180.172C179.361 133.153 178.753 132.967 178.348 132.593C177.942 132.22 177.74 131.607 177.74 130.753V125.585H176.604V124.385H177.74V122.177H179.196V124.385H181.484V125.585H179.196ZM191.248 128.433C191.248 128.711 191.232 129.004 191.2 129.313H184.192C184.245 130.177 184.538 130.855 185.072 131.345C185.616 131.825 186.272 132.065 187.04 132.065C187.669 132.065 188.192 131.921 188.608 131.633C189.034 131.335 189.333 130.94 189.504 130.449H191.072C190.837 131.292 190.368 131.98 189.664 132.513C188.96 133.036 188.085 133.297 187.04 133.297C186.208 133.297 185.461 133.111 184.8 132.737C184.149 132.364 183.637 131.836 183.264 131.153C182.89 130.46 182.704 129.66 182.704 128.753C182.704 127.847 182.885 127.052 183.248 126.369C183.61 125.687 184.117 125.164 184.768 124.801C185.429 124.428 186.186 124.241 187.04 124.241C187.872 124.241 188.608 124.423 189.248 124.785C189.888 125.148 190.378 125.649 190.72 126.289C191.072 126.919 191.248 127.633 191.248 128.433ZM189.744 128.129C189.744 127.575 189.621 127.1 189.376 126.705C189.13 126.3 188.794 125.996 188.368 125.793C187.952 125.58 187.488 125.473 186.976 125.473C186.24 125.473 185.61 125.708 185.088 126.177C184.576 126.647 184.282 127.297 184.208 128.129H189.744ZM188.544 121.905L185.136 123.729V122.641L188.544 120.641V121.905ZM194.946 125.585V130.753C194.946 131.18 195.036 131.484 195.218 131.665C195.399 131.836 195.714 131.921 196.161 131.921H197.234V133.153H195.922C195.111 133.153 194.503 132.967 194.098 132.593C193.692 132.22 193.49 131.607 193.49 130.753V125.585H192.354V124.385H193.49V122.177H194.946V124.385H197.234V125.585H194.946ZM199.75 122.961C199.472 122.961 199.238 122.865 199.046 122.673C198.854 122.481 198.758 122.247 198.758 121.969C198.758 121.692 198.854 121.457 199.046 121.265C199.238 121.073 199.472 120.977 199.75 120.977C200.016 120.977 200.24 121.073 200.422 121.265C200.614 121.457 200.71 121.692 200.71 121.969C200.71 122.247 200.614 122.481 200.422 122.673C200.24 122.865 200.016 122.961 199.75 122.961ZM200.454 124.385V133.153H198.998V124.385H200.454ZM202.391 128.753C202.391 127.847 202.572 127.057 202.935 126.385C203.298 125.703 203.799 125.175 204.439 124.801C205.09 124.428 205.831 124.241 206.663 124.241C207.74 124.241 208.626 124.503 209.319 125.025C210.023 125.548 210.487 126.273 210.711 127.201H209.143C208.994 126.668 208.7 126.247 208.263 125.937C207.836 125.628 207.303 125.473 206.663 125.473C205.831 125.473 205.159 125.761 204.647 126.337C204.135 126.903 203.879 127.708 203.879 128.753C203.879 129.809 204.135 130.625 204.647 131.201C205.159 131.777 205.831 132.065 206.663 132.065C207.303 132.065 207.836 131.916 208.263 131.617C208.69 131.319 208.983 130.892 209.143 130.337H210.711C210.476 131.233 210.007 131.953 209.303 132.497C208.599 133.031 207.719 133.297 206.663 133.297C205.831 133.297 205.09 133.111 204.439 132.737C203.799 132.364 203.298 131.836 202.935 131.153C202.572 130.471 202.391 129.671 202.391 128.753ZM212.11 128.737C212.11 127.841 212.291 127.057 212.654 126.385C213.017 125.703 213.513 125.175 214.142 124.801C214.782 124.428 215.491 124.241 216.27 124.241C217.038 124.241 217.705 124.407 218.27 124.737C218.835 125.068 219.257 125.484 219.534 125.985V124.385H221.006V133.153H219.534V131.521C219.246 132.033 218.814 132.46 218.238 132.801C217.673 133.132 217.011 133.297 216.254 133.297C215.475 133.297 214.771 133.105 214.142 132.721C213.513 132.337 213.017 131.799 212.654 131.105C212.291 130.412 212.11 129.623 212.11 128.737ZM219.534 128.753C219.534 128.092 219.401 127.516 219.134 127.025C218.867 126.535 218.505 126.161 218.046 125.905C217.598 125.639 217.102 125.505 216.558 125.505C216.014 125.505 215.518 125.633 215.07 125.889C214.622 126.145 214.265 126.519 213.998 127.009C213.731 127.5 213.598 128.076 213.598 128.737C213.598 129.409 213.731 129.996 213.998 130.497C214.265 130.988 214.622 131.367 215.07 131.633C215.518 131.889 216.014 132.017 216.558 132.017C217.102 132.017 217.598 131.889 218.046 131.633C218.505 131.367 218.867 130.988 219.134 130.497C219.401 129.996 219.534 129.415 219.534 128.753ZM227.188 127.569C227.188 126.481 227.433 125.505 227.924 124.641C228.415 123.767 229.081 123.084 229.924 122.593C230.777 122.103 231.721 121.857 232.756 121.857C233.972 121.857 235.033 122.151 235.94 122.737C236.847 123.324 237.508 124.156 237.924 125.233H236.18C235.871 124.561 235.423 124.044 234.836 123.681C234.26 123.319 233.567 123.137 232.756 123.137C231.977 123.137 231.279 123.319 230.66 123.681C230.041 124.044 229.556 124.561 229.204 125.233C228.852 125.895 228.676 126.673 228.676 127.569C228.676 128.455 228.852 129.233 229.204 129.905C229.556 130.567 230.041 131.079 230.66 131.441C231.279 131.804 231.977 131.985 232.756 131.985C233.567 131.985 234.26 131.809 234.836 131.457C235.423 131.095 235.871 130.577 236.18 129.905H237.924C237.508 130.972 236.847 131.799 235.94 132.385C235.033 132.961 233.972 133.249 232.756 133.249C231.721 133.249 230.777 133.009 229.924 132.529C229.081 132.039 228.415 131.361 227.924 130.497C227.433 129.633 227.188 128.657 227.188 127.569ZM239.547 128.737C239.547 127.841 239.729 127.057 240.091 126.385C240.454 125.703 240.95 125.175 241.579 124.801C242.219 124.428 242.929 124.241 243.707 124.241C244.475 124.241 245.142 124.407 245.707 124.737C246.273 125.068 246.694 125.484 246.971 125.985V124.385H248.443V133.153H246.971V131.521C246.683 132.033 246.251 132.46 245.675 132.801C245.11 133.132 244.449 133.297 243.691 133.297C242.913 133.297 242.209 133.105 241.579 132.721C240.95 132.337 240.454 131.799 240.091 131.105C239.729 130.412 239.547 129.623 239.547 128.737ZM246.971 128.753C246.971 128.092 246.838 127.516 246.571 127.025C246.305 126.535 245.942 126.161 245.483 125.905C245.035 125.639 244.539 125.505 243.995 125.505C243.451 125.505 242.955 125.633 242.507 125.889C242.059 126.145 241.702 126.519 241.435 127.009C241.169 127.5 241.035 128.076 241.035 128.737C241.035 129.409 241.169 129.996 241.435 130.497C241.702 130.988 242.059 131.367 242.507 131.633C242.955 131.889 243.451 132.017 243.995 132.017C244.539 132.017 245.035 131.889 245.483 131.633C245.942 131.367 246.305 130.988 246.571 130.497C246.838 129.996 246.971 129.415 246.971 128.753ZM255.176 124.225C256.243 124.225 257.107 124.551 257.768 125.201C258.429 125.841 258.76 126.769 258.76 127.985V133.153H257.32V128.193C257.32 127.319 257.101 126.652 256.664 126.193C256.227 125.724 255.629 125.489 254.872 125.489C254.104 125.489 253.491 125.729 253.032 126.209C252.584 126.689 252.36 127.388 252.36 128.305V133.153H250.904V124.385H252.36V125.633C252.648 125.185 253.037 124.839 253.528 124.593C254.029 124.348 254.579 124.225 255.176 124.225ZM261.89 122.961C261.613 122.961 261.378 122.865 261.186 122.673C260.994 122.481 260.898 122.247 260.898 121.969C260.898 121.692 260.994 121.457 261.186 121.265C261.378 121.073 261.613 120.977 261.89 120.977C262.157 120.977 262.381 121.073 262.562 121.265C262.754 121.457 262.85 121.692 262.85 121.969C262.85 122.247 262.754 122.481 262.562 122.673C262.381 122.865 262.157 122.961 261.89 122.961ZM262.594 124.385V133.153H261.138V124.385H262.594ZM269.348 124.225C270.414 124.225 271.278 124.551 271.94 125.201C272.601 125.841 272.932 126.769 272.932 127.985V133.153H271.492V128.193C271.492 127.319 271.273 126.652 270.836 126.193C270.398 125.724 269.801 125.489 269.044 125.489C268.276 125.489 267.662 125.729 267.204 126.209C266.756 126.689 266.532 127.388 266.532 128.305V133.153H265.076V124.385H266.532V125.633C266.82 125.185 267.209 124.839 267.7 124.593C268.201 124.348 268.75 124.225 269.348 124.225ZM274.766 128.737C274.766 127.841 274.947 127.057 275.31 126.385C275.673 125.703 276.169 125.175 276.798 124.801C277.438 124.428 278.147 124.241 278.926 124.241C279.694 124.241 280.361 124.407 280.926 124.737C281.491 125.068 281.913 125.484 282.19 125.985V124.385H283.662V133.153H282.19V131.521C281.902 132.033 281.47 132.46 280.894 132.801C280.329 133.132 279.667 133.297 278.91 133.297C278.131 133.297 277.427 133.105 276.798 132.721C276.169 132.337 275.673 131.799 275.31 131.105C274.947 130.412 274.766 129.623 274.766 128.737ZM282.19 128.753C282.19 128.092 282.057 127.516 281.79 127.025C281.523 126.535 281.161 126.161 280.702 125.905C280.254 125.639 279.758 125.505 279.214 125.505C278.67 125.505 278.174 125.633 277.726 125.889C277.278 126.145 276.921 126.519 276.654 127.009C276.387 127.5 276.254 128.076 276.254 128.737C276.254 129.409 276.387 129.996 276.654 130.497C276.921 130.988 277.278 131.367 277.726 131.633C278.174 131.889 278.67 132.017 279.214 132.017C279.758 132.017 280.254 131.889 280.702 131.633C281.161 131.367 281.523 130.988 281.79 130.497C282.057 129.996 282.19 129.415 282.19 128.753Z" fill="black"/>
</svg>
