<svg width="30" height="30" viewBox="0 0 30 30" fill="none" xmlns="http://www.w3.org/2000/svg">
<path d="M27.79 2.43494C27.7795 2.38394 27.7546 2.33702 27.7182 2.2997C27.6819 2.26238 27.6357 2.23621 27.585 2.22427C24.2055 1.39774 16.3989 4.34279 12.165 8.57361C11.4104 9.322 10.7223 10.1346 10.1086 11.0022C8.80353 10.8842 7.49849 10.9836 6.38734 11.4683C3.24965 12.8479 2.33674 16.4511 2.08194 17.9979C2.06814 18.0826 2.07404 18.1694 2.09918 18.2515C2.12432 18.3337 2.16803 18.4089 2.22692 18.4714C2.28581 18.5339 2.3583 18.582 2.43877 18.6119C2.51925 18.6419 2.60554 18.6529 2.69096 18.6442L7.72905 18.0911C7.73253 18.4711 7.75535 18.8507 7.79741 19.2284C7.8237 19.4894 7.94017 19.7331 8.12678 19.9175L10.0775 21.8683C10.2621 22.055 10.506 22.1715 10.7673 22.1976C11.1427 22.2395 11.52 22.2623 11.8977 22.266L11.3453 27.2997C11.3366 27.385 11.3477 27.4712 11.3777 27.5515C11.4077 27.6319 11.4558 27.7042 11.5182 27.7631C11.5806 27.8219 11.6557 27.8655 11.7377 27.8907C11.8196 27.9158 11.9063 27.9218 11.9909 27.9081C13.5384 27.6595 17.149 26.7466 18.5205 23.6096C19.0052 22.4972 19.1047 21.199 18.9928 19.9001C19.863 19.287 20.6779 18.5989 21.4283 17.8438C25.6777 13.6179 28.6041 5.98279 27.79 2.43494ZM17.6511 12.3694C17.2799 11.9983 17.0271 11.5255 16.9247 11.0108C16.8223 10.496 16.8748 9.96241 17.0756 9.4775C17.2764 8.99258 17.6165 8.57811 18.0529 8.2865C18.4893 7.9949 19.0024 7.83925 19.5273 7.83925C20.0521 7.83925 20.5652 7.9949 21.0016 8.2865C21.438 8.57811 21.7781 8.99258 21.9789 9.4775C22.1797 9.96241 22.2322 10.496 22.1298 11.0108C22.0274 11.5255 21.7746 11.9983 21.4034 12.3694C21.1572 12.6161 20.8648 12.8119 20.5428 12.9454C20.2209 13.079 19.8758 13.1477 19.5273 13.1477C19.1787 13.1477 18.8336 13.079 18.5117 12.9454C18.1897 12.8119 17.8973 12.6161 17.6511 12.3694V12.3694Z" stroke="#0B0B0B" stroke-width="3" stroke-linecap="round" stroke-linejoin="round"/>
<path d="M5.90448 20.9658C5.28496 21.0419 4.70861 21.3227 4.26696 21.7638C3.17197 22.8625 3.06818 26.9317 3.06818 26.9317C3.06818 26.9317 7.13992 26.8279 8.23553 25.7317C8.67836 25.2908 8.95968 24.7134 9.03409 24.093" stroke="#0B0B0B" stroke-width="3" stroke-linecap="round" stroke-linejoin="round"/>
</svg>
