<svg width="25" height="25" viewBox="0 0 25 25" fill="none" xmlns="http://www.w3.org/2000/svg">
<path d="M19.2383 23.4373C19.0738 23.4379 18.9134 23.3866 18.7798 23.2908L12.5 18.738L6.22021 23.2908C6.08605 23.3881 5.92441 23.4402 5.75868 23.4396C5.59294 23.439 5.43169 23.3857 5.29824 23.2874C5.16479 23.1891 5.06605 23.051 5.0163 22.8929C4.96655 22.7348 4.96836 22.565 5.02148 22.408L7.4707 15.1536L1.12305 10.8005C0.985552 10.7064 0.881779 10.5707 0.82689 10.4133C0.772001 10.256 0.768872 10.0852 0.817961 9.9259C0.867049 9.76663 0.965783 9.62724 1.09974 9.52808C1.23369 9.42893 1.39584 9.3752 1.5625 9.37477H9.39355L11.7568 2.10182C11.8077 1.9448 11.9071 1.80794 12.0406 1.71087C12.1741 1.61381 12.3349 1.56152 12.5 1.56152C12.6651 1.56152 12.8259 1.61381 12.9594 1.71087C13.0929 1.80794 13.1922 1.9448 13.2432 2.10182L15.6064 9.37721H23.4375C23.6044 9.37713 23.7669 9.43047 23.9012 9.52944C24.0356 9.62841 24.1347 9.76779 24.1841 9.92718C24.2335 10.0866 24.2306 10.2576 24.1757 10.4152C24.1209 10.5728 24.017 10.7087 23.8794 10.803L17.5293 15.1536L19.977 22.406C20.0167 22.5234 20.0279 22.6486 20.0096 22.7712C19.9913 22.8938 19.9441 23.0102 19.872 23.111C19.7998 23.2117 19.7047 23.2939 19.5945 23.3506C19.4843 23.4073 19.3622 23.437 19.2383 23.4373Z" fill="#0B0B0B"/>
</svg>
