<svg width="517" height="183" viewBox="0 0 517 183" fill="none" xmlns="http://www.w3.org/2000/svg">
<path d="M80.24 129.69L77.18 130.2C70.8333 130.2 65.6767 125.61 61.71 116.43C57.8567 107.137 55.93 95.35 55.93 81.07C55.93 66.6767 57.5167 51.49 60.69 35.51C60.69 34.6033 60.1233 34.15 58.99 34.15C56.1567 34.3767 54.3433 35.2833 53.55 36.87C52.7567 38.3433 51.4533 42.1967 49.64 48.43C47.8267 54.6633 45.8433 63.4467 43.69 74.78C41.65 86.1133 40.63 97.56 40.63 109.12C40.63 120.68 42.0467 129.86 44.88 136.66C47.8267 143.46 52.87 146.86 60.01 146.86C64.77 146.86 69.6433 145.273 74.63 142.1C79.73 139.04 82.28 135.753 82.28 132.24C82.28 130.54 81.6 129.69 80.24 129.69ZM5.78 29.05C18.2467 22.3633 34.85 16.1867 55.59 10.52C76.33 4.85333 94.52 1.62333 110.16 0.82999C112.653 1.16999 113.9 2.47333 113.9 4.73999C113.9 6.89332 113.22 9.72666 111.86 13.24C110.613 16.7533 108.97 18.5667 106.93 18.68C96.2767 19.36 78.7667 22.8733 54.4 29.22C30.1467 35.5667 13.1467 42.2533 3.4 49.28C2.72 49.62 2.09667 49.79 1.53 49.79C0.51 49.79 0 48.8267 0 46.9C0 44.9733 0.736667 41.63 2.21 36.87C3.79667 32.11 4.98667 29.5033 5.78 29.05ZM127.06 119.15C121.734 119.15 117.54 117.79 114.48 115.07C111.42 112.35 109.664 108.893 109.21 104.7C107.397 106.06 106.49 108.61 106.49 112.35C106.49 115.977 107.51 119.207 109.55 122.04C111.704 124.76 114.31 126.12 117.37 126.12C120.544 126.12 122.924 125.327 124.51 123.74C126.21 122.153 127.06 120.623 127.06 119.15ZM133.69 107.76C134.03 108.78 134.427 109.29 134.88 109.29C135.447 109.29 136.354 109.007 137.6 108.44C138.847 107.76 139.924 107.42 140.83 107.42C141.737 107.42 142.19 107.987 142.19 109.12C142.19 110.253 140.944 112.123 138.45 114.73C136.07 117.337 134.03 118.64 132.33 118.64C129.95 125.1 125.984 131.107 120.43 136.66C114.99 142.1 109.38 144.82 103.6 144.82C99.5204 144.82 96.1204 143.46 93.4004 140.74C90.6804 138.133 89.3204 134.28 89.3204 129.18C89.3204 123.967 91.4737 118.357 95.7804 112.35C100.087 106.23 104.507 103.17 109.04 103.17V102.49C109.04 99.9967 109.89 98.0133 111.59 96.54C113.29 94.9533 115.387 94.16 117.88 94.16C125.587 94.16 130.857 98.6933 133.69 107.76ZM160.937 114.05C157.764 114.05 155.44 119.887 153.967 131.56C156.914 135.073 160.37 136.83 164.337 136.83C166.15 136.83 168.19 136.263 170.457 135.13C171.364 132.41 171.817 129.577 171.817 126.63C171.817 123.683 170.627 120.85 168.247 118.13C165.867 115.41 163.43 114.05 160.937 114.05ZM147.337 123.91L148.527 102.49C148.527 101.81 148.3 101.47 147.847 101.47C147.507 101.47 146.94 101.98 146.147 103C145.467 104.02 144.504 104.53 143.257 104.53C142.01 104.53 141.387 104.133 141.387 103.34C141.387 102.547 141.897 101.583 142.917 100.45C143.937 99.2033 145.07 97.05 146.317 93.99C147.677 90.8167 148.867 88.21 149.887 86.17C150.907 84.0167 151.87 82.94 152.777 82.94C154.024 82.94 154.987 83.5067 155.667 84.64C156.347 85.66 156.687 86.6233 156.687 87.53C156.687 88.4367 156.177 91.4967 155.157 96.71C154.137 101.923 153.627 105.777 153.627 108.27C153.627 110.65 153.91 111.84 154.477 111.84C154.704 111.84 155.724 110.65 157.537 108.27C159.464 105.777 161.73 103.34 164.337 100.96C167.057 98.4667 169.55 97.22 171.817 97.22C180.204 97.22 184.397 102.037 184.397 111.67C184.397 118.357 182.527 124.477 178.787 130.03C184.454 126.063 189.61 121.927 194.257 117.62L196.637 115.41C197.997 115.41 198.677 115.807 198.677 116.6C198.677 118.527 196.24 121.757 191.367 126.29C186.607 130.71 180.43 135.13 172.837 139.55C165.357 143.97 158.444 146.86 152.097 148.22C151.87 153.887 151.757 158.477 151.757 161.99C151.757 165.503 151.927 168.62 152.267 171.34C152.72 174.173 152.947 176.213 152.947 177.46C152.947 178.82 152.437 179.897 151.417 180.69C150.397 181.597 149.32 182.05 148.187 182.05C146.714 182.05 145.92 181.087 145.807 179.16C145.694 177.233 145.637 172.53 145.637 165.05C145.637 157.57 145.694 152.243 145.807 149.07C142.747 149.07 140.31 147.653 138.497 144.82C136.684 142.1 135.777 139.493 135.777 137C135.777 134.507 136.854 131.73 139.007 128.67C141.274 125.61 144.05 124.023 147.337 123.91ZM234.276 115.24L233.596 120C233.596 122.04 234.446 124.193 236.146 126.46C237.959 128.613 240.056 129.69 242.436 129.69C244.249 129.69 245.723 129.293 246.856 128.5C249.349 126.8 250.879 125.667 251.446 125.1C252.126 124.42 253.146 124.08 254.506 124.08C255.979 124.08 256.716 124.59 256.716 125.61C256.716 126.743 254.053 130.313 248.726 136.32C247.026 138.247 244.533 140.287 241.246 142.44C237.959 144.593 235.013 145.67 232.406 145.67C229.913 145.67 227.986 145.217 226.626 144.31C225.379 143.517 224.473 142.213 223.906 140.4C223.226 137.907 222.886 134.847 222.886 131.22C222.886 130.767 222.603 130.54 222.036 130.54C221.469 130.54 220.166 131.673 218.126 133.94C211.779 140.513 206.623 143.8 202.656 143.8C198.803 143.8 195.799 142.78 193.646 140.74C191.606 138.7 190.586 136.093 190.586 132.92C190.586 127.367 192.059 122.097 195.006 117.11C197.953 112.01 201.466 107.93 205.546 104.87C214.613 98.1833 221.639 94.84 226.626 94.84C234.106 95.0667 237.846 97.73 237.846 102.83C237.846 104.643 237.053 106.457 235.466 108.27C233.879 109.97 232.406 110.82 231.046 110.82C229.686 110.82 227.816 109.63 225.436 107.25C223.056 104.87 220.449 103.68 217.616 103.68C214.783 103.68 212.459 104.87 210.646 107.25C208.833 109.517 207.926 112.463 207.926 116.09C207.926 121.983 211.043 124.93 217.276 124.93C219.769 124.93 221.809 124.307 223.396 123.06C225.096 121.813 226.286 120.453 226.966 118.98C228.893 115.127 230.649 113.2 232.236 113.2C233.596 113.2 234.276 113.88 234.276 115.24ZM266.474 115.07C266.474 119.037 267.664 122.437 270.044 125.27C272.424 127.99 275.54 129.35 279.394 129.35C283.36 129.35 286.59 128.897 289.084 127.99C291.69 126.97 293.674 126.007 295.034 125.1C296.394 124.08 297.414 123.57 298.094 123.57C299.114 123.57 299.624 124.08 299.624 125.1C299.624 128.613 296.337 132.75 289.764 137.51C283.19 142.383 275.54 144.82 266.814 144.82C261.26 144.82 257.067 143.403 254.234 140.57C251.514 137.85 250.154 134.223 250.154 129.69C250.154 121.53 253.61 113.427 260.524 105.38C267.55 97.22 275.597 93.14 284.664 93.14C286.817 93.14 288.517 93.82 289.764 95.18C291.124 96.4267 291.804 98.2967 291.804 100.79C291.804 103.17 290.387 105.89 287.554 108.95C284.834 111.897 282.057 113.37 279.224 113.37C278.43 113.37 278.034 112.973 278.034 112.18C278.034 111.387 278.43 110.537 279.224 109.63C280.13 108.723 280.584 107.647 280.584 106.4C280.584 105.04 280.13 103.737 279.224 102.49C278.43 101.243 277.524 100.62 276.504 100.62C273.444 100.62 271.007 102.037 269.194 104.87C267.38 107.59 266.474 110.99 266.474 115.07ZM302.082 84.13C300.382 82.2033 299.532 79.8233 299.532 76.99C299.532 74.1567 300.382 71.7767 302.082 69.85C303.895 67.9233 306.105 66.96 308.712 66.96C311.319 66.96 313.472 67.9233 315.172 69.85C316.985 71.7767 317.892 74.1567 317.892 76.99C317.892 79.8233 316.985 82.2033 315.172 84.13C313.472 86.0567 311.319 87.02 308.712 87.02C306.105 87.02 303.895 86.0567 302.082 84.13ZM337.442 121.19C338.575 120.283 339.595 119.83 340.502 119.83C342.089 119.83 342.882 120.85 342.882 122.89C342.882 125.723 339.369 129.973 332.342 135.64C325.315 141.193 319.252 143.97 314.152 143.97C309.052 143.97 305.085 142.157 302.252 138.53C299.419 134.903 298.002 130.257 298.002 124.59C298.002 118.81 298.965 113.257 300.892 107.93C302.819 102.603 304.745 99.94 306.672 99.94C307.579 100.053 308.032 101.47 308.032 104.19C308.032 106.797 308.429 109.687 309.222 112.86C310.015 116.033 311.715 119.093 314.322 122.04C317.042 124.873 320.499 126.29 324.692 126.29C328.999 126.29 333.249 124.59 337.442 121.19ZM375.586 119.15C370.259 119.15 366.066 117.79 363.006 115.07C359.946 112.35 358.189 108.893 357.736 104.7C355.922 106.06 355.016 108.61 355.016 112.35C355.016 115.977 356.036 119.207 358.076 122.04C360.229 124.76 362.836 126.12 365.896 126.12C369.069 126.12 371.449 125.327 373.036 123.74C374.736 122.153 375.586 120.623 375.586 119.15ZM382.216 107.76C382.556 108.78 382.952 109.29 383.406 109.29C383.972 109.29 384.879 109.007 386.126 108.44C387.372 107.76 388.449 107.42 389.356 107.42C390.262 107.42 390.716 107.987 390.716 109.12C390.716 110.253 389.469 112.123 386.976 114.73C384.596 117.337 382.556 118.64 380.856 118.64C378.476 125.1 374.509 131.107 368.956 136.66C363.516 142.1 357.906 144.82 352.126 144.82C348.046 144.82 344.646 143.46 341.926 140.74C339.206 138.133 337.846 134.28 337.846 129.18C337.846 123.967 339.999 118.357 344.306 112.35C348.612 106.23 353.032 103.17 357.566 103.17V102.49C357.566 99.9967 358.416 98.0133 360.116 96.54C361.816 94.9533 363.912 94.16 366.406 94.16C374.112 94.16 379.382 98.6933 382.216 107.76ZM498.372 6.26999C500.526 6.26999 502.339 7.00666 503.812 8.47999C505.286 9.95333 506.022 11.6533 506.022 13.58C506.022 16.98 503.812 21.4567 499.392 27.01C494.972 32.45 491.346 35.17 488.512 35.17C487.832 35.17 487.379 34.7733 487.152 33.98C487.039 33.0733 486.586 32.62 485.792 32.62C481.486 32.62 474.459 38.1167 464.712 49.11C454.966 59.99 445.616 73.25 436.662 88.89C456.836 110.99 476.272 122.04 494.972 122.04C499.052 122.04 501.942 121.643 503.642 120.85C505.342 119.943 506.476 119.32 507.042 118.98C508.402 118.073 509.479 117.223 510.272 116.43C511.179 115.637 512.029 115.24 512.822 115.24C513.729 115.24 514.579 115.75 515.372 116.77C516.279 117.79 516.732 118.923 516.732 120.17C516.732 121.303 516.166 122.323 515.032 123.23C503.246 135.47 490.212 141.59 475.932 141.59C467.659 141.59 459.499 139.323 451.452 134.79C443.406 130.257 434.736 122.097 425.442 110.31C419.436 123.343 415.072 135.867 412.352 147.88C412.012 149.353 411.559 150.317 410.992 150.77C410.426 151.223 409.349 151.45 407.762 151.45C405.156 151.45 403.852 150.203 403.852 147.71C403.966 138.417 409.292 123.457 419.832 102.83C407.252 85.0367 397.789 65.09 391.442 42.99C387.476 29.2767 385.492 18.7367 385.492 11.37C385.492 10.2367 385.946 8.99 386.852 7.62999C387.872 6.26999 389.062 5.58999 390.422 5.58999C391.442 5.58999 391.952 6.60999 391.952 8.64999C393.879 18.51 398.412 30.2967 405.552 44.01C412.692 57.7233 421.192 70.4733 431.052 82.26C442.952 61.7467 455.306 43.9533 468.112 28.88C481.032 13.8067 491.119 6.26999 498.372 6.26999Z" fill="#0B0B0B"/>
</svg>
