<svg width="219" height="78" viewBox="0 0 219 78" fill="none" xmlns="http://www.w3.org/2000/svg">
<path d="M33.984 54.904L32.688 55.12C30 55.12 27.816 53.176 26.136 49.288C24.504 45.352 23.688 40.36 23.688 34.312C23.688 28.216 24.36 21.784 25.704 15.016C25.704 14.632 25.464 14.44 24.984 14.44C23.784 14.536 23.016 14.92 22.68 15.592C22.344 16.216 21.792 17.848 21.024 20.488C20.256 23.128 19.416 26.848 18.504 31.648C17.64 36.448 17.208 41.296 17.208 46.192C17.208 51.088 17.808 54.976 19.008 57.856C20.256 60.736 22.392 62.176 25.416 62.176C27.432 62.176 29.496 61.504 31.608 60.16C33.768 58.864 34.848 57.472 34.848 55.984C34.848 55.264 34.56 54.904 33.984 54.904ZM2.448 12.28C7.728 9.448 14.76 6.832 23.544 4.432C32.328 2.032 40.032 0.663997 46.656 0.327996C47.712 0.471997 48.24 1.024 48.24 1.984C48.24 2.896 47.952 4.096 47.376 5.584C46.848 7.072 46.152 7.84 45.288 7.888C40.776 8.176 33.36 9.664 23.04 12.352C12.768 15.04 5.568 17.872 1.44 20.848C1.152 20.992 0.888 21.064 0.648 21.064C0.216 21.064 0 20.656 0 19.84C0 19.024 0.312 17.608 0.936 15.592C1.608 13.576 2.112 12.472 2.448 12.28ZM53.8138 50.44C51.5578 50.44 49.7818 49.864 48.4858 48.712C47.1898 47.56 46.4458 46.096 46.2538 44.32C45.4858 44.896 45.1018 45.976 45.1018 47.56C45.1018 49.096 45.5338 50.464 46.3978 51.664C47.3098 52.816 48.4138 53.392 49.7098 53.392C51.0538 53.392 52.0618 53.056 52.7338 52.384C53.4538 51.712 53.8138 51.064 53.8138 50.44ZM56.6218 45.616C56.7658 46.048 56.9338 46.264 57.1258 46.264C57.3658 46.264 57.7498 46.144 58.2778 45.904C58.8058 45.616 59.2618 45.472 59.6458 45.472C60.0298 45.472 60.2218 45.712 60.2218 46.192C60.2218 46.672 59.6938 47.464 58.6378 48.568C57.6298 49.672 56.7658 50.224 56.0458 50.224C55.0378 52.96 53.3578 55.504 51.0058 57.856C48.7018 60.16 46.3258 61.312 43.8778 61.312C42.1498 61.312 40.7098 60.736 39.5578 59.584C38.4058 58.48 37.8298 56.848 37.8298 54.688C37.8298 52.48 38.7418 50.104 40.5658 47.56C42.3898 44.968 44.2618 43.672 46.1818 43.672V43.384C46.1818 42.328 46.5418 41.488 47.2618 40.864C47.9818 40.192 48.8698 39.856 49.9258 39.856C53.1898 39.856 55.4218 41.776 56.6218 45.616ZM68.1615 48.28C66.8175 48.28 65.8335 50.752 65.2095 55.696C66.4575 57.184 67.9215 57.928 69.6015 57.928C70.3695 57.928 71.2335 57.688 72.1935 57.208C72.5775 56.056 72.7695 54.856 72.7695 53.608C72.7695 52.36 72.2655 51.16 71.2575 50.008C70.2495 48.856 69.2175 48.28 68.1615 48.28ZM62.4015 52.456L62.9055 43.384C62.9055 43.096 62.8095 42.952 62.6175 42.952C62.4735 42.952 62.2335 43.168 61.8975 43.6C61.6095 44.032 61.2015 44.248 60.6735 44.248C60.1455 44.248 59.8815 44.08 59.8815 43.744C59.8815 43.408 60.0975 43 60.5295 42.52C60.9615 41.992 61.4415 41.08 61.9695 39.784C62.5455 38.44 63.0495 37.336 63.4815 36.472C63.9135 35.56 64.3215 35.104 64.7055 35.104C65.2335 35.104 65.6415 35.344 65.9295 35.824C66.2175 36.256 66.3615 36.664 66.3615 37.048C66.3615 37.432 66.1455 38.728 65.7135 40.936C65.2815 43.144 65.0655 44.776 65.0655 45.832C65.0655 46.84 65.1855 47.344 65.4255 47.344C65.5215 47.344 65.9535 46.84 66.7215 45.832C67.5375 44.776 68.4975 43.744 69.6015 42.736C70.7535 41.68 71.8095 41.152 72.7695 41.152C76.3215 41.152 78.0975 43.192 78.0975 47.272C78.0975 50.104 77.3055 52.696 75.7215 55.048C78.1215 53.368 80.3055 51.616 82.2735 49.792L83.2815 48.856C83.8575 48.856 84.1455 49.024 84.1455 49.36C84.1455 50.176 83.1135 51.544 81.0495 53.464C79.0335 55.336 76.4175 57.208 73.2015 59.08C70.0335 60.952 67.1055 62.176 64.4175 62.752C64.3215 65.152 64.2735 67.096 64.2735 68.584C64.2735 70.072 64.3455 71.392 64.4895 72.544C64.6815 73.744 64.7775 74.608 64.7775 75.136C64.7775 75.712 64.5615 76.168 64.1295 76.504C63.6975 76.888 63.2415 77.08 62.7615 77.08C62.1375 77.08 61.8015 76.672 61.7535 75.856C61.7055 75.04 61.6815 73.048 61.6815 69.88C61.6815 66.712 61.7055 64.456 61.7535 63.112C60.4575 63.112 59.4255 62.512 58.6575 61.312C57.8895 60.16 57.5055 59.056 57.5055 58C57.5055 56.944 57.9615 55.768 58.8735 54.472C59.8335 53.176 61.0095 52.504 62.4015 52.456ZM99.2227 48.784L98.9348 50.8C98.9348 51.664 99.2948 52.576 100.015 53.536C100.783 54.448 101.671 54.904 102.679 54.904C103.447 54.904 104.071 54.736 104.551 54.4C105.607 53.68 106.255 53.2 106.495 52.96C106.783 52.672 107.215 52.528 107.791 52.528C108.415 52.528 108.727 52.744 108.727 53.176C108.727 53.656 107.599 55.168 105.343 57.712C104.623 58.528 103.567 59.392 102.175 60.304C100.783 61.216 99.5348 61.672 98.4308 61.672C97.3748 61.672 96.5588 61.48 95.9828 61.096C95.4548 60.76 95.0708 60.208 94.8308 59.44C94.5428 58.384 94.3988 57.088 94.3988 55.552C94.3988 55.36 94.2788 55.264 94.0388 55.264C93.7988 55.264 93.2468 55.744 92.3828 56.704C89.6948 59.488 87.5108 60.88 85.8308 60.88C84.1988 60.88 82.9268 60.448 82.0148 59.584C81.1508 58.72 80.7188 57.616 80.7188 56.272C80.7188 53.92 81.3428 51.688 82.5908 49.576C83.8388 47.416 85.3268 45.688 87.0548 44.392C90.8948 41.56 93.8708 40.144 95.9828 40.144C99.1508 40.24 100.735 41.368 100.735 43.528C100.735 44.296 100.399 45.064 99.7267 45.832C99.0547 46.552 98.4308 46.912 97.8548 46.912C97.2788 46.912 96.4868 46.408 95.4788 45.4C94.4708 44.392 93.3668 43.888 92.1668 43.888C90.9668 43.888 89.9828 44.392 89.2148 45.4C88.4468 46.36 88.0628 47.608 88.0628 49.144C88.0628 51.64 89.3828 52.888 92.0228 52.888C93.0788 52.888 93.9428 52.624 94.6148 52.096C95.3348 51.568 95.8388 50.992 96.1268 50.368C96.9428 48.736 97.6868 47.92 98.3588 47.92C98.9348 47.92 99.2227 48.208 99.2227 48.784ZM112.859 48.712C112.859 50.392 113.363 51.832 114.371 53.032C115.379 54.184 116.699 54.76 118.331 54.76C120.011 54.76 121.379 54.568 122.435 54.184C123.539 53.752 124.379 53.344 124.955 52.96C125.531 52.528 125.963 52.312 126.251 52.312C126.683 52.312 126.899 52.528 126.899 52.96C126.899 54.448 125.507 56.2 122.723 58.216C119.939 60.28 116.699 61.312 113.003 61.312C110.651 61.312 108.875 60.712 107.675 59.512C106.523 58.36 105.947 56.824 105.947 54.904C105.947 51.448 107.411 48.016 110.339 44.608C113.315 41.152 116.723 39.424 120.563 39.424C121.475 39.424 122.195 39.712 122.723 40.288C123.299 40.816 123.587 41.608 123.587 42.664C123.587 43.672 122.987 44.824 121.787 46.12C120.635 47.368 119.459 47.992 118.259 47.992C117.923 47.992 117.755 47.824 117.755 47.488C117.755 47.152 117.923 46.792 118.259 46.408C118.643 46.024 118.835 45.568 118.835 45.04C118.835 44.464 118.643 43.912 118.259 43.384C117.923 42.856 117.539 42.592 117.107 42.592C115.811 42.592 114.779 43.192 114.011 44.392C113.243 45.544 112.859 46.984 112.859 48.712ZM127.941 35.608C127.221 34.792 126.861 33.784 126.861 32.584C126.861 31.384 127.221 30.376 127.941 29.56C128.709 28.744 129.645 28.336 130.749 28.336C131.853 28.336 132.765 28.744 133.485 29.56C134.253 30.376 134.637 31.384 134.637 32.584C134.637 33.784 134.253 34.792 133.485 35.608C132.765 36.424 131.853 36.832 130.749 36.832C129.645 36.832 128.709 36.424 127.941 35.608ZM142.917 51.304C143.397 50.92 143.829 50.728 144.213 50.728C144.885 50.728 145.221 51.16 145.221 52.024C145.221 53.224 143.733 55.024 140.757 57.424C137.781 59.776 135.213 60.952 133.053 60.952C130.893 60.952 129.213 60.184 128.013 58.648C126.813 57.112 126.213 55.144 126.213 52.744C126.213 50.296 126.621 47.944 127.437 45.688C128.253 43.432 129.069 42.304 129.885 42.304C130.269 42.352 130.461 42.952 130.461 44.104C130.461 45.208 130.629 46.432 130.965 47.776C131.301 49.12 132.021 50.416 133.125 51.664C134.277 52.864 135.741 53.464 137.517 53.464C139.341 53.464 141.141 52.744 142.917 51.304ZM159.072 50.44C156.816 50.44 155.04 49.864 153.744 48.712C152.448 47.56 151.704 46.096 151.512 44.32C150.744 44.896 150.36 45.976 150.36 47.56C150.36 49.096 150.792 50.464 151.656 51.664C152.568 52.816 153.672 53.392 154.968 53.392C156.312 53.392 157.32 53.056 157.992 52.384C158.712 51.712 159.072 51.064 159.072 50.44ZM161.88 45.616C162.024 46.048 162.192 46.264 162.384 46.264C162.624 46.264 163.008 46.144 163.536 45.904C164.064 45.616 164.52 45.472 164.904 45.472C165.288 45.472 165.48 45.712 165.48 46.192C165.48 46.672 164.952 47.464 163.896 48.568C162.888 49.672 162.024 50.224 161.304 50.224C160.296 52.96 158.616 55.504 156.264 57.856C153.96 60.16 151.584 61.312 149.136 61.312C147.408 61.312 145.968 60.736 144.816 59.584C143.664 58.48 143.088 56.848 143.088 54.688C143.088 52.48 144 50.104 145.824 47.56C147.648 44.968 149.52 43.672 151.44 43.672V43.384C151.44 42.328 151.8 41.488 152.52 40.864C153.24 40.192 154.128 39.856 155.184 39.856C158.448 39.856 160.68 41.776 161.88 45.616ZM211.075 2.632C211.987 2.632 212.755 2.944 213.379 3.568C214.003 4.192 214.315 4.912 214.315 5.728C214.315 7.168 213.379 9.064 211.507 11.416C209.635 13.72 208.099 14.872 206.899 14.872C206.611 14.872 206.419 14.704 206.323 14.368C206.275 13.984 206.083 13.792 205.747 13.792C203.923 13.792 200.947 16.12 196.819 20.776C192.691 25.384 188.731 31 184.939 37.624C193.483 46.984 201.715 51.664 209.635 51.664C211.363 51.664 212.587 51.496 213.307 51.16C214.027 50.776 214.507 50.512 214.747 50.368C215.323 49.984 215.779 49.624 216.115 49.288C216.499 48.952 216.859 48.784 217.195 48.784C217.579 48.784 217.939 49 218.275 49.432C218.659 49.864 218.851 50.344 218.851 50.872C218.851 51.352 218.611 51.784 218.131 52.168C213.139 57.352 207.619 59.944 201.571 59.944C198.067 59.944 194.611 58.984 191.203 57.064C187.795 55.144 184.123 51.688 180.187 46.696C177.643 52.216 175.795 57.52 174.643 62.608C174.499 63.232 174.307 63.64 174.067 63.832C173.827 64.024 173.371 64.12 172.699 64.12C171.595 64.12 171.043 63.592 171.043 62.536C171.091 58.6 173.347 52.264 177.811 43.528C172.483 35.992 168.475 27.544 165.787 18.184C164.107 12.376 163.267 7.912 163.267 4.792C163.267 4.312 163.459 3.784 163.843 3.208C164.275 2.632 164.779 2.344 165.355 2.344C165.787 2.344 166.003 2.776 166.003 3.64C166.819 7.816 168.739 12.808 171.763 18.616C174.787 24.424 178.387 29.824 182.563 34.816C187.603 26.128 192.835 18.592 198.259 12.208C203.731 5.824 208.003 2.632 211.075 2.632Z" fill="black"/>
</svg>
