<svg width="24" height="43" viewBox="0 0 24 43" fill="none" xmlns="http://www.w3.org/2000/svg">
<path d="M23.5312 0.867188C23.5312 1.01302 23.513 1.14974 23.4766 1.27734C23.4583 1.40495 23.4674 1.54167 23.5039 1.6875C22.9388 2.03385 22.5469 2.48958 22.3281 3.05469C22.0365 3.20052 21.7995 3.40104 21.6172 3.65625C21.4349 3.89323 21.2617 4.14844 21.0977 4.42188C20.9518 4.67708 20.7969 4.93229 20.6328 5.1875C20.4688 5.42448 20.25 5.625 19.9766 5.78906V6.39062C19.8307 6.35417 19.7305 6.3724 19.6758 6.44531C19.6393 6.5 19.5755 6.54557 19.4844 6.58203C19.1198 7.27474 18.7461 7.96745 18.3633 8.66016C17.9805 9.33464 17.5065 9.94531 16.9414 10.4922C16.7956 10.875 16.6315 11.2487 16.4492 11.6133C16.2669 11.9779 16.0755 12.3424 15.875 12.707C15.6745 13.0716 15.4831 13.4362 15.3008 13.8008C15.1185 14.1654 14.9727 14.5391 14.8633 14.9219C14.4987 15.3047 14.1888 15.7331 13.9336 16.207C13.6784 16.6628 13.4323 17.1276 13.1953 17.6016C12.9766 18.0573 12.7305 18.513 12.457 18.9688C12.2018 19.4245 11.8919 19.8438 11.5273 20.2266C11.5456 20.3906 11.5182 20.5273 11.4453 20.6367C11.3724 20.7461 11.3359 20.8646 11.3359 20.9922C11.3359 21.4115 11.5365 21.8854 11.9375 22.4141C12.3568 22.9245 12.849 23.444 13.4141 23.9727C13.9792 24.4831 14.5443 24.957 15.1094 25.3945C15.6745 25.832 16.112 26.1693 16.4219 26.4062C16.8958 26.2057 17.3151 26.0052 17.6797 25.8047C18.0443 25.5859 18.4818 25.4583 18.9922 25.4219C19.2474 25.5495 19.4479 25.7227 19.5938 25.9414C19.7578 26.1419 19.8398 26.3789 19.8398 26.6523C19.8398 27.0716 19.7122 27.4727 19.457 27.8555C19.2018 28.2201 18.9193 28.5208 18.6094 28.7578C18.3177 28.8125 18.026 28.8581 17.7344 28.8945C17.4427 28.931 17.151 28.9492 16.8594 28.9492C16.276 28.9492 15.6927 28.8945 15.1094 28.7852C14.5443 28.6576 13.9792 28.5208 13.4141 28.375C13.1042 27.974 12.7578 27.6276 12.375 27.3359C12.0104 27.026 11.6003 26.7799 11.1445 26.5977C11.1263 26.3789 11.0716 26.1966 10.9805 26.0508C10.8893 25.9049 10.7799 25.7773 10.6523 25.668C10.5247 25.5404 10.3789 25.431 10.2148 25.3398C10.069 25.2487 9.92318 25.1484 9.77734 25.0391C9.59505 25.0938 9.43099 25.1758 9.28516 25.2852C9.13932 25.3763 8.97526 25.4492 8.79297 25.5039C8.44661 26.3424 7.98177 27.1263 7.39844 27.8555C7.4349 28.1836 7.37109 28.4388 7.20703 28.6211C7.0612 28.7852 6.86979 28.9583 6.63281 29.1406C6.54167 29.6693 6.36849 30.1432 6.11328 30.5625C5.8763 30.9818 5.59375 31.3919 5.26562 31.793L5.29297 32.0117C5.29297 32.0846 5.26562 32.1484 5.21094 32.2031C5.17448 32.2578 5.16536 32.349 5.18359 32.4766C4.91016 32.8047 4.68229 33.1784 4.5 33.5977C4.31771 34.0352 4.14453 34.4818 3.98047 34.9375C3.83464 35.3932 3.6888 35.849 3.54297 36.3047C3.41536 36.7604 3.26953 37.1888 3.10547 37.5898C3.17839 37.7539 3.21484 37.9453 3.21484 38.1641C3.21484 38.3646 3.19661 38.5651 3.16016 38.7656C3.1237 38.9661 3.10547 39.1667 3.10547 39.3672C3.10547 39.5312 3.13281 39.6862 3.1875 39.832C3.24219 39.9961 3.34245 40.1328 3.48828 40.2422C3.70703 40.0417 3.98958 39.9414 4.33594 39.9414C4.53646 39.9414 4.72786 39.9688 4.91016 40.0234C5.11068 40.0781 5.29297 40.151 5.45703 40.2422C5.52995 40.388 5.56641 40.5156 5.56641 40.625C5.56641 40.7526 5.52995 40.862 5.45703 40.9531C5.40234 41.0625 5.32943 41.1628 5.23828 41.2539C5.16536 41.3633 5.08333 41.4635 4.99219 41.5547C4.91927 41.6458 4.8737 41.7552 4.85547 41.8828C4.4362 41.9193 4.01693 41.9831 3.59766 42.0742C3.19661 42.1654 2.80469 42.3021 2.42187 42.4844C2.20312 42.4479 2.0026 42.3659 1.82031 42.2383C1.65625 42.1289 1.46484 42.0469 1.24609 41.9922C1.00911 41.6823 0.826823 41.3451 0.699219 40.9805C0.553385 40.6159 0.371094 40.2695 0.152344 39.9414C0.152344 39.5221 0.207031 39.1029 0.316406 38.6836C0.425781 38.2826 0.544271 37.8815 0.671875 37.4805C0.78125 37.0794 0.88151 36.6693 0.972656 36.25C1.0638 35.849 1.09115 35.4388 1.05469 35.0195C1.23698 34.9284 1.38281 34.7826 1.49219 34.582C1.60156 34.3997 1.68359 34.1901 1.73828 33.9531C1.8112 33.7344 1.875 33.5065 1.92969 33.2695C1.98437 33.0508 2.04818 32.8503 2.12109 32.668C2.32161 32.5404 2.46745 32.3763 2.55859 32.1758C2.66797 31.9935 2.82292 31.8385 3.02344 31.7109C3.02344 31.6745 3.01432 31.638 2.99609 31.6016C2.99609 31.5833 2.99609 31.556 2.99609 31.5195C2.97786 31.4831 2.95964 31.4557 2.94141 31.4375C2.92318 31.4375 2.91406 31.4193 2.91406 31.3828C2.91406 31.3464 2.90495 31.3099 2.88672 31.2734C2.88672 31.2552 2.89583 31.2279 2.91406 31.1914L3.1875 30.8359C3.44271 30.5078 3.63411 30.207 3.76172 29.9336C3.88932 29.6419 4.03516 29.3138 4.19922 28.9492C4.34505 28.6029 4.52734 28.2565 4.74609 27.9102C4.96484 27.5638 5.17448 27.2174 5.375 26.8711C5.84896 26.0143 6.30469 25.1667 6.74219 24.3281C7.19792 23.4714 7.68099 22.6237 8.19141 21.7852C8.04557 21.6758 7.92708 21.5482 7.83594 21.4023C7.74479 21.2383 7.65365 21.0742 7.5625 20.9102C7.48958 20.7461 7.40755 20.5911 7.31641 20.4453C7.22526 20.2812 7.09766 20.1445 6.93359 20.0352C6.55078 19.0326 6.11328 18.0573 5.62109 17.1094C5.14714 16.1432 4.68229 15.1862 4.22656 14.2383C4.0625 13.8919 3.90755 13.5456 3.76172 13.1992C3.63411 12.8346 3.47917 12.4974 3.29687 12.1875C3.24219 12.0964 3.17839 12.0599 3.10547 12.0781C3.03255 12.0964 2.96875 12.069 2.91406 11.9961C2.76823 11.5768 2.64062 11.2031 2.53125 10.875L2.12109 9.64453C2.19401 9.27995 2.35807 9.01562 2.61328 8.85156C2.86849 8.6875 3.16927 8.60547 3.51562 8.60547C3.78906 8.60547 4.08073 8.65104 4.39062 8.74219C4.55469 8.92448 4.70964 9.125 4.85547 9.34375C5.0013 9.54427 5.17448 9.73568 5.375 9.91797V10.6289C5.90365 11.7044 6.39583 12.7799 6.85156 13.8555C7.32552 14.931 7.83594 16.0065 8.38281 17.082C8.58333 17.1185 8.7474 17.2005 8.875 17.3281C9.0026 17.4557 9.12109 17.5924 9.23047 17.7383C9.33984 17.8841 9.44922 18.0208 9.55859 18.1484C9.6862 18.276 9.85938 18.349 10.0781 18.3672C10.151 18.3307 10.2604 18.2122 10.4062 18.0117C10.5521 17.793 10.6979 17.5651 10.8438 17.3281C11.0078 17.0729 11.1445 16.8268 11.2539 16.5898C11.3815 16.3529 11.4453 16.1888 11.4453 16.0977V15.9062C12.6484 14.2474 13.6602 12.4883 14.4805 10.6289C14.6628 10.5378 14.8086 10.4193 14.918 10.2734C15.0273 10.1094 15.1276 9.94531 15.2188 9.78125C15.3281 9.59896 15.4375 9.42578 15.5469 9.26172C15.6562 9.09766 15.793 8.96094 15.957 8.85156C16.0482 8.46875 16.194 8.11328 16.3945 7.78516C16.5951 7.45703 16.8047 7.12891 17.0234 6.80078C17.2422 6.47266 17.4518 6.14453 17.6523 5.81641C17.8529 5.47005 18.0078 5.10547 18.1172 4.72266C18.3177 4.64974 18.4727 4.53125 18.582 4.36719C18.7096 4.20312 18.819 4.02995 18.9102 3.84766C19.0013 3.66536 19.1016 3.49219 19.2109 3.32812C19.3203 3.16406 19.4753 3.04557 19.6758 2.97266C19.8034 2.37109 20.0495 1.87891 20.4141 1.49609C20.7786 1.11328 21.2526 0.821615 21.8359 0.621094L21.9453 0.320312C22.0182 0.356771 22.1458 0.393229 22.3281 0.429688C22.5104 0.447917 22.6836 0.47526 22.8477 0.511719C23.0299 0.529948 23.1849 0.566406 23.3125 0.621094C23.4583 0.675781 23.5312 0.757812 23.5312 0.867188Z" fill="white"/>
</svg>
